<?xml version="1.0" encoding="utf-8"?>
<!-- Generator: Adobe Illustrator 22.0.1, SVG Export Plug-In . SVG Version: 6.00 Build 0)  -->
<svg version="1.1" id="Слой_1" xmlns="http://www.w3.org/2000/svg" xmlns:xlink="http://www.w3.org/1999/xlink" x="0px" y="0px"
	 viewBox="0 0 142.7 27.3" style="enable-background:new 0 0 142.7 27.3;" xml:space="preserve">
<style type="text/css">
	.st0{fill:#FFFFFF;}
</style>
<g>
	<path class="st0" d="M42.8,19l-0.7,2.3c0,0.1-0.1,0.2-0.2,0.2c-2.3-0.1-4.3-0.9-5.9-2.4c-1.1-1.1-2-2.4-2.6-3.9s-0.9-3.1-0.9-4.7
		c0-4.5,2.4-6.8,7.2-6.8h2.1c0.1,0,0.2,0.1,0.2,0.1l0.6,2.4c0,0.1-0.1,0.3-0.2,0.3h-2.1c-3.1,0-4.7,1.5-4.7,4.4c0,1.6,0.4,3,1.2,4.3
		c0.8,1.3,1.9,2.3,3.3,3c0.8,0.4,1.6,0.6,2.5,0.6C42.7,18.8,42.8,18.9,42.8,19z"/>
	<path class="st0" d="M48.3,3.9v6.7c0,0.1,0.1,0.2,0.2,0.2h5.8c0.1,0,0.2-0.1,0.2-0.2V3.9c0-0.1,0.1-0.2,0.2-0.2h2.7
		c0.1,0,0.2,0.1,0.2,0.2v17.4c0,0.1-0.1,0.2-0.2,0.2h-2.7c-0.1,0-0.2-0.1-0.2-0.2v-7.6c0-0.1-0.1-0.2-0.2-0.2h-5.8
		c-0.1,0-0.2,0.1-0.2,0.2v4.4c0,1.6,0.1,2.8,0.3,3.6c0,0.1,0,0.2-0.1,0.2l-2.3,1.5c-0.1,0.1-0.3,0-0.3-0.1c-0.4-1-0.6-2.7-0.6-4.9
		V3.9c0-0.1,0.1-0.2,0.2-0.2h2.7C48.2,3.7,48.3,3.8,48.3,3.9z"/>
	<path class="st0" d="M69.3,21.3v-4.9c0-0.1-0.1-0.2-0.2-0.2h-5.9c-0.1,0-0.2,0.1-0.2,0.2c0.1,2.4,0.6,4.2,1.4,5.5
		c0.1,0.1,0,0.2-0.1,0.3l-2.1,1.5c-0.1,0.1-0.2,0-0.3-0.1c-1.4-2.3-2.2-5.1-2.2-8.3c0-3.5,1-6.3,2.9-8.4c1.9-2.1,4.5-3.2,7.7-3.2
		h1.9c0.1,0,0.2,0.1,0.2,0.2L73,6.2c0,0.1-0.1,0.2-0.2,0.2h-2.2c-2.1,0-3.9,0.7-5.3,2c-1.4,1.3-2.1,2.9-2.3,4.9
		c0,0.1,0.1,0.2,0.2,0.2h5.9c0.1,0,0.2-0.1,0.2-0.2V7.5c0-0.1,0.1-0.2,0.2-0.2h2.7c0.1,0,0.2,0.1,0.2,0.2v13.9
		c0,0.1-0.1,0.2-0.2,0.2h-2.7C69.4,21.5,69.3,21.4,69.3,21.3z"/>
	<path class="st0" d="M90.8,4.1h2.7c0.1,0,0.1,0,0.2,0.1l4.2,7c0.1,0.1,0.3,0.1,0.3,0l4.2-7c0-0.1,0.1-0.1,0.2-0.1h2.7
		c0.1,0,0.2,0.1,0.2,0.2v17.4c0,0.1-0.1,0.2-0.2,0.2h-2.6c-0.1,0-0.2-0.1-0.2-0.2l0-11.2c0-0.2-0.3-0.3-0.4-0.1l-3.9,6.2
		c-0.1,0.1-0.3,0.1-0.3,0L94,10.4c-0.1-0.2-0.4-0.1-0.4,0.1l0,11.2c0,0.1-0.1,0.2-0.2,0.2h-2.6c-0.1,0-0.2-0.1-0.2-0.2V4.3
		C90.6,4.2,90.7,4.1,90.8,4.1z"/>
</g>
<g>
	<path class="st0" d="M74.9,6.2l0.6-2.3c0-0.1,0.1-0.2,0.2-0.2h6.8c1.6,0,2.8,0.3,3.7,0.9c1.1,0.7,1.7,1.8,1.7,3.3
		c0,1.3-0.5,2.5-1.5,3.7c-0.8,0.9-1.7,1.8-2.9,2.5c-0.1,0.1-0.1,0.2-0.1,0.3c0.8,1.7,1.9,3.4,2.8,4.6c0.4,0.5,2.5,3.1,2.6,3.2
		c0.6,1.5-0.9,2.8-2.5,1.9c0,0-0.3-0.4-0.4-0.4c-0.6-0.6-5.2-7.2-6.4-10.2c0-0.1,0-0.2,0.1-0.2c1.1-0.5,2.1-1.1,3-1.8
		c0.8-0.7,1.4-1.4,1.7-2.1c0.6-1.5-0.5-2.8-2.1-2.8l0,0h-7.1C74.9,6.5,74.8,6.3,74.9,6.2z M78.3,21.5h-2.6c-0.1,0-0.2-0.1-0.2-0.2
		V7.5c0-0.1,0.1-0.2,0.2-0.2h2.6c0.1,0,0.2,0.1,0.2,0.2v13.9C78.5,21.4,78.4,21.5,78.3,21.5z"/>
</g>
</svg>
