<?xml version="1.0" encoding="utf-8"?>
<!-- Generator: Adobe Illustrator 22.0.1, SVG Export Plug-In . SVG Version: 6.00 Build 0)  -->
<svg version="1.1" id="Слой_1" xmlns="http://www.w3.org/2000/svg" xmlns:xlink="http://www.w3.org/1999/xlink" x="0px" y="0px"
	 viewBox="0 0 142.7 27.3" style="enable-background:new 0 0 142.7 27.3;" xml:space="preserve">
<style type="text/css">
	.st0{fill:#FFFFFF;}
</style>
<g>
	<path class="st0" d="M40.4,20l-0.7,2.3c0,0.1-0.1,0.2-0.2,0.2c-2.3-0.1-4.3-0.9-5.9-2.4c-1.1-1.1-2-2.4-2.6-3.9s-0.9-3.1-0.9-4.7
		c0-4.5,2.4-6.8,7.2-6.8h2.1c0.1,0,0.2,0.1,0.2,0.1l0.6,2.4c0,0.1-0.1,0.3-0.2,0.3H38c-3.1,0-4.7,1.5-4.7,4.4c0,1.6,0.4,3,1.2,4.3
		c0.8,1.3,1.9,2.3,3.3,3c0.8,0.4,1.6,0.6,2.5,0.6C40.4,19.7,40.5,19.8,40.4,20z"/>
	<path class="st0" d="M45.9,4.9v6.7c0,0.1,0.1,0.2,0.2,0.2H52c0.1,0,0.2-0.1,0.2-0.2V4.9c0-0.1,0.1-0.2,0.2-0.2H55
		c0.1,0,0.2,0.1,0.2,0.2v17.4c0,0.1-0.1,0.2-0.2,0.2h-2.7c-0.1,0-0.2-0.1-0.2-0.2v-7.6c0-0.1-0.1-0.2-0.2-0.2h-5.8
		c-0.1,0-0.2,0.1-0.2,0.2V19c0,1.6,0.1,2.8,0.3,3.6c0,0.1,0,0.2-0.1,0.2l-2.3,1.5c-0.1,0.1-0.3,0-0.3-0.1c-0.4-1-0.6-2.7-0.6-4.9
		V4.9c0-0.1,0.1-0.2,0.2-0.2h2.7C45.8,4.7,45.9,4.8,45.9,4.9z"/>
	<path class="st0" d="M67,22.2v-4.9c0-0.1-0.1-0.2-0.2-0.2h-5.9c-0.1,0-0.2,0.1-0.2,0.2c0.1,2.4,0.6,4.2,1.4,5.5
		c0.1,0.1,0,0.2-0.1,0.3l-2.1,1.5c-0.1,0.1-0.2,0-0.3-0.1c-1.4-2.3-2.2-5.1-2.2-8.3c0-3.5,1-6.3,2.9-8.4c1.9-2.1,4.5-3.2,7.7-3.2
		h1.9c0.1,0,0.2,0.1,0.2,0.2l0.6,2.3c0,0.1-0.1,0.2-0.2,0.2h-2.2c-2.1,0-3.9,0.7-5.3,2c-1.4,1.3-2.1,2.9-2.3,4.9
		c0,0.1,0.1,0.2,0.2,0.2h5.9c0.1,0,0.2-0.1,0.2-0.2V8.4c0-0.1,0.1-0.2,0.2-0.2h2.7c0.1,0,0.2,0.1,0.2,0.2v13.9
		c0,0.1-0.1,0.2-0.2,0.2h-2.7C67.1,22.5,67,22.4,67,22.2z"/>
	<path class="st0" d="M72.7,7.2l0.6-2.3c0-0.1,0.1-0.2,0.2-0.2h6.8C81.8,4.7,83,5,84,5.6c1.1,0.7,1.7,1.8,1.7,3.3
		c0,1.3-0.5,2.5-1.5,3.7c-0.8,0.9-1.7,1.8-2.9,2.5c-0.1,0.1-0.1,0.2-0.1,0.3c0.8,1.7,1.7,3.2,2.6,4.4c0.6,0.8,1.4,1.7,2.5,2.6
		c0.1,0.1,0.1,0.2,0,0.3L84,24.2c-0.1,0.1-0.2,0-0.3,0c-2.9-3.3-5.1-6.5-6.3-9.7c0-0.1,0-0.2,0.1-0.3c1.1-0.5,2.1-1.1,3-1.8
		c0.7-0.6,1.2-1.2,1.5-1.8c0.7-1.4-0.4-3.1-1.9-3.1c0,0,0,0,0,0h-7.1C72.8,7.4,72.7,7.3,72.7,7.2z M76.1,22.5h-2.6
		c-0.1,0-0.2-0.1-0.2-0.2V8.4c0-0.1,0.1-0.2,0.2-0.2h2.6c0.1,0,0.2,0.1,0.2,0.2v13.9C76.3,22.4,76.2,22.5,76.1,22.5z"/>
	<path class="st0" d="M88.5,4.7h2.7c0.1,0,0.1,0,0.2,0.1l4.2,7c0.1,0.1,0.3,0.1,0.3,0l4.2-7c0-0.1,0.1-0.1,0.2-0.1h2.7
		c0.1,0,0.2,0.1,0.2,0.2v17.4c0,0.1-0.1,0.2-0.2,0.2h-2.6c-0.1,0-0.2-0.1-0.2-0.2l0-11.2c0-0.2-0.3-0.3-0.4-0.1l-3.9,6.2
		c-0.1,0.1-0.3,0.1-0.3,0L91.7,11c-0.1-0.2-0.4-0.1-0.4,0.1l0,11.2c0,0.1-0.1,0.2-0.2,0.2h-2.6c-0.1,0-0.2-0.1-0.2-0.2V4.9
		C88.3,4.8,88.4,4.7,88.5,4.7z"/>
</g>
</svg>
