<?xml version="1.0" encoding="UTF-8" standalone="no"?>
<svg
   xmlns:dc="http://purl.org/dc/elements/1.1/"
   xmlns:cc="http://creativecommons.org/ns#"
   xmlns:rdf="http://www.w3.org/1999/02/22-rdf-syntax-ns#"
   xmlns:svg="http://www.w3.org/2000/svg"
   xmlns="http://www.w3.org/2000/svg"
   xmlns:sodipodi="http://sodipodi.sourceforge.net/DTD/sodipodi-0.dtd"
   xmlns:inkscape="http://www.inkscape.org/namespaces/inkscape"
   id="Слой_1"
   data-name="Слой 1"
   viewBox="0 0 249.99999 55.000003"
   version="1.1"
   sodipodi:docname="Collie.svg"
   width="250"
   height="55"
   inkscape:version="1.0.2 (e86c870879, 2021-01-15, custom)">
  <metadata
     id="metadata23">
    <rdf:RDF>
      <cc:Work
         rdf:about="">
        <dc:format>image/svg+xml</dc:format>
        <dc:type
           rdf:resource="http://purl.org/dc/dcmitype/StillImage" />
        <dc:title>Монтажная область 32</dc:title>
      </cc:Work>
    </rdf:RDF>
  </metadata>
  <sodipodi:namedview
     pagecolor="#ffffff"
     bordercolor="#666666"
     borderopacity="1"
     objecttolerance="10"
     gridtolerance="10"
     guidetolerance="10"
     inkscape:pageopacity="0"
     inkscape:pageshadow="2"
     inkscape:window-width="1362"
     inkscape:window-height="744"
     id="namedview21"
     showgrid="false"
     inkscape:zoom="1.6427784"
     inkscape:cx="136.30826"
     inkscape:cy="-10.704864"
     inkscape:window-x="0"
     inkscape:window-y="0"
     inkscape:window-maximized="0"
     inkscape:current-layer="Слой_1" />
  <defs
     id="defs4">
    <style
       id="style2">.cls-1{fill:#fff;}</style>
  </defs>
  <title
     id="title6">Монтажная область 32</title>
  <path
     class="cls-1"
     d="m 33.19,26.77 c 0,-0.38 0,-0.72 -0.07,-1 -0.07,-0.28 0,-0.59 0,-0.86 A 17.26,17.26 0 0 1 33.52,21.39 22.86,22.86 0 0 1 39,9.74 14.9,14.9 0 0 1 48.32,5.08 L 49.49,5 a 11.12,11.12 0 0 1 1.21,-0.1 4.89,4.89 0 0 1 3.89,1.35 c 0.78,0.89 1.32,2.5 1.61,4.81 a 9.56,9.56 0 0 1 0.09,1.15 8.26,8.26 0 0 1 -0.13,1.49 c -0.09,0.45 -0.22,1 -0.4,1.63 A 11.52,11.52 0 0 1 54,19 1.89,1.89 0 0 1 52.5,19.75 1.82,1.82 0 0 1 51,19 3.67,3.67 0 0 1 50.16,16.58 11.6,11.6 0 0 1 51.88,11.47 l 0.48,-0.74 A 1.55,1.55 0 0 0 52.58,9.89 V 9.57 c 0,-0.09 -0.06,-0.19 -0.09,-0.31 a 2.16,2.16 0 0 0 -1,-1.47 4.11,4.11 0 0 0 -2.29,-0.55 11,11 0 0 0 -3,0.5 A 7,7 0 0 0 43,10 17.69,17.69 0 0 0 40.19,15.2 l -1,3.16 a 29.58,29.58 0 0 0 -0.7,3.63 25.31,25.31 0 0 0 -0.22,3.24 c 0,3.25 0.76,5.72 2.28,7.39 A 8.17,8.17 0 0 0 47,35.09 10,10 0 0 0 51.62,34 a 16.35,16.35 0 0 0 1.79,-1.1 7.29,7.29 0 0 0 1.12,-1 l 1.27,-1.45 c 0.62,-0.11 1,0.24 1.06,1.06 a 2.1,2.1 0 0 1 -0.64,1.49 9.88,9.88 0 0 1 -1.6,1.4 l -1.9,1.41 -0.22,0.13 a 12.18,12.18 0 0 1 -3.45,1.32 18,18 0 0 1 -4.25,0.49 11.14,11.14 0 0 1 -7,-2.29 12,12 0 0 1 -4.13,-6.38 c -0.12,-0.47 -0.21,-0.86 -0.27,-1.16 -0.06,-0.3 -0.15,-0.71 -0.21,-1.15 z"
     id="path8"
     style="fill:#ffffff" />
  <path
     class="cls-1"
     d="m 69,19.38 2.2,-0.44 a 2.77,2.77 0 0 1 0.68,-0.09 h 0.51 q 4.62,0 4.62,5.33 A 13.88,13.88 0 0 1 76.7,27 14,14 0 0 1 75.14,31.26 12.47,12.47 0 0 1 72.3,34.52 10.78,10.78 0 0 1 65.44,37.25 9.08,9.08 0 0 1 64,37.16 8,8 0 0 1 59.79,35.48 4.58,4.58 0 0 1 58.53,32 a 6.35,6.35 0 0 1 0,-0.84 l 0.14,-0.7 -0.66,0.66 -0.09,0.09 a 12.82,12.82 0 0 1 -1.32,1.41 0.83,0.83 0 0 1 -0.71,0.17 0.69,0.69 0 0 1 -0.57,-0.75 2.66,2.66 0 0 1 0.44,-1.23 2.62,2.62 0 0 1 0.49,-0.57 c 0.79,-0.79 1.65,-1.64 2.59,-2.55 l 0.31,-0.31 a 6.76,6.76 0 0 0 0.64,-0.82 7.15,7.15 0 0 0 0.68,-1.18 c 0.18,-0.4 0.45,-1.15 0.84,-2.27 l 0.39,-0.88 a 6.71,6.71 0 0 1 1.1,-1.72 18,18 0 0 1 2.84,-2.51 3.68,3.68 0 0 1 2,-0.73 1.71,1.71 0 0 1 1.1,0.4 1.25,1.25 0 0 1 0.48,1 1.34,1.34 0 0 1 -0.22,0.71 z m 5,9.33 a 9,9 0 0 0 0.17,-1.81 5.34,5.34 0 0 0 -0.81,-3.1 3,3 0 0 0 -1.8,-1.36 8.66,8.66 0 0 0 -1.48,-0.2 3.11,3.11 0 0 0 -1.23,0.22 2.42,2.42 0 0 0 -0.88,0.62 c -0.5,0.61 -0.85,1 -1.06,1.23 a 1.88,1.88 0 0 1 -0.48,0.39 5.9,5.9 0 0 0 -1.34,1 7.67,7.67 0 0 0 -0.75,1.91 9.94,9.94 0 0 0 -0.46,2.86 4.73,4.73 0 0 0 0.17,1.37 c 0.53,1.93 1.49,2.9 2.86,2.9 A 7.64,7.64 0 0 0 70.39,33.55 6.72,6.72 0 0 0 74,28.71 Z"
     id="path10"
     style="fill:#ffffff" />
  <path
     class="cls-1"
     d="m 76.31,32.58 a 2.59,2.59 0 0 1 0.33,-1.45 15.38,15.38 0 0 1 1.73,-1.81 l 0.88,-0.83 c 0.74,-0.79 1.37,-1.53 1.9,-2.2 l 0.22,-2.77 0.17,-1.72 0.27,-3.52 V 17.14 L 82,15.73 A 31.49,31.49 0 0 1 83.59,9 8.55,8.55 0 0 1 86.12,5.43 9.73,9.73 0 0 1 88.05,4.07 1.77,1.77 0 0 1 88.67,3.94 c 1,0 1.67,0.76 2,2.28 a 6.66,6.66 0 0 1 0.18,1.63 31.38,31.38 0 0 1 -0.57,4.4 24.13,24.13 0 0 1 -1.28,4.49 54.89,54.89 0 0 1 -2.71,5.68 l -0.44,0.75 -0.4,0.7 c 0,0.56 0,1.11 0,1.67 0,0.56 0.09,1.1 0.17,1.63 q 1,7.13 4.18,7.13 a 6.44,6.44 0 0 0 2.86,-0.88 3.18,3.18 0 0 0 1.06,-0.71 l 2,-1.76 c 0.18,-0.17 0.46,-0.1 0.84,0.22 a 1,1 0 0 1 0.35,0.71 c 0,0.55 -0.61,1.3 -1.85,2.24 L 92.72,36 a 6.25,6.25 0 0 1 -0.64,0.42 7,7 0 0 1 -0.77,0.33 12.32,12.32 0 0 1 -4.14,0.88 5.2,5.2 0 0 1 -4.09,-1.68 8.56,8.56 0 0 1 -1.85,-4.84 v -1.14 -0.53 -0.53 l -0.39,0.4 -0.53,0.53 -1.23,1.36 a 8.57,8.57 0 0 1 -1.17,1.26 1.37,1.37 0 0 1 -0.86,0.33 4.43,4.43 0 0 1 -0.74,-0.21 z m 11.74,-19 0.53,-1.85 A 4.9,4.9 0 0 0 88.8,10.32 C 88.86,9.85 88.61,9.59 88.05,9.53 a 1.3,1.3 0 0 0 -0.88,0.44 3.27,3.27 0 0 0 -0.7,1.5 l -0.88,3.52 c -0.21,1 -0.39,2 -0.55,3.1 -0.16,1.1 -0.3,2.06 -0.42,3 a 19.8,19.8 0 0 0 1.7,-2.88 30.84,30.84 0 0 0 1.43,-3.72 z"
     id="path12"
     style="fill:#ffffff" />
  <path
     class="cls-1"
     d="m 95.36,32.58 a 2.59,2.59 0 0 1 0.33,-1.45 14.91,14.91 0 0 1 1.74,-1.81 l 0.88,-0.83 c 0.73,-0.79 1.36,-1.53 1.89,-2.2 l 0.22,-2.77 0.17,-1.72 0.27,-3.52 v -1.14 l 0.18,-1.41 a 31.49,31.49 0 0 1 1.6,-6.73 8.55,8.55 0 0 1 2.53,-3.57 9.46,9.46 0 0 1 1.94,-1.36 1.72,1.72 0 0 1 0.61,-0.13 c 1,0 1.67,0.76 2,2.28 a 7.22,7.22 0 0 1 0.17,1.63 31.38,31.38 0 0 1 -0.57,4.4 23.39,23.39 0 0 1 -1.32,4.49 52.89,52.89 0 0 1 -2.71,5.68 l -0.44,0.75 -0.39,0.7 c 0,0.56 0,1.11 0,1.67 a 14.26,14.26 0 0 0 0.18,1.63 q 1,7.13 4.18,7.13 a 6.52,6.52 0 0 0 2.86,-0.88 3.24,3.24 0 0 0 1,-0.71 l 2,-1.76 c 0.17,-0.17 0.45,-0.1 0.83,0.22 a 1,1 0 0 1 0.35,0.71 c 0,0.55 -0.61,1.3 -1.84,2.24 L 111.77,36 a 5.32,5.32 0 0 1 -0.64,0.42 7,7 0 0 1 -0.77,0.33 12.32,12.32 0 0 1 -4.13,0.88 5.22,5.22 0 0 1 -4.1,-1.68 8.48,8.48 0 0 1 -1.84,-4.84 l -0.05,-1.14 v -0.53 l 0.05,-0.53 -0.4,0.4 -0.53,0.53 -1.23,1.36 A 8.57,8.57 0 0 1 97,32.43 1.34,1.34 0 0 1 96.15,32.76 4.22,4.22 0 0 1 95.36,32.58 Z m 11.75,-19 0.52,-1.85 a 4.9,4.9 0 0 0 0.22,-1.41 c 0.06,-0.47 -0.19,-0.73 -0.74,-0.79 a 1.26,1.26 0 0 0 -0.88,0.44 3.17,3.17 0 0 0 -0.71,1.5 l -0.88,3.52 c -0.2,1 -0.39,2 -0.55,3.1 -0.16,1.1 -0.3,2.06 -0.42,3 a 19.8,19.8 0 0 0 1.7,-2.88 30.84,30.84 0 0 0 1.43,-3.72 z"
     id="path14"
     style="fill:#ffffff" />
  <path
     class="cls-1"
     d="m 120.7,27.65 -0.88,0.79 -2,1.9 c -0.47,0.52 -0.92,1 -1.34,1.47 a 4.05,4.05 0 0 1 -0.93,0.82 1.33,1.33 0 0 1 -0.42,0.13 0.79,0.79 0 0 1 -0.66,-0.29 1.05,1.05 0 0 1 -0.22,-0.64 1.44,1.44 0 0 1 0.49,-1 l 1.36,-1.32 0.31,-0.31 1.41,-1.41 2.81,-2.9 0.62,-0.66 c 1,-1 1.76,-1.54 2.29,-1.54 a 6.18,6.18 0 0 1 1.49,0.37 2.36,2.36 0 0 1 1.35,0.84 9.56,9.56 0 0 1 0.24,2.93 c 0.06,0.58 0.11,1.05 0.17,1.4 0.06,0.35 0.16,0.84 0.31,1.46 l 0.35,1.18 q 1.15,3.7 3.22,3.7 a 3.46,3.46 0 0 0 2.06,-0.84 c 0.56,-0.44 1,-0.77 1.24,-1 0.24,-0.23 0.51,-0.47 0.74,-0.7 a 8.89,8.89 0 0 1 1.15,-1.19 0.81,0.81 0 0 1 0.7,-0.17 0.71,0.71 0 0 1 0.62,1 2.15,2.15 0 0 1 -0.42,0.88 c -0.22,0.3 -0.67,0.81 -1.34,1.54 l -1.54,1.32 a 13.16,13.16 0 0 1 -3.52,2.2 10.28,10.28 0 0 1 -3.61,1 3.1,3.1 0 0 1 -2.53,-1.34 18.15,18.15 0 0 1 -2.22,-4.82 23.32,23.32 0 0 1 -0.73,-2.25 c -0.21,-0.7 -0.39,-1.55 -0.57,-2.55 z m 2,-15 a 2.59,2.59 0 0 1 0.15,-1.26 6.79,6.79 0 0 1 1,-1.69 5.92,5.92 0 0 1 1.74,-1.59 2.09,2.09 0 0 1 3.12,1.28 3.78,3.78 0 0 1 0.29,1.41 4,4 0 0 1 -0.57,2.07 4.08,4.08 0 0 1 -2.25,1.76 3.4,3.4 0 0 1 -0.92,0.13 2.31,2.31 0 0 1 -2.53,-2.15 z"
     id="path16"
     style="fill:#ffffff" />
  <path
     class="cls-1"
     d="m 142.44,30.86 a 2.89,2.89 0 0 0 -0.05,0.84 3.07,3.07 0 0 0 1,2.38 3.71,3.71 0 0 0 2.61,0.92 4.67,4.67 0 0 0 2.11,-0.48 7.42,7.42 0 0 0 2.51,-1.81 L 152,31.35 a 2,2 0 0 1 1.12,-0.7 2.3,2.3 0 0 1 0.75,0.17 5.2,5.2 0 0 1 -1.17,2.66 18.53,18.53 0 0 1 -3.76,3 8.43,8.43 0 0 1 -2.42,1.06 9.9,9.9 0 0 1 -2.33,0.31 5.92,5.92 0 0 1 -3.79,-1.19 5,5 0 0 1 -1.84,-3.17 7,7 0 0 1 -0.09,-0.92 6.06,6.06 0 0 1 0.06,-1 6.57,6.57 0 0 1 0.38,-1.1 l -0.88,0.92 -1.19,1.28 a 0.72,0.72 0 0 1 -1,-0.4 1.12,1.12 0 0 1 -0.13,-0.53 2,2 0 0 1 0.57,-1.09 22.08,22.08 0 0 1 1.94,-2 l 2.15,-2.07 0.53,-0.44 c 0.91,-0.82 1.73,-1.51 2.47,-2.07 0.49,-0.38 1.11,-0.84 1.84,-1.37 a 17.49,17.49 0 0 1 3.44,-1.82 7.08,7.08 0 0 1 2.33,-0.51 2.29,2.29 0 0 1 1.54,0.66 2,2 0 0 1 0.53,1.41 2.61,2.61 0 0 1 -0.09,0.66 5.76,5.76 0 0 1 -0.33,0.9 11.19,11.19 0 0 1 -0.73,1.34 9.49,9.49 0 0 1 -3.12,2.95 20,20 0 0 1 -5.33,2.25 l -0.88,0.26 z m 8.05,-7.21 a 2.26,2.26 0 0 0 -1.14,-0.35 2.4,2.4 0 0 0 -1.26,0.39 15,15 0 0 0 -1.82,1.5 l -1.9,1.67 A 10.51,10.51 0 0 0 143,29 a 13.62,13.62 0 0 0 3.65,-1.36 10.55,10.55 0 0 0 2.53,-1.83 5.94,5.94 0 0 0 1.31,-2.16 z"
     id="path18"
     style="fill:#ffffff" />
</svg>
