<svg id="Слой_1" data-name="Слой 1" xmlns="http://www.w3.org/2000/svg" viewBox="0 0 793.46 118.02"><defs><style>.cls-1{fill:#fff;}</style></defs><title>Монтажная область 32</title><path class="cls-1" d="M33.19,26.77c0-.38,0-.72-.07-1s0-.59,0-.86a17.26,17.26,0,0,1,.4-3.52A22.86,22.86,0,0,1,39,9.74a14.9,14.9,0,0,1,9.32-4.66L49.49,5A11.12,11.12,0,0,1,50.7,4.9a4.89,4.89,0,0,1,3.89,1.35c.78.89,1.32,2.5,1.61,4.81a9.56,9.56,0,0,1,.09,1.15,8.26,8.26,0,0,1-.13,1.49c-.09.45-.22,1-.4,1.63A11.52,11.52,0,0,1,54,19a1.89,1.89,0,0,1-1.5.75A1.82,1.82,0,0,1,51,19a3.67,3.67,0,0,1-.84-2.42,11.6,11.6,0,0,1,1.72-5.11l.48-.74a1.55,1.55,0,0,0,.22-.84V9.57c0-.09-.06-.19-.09-.31a2.16,2.16,0,0,0-1-1.47,4.11,4.11,0,0,0-2.29-.55,11,11,0,0,0-3,.5A7,7,0,0,0,43,10a17.69,17.69,0,0,0-2.81,5.2l-1,3.16a29.58,29.58,0,0,0-.7,3.63,25.31,25.31,0,0,0-.22,3.24c0,3.25.76,5.72,2.28,7.39A8.17,8.17,0,0,0,47,35.09,10,10,0,0,0,51.62,34a16.35,16.35,0,0,0,1.79-1.1,7.29,7.29,0,0,0,1.12-1l1.27-1.45c.62-.11,1,.24,1.06,1.06A2.1,2.1,0,0,1,56.22,33a9.88,9.88,0,0,1-1.6,1.4l-1.9,1.41-.22.13a12.18,12.18,0,0,1-3.45,1.32,18,18,0,0,1-4.25.49,11.14,11.14,0,0,1-7-2.29,12,12,0,0,1-4.13-6.38c-.12-.47-.21-.86-.27-1.16S33.25,27.21,33.19,26.77Z"/><path class="cls-1" d="M69,19.38l2.2-.44a2.77,2.77,0,0,1,.68-.09h.51q4.62,0,4.62,5.33A13.88,13.88,0,0,1,76.7,27a14,14,0,0,1-1.56,4.26,12.47,12.47,0,0,1-2.84,3.26,10.78,10.78,0,0,1-6.86,2.73A9.08,9.08,0,0,1,64,37.16a8,8,0,0,1-4.21-1.68A4.58,4.58,0,0,1,58.53,32a6.35,6.35,0,0,1,0-.84l.14-.7-.66.66-.09.09a12.82,12.82,0,0,1-1.32,1.41.83.83,0,0,1-.71.17.69.69,0,0,1-.57-.75,2.66,2.66,0,0,1,.44-1.23,2.62,2.62,0,0,1,.49-.57c.79-.79,1.65-1.64,2.59-2.55l.31-.31a6.76,6.76,0,0,0,.64-.82,7.15,7.15,0,0,0,.68-1.18c.18-.4.45-1.15.84-2.27l.39-.88a6.71,6.71,0,0,1,1.1-1.72A18,18,0,0,1,65.64,18a3.68,3.68,0,0,1,2-.73,1.71,1.71,0,0,1,1.1.4,1.25,1.25,0,0,1,.48,1A1.34,1.34,0,0,1,69,19.38Zm5,9.33a9,9,0,0,0,.17-1.81,5.34,5.34,0,0,0-.81-3.1,3,3,0,0,0-1.8-1.36,8.66,8.66,0,0,0-1.48-.2,3.11,3.11,0,0,0-1.23.22,2.42,2.42,0,0,0-.88.62c-.5.61-.85,1-1.06,1.23a1.88,1.88,0,0,1-.48.39,5.9,5.9,0,0,0-1.34,1,7.67,7.67,0,0,0-.75,1.91,9.94,9.94,0,0,0-.46,2.86,4.73,4.73,0,0,0,.17,1.37c.53,1.93,1.49,2.9,2.86,2.9a7.64,7.64,0,0,0,3.48-1.19A6.72,6.72,0,0,0,74,28.71Z"/><path class="cls-1" d="M76.31,32.58a2.59,2.59,0,0,1,.33-1.45,15.38,15.38,0,0,1,1.73-1.81l.88-.83c.74-.79,1.37-1.53,1.9-2.2l.22-2.77.17-1.72.27-3.52,0-1.14L82,15.73A31.49,31.49,0,0,1,83.59,9a8.55,8.55,0,0,1,2.53-3.57,9.73,9.73,0,0,1,1.93-1.36,1.77,1.77,0,0,1,.62-.13c1,0,1.67.76,2,2.28a6.66,6.66,0,0,1,.18,1.63,31.38,31.38,0,0,1-.57,4.4A24.13,24.13,0,0,1,89,16.74a54.89,54.89,0,0,1-2.71,5.68l-.44.75-.4.7c0,.56,0,1.11,0,1.67s.09,1.1.17,1.63q1,7.13,4.18,7.13a6.44,6.44,0,0,0,2.86-.88,3.18,3.18,0,0,0,1.06-.71l2-1.76c.18-.17.46-.1.84.22a1,1,0,0,1,.35.71c0,.55-.61,1.3-1.85,2.24L92.72,36a6.25,6.25,0,0,1-.64.42,7,7,0,0,1-.77.33,12.32,12.32,0,0,1-4.14.88,5.2,5.2,0,0,1-4.09-1.68,8.56,8.56,0,0,1-1.85-4.84l0-1.14v-.53l0-.53-.39.4-.53.53-1.23,1.36a8.57,8.57,0,0,1-1.17,1.26,1.37,1.37,0,0,1-.86.33A4.43,4.43,0,0,1,76.31,32.58Zm11.74-19,.53-1.85a4.9,4.9,0,0,0,.22-1.41c.06-.47-.19-.73-.75-.79a1.3,1.3,0,0,0-.88.44,3.27,3.27,0,0,0-.7,1.5l-.88,3.52c-.21,1-.39,2-.55,3.1s-.3,2.06-.42,3a19.8,19.8,0,0,0,1.7-2.88,30.84,30.84,0,0,0,1.43-3.72Z"/><path class="cls-1" d="M95.36,32.58a2.59,2.59,0,0,1,.33-1.45,14.91,14.91,0,0,1,1.74-1.81l.88-.83c.73-.79,1.36-1.53,1.89-2.2l.22-2.77.17-1.72.27-3.52,0-1.14.18-1.41A31.49,31.49,0,0,1,102.64,9a8.55,8.55,0,0,1,2.53-3.57,9.46,9.46,0,0,1,1.94-1.36,1.72,1.72,0,0,1,.61-.13c1,0,1.67.76,2,2.28a7.22,7.22,0,0,1,.17,1.63,31.38,31.38,0,0,1-.57,4.4A23.39,23.39,0,0,1,108,16.74a52.89,52.89,0,0,1-2.71,5.68l-.44.75-.39.7c0,.56,0,1.11,0,1.67a14.26,14.26,0,0,0,.18,1.63q1,7.13,4.18,7.13a6.52,6.52,0,0,0,2.86-.88,3.24,3.24,0,0,0,1-.71l2-1.76c.17-.17.45-.1.83.22a1,1,0,0,1,.35.71c0,.55-.61,1.3-1.84,2.24L111.77,36a5.32,5.32,0,0,1-.64.42,7,7,0,0,1-.77.33,12.32,12.32,0,0,1-4.13.88,5.22,5.22,0,0,1-4.1-1.68,8.48,8.48,0,0,1-1.84-4.84l-.05-1.14v-.53l.05-.53-.4.4-.53.53-1.23,1.36A8.57,8.57,0,0,1,97,32.43a1.34,1.34,0,0,1-.85.33A4.22,4.22,0,0,1,95.36,32.58Zm11.75-19,.52-1.85a4.9,4.9,0,0,0,.22-1.41c.06-.47-.19-.73-.74-.79a1.26,1.26,0,0,0-.88.44,3.17,3.17,0,0,0-.71,1.5l-.88,3.52c-.2,1-.39,2-.55,3.1s-.3,2.06-.42,3a19.8,19.8,0,0,0,1.7-2.88,30.84,30.84,0,0,0,1.43-3.72Z"/><path class="cls-1" d="M120.7,27.65l-.88.79-2,1.9c-.47.52-.92,1-1.34,1.47a4.05,4.05,0,0,1-.93.82,1.33,1.33,0,0,1-.42.13.79.79,0,0,1-.66-.29,1.05,1.05,0,0,1-.22-.64,1.44,1.44,0,0,1,.49-1l1.36-1.32.31-.31,1.41-1.41,2.81-2.9.62-.66c1-1,1.76-1.54,2.29-1.54a6.18,6.18,0,0,1,1.49.37,2.36,2.36,0,0,1,1.35.84,9.56,9.56,0,0,1,.24,2.93c.06.58.11,1.05.17,1.4s.16.84.31,1.46l.35,1.18q1.15,3.7,3.22,3.7a3.46,3.46,0,0,0,2.06-.84c.56-.44,1-.77,1.24-1s.51-.47.74-.7a8.89,8.89,0,0,1,1.15-1.19.81.81,0,0,1,.7-.17.71.71,0,0,1,.62,1,2.15,2.15,0,0,1-.42.88c-.22.3-.67.81-1.34,1.54l-1.54,1.32a13.16,13.16,0,0,1-3.52,2.2,10.28,10.28,0,0,1-3.61,1,3.1,3.1,0,0,1-2.53-1.34A18.15,18.15,0,0,1,122,32.45a23.32,23.32,0,0,1-.73-2.25C121.06,29.5,120.88,28.65,120.7,27.65Zm2-15a2.59,2.59,0,0,1,.15-1.26,6.79,6.79,0,0,1,1-1.69,5.92,5.92,0,0,1,1.74-1.59,2.09,2.09,0,0,1,3.12,1.28A3.78,3.78,0,0,1,129,10.8a4,4,0,0,1-.57,2.07,4.08,4.08,0,0,1-2.25,1.76,3.4,3.4,0,0,1-.92.13A2.31,2.31,0,0,1,122.73,12.61Z"/><path class="cls-1" d="M142.44,30.86a2.89,2.89,0,0,0-.05.84,3.07,3.07,0,0,0,1,2.38A3.71,3.71,0,0,0,146,35a4.67,4.67,0,0,0,2.11-.48,7.42,7.42,0,0,0,2.51-1.81L152,31.35a2,2,0,0,1,1.12-.7,2.3,2.3,0,0,1,.75.17,5.2,5.2,0,0,1-1.17,2.66,18.53,18.53,0,0,1-3.76,3,8.43,8.43,0,0,1-2.42,1.06,9.9,9.9,0,0,1-2.33.31,5.92,5.92,0,0,1-3.79-1.19,5,5,0,0,1-1.84-3.17,7,7,0,0,1-.09-.92,6.06,6.06,0,0,1,.06-1,6.57,6.57,0,0,1,.38-1.1l-.88.92-1.19,1.28a.72.72,0,0,1-1-.4,1.12,1.12,0,0,1-.13-.53,2,2,0,0,1,.57-1.09,22.08,22.08,0,0,1,1.94-2l2.15-2.07.53-.44c.91-.82,1.73-1.51,2.47-2.07.49-.38,1.11-.84,1.84-1.37a17.49,17.49,0,0,1,3.44-1.82,7.08,7.08,0,0,1,2.33-.51,2.29,2.29,0,0,1,1.54.66,2,2,0,0,1,.53,1.41,2.61,2.61,0,0,1-.09.66,5.76,5.76,0,0,1-.33.9,11.19,11.19,0,0,1-.73,1.34,9.49,9.49,0,0,1-3.12,2.95,20,20,0,0,1-5.33,2.25l-.88.26Zm8.05-7.21a2.26,2.26,0,0,0-1.14-.35,2.4,2.4,0,0,0-1.26.39,15,15,0,0,0-1.82,1.5l-1.9,1.67A10.51,10.51,0,0,0,143,29a13.62,13.62,0,0,0,3.65-1.36,10.55,10.55,0,0,0,2.53-1.83A5.94,5.94,0,0,0,150.49,23.65Z"/></svg>