<?xml version="1.0" encoding="UTF-8" standalone="no"?>
<svg
   xmlns:dc="http://purl.org/dc/elements/1.1/"
   xmlns:cc="http://creativecommons.org/ns#"
   xmlns:rdf="http://www.w3.org/1999/02/22-rdf-syntax-ns#"
   xmlns:svg="http://www.w3.org/2000/svg"
   xmlns="http://www.w3.org/2000/svg"
   xmlns:sodipodi="http://sodipodi.sourceforge.net/DTD/sodipodi-0.dtd"
   xmlns:inkscape="http://www.inkscape.org/namespaces/inkscape"
   width="199mm"
   height="71mm"
   viewBox="0 0 199 71"
   version="1.1"
   id="svg8"
   sodipodi:docname="DOLBY DIGITAL ЗНАЧОК.svg"
   inkscape:version="1.0.2 (e86c870879, 2021-01-15, custom)">
  <defs
     id="defs2">
    <rect
       x="115.46044"
       y="128.28937"
       width="34.210499"
       height="16.036173"
       id="rect851" />
  </defs>
  <sodipodi:namedview
     id="base"
     pagecolor="#ffffff"
     bordercolor="#666666"
     borderopacity="1.0"
     inkscape:pageopacity="0.0"
     inkscape:pageshadow="2"
     inkscape:zoom="0.79165093"
     inkscape:cx="329.7633"
     inkscape:cy="68.961762"
     inkscape:document-units="mm"
     inkscape:current-layer="layer1"
     inkscape:document-rotation="0"
     showgrid="false"
     inkscape:snap-bbox="true"
     inkscape:snap-smooth-nodes="true"
     inkscape:object-paths="true"
     inkscape:snap-intersection-paths="true"
     inkscape:snap-midpoints="true"
     inkscape:snap-bbox-edge-midpoints="true"
     inkscape:bbox-nodes="true"
     inkscape:bbox-paths="true"
     inkscape:snap-bbox-midpoints="true"
     inkscape:snap-global="false"
     inkscape:window-width="1609"
     inkscape:window-height="948"
     inkscape:window-x="185"
     inkscape:window-y="53"
     inkscape:window-maximized="0" />
  <metadata
     id="metadata5">
    <rdf:RDF>
      <cc:Work
         rdf:about="">
        <dc:format>image/svg+xml</dc:format>
        <dc:type
           rdf:resource="http://purl.org/dc/dcmitype/StillImage" />
        <dc:title />
      </cc:Work>
    </rdf:RDF>
  </metadata>
  <g
     inkscape:label="Слой 1"
     inkscape:groupmode="layer"
     id="layer1">
    <g
       aria-label="R"
       id="text849"
       style="font-style:normal;font-weight:normal;font-size:10.5833px;line-height:1.25;font-family:sans-serif;white-space:pre;shape-inside:url(#rect851);fill:#000000;fill-opacity:1;stroke:none;stroke-width:2.01676"
       transform="matrix(0.4875248,0,0,0.50430172,135.13402,-58.96801)">
      <path
         d="m 120.15831,134.03546 q 0.3359,0.11369 0.65112,0.48576 0.32039,0.37207 0.64079,1.02319 l 1.05936,2.10839 h -1.12137 l -0.98702,-1.9792 q -0.38241,-0.77514 -0.74414,-1.02836 -0.35657,-0.25321 -0.97668,-0.25321 h -1.13688 v 3.26077 h -1.04386 v -7.71526 h 2.35644 q 1.32291,0 1.97403,0.55293 0.65112,0.55294 0.65112,1.66914 0,0.72864 -0.34106,1.20923 -0.3359,0.48059 -0.98185,0.66662 z m -2.61482,-3.2401 v 2.73884 h 1.31258 q 0.75447,0 1.13688,-0.34623 0.38757,-0.3514 0.38757,-1.02836 0,-0.67695 -0.38757,-1.01802 -0.38241,-0.34623 -1.13688,-0.34623 z"
         id="path855"
         style="stroke-width:2.01676" />
    </g>
    <path
       style="fill:#000000;stroke-width:0.999998"
       d="m 65.471727,67.273595 c -1.576295,-0.462692 -3.495547,-2.272076 -4.344955,-4.096223 -2.176628,-4.674424 0.141259,-10.901151 4.510554,-12.116886 3.197566,-0.88972 7.419419,0.161819 8.841647,2.202176 0.782383,1.122417 1.452004,2.964683 1.177412,3.239277 -0.106607,0.106605 -1.053072,0.193754 -2.103368,0.193754 -1.622223,0 -1.941443,-0.100233 -2.121014,-0.666018 -0.116238,-0.366312 -0.640531,-0.887932 -1.165044,-1.15917 -2.430319,-1.256776 -4.982391,-0.0373 -5.556634,2.655016 -0.752157,3.526645 0.880598,6.456349 3.598193,6.456349 1.146366,0 3.290229,-0.743176 3.290229,-1.140584 0,-0.07149 0.08685,-0.356568 0.193219,-0.633478 0.15136,-0.394549 -0.117334,-0.525816 -1.241968,-0.606671 L 69.114829,61.49795 v -1.49036 -1.49036 l 3.394698,-0.09433 3.394708,-0.09432 v 4.482675 4.482643 h -1.302449 c -0.993117,0 -1.350323,-0.150895 -1.504097,-0.635373 -0.194107,-0.611567 -0.253862,-0.605521 -1.595471,0.161617 -1.482145,0.847465 -4.034513,1.039448 -6.030491,0.45357 z M 8.3413852,59.179612 v -8.114169 h 4.4216488 c 4.687415,0 6.017168,0.266777 7.752658,1.555288 1.877543,1.393995 2.558916,3.140457 2.558916,6.558881 0,3.418439 -0.681373,5.164901 -2.558916,6.558882 -1.73549,1.288525 -3.065243,1.555288 -7.752658,1.555288 H 8.3413852 Z m 9.5082438,3.393125 c 0.702989,-0.702989 0.908195,-1.271587 1.020815,-2.828568 0.245285,-3.390902 -1.234368,-5.035623 -4.530212,-5.035623 -1.621052,0 -1.653314,0.01974 -1.755195,1.076372 -0.05704,0.592001 -0.05657,2.620718 9.55e-4,4.508238 l 0.104895,3.431882 2.139409,-0.136287 c 1.771047,-0.112822 2.290926,-0.287711 3.019276,-1.016076 z m 21.623652,-3.393125 v -8.114169 h 2.152743 2.152728 v 8.114169 8.11417 h -2.152728 -2.152743 z m 53.321658,0 V 51.03385 l 2.069945,0.09852 2.069945,0.09868 v 7.948558 7.948574 l -2.069945,0.09868 -2.069945,0.09852 z m 24.839291,1.836067 V 54.73756 l -2.40115,-0.09728 -2.40113,-0.09728 -0.0393,-1.738753 -0.0393,-1.738739 h 7.07707 7.07708 v 1.821536 1.821552 h -2.48392 -2.48393 v 6.292618 6.292616 h -2.15275 -2.15272 z m 23.36801,5.555549 c 0.12619,-0.397393 1.46264,-4.011513 2.97003,-8.031356 l 2.7407,-7.308833 2.26853,-0.08951 2.26856,-0.08951 3.02209,8.120821 3.0221,8.120805 h -2.24933 -2.24932 l -0.46832,-1.407563 -0.4683,-1.407563 -2.82156,-0.09495 -2.82155,-0.09495 -0.57382,1.502528 -0.57381,1.502529 h -2.14766 c -2.05655,0 -2.13793,-0.03062 -1.91834,-0.722538 z m 9.65633,-5.670314 c -0.091,-0.237281 -0.42585,-1.359092 -0.74397,-2.492916 -0.31814,-1.133808 -0.69418,-2.133007 -0.83567,-2.220451 -0.14142,-0.08749 -0.58961,0.848071 -0.99586,2.078928 -0.40625,1.23084 -0.80729,2.424197 -0.89119,2.651891 -0.11081,0.300686 0.36532,0.413989 1.73984,0.413989 1.41867,0 1.85097,-0.108004 1.72685,-0.431441 z m 22.61564,-1.721302 v -8.114169 h 2.15274 2.15275 v 6.292618 6.292617 h 3.80868 3.8087 v 1.821552 1.821552 h -5.96145 -5.96142 z M 6.6854292,25.22928 V 4.692178 l 15.3175628,0.0861 15.317546,0.0861 0.08532,20.45101 0.08531,20.451011 H 22.088276 6.6853982 Z M 23.409576,39.776892 c 2.385409,-0.8925 5.361903,-3.634587 6.728533,-6.198647 3.602357,-6.758712 2.331983,-15.519583 -2.960985,-20.41993 C 24.358223,10.548506 22.632242,9.997842 17.2711,9.997842 H 12.978047 V 25.232591 40.467355 H 17.2711 c 3.540337,0 4.616615,-0.121058 6.138476,-0.690463 z M 38.810899,25.232591 V 4.698783 h 15.40036 15.400357 V 25.232591 45.766399 H 54.211259 38.810899 Z m 24.428631,0.05098 0.0861,-15.349388 -4.565472,0.114686 c -4.380188,0.110024 -4.654999,0.158726 -6.771145,1.201128 -11.438715,5.634601 -10.00618,25.744241 2.067521,29.023613 1.184578,0.321758 3.070325,0.468907 5.453746,0.425597 l 3.643103,-0.0662 z m 14.320647,-0.05098 V 4.698783 h 53.984033 53.98404 V 25.232591 45.766399 H 131.54421 77.560177 Z m 105.318563,0 V 7.679503 H 131.54421 80.209704 v 17.553088 17.553102 h 51.334506 51.33453 z m -69.83036,9.270883 c -1.99439,-0.422723 -3.38518,-1.307577 -4.17899,-2.658792 -0.58156,-0.989921 -0.68799,-1.829462 -0.77526,-6.115304 -0.0947,-4.643484 -0.0513,-5.065165 0.66236,-6.458213 1.0548,-2.058834 2.98774,-2.996619 6.6458,-3.224282 5.13893,-0.319832 8.37063,1.02582 9.20916,3.834589 0.21639,0.724823 0.31778,3.230311 0.25249,6.238911 -0.12541,5.778348 -0.34052,6.32912 -2.99158,7.65976 -1.73796,0.872329 -6.34084,1.249644 -8.82398,0.723331 z m 6.45189,-4.804666 c 0.63652,-0.870496 0.63296,-7.735611 -0.005,-8.60735 -0.70215,-0.960256 -4.40047,-1.125059 -5.48785,-0.244555 -0.71587,0.579662 -0.81677,0.965415 -0.94,3.593902 -0.24263,5.17505 0.45924,6.219269 4.03119,5.997526 1.42405,-0.08843 2.07064,-0.287554 2.40114,-0.739523 z M 90.476622,25.398186 v -9.107727 h 6.056831 c 5.628277,0 6.160027,0.05268 7.515187,0.745165 2.61333,1.335348 2.80678,1.857511 2.92767,7.902373 0.0968,4.844246 0.0463,5.412238 -0.59949,6.746466 -0.51903,1.072161 -1.07746,1.637059 -2.11469,2.139177 -1.26896,0.614285 -2.02614,0.682289 -7.597461,0.682289 h -6.188047 z m 11.076078,4.066183 c 0.66204,-0.945165 0.74189,-7.45637 0.10164,-8.28222 -0.31135,-0.401557 -1.13249,-0.560951 -3.311961,-0.642879 l -2.897961,-0.108936 4.8e-5,4.885055 4.8e-5,4.88507 h 2.796335 c 2.514211,0 2.848361,-0.07428 3.311901,-0.736074 z m 24.69246,-4.066183 v -9.107727 h 2.48394 2.48393 v 6.955 6.954985 h 3.80869 3.80868 v 2.152742 2.152743 h -6.29262 -6.29262 z m 13.57882,0 v -9.107727 l 6.20981,0.0047 c 6.63587,0.0047 7.29205,0.136131 8.44045,1.683446 0.47416,0.63887 0.63598,1.393095 0.62863,2.929905 -0.0109,2.236379 -0.58114,3.513964 -1.76443,3.951699 -0.64186,0.237438 -0.62119,0.282255 0.30754,0.666951 1.28429,0.531955 1.74395,1.587533 1.74395,4.004753 0,2.514984 -0.39342,3.494851 -1.73048,4.310055 -0.98466,0.600346 -1.67232,0.661418 -7.46006,0.662538 l -6.37541,0.0012 z m 10.48796,4.26732 c 0.50867,-0.776369 0.51687,-0.956604 0.0789,-1.738754 -0.45308,-0.809206 -0.67425,-0.879633 -3.04381,-0.969331 l -2.55521,-0.09681 v 1.835475 1.835476 h 2.47628 c 2.30501,0 2.51555,-0.05983 3.04382,-0.866145 z m -0.41031,-6.60931 c 0.60503,-0.605024 0.65847,-1.252317 0.1776,-2.150847 -0.29195,-0.545521 -0.70981,-0.640611 -2.81512,-0.640611 h -2.47227 v 1.655956 1.655941 h 2.29467 c 1.64449,0 2.44215,-0.147476 2.81512,-0.520439 z m 11.78092,8.416269 v -3.03348 l -2.5326,-4.6667 c -1.39295,-2.566701 -2.89747,-5.300116 -3.34339,-6.074279 l -0.81076,-1.407547 h 2.85299 2.853 l 1.65335,3.531774 1.65336,3.531789 1.71422,-3.531789 1.71423,-3.531774 h 2.75302 c 1.51418,0 2.75305,0.06931 2.75305,0.154003 0,0.08469 -1.49035,2.802118 -3.3119,6.038707 l -3.31192,5.884689 v 3.069036 3.069035 h -2.31831 -2.31834 z"
       id="path847"
       sodipodi:nodetypes="csssssssssscscccccccsssccccssssscccsssccsccccccccccccccccccccccccccccccccccccccscccccccccccccsccsscssssccccccccccccccccccccccsssscccsscccccccccccssssccccccccccccccccccccssccsssssccsssccccssssssccssscccsssccccccccccccccccscssssscccsccccsccssscccssccsscccccccssscccccc" />
    <path
       id="path860"
       style="fill:none;stroke:#000000;stroke-width:0.7;stroke-linecap:square;stroke-miterlimit:4;stroke-dasharray:none;stroke-dashoffset:10.8095;stroke-opacity:1"
       d="m 196.54117,9.7742234 a 3.5796847,3.5796764 0 0 1 -4.57068,2.0950426 3.5796847,3.5796764 0 0 1 -2.15691,-4.5418047 3.5796847,3.5796764 0 0 1 4.51211,-2.2183662 3.5796847,3.5796764 0 0 1 2.27943,4.4815701" />
  </g>
</svg>
