<?xml version="1.0" encoding="UTF-8" standalone="no"?>
<svg
   xmlns:dc="http://purl.org/dc/elements/1.1/"
   xmlns:cc="http://creativecommons.org/ns#"
   xmlns:rdf="http://www.w3.org/1999/02/22-rdf-syntax-ns#"
   xmlns:svg="http://www.w3.org/2000/svg"
   xmlns="http://www.w3.org/2000/svg"
   xmlns:sodipodi="http://sodipodi.sourceforge.net/DTD/sodipodi-0.dtd"
   xmlns:inkscape="http://www.inkscape.org/namespaces/inkscape"
   width="270mm"
   height="220mm"
   viewBox="0 0 270 220"
   version="1.1"
   id="svg108"
   inkscape:version="1.0.2 (e86c870879, 2021-01-15, custom)"
   sodipodi:docname="gmail-4.svg">
  <defs
     id="defs102">
    <path
       id="SVGID_1_"
       d="m 71.6,5 h 58.9 C 184.3,5 197,17.8 197,71.6 v 58.9 c 0,53.8 -12.8,66.5 -66.6,66.5 H 71.5 C 17.7,197 5,184.2 5,130.4 V 71.5 C 5,17.8 17.8,5 71.6,5 Z" />
    <path
       id="SVGID_1_-3"
       d="m 71.6,5 h 58.9 C 184.3,5 197,17.8 197,71.6 v 58.9 c 0,53.8 -12.8,66.5 -66.6,66.5 H 71.5 C 17.7,197 5,184.2 5,130.4 V 71.5 C 5,17.8 17.8,5 71.6,5 Z" />
    <radialGradient
       id="0"
       cx="332.14001"
       cy="2511.8101"
       r="3263.54"
       gradientUnits="userSpaceOnUse">
      <stop
         offset=".09"
         stop-color="#fa8f21"
         id="stop178" />
      <stop
         offset=".78"
         stop-color="#d82d7e"
         id="stop180" />
    </radialGradient>
    <radialGradient
       id="1"
       cx="1516.14"
       cy="2623.8101"
       r="2572.1201"
       gradientUnits="userSpaceOnUse">
      <stop
         offset=".64"
         stop-color="#8c3aaa"
         stop-opacity="0"
         id="stop183" />
      <stop
         offset="1"
         stop-color="#8c3aaa"
         id="stop185" />
    </radialGradient>
  </defs>
  <sodipodi:namedview
     id="base"
     pagecolor="#ffffff"
     bordercolor="#666666"
     borderopacity="1.0"
     inkscape:pageopacity="0.0"
     inkscape:pageshadow="2"
     inkscape:zoom="0.28552632"
     inkscape:cx="406.28412"
     inkscape:cy="623.34771"
     inkscape:document-units="mm"
     inkscape:current-layer="g478"
     inkscape:document-rotation="0"
     showgrid="false"
     inkscape:window-width="1379"
     inkscape:window-height="774"
     inkscape:window-x="459"
     inkscape:window-y="232"
     inkscape:window-maximized="0" />
  <metadata
     id="metadata105">
    <rdf:RDF>
      <cc:Work
         rdf:about="">
        <dc:format>image/svg+xml</dc:format>
        <dc:type
           rdf:resource="http://purl.org/dc/dcmitype/StillImage" />
        <dc:title></dc:title>
      </cc:Work>
    </rdf:RDF>
  </metadata>
  <g
     inkscape:label="Слой 1"
     inkscape:groupmode="layer"
     id="layer1">
    <g
       id="g478"
       transform="matrix(0.39489367,0,0,0.39489367,31.610467,15.146454)"
       style="stroke-width:0.670012">
      <rect
         width="608.50519"
         height="449.94489"
         x="-46.245392"
         y="14.741388"
         ry="42.661098"
         fill="#d54c3f"
         id="rect451"
         style="stroke-width:0.448915" />
      <path
         fill="#eaeaea"
         d="M 36.101337,16.876123 H 499.93229 V 464.66604 H 36.101337 Z"
         id="path453"
         style="stroke-width:0.448915" />
      <path
         d="M 220.08559,321.95691 36.101337,464.66604 36.114857,140.30689 220.0653,321.94006"
         fill="#e3e3e3"
         id="path455"
         style="stroke-width:0.448915" />
      <path
         d="M 361.99819,464.7267 -18.539587,85.48434 501.48212,73.176308 499.91877,464.68121 Z"
         opacity="0.1"
         id="path457"
         style="stroke-width:0.448915" />
      <path
         d="M -7.9646327,14.904816 266.46192,217.15752 518.96282,14.972212 Z"
         fill="#efefef"
         id="path459"
         style="stroke-width:0.448915" />
      <path
         d="M 546.84946,82.704291 A 37.626076,37.509818 0 1 0 503.75192,21.206259 l -241.85327,175.395761 -0.0254,0.16848 -0.0338,-0.0118 L 20.04539,21.214683 A 37.971634,37.345058 0 0 0 -23.052153,82.712715 L -24.054382,82.038764 261.91048,289.61568 M 547.90915,82.038764 260.59221,290.96359"
         fill="#de5145"
         id="path461"
         style="stroke-width:0.448915" />
    </g>
  </g>
  <style
     id="style110">.st0{clip-path:url(#SVGID_2_);fill:#5181b8}.st1{fill-rule:evenodd;clip-rule:evenodd;fill:#fff}</style>
  <style
     id="style144">.st0{clip-path:url(#SVGID_2_);fill:#5181b8}.st1{fill-rule:evenodd;clip-rule:evenodd;fill:#fff}</style>
</svg>
