<?xml version="1.0" encoding="UTF-8" standalone="no"?>
<svg
   xmlns:dc="http://purl.org/dc/elements/1.1/"
   xmlns:cc="http://creativecommons.org/ns#"
   xmlns:rdf="http://www.w3.org/1999/02/22-rdf-syntax-ns#"
   xmlns:svg="http://www.w3.org/2000/svg"
   xmlns="http://www.w3.org/2000/svg"
   xmlns:sodipodi="http://sodipodi.sourceforge.net/DTD/sodipodi-0.dtd"
   xmlns:inkscape="http://www.inkscape.org/namespaces/inkscape"
   width="91mm"
   height="24mm"
   viewBox="0 0 91 24"
   version="1.1"
   id="svg8"
   inkscape:version="1.0.2 (e86c870879, 2021-01-15, custom)"
   sodipodi:docname="htpps - надпись 2.svg">
  <defs
     id="defs2">
    <rect
       x="3.3125326"
       y="3.0759231"
       width="84.9428"
       height="17.272491"
       id="rect844" />
    <rect
       x="-11.374326"
       y="-19.905071"
       width="70.831032"
       height="18.741788"
       id="rect19" />
    <rect
       x="1.5904548"
       y="6.6799102"
       width="75.228516"
       height="25.606323"
       id="rect17" />
    <rect
       x="27.037731"
       y="-42.624187"
       width="99.880562"
       height="34.671913"
       id="rect850" />
    <rect
       x="3.5987885"
       y="7.4225011"
       width="94.243271"
       height="34.413414"
       id="rect835" />
  </defs>
  <sodipodi:namedview
     id="base"
     pagecolor="#ffffff"
     bordercolor="#666666"
     borderopacity="1.0"
     inkscape:pageopacity="0.0"
     inkscape:pageshadow="2"
     inkscape:zoom="1.205256"
     inkscape:cx="189.63867"
     inkscape:cy="33.620156"
     inkscape:document-units="mm"
     inkscape:current-layer="svg8"
     inkscape:document-rotation="0"
     showgrid="false"
     inkscape:window-width="1563"
     inkscape:window-height="904"
     inkscape:window-x="263"
     inkscape:window-y="82"
     inkscape:window-maximized="0"
     inkscape:snap-text-baseline="true"
     inkscape:object-paths="false"
     inkscape:snap-intersection-paths="true" />
  <metadata
     id="metadata5">
    <rdf:RDF>
      <cc:Work
         rdf:about="">
        <dc:format>image/svg+xml</dc:format>
        <dc:type
           rdf:resource="http://purl.org/dc/dcmitype/StillImage" />
        <dc:title></dc:title>
      </cc:Work>
    </rdf:RDF>
  </metadata>
  <g
     aria-label="https://"
     transform="matrix(2.2585593,0,0,2.2264328,-6.9632751,-11.31813)"
     id="text842"
     style="font-style:normal;font-variant:normal;font-weight:normal;font-stretch:normal;font-size:10.5833px;line-height:1.25;font-family:'Astronaut II';-inkscape-font-specification:'Astronaut II, Normal';font-variant-ligatures:normal;font-variant-caps:normal;font-variant-numeric:normal;font-variant-east-asian:normal;white-space:pre;shape-inside:url(#rect844);fill:#ffffff;fill-opacity:1;stroke:none;stroke-width:0.445943">
    <path
       d="m 7.8527355,9.3419929 q -0.2645824,0 -0.2645824,-0.2645824 V 8.6223286 q 0,-0.317499 0.3174989,-0.2645825 0.2857491,0.052917 0.4762485,0.2857491 0.1904994,0.2222493 0.1904994,0.4444986 0,0.2539991 -0.2645825,0.2539991 z M 6.4239901,8.6117453 q 0,-0.2645825 0.2645825,-0.2645825 h 0.4656652 q 0.2645825,0 0.2645825,0.2645825 v 0.4656652 q 0,0.2645824 -0.2645825,0.2645824 H 6.6885726 q -0.2645825,0 -0.2645825,-0.2645824 z m 1.164163,1.1641629 q 0,-0.2645825 0.2645824,-0.2645825 h 0.4656652 q 0.2645825,0 0.2645825,0.2645825 v 0.4656648 q 0,0.264583 -0.2645825,0.264583 H 7.8527355 q -0.2645824,0 -0.2645824,-0.264583 z M 4.0956642,7.4475823 q 0,-0.2645825 0.2645825,-0.2645825 h 0.4656651 q 0.2645825,0 0.2645825,0.2645825 v 0.4656652 q 0,0.2645825 -0.2645825,0.2645825 H 4.3602467 q -0.2645825,0 -0.2645825,-0.2645825 z m 1.1641629,1.164163 q 0,-0.2645825 0.2645825,-0.2645825 h 0.4656652 q 0.2645825,0 0.2645825,0.2645825 v 0.4656652 q 0,0.2645824 -0.2645825,0.2645824 H 5.5244096 q -0.2645825,0 -0.2645825,-0.2645824 z m 2.328326,2.3283257 q 0,-0.264582 0.2645824,-0.264582 h 0.4656652 q 0.2645825,0 0.2645825,0.264582 v 0.465665 q 0,0.264583 -0.2645825,0.264583 H 7.8527355 q -0.2645824,0 -0.2645824,-0.264583 z M 4.0956642,8.6117453 q 0,-0.2645825 0.2645825,-0.2645825 h 0.4656651 q 0.2645825,0 0.2645825,0.2645825 v 0.4656652 q 0,0.2645824 -0.2645825,0.2645824 H 4.3602467 q -0.2645825,0 -0.2645825,-0.2645824 z m 3.4924889,3.4924887 q 0,-0.264582 0.2645824,-0.264582 h 0.4656652 q 0.2645825,0 0.2645825,0.264582 v 0.465665 q 0,0.264583 -0.2645825,0.264583 H 7.8527355 q -0.2645824,0 -0.2645824,-0.264583 z M 4.0956642,9.7759082 q 0,-0.2645825 0.2645825,-0.2645825 h 0.4656651 q 0.2645825,0 0.2645825,0.2645825 v 0.4656648 q 0,0.264583 -0.2645825,0.264583 H 4.3602467 q -0.2645825,0 -0.2645825,-0.264583 z m 0,1.1641628 q 0,-0.264582 0.2645825,-0.264582 h 0.4656651 q 0.2645825,0 0.2645825,0.264582 v 0.465665 q 0,0.264583 -0.2645825,0.264583 H 4.3602467 q -0.2645825,0 -0.2645825,-0.264583 z m 0,1.164163 q 0,-0.264582 0.2645825,-0.264582 h 0.4656651 q 0.2645825,0 0.2645825,0.264582 v 0.465665 q 0,0.264583 -0.2645825,0.264583 H 4.3602467 q -0.2645825,0 -0.2645825,-0.264583 z"
       style="font-style:normal;font-variant:normal;font-weight:normal;font-stretch:normal;font-size:10.5833px;font-family:'Astronaut II';-inkscape-font-specification:'Astronaut II, Normal';font-variant-ligatures:normal;font-variant-caps:normal;font-variant-numeric:normal;font-variant-east-asian:normal;stroke-width:0.445943;fill:#ffffff"
       id="path848" />
    <path
       d="m 12.858627,8.6117453 c 0,-0.1763883 0.08819,-0.2645825 0.264583,-0.2645825 h 0.465665 c 0.176389,0 0.264583,0.088194 0.264583,0.2645825 v 0.4656652 c 0,0.1763883 -0.08819,0.2645824 -0.264583,0.2645824 H 13.12321 c -0.176389,0 -0.264583,-0.088194 -0.264583,-0.2645824 z m -1.164162,0 c 0,-0.1763883 0.08819,-0.2645825 0.264582,-0.2645825 h 0.465665 c 0.176389,0 0.264583,0.088194 0.264583,0.2645825 v 0.4656652 c 0,0.1763883 -0.08819,0.2645824 -0.264583,0.2645824 h -0.465665 c -0.176388,0 -0.264582,-0.088194 -0.264582,-0.2645824 z m -1.164163,0 c 0,-0.1763883 0.08819,-0.2645825 0.264582,-0.2645825 h 0.465665 c 0.176389,0 0.264583,0.088194 0.264583,0.2645825 v 0.4656652 c 0,0.1763883 -0.08819,0.2645824 -0.264583,0.2645824 h -0.465665 c -0.176388,0 -0.264582,-0.088194 -0.264582,-0.2645824 z m 2.328325,2.3283257 c 0,-0.176388 0.08819,-0.264582 0.264583,-0.264582 h 0.465665 c 0.176389,0 0.264583,0.08819 0.264583,0.264582 v 0.465665 c 0,0.176389 -0.08819,0.264583 -0.264583,0.264583 H 13.12321 c -0.176389,0 -0.264583,-0.08819 -0.264583,-0.264583 z M 9.3661386,8.6117453 c 0,-0.1763883 0.088194,-0.2645825 0.2645825,-0.2645825 h 0.4656649 c 0.176389,0 0.264583,0.088194 0.264583,0.2645825 v 0.4656652 c 0,0.1763883 -0.08819,0.2645824 -0.264583,0.2645824 H 9.6307211 c -0.1763883,0 -0.2645825,-0.088194 -0.2645825,-0.2645824 z m 3.8099874,4.2121537 c -0.211666,0.03528 -0.317499,-0.05291 -0.317499,-0.264583 v -0.455082 c 0,-0.176388 0.08819,-0.264582 0.264583,-0.264582 h 0.455082 c 0.211666,0 0.29986,0.105833 0.264582,0.317499 -0.07056,0.373943 -0.292805,0.596193 -0.666748,0.666748 z M 9.3661386,9.7759082 c 0,-0.1763883 0.088194,-0.2645825 0.2645825,-0.2645825 h 0.4656649 c 0.176389,0 0.264583,0.088194 0.264583,0.2645825 v 0.4656648 c 0,0.176389 -0.08819,0.264583 -0.264583,0.264583 H 9.6307211 c -0.1763883,0 -0.2645825,-0.08819 -0.2645825,-0.264583 z m 2.3283264,2.3283258 c 0,-0.176388 0.08819,-0.264582 0.264582,-0.264582 h 0.465665 c 0.176389,0 0.264583,0.08819 0.264583,0.264582 v 0.465665 c 0,0.176389 -0.08819,0.264583 -0.264583,0.264583 h -0.465665 c -0.176388,0 -0.264582,-0.08819 -0.264582,-0.264583 z M 9.3661386,10.940071 c 0,-0.176388 0.088194,-0.264582 0.2645825,-0.264582 h 0.4656649 c 0.176389,0 0.264583,0.08819 0.264583,0.264582 v 0.465665 c 0,0.176389 -0.08819,0.264583 -0.264583,0.264583 H 9.6307211 c -0.1763883,0 -0.2645825,-0.08819 -0.2645825,-0.264583 z m 1.1641634,1.164163 c 0,-0.176388 0.08819,-0.264582 0.264582,-0.264582 h 0.465665 c 0.176389,0 0.264583,0.08819 0.264583,0.264582 v 0.465665 c 0,0.176389 -0.08819,0.264583 -0.264583,0.264583 h -0.465665 c -0.176388,0 -0.264582,-0.08819 -0.264582,-0.264583 z m -0.433916,-0.264582 c 0.176389,0 0.264583,0.08819 0.264583,0.264582 v 0.455082 c 0,0.211666 -0.105833,0.29986 -0.317499,0.264583 C 9.8529705,12.788621 9.6906931,12.689843 9.556638,12.527566 9.4366939,12.386455 9.3767219,12.241817 9.3767219,12.093651 c 0,-0.169333 0.088194,-0.253999 0.2645825,-0.253999 z"
       style="font-style:normal;font-variant:normal;font-weight:normal;font-stretch:normal;font-size:10.5833px;font-family:'Astronaut II';-inkscape-font-specification:'Astronaut II, Normal';font-variant-ligatures:normal;font-variant-caps:normal;font-variant-numeric:normal;font-variant-east-asian:normal;stroke-width:0.445943;fill:#ffffff"
       id="path850"
       sodipodi:nodetypes="ssssssssssssssssssssssssssssssssssssssssssssscssssccsssssssssssssssssssssssssssssssssssssssccsss" />
    <path
       d="m 18.129102,8.6117453 q 0,-0.2645825 0.264582,-0.2645825 h 0.465666 q 0.264582,0 0.264582,0.2645825 v 0.4656652 q 0,0.2645824 -0.264582,0.2645824 h -0.465666 q -0.264582,0 -0.264582,-0.2645824 z m -1.164163,0 q 0,-0.2645825 0.264582,-0.2645825 h 0.465666 q 0.264582,0 0.264582,0.2645825 v 0.4656652 q 0,0.2645824 -0.264582,0.2645824 h -0.465666 q -0.264582,0 -0.264582,-0.2645824 z m -2.328326,-1.164163 q 0,-0.2645825 0.264583,-0.2645825 h 0.465665 q 0.264582,0 0.264582,0.2645825 v 0.4656652 q 0,0.2645825 -0.264582,0.2645825 h -0.465665 q -0.264583,0 -0.264583,-0.2645825 z m 1.164163,1.164163 q 0,-0.2645825 0.264582,-0.2645825 h 0.465666 q 0.264582,0 0.264582,0.2645825 v 0.4656652 q 0,0.2645824 -0.264582,0.2645824 h -0.465666 q -0.264582,0 -0.264582,-0.2645824 z m 2.328326,2.3283257 q 0,-0.264582 0.264582,-0.264582 h 0.465666 q 0.264582,0 0.264582,0.264582 v 0.465665 q 0,0.264583 -0.264582,0.264583 h -0.465666 q -0.264582,0 -0.264582,-0.264583 z M 14.636613,8.6117453 q 0,-0.2645825 0.264583,-0.2645825 h 0.465665 q 0.264582,0 0.264582,0.2645825 v 0.4656652 q 0,0.2645824 -0.264582,0.2645824 h -0.465665 q -0.264583,0 -0.264583,-0.2645824 z m 3.809988,4.2121537 q -0.317499,0.05292 -0.317499,-0.264583 v -0.455082 q 0,-0.264582 0.264582,-0.264582 h 0.455082 q 0.317499,0 0.264583,0.317499 -0.105833,0.560915 -0.666748,0.666748 z M 14.636613,9.7759082 q 0,-0.2645825 0.264583,-0.2645825 h 0.465665 q 0.264582,0 0.264582,0.2645825 v 0.4656648 q 0,0.264583 -0.264582,0.264583 h -0.465665 q -0.264583,0 -0.264583,-0.264583 z m 2.328326,2.3283258 q 0,-0.264582 0.264582,-0.264582 h 0.465666 q 0.264582,0 0.264582,0.264582 v 0.465665 q 0,0.264583 -0.264582,0.264583 h -0.465666 q -0.264582,0 -0.264582,-0.264583 z m -2.328326,-1.164163 q 0,-0.264582 0.264583,-0.264582 h 0.465665 q 0.264582,0 0.264582,0.264582 v 0.465665 q 0,0.264583 -0.264582,0.264583 h -0.465665 q -0.264583,0 -0.264583,-0.264583 z m 1.164163,1.164163 q 0,-0.264582 0.264582,-0.264582 h 0.465666 q 0.264582,0 0.264582,0.264582 v 0.465665 q 0,0.264583 -0.264582,0.264583 h -0.465666 q -0.264582,0 -0.264582,-0.264583 z m -0.433915,-0.264582 q 0.264582,0 0.264582,0.264582 v 0.455082 q 0,0.317499 -0.317499,0.264583 -0.285749,-0.05292 -0.486832,-0.296333 -0.179916,-0.211666 -0.179916,-0.433915 0,-0.253999 0.264583,-0.253999 z"
       style="font-style:normal;font-variant:normal;font-weight:normal;font-stretch:normal;font-size:10.5833px;font-family:'Astronaut II';-inkscape-font-specification:'Astronaut II, Normal';font-variant-ligatures:normal;font-variant-caps:normal;font-variant-numeric:normal;font-variant-east-asian:normal;stroke-width:0.445943;fill:#ffffff"
       id="path852" />
    <path
       d="m 28.670051,7.4475823 q 0,-0.2645825 0.264582,-0.2645825 h 0.465665 q 0.264583,0 0.264583,0.2645825 v 0.4656652 q 0,0.2645825 -0.264583,0.2645825 h -0.465665 q -0.264582,0 -0.264582,-0.2645825 z m -1.164163,0 q 0,-0.2645825 0.264582,-0.2645825 h 0.465666 q 0.264582,0 0.264582,0.2645825 v 0.4656652 q 0,0.2645825 -0.264582,0.2645825 H 27.77047 q -0.264582,0 -0.264582,-0.2645825 z m -1.164163,0 q 0,-0.2645825 0.264582,-0.2645825 h 0.465666 q 0.264582,0 0.264582,0.2645825 v 0.4656652 q 0,0.2645825 -0.264582,0.2645825 h -0.465666 q -0.264582,0 -0.264582,-0.2645825 z m 2.592908,3.0585737 q -0.264582,0 -0.264582,-0.264583 V 9.7864915 q 0,-0.317499 0.317499,-0.2645825 0.285749,0.052916 0.476248,0.2857491 0.1905,0.2222489 0.1905,0.4444989 0,0.253999 -0.264583,0.253999 z M 26.172392,7.9132475 q 0,0.2645825 -0.264582,0.2645825 h -0.455082 q -0.317499,0 -0.264583,-0.317499 0.05292,-0.2857491 0.296333,-0.4868318 0.211666,-0.1799161 0.433915,-0.1799161 0.253999,0 0.253999,0.2645825 z m 1.333496,1.8626607 q 0,-0.2645825 0.264582,-0.2645825 h 0.465666 q 0.264582,0 0.264582,0.2645825 v 0.4656648 q 0,0.264583 -0.264582,0.264583 H 27.77047 q -0.264582,0 -0.264582,-0.264583 z m 1.164163,1.1641628 q 0,-0.264582 0.264582,-0.264582 h 0.465665 q 0.264583,0 0.264583,0.264582 v 0.465665 q 0,0.264583 -0.264583,0.264583 h -0.465665 q -0.264582,0 -0.264582,-0.264583 z M 25.177562,8.6117453 q 0,-0.2645825 0.264582,-0.2645825 h 0.465666 q 0.264582,0 0.264582,0.2645825 v 0.4656652 q 0,0.2645824 -0.264582,0.2645824 h -0.465666 q -0.264582,0 -0.264582,-0.2645824 z m 1.164163,1.1641629 q 0,-0.2645825 0.264582,-0.2645825 h 0.465666 q 0.264582,0 0.264582,0.2645825 v 0.4656648 q 0,0.264583 -0.264582,0.264583 h -0.465666 q -0.264582,0 -0.264582,-0.264583 z m 2.645825,3.0479908 q -0.317499,0.05292 -0.317499,-0.264583 v -0.455082 q 0,-0.264582 0.264582,-0.264582 h 0.455082 q 0.317499,0 0.264583,0.317499 -0.105833,0.560915 -0.666748,0.666748 z m -1.481662,-0.719665 q 0,-0.264582 0.264582,-0.264582 h 0.465666 q 0.264582,0 0.264582,0.264582 v 0.465665 q 0,0.264583 -0.264582,0.264583 H 27.77047 q -0.264582,0 -0.264582,-0.264583 z M 25.90781,9.5113257 q 0.264582,0 0.264582,0.2645825 V 10.23099 q 0,0.317499 -0.317499,0.264583 -0.285749,-0.05292 -0.486832,-0.296333 -0.179916,-0.2116658 -0.179916,-0.4339151 0,-0.2539992 0.264583,-0.2539992 z m 0.433915,2.5929083 q 0,-0.264582 0.264582,-0.264582 h 0.465666 q 0.264582,0 0.264582,0.264582 v 0.465665 q 0,0.264583 -0.264582,0.264583 h -0.465666 q -0.264582,0 -0.264582,-0.264583 z m -1.164163,0 q 0,-0.264582 0.264582,-0.264582 h 0.465666 q 0.264582,0 0.264582,0.264582 v 0.465665 q 0,0.264583 -0.264582,0.264583 h -0.465666 q -0.264582,0 -0.264582,-0.264583 z"
       style="font-style:normal;font-variant:normal;font-weight:normal;font-stretch:normal;font-size:10.5833px;font-family:'Astronaut II';-inkscape-font-specification:'Astronaut II, Normal';font-variant-ligatures:normal;font-variant-caps:normal;font-variant-numeric:normal;font-variant-east-asian:normal;stroke-width:0.445943;fill:#ffffff"
       id="path856" />
    <path
       d="m 31.066591,9.7759082 c 0,-0.1763883 0.0882,-0.2645825 0.264583,-0.2645825 h 0.465665 c 0.176389,0 0.264583,0.088194 0.264583,0.2645825 v 0.4656648 c 0,0.176389 -0.08819,0.264583 -0.264583,0.264583 h -0.465665 c -0.176388,0 -0.264583,-0.08819 -0.264583,-0.264583 z m 0,2.3283258 c 0,-0.176388 0.0882,-0.264582 0.264583,-0.264582 h 0.465665 c 0.176389,0 0.264583,0.08819 0.264583,0.264582 v 0.465665 c 0,0.176389 -0.08819,0.264583 -0.264583,0.264583 h -0.465665 c -0.176388,0 -0.264583,-0.08819 -0.264583,-0.264583 z"
       style="font-style:normal;font-variant:normal;font-weight:normal;font-stretch:normal;font-size:10.5833px;font-family:'Astronaut II';-inkscape-font-specification:'Astronaut II, Normal';font-variant-ligatures:normal;font-variant-caps:normal;font-variant-numeric:normal;font-variant-east-asian:normal;stroke-width:0.445943;fill:#ffffff"
       id="path858"
       sodipodi:nodetypes="ssssssssssssssssss" />
    <path
       d="m 36.337069,8.6117453 c 0,-0.1763883 0.08819,-0.2645825 0.264582,-0.2645825 h 0.465665 c 0.176389,0 0.264583,0.088194 0.264583,0.2645825 v 0.4656652 c 0,0.1763883 -0.08819,0.2645824 -0.264583,0.2645824 h -0.465665 c -0.176388,0 -0.264582,-0.088194 -0.264582,-0.2645824 z m -1.164163,1.1641629 c 0,-0.1763883 0.08819,-0.2645825 0.264582,-0.2645825 h 0.465665 c 0.176389,0 0.264583,0.088194 0.264583,0.2645825 v 0.4656648 c 0,0.176389 -0.08819,0.264583 -0.264583,0.264583 h -0.465665 c -0.176388,0 -0.264582,-0.08819 -0.264582,-0.264583 z m -1.164163,1.1641628 c 0,-0.176388 0.08819,-0.264582 0.264582,-0.264582 h 0.465665 c 0.176389,0 0.264583,0.08819 0.264583,0.264582 v 0.465665 c 0,0.176389 -0.08819,0.264583 -0.264583,0.264583 h -0.465665 c -0.176388,0 -0.264582,-0.08819 -0.264582,-0.264583 z m -1.164163,1.164163 c 0,-0.176388 0.08819,-0.264582 0.264582,-0.264582 h 0.465665 c 0.176389,0 0.264583,0.08819 0.264583,0.264582 v 0.465665 c 0,0.176389 -0.08819,0.264583 -0.264583,0.264583 h -0.465665 c -0.176388,0 -0.264582,-0.08819 -0.264582,-0.264583 z"
       style="font-style:normal;font-variant:normal;font-weight:normal;font-stretch:normal;font-size:10.5833px;font-family:'Astronaut II';-inkscape-font-specification:'Astronaut II, Normal';font-variant-ligatures:normal;font-variant-caps:normal;font-variant-numeric:normal;font-variant-east-asian:normal;fill:#ffffff;stroke-width:0.445943"
       id="path860"
       sodipodi:nodetypes="ssssssssssssssssssssssssssssssssssss" />
    <path
       d="m 39.129102,8.6117453 c 0,-0.1763883 0.08819,-0.2645825 0.264583,-0.2645825 h 0.465665 c 0.176389,0 0.264583,0.088194 0.264583,0.2645825 v 0.4656652 c 0,0.1763883 -0.08819,0.2645824 -0.264583,0.2645824 h -0.465665 c -0.176389,0 -0.264583,-0.088194 -0.264583,-0.2645824 z M 37.96494,9.7759082 c 0,-0.1763883 0.08819,-0.2645825 0.264582,-0.2645825 h 0.465665 c 0.176389,0 0.264583,0.088194 0.264583,0.2645825 v 0.4656648 c 0,0.176389 -0.08819,0.264583 -0.264583,0.264583 h -0.465665 c -0.176388,0 -0.264582,-0.08819 -0.264582,-0.264583 z m -1.164163,1.1641628 c 0,-0.176388 0.08819,-0.264582 0.264582,-0.264582 h 0.465665 c 0.176389,0 0.264583,0.08819 0.264583,0.264582 v 0.465665 c 0,0.176389 -0.08819,0.264583 -0.264583,0.264583 h -0.465665 c -0.176388,0 -0.264582,-0.08819 -0.264582,-0.264583 z m -1.164163,1.164163 c 0,-0.176388 0.08819,-0.264582 0.264582,-0.264582 h 0.465665 c 0.176389,0 0.264583,0.08819 0.264583,0.264582 v 0.465665 c 0,0.176389 -0.08819,0.264583 -0.264583,0.264583 h -0.465665 c -0.176388,0 -0.264582,-0.08819 -0.264582,-0.264583 z"
       style="font-style:normal;font-variant:normal;font-weight:normal;font-stretch:normal;font-size:10.5833px;font-family:'Astronaut II';-inkscape-font-specification:'Astronaut II, Normal';font-variant-ligatures:normal;font-variant-caps:normal;font-variant-numeric:normal;font-variant-east-asian:normal;fill:#ffffff;stroke-width:0.445943"
       id="path862"
       sodipodi:nodetypes="ssssssssssssssssssssssssssssssssssss" />
  </g>
  <path
     d="m 14.19,1.1350606 c 0,-0.39271596 0.199183,-0.589074 0.597577,-0.589074 h 1.051732 c 0.398385,0 0.597576,0.19634904 0.597576,0.589074 v 5.150295 c 0,0.392719 -0.199182,0.589077 -0.597576,0.589077 h -1.051732 c -0.398385,0 -0.597577,-0.19635 -0.597577,-0.589077 z"
     style="font-style:normal;font-variant:normal;font-weight:normal;font-stretch:normal;font-size:10.5833px;line-height:1.25;font-family:'Astronaut II';-inkscape-font-specification:'Astronaut II, Normal';font-variant-ligatures:normal;font-variant-caps:normal;font-variant-numeric:normal;font-variant-east-asian:normal;white-space:pre;shape-inside:url(#rect844);fill:#ffffff;fill-opacity:1;stroke:none;stroke-width:1"
     id="path854"
     sodipodi:nodetypes="sssssssss" />
  <g
     inkscape:groupmode="layer"
     id="layer1"
     inkscape:label="Layer 1"
     style="display:inline">
    <path
       d="m 46.483631,6.889259 c -0.398385,0 -0.597576,-0.196358 -0.597576,-0.589075 V 5.2869744 c 0,-0.4712601 0.23903,-0.6676186 0.71709,-0.5890751 0.430253,0.078544 0.7888,0.2906111 1.075637,0.6362011 0.286835,0.3298821 0.430253,0.6597642 0.430253,0.9896466 0,0.377008 -0.199182,0.565512 -0.597574,0.565512 z M 43.256724,5.2634114 c 0,-0.3927167 0.199182,-0.5890751 0.597576,-0.5890751 h 1.051732 c 0.398385,0 0.597577,0.196358 0.597577,0.5890751 V 6.300184 c 0,0.392716 -0.199183,0.589075 -0.597577,0.589075 H 43.8543 c -0.398385,0 -0.597576,-0.196358 -0.597576,-0.589075 z m 2.629331,2.5919306 c 0,-0.392717 0.199182,-0.589075 0.597576,-0.589075 h 1.051732 c 0.398385,0 0.597577,0.196358 0.597577,0.589075 v 1.036772 c 0,0.392717 -0.199183,0.589075 -0.597577,0.589075 h -1.051732 c -0.398385,0 -0.597576,-0.196358 -0.597576,-0.589075 z M 40.627393,5.2634114 c 0,-0.3927167 0.199182,-0.5890751 0.597576,-0.5890751 h 1.051732 c 0.398385,0 0.597576,0.196358 0.597576,0.5890751 V 6.300184 c 0,0.392716 -0.199182,0.589075 -0.597576,0.589075 h -1.051732 c -0.398385,0 -0.597576,-0.196358 -0.597576,-0.589075 z m 5.258662,5.1838616 c 0,-0.392717 0.199182,-0.589076 0.597576,-0.589076 h 1.051732 c 0.398385,0 0.597577,0.196359 0.597577,0.589076 v 1.036771 c 0,0.392718 -0.199183,0.589076 -0.597577,0.589076 h -1.051732 c -0.398385,0 -0.597576,-0.196349 -0.597576,-0.589076 z M 40.244946,6.300184 c 0,0.392716 -0.199182,0.589075 -0.597576,0.589075 h -1.02783 c -0.47806,0 -0.677251,-0.23563 -0.597574,-0.70689 0.07968,-0.4241345 0.302776,-0.785434 0.669283,-1.0838986 0.318708,-0.2670475 0.645381,-0.4005711 0.980023,-0.4005711 0.382449,0 0.573674,0.196358 0.573674,0.5890751 z m 6.358199,8.341305 c -0.47806,0.07855 -0.71709,-0.117801 -0.71709,-0.589077 v -1.013209 c 0,-0.392716 0.199182,-0.589074 0.597576,-0.589074 h 1.02783 c 0.47806,0 0.677252,0.23563 0.597574,0.70689 -0.159341,0.832559 -0.661317,1.327384 -1.50589,1.48447 z M 37.998061,7.855342 c 0,-0.392717 0.199183,-0.589075 0.597577,-0.589075 h 1.051732 c 0.398385,0 0.597576,0.196358 0.597576,0.589075 v 1.036772 c 0,0.392717 -0.199182,0.589075 -0.597576,0.589075 h -1.051732 c -0.398385,0 -0.597577,-0.196358 -0.597577,-0.589075 z m 5.258663,5.183861 c 0,-0.392716 0.199182,-0.589074 0.597576,-0.589074 h 1.051732 c 0.398385,0 0.597577,0.196349 0.597577,0.589074 v 1.036772 c 0,0.392718 -0.199183,0.589076 -0.597577,0.589076 H 43.8543 c -0.398385,0 -0.597576,-0.196349 -0.597576,-0.589076 z m -5.258663,-2.59193 c 0,-0.392717 0.199183,-0.589076 0.597577,-0.589076 h 1.051732 c 0.398385,0 0.597576,0.196359 0.597576,0.589076 v 1.036771 c 0,0.392718 -0.199182,0.589076 -0.597576,0.589076 h -1.051732 c -0.398385,0 -0.597577,-0.196349 -0.597577,-0.589076 z m 2.629332,2.59193 c 0,-0.392716 0.199182,-0.589074 0.597576,-0.589074 h 1.051732 c 0.398385,0 0.597576,0.196349 0.597576,0.589074 v 1.036772 c 0,0.392718 -0.199182,0.589076 -0.597576,0.589076 h -1.051732 c -0.398385,0 -0.597576,-0.196349 -0.597576,-0.589076 z m -2.629332,0 c 0,-0.392716 0.199183,-0.589074 0.597577,-0.589074 h 1.051732 c 0.398385,0 0.597576,0.196349 0.597576,0.589074 v 1.036772 c 0,0.392718 -0.199182,0.589076 -0.597576,0.589076 h -1.051732 c -0.398385,0 -0.597577,-0.196349 -0.597577,-0.589076 z m 0,2.591931 c 0,-0.392716 0.199183,-0.589074 0.597577,-0.589074 h 1.051732 c 0.398385,0 0.597576,0.196349 0.597576,0.589074 v 5.150295 c 0,0.392719 -0.199182,0.589077 -0.597576,0.589077 h -1.051732 c -0.398385,0 -0.597577,-0.19635 -0.597577,-0.589077 z"
       style="font-style:normal;font-variant:normal;font-weight:normal;font-stretch:normal;font-size:10.5833px;line-height:1.25;font-family:'Astronaut II';-inkscape-font-specification:'Astronaut II, Normal';font-variant-ligatures:normal;font-variant-caps:normal;font-variant-numeric:normal;font-variant-east-asian:normal;white-space:pre;shape-inside:url(#rect844);fill:#ffffff;fill-opacity:1;stroke:none;stroke-width:1"
       id="path854-3"
       sodipodi:nodetypes="sssccssssssssssssssssssssssssssssssssssssssssssccssscssssccssssssssssssssssssssssssssssssssssssssssssssssssssssss" />
  </g>
</svg>
