<?xml version="1.0" encoding="UTF-8" standalone="no"?>
<svg
   xmlns:dc="http://purl.org/dc/elements/1.1/"
   xmlns:cc="http://creativecommons.org/ns#"
   xmlns:rdf="http://www.w3.org/1999/02/22-rdf-syntax-ns#"
   xmlns:svg="http://www.w3.org/2000/svg"
   xmlns="http://www.w3.org/2000/svg"
   xmlns:sodipodi="http://sodipodi.sourceforge.net/DTD/sodipodi-0.dtd"
   xmlns:inkscape="http://www.inkscape.org/namespaces/inkscape"
   id="Слой_1"
   data-name="Слой 1"
   viewBox="0 0 399.99999 55.000002"
   version="1.1"
   sodipodi:docname="In Montenegro ....svg"
   width="400"
   height="55"
   inkscape:version="1.0.2 (e86c870879, 2021-01-15, custom)">
  <metadata
     id="metadata41">
    <rdf:RDF>
      <cc:Work
         rdf:about="">
        <dc:format>image/svg+xml</dc:format>
        <dc:type
           rdf:resource="http://purl.org/dc/dcmitype/StillImage" />
        <dc:title>Монтажная область 32</dc:title>
      </cc:Work>
    </rdf:RDF>
  </metadata>
  <sodipodi:namedview
     pagecolor="#ffffff"
     bordercolor="#666666"
     borderopacity="1"
     objecttolerance="10"
     gridtolerance="10"
     guidetolerance="10"
     inkscape:pageopacity="0"
     inkscape:pageshadow="2"
     inkscape:window-width="1313"
     inkscape:window-height="633"
     id="namedview39"
     showgrid="false"
     inkscape:zoom="0.93698598"
     inkscape:cx="218.48094"
     inkscape:cy="5.2764479"
     inkscape:window-x="0"
     inkscape:window-y="0"
     inkscape:window-maximized="0"
     inkscape:current-layer="Слой_1" />
  <defs
     id="defs4">
    <style
       id="style2">.cls-1{fill:#fff;}</style>
  </defs>
  <title
     id="title6">Монтажная область 32</title>
  <path
     class="cls-1"
     d="m 36.62,16.61 q -0.84,-0.18 -0.84,-0.84 a 9.25,9.25 0 0 1 0.4,-1.89 l 0.53,-1.94 0.13,-0.39 0.88,-2.38 1,-2.06 a 4.62,4.62 0 0 1 1.2,-1.81 4.54,4.54 0 0 1 2.2,-0.3 6.49,6.49 0 0 1 2.05,0.2 0.52,0.52 0 0 1 0.37,0.68 45.17,45.17 0 0 1 -1.45,4.57 15.38,15.38 0 0 0 -0.4,1.54 q -0.57,2.64 -1.1,5.06 L 41,20 q -0.66,3.34 -1.08,6.16 a 32.76,32.76 0 0 0 -0.42,4.7 c 0,2.09 0,3.4 0.06,3.94 0.06,0.54 0.1,1 0.16,1.43 0.06,0.18 -0.06,0.35 -0.35,0.51 a 6.21,6.21 0 0 1 -1.52,0.46 9.77,9.77 0 0 1 -1.3,0.22 1.08,1.08 0 0 1 -1.14,-0.79 10.64,10.64 0 0 1 -0.27,-3 V 30.02 29.5 c 0,-1.11 0,-2.16 0.11,-3.12 0.11,-0.96 0.21,-2.25 0.42,-3.83 0.11,-1 0.26,-2 0.44,-3 0.18,-1 0.3,-2 0.51,-2.94 z"
     id="path8"
     style="fill:#ffffff" />
  <path
     class="cls-1"
     d="m 41.81,32.67 a 3,3 0 0 1 0.7,-2.11 l 1.9,-1.85 0.3,-0.31 2.47,-2.51 3,-2.9 2.9,-2.55 a 9.86,9.86 0 0 1 2.42,-1.68 1.79,1.79 0 0 1 0.75,-0.17 c 0.74,0 1.12,0.2 1.17,0.59 0.05,0.39 0.06,0.76 0.06,1.08 a 9.14,9.14 0 0 1 -0.08,1.19 c -0.18,0.94 -0.33,1.73 -0.44,2.37 -0.11,0.64 -0.27,1.31 -0.44,2 0,0.06 -0.25,0.8 -0.66,2.2 l -0.44,1.37 -0.42,1.17 0.48,-0.58 1.19,-1.4 0.09,-0.14 0.79,-0.83 c 0.32,-0.32 0.66,-0.64 1,-0.95 0.34,-0.31 0.68,-0.56 1,-0.77 a 6.8,6.8 0 0 1 3.79,-1.71 q 2.6,0 4,5.36 l 0.31,1.28 0.53,2.68 c 0.14,1 0.47,1.38 1,1.24 a 3.53,3.53 0 0 0 0.93,-0.42 c 0.23,-0.16 0.73,-0.54 1.49,-1.12 l 0.62,-0.57 c 0.82,-0.86 1.37,-1.41 1.65,-1.66 a 1.23,1.23 0 0 1 0.73,-0.37 5.12,5.12 0 0 1 0.7,0.18 3.77,3.77 0 0 1 -0.73,2.31 13.49,13.49 0 0 1 -2.94,2.57 6.87,6.87 0 0 1 -3.46,1.58 c -1.05,0 -1.92,-0.86 -2.59,-2.59 l -0.93,-2.11 q -1.23,-2.68 -3.34,-2.69 a 4.37,4.37 0 0 0 -2.91,1.32 13.88,13.88 0 0 0 -1.4,1.46 33.62,33.62 0 0 0 -2.06,3 l -0.53,0.83 -1,1.81 -0.09,0.17 a 2.31,2.31 0 0 1 -2.25,1 1.58,1.58 0 0 1 -1.32,-0.57 1.77,1.77 0 0 1 -0.3,-1.41 c 0.32,-1.47 0.58,-2.61 0.79,-3.43 l 0.61,-2 a 8,8 0 0 0 0.25,-1 q 0.15,-0.75 0.33,-2.16 l 0.17,-1.27 0.09,-1 v -0.7 -0.58 l -1.15,0.8 A 31.49,31.49 0 0 0 46.83,29 c -0.44,0.38 -0.93,0.84 -1.46,1.37 l -1,1 c -0.88,1 -1.51,1.54 -1.9,1.54 a 4.63,4.63 0 0 1 -0.66,-0.24 z"
     id="path10"
     style="fill:#ffffff" />
  <path
     class="cls-1"
     d="m 91.18,37.38 q 0,-3 0.22,-5.86 0.39,-4.21 0.66,-7 l 0.79,-8.09 c 0.12,-1.17 0.26,-2.6 0.44,-4.27 0.09,-1 0.18,-1.69 0.26,-2.16 L 93.73,8.82 94,7 C 94.3,6.76 94.54,6.58 94.73,6.45 A 6.55,6.55 0 0 1 95.73,5.9 8.53,8.53 0 0 1 98,5 0.58,0.58 0 0 1 98.57,5.44 7.65,7.65 0 0 1 99,6.93 c 0.11,0.67 0.23,1.25 0.35,1.72 0.23,0.82 0.42,1.52 0.57,2.11 l 0.09,0.3 1.14,3.83 c 0.73,2.44 1.82,3.65 3.26,3.65 A 2.65,2.65 0 0 0 106,18 q 0.52,-0.39 1,-0.75 a 7.39,7.39 0 0 0 0.93,-0.88 c 1.29,-1.32 2.16,-2.23 2.62,-2.75 0.46,-0.52 1.16,-1.41 2.13,-2.7 a 20.57,20.57 0 0 1 1.47,-1.92 7.73,7.73 0 0 1 1,-1 10.87,10.87 0 0 1 1.85,-1.26 3.06,3.06 0 0 1 1.23,-0.37 1.39,1.39 0 0 1 0.93,0.27 0.71,0.71 0 0 1 0.26,0.65 c -0.24,2.29 -0.6,4.76 -1.1,7.4 -0.5,2.64 -1.23,6 -2.2,10 l -1.28,5.2 -0.13,0.61 c -0.35,1.26 -0.61,2.27 -0.77,3 a 9.46,9.46 0 0 0 -0.24,1.95 0.57,0.57 0 0 1 -0.18,0.44 4.54,4.54 0 0 1 -1.67,0.84 4.18,4.18 0 0 1 -1,0.18 h -0.68 l 0.22,-1.89 0.22,-1.67 0.13,-1.1 0.17,-2 0.4,-3.7 0.31,-2.77 0.38,-2.38 1,-7.65 -0.4,0.44 -0.26,0.35 -1.34,1.8 a 27.42,27.42 0 0 1 -3.47,4.45 q -3,2.82 -5.11,2.82 c -1.88,0 -3.5,-1.81 -4.88,-5.42 l -0.18,-0.52 -0.79,4.09 -0.22,1.36 -0.31,2.24 -0.48,3.44 -0.53,3.6 c 0,2.21 -0.15,3.52 -0.46,4 -0.31,0.48 -1.24,0.77 -2.8,1 z"
     id="path12"
     style="fill:#ffffff" />
  <path
     class="cls-1"
     d="m 131,19.38 2.2,-0.44 a 2.84,2.84 0 0 1 0.69,-0.09 h 0.5 q 4.62,0 4.62,5.33 a 13.88,13.88 0 0 1 -0.31,2.86 14,14 0 0 1 -1.56,4.26 12.29,12.29 0 0 1 -2.84,3.26 10.76,10.76 0 0 1 -6.86,2.73 9.19,9.19 0 0 1 -1.45,-0.13 7.93,7.93 0 0 1 -4.2,-1.68 4.54,4.54 0 0 1 -1.31,-3.48 6.08,6.08 0 0 1 0,-0.84 l 0.13,-0.7 -0.66,0.66 -0.09,0.09 a 12.82,12.82 0 0 1 -1.32,1.41 0.82,0.82 0 0 1 -0.7,0.17 0.69,0.69 0 0 1 -0.58,-0.75 2.66,2.66 0 0 1 0.44,-1.23 2.62,2.62 0 0 1 0.49,-0.57 c 0.79,-0.79 1.65,-1.64 2.59,-2.55 l 0.31,-0.31 a 6.76,6.76 0 0 0 0.64,-0.82 6.5,6.5 0 0 0 0.68,-1.18 c 0.18,-0.4 0.46,-1.15 0.84,-2.27 l 0.39,-0.88 a 6.71,6.71 0 0 1 1.1,-1.72 18,18 0 0 1 2.8,-2.57 3.68,3.68 0 0 1 2,-0.73 1.71,1.71 0 0 1 1.1,0.4 1.25,1.25 0 0 1 0.48,1 1.34,1.34 0 0 1 -0.12,0.77 z m 5,9.33 a 9,9 0 0 0 0.18,-1.81 5.34,5.34 0 0 0 -0.82,-3.1 3,3 0 0 0 -1.8,-1.36 8.54,8.54 0 0 0 -1.48,-0.2 3.11,3.11 0 0 0 -1.23,0.22 2.42,2.42 0 0 0 -0.88,0.62 q -0.75,0.92 -1.05,1.23 a 2.06,2.06 0 0 1 -0.49,0.39 5.9,5.9 0 0 0 -1.34,1 7.67,7.67 0 0 0 -0.75,1.91 9.94,9.94 0 0 0 -0.46,2.86 4.37,4.37 0 0 0 0.18,1.37 c 0.52,1.93 1.48,2.9 2.86,2.9 a 7.65,7.65 0 0 0 3.47,-1.19 6.7,6.7 0 0 0 3.61,-4.84 z"
     id="path14"
     style="fill:#ffffff" />
  <path
     class="cls-1"
     d="m 138.26,32.67 a 3,3 0 0 1 0.7,-2.11 l 1.89,-1.85 0.31,-0.31 2.47,-2.51 3,-2.9 2.9,-2.55 a 9.86,9.86 0 0 1 2.42,-1.68 1.79,1.79 0 0 1 0.75,-0.17 c 0.73,0 1.12,0.2 1.17,0.59 0.05,0.39 0.06,0.76 0.06,1.08 a 7.66,7.66 0 0 1 -0.09,1.19 c -0.17,0.94 -0.32,1.73 -0.44,2.37 -0.12,0.64 -0.26,1.31 -0.44,2 0,0.06 -0.25,0.8 -0.66,2.2 l -0.44,1.37 -0.39,1.19 0.48,-0.58 1.19,-1.4 0.09,-0.14 0.79,-0.83 c 0.32,-0.32 0.66,-0.64 1,-0.95 0.34,-0.31 0.68,-0.56 1,-0.77 a 6.78,6.78 0 0 1 3.78,-1.71 q 2.59,0 4,5.36 l 0.31,1.28 0.52,2.68 c 0.15,1 0.47,1.38 1,1.24 a 3.45,3.45 0 0 0 0.92,-0.42 c 0.24,-0.16 0.74,-0.54 1.5,-1.12 l 0.62,-0.57 c 0.82,-0.86 1.37,-1.41 1.65,-1.66 a 1.24,1.24 0 0 1 0.72,-0.37 5.07,5.07 0 0 1 0.71,0.18 3.77,3.77 0 0 1 -0.73,2.31 13.61,13.61 0 0 1 -3.02,2.55 6.81,6.81 0 0 1 -3.45,1.58 c -1.06,0 -1.92,-0.86 -2.6,-2.59 l -0.92,-2.11 c -0.82,-1.79 -1.94,-2.69 -3.34,-2.69 a 4.37,4.37 0 0 0 -2.91,1.32 13.88,13.88 0 0 0 -1.32,1.46 35.76,35.76 0 0 0 -2.07,3 l -0.52,0.83 -1,1.81 -0.08,0.17 a 2.31,2.31 0 0 1 -2.25,1 1.56,1.56 0 0 1 -1.32,-0.57 1.81,1.81 0 0 1 -0.31,-1.41 c 0.33,-1.47 0.59,-2.61 0.8,-3.43 0.08,-0.29 0.29,-1 0.61,-2 a 6.86,6.86 0 0 0 0.24,-1 q 0.16,-0.75 0.33,-2.16 l 0.18,-1.27 0.09,-1 v -0.7 l 0.05,-0.58 -1.15,0.8 A 31.73,31.73 0 0 0 143.27,29 c -0.44,0.38 -0.92,0.84 -1.45,1.37 l -1,1 c -0.88,1 -1.51,1.54 -1.89,1.54 a 4.35,4.35 0 0 1 -0.67,-0.24 z"
     id="path16"
     style="fill:#ffffff" />
  <path
     class="cls-1"
     d="m 178.82,16 c -0.41,0 -0.8,0 -1.18,0 h -1.15 -0.88 l -2,-0.09 a 8.67,8.67 0 0 1 -3,-0.31 c -0.44,-0.2 -0.66,-0.67 -0.66,-1.4 0,-0.73 0.22,-1 0.66,-1.21 a 11.55,11.55 0 0 1 3.08,-0.25 h 5.94 L 179.71,12.53 180,12 c 0.14,-0.32 0.29,-0.71 0.44,-1.15 0.15,-0.44 0.23,-0.73 0.26,-0.88 a 10.52,10.52 0 0 1 0.73,-2.35 1.16,1.16 0 0 1 1.08,-0.46 q 1.05,0 1,0.75 l -0.44,2 -0.26,2 -0.09,0.71 v 0.17 l 0.83,0.09 a 3.18,3.18 0 0 1 1.26,0.38 1.63,1.63 0 0 1 0.37,0.92 6.88,6.88 0 0 1 0.13,0.9 c 0,0.85 -0.61,1.28 -1.84,1.28 a 7.87,7.87 0 0 1 -1,-0.05 l -0.4,-0.08 a 80.59,80.59 0 0 0 -1.71,9.24 l -0.09,0.74 -0.53,4.05 c -0.06,0.62 -0.11,1.18 -0.15,1.7 -0.04,0.52 -0.07,1 -0.07,1.38 a 9,9 0 0 0 0.18,1.81 l 1,-0.44 a 9.83,9.83 0 0 0 2.95,-2.45 c 0.76,-0.95 1.28,-1.43 1.54,-1.43 0.26,0 0.38,0.19 0.62,0.56 a 1.88,1.88 0 0 1 0.35,0.76 c 0,0.27 -0.45,0.81 -1.36,1.63 l -1.36,1.22 -0.48,0.44 -0.7,0.62 a 23,23 0 0 1 -2.26,1.76 8.48,8.48 0 0 1 -1.65,0.83 4.54,4.54 0 0 1 -1.54,0.27 c -1.47,0 -2.2,-0.85 -2.2,-2.56 0,-0.55 0,-1.11 0.06,-1.67 0.06,-0.56 0.14,-1.42 0.29,-2.59 l 0.09,-0.75 0.13,-0.75 0.48,-2.07 0.53,-2.37 -1,1.54 a 14.49,14.49 0 0 1 -0.88,1.18 c -1.43,1.82 -2.21,2.79 -2.33,2.91 -0.64,0.76 -1.17,1.07 -1.58,0.92 -0.41,-0.15 -0.65,-0.38 -0.53,-0.79 a 3.69,3.69 0 0 1 0.79,-1.58 l 1.8,-2 c 0.18,-0.21 0.44,-0.58 0.8,-1.1 0.47,-0.74 1.07,-1.72 1.8,-3 a 30.48,30.48 0 0 0 1.72,-3.26 l 0.13,-0.22 0.48,-1.14 0.66,-1.63 0.27,-0.62 0.22,-0.61 z"
     id="path18"
     style="fill:#ffffff" />
  <path
     class="cls-1"
     d="m 191.5,30.86 a 2.89,2.89 0 0 0 -0.05,0.84 3.1,3.1 0 0 0 1,2.38 3.74,3.74 0 0 0 2.6,0.92 4.67,4.67 0 0 0 2.11,-0.48 7.52,7.52 0 0 0 2.51,-1.81 l 1.39,-1.36 c 0.48,-0.47 0.85,-0.7 1.12,-0.7 a 2.35,2.35 0 0 1 0.75,0.17 5.2,5.2 0 0 1 -1.17,2.66 18.83,18.83 0 0 1 -3.76,3 8.43,8.43 0 0 1 -2.42,1.06 9.9,9.9 0 0 1 -2.33,0.31 5.92,5.92 0 0 1 -3.79,-1.19 5,5 0 0 1 -1.85,-3.17 8.73,8.73 0 0 1 -0.08,-0.92 6.06,6.06 0 0 1 0.06,-1 6.57,6.57 0 0 1 0.38,-1.1 l -0.88,0.92 -1.19,1.28 a 0.72,0.72 0 0 1 -1,-0.4 1.12,1.12 0 0 1 -0.13,-0.53 2,2 0 0 1 0.57,-1.09 22.08,22.08 0 0 1 1.94,-2 l 2.15,-2.07 0.53,-0.44 q 1.37,-1.23 2.46,-2.07 c 0.5,-0.38 1.12,-0.84 1.85,-1.37 a 17.45,17.45 0 0 1 3.43,-1.82 7.19,7.19 0 0 1 2.34,-0.51 2.32,2.32 0 0 1 1.54,0.66 2,2 0 0 1 0.52,1.41 3.13,3.13 0 0 1 -0.08,0.66 5.76,5.76 0 0 1 -0.33,0.9 12.83,12.83 0 0 1 -0.73,1.34 9.59,9.59 0 0 1 -3.12,2.95 20.11,20.11 0 0 1 -5.33,2.25 l -0.88,0.26 z m 8.05,-7.21 a 2.27,2.27 0 0 0 -1.15,-0.35 2.37,2.37 0 0 0 -1.25,0.39 14.91,14.91 0 0 0 -1.83,1.5 l -1.89,1.67 a 10.51,10.51 0 0 0 -1.36,2.14 13.62,13.62 0 0 0 3.65,-1.36 10.75,10.75 0 0 0 2.53,-1.83 6.08,6.08 0 0 0 1.3,-2.16 z"
     id="path20"
     style="fill:#ffffff" />
  <path
     class="cls-1"
     d="m 201.48,32.67 a 3,3 0 0 1 0.71,-2.11 c 0.11,-0.12 0.75,-0.74 1.89,-1.85 l 0.31,-0.31 2.46,-2.51 3,-2.9 2.91,-2.55 a 9.67,9.67 0 0 1 2.42,-1.68 1.72,1.72 0 0 1 0.75,-0.17 c 0.73,0 1.12,0.2 1.16,0.59 a 8.71,8.71 0 0 1 0.07,1.08 7.66,7.66 0 0 1 -0.09,1.19 c -0.18,0.94 -0.32,1.73 -0.44,2.37 -0.12,0.64 -0.26,1.31 -0.44,2 0,0.06 -0.25,0.8 -0.66,2.2 l -0.44,1.37 -0.4,1.19 0.49,-0.58 1.19,-1.4 0.08,-0.14 0.8,-0.83 c 0.32,-0.32 0.66,-0.64 1,-0.95 0.34,-0.31 0.67,-0.56 1,-0.77 A 6.75,6.75 0 0 1 223,24.18 q 2.59,0 4,5.36 l 0.31,1.28 0.53,2.68 c 0.15,1 0.47,1.38 1,1.24 a 3.45,3.45 0 0 0 0.92,-0.42 c 0.24,-0.16 0.73,-0.54 1.5,-1.12 l 0.61,-0.57 c 0.82,-0.86 1.37,-1.41 1.65,-1.66 a 1.23,1.23 0 0 1 0.73,-0.37 5.12,5.12 0 0 1 0.7,0.18 3.82,3.82 0 0 1 -0.72,2.31 13.87,13.87 0 0 1 -2.95,2.57 6.81,6.81 0 0 1 -3.45,1.58 c -1.06,0 -1.93,-0.86 -2.6,-2.59 l -0.92,-2.11 c -0.83,-1.79 -1.94,-2.69 -3.35,-2.69 a 4.35,4.35 0 0 0 -2.9,1.32 13.88,13.88 0 0 0 -1.32,1.46 31.55,31.55 0 0 0 -2.07,3 l -0.53,0.83 -1,1.81 -0.09,0.17 a 2.3,2.3 0 0 1 -2.24,1 1.56,1.56 0 0 1 -1.32,-0.57 1.73,1.73 0 0 1 -0.31,-1.41 c 0.32,-1.47 0.59,-2.61 0.79,-3.43 0.09,-0.29 0.29,-1 0.62,-2 a 6.86,6.86 0 0 0 0.24,-1 q 0.15,-0.75 0.33,-2.16 l 0.18,-1.27 0.08,-1 0.05,-0.7 v -0.58 l -1.14,0.8 A 31.73,31.73 0 0 0 206.5,29 c -0.44,0.38 -0.92,0.84 -1.45,1.37 l -1,1 c -0.88,1 -1.51,1.54 -1.89,1.54 a 4.33,4.33 0 0 1 -0.68,-0.24 z"
     id="path22"
     style="fill:#ffffff" />
  <path
     class="cls-1"
     d="m 239.9,30.86 a 2.89,2.89 0 0 0 -0.05,0.84 3.1,3.1 0 0 0 1,2.38 3.74,3.74 0 0 0 2.6,0.92 4.67,4.67 0 0 0 2.11,-0.48 7.52,7.52 0 0 0 2.51,-1.81 l 1.38,-1.36 c 0.49,-0.47 0.86,-0.7 1.13,-0.7 a 2.35,2.35 0 0 1 0.75,0.17 5.2,5.2 0 0 1 -1.17,2.66 18.83,18.83 0 0 1 -3.76,3 8.55,8.55 0 0 1 -2.4,1.03 9.92,9.92 0 0 1 -2.34,0.31 5.91,5.91 0 0 1 -3.78,-1.19 5,5 0 0 1 -1.88,-3.17 6.64,6.64 0 0 1 -0.08,-0.92 6.06,6.06 0 0 1 0.06,-1 5.75,5.75 0 0 1 0.38,-1.1 l -0.89,0.92 -1.18,1.28 a 0.72,0.72 0 0 1 -1,-0.4 1.12,1.12 0 0 1 -0.13,-0.53 2,2 0 0 1 0.57,-1.09 23.1,23.1 0 0 1 1.93,-2 l 2.16,-2.07 0.53,-0.44 q 1.36,-1.23 2.46,-2.07 c 0.5,-0.38 1.12,-0.84 1.85,-1.37 a 17.45,17.45 0 0 1 3.43,-1.82 7.19,7.19 0 0 1 2.34,-0.51 2.27,2.27 0 0 1 1.53,0.66 2,2 0 0 1 0.53,1.41 3.13,3.13 0 0 1 -0.08,0.66 5.76,5.76 0 0 1 -0.33,0.9 12.83,12.83 0 0 1 -0.73,1.34 9.53,9.53 0 0 1 -3.13,2.95 19.9,19.9 0 0 1 -5.22,2.3 l -0.88,0.26 z m 8,-7.21 a 2.3,2.3 0 0 0 -1.15,-0.35 2.37,2.37 0 0 0 -1.25,0.39 14.18,14.18 0 0 0 -1.83,1.5 l -1.89,1.67 a 10.51,10.51 0 0 0 -1.31,2.14 13.75,13.75 0 0 0 3.65,-1.36 10.75,10.75 0 0 0 2.53,-1.83 6.08,6.08 0 0 0 1.35,-2.16 z"
     id="path24"
     style="fill:#ffffff" />
  <path
     class="cls-1"
     d="m 250,32.67 a 3.52,3.52 0 0 1 0.38,-1.83 14.71,14.71 0 0 1 2.13,-2.17 l 1.32,-1.24 a 17.54,17.54 0 0 1 1.41,-3.69 14.43,14.43 0 0 1 2.62,-3.81 9,9 0 0 1 3.06,-2.07 7.67,7.67 0 0 1 2.55,-0.64 3,3 0 0 1 1.34,0.33 1.23,1.23 0 0 1 0.68,1.21 1.46,1.46 0 0 1 -0.22,0.8 8.82,8.82 0 0 1 -1.23,1.58 l -1.67,1.54 -0.27,0.22 -0.44,0.35 -1.66,1.23 -0.75,0.58 q -3.3,3 -3.3,5.59 c 0,1.67 1.05,3.54 3.13,5.63 l 0.92,0.83 0.4,-0.26 0.35,-0.22 1.58,-1.19 1.19,-0.88 0.53,-0.39 1.19,-1.11 1.19,-1.27 1,-1.14 a 1.52,1.52 0 0 1 1.1,-0.18 3.66,3.66 0 0 1 -0.48,2 19.84,19.84 0 0 1 -2.64,2.71 l -0.44,0.4 -0.22,0.17 -1.75,1.25 -1.59,1.28 0.36,0.26 0.3,0.27 a 14.84,14.84 0 0 1 1.41,1.54 c 0.12,0.15 0.32,0.4 0.6,0.77 a 10.16,10.16 0 0 1 0.85,1.38 6,6 0 0 1 0.75,2.86 5.35,5.35 0 0 1 -1.63,3.81 8.75,8.75 0 0 1 -4.62,2.35 8.26,8.26 0 0 1 -1.45,0.18 h -1 -0.62 -0.39 a 5.93,5.93 0 0 1 -3.57,-1.45 3.9,3.9 0 0 1 -1.32,-3 4.4,4.4 0 0 1 0.27,-1.5 11.89,11.89 0 0 1 2.54,-3.75 c 0.52,-0.59 0.89,-1 1.1,-1.19 0.21,-0.19 0.86,-0.74 1.54,-1.27 l 0.39,-0.31 0.31,-0.31 -1.23,-0.49 c -2.5,-1.41 -3.74,-3.3 -3.74,-5.67 v -0.53 a 2.39,2.39 0 0 0 0.09,-0.53 l 0.08,-0.44 a 2.61,2.61 0 0 1 -1.05,1.06 1.91,1.91 0 0 1 -1.38,0.35 z m 3.7,12.85 a 3,3 0 0 0 -0.35,0.83 3.19,3.19 0 0 0 -0.13,0.84 2.12,2.12 0 0 0 1.36,2.15 4.52,4.52 0 0 0 1.8,0.36 8.46,8.46 0 0 0 1.63,-0.22 c 2.73,-0.68 4.09,-1.92 4.09,-3.74 a 5.75,5.75 0 0 0 -1.32,-3.3 l -0.88,-1.1 -0.66,-0.66 -0.35,-0.31 L 258,41 a 26.82,26.82 0 0 0 -2.66,2.37 12.87,12.87 0 0 0 -1.63,2.15 z"
     id="path26"
     style="fill:#ffffff" />
  <path
     class="cls-1"
     d="m 273.07,24.18 -0.31,-0.27 c -0.5,-0.55 -0.75,-0.95 -0.75,-1.19 0,-0.24 0.41,-0.71 1.24,-1.27 l 1.58,-1 a 3,3 0 0 1 1.23,-0.27 3.37,3.37 0 0 1 2.55,1.21 6.22,6.22 0 0 1 1.39,3.45 9.16,9.16 0 0 1 0.09,1.1 13,13 0 0 1 -0.2,2.09 c -0.13,0.77 -0.34,1.73 -0.64,2.88 l -0.17,0.53 -0.84,2.81 -0.09,0.31 -0.26,1.1 1.28,-0.4 a 9.5,9.5 0 0 0 3.91,-2.59 l 1.72,-1.81 c 0.26,-0.26 0.57,-0.11 0.92,0.44 a 1.88,1.88 0 0 1 0.31,0.75 c 0,0.44 -0.85,1.44 -2.55,3 a 15.21,15.21 0 0 1 -3.3,2.12 19.14,19.14 0 0 1 -2.51,1.07 6.22,6.22 0 0 1 -1.94,0.33 c -1.23,0 -1.84,-0.43 -1.84,-1.32 a 3.75,3.75 0 0 1 0.13,-0.92 l 0.39,-1.19 0.75,-2 0.18,-0.48 0.44,-1.1 a 10.71,10.71 0 0 0 0.66,-3.21 2.67,2.67 0 0 0 -0.44,-1.61 2.22,2.22 0 0 0 -1.19,-0.81 l -0.88,0.83 -1.26,1.24 -1.58,1.5 c -0.26,0.26 -0.57,0.6 -0.92,1 a 17.19,17.19 0 0 1 -1.83,2 1.08,1.08 0 0 1 -0.9,0.29 c -0.53,-0.12 -0.73,-0.38 -0.62,-0.79 a 3.11,3.11 0 0 1 0.44,-1.15 l 2.16,-2.11 a 11.57,11.57 0 0 0 1.19,-1.32 c 0.58,-0.7 1.17,-1.48 1.76,-2.33 z"
     id="path28"
     style="fill:#ffffff" />
  <path
     class="cls-1"
     d="m 298.11,19.38 2.2,-0.44 a 2.71,2.71 0 0 1 0.68,-0.09 h 0.5 q 4.62,0 4.62,5.33 a 14.57,14.57 0 0 1 -0.3,2.86 14.28,14.28 0 0 1 -1.57,4.26 12.43,12.43 0 0 1 -2.83,3.26 10.79,10.79 0 0 1 -6.87,2.73 9.19,9.19 0 0 1 -1.45,-0.13 8,8 0 0 1 -4.2,-1.68 4.54,4.54 0 0 1 -1.26,-3.48 6.08,6.08 0 0 1 0.05,-0.84 l 0.13,-0.7 -0.66,0.66 -0.09,0.09 a 11.06,11.06 0 0 1 -1.32,1.41 0.81,0.81 0 0 1 -0.7,0.17 0.69,0.69 0 0 1 -0.57,-0.75 2.55,2.55 0 0 1 0.44,-1.23 2.49,2.49 0 0 1 0.48,-0.57 c 0.79,-0.79 1.66,-1.64 2.6,-2.55 l 0.3,-0.31 a 6.76,6.76 0 0 0 0.64,-0.82 6.5,6.5 0 0 0 0.68,-1.18 c 0.18,-0.4 0.46,-1.15 0.84,-2.27 l 0.4,-0.88 a 6.45,6.45 0 0 1 1.1,-1.72 17.54,17.54 0 0 1 2.79,-2.51 3.7,3.7 0 0 1 2,-0.73 1.71,1.71 0 0 1 1.1,0.4 1.23,1.23 0 0 1 0.49,1 1.43,1.43 0 0 1 -0.22,0.71 z m 5,9.33 a 9,9 0 0 0 0.18,-1.81 5.27,5.27 0 0 0 -0.82,-3.1 3,3 0 0 0 -1.8,-1.36 8.57,8.57 0 0 0 -1.47,-0.2 3.19,3.19 0 0 0 -1.24,0.22 2.42,2.42 0 0 0 -0.88,0.62 c -0.49,0.61 -0.85,1 -1,1.23 a 2.06,2.06 0 0 1 -0.49,0.39 5.9,5.9 0 0 0 -1.34,1 7.67,7.67 0 0 0 -0.75,1.91 10.29,10.29 0 0 0 -0.46,2.86 4.37,4.37 0 0 0 0.18,1.37 c 0.53,1.93 1.48,2.9 2.86,2.9 a 7.57,7.57 0 0 0 3.47,-1.19 6.7,6.7 0 0 0 3.57,-4.84 z"
     id="path30"
     style="fill:#ffffff" />
  <path
     class="cls-1"
     d="m 320.55,35.4 a 2.09,2.09 0 0 1 0.08,-0.66 8.09,8.09 0 0 1 1.5,-2.16 11.76,11.76 0 0 1 1.76,-1.67 1.25,1.25 0 0 1 0.79,-0.26 2.06,2.06 0 0 1 1.94,1.58 6.5,6.5 0 0 1 0.17,0.66 3.79,3.79 0 0 1 0,0.7 1.46,1.46 0 0 1 0,0.44 3.25,3.25 0 0 1 -0.77,2.16 4.29,4.29 0 0 1 -2,1.32 3.4,3.4 0 0 1 -0.92,0.13 2.71,2.71 0 0 1 -1.81,-0.62 2,2 0 0 1 -0.74,-1.62 z"
     id="path32"
     style="fill:#ffffff" />
  <path
     class="cls-1"
     d="m 331.19,35.4 a 1.79,1.79 0 0 1 0.09,-0.66 8.09,8.09 0 0 1 1.5,-2.16 11.3,11.3 0 0 1 1.76,-1.67 1.25,1.25 0 0 1 0.79,-0.26 2.07,2.07 0 0 1 1.94,1.58 c 0.08,0.29 0.14,0.51 0.17,0.66 a 3.79,3.79 0 0 1 0.05,0.7 1.46,1.46 0 0 1 -0.05,0.44 3.3,3.3 0 0 1 -0.77,2.16 4.29,4.29 0 0 1 -2,1.32 3.4,3.4 0 0 1 -0.92,0.13 2.71,2.71 0 0 1 -1.81,-0.62 2,2 0 0 1 -0.75,-1.62 z"
     id="path34"
     style="fill:#ffffff" />
  <path
     class="cls-1"
     d="m 341.84,35.4 a 1.79,1.79 0 0 1 0.09,-0.66 7.85,7.85 0 0 1 1.5,-2.16 11.3,11.3 0 0 1 1.76,-1.67 1.23,1.23 0 0 1 0.79,-0.26 2.05,2.05 0 0 1 1.93,1.58 q 0.13,0.44 0.18,0.66 a 4,4 0 0 1 0,0.7 1.54,1.54 0 0 1 0,0.44 3.3,3.3 0 0 1 -0.77,2.16 4.29,4.29 0 0 1 -2,1.32 3.47,3.47 0 0 1 -0.93,0.13 2.7,2.7 0 0 1 -1.8,-0.62 2,2 0 0 1 -0.75,-1.62 z"
     id="path36"
     style="fill:#ffffff" />
</svg>
