<svg id="Слой_1" data-name="Слой 1" xmlns="http://www.w3.org/2000/svg" viewBox="0 0 793.46 118.02"><defs><style>.cls-1{fill:#fff;}</style></defs><title>Монтажная область 32</title><path class="cls-1" d="M36.62,16.61q-.84-.18-.84-.84a9.25,9.25,0,0,1,.4-1.89l.53-1.94.13-.39.88-2.38,1-2.06A4.62,4.62,0,0,1,39.92,5.3,4.54,4.54,0,0,1,42.12,5a6.49,6.49,0,0,1,2.05.2.52.52,0,0,1,.37.68,45.17,45.17,0,0,1-1.45,4.57,15.38,15.38,0,0,0-.4,1.54q-.57,2.64-1.1,5.06L41,20q-.66,3.34-1.08,6.16a32.76,32.76,0,0,0-.42,4.7c0,2.09,0,3.4.06,3.94s.1,1,.16,1.43c.06.18-.06.35-.35.51a6.21,6.21,0,0,1-1.52.46,9.77,9.77,0,0,1-1.3.22,1.08,1.08,0,0,1-1.14-.79,10.64,10.64,0,0,1-.27-3l0-3.61V29.5c0-1.11,0-2.16.11-3.12s.21-2.25.42-3.83c.11-1,.26-2,.44-3S36.41,17.55,36.62,16.61Z"/><path class="cls-1" d="M41.81,32.67a3,3,0,0,1,.7-2.11l1.9-1.85.3-.31,2.47-2.51,3-2.9,2.9-2.55a9.86,9.86,0,0,1,2.42-1.68,1.79,1.79,0,0,1,.75-.17c.74,0,1.12.2,1.17.59s.06.76.06,1.08a9.14,9.14,0,0,1-.08,1.19c-.18.94-.33,1.73-.44,2.37s-.27,1.31-.44,2c0,.06-.25.8-.66,2.2l-.44,1.37L55,30.56l.48-.58,1.19-1.4.09-.14.79-.83c.32-.32.66-.64,1-.95s.68-.56,1-.77a6.8,6.8,0,0,1,3.79-1.71q2.6,0,4,5.36l.31,1.28.53,2.68c.14,1,.47,1.38,1,1.24a3.53,3.53,0,0,0,.93-.42c.23-.16.73-.54,1.49-1.12l.62-.57c.82-.86,1.37-1.41,1.65-1.66a1.23,1.23,0,0,1,.73-.37,5.12,5.12,0,0,1,.7.18,3.77,3.77,0,0,1-.73,2.31,13.49,13.49,0,0,1-2.94,2.57,6.87,6.87,0,0,1-3.46,1.58c-1.05,0-1.92-.86-2.59-2.59l-.93-2.11q-1.23-2.68-3.34-2.69a4.37,4.37,0,0,0-2.91,1.32A13.88,13.88,0,0,0,57,32.63a33.62,33.62,0,0,0-2.06,3l-.53.83-1,1.81-.09.17a2.31,2.31,0,0,1-2.25,1,1.58,1.58,0,0,1-1.32-.57,1.77,1.77,0,0,1-.3-1.41c.32-1.47.58-2.61.79-3.43l.61-2a8,8,0,0,0,.25-1q.15-.75.33-2.16l.17-1.27.09-1,0-.7,0-.58-1.15.8A31.49,31.49,0,0,0,46.83,29c-.44.38-.93.84-1.46,1.37l-1,1c-.88,1-1.51,1.54-1.9,1.54A4.63,4.63,0,0,1,41.81,32.67Z"/><path class="cls-1" d="M91.18,37.38q0-3,.22-5.86.39-4.21.66-7l.79-8.09c.12-1.17.26-2.6.44-4.27.09-1,.18-1.69.26-2.16l.18-1.18L94,7c.3-.24.54-.42.73-.55a6.55,6.55,0,0,1,1-.55A8.53,8.53,0,0,1,98,5a.58.58,0,0,1,.57.44A7.65,7.65,0,0,1,99,6.93c.11.67.23,1.25.35,1.72.23.82.42,1.52.57,2.11l.09.3,1.14,3.83c.73,2.44,1.82,3.65,3.26,3.65A2.65,2.65,0,0,0,106,18q.52-.39,1-.75a7.39,7.39,0,0,0,.93-.88c1.29-1.32,2.16-2.23,2.62-2.75s1.16-1.41,2.13-2.7A20.57,20.57,0,0,1,114.15,9a7.73,7.73,0,0,1,1-1,10.87,10.87,0,0,1,1.85-1.26,3.06,3.06,0,0,1,1.23-.37,1.39,1.39,0,0,1,.93.27.71.71,0,0,1,.26.65c-.24,2.29-.6,4.76-1.1,7.4s-1.23,6-2.2,10l-1.28,5.2-.13.61c-.35,1.26-.61,2.27-.77,3a9.46,9.46,0,0,0-.24,1.95.57.57,0,0,1-.18.44,4.54,4.54,0,0,1-1.67.84,4.18,4.18,0,0,1-1,.18l-.68,0,.22-1.89.22-1.67.13-1.1.17-2,.4-3.7.31-2.77L112,21.4l1-7.65-.4.44-.26.35L111,16.34a27.42,27.42,0,0,1-3.47,4.45q-3,2.82-5.11,2.82c-1.88,0-3.5-1.81-4.88-5.42l-.18-.52-.79,4.09-.22,1.36-.31,2.24-.48,3.44-.53,3.6c0,2.21-.15,3.52-.46,4s-1.24.77-2.8,1Z"/><path class="cls-1" d="M131,19.38l2.2-.44a2.84,2.84,0,0,1,.69-.09h.5q4.62,0,4.62,5.33a13.88,13.88,0,0,1-.31,2.86,14,14,0,0,1-1.56,4.26,12.29,12.29,0,0,1-2.84,3.26,10.76,10.76,0,0,1-6.86,2.73,9.19,9.19,0,0,1-1.45-.13,7.93,7.93,0,0,1-4.2-1.68A4.54,4.54,0,0,1,120.48,32a6.08,6.08,0,0,1,0-.84l.13-.7-.66.66-.09.09a12.82,12.82,0,0,1-1.32,1.41.82.82,0,0,1-.7.17.69.69,0,0,1-.58-.75,2.66,2.66,0,0,1,.44-1.23,2.62,2.62,0,0,1,.49-.57c.79-.79,1.65-1.64,2.59-2.55l.31-.31a6.76,6.76,0,0,0,.64-.82,6.5,6.5,0,0,0,.68-1.18c.18-.4.46-1.15.84-2.27l.39-.88a6.71,6.71,0,0,1,1.1-1.72,18,18,0,0,1,2.8-2.57,3.68,3.68,0,0,1,2-.73,1.71,1.71,0,0,1,1.1.4,1.25,1.25,0,0,1,.48,1A1.34,1.34,0,0,1,131,19.38Zm5,9.33a9,9,0,0,0,.18-1.81,5.34,5.34,0,0,0-.82-3.1,3,3,0,0,0-1.8-1.36,8.54,8.54,0,0,0-1.48-.2,3.11,3.11,0,0,0-1.23.22,2.42,2.42,0,0,0-.88.62q-.75.92-1.05,1.23a2.06,2.06,0,0,1-.49.39,5.9,5.9,0,0,0-1.34,1,7.67,7.67,0,0,0-.75,1.91,9.94,9.94,0,0,0-.46,2.86,4.37,4.37,0,0,0,.18,1.37c.52,1.93,1.48,2.9,2.86,2.9a7.65,7.65,0,0,0,3.47-1.19A6.7,6.7,0,0,0,136,28.71Z"/><path class="cls-1" d="M138.26,32.67a3,3,0,0,1,.7-2.11l1.89-1.85.31-.31,2.47-2.51,3-2.9,2.9-2.55a9.86,9.86,0,0,1,2.42-1.68,1.79,1.79,0,0,1,.75-.17c.73,0,1.12.2,1.17.59s.06.76.06,1.08a7.66,7.66,0,0,1-.09,1.19c-.17.94-.32,1.73-.44,2.37s-.26,1.31-.44,2c0,.06-.25.8-.66,2.2l-.44,1.37-.39,1.19.48-.58,1.19-1.4.09-.14.79-.83c.32-.32.66-.64,1-.95s.68-.56,1-.77a6.78,6.78,0,0,1,3.78-1.71q2.59,0,4,5.36l.31,1.28.52,2.68c.15,1,.47,1.38,1,1.24a3.45,3.45,0,0,0,.92-.42c.24-.16.74-.54,1.5-1.12l.62-.57c.82-.86,1.37-1.41,1.65-1.66a1.24,1.24,0,0,1,.72-.37,5.07,5.07,0,0,1,.71.18,3.77,3.77,0,0,1-.73,2.31A13.61,13.61,0,0,1,168,35.66a6.81,6.81,0,0,1-3.45,1.58c-1.06,0-1.92-.86-2.6-2.59l-.92-2.11c-.82-1.79-1.94-2.69-3.34-2.69a4.37,4.37,0,0,0-2.91,1.32,13.88,13.88,0,0,0-1.32,1.46,35.76,35.76,0,0,0-2.07,3l-.52.83-1,1.81-.08.17a2.31,2.31,0,0,1-2.25,1,1.56,1.56,0,0,1-1.32-.57,1.81,1.81,0,0,1-.31-1.41c.33-1.47.59-2.61.8-3.43.08-.29.29-1,.61-2a6.86,6.86,0,0,0,.24-1q.16-.75.33-2.16l.18-1.27.09-1,0-.7.05-.58-1.15.8A31.73,31.73,0,0,0,143.27,29c-.44.38-.92.84-1.45,1.37l-1,1c-.88,1-1.51,1.54-1.89,1.54A4.35,4.35,0,0,1,138.26,32.67Z"/><path class="cls-1" d="M178.82,16c-.41,0-.8,0-1.18,0l-1.15,0h-.88l-2-.09a8.67,8.67,0,0,1-3-.31c-.44-.2-.66-.67-.66-1.4s.22-1,.66-1.21a11.55,11.55,0,0,1,3.08-.25h5.94l.08-.21L180,12c.14-.32.29-.71.44-1.15s.23-.73.26-.88a10.52,10.52,0,0,1,.73-2.35,1.16,1.16,0,0,1,1.08-.46q1.05,0,1,.75l-.44,2-.26,2-.09.71,0,.17.83.09a3.18,3.18,0,0,1,1.26.38,1.63,1.63,0,0,1,.37.92,6.88,6.88,0,0,1,.13.9c0,.85-.61,1.28-1.84,1.28a7.87,7.87,0,0,1-1-.05l-.4-.08a80.59,80.59,0,0,0-1.71,9.24l-.09.74-.53,4.05c-.06.62-.11,1.18-.15,1.7s-.07,1-.07,1.38a9,9,0,0,0,.18,1.81l1-.44a9.83,9.83,0,0,0,2.95-2.45c.76-.95,1.28-1.43,1.54-1.43s.38.19.62.56a1.88,1.88,0,0,1,.35.76c0,.27-.45.81-1.36,1.63L183.44,35l-.48.44-.7.62A23,23,0,0,1,180,37.82a8.48,8.48,0,0,1-1.65.83,4.54,4.54,0,0,1-1.54.27c-1.47,0-2.2-.85-2.2-2.56,0-.55,0-1.11.06-1.67s.14-1.42.29-2.59l.09-.75.13-.75.48-2.07.53-2.37-1,1.54a14.49,14.49,0,0,1-.88,1.18c-1.43,1.82-2.21,2.79-2.33,2.91-.64.76-1.17,1.07-1.58.92s-.65-.38-.53-.79a3.69,3.69,0,0,1,.79-1.58l1.8-2c.18-.21.44-.58.8-1.1.47-.74,1.07-1.72,1.8-3a30.48,30.48,0,0,0,1.72-3.26l.13-.22.48-1.14.66-1.63.27-.62.22-.61Z"/><path class="cls-1" d="M191.5,30.86a2.89,2.89,0,0,0-.05.84,3.1,3.1,0,0,0,1,2.38,3.74,3.74,0,0,0,2.6.92,4.67,4.67,0,0,0,2.11-.48,7.52,7.52,0,0,0,2.51-1.81l1.39-1.36c.48-.47.85-.7,1.12-.7a2.35,2.35,0,0,1,.75.17,5.2,5.2,0,0,1-1.17,2.66,18.83,18.83,0,0,1-3.76,3,8.43,8.43,0,0,1-2.42,1.06,9.9,9.9,0,0,1-2.33.31,5.92,5.92,0,0,1-3.79-1.19,5,5,0,0,1-1.85-3.17,8.73,8.73,0,0,1-.08-.92,6.06,6.06,0,0,1,.06-1,6.57,6.57,0,0,1,.38-1.1l-.88.92-1.19,1.28a.72.72,0,0,1-1-.4,1.12,1.12,0,0,1-.13-.53,2,2,0,0,1,.57-1.09,22.08,22.08,0,0,1,1.94-2l2.15-2.07.53-.44q1.37-1.23,2.46-2.07c.5-.38,1.12-.84,1.85-1.37a17.45,17.45,0,0,1,3.43-1.82,7.19,7.19,0,0,1,2.34-.51,2.32,2.32,0,0,1,1.54.66,2,2,0,0,1,.52,1.41,3.13,3.13,0,0,1-.08.66,5.76,5.76,0,0,1-.33.9,12.83,12.83,0,0,1-.73,1.34,9.59,9.59,0,0,1-3.12,2.95,20.11,20.11,0,0,1-5.33,2.25l-.88.26Zm8.05-7.21a2.27,2.27,0,0,0-1.15-.35,2.37,2.37,0,0,0-1.25.39,14.91,14.91,0,0,0-1.83,1.5l-1.89,1.67A10.51,10.51,0,0,0,192.07,29a13.62,13.62,0,0,0,3.65-1.36,10.75,10.75,0,0,0,2.53-1.83A6.08,6.08,0,0,0,199.55,23.65Z"/><path class="cls-1" d="M201.48,32.67a3,3,0,0,1,.71-2.11c.11-.12.75-.74,1.89-1.85l.31-.31,2.46-2.51,3-2.9,2.91-2.55a9.67,9.67,0,0,1,2.42-1.68,1.72,1.72,0,0,1,.75-.17c.73,0,1.12.2,1.16.59a8.71,8.71,0,0,1,.07,1.08,7.66,7.66,0,0,1-.09,1.19c-.18.94-.32,1.73-.44,2.37s-.26,1.31-.44,2c0,.06-.25.8-.66,2.2l-.44,1.37-.4,1.19.49-.58,1.19-1.4.08-.14.8-.83c.32-.32.66-.64,1-.95s.67-.56,1-.77A6.75,6.75,0,0,1,223,24.18q2.59,0,4,5.36l.31,1.28.53,2.68c.15,1,.47,1.38,1,1.24a3.45,3.45,0,0,0,.92-.42c.24-.16.73-.54,1.5-1.12l.61-.57c.82-.86,1.37-1.41,1.65-1.66a1.23,1.23,0,0,1,.73-.37,5.12,5.12,0,0,1,.7.18,3.82,3.82,0,0,1-.72,2.31,13.87,13.87,0,0,1-2.95,2.57,6.81,6.81,0,0,1-3.45,1.58c-1.06,0-1.93-.86-2.6-2.59l-.92-2.11c-.83-1.79-1.94-2.69-3.35-2.69a4.35,4.35,0,0,0-2.9,1.32,13.88,13.88,0,0,0-1.32,1.46,31.55,31.55,0,0,0-2.07,3l-.53.83-1,1.81-.09.17a2.3,2.3,0,0,1-2.24,1,1.56,1.56,0,0,1-1.32-.57,1.73,1.73,0,0,1-.31-1.41c.32-1.47.59-2.61.79-3.43.09-.29.29-1,.62-2a6.86,6.86,0,0,0,.24-1q.15-.75.33-2.16l.18-1.27.08-1,.05-.7,0-.58-1.14.8A31.73,31.73,0,0,0,206.5,29c-.44.38-.92.84-1.45,1.37l-1,1c-.88,1-1.51,1.54-1.89,1.54A4.33,4.33,0,0,1,201.48,32.67Z"/><path class="cls-1" d="M239.9,30.86a2.89,2.89,0,0,0-.05.84,3.1,3.1,0,0,0,1,2.38,3.74,3.74,0,0,0,2.6.92,4.67,4.67,0,0,0,2.11-.48,7.52,7.52,0,0,0,2.51-1.81l1.38-1.36c.49-.47.86-.7,1.13-.7a2.35,2.35,0,0,1,.75.17,5.2,5.2,0,0,1-1.17,2.66,18.83,18.83,0,0,1-3.76,3A8.55,8.55,0,0,1,244,37.51a9.92,9.92,0,0,1-2.34.31,5.91,5.91,0,0,1-3.78-1.19A5,5,0,0,1,236,33.46a6.64,6.64,0,0,1-.08-.92,6.06,6.06,0,0,1,.06-1,5.75,5.75,0,0,1,.38-1.1l-.89.92-1.18,1.28a.72.72,0,0,1-1-.4,1.12,1.12,0,0,1-.13-.53,2,2,0,0,1,.57-1.09,23.1,23.1,0,0,1,1.93-2l2.16-2.07.53-.44q1.36-1.23,2.46-2.07c.5-.38,1.12-.84,1.85-1.37a17.45,17.45,0,0,1,3.43-1.82,7.19,7.19,0,0,1,2.34-.51,2.27,2.27,0,0,1,1.53.66,2,2,0,0,1,.53,1.41,3.13,3.13,0,0,1-.08.66,5.76,5.76,0,0,1-.33.9,12.83,12.83,0,0,1-.73,1.34,9.53,9.53,0,0,1-3.13,2.95A19.9,19.9,0,0,1,241,30.56l-.88.26Zm8-7.21a2.3,2.3,0,0,0-1.15-.35,2.37,2.37,0,0,0-1.25.39,14.18,14.18,0,0,0-1.83,1.5l-1.89,1.67A10.51,10.51,0,0,0,240.47,29a13.75,13.75,0,0,0,3.65-1.36,10.75,10.75,0,0,0,2.53-1.83A6.08,6.08,0,0,0,248,23.65Z"/><path class="cls-1" d="M250,32.67a3.52,3.52,0,0,1,.38-1.83,14.71,14.71,0,0,1,2.13-2.17l1.32-1.24a17.54,17.54,0,0,1,1.41-3.69,14.43,14.43,0,0,1,2.62-3.81,9,9,0,0,1,3.06-2.07,7.67,7.67,0,0,1,2.55-.64,3,3,0,0,1,1.34.33,1.23,1.23,0,0,1,.68,1.21,1.46,1.46,0,0,1-.22.8,8.82,8.82,0,0,1-1.23,1.58l-1.67,1.54-.27.22-.44.35L260,24.48l-.75.58q-3.3,3-3.3,5.59c0,1.67,1.05,3.54,3.13,5.63l.92.83.4-.26.35-.22,1.58-1.19,1.19-.88.53-.39,1.19-1.11,1.19-1.27,1-1.14a1.52,1.52,0,0,1,1.1-.18,3.66,3.66,0,0,1-.48,2,19.84,19.84,0,0,1-2.64,2.71l-.44.4-.22.17L263,37l-1.59,1.28.36.26.3.27a14.84,14.84,0,0,1,1.41,1.54c.12.15.32.4.6.77a10.16,10.16,0,0,1,.85,1.38,6,6,0,0,1,.75,2.86,5.35,5.35,0,0,1-1.63,3.81,8.75,8.75,0,0,1-4.62,2.35,8.26,8.26,0,0,1-1.45.18l-1,0h-.62l-.39,0a5.93,5.93,0,0,1-3.57-1.45,3.9,3.9,0,0,1-1.32-3,4.4,4.4,0,0,1,.27-1.5A11.89,11.89,0,0,1,253.89,42c.52-.59.89-1,1.1-1.19s.86-.74,1.54-1.27l.39-.31.31-.31L256,38.43c-2.5-1.41-3.74-3.3-3.74-5.67v-.53a2.39,2.39,0,0,0,.09-.53l.08-.44a2.61,2.61,0,0,1-1.05,1.06A1.91,1.91,0,0,1,250,32.67Zm3.7,12.85a3,3,0,0,0-.35.83,3.19,3.19,0,0,0-.13.84,2.12,2.12,0,0,0,1.36,2.15,4.52,4.52,0,0,0,1.8.36,8.46,8.46,0,0,0,1.63-.22c2.73-.68,4.09-1.92,4.09-3.74a5.75,5.75,0,0,0-1.32-3.3l-.88-1.1-.66-.66-.35-.31L258,41a26.82,26.82,0,0,0-2.66,2.37A12.87,12.87,0,0,0,253.71,45.52Z"/><path class="cls-1" d="M273.07,24.18l-.31-.27c-.5-.55-.75-.95-.75-1.19s.41-.71,1.24-1.27l1.58-1a3,3,0,0,1,1.23-.27,3.37,3.37,0,0,1,2.55,1.21A6.22,6.22,0,0,1,280,24.84a9.16,9.16,0,0,1,.09,1.1,13,13,0,0,1-.2,2.09c-.13.77-.34,1.73-.64,2.88l-.17.53-.84,2.81-.09.31-.26,1.1,1.28-.4a9.5,9.5,0,0,0,3.91-2.59l1.72-1.81c.26-.26.57-.11.92.44a1.88,1.88,0,0,1,.31.75c0,.44-.85,1.44-2.55,3a15.21,15.21,0,0,1-3.3,2.12,19.14,19.14,0,0,1-2.51,1.07,6.22,6.22,0,0,1-1.94.33c-1.23,0-1.84-.43-1.84-1.32a3.75,3.75,0,0,1,.13-.92l.39-1.19.75-2,.18-.48.44-1.1a10.71,10.71,0,0,0,.66-3.21,2.67,2.67,0,0,0-.44-1.61,2.22,2.22,0,0,0-1.19-.81l-.88.83L272.67,28l-1.58,1.5c-.26.26-.57.6-.92,1a17.19,17.19,0,0,1-1.83,2,1.08,1.08,0,0,1-.9.29c-.53-.12-.73-.38-.62-.79a3.11,3.11,0,0,1,.44-1.15l2.16-2.11a11.57,11.57,0,0,0,1.19-1.32c.58-.7,1.17-1.48,1.76-2.33Z"/><path class="cls-1" d="M298.11,19.38l2.2-.44a2.71,2.71,0,0,1,.68-.09h.5q4.62,0,4.62,5.33a14.57,14.57,0,0,1-.3,2.86,14.28,14.28,0,0,1-1.57,4.26,12.43,12.43,0,0,1-2.83,3.26,10.79,10.79,0,0,1-6.87,2.73,9.19,9.19,0,0,1-1.45-.13,8,8,0,0,1-4.2-1.68A4.54,4.54,0,0,1,287.63,32a6.08,6.08,0,0,1,.05-.84l.13-.7-.66.66-.09.09a11.06,11.06,0,0,1-1.32,1.41.81.81,0,0,1-.7.17.69.69,0,0,1-.57-.75,2.55,2.55,0,0,1,.44-1.23,2.49,2.49,0,0,1,.48-.57c.79-.79,1.66-1.64,2.6-2.55l.3-.31a6.76,6.76,0,0,0,.64-.82,6.5,6.5,0,0,0,.68-1.18c.18-.4.46-1.15.84-2.27l.4-.88a6.45,6.45,0,0,1,1.1-1.72A17.54,17.54,0,0,1,294.74,18a3.7,3.7,0,0,1,2-.73,1.71,1.71,0,0,1,1.1.4,1.23,1.23,0,0,1,.49,1A1.43,1.43,0,0,1,298.11,19.38Zm5,9.33a9,9,0,0,0,.18-1.81,5.27,5.27,0,0,0-.82-3.1,3,3,0,0,0-1.8-1.36,8.57,8.57,0,0,0-1.47-.2,3.19,3.19,0,0,0-1.24.22,2.42,2.42,0,0,0-.88.62c-.49.61-.85,1-1,1.23a2.06,2.06,0,0,1-.49.39,5.9,5.9,0,0,0-1.34,1,7.67,7.67,0,0,0-.75,1.91,10.29,10.29,0,0,0-.46,2.86,4.37,4.37,0,0,0,.18,1.37c.53,1.93,1.48,2.9,2.86,2.9a7.57,7.57,0,0,0,3.47-1.19A6.7,6.7,0,0,0,303.12,28.71Z"/><path class="cls-1" d="M320.55,35.4a2.09,2.09,0,0,1,.08-.66,8.09,8.09,0,0,1,1.5-2.16,11.76,11.76,0,0,1,1.76-1.67,1.25,1.25,0,0,1,.79-.26,2.06,2.06,0,0,1,1.94,1.58,6.5,6.5,0,0,1,.17.66,3.79,3.79,0,0,1,0,.7,1.46,1.46,0,0,1,0,.44,3.25,3.25,0,0,1-.77,2.16,4.29,4.29,0,0,1-2,1.32,3.4,3.4,0,0,1-.92.13,2.71,2.71,0,0,1-1.81-.62A2,2,0,0,1,320.55,35.4Z"/><path class="cls-1" d="M331.19,35.4a1.79,1.79,0,0,1,.09-.66,8.09,8.09,0,0,1,1.5-2.16,11.3,11.3,0,0,1,1.76-1.67,1.25,1.25,0,0,1,.79-.26,2.07,2.07,0,0,1,1.94,1.58c.08.29.14.51.17.66a3.79,3.79,0,0,1,.05.7,1.46,1.46,0,0,1-.05.44,3.3,3.3,0,0,1-.77,2.16,4.29,4.29,0,0,1-2,1.32,3.4,3.4,0,0,1-.92.13,2.71,2.71,0,0,1-1.81-.62A2,2,0,0,1,331.19,35.4Z"/><path class="cls-1" d="M341.84,35.4a1.79,1.79,0,0,1,.09-.66,7.85,7.85,0,0,1,1.5-2.16,11.3,11.3,0,0,1,1.76-1.67,1.23,1.23,0,0,1,.79-.26,2.05,2.05,0,0,1,1.93,1.58q.13.44.18.66a4,4,0,0,1,0,.7,1.54,1.54,0,0,1,0,.44,3.3,3.3,0,0,1-.77,2.16,4.29,4.29,0,0,1-2,1.32,3.47,3.47,0,0,1-.93.13,2.7,2.7,0,0,1-1.8-.62A2,2,0,0,1,341.84,35.4Z"/></svg>