<?xml version="1.0" encoding="utf-8"?>
<!-- Generator: Adobe Illustrator 22.0.1, SVG Export Plug-In . SVG Version: 6.00 Build 0)  -->
<svg version="1.1" id="Слой_1" xmlns="http://www.w3.org/2000/svg" xmlns:xlink="http://www.w3.org/1999/xlink" x="0px" y="0px"
	 viewBox="0 0 142.7 27.3" style="enable-background:new 0 0 142.7 27.3;" xml:space="preserve">
<style type="text/css">
	.st0{fill:#FFFFFF;}
</style>
<g>
	<g>
		<path class="st0" d="M4.9,21.5V8c0-1.1,0.9-2,2-2h0c1.1,0,2,0.9,2,2v13.5c0,1.1-0.9,2-2,2h0C5.8,23.5,4.9,22.6,4.9,21.5z"/>
		<path class="st0" d="M20,22.5l-2.4-3.9c-1-1.7-3.7-1-3.7,1v1.8c0,1.1-0.9,2-2,2h0c-1.1,0-2-0.9-2-2V8c0-1.1,0.9-2,2-2h1.4
			C14,6.1,14.6,6.4,15,7l2.4,3.9c1,1.7,3.7,1,3.7-1V8c0-1.1,0.9-2,2-2h0c1.1,0,2,0.9,2,2v13.5c0,1.1-0.9,2-2,2h-1.4
			C21,23.5,20.4,23.1,20,22.5z"/>
		<path class="st0" d="M26.9,21.5L26.9,21.5c0-1.1,0.9-2,2-2h6.4c0.3,0,0.5-0.2,0.5-0.5c0-0.2-0.1-0.4-0.3-0.5
			c-2.6-1.5-4.9-2.8-7.4-4.4c-1.1-0.7-1.8-2.1-1.8-3.4c0-2.6,2-3.8,4.5-4.6c2.1-0.7,7.8-2.1,6.4,0c-0.6,0.9,2,0.9,2,2v0
			c0,1.1-0.9,2-2,2h-6.4c-0.3,0-0.5,0.2-0.5,0.5c0,0.2,0.1,0.3,0.2,0.5l7.5,4.5c1.2,0.7,1.8,2,1.8,3.4c0,2.6-1.9,4.6-4.5,4.6h-6.4
			C27.8,23.5,26.9,22.6,26.9,21.5z"/>
		<path class="st0" d="M43.4,23.5h-1.1c-0.8,0-1.4-0.6-1.4-1.4V7.5c0-0.8,0.6-1.4,1.4-1.4h6.3c2.1,0,4.1,1.7,4.1,3.9
			c0,1.4-0.7,2.9-2.1,6.3c-0.7,1.8-2.5,3.1-4.4,3.1l0,0c-0.8,0-1.4,0.6-1.4,1.4v1.2C44.8,22.8,44.2,23.5,43.4,23.5z M48.4,10h-2.2
			c-0.8,0-1.4,0.6-1.4,1.4v4.1h1c0.5,0,1-0.1,1.2-0.6c0.2-0.5,1.8-4.5,1.8-4.7C48.8,10,48.5,10,48.4,10z"/>
		<path class="st0" d="M53.9,21.5V8c0-1.1,0.9-2,2-2h0c1.1,0,2,0.9,2,2v13.5c0,1.1-0.9,2-2,2h0C54.8,23.5,53.9,22.6,53.9,21.5z"/>
		<path class="st0" d="M67.2,22.7l-2.3-2.9c-0.2-0.3-0.5-0.4-0.9-0.4l0,0c-0.6,0-1.1,0.5-1.1,1.1v0.9c0,1.1-0.9,2-2,2h0
			c-1.1,0-2-0.9-2-2V8c0-1.1,0.9-2,2-2h5.8c2.1,0,4.1,1.7,4.1,3.9c0,0.5-0.1,1.1-0.2,1.6c-0.3,0.9-1.2,3.4-1.9,4.9
			c-0.3,0.7-0.2,1.5,0.2,2.1l1.4,1.7c1,1.3,0.1,3.2-1.5,3.2h0C68.1,23.5,67.6,23.2,67.2,22.7z M66.6,10h-1.7c-1.1,0-2,0.9-2,2v3.5
			c0.1,0,0.3,0,0.8,0c0.6,0,1.1-0.1,1.3-0.7c0.2-0.6,1.8-4.4,1.8-4.7C66.9,10,66.7,10,66.6,10z"/>
		<path class="st0" d="M81.8,22v-1c0-0.8-0.7-1.5-1.5-1.5h-0.9c-0.8,0-1.5,0.7-1.5,1.5v1c0,0.8-0.7,1.5-1.5,1.5h-0.9
			c-0.8,0-1.5-0.7-1.5-1.5v-4.4c0-4.2,1.9-8.4,5.8-10.5c1.6-0.8,2.9-1,4.4-1c0.9,0,1.6,0.7,1.6,1.5V22c0,0.8-0.7,1.5-1.5,1.5h-0.9
			C82.5,23.5,81.8,22.8,81.8,22z M78.9,13.2C78.9,13.3,78.9,13.3,78.9,13.2c-0.6,1.1,0.2,2.3,1.3,2.3h0c0.8,0,1.5-0.7,1.5-1.5v-0.1
			C81.8,12.3,79.7,11.8,78.9,13.2z"/>
		<path class="st0" d="M95.5,12v9.5c0,1.1-0.9,2-2,2l0,0c-1.1,0-2-0.9-2-2V12c0-1.1-0.9-2-2-2h-0.7c-1.1,0-2-0.9-2-2v0
			c0-1.1,0.9-2,2-2h9.4c1.1,0,2,0.9,2,2v0c0,1.1-0.9,2-2,2h-0.7C96.4,10,95.5,10.9,95.5,12z"/>
		<path class="st0" d="M101.3,21.5V8c0-1.1,0.9-2,2-2l0,0c1.1,0,2,0.9,2,2v13.5c0,1.1-0.9,2-2,2l0,0
			C102.2,23.5,101.3,22.6,101.3,21.5z"/>
		<path class="st0" d="M109.8,21.5c-0.3-0.4-0.5-0.8-0.7-1.3c-0.4-1.4-0.8-2.8-1.2-4.1c-0.5-1.7-1.5-4.3-1.5-6c0-2.4,1.8-4,4.2-4
			h6.5c2.4,0,4.2,1.7,4.2,4c0,1.6-2.1,8.1-2.7,10.1c-0.3,1-0.9,1.9-1.8,2.4c-1,0.6-1.9,0.9-3.1,0.9
			C112.1,23.5,110.7,22.7,109.8,21.5z M116.9,10h-6.1c-0.2,0-0.5,0-0.5,0.3c0,0,2.4,8.1,2.6,8.8c0.1,0.4,0.6,0.5,1,0.5
			c0.4,0,0.8-0.1,0.9-0.5c0.3-0.8,2.6-8.6,2.6-8.8C117.4,10,117.1,10,116.9,10z"/>
		<path class="st0" d="M132.4,22.5l-2.4-3.9c-1-1.7-3.7-1-3.7,1v1.8c0,1.1-0.9,2-2,2l0,0c-1.1,0-2-0.9-2-2V8c0-1.1,0.9-2,2-2h1.4
			c0.7,0,1.3,0.4,1.7,0.9l2.4,3.9c1,1.7,3.7,1,3.7-1V8c0-1.1,0.9-2,2-2l0,0c1.1,0,2,0.9,2,2v13.5c0,1.1-0.9,2-2,2h-1.4
			C133.4,23.5,132.8,23.1,132.4,22.5z"/>
	</g>
</g>
</svg>
