<?xml version="1.0" encoding="UTF-8" standalone="no"?>
<svg
   xmlns:dc="http://purl.org/dc/elements/1.1/"
   xmlns:cc="http://creativecommons.org/ns#"
   xmlns:rdf="http://www.w3.org/1999/02/22-rdf-syntax-ns#"
   xmlns:svg="http://www.w3.org/2000/svg"
   xmlns="http://www.w3.org/2000/svg"
   xmlns:sodipodi="http://sodipodi.sourceforge.net/DTD/sodipodi-0.dtd"
   xmlns:inkscape="http://www.inkscape.org/namespaces/inkscape"
   width="79mm"
   height="37mm"
   viewBox="0 0 79 37"
   version="1.1"
   id="svg8"
   inkscape:version="1.0.2 (e86c870879, 2021-01-15, custom)"
   sodipodi:docname="ISO ЗНАЧОК.svg">
  <defs
     id="defs2">
    <rect
       x="-21.824064"
       y="-29.680727"
       width="160.84335"
       height="20.732861"
       id="rect877" />
    <rect
       x="-18.768696"
       y="-24.22471"
       width="120.68708"
       height="16.368048"
       id="rect871" />
    <rect
       x="32.600136"
       y="65.926735"
       width="36.686504"
       height="19.796183"
       id="rect1405" />
    <rect
       x="45.676514"
       y="54.030865"
       width="27.787304"
       height="10.624557"
       id="rect1399" />
    <rect
       x="42.044186"
       y="52.94117"
       width="36.777313"
       height="11.260214"
       id="rect1393" />
    <rect
       x="13.869593"
       y="89.638664"
       width="117.37785"
       height="21.318077"
       id="rect1138" />
    <rect
       x="25.258244"
       y="-21.708435"
       width="59.254475"
       height="13.926167"
       id="rect843" />
    <rect
       x="3.627317"
       y="4.8364224"
       width="83.126015"
       height="15.113821"
       id="rect844" />
    <rect
       x="-11.374326"
       y="-19.905071"
       width="70.831032"
       height="18.741789"
       id="rect19" />
    <rect
       x="1.5904548"
       y="6.6799102"
       width="75.228516"
       height="25.606323"
       id="rect17" />
    <rect
       x="27.037731"
       y="-42.624187"
       width="99.880562"
       height="34.671913"
       id="rect850" />
    <rect
       x="3.5987885"
       y="7.4225011"
       width="94.243271"
       height="34.413414"
       id="rect835" />
    <rect
       x="-21.824064"
       y="-29.680727"
       width="160.84335"
       height="20.732861"
       id="rect877-8" />
    <rect
       x="-21.824064"
       y="-29.680727"
       width="160.84335"
       height="20.732861"
       id="rect928" />
  </defs>
  <sodipodi:namedview
     id="base"
     pagecolor="#ffffff"
     bordercolor="#666666"
     borderopacity="1.0"
     inkscape:pageopacity="0.0"
     inkscape:pageshadow="2"
     inkscape:zoom="0.85725861"
     inkscape:cx="411.42557"
     inkscape:cy="-50.489841"
     inkscape:document-units="mm"
     inkscape:current-layer="layer9"
     inkscape:document-rotation="0"
     showgrid="false"
     inkscape:window-width="1733"
     inkscape:window-height="894"
     inkscape:window-x="151"
     inkscape:window-y="29"
     inkscape:window-maximized="0"
     inkscape:snap-text-baseline="true"
     inkscape:snap-intersection-paths="true"
     inkscape:snap-smooth-nodes="false"
     inkscape:snap-midpoints="true"
     inkscape:snap-nodes="true"
     inkscape:snap-global="false" />
  <metadata
     id="metadata5">
    <rdf:RDF>
      <cc:Work
         rdf:about="">
        <dc:format>image/svg+xml</dc:format>
        <dc:type
           rdf:resource="http://purl.org/dc/dcmitype/StillImage" />
        <dc:title></dc:title>
      </cc:Work>
    </rdf:RDF>
  </metadata>
  <g
     inkscape:groupmode="layer"
     id="layer9"
     inkscape:label="В"
     style="display:inline;opacity:1">
    <rect
       style="opacity:1;fill:#863a96;fill-opacity:1;stroke:none;stroke-width:0.300002;stroke-linecap:square;stroke-dashoffset:10.8095;stroke-opacity:1"
       id="rect1319"
       width="72.350685"
       height="33.154957"
       x="3.0245826"
       y="2.3183377"
       ry="7.2526469" />
    <text
       xml:space="preserve"
       id="text1397"
       style="font-style:normal;font-weight:normal;font-size:10.5833px;line-height:1.25;font-family:sans-serif;white-space:pre;shape-inside:url(#rect1399);fill:#000000;fill-opacity:1;stroke:none;"><tspan
         style="visibility:hidden"
         x="45.675781"
         y="74.01999"><tspan
           dx="0 8.2010241 8.2010241 8.201025 7.9581451">GGGHH</tspan></tspan></text>
    <g
       aria-label="14496-14 :2003"
       transform="matrix(0.82201398,0,0,0.78620287,27.443577,43.810648)"
       id="text875-1"
       style="font-style:normal;font-variant:normal;font-weight:normal;font-stretch:normal;font-size:10.5833px;line-height:1.25;font-family:'01 Digit';-inkscape-font-specification:'01 Digit, Normal';font-variant-ligatures:normal;font-variant-caps:normal;font-variant-numeric:normal;font-variant-east-asian:normal;white-space:pre;shape-inside:url(#rect877-8);display:inline;opacity:0.599532;fill:#ffffff;fill-opacity:1;stroke:none;stroke-width:1.24392">
      <path
         d="m -21.781886,-26.750067 h 0.719665 0.126999 v -0.825497 h -0.846664 z m 1.100664,0 h 0.0635 0.05292 0.740831 v -0.825497 h -0.07408 -0.783164 z m 0,1.068914 h 0.169332 0.550332 0.137583 v -0.03175 -0.634998 -0.201083 h -0.07408 -0.783164 z m 0,1.047746 h 0.0635 0.793748 v -0.0635 -0.793748 h -0.07408 -0.783164 z m 0,1.068914 h 0.0635 0.793748 v -0.0635 -0.07408 -0.582082 -0.137583 h -0.07408 -0.783164 z m 0,1.047746 h 0.0635 0.05292 0.592665 0.148166 v -0.07408 -0.179916 -0.603248 h -0.07408 -0.783164 z m 0,1.05833 h 0.0635 0.793748 v -0.0635 -0.05292 -0.603248 -0.137583 h -0.07408 -0.783164 z m -1.100664,1.02658 h 0.719665 0.126999 v -0.04233 -0.0635 -0.08467 -0.507999 -0.137582 h -0.846664 z m 1.100664,0 h 0.0635 0.05292 0.592665 0.148166 v -0.571498 -0.05292 -0.211666 h -0.07408 -0.783164 z m 1.111246,0 h 0.719664 0.116417 v -0.571498 -0.05292 -0.211666 h -0.836081 z"
         style="fill:#ffffff;stroke-width:1.24392"
         id="path980" />
      <path
         d="m -14.45825,-26.718317 h 0.07408 0.04233 0.603248 0.137582 v -0.846664 h -0.07408 -0.783164 z m -1.12183,1.05833 h 0.179917 0.560914 0.116417 v -0.04233 -0.836081 h -0.05292 -0.804331 z m 1.12183,0 h 0.740831 0.116416 v -0.04233 -0.836081 h -0.07408 -0.783164 z m -2.233076,1.047747 h 0.857247 v -0.0635 -0.793747 h -0.0635 -0.793747 z m 2.233076,0 h 0.07408 0.04233 0.603248 0.137582 v -0.0635 -0.793747 h -0.07408 -0.783164 z m -3.312573,1.068913 h 0.05292 0.772581 v -0.07408 -0.783164 h -0.825498 z m 3.312573,0 h 0.07408 0.04233 0.603248 0.137582 v -0.07408 -0.783164 h -0.07408 -0.783164 z m -3.312573,1.037164 h 0.825498 v -0.0635 -0.793748 h -0.825498 z m 1.079497,0 h 0.857247 v -0.857248 h -0.0635 -0.793747 z m 1.111246,0 h 0.719665 0.137583 v -0.0635 -0.793748 h -0.05292 -0.201082 -0.603249 z m 1.12183,0 h 0.07408 0.04233 0.603248 0.137582 v -0.0635 -0.793748 h -0.07408 -0.783164 z m 1.111247,0 h 0.07408 0.04233 0.08467 0.05292 0.08467 0.04233 0.338666 0.137583 v -0.0635 -0.793748 h -0.0635 -0.190499 -0.08467 -0.05292 -0.0635 -0.0635 -0.338665 z m -1.111247,1.079496 h 0.07408 0.783164 v -0.08467 -0.05292 -0.719664 h -0.07408 -0.783164 z m 0,1.015997 h 0.07408 0.04233 0.603248 0.137582 v -0.634998 -0.201083 h -0.07408 -0.783164 z"
         style="fill:#ffffff;stroke-width:1.24392"
         id="path982" />
      <path
         d="m -8.4892773,-26.718317 h 0.074083 0.042333 0.603248 0.1375829 v -0.846664 h -0.074083 -0.7831641 z m -1.1218298,1.05833 h 0.1799161 0.5609149 0.1164163 v -0.04233 -0.836081 h -0.052916 -0.8043308 z m 1.1218298,0 h 0.7408309 0.1164163 v -0.04233 -0.836081 h -0.074083 -0.7831641 z m -2.2330767,1.047747 h 0.8572477 v -0.0635 -0.793747 h -0.0635 -0.7937477 z m 2.2330767,0 h 0.074083 0.042333 0.603248 0.1375829 v -0.0635 -0.793747 h -0.074083 -0.7831641 z m -3.3125727,1.068913 h 0.05292 0.772581 v -0.07408 -0.783164 h -0.825497 z m 3.3125727,0 h 0.074083 0.042333 0.603248 0.1375829 v -0.07408 -0.783164 h -0.074083 -0.7831641 z m -3.3125727,1.037164 h 0.825497 v -0.0635 -0.793748 h -0.825497 z m 1.079496,0 h 0.8572477 v -0.857248 h -0.0635 -0.7937477 z m 1.1112469,0 h 0.7196644 0.1375829 v -0.0635 -0.793748 h -0.052916 -0.2010827 -0.6032481 z m 1.1218298,0 h 0.074083 0.042333 0.603248 0.1375829 v -0.0635 -0.793748 h -0.074083 -0.7831641 z m 1.1112464,0 h 0.074083 0.042333 0.084666 0.052917 0.084666 0.042333 0.3386656 0.1375829 v -0.0635 -0.793748 h -0.0635 -0.1904994 -0.084666 -0.052916 -0.0635 -0.0635 -0.3386656 z m -1.1112464,1.079496 h 0.074083 0.7831641 v -0.08467 -0.05292 -0.719664 h -0.074083 -0.7831641 z m 0,1.015997 h 0.074083 0.042333 0.603248 0.1375829 v -0.634998 -0.201083 h -0.074083 -0.7831641 z"
         style="fill:#ffffff;stroke-width:1.24392"
         id="path984" />
      <path
         d="m -4.7533813,-26.718317 h 0.074083 0.052916 0.09525 0.042333 0.074083 0.042333 0.3492489 0.1269996 v -0.232832 -0.07408 -0.296333 -0.04233 -0.201083 h -0.052917 -0.1904994 -0.09525 -0.052917 -0.052916 -0.0635 -0.3492488 z m 1.1218297,0 h 0.074083 0.042333 0.084666 0.052917 0.074083 0.052917 0.3386656 0.1375829 v -0.232832 -0.07408 -0.296333 -0.04233 -0.201083 h -0.0635 -0.2010827 -0.074083 -0.052917 -0.0635 -0.052916 -0.3492489 z m 1.1112465,0 h 0.074083 0.052917 0.084666 0.052917 0.0635 0.052917 0.3386656 0.1375828 v -0.232832 -0.07408 -0.296333 -0.04233 -0.201083 h -0.0635 -0.1904994 -0.084666 -0.052917 -0.0635 -0.0635 -0.3386656 z m -3.3125728,1.047747 h 0.0635 0.052917 0.084666 0.052917 0.052916 0.0635 0.3492489 0.1164163 v -0.04233 -0.07408 -0.0635 -0.0635 -0.07408 -0.285749 -0.05292 -0.211666 h -0.2328326 -0.052917 -0.2963324 -0.052917 -0.2010827 z m 4.4344025,0 h 0.0635 0.1904994 0.084666 0.0634998 0.0529165 0.0529165 0.34924889 v -0.169333 -0.05292 -0.07408 -0.0635 -0.0635 -0.296332 -0.148167 H -0.60472811 -0.8058108 -0.8904772 -0.9433937 -0.9963102 -1.05981 -1.3984756 Z m -4.4344025,1.05833 h 0.0635 0.052917 0.084666 0.052917 0.052916 0.0635 0.3492489 0.1164163 v -0.0635 -0.201083 -0.07408 -0.05292 -0.07408 -0.05292 -0.338665 h -0.2328326 -0.052917 -0.2963324 -0.052917 -0.2010827 z m 4.4344025,0 h 0.0635 0.052917 0.084666 0.052917 0.074083 0.052917 0.33866561 0.1375829 v -0.0635 -0.201083 -0.07408 -0.05292 -0.07408 -0.05292 -0.338665 h -0.0634998 -0.20108269 -0.0846664 -0.0529165 -0.0529165 -0.0634998 -0.3386656 z m -3.3549059,1.05833 h 0.074083 0.1904993 0.084666 0.0635 0.052916 0.052917 0.3386656 v -0.0635 -0.05292 -0.08467 -0.04233 -0.09525 -0.04233 -0.338666 -0.137582 h -0.052917 -0.1904994 -0.09525 -0.052917 -0.052916 -0.0635 -0.3492488 z m 1.1218297,0 h 0.074083 0.042333 0.084666 0.052917 0.074083 0.052917 0.3386656 0.1375829 v -0.0635 -0.179916 -0.09525 -0.0635 -0.0635 -0.05292 -0.338665 h -0.0635 -0.2010827 -0.074083 -0.052917 -0.0635 -0.052916 -0.3492489 z m 1.1112465,0 h 0.074083 0.052917 0.084666 0.052917 0.0635 0.052917 0.3386656 0.1375828 v -0.0635 -0.179916 -0.09525 -0.0635 -0.0635 -0.05292 -0.338665 h -0.0635 -0.1904994 -0.084666 -0.052917 -0.0635 -0.0635 -0.3386656 z m 1.1218297,0 h 0.0635 0.052917 0.084666 0.052917 0.074083 0.052917 0.33866561 0.1375829 v -0.0635 -0.179916 -0.09525 -0.0635 -0.0635 -0.05292 -0.338665 h -0.0634998 -0.20108269 -0.0846664 -0.0529165 -0.0529165 -0.0634998 -0.3386656 z m 0,1.047747 h 0.0635 0.052917 0.084666 0.052917 0.074083 0.052917 0.33866561 0.1375829 v -0.07408 -0.179916 -0.08467 -0.05292 -0.0635 -0.07408 -0.328083 h -0.0634998 -0.20108269 -0.0846664 -0.0529165 -0.0529165 -0.0634998 -0.3386656 z m 0,1.058329 h 0.0635 0.052917 0.084666 0.052917 0.074083 0.052917 0.33866561 0.1375829 v -0.0635 -0.1905 -0.09525 -0.04233 -0.0635 -0.05292 -0.349249 h -0.0634998 -0.20108269 -0.0846664 -0.0529165 -0.0529165 -0.0634998 -0.3386656 z m -3.3549059,1.037164 h 0.074083 0.052916 0.09525 0.042333 0.074083 0.042333 0.3492489 0.1269996 v -0.232833 -0.0635 -0.296332 -0.04233 -0.201083 h -0.052917 -0.1904994 -0.09525 -0.052917 -0.052916 -0.0635 -0.3492488 z m 1.1218297,0 h 0.074083 0.042333 0.084666 0.052917 0.074083 0.052917 0.3386656 0.1375829 v -0.232833 -0.0635 -0.296332 -0.04233 -0.201083 h -0.0635 -0.2010827 -0.074083 -0.052917 -0.0635 -0.052916 -0.3492489 z m 1.1112465,0 h 0.074083 0.052917 0.084666 0.052917 0.0635 0.052917 0.3386656 0.1375828 v -0.232833 -0.0635 -0.296332 -0.04233 -0.201083 h -0.0635 -0.1904994 -0.084666 -0.052917 -0.0635 -0.0635 -0.3386656 z"
         style="fill:#ffffff;stroke-width:1.24392"
         id="path986" />
      <path
         d="m 2.3374206,-26.750067 h 0.074083 0.042333 0.09525 0.052917 0.074083 0.042333 0.3492489 0.1269996 v -0.211666 -0.07408 -0.285749 -0.05292 -0.201083 h -0.0635 -0.1904994 -0.084666 -0.052917 -0.0635 -0.052917 -0.3492489 z m 1.1218298,0 h 0.074083 0.042333 0.084666 0.052917 0.074083 0.052917 0.3280823 0.1481662 v -0.211666 -0.07408 -0.285749 -0.05292 -0.201083 h -0.074083 -0.1904994 -0.084666 -0.042333 -0.0635 -0.0635 -0.3386656 z m -2.2330762,1.068914 H 1.395507 1.46959 1.543673 1.586006 1.660089 1.9670047 2.083421 v -0.03175 -0.08467 -0.0635 -0.07408 -0.0635 -0.285749 -0.0635 -0.201083 H 2.019921 1.8294216 1.7447556 1.6918386 1.6389216 1.5648386 1.2261731 Z m -1.0900799,1.047746 h 0.0634998 0.0529165 0.0952497 0.0423332 0.0634998 0.0634998 0.34924889 0.105833 v -0.0635 -0.1905 -0.09525 -0.05292 -0.05292 -0.05292 -0.349249 H 0.73934238 0.68642588 0.39009349 0.34776029 0.1360943 Z m 0,1.068914 h 0.0634998 0.0529165 0.0952497 0.0423332 0.0634998 0.0634998 0.34924889 0.105833 v -0.0635 -0.1905 -0.08467 -0.0635 -0.0635 -0.05292 -0.338666 H 0.73934238 0.68642588 0.39009349 0.34776029 0.1360943 Z m 1.0900799,0 h 0.074083 0.1799161 0.084666 0.074083 0.052917 0.052917 0.3386656 v -0.0635 -0.07408 -0.07408 -0.04233 -0.07408 -0.05292 -0.338666 -0.137583 H 2.0199219 1.8294225 1.7447565 1.6918395 1.6389225 1.5648395 1.226174 Z m 1.1112464,0 h 0.074083 0.042333 0.09525 0.052917 0.074083 0.042333 0.3492489 0.1269996 v -0.0635 -0.1905 -0.08467 -0.0635 -0.0635 -0.05292 -0.338666 h -0.0635 -0.1904994 -0.084666 -0.052917 -0.0635 -0.052917 -0.3492489 z m 1.1218298,0 h 0.074083 0.042333 0.084666 0.052917 0.074083 0.052917 0.3280823 0.1481662 v -0.0635 -0.1905 -0.08467 -0.0635 -0.0635 -0.05292 -0.338666 h -0.074083 -0.1904994 -0.084666 -0.042333 -0.0635 -0.0635 -0.3386656 z m -3.3231561,1.047746 h 0.22224929 0.0740831 0.27516579 0.15874949 0.105833 v -0.07408 -0.05292 -0.07408 -0.05292 -0.07408 -0.05292 -0.338665 -0.137583 H 0.73934238 0.68642588 0.39009349 0.34776029 0.1360943 Z m 4.4344025,0 h 0.074083 0.052917 0.084666 0.042333 0.074083 0.042333 0.3492489 0.1375829 v -0.07408 -0.179916 -0.08467 -0.0635 -0.0635 -0.05292 -0.338666 h -0.0635 -0.1904994 -0.084666 -0.0635 -0.052916 -0.0635 -0.3386656 z m -4.4344025,1.05833 h 0.0634998 0.0529165 0.0952497 0.0423332 0.0634998 0.0634998 0.34924889 0.105833 v -0.0635 -0.190499 -0.08467 -0.05292 -0.0635 -0.07408 -0.328082 H 0.73934238 0.68642588 0.39009349 0.34776029 0.1360943 Z m 4.4344025,0 h 0.074083 0.052917 0.084666 0.042333 0.074083 0.042333 0.3492489 0.1375829 v -0.0635 -0.190499 -0.08467 -0.05292 -0.0635 -0.07408 -0.328082 h -0.0635 -0.1904994 -0.084666 -0.0635 -0.052916 -0.0635 -0.3386656 z m -3.3443226,1.02658 h 0.074083 0.052917 0.084666 0.042333 0.074083 0.042333 0.3492489 0.1375829 v -0.222249 -0.0635 -0.285749 -0.05292 -0.211666 H 2.019921 1.8294216 1.7447556 1.6918386 1.6389216 1.5648386 1.2261731 Z m 1.1112464,0 h 0.074083 0.042333 0.09525 0.052917 0.074083 0.042333 0.3492489 0.1269996 v -0.222249 -0.0635 -0.285749 -0.05292 -0.211666 h -0.0635 -0.1904994 -0.084666 -0.052917 -0.0635 -0.052917 -0.3492489 z m 1.1218298,0 h 0.074083 0.042333 0.084666 0.052917 0.074083 0.052917 0.3280823 0.1481662 v -0.222249 -0.0635 -0.285749 -0.05292 -0.211666 h -0.074083 -0.1904994 -0.084666 -0.042333 -0.0635 -0.0635 -0.3386656 z"
         style="fill:#ffffff;stroke-width:1.24392"
         id="path988" />
      <path
         d="m 6.4966476,-23.035328 v -0.116417 -0.476248 -0.08467 H 6.4543144 5.9568994 5.8087332 v 0.04233 0.634998 z m 0.846664,0 v -0.04233 -0.634998 h -0.0635 -0.6244147 v 0.04233 0.634998 z m 0.8678306,0 v -0.04233 -0.634998 h -0.0635 -0.042333 -0.4762485 -0.105833 v 0.04233 0.634998 z m 0.8466639,0 v -0.04233 -0.04233 -0.497415 -0.09525 h -0.0635 -0.1481662 -0.4762485 v 0.04233 0.634998 z m 0.8572473,0 v -0.04233 -0.634998 h -0.0635 -0.03175 -0.4762485 -0.1269996 v 0.04233 0.634998 z"
         style="fill:#ffffff;stroke-width:1.24392"
         id="path990" />
      <path
         d="m 10.486551,-26.750067 h 0.719664 0.127 v -0.825497 h -0.846664 z m 1.100663,0 h 0.0635 0.05292 0.740831 v -0.825497 h -0.07408 -0.783164 z m 0,1.068914 h 0.169333 0.550331 0.137583 v -0.03175 -0.634998 -0.201083 h -0.07408 -0.783164 z m 0,1.047746 h 0.0635 0.793747 v -0.0635 -0.793748 h -0.07408 -0.783164 z m 0,1.068914 h 0.0635 0.793747 v -0.0635 -0.07408 -0.582082 -0.137583 h -0.07408 -0.783164 z m 0,1.047746 h 0.0635 0.05292 0.592665 0.148166 v -0.07408 -0.179916 -0.603248 h -0.07408 -0.783164 z m 0,1.05833 h 0.0635 0.793747 v -0.0635 -0.05292 -0.603248 -0.137583 h -0.07408 -0.783164 z m -1.100663,1.02658 h 0.719664 0.127 v -0.04233 -0.0635 -0.08467 -0.507999 -0.137582 h -0.846664 z m 1.100663,0 h 0.0635 0.05292 0.592665 0.148166 v -0.571498 -0.05292 -0.211666 h -0.07408 -0.783164 z m 1.111247,0 h 0.719664 0.116416 v -0.571498 -0.05292 -0.211666 h -0.83608 z"
         style="fill:#ffffff;stroke-width:1.24392"
         id="path992" />
      <path
         d="m 17.810188,-26.718317 h 0.07408 0.04233 0.603248 0.137583 v -0.846664 h -0.07408 -0.783164 z m -1.12183,1.05833 h 0.179916 0.560915 0.116416 v -0.04233 -0.836081 h -0.05292 -0.804331 z m 1.12183,0 h 0.740831 0.116416 v -0.04233 -0.836081 h -0.07408 -0.783164 z m -2.233076,1.047747 h 0.857247 v -0.0635 -0.793747 h -0.0635 -0.793747 z m 2.233076,0 h 0.07408 0.04233 0.603248 0.137583 v -0.0635 -0.793747 h -0.07408 -0.783164 z m -3.312573,1.068913 h 0.05292 0.77258 v -0.07408 -0.783164 h -0.825497 z m 3.312573,0 h 0.07408 0.04233 0.603248 0.137583 v -0.07408 -0.783164 h -0.07408 -0.783164 z m -3.312573,1.037164 h 0.825497 v -0.0635 -0.793748 h -0.825497 z m 1.079497,0 h 0.857247 v -0.857248 h -0.0635 -0.793747 z m 1.111246,0 h 0.719664 0.137583 v -0.0635 -0.793748 h -0.05292 -0.201083 -0.603248 z m 1.12183,0 h 0.07408 0.04233 0.603248 0.137583 v -0.0635 -0.793748 h -0.07408 -0.783164 z m 1.111246,0 h 0.07408 0.04233 0.08467 0.05292 0.08467 0.04233 0.338666 0.137583 v -0.0635 -0.793748 h -0.0635 -0.1905 -0.08467 -0.05292 -0.0635 -0.0635 -0.338666 z m -1.111246,1.079496 h 0.07408 0.783164 v -0.08467 -0.05292 -0.719664 h -0.07408 -0.783164 z m 0,1.015997 h 0.07408 0.04233 0.603248 0.137583 v -0.634998 -0.201083 h -0.07408 -0.783164 z"
         style="fill:#ffffff;stroke-width:1.24392"
         id="path994" />
      <path
         d="m 21.979999,-25.522404 h 0.211666 0.07408 0.285749 0.148166 0.116416 v -0.08467 -0.1905 -0.08467 -0.05292 -0.05292 -0.05292 -0.338665 h -0.232832 -0.0635 -0.275166 -0.0635 -0.201082 z m 1.090079,0 h 0.07408 0.05292 0.08467 0.04233 0.07408 0.05292 0.338666 0.126999 v -0.08467 -0.1905 -0.08467 -0.05292 -0.05292 -0.05292 -0.338665 h -0.222249 -0.07408 -0.296332 -0.04233 -0.211666 z m -1.090079,1.047747 h 0.0635 0.04233 0.09525 0.0635 0.05292 0.05292 0.349249 0.116416 v -0.08467 -0.190499 -0.07408 -0.05292 -0.0635 -0.0635 -0.328082 h -0.232832 -0.0635 -0.275166 -0.0635 -0.201082 z m 1.090079,0 h 0.22225 0.07408 0.296332 0.127 0.126999 v -0.08467 -0.190499 -0.07408 -0.05292 -0.0635 -0.0635 -0.328082 h -0.222249 -0.07408 -0.296332 -0.04233 -0.211666 z m -1.090079,2.137826 h 0.211666 0.07408 0.285749 0.148166 0.116416 v -0.08467 -0.179916 -0.07408 -0.0635 -0.0635 -0.05292 -0.338666 h -0.232832 -0.0635 -0.275166 -0.0635 -0.201082 z m 1.090079,0 h 0.22225 0.07408 0.296332 0.127 0.126999 v -0.08467 -0.04233 -0.08467 -0.05292 -0.0635 -0.05292 -0.338666 -0.137583 h -0.222249 -0.07408 -0.296332 -0.04233 -0.211666 z m -1.090079,1.015997 h 0.211666 0.07408 0.285749 0.148166 0.116416 v -0.04233 -0.05292 -0.09525 -0.05292 -0.05292 -0.05292 -0.349249 -0.137583 h -0.232832 -0.0635 -0.275166 -0.0635 -0.201082 z m 1.090079,0 h 0.22225 0.07408 0.296332 0.127 0.126999 v -0.04233 -0.05292 -0.09525 -0.05292 -0.05292 -0.05292 -0.349249 -0.137583 h -0.222249 -0.07408 -0.296332 -0.04233 -0.211666 z"
         style="fill:#ffffff;stroke-width:1.24392"
         id="path996" />
      <path
         d="m 27.112895,-26.739483 h 0.07408 0.05292 0.08467 0.04233 0.07408 0.04233 0.349249 0.137583 v -0.22225 -0.07408 -0.285749 -0.05292 -0.201083 h -0.0635 -0.190499 -0.08467 -0.05292 -0.05292 -0.07408 -0.338665 z m 1.111246,0 h 0.07408 0.04233 0.09525 0.05292 0.07408 0.04233 0.349249 0.127 v -0.22225 -0.07408 -0.285749 -0.05292 -0.201083 h -0.0635 -0.1905 -0.08467 -0.05292 -0.0635 -0.05292 -0.349249 z m 1.12183,0 h 0.07408 0.04233 0.08467 0.05292 0.07408 0.05292 0.328082 0.148166 v -0.22225 -0.07408 -0.285749 -0.05292 -0.201083 h -0.07408 -0.190499 -0.08467 -0.04233 -0.0635 -0.0635 -0.338666 z m -3.323156,1.05833 h 0.0635 0.05292 0.09525 0.04233 0.0635 0.0635 0.349249 0.105833 v -0.03175 -0.08467 -0.0635 -0.07408 -0.0635 -0.285749 -0.05292 -0.211666 h -0.232833 -0.05292 -0.296333 -0.04233 -0.211666 z m 4.434403,0 h 0.07408 0.179916 0.08467 0.0635 0.05292 0.0635 0.338666 v -0.169333 -0.05292 -0.07408 -0.05292 -0.07408 -0.296333 -0.148166 h -0.0635 -0.190499 -0.08467 -0.0635 -0.05292 -0.0635 -0.338665 z m 0,1.05833 h 0.07408 0.05292 0.08467 0.04233 0.07408 0.04233 0.349249 0.137583 v -0.0635 -0.201083 -0.07408 -0.0635 -0.0635 -0.05292 -0.338666 h -0.0635 -0.190499 -0.08467 -0.0635 -0.05292 -0.0635 -0.338665 z m -2.233077,1.05833 h 0.07408 0.04233 0.09525 0.05292 0.07408 0.04233 0.349249 0.127 v -0.0635 -0.179916 -0.09525 -0.0635 -0.0635 -0.05292 -0.338666 h -0.0635 -0.1905 -0.08467 -0.05292 -0.0635 -0.05292 -0.349249 z m 1.12183,0 h 0.07408 0.04233 0.08467 0.05292 0.07408 0.05292 0.328082 0.148166 v -0.0635 -0.179916 -0.09525 -0.0635 -0.0635 -0.05292 -0.338666 h -0.07408 -0.190499 -0.08467 -0.04233 -0.0635 -0.0635 -0.338666 z m -2.233076,1.047746 h 0.07408 0.05292 0.08467 0.04233 0.07408 0.04233 0.349249 0.137583 v -0.07408 -0.179916 -0.08467 -0.05292 -0.0635 -0.0635 -0.338666 h -0.0635 -0.190499 -0.08467 -0.05292 -0.05292 -0.07408 -0.338665 z m -1.09008,1.05833 h 0.0635 0.05292 0.09525 0.04233 0.0635 0.0635 0.349249 0.105833 v -0.05292 -0.201083 -0.08467 -0.05292 -0.0635 -0.05292 -0.349249 h -0.232833 -0.05292 -0.296333 -0.04233 -0.211666 z m 0,1.02658 h 0.222249 0.07408 0.275166 0.15875 0.105833 v -0.04233 -0.0635 -0.08467 -0.03175 -0.08467 -0.05292 -0.338666 -0.126999 h -0.232833 -0.05292 -0.296333 -0.04233 -0.211666 z m 1.09008,0 h 0.07408 0.05292 0.08467 0.04233 0.07408 0.04233 0.349249 0.137583 v -0.222249 -0.0635 -0.285749 -0.05292 -0.201083 h -0.0635 -0.190499 -0.08467 -0.05292 -0.05292 -0.07408 -0.338665 z m 1.111246,0 h 0.07408 0.04233 0.09525 0.05292 0.07408 0.04233 0.349249 0.127 v -0.222249 -0.0635 -0.285749 -0.05292 -0.201083 h -0.0635 -0.1905 -0.08467 -0.05292 -0.0635 -0.05292 -0.349249 z m 1.12183,0 h 0.07408 0.04233 0.08467 0.05292 0.07408 0.05292 0.328082 0.148166 v -0.222249 -0.0635 -0.285749 -0.05292 -0.201083 h -0.07408 -0.190499 -0.08467 -0.04233 -0.0635 -0.0635 -0.338666 z m 1.111247,0 h 0.07408 0.179916 0.08467 0.0635 0.05292 0.0635 0.338666 v -0.0635 -0.05292 -0.08467 -0.04233 -0.07408 -0.05292 -0.338666 -0.116416 h -0.0635 -0.190499 -0.08467 -0.0635 -0.05292 -0.0635 -0.338665 z"
         style="fill:#ffffff;stroke-width:1.24392"
         id="path998" />
      <path
         d="m 33.124199,-26.718317 h 0.709081 0.127 v -0.05292 -0.05292 -0.09525 -0.04233 -0.07408 -0.05292 -0.338666 -0.126999 h -0.836081 z m 1.111247,0 h 0.83608 v -0.05292 -0.05292 -0.09525 -0.04233 -0.07408 -0.05292 -0.338666 -0.126999 h -0.83608 z m 1.111246,0 h 0.836081 v -0.07408 -0.07408 -0.07408 -0.0635 -0.296332 -0.04233 -0.211666 h -0.836081 z m -3.344322,1.047747 h 0.846663 v -0.222249 -0.05292 -0.296332 -0.04233 -0.22225 H 32.00237 Z m 4.455569,0 h 0.846664 v -0.222249 -0.05292 -0.296332 -0.04233 -0.22225 h -0.846664 z m -4.455569,1.068913 h 0.232832 0.0635 0.285749 0.148166 0.116416 v -0.05292 -0.04233 -0.09525 -0.05292 -0.0635 -0.04233 -0.359832 -0.116416 H 32.203452 32.00237 Z m 3.344322,0 h 0.836081 v -0.05292 -0.04233 -0.09525 -0.05292 -0.0635 -0.04233 -0.359832 -0.116416 h -0.836081 z m 1.111247,0 h 0.0635 0.05292 0.592665 0.137583 v -0.222249 -0.07408 -0.285749 -0.05292 -0.190499 h -0.846664 z m -4.455569,1.047747 h 0.05292 0.05292 0.08467 0.05292 0.0635 0.0635 0.349249 0.126999 v -0.222249 -0.0635 -0.296333 -0.04233 -0.211666 h -0.222249 -0.07408 -0.285749 -0.0635 -0.201082 z m 2.233076,0 h 0.83608 v -0.05292 -0.05292 -0.592665 -0.137583 h -0.83608 z m 2.222493,0 h 0.0635 0.05292 0.592665 0.137583 v -0.222249 -0.0635 -0.296333 -0.04233 -0.211666 h -0.22225 -0.624414 z m -4.455569,1.068913 h 0.05292 0.05292 0.08467 0.05292 0.0635 0.0635 0.349249 0.126999 v -0.232832 -0.0635 -0.296333 -0.05292 -0.1905 h -0.222249 -0.07408 -0.285749 -0.0635 -0.201082 z m 1.121829,0 h 0.211666 0.07408 0.296333 0.126999 0.127 v -0.05292 -0.0635 -0.07408 -0.0635 -0.0635 -0.04233 -0.349249 -0.127 h -0.222249 -0.0635 -0.296333 -0.05292 -0.201083 z m 3.33374,0 h 0.0635 0.05292 0.08467 0.04233 0.0635 0.0635 0.338666 0.137583 v -0.232832 -0.0635 -0.296333 -0.05292 -0.1905 h -0.22225 -0.624414 z m -4.455569,1.037163 h 0.232832 0.0635 0.285749 0.148166 0.116416 v -0.05292 -0.05292 -0.07408 -0.05292 -0.07408 -0.05292 -0.349249 -0.126999 h -0.222249 -0.07408 -0.285749 -0.0635 -0.201082 z m 4.455569,0 h 0.0635 0.05292 0.08467 0.04233 0.0635 0.0635 0.338666 0.137583 v -0.211666 -0.08467 -0.285749 -0.05292 -0.201083 h -0.22225 -0.0635 -0.296333 -0.05292 -0.211666 z m -3.33374,1.05833 h 0.211666 0.07408 0.296333 0.126999 0.127 v -0.07408 -0.07408 -0.07408 -0.05292 -0.296333 -0.0635 -0.201082 h -0.222249 -0.0635 -0.296333 -0.05292 -0.201083 z m 1.111247,0 h 0.04233 0.0635 0.09525 0.03175 0.07408 0.05292 0.349249 0.126999 v -0.07408 -0.07408 -0.07408 -0.05292 -0.296333 -0.0635 -0.201082 h -0.211666 -0.08467 -0.285749 -0.04233 -0.211666 z m 1.111246,0 h 0.222249 0.0635 0.296333 0.05292 0.201083 v -0.07408 -0.04233 -0.08467 -0.05292 -0.0635 -0.04233 -0.349249 -0.126999 h -0.211666 -0.07408 -0.296333 -0.05292 -0.201083 z"
         style="fill:#ffffff;stroke-width:1.24392"
         id="path1000" />
      <path
         d="m 39.093174,-26.718317 h 0.709081 0.127 v -0.05292 -0.05292 -0.09525 -0.04233 -0.07408 -0.05292 -0.338666 -0.126999 h -0.836081 z m 1.111247,0 h 0.83608 v -0.05292 -0.05292 -0.09525 -0.04233 -0.07408 -0.05292 -0.338666 -0.126999 h -0.83608 z m 1.111246,0 h 0.836081 v -0.07408 -0.07408 -0.07408 -0.0635 -0.296332 -0.04233 -0.211666 h -0.836081 z m -3.344322,1.047747 h 0.846664 v -0.222249 -0.05292 -0.296332 -0.04233 -0.22225 h -0.846664 z m 4.455569,0 h 0.846664 v -0.222249 -0.05292 -0.296332 -0.04233 -0.22225 h -0.846664 z m -4.455569,1.068913 h 0.232832 0.0635 0.285749 0.148166 0.116417 v -0.05292 -0.04233 -0.09525 -0.05292 -0.0635 -0.04233 -0.359832 -0.116416 h -0.645582 -0.201082 z m 3.344322,0 h 0.836081 v -0.05292 -0.04233 -0.09525 -0.05292 -0.0635 -0.04233 -0.359832 -0.116416 h -0.836081 z m 1.111247,0 h 0.0635 0.05292 0.592665 0.137583 v -0.222249 -0.07408 -0.285749 -0.05292 -0.190499 h -0.846664 z m -4.455569,1.047747 h 0.05292 0.05292 0.08467 0.05292 0.0635 0.0635 0.349249 0.127 v -0.222249 -0.0635 -0.296333 -0.04233 -0.211666 h -0.22225 -0.07408 -0.285749 -0.0635 -0.201082 z m 2.233076,0 h 0.83608 v -0.05292 -0.05292 -0.592665 -0.137583 h -0.83608 z m 2.222493,0 h 0.0635 0.05292 0.592665 0.137583 v -0.222249 -0.0635 -0.296333 -0.04233 -0.211666 h -0.22225 -0.624414 z m -4.455569,1.068913 h 0.05292 0.05292 0.08467 0.05292 0.0635 0.0635 0.349249 0.127 v -0.232832 -0.0635 -0.296333 -0.05292 -0.1905 h -0.22225 -0.07408 -0.285749 -0.0635 -0.201082 z m 1.121829,0 h 0.211666 0.07408 0.296333 0.126999 0.127 v -0.05292 -0.0635 -0.07408 -0.0635 -0.0635 -0.04233 -0.349249 -0.127 h -0.222249 -0.0635 -0.296332 -0.05292 -0.201083 z m 3.33374,0 h 0.0635 0.05292 0.08467 0.04233 0.0635 0.0635 0.338666 0.137583 v -0.232832 -0.0635 -0.296333 -0.05292 -0.1905 h -0.22225 -0.624414 z m -4.455569,1.037163 h 0.232832 0.0635 0.285749 0.148166 0.116417 v -0.05292 -0.05292 -0.07408 -0.05292 -0.07408 -0.05292 -0.349249 -0.126999 h -0.22225 -0.07408 -0.285749 -0.0635 -0.201082 z m 4.455569,0 h 0.0635 0.05292 0.08467 0.04233 0.0635 0.0635 0.338666 0.137583 v -0.211666 -0.08467 -0.285749 -0.05292 -0.201083 h -0.22225 -0.0635 -0.296333 -0.05292 -0.211666 z m -3.33374,1.05833 h 0.211666 0.07408 0.296333 0.126999 0.127 v -0.07408 -0.07408 -0.07408 -0.05292 -0.296333 -0.0635 -0.201082 h -0.222249 -0.0635 -0.296332 -0.05292 -0.201083 z m 1.111247,0 h 0.04233 0.0635 0.09525 0.03175 0.07408 0.05292 0.349249 0.126999 v -0.07408 -0.07408 -0.07408 -0.05292 -0.296333 -0.0635 -0.201082 h -0.211666 -0.08467 -0.285749 -0.04233 -0.211666 z m 1.111246,0 h 0.22225 0.0635 0.296333 0.05292 0.201083 v -0.07408 -0.04233 -0.08467 -0.05292 -0.0635 -0.04233 -0.349249 -0.126999 h -0.211666 -0.07408 -0.296333 -0.05292 -0.201083 z"
         style="fill:#ffffff;stroke-width:1.24392"
         id="path1002" />
      <path
         d="m 43.929729,-26.750067 h 0.222249 0.359832 0.148166 0.116417 v -0.05292 -0.07408 -0.0635 -0.412749 -0.211666 h -0.22225 -0.370415 -0.04233 -0.211666 z m 1.111246,0 h 0.222249 0.08467 0.285749 0.137583 0.116416 v -0.04233 -0.05292 -0.08467 -0.497415 -0.137583 h -0.211666 -0.07408 -0.296332 -0.04233 -0.222249 z m 1.12183,0 h 0.222249 0.07408 0.285749 0.05292 0.211666 v -0.04233 -0.05292 -0.08467 -0.497415 -0.137583 h -0.222249 -0.07408 -0.306916 -0.03175 -0.211666 z m 1.100663,0 h 0.232833 0.07408 0.296332 0.05292 0.201082 v -0.05292 -0.07408 -0.0635 -0.412749 -0.211666 h -0.222249 -0.0635 -0.296332 -0.05292 -0.222249 z m 1.132413,0 h 0.211666 0.08467 0.285749 0.05292 0.201083 v -0.05292 -0.07408 -0.0635 -0.412749 -0.211666 h -0.222249 -0.0635 -0.296333 -0.05292 -0.201083 z m -1.132413,1.068914 h 0.232833 0.07408 0.296332 0.05292 0.201082 v -0.03175 -0.07408 -0.07408 -0.05292 -0.116416 -0.338666 -0.148166 h -0.222249 -0.0635 -0.296332 -0.05292 -0.222249 z m -1.100663,1.068913 h 0.05292 0.05292 0.08467 0.05292 0.0635 0.0635 0.338666 0.137583 v -0.222249 -0.07408 -0.28575 -0.05292 -0.211666 h -0.222249 -0.07408 -0.306916 -0.03175 -0.211666 z m 1.100663,1.047747 h 0.232833 0.07408 0.296332 0.05292 0.201082 v -0.05292 -0.05292 -0.08467 -0.04233 -0.08467 -0.04233 -0.349249 -0.126999 h -0.222249 -0.0635 -0.296332 -0.05292 -0.222249 z m 1.132413,1.05833 h 0.04233 0.0635 0.08467 0.04233 0.0635 0.0635 0.349249 0.127 v -0.211666 -0.08467 -0.285749 -0.04233 -0.211666 h -0.222249 -0.0635 -0.296333 -0.05292 -0.201083 z m -4.466152,1.047746 h 0.222249 0.07408 0.285749 0.148166 0.116417 v -0.05292 -0.05292 -0.08467 -0.05292 -0.0635 -0.05292 -0.349249 -0.116416 h -0.22225 -0.0635 -0.306916 -0.04233 -0.211666 z m 4.466152,0 h 0.04233 0.0635 0.08467 0.04233 0.0635 0.0635 0.349249 0.127 v -0.222249 -0.0635 -0.296332 -0.04233 -0.201083 h -0.222249 -0.0635 -0.296333 -0.05292 -0.201083 z m -3.354906,1.047747 h 0.222249 0.08467 0.285749 0.137583 0.116416 v -0.0635 -0.07408 -0.07408 -0.07408 -0.275166 -0.0635 -0.190499 h -0.211666 -0.07408 -0.296332 -0.04233 -0.222249 z m 1.12183,0 h 0.05292 0.05292 0.08467 0.05292 0.0635 0.0635 0.338666 0.137583 v -0.0635 -0.07408 -0.07408 -0.07408 -0.275166 -0.0635 -0.190499 h -0.222249 -0.07408 -0.306916 -0.03175 -0.211666 z m 1.100663,0 h 0.232833 0.07408 0.296332 0.05292 0.201082 v -0.05292 -0.05292 -0.08467 -0.05292 -0.0635 -0.05292 -0.359833 -0.09525 h -0.222249 -0.0635 -0.296332 -0.05292 -0.222249 z"
         style="fill:#ffffff;stroke-width:1.24392"
         id="path1004" />
    </g>
  </g>
  <g
     inkscape:groupmode="layer"
     id="layer10"
     inkscape:label="Layer 3"
     style="display:none" />
  <g
     inkscape:groupmode="layer"
     id="layer3"
     inkscape:label="Layer 2"
     style="display:inline;opacity:0.65">
    <text
       xml:space="preserve"
       id="text1391"
       style="font-style:normal;font-weight:normal;font-size:10.5833px;line-height:1.25;font-family:sans-serif;white-space:pre;shape-inside:url(#rect1393);fill:#800000;fill-opacity:1;stroke:none;"><tspan
         style="visibility:hidden"
         x="42.044922"
         y="73.564912"><tspan
           dx="0 8.2010241"
           style="fill:#800000">GG</tspan></tspan></text>
  </g>
  <g
     inkscape:groupmode="layer"
     id="layer11"
     inkscape:label="Layer 4"
     style="display:none" />
  <g
     inkscape:groupmode="layer"
     id="layer2"
     inkscape:label="Layer 5"
     style="display:inline;opacity:1;mix-blend-mode:normal">
    <g
       aria-label=" ISO/IEC "
       transform="matrix(1.1725628,0,0,1.12148,38.397847,40.036241)"
       id="text875"
       style="font-style:normal;font-variant:normal;font-weight:normal;font-stretch:normal;font-size:10.5833px;line-height:1.25;font-family:'01 Digit';-inkscape-font-specification:'01 Digit, Normal';font-variant-ligatures:normal;font-variant-caps:normal;font-variant-numeric:normal;font-variant-east-asian:normal;white-space:pre;shape-inside:url(#rect877);display:inline;fill:#ffffff;fill-opacity:1;stroke:#ffffff;stroke-width:0.174408;stroke-miterlimit:2.3;stroke-dasharray:none;stroke-opacity:1">
      <path
         d="m -18.55398,-26.750067 h 0.211666 0.07408 0.285749 0.148166 0.105833 v -0.211666 -0.07408 -0.285749 -0.05292 -0.201083 h -0.232833 -0.05292 -0.285749 -0.05292 -0.201082 z m 1.090079,0 h 0.0635 0.05292 0.08467 0.04233 0.08467 0.03175 0.359832 0.137583 v -0.211666 -0.07408 -0.285749 -0.05292 -0.201083 h -0.07408 -0.1905 -0.08467 -0.05292 -0.05292 -0.0635 -0.338666 z m 1.100664,0 h 0.0635 0.04233 0.09525 0.05292 0.0635 0.0635 0.338666 0.137583 v -0.211666 -0.07408 -0.285749 -0.05292 -0.201083 h -0.222249 -0.0635 -0.306916 -0.05292 -0.211666 z m -1.100664,1.068914 h 0.15875 0.08467 0.0635 0.04233 0.08467 0.296332 0.127 v -0.03175 -0.08467 -0.0635 -0.07408 -0.0635 -0.285749 -0.0635 -0.201083 h -0.07408 -0.1905 -0.08467 -0.05292 -0.05292 -0.0635 -0.338666 z m 0,1.047746 h 0.0635 0.179916 0.09525 0.0635 0.05292 0.05292 0.349249 v -0.0635 -0.1905 -0.09525 -0.05292 -0.05292 -0.05292 -0.349249 h -0.07408 -0.1905 -0.08467 -0.05292 -0.05292 -0.0635 -0.338666 z m 0,1.068914 h 0.0635 0.179916 0.09525 0.0635 0.05292 0.05292 0.349249 v -0.0635 -0.07408 -0.07408 -0.04233 -0.07408 -0.05292 -0.338666 -0.137583 h -0.07408 -0.1905 -0.08467 -0.05292 -0.05292 -0.0635 -0.338666 z m 0,1.047746 h 0.0635 0.05292 0.08467 0.04233 0.08467 0.03175 0.359832 0.137583 v -0.07408 -0.179916 -0.08467 -0.0635 -0.0635 -0.05292 -0.338666 h -0.07408 -0.1905 -0.08467 -0.05292 -0.05292 -0.0635 -0.338666 z m 0,1.05833 h 0.0635 0.179916 0.09525 0.0635 0.05292 0.05292 0.349249 v -0.0635 -0.05292 -0.08467 -0.05292 -0.07408 -0.04233 -0.349249 -0.137583 h -0.07408 -0.1905 -0.08467 -0.05292 -0.05292 -0.0635 -0.338666 z m -1.090079,1.02658 h 0.211666 0.07408 0.285749 0.148166 0.105833 v -0.04233 -0.0635 -0.08467 -0.04233 -0.08467 -0.04233 -0.338666 -0.137582 h -0.232833 -0.05292 -0.285749 -0.05292 -0.201082 z m 1.090079,0 h 0.0635 0.05292 0.08467 0.04233 0.08467 0.03175 0.359832 0.137583 v -0.222249 -0.0635 -0.285749 -0.05292 -0.211666 h -0.07408 -0.1905 -0.08467 -0.05292 -0.05292 -0.0635 -0.338666 z m 1.100664,0 h 0.243416 0.05292 0.296332 0.137583 0.127 v -0.222249 -0.0635 -0.285749 -0.05292 -0.211666 h -0.222249 -0.0635 -0.306916 -0.05292 -0.211666 z"
         style="opacity:0.498829;fill:#ffffff;stroke:#ffffff;stroke-width:0.174408;stroke-miterlimit:2.3;stroke-dasharray:none;stroke-opacity:1"
         id="path965" />
      <path
         d="m -13.71742,-26.718317 h 0.0635 0.0635 0.582081 0.148166 v -0.222249 -0.624415 h -0.07408 -0.783164 z m 1.100663,0 h 0.07408 0.666748 0.116416 v -0.222249 -0.624415 h -0.0635 -0.793748 z m 1.12183,0 h 0.719664 0.137583 v -0.222249 -0.624415 h -0.07408 -0.783164 z m -3.333739,1.05833 h 0.07408 0.05292 0.603248 0.127 v -0.04233 -0.07408 -0.539748 -0.22225 h -0.857247 z m 4.444985,0 h 0.07408 0.7831646 v -0.158749 -0.560915 -0.15875 h -0.0635 -0.7937476 z m -4.444985,1.05833 h 0.07408 0.05292 0.603248 0.127 v -0.0635 -0.793747 h -0.857247 z m 1.111246,1.05833 h 0.0635 0.793747 v -0.07408 -0.783164 h -0.07408 -0.783164 z m 1.100663,0 h 0.07408 0.666748 0.116416 v -0.07408 -0.783164 h -0.0635 -0.793748 z m 1.12183,0 h 0.719664 0.137583 v -0.07408 -0.783164 h -0.07408 -0.783164 z m 1.111246,1.037164 h 0.07408 0.05292 0.5926647 0.1375829 v -0.0635 -0.793748 h -0.0635 -0.7937476 z m -4.444985,1.079496 h 0.07408 0.05292 0.08467 0.05292 0.07408 0.04233 0.349249 0.127 v -0.08467 -0.772581 h -0.232833 -0.0635 -0.296332 -0.05292 -0.211666 z m 4.444985,0 h 0.07408 0.05292 0.09525 0.4974147 0.1375829 v -0.08467 -0.772581 h -0.0635 -0.7937476 z m -3.333739,1.02658 h 0.0635 0.0635 0.582081 0.148166 v -0.836081 h -0.07408 -0.783164 z m 1.100663,0 h 0.07408 0.666748 0.116416 v -0.836081 h -0.0635 -0.793748 z m 1.12183,0 h 0.719664 0.137583 v -0.836081 h -0.07408 -0.783164 z"
         style="opacity:0.498829;fill:#ffffff;stroke:#ffffff;stroke-width:0.174408;stroke-miterlimit:2.3;stroke-dasharray:none;stroke-opacity:1"
         id="path967" />
      <path
         d="m -7.7484478,-26.739483 h 0.0635 0.0635 0.074083 0.042333 0.074083 0.052917 0.3386656 0.1481662 v -0.22225 -0.07408 -0.285749 -0.05292 -0.201083 h -0.074083 -0.1799161 -0.09525 -0.042333 -0.074083 -0.0635 -0.3280823 z m 1.1006631,0 h 0.074083 0.052916 0.09525 0.042333 0.0635 0.052916 0.3598322 0.1164163 v -0.22225 -0.07408 -0.285749 -0.05292 -0.201083 h -0.0635 -0.1799161 -0.09525 -0.052916 -0.0635 -0.042333 -0.3598322 z m 1.1218298,0 h 0.0635 0.052916 0.084666 0.052916 0.074083 0.052917 0.3386656 0.1375829 v -0.22225 -0.07408 -0.285749 -0.05292 -0.201083 h -0.074083 -0.1904994 -0.074083 -0.042333 -0.084666 -0.042333 -0.3492489 z m -3.3337394,1.05833 h 0.074083 0.052917 0.084666 0.052917 0.074083 0.042333 0.3492489 0.1269996 v -0.03175 -0.08467 -0.0635 -0.07408 -0.0635 -0.285749 -0.05292 -0.211666 h -0.2328326 -0.0635 -0.2963324 -0.052917 -0.211666 z m 4.4449859,0 h 0.074083 0.1904994 0.074083 0.0635 0.0635 0.052917 0.3386655 v -0.169333 -0.05292 -0.07408 -0.05292 -0.07408 -0.296333 -0.148166 h -0.0635 -0.1904994 -0.084666 -0.052917 -0.0635 -0.0635 -0.3386656 z m -4.4449859,1.05833 h 0.074083 0.052917 0.084666 0.052917 0.074083 0.042333 0.3492489 0.1269996 v -0.0635 -0.201083 -0.07408 -0.0635 -0.0635 -0.05292 -0.338666 h -0.2328326 -0.0635 -0.2963324 -0.052917 -0.211666 z m 4.4449859,0 h 0.074083 0.052917 0.09525 0.042333 0.052917 0.0635 0.3386655 0.1375829 v -0.0635 -0.201083 -0.07408 -0.0635 -0.0635 -0.05292 -0.338666 h -0.0635 -0.1904994 -0.084666 -0.052917 -0.0635 -0.0635 -0.3386656 z m -4.4449859,1.05833 h 0.074083 0.052917 0.084666 0.052917 0.074083 0.042333 0.3492489 0.1269996 v -0.0635 -0.179916 -0.09525 -0.0635 -0.0635 -0.05292 -0.338666 h -0.2328326 -0.0635 -0.2963324 -0.052917 -0.211666 z m 4.4449859,0 h 0.074083 0.052917 0.09525 0.042333 0.052917 0.0635 0.3386655 0.1375829 v -0.0635 -0.179916 -0.09525 -0.0635 -0.0635 -0.05292 -0.338666 h -0.0635 -0.1904994 -0.084666 -0.052917 -0.0635 -0.0635 -0.3386656 z m -4.4449859,1.047746 h 0.2328326 0.0635 0.2857491 0.1481662 0.1269996 v -0.07408 -0.05292 -0.07408 -0.05292 -0.07408 -0.04233 -0.338666 -0.148166 h -0.2328326 -0.0635 -0.2963324 -0.052917 -0.211666 z m 4.4449859,0 h 0.074083 0.052917 0.09525 0.042333 0.052917 0.0635 0.3386655 0.1375829 v -0.07408 -0.179916 -0.08467 -0.05292 -0.0635 -0.0635 -0.338666 h -0.0635 -0.1904994 -0.084666 -0.052917 -0.0635 -0.0635 -0.3386656 z m -4.4449859,1.05833 h 0.074083 0.052917 0.084666 0.052917 0.074083 0.042333 0.3492489 0.1269996 v -0.05292 -0.201083 -0.08467 -0.05292 -0.0635 -0.05292 -0.349249 h -0.2328326 -0.0635 -0.2963324 -0.052917 -0.211666 z m 4.4449859,0 h 0.074083 0.052917 0.09525 0.042333 0.052917 0.0635 0.3386655 0.1375829 v -0.05292 -0.201083 -0.08467 -0.05292 -0.0635 -0.05292 -0.349249 h -0.0635 -0.1904994 -0.084666 -0.052917 -0.0635 -0.0635 -0.3386656 z m -3.3337394,1.02658 h 0.0635 0.0635 0.074083 0.042333 0.074083 0.052917 0.3386656 0.1481662 v -0.222249 -0.0635 -0.285749 -0.05292 -0.201083 h -0.074083 -0.1799161 -0.09525 -0.042333 -0.074083 -0.0635 -0.3280823 z m 1.1006631,0 h 0.074083 0.052916 0.09525 0.042333 0.0635 0.052916 0.3598322 0.1164163 v -0.222249 -0.0635 -0.285749 -0.05292 -0.201083 h -0.0635 -0.1799161 -0.09525 -0.052916 -0.0635 -0.042333 -0.3598322 z m 1.1218298,0 h 0.0635 0.052916 0.084666 0.052916 0.074083 0.052917 0.3386656 0.1375829 v -0.222249 -0.0635 -0.285749 -0.05292 -0.201083 h -0.074083 -0.1904994 -0.074083 -0.042333 -0.084666 -0.042333 -0.3492489 z"
         style="opacity:0.498829;fill:#ffffff;stroke:#ffffff;stroke-width:0.174408;stroke-miterlimit:2.3;stroke-dasharray:none;stroke-opacity:1"
         id="path969" />
      <path
         d="m 1.5225148,-26.750067 h 0.074083 0.052917 0.084666 0.042333 0.074083 0.042333 0.3492489 0.1375829 v -0.211666 -0.07408 -0.285749 -0.05292 -0.201083 H 2.305679 2.1257629 2.0410965 1.98818 1.9140969 1.8717637 1.5225148 Z m -0.73024764,1.068914 h 0.15874949 0.0634996 0.084666 0.042333 0.074083 0.3069157 0.1269996 v -0.03175 -0.08467 -0.0635 -0.07408 -0.0635 -0.285749 -0.0635 -0.201083 H 1.5754313 1.3849319 1.3002655 1.2579323 1.1838492 1.1309327 0.79226716 Z m -0.74083098,1.047746 h 0.0634998 0.0423332 0.0952497 0.0634998 0.0529165 0.0529165 0.34924889 0.13758289 v -0.0635 -0.1905 -0.09525 -0.05292 -0.05292 -0.05292 -0.349249 H 0.83460036 0.64410096 0.55943456 0.50651807 0.44301827 0.40068507 0.05143618 Z m -0.75141427,1.068914 h 0.0634998 0.0529165 0.0846664 0.0529165 0.0634998 0.0529165 0.34924888 0.1375829 v -0.0635 -0.1905 -0.08467 -0.0635 -0.0635 -0.05292 -0.338666 H 0.07260279 -0.1073133 -0.1919797 -0.2448962 -0.3189793 -0.3613125 -0.69997809 Z m -0.74083101,1.047746 h 0.074083 0.1799161 0.084666 0.052917 0.0740831 0.0529165 0.33866558 v -0.07408 -0.179916 -0.08467 -0.0635 -0.0635 -0.05292 -0.338666 h -0.0740831 -0.1799161 -0.0846664 -0.0529165 -0.0740831 -0.052917 -0.3386656 z m -0.7302476,1.05833 h 0.052916 0.1904993 0.09525 0.052917 0.052917 0.0635 0.3492489 v -0.0635 -0.05292 -0.08467 -0.05292 -0.07408 -0.04233 -0.349249 -0.137583 h -0.074083 -0.1904994 -0.084666 -0.0635 -0.052917 -0.052917 -0.3386655 z m -0.7514143,1.02658 h 0.2328326 0.0635 0.2963324 0.1269996 0.1269996 v -0.04233 -0.0635 -0.08467 -0.04233 -0.08467 -0.04233 -0.338666 -0.137582 h -0.2222493 -0.074083 -0.2857491 -0.052917 -0.211666 z"
         style="opacity:0.498829;fill:#ffffff;stroke:#ffffff;stroke-width:0.174408;stroke-miterlimit:2.3;stroke-dasharray:none;stroke-opacity:1"
         id="path971" />
      <path
         d="m 3.0782501,-26.750067 h 0.211666 0.074083 0.2857491 0.1481662 0.105833 v -0.211666 -0.07408 -0.285749 -0.05292 -0.201083 H 3.6709149 3.6179984 3.3322493 3.2793328 3.0782501 Z m 1.0900799,0 h 0.0635 0.052917 0.084666 0.042333 0.084666 0.03175 0.3598322 0.1375829 v -0.211666 -0.07408 -0.285749 -0.05292 -0.201083 H 4.9514942 4.7609948 4.6763284 4.6234119 4.5704954 4.5069956 4.16833 Z m 1.1006632,0 h 0.0635 0.042333 0.09525 0.052916 0.0635 0.0635 0.3386656 0.1375829 v -0.211666 -0.07408 -0.285749 -0.05292 -0.201083 H 5.9039911 5.8404913 5.5335757 5.4806592 5.2689932 Z M 4.16833,-25.681153 h 0.1587495 0.084666 0.0635 0.042333 0.084666 0.2963324 0.1269996 v -0.03175 -0.08467 -0.0635 -0.07408 -0.0635 -0.285749 -0.0635 -0.201083 H 4.9514942 4.7609948 4.6763284 4.6234119 4.5704954 4.5069956 4.16833 Z m 0,1.047746 h 0.0635 0.1799161 0.09525 0.0635 0.052916 0.052917 0.3492489 v -0.0635 -0.1905 -0.09525 -0.05292 -0.05292 -0.05292 -0.349249 H 4.9514942 4.7609948 4.6763284 4.6234119 4.5704954 4.5069956 4.16833 Z m 0,1.068914 h 0.0635 0.1799161 0.09525 0.0635 0.052916 0.052917 0.3492489 v -0.0635 -0.07408 -0.07408 -0.04233 -0.07408 -0.05292 -0.338666 -0.137583 H 4.9514942 4.7609948 4.6763284 4.6234119 4.5704954 4.5069956 4.16833 Z m 0,1.047746 h 0.0635 0.052917 0.084666 0.042333 0.084666 0.03175 0.3598322 0.1375829 v -0.07408 -0.179916 -0.08467 -0.0635 -0.0635 -0.05292 -0.338666 H 4.9514942 4.7609948 4.6763284 4.6234119 4.5704954 4.5069956 4.16833 Z m 0,1.05833 h 0.0635 0.1799161 0.09525 0.0635 0.052916 0.052917 0.3492489 v -0.0635 -0.05292 -0.08467 -0.05292 -0.07408 -0.04233 -0.349249 -0.137583 H 4.9514942 4.7609948 4.6763284 4.6234119 4.5704954 4.5069956 4.16833 Z m -1.0900799,1.02658 h 0.211666 0.074083 0.2857491 0.1481662 0.105833 v -0.04233 -0.0635 -0.08467 -0.04233 -0.08467 -0.04233 -0.338666 -0.137582 H 3.6709149 3.6179984 3.3322493 3.2793328 3.0782501 Z m 1.0900799,0 h 0.0635 0.052917 0.084666 0.042333 0.084666 0.03175 0.3598322 0.1375829 v -0.222249 -0.0635 -0.285749 -0.05292 -0.211666 H 4.9514942 4.7609948 4.6763284 4.6234119 4.5704954 4.5069956 4.16833 Z m 1.1006632,0 h 0.2434159 0.052917 0.2963323 0.1375829 0.1269996 v -0.222249 -0.0635 -0.285749 -0.05292 -0.211666 H 5.9039916 5.8404916 5.533576 5.480659 5.268993 Z"
         style="opacity:0.498829;fill:#ffffff;stroke:#ffffff;stroke-width:0.174408;stroke-miterlimit:2.3;stroke-dasharray:none;stroke-opacity:1"
         id="path973" />
      <path
         d="m 6.8035633,-26.718317 h 0.2222493 0.0635 0.2963324 0.1375829 0.1164163 v -0.222249 -0.0635 -0.306916 -0.04233 -0.211666 H 7.4173947 7.3644782 7.0575625 7.0152293 6.8035633 Z m 1.0900799,0 h 0.074083 0.052916 0.09525 0.042333 0.074083 0.042333 0.3386656 0.1375829 v -0.222249 -0.0635 -0.306916 -0.04233 -0.211666 h -0.0635 -0.1904994 -0.084666 -0.052917 -0.052917 -0.0635 -0.3492489 z m 1.1218297,0 h 0.074083 0.042333 0.084666 0.052917 0.0635 0.0635 0.3386656 0.1375829 v -0.222249 -0.0635 -0.306916 -0.04233 -0.211666 H 9.7986374 9.608138 9.534055 9.470555 9.417638 9.354138 9.0154724 Z m 1.1112461,0 h 0.0635 0.0635 0.07408 0.0635 0.0635 0.05292 0.338666 0.137583 v -0.222249 -0.0635 -0.306916 -0.04233 -0.211666 h -0.07408 -0.179917 -0.09525 -0.04233 -0.07408 -0.05292 -0.338666 z m 1.12183,0 h 0.0635 0.05292 0.08467 0.04233 0.07408 0.05292 0.349249 0.137582 v -0.222249 -0.0635 -0.306916 -0.04233 -0.211666 h -0.07408 -0.190499 -0.08467 -0.05292 -0.05292 -0.0635 -0.338666 z m -4.4449857,1.05833 h 0.074083 0.052917 0.5926648 0.1164163 v -0.04233 -0.07408 -0.07408 -0.05292 -0.07408 -0.296332 -0.04233 -0.22225 H 6.8035633 Z m 0,1.05833 h 0.074083 0.052917 0.5926648 0.1164163 v -0.0635 -0.190499 -0.08467 -0.0635 -0.07408 -0.04233 -0.338666 H 6.8035633 Z m 0,1.05833 h 0.074083 0.052917 0.5926648 0.1164163 v -0.07408 -0.783164 H 6.8035633 Z m 1.0900799,0 h 0.074083 0.7831642 v -0.07408 -0.04233 -0.08467 -0.518581 -0.137583 h -0.0635 -0.7937475 z m 1.1218297,0 h 0.074083 0.7831642 v -0.07408 -0.783164 H 9.7986371 9.0154729 Z m 1.1112461,0 h 0.0635 0.0635 0.730248 v -0.07408 -0.783164 h -0.857248 z m 1.12183,0 h 0.0635 0.793747 v -0.07408 -0.783164 h -0.07408 -0.783164 z m -4.4449857,1.037164 H 7.5232277 7.639644 v -0.0635 -0.05292 -0.08467 -0.05292 -0.0635 -0.05292 -0.349249 -0.137583 H 6.8035633 Z m 0,1.079496 h 0.074083 0.052917 0.5926648 0.1164163 v -0.08467 -0.179916 -0.09525 -0.04233 -0.07408 -0.04233 -0.338665 H 6.8035633 Z m 0,1.02658 H 7.5232277 7.639644 v -0.0635 -0.05292 -0.08467 -0.05292 -0.0635 -0.04233 -0.349249 -0.127 H 6.8035633 Z m 1.0900799,0 h 0.074083 0.052916 0.5926648 0.1375829 v -0.232832 -0.07408 -0.285749 -0.05292 -0.1905 h -0.0635 -0.7937475 z m 1.1218297,0 h 0.074083 0.7831642 v -0.232832 -0.07408 -0.285749 -0.05292 -0.1905 H 9.7986371 9.0154729 Z m 1.1112461,0 h 0.0635 0.0635 0.730248 v -0.232832 -0.07408 -0.285749 -0.05292 -0.1905 h -0.857248 z m 1.12183,0 h 0.0635 0.793747 v -0.07408 -0.0635 -0.08467 -0.03175 -0.08467 -0.05292 -0.338666 -0.105833 h -0.07408 -0.783164 z"
         style="opacity:0.498829;fill:#ffffff;stroke:#ffffff;stroke-width:0.174408;stroke-miterlimit:2.3;stroke-dasharray:none;stroke-opacity:1"
         id="path975" />
      <path
         d="m 13.862616,-26.739483 h 0.0635 0.05292 0.603248 0.137583 v -0.22225 -0.07408 -0.285749 -0.05292 -0.201083 h -0.07408 -0.783165 z m 1.100664,0 h 0.08467 0.03175 0.740831 v -0.22225 -0.07408 -0.285749 -0.05292 -0.201083 h -0.05292 -0.80433 z m 1.121829,0 h 0.07408 0.04233 0.592664 0.148167 v -0.22225 -0.07408 -0.285749 -0.05292 -0.201083 h -0.0635 -0.793748 z m 1.111247,0 h 0.07408 0.05292 0.08467 0.04233 0.08467 0.04233 0.338665 0.137583 v -0.22225 -0.07408 -0.285749 -0.05292 -0.201083 h -0.0635 -0.190499 -0.07408 -0.07408 -0.05292 -0.0635 -0.338665 z m -4.42382,1.05833 h 0.05292 0.05292 0.09525 0.05292 0.05292 0.0635 0.349249 0.105833 v -0.03175 -0.08467 -0.0635 -0.07408 -0.0635 -0.285749 -0.05292 -0.211666 h -0.232833 -0.05292 -0.285749 -0.05292 -0.201083 z m 0,1.05833 h 0.05292 0.05292 0.09525 0.05292 0.05292 0.0635 0.349249 0.105833 v -0.0635 -0.201083 -0.07408 -0.0635 -0.0635 -0.05292 -0.338666 h -0.232833 -0.05292 -0.285749 -0.05292 -0.201083 z m 0,1.05833 h 0.05292 0.05292 0.09525 0.05292 0.05292 0.0635 0.349249 0.105833 v -0.0635 -0.179916 -0.09525 -0.0635 -0.0635 -0.05292 -0.338666 h -0.232833 -0.05292 -0.285749 -0.05292 -0.201083 z m 0,1.047746 h 0.211666 0.07408 0.285749 0.148166 0.105833 v -0.07408 -0.05292 -0.07408 -0.05292 -0.07408 -0.04233 -0.338666 -0.148166 h -0.232833 -0.05292 -0.285749 -0.05292 -0.201083 z m 0,1.05833 h 0.05292 0.05292 0.09525 0.05292 0.05292 0.0635 0.349249 0.105833 v -0.05292 -0.201083 -0.08467 -0.05292 -0.0635 -0.05292 -0.349249 h -0.232833 -0.05292 -0.285749 -0.05292 -0.201083 z m 1.09008,1.02658 h 0.0635 0.05292 0.603248 0.137583 v -0.222249 -0.0635 -0.285749 -0.05292 -0.201083 h -0.07408 -0.783165 z m 1.100664,0 h 0.08467 0.03175 0.740831 v -0.222249 -0.0635 -0.285749 -0.05292 -0.201083 h -0.05292 -0.80433 z m 1.121829,0 h 0.07408 0.04233 0.592664 0.148167 v -0.222249 -0.0635 -0.285749 -0.05292 -0.201083 h -0.0635 -0.793748 z m 1.111247,0 h 0.07408 0.179916 0.08467 0.0635 0.05292 0.07408 0.328082 v -0.0635 -0.05292 -0.08467 -0.04233 -0.07408 -0.05292 -0.338666 -0.116416 h -0.0635 -0.190499 -0.07408 -0.07408 -0.05292 -0.0635 -0.338665 z"
         style="opacity:0.498829;fill:#ffffff;stroke:#ffffff;stroke-width:0.174408;stroke-miterlimit:2.3;stroke-dasharray:none;stroke-opacity:1"
         id="path977" />
    </g>
  </g>
</svg>
