<svg id="Слой_1" data-name="Слой 1" xmlns="http://www.w3.org/2000/svg" viewBox="0 0 377.49 54.94"><defs><style>.cls-1{fill:red;}</style></defs><title>Liebeslieder - текст</title><path class="cls-1" d="M6619.47,6918.45a5.26,5.26,0,0,1-.07-1,9.68,9.68,0,0,1,1.26-4.28,15.15,15.15,0,0,1,2.73-4,21.16,21.16,0,0,1,4.47-3.17q3-1.7,3-4t-2.8-5.12l-.72-.72-1-1-1-.87-.58-.65q-4.61-4.82-4.6-9.21,0-3.82,3.31-8a18.18,18.18,0,0,1,6.26-5,19.46,19.46,0,0,1,8.86-2,35.46,35.46,0,0,1,5.65.4,20.57,20.57,0,0,1,4.86,1.4,27.44,27.44,0,0,1,5.15,2.74,11.18,11.18,0,0,1,3,2.88,11.65,11.65,0,0,1,2.3,6.69v.87a15.76,15.76,0,0,1-.18,1.8,12.43,12.43,0,0,1-.58,2.44,18.17,18.17,0,0,1-1.47,3l-.29.36-2.3,3.53a17.36,17.36,0,0,0-2,4,3.13,3.13,0,0,0-.21,1.08,1.78,1.78,0,0,0,2,2,4,4,0,0,0,1.95-.57,16.81,16.81,0,0,0,2.59-2l1.87-2,.72-.87.72.29-1.44,1.94q-4.19,4.62-8.64,4.61a9.06,9.06,0,0,1-5.54-2q-3.83-2.82-3.82-6.84a14.12,14.12,0,0,1,2.16-6.77l.65-1.23,1.87-3a11.53,11.53,0,0,0,2.09-6,8.07,8.07,0,0,0-.79-3.31,8.54,8.54,0,0,0-2.92-3.38,7.9,7.9,0,0,0-4.57-1.3q-10.59,0-10.59,8a8.17,8.17,0,0,0,1.88,4.54l.14.22,2.23,2.52.72.93a30,30,0,0,1,2.2,3.39,7.9,7.9,0,0,1,.86,2.59,17.79,17.79,0,0,1,.18,2.45,7.48,7.48,0,0,1-1.26,4.35,23.77,23.77,0,0,1-5.07,4.72l-1.23.86a28.85,28.85,0,0,1,5.58,2.63q2.06,1.34,7.74,6a7.92,7.92,0,0,0,1.55.87q1,.42,3.06,1.08a7.32,7.32,0,0,0,2.45.36q4.38,0,7.13-5.4l.64-1.59.8.29a14,14,0,0,1-.94,3.24,29.48,29.48,0,0,1-2.27,4.75,19.29,19.29,0,0,1-2.91,3.24q-4.32,4.11-8.93,4.11-5.4,0-13.18-6.27l-1.58-1.44-3.53-3.17a4.38,4.38,0,0,0-2.81-1.15,3.24,3.24,0,0,0-2.59,1.08,8.26,8.26,0,0,0-1.44,3.82v1.22Z" transform="translate(-6619.4 -6869.42)"/><path class="cls-1" d="M6664,6891.81q2.16-1.52,3.06-2.19c.6-.46,1.84-1.5,3.71-3.14l2.45-2.08c.77.67,1.63,1.39,2.59,2.16a37.67,37.67,0,0,0,3.53,2.44l1.94,1.23.72.43a4.54,4.54,0,0,0-3.09,3.71q-.51,2.78-.51,14.94l.08,2.95.07.5c.24,2.12,1.32,3.17,3.24,3.17a6.28,6.28,0,0,0,1.15-.21,3.64,3.64,0,0,0,1.66-1l.28.57-1.51,1.23-2.3,1.8c-1.2,1-2.72,2.23-4.54,3.81-1.39,1.2-2.18,1.9-2.37,2.09l-1.52-.86a9.79,9.79,0,0,1-3.34-3.42,14.24,14.24,0,0,1-1.26-5.37l-.08-1.36-.07-1.8-.07-2.31v-14.4a4.57,4.57,0,0,0-.29-2.16,3.57,3.57,0,0,0-1.94-.57l-1.23-.15Zm9.22-9.57-1.37-.72a11.78,11.78,0,0,1-3.74-4.18,5.32,5.32,0,0,1-.58-2.45,3.9,3.9,0,0,1,.87-2.52,4.19,4.19,0,0,1,2.44-1.44l1.59-.21q6.12,0,6.12,4.24a10.09,10.09,0,0,1-.15,1.23,4.39,4.39,0,0,1-1,2,34,34,0,0,1-3.24,3.24Z" transform="translate(-6619.4 -6869.42)"/><path class="cls-1" d="M6707.23,6884l.94,1.52.65,1.22a85.84,85.84,0,0,1,4,7.7l1.08,2.31.65,1.29-1.52.65L6710,6900l-2,1-5,2.45-1.59.79-3.52,1.65q0,5.34,5.11,8.36a10.06,10.06,0,0,0,5.11,1.58,10.59,10.59,0,0,0,2.48-.29,13.86,13.86,0,0,0,2.92-1.15l1.08-.58.29.72a109.83,109.83,0,0,0-10.73,6.12l-3.39,2.16-1.94,1.23-2.09-.87c-.43-.19-1-.46-1.62-.82a12,12,0,0,1-1.62-1.05,13.87,13.87,0,0,1-6.84-11.95l-.29-4.1.08-4.47c0-4.13.69-7.05,2.08-8.78q1.88-2.31,7.78-4.11l5.26-1.8Zm-9.64,10.95-.08,3.74v1.44l.08,1.87.07,1.59.14,1.37a16.62,16.62,0,0,0,4.25-2.09l1.15-.72a12.68,12.68,0,0,0,1.08-.94l-1.29-2.88-.94-1.87-.5-.94-.51-1.22-.79-1.66-.58-1.29-.5-1.08a2.65,2.65,0,0,0-1.37.79Z" transform="translate(-6619.4 -6869.42)"/><path class="cls-1" d="M6716.16,6873.09l.29-.21h.29l1,1.08a33.12,33.12,0,0,1,2.66,3.52l.86-.72a28.25,28.25,0,0,1,7.38-5.11,23.22,23.22,0,0,1,8.61-1.29h2.81l.07.5-1.3.07a6.33,6.33,0,0,0-1,.07,6.91,6.91,0,0,0-1.51.51,6.34,6.34,0,0,0-3.53,2.55q-.93,1.62-.93,5.66v1.65l.21,11.16.65-.29.65-.28c.82-.39,1.39-.68,1.73-.87.09-.05.62-.38,1.58-1l3.46-2.66,1.15-.86,2.38-1.66,1.58.86c2.26,1.59,3.61,2.82,4.07,3.71s.68,3,.68,6.23v.72l-.21,13.39a9.43,9.43,0,0,1-.9,4.72,8.32,8.32,0,0,1-3.71,2.77l-.22.07-4.39,1.15a5.19,5.19,0,0,0-1.22.33l-1,.39a16.56,16.56,0,0,0-4.61,2.6,11.87,11.87,0,0,0-1.94,1.94l-1-.72-.79-.58-3.17-2.08-2.45-1.73-1.37-.94c-1.53-1-2.64-1.77-3.31-2.16a11,11,0,0,0-2.16-.93,5.68,5.68,0,0,0,3.24-4.25l-.07-5-.07-15-.08-2.09c0-4.6-.31-7.92-.93-9.93A11.52,11.52,0,0,0,6716.16,6873.09Zm15.91,24.63v3.81l-.14,4.61v.86l.14,4.83,1.3,1.22a18.2,18.2,0,0,0,5.18,2.88l.15-2.59.07-1.8v-11.16l-.14-3.38a14.63,14.63,0,0,0-.22-2.74,2.42,2.42,0,0,0-1-1.62,3.36,3.36,0,0,0-1.94-.54,3.55,3.55,0,0,0-2,.58,3.92,3.92,0,0,0-1.33,1.29l-.08,2.59Z" transform="translate(-6619.4 -6869.42)"/><path class="cls-1" d="M6777.07,6884l.94,1.52.65,1.22a85.84,85.84,0,0,1,4,7.7l1.08,2.31.65,1.29-1.52.65-2.95,1.37-2,1-5,2.45-1.59.79-3.53,1.65q0,5.34,5.12,8.36a10.06,10.06,0,0,0,5.11,1.58,10.59,10.59,0,0,0,2.48-.29,14.07,14.07,0,0,0,2.92-1.15l1.08-.58.29.72a109.83,109.83,0,0,0-10.73,6.12l-3.39,2.16-1.94,1.23-2.09-.87c-.43-.19-1-.46-1.62-.82a12,12,0,0,1-1.62-1.05,13.87,13.87,0,0,1-6.84-11.95l-.29-4.1.08-4.47c0-4.13.69-7.05,2.08-8.78q1.88-2.31,7.78-4.11l5.26-1.8Zm-9.64,10.95-.08,3.74v1.44l.08,1.87.07,1.59.14,1.37a16.62,16.62,0,0,0,4.25-2.09l1.15-.72a12.68,12.68,0,0,0,1.08-.94l-1.29-2.88-.94-1.87-.5-.94-.51-1.22-.79-1.66-.58-1.29-.5-1.08a2.65,2.65,0,0,0-1.37.79Z" transform="translate(-6619.4 -6869.42)"/><path class="cls-1" d="M6788.38,6916.51a27,27,0,0,0,2.91-2.63,46.07,46.07,0,0,0,3.5-4.5l1.08-1.51-.8-.51-1-.57-.58-.36-1.37-.87q-3.81-2.52-3.81-6.19,0-3.45,3.52-7.2a17,17,0,0,1,1.73-1.62q.87-.68,3.67-2.63a18,18,0,0,0,1.59-1.29c.53-.48,1.41-1.39,2.66-2.74l1.3-1.37.65-.72,1.22,1.08a16.26,16.26,0,0,0,5.83,3,2.57,2.57,0,0,0,.72.14h.72a4.76,4.76,0,0,0,3.6-1.51,5.6,5.6,0,0,0,1.44-4,5.62,5.62,0,0,1-.07-.8c0-1.82-.94-3.6-2.81-5.32a9.19,9.19,0,0,0-3.24-2.06,12.38,12.38,0,0,0-11,1.26,7.68,7.68,0,0,0-3.75,5.84h-.65a9.67,9.67,0,0,1,2.92-5.4,11.82,11.82,0,0,1,6.08-3,13.27,13.27,0,0,1,2.24-.14,15.1,15.1,0,0,1,3.38.43,13.58,13.58,0,0,1,6.95,4.32,10.89,10.89,0,0,1,2.7,7.27,14.93,14.93,0,0,1-.76,5.37,17.12,17.12,0,0,1-3.56,4.86l-1.44,1.29c.62.39,1.14.72,1.55,1a16.15,16.15,0,0,1,1.47,1.23,34.92,34.92,0,0,1,3.53,3.88,6.3,6.3,0,0,1,1,2.74c.14,1.06.21,1.73.21,2a6.73,6.73,0,0,1-1.22,3.88,22.73,22.73,0,0,1-4.46,4.4l-3.46,2.8-2.74,2.16-1.22,1-1.51,1.23a17.43,17.43,0,0,0-1.73,1.65,17.09,17.09,0,0,0-1.37,1.73,17.76,17.76,0,0,0-4.35-4.18,20.19,20.19,0,0,0-6.16-2.59c-.67-.19-1.42-.38-2.23-.57A12.29,12.29,0,0,0,6788.38,6916.51Zm12.17-16.27a8.4,8.4,0,0,0,4,1.15q3.09,0,6.41-3.53a7.66,7.66,0,0,0,.86-1.12,9.19,9.19,0,0,0,.94-2,13.61,13.61,0,0,1-2.45.22,15.93,15.93,0,0,1-4.61-.76,12.91,12.91,0,0,1-3.82-1.69l-.28-.21-3-2.52-1-.87a6.34,6.34,0,0,0-1.44,4.11,8.34,8.34,0,0,0,1.44,4.46A8,8,0,0,0,6800.55,6900.24Zm9.14,13.68,1.94,1.65.29-.43.36-.5a7.58,7.58,0,0,0,1.23-4.25,7.94,7.94,0,0,0-1.44-4.61,7.68,7.68,0,0,0-5-3.53,9.67,9.67,0,0,0-1.95-.21q-4.76,0-7.2,4.68l-.5,1.29,2.09.43a21.45,21.45,0,0,1,5.4,1.84A24.84,24.84,0,0,1,6809.69,6913.92Z" transform="translate(-6619.4 -6869.42)"/><path class="cls-1" d="M6824.31,6917.08a4.41,4.41,0,0,0,3-2.55,16.77,16.77,0,0,0,.9-6.45v-6.48l-.07-5.4-.07-3.09-.07-2.81a70.69,70.69,0,0,0-.43-10,22.22,22.22,0,0,0-2.45-5.9l-.79-1.37.64-.22.44.72.36.65.28.51.72,1.36,2.09,3.6.65-1a16.22,16.22,0,0,1,4.5-5,22.39,22.39,0,0,1,7-2.34l3.89-.86v.72l-1.15.29c-2.36.72-3.77,1.46-4.25,2.23s-.72,2.66-.72,5.69l-.22,33.84.15,1q.85,2.88,3.38,2.88a6,6,0,0,0,1.87-.36l.87-.36.07.65-.94.58-.79.36-.79.43-.87.5-3.52,2.31-1,.65-2.95,1.94-1.44-1.3a47.43,47.43,0,0,0-4.29-3.24A26.87,26.87,0,0,0,6824.31,6917.08Z" transform="translate(-6619.4 -6869.42)"/><path class="cls-1" d="M6843.82,6891.81q2.16-1.52,3.06-2.19c.6-.46,1.83-1.5,3.7-3.14l2.45-2.08c.77.67,1.63,1.39,2.6,2.16a36.13,36.13,0,0,0,3.52,2.44l2,1.23.72.43a4.55,4.55,0,0,0-3.1,3.71q-.51,2.78-.5,14.94l.07,2.95.07.5c.24,2.12,1.32,3.17,3.24,3.17a6.14,6.14,0,0,0,1.15-.21,3.64,3.64,0,0,0,1.66-1l.29.57-1.51,1.23-2.31,1.8q-1.8,1.44-4.53,3.81c-1.4,1.2-2.19,1.9-2.38,2.09l-1.51-.86a9.83,9.83,0,0,1-3.35-3.42,14.24,14.24,0,0,1-1.26-5.37l-.07-1.36-.07-1.8-.08-2.31v-14.4a4.63,4.63,0,0,0-.28-2.16,3.65,3.65,0,0,0-2-.57l-1.22-.15Zm9.21-9.57-1.36-.72a11.81,11.81,0,0,1-3.75-4.18,5.44,5.44,0,0,1-.57-2.45,3.89,3.89,0,0,1,.86-2.52,4.21,4.21,0,0,1,2.45-1.44l1.58-.21q6.12,0,6.12,4.24a11.65,11.65,0,0,1-.14,1.23,4.42,4.42,0,0,1-1,2,34,34,0,0,1-3.24,3.24Z" transform="translate(-6619.4 -6869.42)"/><path class="cls-1" d="M6887.09,6884l.93,1.52.65,1.22a85.84,85.84,0,0,1,4,7.7l1.08,2.31.65,1.29-1.51.65-3,1.37-2,1-5,2.45-1.58.79-3.53,1.65q0,5.34,5.11,8.36a10.09,10.09,0,0,0,5.11,1.58,10.68,10.68,0,0,0,2.49-.29,14,14,0,0,0,2.91-1.15l1.08-.58.29.72a111,111,0,0,0-10.73,6.12l-3.38,2.16-1.95,1.23-2.08-.87a17.72,17.72,0,0,1-1.62-.82,12,12,0,0,1-1.62-1.05,13.87,13.87,0,0,1-6.84-11.95l-.29-4.1.07-4.47c0-4.13.7-7.05,2.09-8.78q1.88-2.31,7.77-4.11l5.26-1.8Zm-9.65,10.95-.07,3.74v1.44l.07,1.87.07,1.59.15,1.37a16.72,16.72,0,0,0,4.24-2.09l1.16-.72c.14-.1.5-.41,1.08-.94l-1.3-2.88-.94-1.87-.5-.94-.5-1.22-.8-1.66-.57-1.29-.51-1.08a2.61,2.61,0,0,0-1.36.79Z" transform="translate(-6619.4 -6869.42)"/><path class="cls-1" d="M6897.31,6916.58a6.48,6.48,0,0,0,2.27-2.88,15.36,15.36,0,0,0,.68-5.33l.08-1.58v-.51l-.08-4v-6.48l-.21-3.45,1.8.5a3.27,3.27,0,0,0,.93.15h1a8.71,8.71,0,0,0,1.37-.08,6.4,6.4,0,0,0,3.74-1.36,3.76,3.76,0,0,0,1.16-2.88l-3.1-.87a17.64,17.64,0,0,1-3.6-1.19,9.26,9.26,0,0,1-2.3-1.62l-1-1.22a9,9,0,0,1-1.87-5.11,8,8,0,0,1,2.66-5.69,9.67,9.67,0,0,1,3.2-1.84,13.57,13.57,0,0,1,4.5-.68l1.95.14-.07.58-.29.29a6.37,6.37,0,0,0-1.59-.22,6.67,6.67,0,0,0-2.44.51l-1.37.72a2.1,2.1,0,0,0-.94,1.72,2.78,2.78,0,0,0,1.3,2.16,8,8,0,0,0,2.09,1.16l4,1.08,1.15.28a44.88,44.88,0,0,1,7.45,3,14.79,14.79,0,0,1,4.14,3.6,17,17,0,0,1,3.28,5.47,24.74,24.74,0,0,1,.9,7.56l.21,4.61.08.86v2.38q0,7-1.88,9.14c-1.24,1.44-4.56,3-9.93,4.61a10,10,0,0,0-5.91,4.18l-1.51-1.44a31.4,31.4,0,0,0-3.63-2.67,35.34,35.34,0,0,0-4.58-2.16Zm13.61-25.85-.07,1.3v4.53l.07,2.74v13l.86.72a28,28,0,0,0,3.1,2.16,10.75,10.75,0,0,0,2.81,1.15l.14-4.61c0-1.77,0-3.56,0-5.36s-.06-3.61-.11-5.44q0-6-1.77-8.67a6.34,6.34,0,0,0-5-3v1.51Z" transform="translate(-6619.4 -6869.42)"/><path class="cls-1" d="M6955.49,6884l.93,1.52.65,1.22a85.84,85.84,0,0,1,4,7.7l1.08,2.31.65,1.29-1.51.65-2.95,1.37-2,1-5,2.45-1.58.79-3.53,1.65q0,5.34,5.11,8.36a10.09,10.09,0,0,0,5.11,1.58,10.68,10.68,0,0,0,2.49-.29,14,14,0,0,0,2.91-1.15l1.08-.58.29.72a111,111,0,0,0-10.73,6.12l-3.38,2.16-1.95,1.23-2.08-.87a17.72,17.72,0,0,1-1.62-.82,12,12,0,0,1-1.62-1.05,13.87,13.87,0,0,1-6.84-11.95l-.29-4.1.07-4.47c0-4.13.7-7.05,2.09-8.78q1.88-2.31,7.77-4.11l5.26-1.8Zm-9.65,10.95-.07,3.74v1.44l.07,1.87.07,1.59.15,1.37a16.72,16.72,0,0,0,4.24-2.09l1.16-.72c.14-.1.5-.41,1.08-.94l-1.3-2.88-.94-1.87-.5-.94-.5-1.22-.8-1.66-.57-1.29-.51-1.08a2.61,2.61,0,0,0-1.36.79Z" transform="translate(-6619.4 -6869.42)"/><path class="cls-1" d="M6964.7,6892.17l3.6-2.66.22-.22,2.59-2.3.22-.22,1.94-1.65.58-.51,1.37-1.22.86.72a17.36,17.36,0,0,1,2.77,2.66,13.34,13.34,0,0,1,1.8,3,11.92,11.92,0,0,1,1,3.71l.94-.72,1.22-1.08,4.47-4,1.15-1.15,1.3-1.3,2.16,2.23a21.74,21.74,0,0,1,4,6.7l-.51.65-.72.72-1.58,1.58-2.3,1.87-.65.65-1.51,1.3a17.48,17.48,0,0,1-1.91-2.34q-.69-1.05-1.77-3.06l-.93-1.88-.51-1.08-2.88,1.8v2.6l-.14,6.76c0,1.16,0,2.19,0,3.1s0,1.73,0,2.45a19,19,0,0,0,.18,2.55,4.25,4.25,0,0,0,1.55,2.56,5,5,0,0,0,3.52,1.22,8.43,8.43,0,0,0,4.11-1.15,5.92,5.92,0,0,0,1.51-1.08l.22.51-1.3.79-1.15.79-.79.5-1.3.87a79.58,79.58,0,0,0-9.29,7.41l-1.15-1-2.45-2-2-1.73-.72-.57-1.16-.8c-.86-.57-1.46-1-1.8-1.15l-1.72-1.15-1.16-.65a3.22,3.22,0,0,0,2.67-1.08,5.71,5.71,0,0,0,.86-3.53l.07-2.37v-4.83l-.07-3.74.07-1.08c0-1.06,0-2.12,0-3.2a4.32,4.32,0,0,0-.83-2.63,2.64,2.64,0,0,0-4-.22Z" transform="translate(-6619.4 -6869.42)"/></svg>