<?xml version="1.0" encoding="UTF-8" standalone="no"?>
<svg
   xmlns:dc="http://purl.org/dc/elements/1.1/"
   xmlns:cc="http://creativecommons.org/ns#"
   xmlns:rdf="http://www.w3.org/1999/02/22-rdf-syntax-ns#"
   xmlns:svg="http://www.w3.org/2000/svg"
   xmlns="http://www.w3.org/2000/svg"
   xmlns:sodipodi="http://sodipodi.sourceforge.net/DTD/sodipodi-0.dtd"
   xmlns:inkscape="http://www.inkscape.org/namespaces/inkscape"
   width="80mm"
   height="38mm"
   viewBox="0 0 80 38"
   version="1.1"
   id="svg8"
   inkscape:version="1.0.2 (e86c870879, 2021-01-15, custom)"
   sodipodi:docname="Live надпись.svg">
  <defs
     id="defs2">
    <rect
       x="27.037731"
       y="-42.624187"
       width="99.880562"
       height="34.671913"
       id="rect850" />
    <rect
       x="3.5987885"
       y="7.4225011"
       width="94.243271"
       height="34.413414"
       id="rect835" />
  </defs>
  <sodipodi:namedview
     id="base"
     pagecolor="#ffffff"
     bordercolor="#666666"
     borderopacity="1.0"
     inkscape:pageopacity="0.0"
     inkscape:pageshadow="2"
     inkscape:zoom="1.1763218"
     inkscape:cx="163.6793"
     inkscape:cy="29.922163"
     inkscape:document-units="mm"
     inkscape:current-layer="layer1"
     inkscape:document-rotation="0"
     showgrid="false"
     inkscape:window-width="1427"
     inkscape:window-height="901"
     inkscape:window-x="253"
     inkscape:window-y="121"
     inkscape:window-maximized="0" />
  <metadata
     id="metadata5">
    <rdf:RDF>
      <cc:Work
         rdf:about="">
        <dc:format>image/svg+xml</dc:format>
        <dc:type
           rdf:resource="http://purl.org/dc/dcmitype/StillImage" />
        <dc:title></dc:title>
      </cc:Work>
    </rdf:RDF>
  </metadata>
  <g
     inkscape:label="Слой 1"
     inkscape:groupmode="layer"
     id="layer1">
    <g
       aria-label="L i v e"
       transform="matrix(2.5499684,0,0,2.5499684,-4.4546611,-10.695084)"
       id="text833"
       style="font-style:normal;font-variant:normal;font-weight:normal;font-stretch:normal;font-size:10.5833px;line-height:1.25;font-family:Angelin;-inkscape-font-specification:'Angelin, Normal';font-variant-ligatures:normal;font-variant-caps:normal;font-variant-numeric:normal;font-variant-east-asian:normal;white-space:pre;shape-inside:url(#rect835);fill:#ffffff;fill-opacity:1;stroke:none;stroke-width:0.392162">
      <path
         d="m 16.265463,17.870329 q -1.338416,0 -3.44164,-0.744139 Q 11.490575,16.655936 9.9144493,15.942804 9.6819061,15.839451 9.2374902,15.591405 l -0.077514,-0.04134 q -0.8991671,0.527098 -1.813837,0.527098 -0.8578261,0 -1.7001492,-0.640786 -0.4030749,-0.320393 -0.4030749,-0.666624 0,-0.139525 0.077514,-0.258381 0.2273756,-0.32556 0.7027972,-0.39274 0.1963699,-0.03101 0.4134102,-0.03101 1.1110397,0 2.9558825,0.728635 1.121375,-1.028358 2.092889,-2.754345 l -0.02067,0.01033 q -0.84749,0.490925 -1.6898136,0.656289 -0.2893871,0.05684 -0.5736066,0.05684 -0.5426008,0 -1.0593635,-0.206705 Q 7.5683467,12.330633 7.273792,11.777697 6.1007407,11.700182 5.2790881,11.080067 4.4884412,10.48579 4.0595282,9.6486343 3.5996094,8.7546349 3.5996094,7.922647 q 0,-0.8061498 0.3410633,-1.2970743 0.4599188,-0.651121 1.2092247,-0.651121 1.0076872,0 1.508947,1.1007045 0.2428785,0.5219303 0.2428785,1.2919067 0,0.2222079 -0.020671,0.4599188 -0.015503,0.1188554 -0.082682,0.1188554 -0.056844,0 -0.056844,-0.1033526 v -0.02067 q 0.015503,-0.2170403 0.015503,-0.4185777 0,-0.6872944 -0.2428784,-1.21956 Q 6.27644,6.6462432 5.8268565,6.4033647 5.5116313,6.232833 5.1912384,6.232833 q -0.1395259,0 -0.4444159,0.067179 -0.2997223,0.067179 -0.6046123,0.4960921 -0.30489,0.4237454 -0.30489,1.1420456 0,0.7441382 0.4340807,1.591629 0.4030748,0.7854793 1.1420455,1.3435833 0.7234677,0.542601 1.7414902,0.640786 -0.1756993,-0.470254 -0.1756993,-1.074867 0,-0.9870167 0.4495835,-2.1910737 0.5839418,-1.4986118 1.3694211,-2.2892587 1.0748664,-1.0903693 2.2995941,-1.0903693 1.229895,0 1.881016,1.0076873 0.32556,0.5064274 0.32556,1.1678836 0,0.1240231 -0.04651,0.6046124 -0.04134,0.4754216 -0.744138,1.4004268 -0.702798,0.9198376 -2.201409,1.8241726 -0.8733294,0.506427 -1.5554561,0.707965 -0.6356181,0.186034 -1.1988894,0.19637 0.4909245,0.754473 1.6381377,0.754473 0.2738842,0 0.8113178,-0.10852 0.5426,-0.10852 1.343583,-0.573607 0.248046,-0.124023 0.32556,-0.196369 0.08268,-0.07752 0.175699,-0.263549 0.91467,-1.7363233 1.803502,-2.7130047 0.888832,-0.9818491 1.539953,-1.2970743 0.351398,-0.1705317 0.568439,-0.1705317 0.186034,0 0.273884,0.1188554 0.05168,0.072347 0.05168,0.1860346 0,0.1963698 -0.206705,0.6097799 -0.201537,0.4134102 -0.945675,1.1833865 l -0.180867,0.1705317 -0.186035,0.180867 q -0.754473,0.7079646 -1.617467,1.4004266 -0.19637,0.346231 -0.39274,0.728636 -0.377237,0.73897 -1.064531,1.627802 -0.682127,0.888832 -1.5761261,1.6123 l 0.2170401,0.09819 h 0.01033 q 0.155029,0.07235 0.490925,0.242878 2.806021,1.400427 4.526841,1.896519 0.868161,0.253214 1.472774,0.253214 0.594277,0 0.868161,-0.315225 0.03617,-0.04651 0.09302,-0.04651 0.04134,0 0.07751,0.03101 0.03617,0.03617 0.04134,0.08268 0,0.05168 -0.03101,0.09302 -0.387572,0.454751 -1.167884,0.50126 -0.124023,0.0052 -0.253213,0.0052 z M 7.2479539,15.79811 q 0.031006,0 0.4185777,-0.01033 Q 8.0541037,15.77228 8.741398,15.317526 8.1471209,15.002296 7.496,14.723244 6.6846826,14.377013 6.1369141,14.377013 q -0.4134101,0 -0.6149476,0.273884 -0.036173,0.05684 -0.036173,0.124023 0,0.21704 0.2997224,0.459919 0.7441383,0.563271 1.462438,0.563271 z m 6.0719611,-5.363996 q 0.573607,-0.4857573 1.09037,-0.9663466 l 0.186034,-0.1705317 q 0.862994,-0.8629937 1.147213,-1.2919067 0.19637,-0.2893871 0.19637,-0.3979073 0,-0.062011 -0.06718,-0.062011 -0.191202,0 -0.883664,0.6769591 -0.687295,0.6769591 -1.669144,2.2117452 z M 7.4494913,11.52965 q 0.5839418,0 1.2402304,-0.191202 0.6562886,-0.19637 1.5037793,-0.687294 1.648473,-0.9973521 2.299594,-1.994704 0.573607,-0.8681613 0.573607,-1.6019643 0,-0.1085202 -0.05684,-0.5736066 -0.05168,-0.4650864 -0.651121,-0.9353404 -0.532266,-0.4185778 -1.276404,-0.4185778 -0.08785,0 -0.563271,0.031006 -0.475426,0.025838 -1.348755,0.785479 -0.8733289,0.7596412 -1.5141146,2.3926112 -0.4392483,1.1730513 -0.4392483,2.1032239 0,0.630451 0.2015375,1.090369 z"
         style="font-style:normal;font-variant:normal;font-weight:normal;font-stretch:normal;font-size:10.5833px;font-family:Angelin;-inkscape-font-specification:'Angelin, Normal';font-variant-ligatures:normal;font-variant-caps:normal;font-variant-numeric:normal;font-variant-east-asian:normal;fill:#ffffff;stroke-width:0.153791"
         id="path839" />
    </g>
    <g
       aria-label="i v e"
       transform="matrix(1.9548576,0,0,1.9548576,-11.288876,94.365505)"
       id="text848"
       style="font-style:normal;font-variant:normal;font-weight:normal;font-stretch:normal;font-size:10.5833px;line-height:1.25;font-family:'Akaju Light';-inkscape-font-specification:'Akaju Light, Normal';font-variant-ligatures:normal;font-variant-caps:normal;font-variant-numeric:normal;font-variant-east-asian:normal;white-space:pre;shape-inside:url(#rect850);fill:#ffffff;fill-opacity:1;stroke:none;stroke-width:0.511546">
      <path
         d="m 28.535721,-33.637122 q 0,0.10852 -0.08785,0.196369 -0.10852,0.113688 -0.273884,0.113688 -0.160196,0 -0.268716,-0.113688 -0.08785,-0.08785 -0.08785,-0.196369 v -4.139269 q 0,-0.108521 0.08785,-0.19637 0.10852,-0.113688 0.268716,-0.113688 0.165364,0 0.273884,0.113688 0.08785,0.08785 0.08785,0.19637 z m -0.361734,-5.885927 q -0.165364,0 -0.273884,-0.10852 -0.08785,-0.08785 -0.08785,-0.201538 0,-0.113688 0.08785,-0.201537 0.10852,-0.10852 0.273884,-0.10852 0.165364,0 0.273884,0.10852 0.08785,0.08785 0.08785,0.201537 0,0.113688 -0.08785,0.201538 -0.10852,0.10852 -0.273884,0.10852 z"
         style="font-style:normal;font-variant:normal;font-weight:normal;font-stretch:normal;font-size:10.5833px;font-family:'Akaju Light';-inkscape-font-specification:'Akaju Light, Normal';font-variant-ligatures:normal;font-variant-caps:normal;font-variant-numeric:normal;font-variant-east-asian:normal;fill:#ffffff;stroke-width:0.26168"
         id="path854" />
      <path
         d="m 34.385475,-34.412266 1.731155,-3.472646 q 0.06201,-0.118855 0.201537,-0.165364 0.06201,-0.02067 0.129191,-0.02067 0.09302,0 0.180867,0.04651 0.129191,0.06201 0.165364,0.180867 0.0155,0.04651 0.0155,0.08268 0,0.06201 -0.04134,0.139526 l -2.051548,4.108264 q -0.103353,0.186034 -0.330728,0.186034 -0.232543,0 -0.335896,-0.186034 l -2.051548,-4.108264 q -0.04134,-0.07751 -0.04134,-0.139526 0,-0.03617 0.0155,-0.08268 0.03617,-0.118855 0.165364,-0.180867 0.08785,-0.04651 0.180867,-0.04651 0.06718,0 0.129191,0.02067 0.139526,0.04651 0.191202,0.149862 z"
         style="font-style:normal;font-variant:normal;font-weight:normal;font-stretch:normal;font-size:10.5833px;font-family:'Akaju Light';-inkscape-font-specification:'Akaju Light, Normal';font-variant-ligatures:normal;font-variant-caps:normal;font-variant-numeric:normal;font-variant-east-asian:normal;fill:#ffffff;stroke-width:0.26168"
         id="path856" />
      <path
         d="m 40.932857,-34.779168 q 0.242879,0.408243 0.630451,0.620115 0.387572,0.206705 0.82682,0.217041 0.444416,0.0052 0.831988,-0.211873 0.284219,-0.165364 0.599445,-0.578774 0.08785,-0.134359 0.248046,-0.170532 0.04651,-0.0155 0.08785,-0.0155 0.113688,0 0.206705,0.05684 0.118856,0.07235 0.139526,0.180867 0.01034,0.04134 0.01034,0.08268 0,0.06718 -0.03617,0.124023 -0.454751,0.604612 -0.862993,0.837156 -0.552937,0.310057 -1.183387,0.310057 -0.186035,0 -0.366901,-0.02067 -0.826821,-0.113688 -1.384924,-0.666624 -0.330729,-0.330728 -0.511596,-0.733803 -0.0052,-0.02067 -0.02584,-0.06718 -0.0052,-0.0155 -0.02584,-0.07235 -0.144693,-0.408243 -0.144693,-0.811317 0,-0.454752 0.186034,-0.904335 0.273884,-0.651121 0.878497,-1.043861 0.604612,-0.387572 1.369421,-0.423745 h 0.08785 q 0.661456,0 1.235062,0.392739 0.604613,0.423746 0.899167,1.049029 0.06201,0.155029 0.01034,0.294554 -0.04651,0.09302 -0.232544,0.201538 z m 2.976553,-1.870681 q -0.511595,-0.697629 -1.276404,-0.785479 -0.124023,-0.0155 -0.253213,-0.0155 -0.873329,0 -1.379757,0.754474 -0.490924,0.687294 -0.351398,1.353918 z"
         style="font-style:normal;font-variant:normal;font-weight:normal;font-stretch:normal;font-size:10.5833px;font-family:'Akaju Light';-inkscape-font-specification:'Akaju Light, Normal';font-variant-ligatures:normal;font-variant-caps:normal;font-variant-numeric:normal;font-variant-east-asian:normal;fill:#ffffff;stroke-width:0.26168"
         id="path858" />
    </g>
  </g>
</svg>
