<?xml version="1.0" encoding="UTF-8" standalone="no"?>
<svg
   xmlns:dc="http://purl.org/dc/elements/1.1/"
   xmlns:cc="http://creativecommons.org/ns#"
   xmlns:rdf="http://www.w3.org/1999/02/22-rdf-syntax-ns#"
   xmlns:svg="http://www.w3.org/2000/svg"
   xmlns="http://www.w3.org/2000/svg"
   xmlns:sodipodi="http://sodipodi.sourceforge.net/DTD/sodipodi-0.dtd"
   xmlns:inkscape="http://www.inkscape.org/namespaces/inkscape"
   id="Слой_2"
   data-name="Слой 2"
   viewBox="0 0 324.19 38.96"
   version="1.1"
   sodipodi:docname="MINIMAL 2.svg"
   inkscape:version="1.0.2 (e86c870879, 2021-01-15, custom)">
  <metadata
     id="metadata25">
    <rdf:RDF>
      <cc:Work
         rdf:about="">
        <dc:format>image/svg+xml</dc:format>
        <dc:type
           rdf:resource="http://purl.org/dc/dcmitype/StillImage" />
        <dc:title>MINIMAL</dc:title>
      </cc:Work>
    </rdf:RDF>
  </metadata>
  <sodipodi:namedview
     pagecolor="#ffffff"
     bordercolor="#666666"
     borderopacity="1"
     objecttolerance="10"
     gridtolerance="10"
     guidetolerance="10"
     inkscape:pageopacity="0"
     inkscape:pageshadow="2"
     inkscape:window-width="1294"
     inkscape:window-height="692"
     id="namedview23"
     showgrid="false"
     inkscape:zoom="1.3680127"
     inkscape:cx="191.87544"
     inkscape:cy="41.008636"
     inkscape:window-x="368"
     inkscape:window-y="345"
     inkscape:window-maximized="0"
     inkscape:current-layer="Слой_2" />
  <defs
     id="defs4">
    <style
       id="style2">.cls-1{fill:#fff;}</style>
  </defs>
  <title
     id="title6">MINIMAL</title>
  <path
     class="cls-1"
     d="M7188.08,7083.47V7103h-5.56v-19.49a19.48,19.48,0,1,1,39,0V7103h-5.57v-19.49a13.92,13.92,0,0,0-11.13-13.66V7103h-5.57v-33.15a14,14,0,0,0-11.13,13.66Z"
     transform="translate(-7182.52 -7063.99)"
     id="path8"
     style="fill:#000000" />
  <path
     class="cls-1"
     d="M7246.75,7064v39h-5.56v-39Z"
     transform="translate(-7182.52 -7063.99)"
     id="path10"
     style="fill:#000000" />
  <path
     class="cls-1"
     d="M7272,7083.47V7103h-5.56v-19.49a19.48,19.48,0,1,1,39,0V7103h-5.56v-19.49a13.92,13.92,0,0,0-27.84,0Z"
     transform="translate(-7182.52 -7063.99)"
     id="path12"
     style="fill:#000000" />
  <path
     class="cls-1"
     d="M7330.69,7064v39h-5.56v-39Z"
     transform="translate(-7182.52 -7063.99)"
     id="path14"
     style="fill:#000000" />
  <path
     class="cls-1"
     d="M7356,7083.47V7103h-5.56v-19.49a19.48,19.48,0,1,1,39,0V7103h-5.56v-19.49a13.94,13.94,0,0,0-11.14-13.66V7103h-5.56v-33.15a14,14,0,0,0-11.14,13.66Z"
     transform="translate(-7182.52 -7063.99)"
     id="path16" />
  <path
     class="cls-1"
     d="M7448,7083.47V7103h-5.56v-19.49a13.92,13.92,0,0,0-27.84,0V7089h22.27v5.57h-22.27V7103h-5.56v-19.49a19.48,19.48,0,1,1,39,0Z"
     transform="translate(-7182.52 -7063.99)"
     id="path18" />
  <path
     class="cls-1"
     d="M7487.22,7097.39h19.48V7103h-19.48a19.48,19.48,0,0,1-19.48-19.49V7064h5.56v19.48a13.93,13.93,0,0,0,13.92,13.92Z"
     transform="translate(-7182.52 -7063.99)"
     id="path20" />
</svg>
