<svg id="Слой_2" data-name="Слой 2" xmlns="http://www.w3.org/2000/svg" viewBox="0 0 324.19 38.96"><defs><style>.cls-1{fill:#fff;}</style></defs><title>MINIMAL</title><path class="cls-1" d="M7188.08,7083.47V7103h-5.56v-19.49a19.48,19.48,0,1,1,39,0V7103h-5.57v-19.49a13.92,13.92,0,0,0-11.13-13.66V7103h-5.57v-33.15a14,14,0,0,0-11.13,13.66Z" transform="translate(-7182.52 -7063.99)"/><path class="cls-1" d="M7246.75,7064v39h-5.56v-39Z" transform="translate(-7182.52 -7063.99)"/><path class="cls-1" d="M7272,7083.47V7103h-5.56v-19.49a19.48,19.48,0,1,1,39,0V7103h-5.56v-19.49a13.92,13.92,0,0,0-27.84,0Z" transform="translate(-7182.52 -7063.99)"/><path class="cls-1" d="M7330.69,7064v39h-5.56v-39Z" transform="translate(-7182.52 -7063.99)"/><path class="cls-1" d="M7356,7083.47V7103h-5.56v-19.49a19.48,19.48,0,1,1,39,0V7103h-5.56v-19.49a13.94,13.94,0,0,0-11.14-13.66V7103h-5.56v-33.15a14,14,0,0,0-11.14,13.66Z" transform="translate(-7182.52 -7063.99)"/><path class="cls-1" d="M7448,7083.47V7103h-5.56v-19.49a13.92,13.92,0,0,0-27.84,0V7089h22.27v5.57h-22.27V7103h-5.56v-19.49a19.48,19.48,0,1,1,39,0Z" transform="translate(-7182.52 -7063.99)"/><path class="cls-1" d="M7487.22,7097.39h19.48V7103h-19.48a19.48,19.48,0,0,1-19.48-19.49V7064h5.56v19.48a13.93,13.93,0,0,0,13.92,13.92Z" transform="translate(-7182.52 -7063.99)"/></svg>