<?xml version="1.0" encoding="UTF-8" standalone="no"?>
<svg
   xmlns:dc="http://purl.org/dc/elements/1.1/"
   xmlns:cc="http://creativecommons.org/ns#"
   xmlns:rdf="http://www.w3.org/1999/02/22-rdf-syntax-ns#"
   xmlns:svg="http://www.w3.org/2000/svg"
   xmlns="http://www.w3.org/2000/svg"
   xmlns:sodipodi="http://sodipodi.sourceforge.net/DTD/sodipodi-0.dtd"
   xmlns:inkscape="http://www.inkscape.org/namespaces/inkscape"
   width="190mm"
   height="55mm"
   viewBox="0 0 190 55"
   version="1.1"
   id="svg1004"
   inkscape:version="1.0.2 (e86c870879, 2021-01-15, custom)"
   sodipodi:docname="nastie---имя---композиция---2.svg">
  <defs
     id="defs998">
    <rect
       x="19.915953"
       y="5.3619871"
       width="127.15569"
       height="32.171921"
       id="rect2223" />
    <rect
       x="-180.67262"
       y="47.625"
       width="465.66666"
       height="189.74405"
       id="rect1569" />
  </defs>
  <sodipodi:namedview
     id="base"
     pagecolor="#ffffff"
     bordercolor="#666666"
     borderopacity="1.0"
     inkscape:pageopacity="0.0"
     inkscape:pageshadow="2"
     inkscape:zoom="0.95150961"
     inkscape:cx="436.71989"
     inkscape:cy="100.29447"
     inkscape:document-units="mm"
     inkscape:current-layer="layer1"
     inkscape:document-rotation="0"
     showgrid="false"
     inkscape:window-width="1604"
     inkscape:window-height="909"
     inkscape:window-x="225"
     inkscape:window-y="81"
     inkscape:window-maximized="0"
     showguides="false" />
  <metadata
     id="metadata1001">
    <rdf:RDF>
      <cc:Work
         rdf:about="">
        <dc:format>image/svg+xml</dc:format>
        <dc:type
           rdf:resource="http://purl.org/dc/dcmitype/StillImage" />
        <dc:title></dc:title>
      </cc:Work>
    </rdf:RDF>
  </metadata>
  <g
     inkscape:label="Слой 1"
     inkscape:groupmode="layer"
     id="layer1">
    <g
       aria-label="E "
       transform="matrix(3.3171818,0,0,3.3171818,81.125101,-9.1604559)"
       id="text2221"
       style="font-style:normal;font-variant:normal;font-weight:normal;font-stretch:normal;font-size:10.5833px;line-height:1.25;font-family:a_BosaNova;-inkscape-font-specification:'a_BosaNova, Normal';font-variant-ligatures:normal;font-variant-caps:normal;font-variant-numeric:normal;font-variant-east-asian:normal;white-space:pre;shape-inside:url(#rect2223);fill:#000000;fill-opacity:1;stroke:none;stroke-width:0.301461">
      <path
         d="m 20.346745,12.460379 c 0.126999,0.747887 0.483304,1.372301 1.068913,1.873244 0.592665,0.493887 1.266468,0.740831 2.02141,0.740831 v 0.99483 c -1.128885,0 -2.091966,-0.402165 -2.889241,-1.206496 -0.797275,-0.804331 -1.195913,-1.770939 -1.195913,-2.899824 0,-1.135941 0.39511,-2.1025486 1.18533,-2.8998239 0.797275,-0.8043307 1.763883,-1.2064961 2.899824,-1.2064961 v 0.9948301 c -0.761997,0 -1.435801,0.2469437 -2.02141,0.740831 -0.585609,0.4938869 -0.941914,1.1183019 -1.068913,1.8732439 h 1.869973 v 0.99483 z"
         style="font-style:normal;font-variant:normal;font-weight:normal;font-stretch:normal;font-size:10.5833px;font-family:a_BosaNova;-inkscape-font-specification:'a_BosaNova, Normal';font-variant-ligatures:normal;font-variant-caps:normal;font-variant-numeric:normal;font-variant-east-asian:normal;stroke:none;stroke-width:0.391899;stroke-linecap:square;stroke-linejoin:round;stroke-miterlimit:4;stroke-dasharray:none;stroke-opacity:0.83642;paint-order:normal"
         id="path2227"
         sodipodi:nodetypes="ccccsscccscccc" />
    </g>
    <g
       aria-label="N A S T I E"
       transform="matrix(3.4531677,0,0,3.4531677,601.18926,-154.26478)"
       id="text1567"
       style="font-style:normal;font-weight:normal;font-size:10.5833px;line-height:1.25;font-family:sans-serif;white-space:pre;shape-inside:url(#rect1569);fill:#ffffff;fill-opacity:1;stroke:none;stroke-width:0.289588">
      <path
         d="m -170.67293,52.507571 v 4.921235 h -2.10607 v -7.842225 h 2.01082 l 2.23308,2.846907 c 0.2266,-0.722372 0.36932,-1.528614 0,-2.846907 h 2.07433 v 7.842225 h -2.07433 v -2.201327 z"
         style="font-style:normal;font-variant:normal;font-weight:normal;font-stretch:normal;font-size:10.5833px;font-family:a_Rewinder;-inkscape-font-specification:'a_Rewinder, Normal';font-variant-ligatures:normal;font-variant-caps:normal;font-variant-numeric:normal;font-variant-east-asian:normal;fill:#ffffff;stroke-width:0.289588"
         id="path1573"
         sodipodi:nodetypes="cccccccccccc" />
      <path
         d="m -156.09932,49.586581 0.47625,1.767411 -3.18159,-0.01058 c -0.85372,0 -1.50636,0.105833 -1.95791,0.317499 -0.57149,0.268111 -0.98777,0.761998 -1.24883,1.481662 h 2.00025 v -1.471078 h 2.11666 v 5.757315 h -2.11666 v -2.476492 h -2.21191 c 0.0423,0.853719 0.31044,1.679217 0.80433,2.476492 l -1.67216,1.100663 c -0.83961,-1.284107 -1.25942,-2.585853 -1.25942,-3.905238 0,-1.559273 0.44803,-2.786935 1.34408,-3.682988 0.90311,-0.903108 2.13431,-1.354662 3.69358,-1.354662 z"
         style="font-style:normal;font-variant:normal;font-weight:normal;font-stretch:normal;font-size:10.5833px;font-family:a_Rewinder;-inkscape-font-specification:'a_Rewinder, Normal';font-variant-ligatures:normal;font-variant-caps:normal;font-variant-numeric:normal;font-variant-east-asian:normal;fill:#ffffff;stroke-width:0.289588"
         id="path1575"
         sodipodi:nodetypes="ccccccccccccccsccc" />
      <path
         d="m -141.58863,51.375158 h -10.06397 c -0.26811,0 -0.40216,0.08819 -0.40216,0.264583 0,0.169333 0.21291,0.409515 0.6985,0.952497 0.48559,0.542982 0.85856,0.927043 1.36181,1.448039 0.50325,0.520996 1.53905,1.325268 0.61726,1.589368 -0.87615,0.251023 -0.28575,1.210024 -0.85724,1.492245 -0.40923,0.204611 -1.00895,0.306916 -1.79917,0.306916 h -1.87324 l -0.51858,-1.809744 h 2.28599 c 0.24695,0 0.37042,-0.09525 0.37042,-0.28575 0,-0.183443 -0.22931,-0.500942 -0.68792,-0.952497 -0.65616,-0.656164 -1.07596,-1.100662 -1.25941,-1.333495 -0.45861,-0.585609 -0.68791,-1.132413 -0.68791,-1.640412 0,-1.213551 0.80786,-1.820327 2.42357,-1.820327 h 10.40844 l 0.26025,0.0041 c 0.91818,0.01447 0.94149,1.784488 0.005,1.784488"
         style="font-style:normal;font-variant:normal;font-weight:normal;font-stretch:normal;font-size:10.5833px;font-family:a_Rewinder;-inkscape-font-specification:'a_Rewinder, Normal';font-variant-ligatures:normal;font-variant-caps:normal;font-variant-numeric:normal;font-variant-east-asian:normal;fill:#ffffff;stroke-width:0.289588"
         id="path1577"
         sodipodi:nodetypes="csszzscsccssccsscsc" />
      <path
         d="m -143.59866,57.428806 h -2.10607 v -6.120581 h 2.10607 z"
         style="font-style:normal;font-variant:normal;font-weight:normal;font-stretch:normal;font-size:10.5833px;font-family:a_Rewinder;-inkscape-font-specification:'a_Rewinder, Normal';font-variant-ligatures:normal;font-variant-caps:normal;font-variant-numeric:normal;font-variant-east-asian:normal;fill:#ffffff;stroke-width:0.289588"
         id="path1579"
         sodipodi:nodetypes="ccccc" />
    </g>
    <path
       id="path1579-7"
       style="font-style:normal;font-variant:normal;font-weight:normal;font-stretch:normal;font-size:10.5833px;line-height:1.25;font-family:a_Rewinder;-inkscape-font-specification:'a_Rewinder, Normal';font-variant-ligatures:normal;font-variant-caps:normal;font-variant-numeric:normal;font-variant-east-asian:normal;white-space:pre;shape-inside:url(#rect1569);fill:#ffffff;fill-opacity:1;stroke:none;stroke-width:0.999991"
       d="m 126.27668,26.206671 c -3.72317,6.581193 -4.16802,15.415832 -0.70504,17.741893 2.5339,1.70201 5.58643,1.333678 9.04305,-1.130582 2.92198,-2.083106 2.26257,-3.387177 1.05151,-3.123955 -2.50219,0.543845 -3.22271,1.102533 -5.56134,0.602626 -2.1976,-0.469762 -2.2915,-4.099236 -0.89301,-8.507087 1.42145,-4.480208 3.95774,-8.922099 4.2231,-9.65354 1.94662,-5.365668 -3.4351,-2.510547 -7.15827,4.070645 z"
       sodipodi:nodetypes="zssssssz" />
  </g>
</svg>
