<?xml version="1.0" encoding="UTF-8" standalone="no"?>
<svg
   xmlns:dc="http://purl.org/dc/elements/1.1/"
   xmlns:cc="http://creativecommons.org/ns#"
   xmlns:rdf="http://www.w3.org/1999/02/22-rdf-syntax-ns#"
   xmlns:svg="http://www.w3.org/2000/svg"
   xmlns="http://www.w3.org/2000/svg"
   xmlns:sodipodi="http://sodipodi.sourceforge.net/DTD/sodipodi-0.dtd"
   xmlns:inkscape="http://www.inkscape.org/namespaces/inkscape"
   width="190mm"
   height="55mm"
   viewBox="0 0 190 55"
   version="1.1"
   id="svg1004"
   inkscape:version="1.0.2 (e86c870879, 2021-01-15, custom)"
   sodipodi:docname="nastie---имя---композиция---2.svg">
  <defs
     id="defs998">
    <rect
       x="28.614784"
       y="-57.858464"
       width="106.91238"
       height="46.223881"
       id="rect845" />
    <rect
       x="-0.83972523"
       y="63.539209"
       width="190.05781"
       height="48.704064"
       id="rect850" />
    <rect
       x="19.915953"
       y="5.3619871"
       width="127.15569"
       height="32.171921"
       id="rect2223" />
    <rect
       x="-180.67262"
       y="47.625"
       width="465.66666"
       height="189.74405"
       id="rect1569" />
    <rect
       x="-0.83972526"
       y="63.539207"
       width="190.05782"
       height="48.704063"
       id="rect850-2" />
    <rect
       x="-0.83972526"
       y="63.539207"
       width="190.05782"
       height="48.704063"
       id="rect883" />
  </defs>
  <sodipodi:namedview
     id="base"
     pagecolor="#ffffff"
     bordercolor="#666666"
     borderopacity="1.0"
     inkscape:pageopacity="0.0"
     inkscape:pageshadow="2"
     inkscape:zoom="0.84142112"
     inkscape:cx="305.58693"
     inkscape:cy="210.26338"
     inkscape:document-units="mm"
     inkscape:current-layer="layer1"
     inkscape:document-rotation="0"
     showgrid="false"
     inkscape:window-width="1307"
     inkscape:window-height="909"
     inkscape:window-x="574"
     inkscape:window-y="92"
     inkscape:window-maximized="0"
     showguides="false"
     inkscape:snap-text-baseline="true" />
  <metadata
     id="metadata1001">
    <rdf:RDF>
      <cc:Work
         rdf:about="">
        <dc:format>image/svg+xml</dc:format>
        <dc:type
           rdf:resource="http://purl.org/dc/dcmitype/StillImage" />
        <dc:title />
      </cc:Work>
    </rdf:RDF>
  </metadata>
  <g
     inkscape:label="Слой 1"
     inkscape:groupmode="layer"
     id="layer1">
    <g
       aria-label="N A S T I "
       transform="matrix(1.8676038,0,0,2.5058491,0.6039579,-156.42412)"
       id="text848"
       style="font-style:normal;font-weight:normal;font-size:16.9333px;line-height:1.25;font-family:sans-serif;white-space:pre;shape-inside:url(#rect850);fill:#ffffff;fill-opacity:1;stroke:none;stroke-width:0.462253">
      <path
         d="M 11.267466,63.249057 H 9.7096022 l 0,12.280461 -6.3161209,-7.518385 H 0.32855395 V 79.898309 H 1.7848178 v -7.162785 l 6.1637212,7.162785 h 3.318927 z"
         style="font-style:normal;font-variant:normal;font-weight:normal;font-stretch:normal;font-size:16.9333px;font-family:Aafia;-inkscape-font-specification:'Aafia, Normal';font-variant-ligatures:normal;font-variant-caps:normal;font-variant-numeric:normal;font-variant-east-asian:normal;fill:#ffffff;stroke-width:0.462253"
         id="path955"
         sodipodi:nodetypes="ccccccccccc" />
      <path
         d="m 20.229032,70.92366 1.456264,4.216392 h -2.912527 z m 4.419592,-2.895594 H 19.8057 l -4.114792,11.870243 h 0.03387 1.38853 l 1.117598,-3.217327 h 3.996259 l 1.117598,3.217327 h 5.418656 z"
         style="font-style:normal;font-variant:normal;font-weight:normal;font-stretch:normal;font-size:16.9333px;font-family:Aafia;-inkscape-font-specification:'Aafia, Normal';font-variant-ligatures:normal;font-variant-caps:normal;font-variant-numeric:normal;font-variant-east-asian:normal;fill:#ffffff;stroke-width:0.462253"
         id="path957" />
      <path
         d="m 44.464439,74.090188 c -0.423333,-0.592666 -1.049865,-1.083732 -1.89653,-1.507064 -0.846665,-0.423333 -1.913463,-0.778932 -2.573862,-1.134531 -0.660398,-0.338666 -0.914398,-0.694266 -0.999064,-0.999065 -0.08467,-0.304799 0.01693,-0.575732 0.304799,-0.778932 0.541866,-0.389466 1.74413,-0.575732 3.522127,0.863599 l 1.100664,-1.185331 C 42.195376,67.8926 40.806846,67.6894 39.655381,67.6386 c -1.28693,-0.0508 -2.302928,0.08467 -3.28506,0.423333 -0.982131,0.338666 -1.913463,0.897465 -2.489195,1.659463 -0.558799,0.745065 -0.761998,1.69333 -0.711198,2.489195 0.03387,0.778932 0.304799,1.422397 0.778931,1.94733 0.457199,0.524932 1.117598,0.914398 1.913463,1.253064 0.812799,0.338666 1.79493,0.609599 2.370662,0.914398 0.575732,0.287866 0.745065,0.592666 0.812799,0.897465 0.0508,0.304799 -0.01693,0.592666 -0.338666,0.812798 -0.609599,0.4064 -2.065863,0.541866 -4.453458,-1.185331 l -1.066798,1.219198 c 0.406399,0.338666 1.79493,1.710263 4.792124,2.184396 0.186266,0.03387 0.389466,0.0508 0.592665,0.06773 1.388531,0.118533 2.810928,-0.2032 3.826926,-0.626532 1.015998,-0.423333 1.64253,-0.914398 2.065863,-1.54093 0.406399,-0.626533 0.609598,-1.371598 0.609598,-2.082796 0,-0.728132 -0.203199,-1.388531 -0.609598,-1.981196 z"
         style="font-style:normal;font-variant:normal;font-weight:normal;font-stretch:normal;font-size:16.9333px;font-family:Aafia;-inkscape-font-specification:'Aafia, Normal';font-variant-ligatures:normal;font-variant-caps:normal;font-variant-numeric:normal;font-variant-east-asian:normal;fill:#ffffff;stroke-width:0.462253"
         id="path959" />
      <path
         d="m 59.36962,68.044999 h -2.133596 -5.198523 -2.133596 v 1.523997 h 2.133596 v 10.36318 h 5.198523 v -10.36318 h 2.133596 z"
         style="font-style:normal;font-variant:normal;font-weight:normal;font-stretch:normal;font-size:16.9333px;font-family:Aafia;-inkscape-font-specification:'Aafia, Normal';font-variant-ligatures:normal;font-variant-caps:normal;font-variant-numeric:normal;font-variant-east-asian:normal;fill:#ffffff;stroke-width:0.462253"
         id="path961" />
      <path
         d="m 69.194793,68.011133 h -4.82599 v 11.887176 h 4.82599 z"
         style="font-style:normal;font-variant:normal;font-weight:normal;font-stretch:normal;font-size:16.9333px;font-family:Aafia;-inkscape-font-specification:'Aafia, Normal';font-variant-ligatures:normal;font-variant-caps:normal;font-variant-numeric:normal;font-variant-east-asian:normal;fill:#ffffff;stroke-width:0.462253"
         id="path963" />
    </g>
    <g
       aria-label="e"
       transform="matrix(9.6576499,0,0,9.6576499,-131.94593,517.06862)"
       id="text843"
       style="font-style:normal;font-weight:normal;font-size:10.5833px;line-height:1.25;font-family:sans-serif;white-space:pre;shape-inside:url(#rect845);fill:#000000;fill-opacity:1;stroke:none;stroke-width:0.103545">
      <path
         d="m 28.93046,-49.027901 c -0.175699,0 -0.334173,-0.0534 -0.475422,-0.160196 -0.227375,-0.192925 -0.270444,-0.34762 -0.304434,-0.531404 -0.03399,-0.183785 -0.02796,-0.373394 -0.0049,-0.566464 0.02311,-0.19307 0.100851,-0.386964 0.304113,-0.721137 0.199815,-0.337618 0.446139,-0.611502 0.738971,-0.821653 0.254936,-0.182589 0.50815,-0.273884 0.759641,-0.273884 0.21015,0 0.354844,0.06373 0.434081,0.191202 0.03445,0.05512 0.05168,0.120577 0.05168,0.19637 0,0.06201 -0.01206,0.130915 -0.03617,0.206705 -0.103353,0.299723 -0.342786,0.596 -0.718301,0.888832 -0.199815,0.148139 -0.428913,0.256659 -0.687294,0.325561 -0.172254,0.334173 -0.258381,0.594276 -0.258381,0.780311 0,0.175699 0.06718,0.263549 0.201537,0.263549 0.08957,0 0.217041,-0.04134 0.382405,-0.124023 0.189479,-0.103353 0.387572,-0.249769 0.594277,-0.439248 0.113687,-0.106798 0.329005,-0.318671 0.645953,-0.635618 0.482312,-0.506427 0.837156,-0.809595 1.064531,-0.909503 0.01723,-0.0069 0.03445,-0.01034 0.05168,-0.01034 0.01378,0 0.03101,0.0052 0.05168,0.0155 0.04134,0.02067 0.06201,0.05857 0.06201,0.113688 0,0.05167 -0.02584,0.08957 -0.07751,0.113688 -0.127468,0.05512 -0.275607,0.161918 -0.444416,0.320393 -0.168809,0.158473 -0.347954,0.337618 -0.537433,0.537433 -0.217041,0.220485 -0.435804,0.432358 -0.656289,0.635618 -0.430635,0.403075 -0.811317,0.604612 -1.142045,0.604612 z m 0.253213,-1.591629 c 0.130913,-0.05857 0.251491,-0.129191 0.361734,-0.211873 0.330728,-0.254936 0.539156,-0.50815 0.625283,-0.759641 0.03101,-0.08268 0.04651,-0.141248 0.04651,-0.175699 0,-0.02756 -0.01034,-0.04134 -0.03101,-0.04134 -0.06546,0 -0.222211,0.148139 -0.470254,0.444416 -0.182589,0.21704 -0.360011,0.465086 -0.532266,0.744138 z"
         style="font-style:normal;font-variant:normal;font-weight:normal;font-stretch:normal;font-size:10.5833px;font-family:Angelin;-inkscape-font-specification:'Angelin, Normal';font-variant-ligatures:normal;font-variant-caps:normal;font-variant-numeric:normal;font-variant-east-asian:normal;stroke-width:0.103545"
         id="path852"
         sodipodi:nodetypes="cczzccscscccssccccscscsccccsccssccs" />
    </g>
  </g>
</svg>
