<?xml version="1.0" encoding="UTF-8" standalone="no"?>
<svg
   xmlns:dc="http://purl.org/dc/elements/1.1/"
   xmlns:cc="http://creativecommons.org/ns#"
   xmlns:rdf="http://www.w3.org/1999/02/22-rdf-syntax-ns#"
   xmlns:svg="http://www.w3.org/2000/svg"
   xmlns="http://www.w3.org/2000/svg"
   xmlns:sodipodi="http://sodipodi.sourceforge.net/DTD/sodipodi-0.dtd"
   xmlns:inkscape="http://www.inkscape.org/namespaces/inkscape"
   width="272mm"
   height="66mm"
   viewBox="0 0 272 66"
   version="1.1"
   id="svg1004"
   inkscape:version="1.0.2 (e86c870879, 2021-01-15, custom)"
   sodipodi:docname="nastie---имя---композиция---4.svg">
  <defs
     id="defs998">
    <inkscape:path-effect
       effect="bspline"
       id="path-effect848"
       is_visible="true"
       lpeversion="1"
       weight="33.333333"
       steps="2"
       helper_size="0"
       apply_no_weight="true"
       apply_with_weight="true"
       only_selected="false" />
    <rect
       x="28.614784"
       y="-57.858463"
       width="106.91238"
       height="46.223881"
       id="rect845" />
    <rect
       x="-0.83972526"
       y="63.539207"
       width="190.05782"
       height="48.704063"
       id="rect850" />
    <rect
       x="19.915953"
       y="5.3619871"
       width="127.15569"
       height="32.171921"
       id="rect2223" />
    <rect
       x="-180.67262"
       y="47.625"
       width="465.66666"
       height="189.74405"
       id="rect1569" />
    <rect
       x="-0.83972526"
       y="63.539207"
       width="190.05782"
       height="48.704063"
       id="rect850-2" />
    <rect
       x="-0.83972526"
       y="63.539207"
       width="190.05782"
       height="48.704063"
       id="rect883" />
    <filter
       inkscape:collect="always"
       style="color-interpolation-filters:sRGB"
       id="filter917"
       x="-0.057001972"
       width="1.1140039"
       y="-0.057001973"
       height="1.1140039">
      <feGaussianBlur
         inkscape:collect="always"
         stdDeviation="0.27094571"
         id="feGaussianBlur919" />
    </filter>
  </defs>
  <sodipodi:namedview
     id="base"
     pagecolor="#ffffff"
     bordercolor="#666666"
     borderopacity="1.0"
     inkscape:pageopacity="0.0"
     inkscape:pageshadow="2"
     inkscape:zoom="2.7531435"
     inkscape:cx="902.16701"
     inkscape:cy="83.209626"
     inkscape:document-units="mm"
     inkscape:current-layer="layer1"
     inkscape:document-rotation="0"
     showgrid="false"
     inkscape:window-width="1722"
     inkscape:window-height="940"
     inkscape:window-x="182"
     inkscape:window-y="61"
     inkscape:window-maximized="0"
     showguides="false"
     inkscape:snap-text-baseline="true"
     inkscape:snap-object-midpoints="false"
     inkscape:snap-center="false" />
  <metadata
     id="metadata1001">
    <rdf:RDF>
      <cc:Work
         rdf:about="">
        <dc:format>image/svg+xml</dc:format>
        <dc:type
           rdf:resource="http://purl.org/dc/dcmitype/StillImage" />
        <dc:title></dc:title>
      </cc:Work>
    </rdf:RDF>
  </metadata>
  <g
     inkscape:groupmode="layer"
     id="layer2"
     inkscape:label="Слой 2"
     style="display:inline">
    <path
       style="display:inline;fill:none;stroke:#000000;stroke-width:2.3;stroke-linecap:square;stroke-linejoin:miter;stroke-miterlimit:4;stroke-dasharray:none;stroke-opacity:1"
       d="m 157.4809,54.397921 c 12.52348,-10.130975 14.89495,-25.580003 20.7576,-19.87404 5.86264,5.705963 10.46769,-9.639317 15.36845,-9.923874 4.37428,-0.253988 7.49283,7.841761 12.14752,7.855945 8.60506,0.02622 12.71222,-14.135392 21.783,-14.277676 9.07078,-0.142284 11.37944,12.657089 14.79772,22.774544"
       id="path846"
       sodipodi:nodetypes="czsszc" />
  </g>
  <g
     inkscape:label="Слой 1"
     inkscape:groupmode="layer"
     id="layer1"
     style="display:inline">
    <g
       aria-label="N A S T I "
       transform="matrix(1.8676038,0,0,2.5058491,1.5535497,-139.96453)"
       id="text848"
       style="font-style:normal;font-weight:normal;font-size:16.9333px;line-height:1.25;font-family:sans-serif;white-space:pre;shape-inside:url(#rect850);fill:#ffffff;fill-opacity:1;stroke:none;stroke-width:0.462253">
      <path
         d="M 11.267466,56.041206 H 9.7096022 l 0,19.488312 -6.3161209,-7.518385 H 0.32855395 V 79.898309 H 1.7848178 v -7.162785 l 6.1637212,7.162785 h 3.318927 z"
         style="font-style:normal;font-variant:normal;font-weight:normal;font-stretch:normal;font-size:16.9333px;font-family:Aafia;-inkscape-font-specification:'Aafia, Normal';font-variant-ligatures:normal;font-variant-caps:normal;font-variant-numeric:normal;font-variant-east-asian:normal;fill:#ffffff;stroke-width:0.462253"
         id="path955"
         sodipodi:nodetypes="ccccccccccc" />
      <path
         d="m 20.229032,70.92366 1.456264,4.216392 h -2.912527 z m 4.419592,-2.895594 H 19.8057 l -4.114792,11.870243 h 0.03387 1.38853 l 1.117598,-3.217327 h 3.996259 l 1.117598,3.217327 h 5.418656 z"
         style="font-style:normal;font-variant:normal;font-weight:normal;font-stretch:normal;font-size:16.9333px;font-family:Aafia;-inkscape-font-specification:'Aafia, Normal';font-variant-ligatures:normal;font-variant-caps:normal;font-variant-numeric:normal;font-variant-east-asian:normal;fill:#ffffff;stroke-width:0.462253"
         id="path957" />
      <path
         d="m 44.464439,74.090188 c -0.423333,-0.592666 -1.049865,-1.083732 -1.89653,-1.507064 -0.846665,-0.423333 -1.913463,-0.778932 -2.573862,-1.134531 -0.660398,-0.338666 -0.914398,-0.694266 -0.999064,-0.999065 -0.08467,-0.304799 0.01693,-0.575732 0.304799,-0.778932 0.541866,-0.389466 1.74413,-0.575732 3.522127,0.863599 l 1.100664,-1.185331 C 42.195376,67.8926 40.806846,67.6894 39.655381,67.6386 c -1.28693,-0.0508 -2.302928,0.08467 -3.28506,0.423333 -0.982131,0.338666 -1.913463,0.897465 -2.489195,1.659463 -0.558799,0.745065 -0.761998,1.69333 -0.711198,2.489195 0.03387,0.778932 0.304799,1.422397 0.778931,1.94733 0.457199,0.524932 1.117598,0.914398 1.913463,1.253064 0.812799,0.338666 1.79493,0.609599 2.370662,0.914398 0.575732,0.287866 0.745065,0.592666 0.812799,0.897465 0.0508,0.304799 -0.01693,0.592666 -0.338666,0.812798 -0.609599,0.4064 -2.065863,0.541866 -4.453458,-1.185331 l -1.066798,1.219198 c 0.406399,0.338666 1.79493,1.710263 4.792124,2.184396 0.186266,0.03387 0.389466,0.0508 0.592665,0.06773 1.388531,0.118533 2.810928,-0.2032 3.826926,-0.626532 1.015998,-0.423333 1.64253,-0.914398 2.065863,-1.54093 0.406399,-0.626533 0.609598,-1.371598 0.609598,-2.082796 0,-0.728132 -0.203199,-1.388531 -0.609598,-1.981196 z"
         style="font-style:normal;font-variant:normal;font-weight:normal;font-stretch:normal;font-size:16.9333px;font-family:Aafia;-inkscape-font-specification:'Aafia, Normal';font-variant-ligatures:normal;font-variant-caps:normal;font-variant-numeric:normal;font-variant-east-asian:normal;fill:#ffffff;stroke-width:0.462253"
         id="path959" />
      <path
         d="m 59.36962,68.044999 h -2.133596 -5.198523 -2.133596 v 1.523997 h 2.133596 v 10.36318 h 5.198523 v -10.36318 h 2.133596 z"
         style="font-style:normal;font-variant:normal;font-weight:normal;font-stretch:normal;font-size:16.9333px;font-family:Aafia;-inkscape-font-specification:'Aafia, Normal';font-variant-ligatures:normal;font-variant-caps:normal;font-variant-numeric:normal;font-variant-east-asian:normal;fill:#ffffff;stroke-width:0.462253"
         id="path961" />
      <path
         d="m 69.194793,68.011133 h -4.82599 v 11.887176 h 4.82599 z"
         style="font-style:normal;font-variant:normal;font-weight:normal;font-stretch:normal;font-size:16.9333px;font-family:Aafia;-inkscape-font-specification:'Aafia, Normal';font-variant-ligatures:normal;font-variant-caps:normal;font-variant-numeric:normal;font-variant-east-asian:normal;fill:#ffffff;stroke-width:0.462253"
         id="path963" />
    </g>
    <g
       aria-label="e"
       transform="matrix(9.6576499,0,0,9.6576499,-130.99634,533.52821)"
       id="text843"
       style="font-style:normal;font-weight:normal;font-size:10.5833px;line-height:1.25;font-family:sans-serif;white-space:pre;shape-inside:url(#rect845);fill:#000000;fill-opacity:1;stroke:none;stroke-width:0.103545">
      <path
         d="m 28.93046,-49.027901 c -0.175699,0 -0.334173,-0.0534 -0.475422,-0.160196 -0.227375,-0.192925 -0.270444,-0.34762 -0.304434,-0.531404 -0.03399,-0.183785 -0.02796,-0.373394 -0.0049,-0.566464 0.02311,-0.19307 0.100851,-0.386964 0.304113,-0.721137 0.199815,-0.337618 0.446139,-0.611502 0.738971,-0.821653 0.254936,-0.182589 0.50815,-0.273884 0.759641,-0.273884 0.21015,0 0.354844,0.06373 0.434081,0.191202 0.03445,0.05512 0.05168,0.120577 0.05168,0.19637 0,0.06201 -0.01206,0.130915 -0.03617,0.206705 -0.103353,0.299723 -0.342786,0.596 -0.718301,0.888832 -0.199815,0.148139 -0.428913,0.256659 -0.687294,0.325561 -0.172254,0.334173 -0.258381,0.594276 -0.258381,0.780311 0,0.175699 0.06718,0.263549 0.201537,0.263549 0.08957,0 0.217041,-0.04134 0.382405,-0.124023 0.189479,-0.103353 0.364994,-0.232835 0.59804,-0.426077 l 0.156439,0.167731 c -0.430635,0.403075 -0.811317,0.604612 -1.142045,0.604612 z m 0.253213,-1.591629 c 0.130913,-0.05857 0.251491,-0.129191 0.361734,-0.211873 0.330728,-0.254936 0.539156,-0.50815 0.625283,-0.759641 0.03101,-0.08268 0.04651,-0.141248 0.04651,-0.175699 0,-0.02756 -0.01034,-0.04134 -0.03101,-0.04134 -0.06546,0 -0.222211,0.148139 -0.470254,0.444416 -0.182589,0.21704 -0.360011,0.465086 -0.532266,0.744138 z"
         style="font-style:normal;font-variant:normal;font-weight:normal;font-stretch:normal;font-size:10.5833px;font-family:Angelin;-inkscape-font-specification:'Angelin, Normal';font-variant-ligatures:normal;font-variant-caps:normal;font-variant-numeric:normal;font-variant-east-asian:normal;stroke-width:0.103545"
         id="path852"
         sodipodi:nodetypes="cczzccscscccsscccccsccssccs" />
    </g>
    <path
       style="fill:#000000;stroke:none;stroke-width:1"
       d="m 241.11762,36.301068 3.94044,0.443528 c 1.2812,-2.246208 2.06303,-4.299851 1.5973,-6.872659 -0.22412,-1.238318 -1.01722,-2.754688 -2.44722,-2.837897 -1.43059,-0.08327 -2.43409,1.239952 -2.90306,2.425695 -0.94149,2.3804 -0.9229,4.414234 -0.18746,6.841333 m -2.69276,1.977114 c 0.44662,-0.551776 1.57307,-1.187126 1.67656,-1.904269 0.11027,-0.764208 -0.70797,-1.777777 -1.07352,-2.398246 -1.09711,-1.862205 -3.79651,-6.247901 -6.47853,-5.776547 -2.07789,0.365181 -0.16319,3.860051 0.43362,4.716106 0.59352,0.851326 1.26808,1.682616 1.96974,2.446927 0.99318,1.081844 2.11657,2.309749 3.47213,2.916029 m 7.3204,-0.886184 c 0,0 2.11648,2.242261 1.7894,1.951527 0.82302,0.34274 5.7056,-2.40212 7.41504,-4.046155 1.70945,-1.644034 3.02856,-4.970954 2.30787,-5.874621 -0.72102,-0.903835 -3.37204,-1.184066 -6.28984,1.010109 -2.9178,2.194176 -4.62434,4.23018 -5.5132,6.704747 m -8.12061,5.768217 0.44353,-3.940438 c -2.28237,-1.301924 -5.56933,-2.150698 -8.17927,-1.612383 -1.2337,0.254352 -2.7558,1.022284 -2.83959,2.462304 -0.0833,1.430772 1.24005,2.43366 2.42569,2.903061 2.46401,0.975656 5.62396,0.952819 8.14964,0.187456 m 10.38845,-2.821055 -0.44353,3.940438 c 2.27501,1.329283 5.55966,2.146113 8.17634,1.63839 1.23296,-0.239167 2.79948,-1.066515 2.886,-2.483424 0.081,-1.329176 -1.1797,-2.3881 -2.28283,-2.875253 -2.43835,-1.076637 -5.82241,-1.010376 -8.33598,-0.220151 m -8.41133,5.513818 -1.49867,-1.878843 c -2.61268,0.316823 -5.93125,3.038102 -7.50968,5.045256 -0.56519,0.718684 -1.64568,2.27511 -0.90487,3.203881 0.74044,0.928161 2.49886,0.221804 3.32481,-0.170164 2.29578,-1.089384 5.70903,-3.736735 6.58841,-6.20013 m 7.3204,-0.886184 -1.87884,1.498676 c 0.31232,2.619005 1.65211,4.402566 3.84598,6.191612 0.7839,0.639384 2.48157,1.861523 3.49459,1.023723 1.01286,-0.838039 0.24122,-2.826253 -0.18559,-3.760985 -1.41849,-3.081038 -2.79209,-4.066322 -5.27614,-4.953026 m -6.82084,1.512465 c -0.72518,2.746212 -2.01983,5.258829 -1.45081,8.197452 0.24881,1.284589 1.00536,2.791267 2.48346,2.886195 1.45566,0.09332 2.46892,-1.249461 2.95151,-2.464458 1.07954,-2.718484 0.42651,-5.340692 0.33155,-8.13342 z"
       id="path876"
       sodipodi:nodetypes="ccsssccsssssccczczcccccccccccccccsccccccccccccccc" />
    <path
       id="path878"
       style="opacity:1;fill:#00ff00;fill-opacity:1;stroke-width:0.800001;stroke-linecap:round;stroke-linejoin:round;stroke-dashoffset:10.8095;filter:url(#filter917)"
       d="m 247.88069,43.541446 a 5.7039237,5.7039237 0 0 1 -7.12697,3.39248 5.7039237,5.7039237 0 0 1 -3.69246,-6.976268 5.7039237,5.7039237 0 0 1 6.81294,-3.985769 5.7039237,5.7039237 0 0 1 4.27187,6.637302" />
  </g>
</svg>
