<?xml version="1.0" encoding="UTF-8" standalone="no"?>
<svg
   xmlns:dc="http://purl.org/dc/elements/1.1/"
   xmlns:cc="http://creativecommons.org/ns#"
   xmlns:rdf="http://www.w3.org/1999/02/22-rdf-syntax-ns#"
   xmlns:svg="http://www.w3.org/2000/svg"
   xmlns="http://www.w3.org/2000/svg"
   xmlns:sodipodi="http://sodipodi.sourceforge.net/DTD/sodipodi-0.dtd"
   xmlns:inkscape="http://www.inkscape.org/namespaces/inkscape"
   width="190mm"
   height="55mm"
   viewBox="0 0 190 55"
   version="1.1"
   id="svg1004"
   inkscape:version="1.0.2 (e86c870879, 2021-01-15, custom)"
   sodipodi:docname="NASTIE - ИМЯ - КОМПОЗИЦИЯ - 2.svg">
  <defs
     id="defs998">
    <rect
       x="19.915953"
       y="5.3619871"
       width="127.15569"
       height="32.171921"
       id="rect2223" />
    <rect
       x="-180.67262"
       y="47.625"
       width="465.66666"
       height="189.74405"
       id="rect1569" />
  </defs>
  <sodipodi:namedview
     id="base"
     pagecolor="#ffffff"
     bordercolor="#666666"
     borderopacity="1.0"
     inkscape:pageopacity="0.0"
     inkscape:pageshadow="2"
     inkscape:zoom="0.67727465"
     inkscape:cx="366.92549"
     inkscape:cy="143.6513"
     inkscape:document-units="mm"
     inkscape:current-layer="layer1"
     inkscape:document-rotation="0"
     showgrid="false"
     inkscape:window-width="1513"
     inkscape:window-height="909"
     inkscape:window-x="206"
     inkscape:window-y="91"
     inkscape:window-maximized="0" />
  <metadata
     id="metadata1001">
    <rdf:RDF>
      <cc:Work
         rdf:about="">
        <dc:format>image/svg+xml</dc:format>
        <dc:type
           rdf:resource="http://purl.org/dc/dcmitype/StillImage" />
        <dc:title></dc:title>
      </cc:Work>
    </rdf:RDF>
  </metadata>
  <g
     inkscape:label="Слой 1"
     inkscape:groupmode="layer"
     id="layer1">
    <g
       aria-label="E "
       transform="matrix(3.3171818,0,0,3.3171818,104.57806,-4.8787743)"
       id="text2221"
       style="font-style:normal;font-variant:normal;font-weight:normal;font-stretch:normal;font-size:10.5833px;line-height:1.25;font-family:a_BosaNova;-inkscape-font-specification:'a_BosaNova, Normal';font-variant-ligatures:normal;font-variant-caps:normal;font-variant-numeric:normal;font-variant-east-asian:normal;white-space:pre;shape-inside:url(#rect2223);fill:#000000;fill-opacity:1;stroke:none;stroke-width:0.301461">
      <path
         d="m 20.346745,12.460379 c 0.126999,0.747887 0.483304,1.372301 1.068913,1.873244 0.592665,0.493887 1.266468,0.740831 2.02141,0.740831 v 0.99483 c -1.128885,0 -2.091966,-0.402165 -2.889241,-1.206496 -0.797275,-0.804331 -1.195913,-1.770939 -1.195913,-2.899824 0,-1.135941 0.39511,-2.1025486 1.18533,-2.8998239 0.797275,-0.8043307 1.763883,-1.2064961 2.899824,-1.2064961 v 0.9948301 c -0.761997,0 -1.435801,0.2469437 -2.02141,0.740831 -0.585609,0.4938869 -0.941914,1.1183019 -1.068913,1.8732439 h 1.869973 v 0.99483 z"
         style="font-style:normal;font-variant:normal;font-weight:normal;font-stretch:normal;font-size:10.5833px;font-family:a_BosaNova;-inkscape-font-specification:'a_BosaNova, Normal';font-variant-ligatures:normal;font-variant-caps:normal;font-variant-numeric:normal;font-variant-east-asian:normal;stroke:none;stroke-width:0.391899;stroke-linecap:square;stroke-linejoin:round;stroke-miterlimit:4;stroke-dasharray:none;stroke-opacity:0.83642;paint-order:normal"
         id="path2227"
         sodipodi:nodetypes="ccccsscccscccc" />
    </g>
    <g
       aria-label="N A S T I E"
       transform="matrix(3.4531677,0,0,3.4531677,618.05757,-149.84498)"
       id="text1567"
       style="font-style:normal;font-weight:normal;font-size:10.5833px;line-height:1.25;font-family:sans-serif;white-space:pre;shape-inside:url(#rect1569);fill:#ffffff;fill-opacity:1;stroke:none;stroke-width:0.289588">
      <path
         d="m -174.4628,52.507571 v 4.921235 h -2.10607 v -7.842225 h 2.01082 l 2.23308,2.846907 c 0.2266,-0.722372 0.36932,-1.528614 0,-2.846907 h 2.07433 v 7.842225 h -2.07433 v -2.201327 z"
         style="font-style:normal;font-variant:normal;font-weight:normal;font-stretch:normal;font-size:10.5833px;font-family:a_Rewinder;-inkscape-font-specification:'a_Rewinder, Normal';font-variant-ligatures:normal;font-variant-caps:normal;font-variant-numeric:normal;font-variant-east-asian:normal;fill:#ffffff;stroke-width:0.289588"
         id="path1573"
         sodipodi:nodetypes="cccccccccccc" />
      <path
         d="m -159.38011,49.586581 0.47625,1.767411 -3.18159,-0.01058 c -0.85372,0 -1.50636,0.105833 -1.95791,0.317499 -0.57149,0.268111 -0.98777,0.761998 -1.24883,1.481662 h 2.00025 v -1.471078 h 2.11666 v 5.757315 h -2.11666 v -2.476492 h -2.21191 c 0.0423,0.853719 0.31044,1.679217 0.80433,2.476492 l -1.67216,1.100663 c -0.83961,-1.284107 -1.25942,-2.585853 -1.25942,-3.905238 0,-1.559273 0.44803,-2.786935 1.34408,-3.682988 0.90311,-0.903108 2.13431,-1.354662 3.69358,-1.354662 z"
         style="font-style:normal;font-variant:normal;font-weight:normal;font-stretch:normal;font-size:10.5833px;font-family:a_Rewinder;-inkscape-font-specification:'a_Rewinder, Normal';font-variant-ligatures:normal;font-variant-caps:normal;font-variant-numeric:normal;font-variant-east-asian:normal;fill:#ffffff;stroke-width:0.289588"
         id="path1575"
         sodipodi:nodetypes="ccccccccccccccsccc" />
      <path
         d="m -141.04509,51.375158 h -13.32735 c -0.26811,0 -0.40216,0.08819 -0.40216,0.264583 0,0.169333 0.23283,0.486832 0.6985,0.952497 0.65616,0.670275 1.08302,1.13594 1.28057,1.396995 0.46567,0.606776 0.6985,1.15358 0.6985,1.640412 0,0.712609 -0.28575,1.210024 -0.85724,1.492245 -0.40923,0.204611 -1.00895,0.306916 -1.79917,0.306916 h -1.87324 l -0.51858,-1.809744 h 2.28599 c 0.24695,0 0.37042,-0.09525 0.37042,-0.28575 0,-0.183443 -0.22931,-0.500942 -0.68792,-0.952497 -0.65616,-0.656164 -1.07596,-1.100662 -1.25941,-1.333495 -0.45861,-0.585609 -0.68791,-1.132413 -0.68791,-1.640412 0,-1.213551 0.80786,-1.820327 2.42357,-1.820327 h 13.17918 z"
         style="font-style:normal;font-variant:normal;font-weight:normal;font-stretch:normal;font-size:10.5833px;font-family:a_Rewinder;-inkscape-font-specification:'a_Rewinder, Normal';font-variant-ligatures:normal;font-variant-caps:normal;font-variant-numeric:normal;font-variant-east-asian:normal;fill:#ffffff;stroke-width:0.289588"
         id="path1577"
         sodipodi:nodetypes="cssccscsccssccsscc" />
      <path
         d="m -143.59866,57.428806 h -2.10607 v -6.120581 h 2.10607 z"
         style="font-style:normal;font-variant:normal;font-weight:normal;font-stretch:normal;font-size:10.5833px;font-family:a_Rewinder;-inkscape-font-specification:'a_Rewinder, Normal';font-variant-ligatures:normal;font-variant-caps:normal;font-variant-numeric:normal;font-variant-east-asian:normal;fill:#ffffff;stroke-width:0.289588"
         id="path1579"
         sodipodi:nodetypes="ccccc" />
    </g>
    <path
       id="path1600-0"
       style="display:inline;fill:#000000;stroke-width:0.999999"
       d="m 136.53525,38.25072 c -0.56933,-0.45918 -0.16618,-1.006007 0.59097,-1.451492 l 0.44602,-0.262422 -0.45927,-0.484102 c -1.08294,-1.141487 -1.0991,-2.029673 -0.0572,-3.142984 l 0.40138,-0.428891 -0.58084,-0.54563 c -0.87617,-0.823054 -0.74406,-1.336357 0.39919,-1.551073 0.6404,-0.120275 2.46517,0.03132 3.25785,0.270655 0.1759,0.05311 -0.11195,-0.222979 -0.63969,-0.613536 -2.46073,-1.821104 -2.84301,-3.105459 -0.88407,-2.970276 l 0.80432,0.05551 -1.1e-4,-0.852178 c -1.4e-4,-1.239183 0.70018,-1.935316 1.94695,-1.935316 h 0.85961 l -0.004,-0.915893 c 0.0367,-0.919644 0.10589,-0.960053 0.54089,-0.967675 0.65762,-0.06249 2.01138,1.252641 2.88338,2.801118 0.28317,0.502827 0.46388,0.770875 0.40159,0.59566 -1.24153,-3.492171 -0.18651,-6.673952 1.32244,-3.988298 0.15323,0.272722 0.2079,0.252774 0.72857,-0.265828 0.92132,-0.917666 2.01222,-0.934828 2.90488,-0.0457 l 0.5133,0.511258 0.5603,-0.614462 c 0.82947,-0.909632 1.36667,-0.792704 1.57515,0.342847 0.11651,0.634653 -0.035,2.528919 -0.26053,3.257121 -0.0554,0.178862 0.2201,-0.104869 0.61221,-0.63051 1.81473,-2.432699 3.121,-2.831781 2.9821,-0.911067 l -0.0557,0.770636 0.74076,-2.38e-4 c 1.29034,-5.18e-4 2.11935,0.826214 2.11935,2.11328 v 0.740389 c 0,0 0.61445,-0.02993 0.88878,-0.0026 0.657,0.06106 1.02943,0.07537 1.14485,0.462376 0.12393,0.507193 -1.4617,2.081248 -3.01635,2.949795 -0.50483,0.282039 -0.77394,0.462033 -0.59803,0.399989 3.33951,-1.177856 6.44367,-0.3535 4.23541,1.124774 l -0.46683,0.312509 0.45533,0.480062 c 1.07873,1.137305 1.09383,2.027063 0.0533,3.138945 l -0.40138,0.428891 0.58084,0.54563 c 0.6427,0.603736 0.71491,0.909212 0.31026,1.312265 -0.28622,0.285076 -3.23385,0.275573 -3.9673,-0.0128 -0.1759,-0.06916 0.11195,0.196076 0.63968,0.589418 2.45805,1.832077 2.81904,2.99947 0.92754,2.99947 h -0.84758 v 0.812357 c 0,1.196506 -0.71801,1.895495 -1.94705,1.895495 h -0.85961 c 0,0 0.0225,0.456067 0.004,0.915891 -0.0183,0.459825 -0.056,1.006012 -0.49177,1.053302 -0.43577,0.04729 -2.0605,-1.338268 -2.9325,-2.88674 -0.28317,-0.50283 -0.46388,-0.770877 -0.40159,-0.595663 1.24153,3.492168 0.18651,6.673953 -1.32244,3.988298 -0.15326,-0.272773 -0.20766,-0.253015 -0.7267,0.26397 -0.92247,0.918797 -2.01341,0.937358 -2.90489,0.04941 l -0.51516,-0.513116 -0.56031,0.614458 c -0.56551,0.620181 -0.83489,0.723331 -1.23294,0.472133 v -8e-6 c -0.45856,-0.289377 -0.50689,-2.699112 -0.0817,-4.072101 0.0554,-0.178861 -0.22011,0.104869 -0.61222,0.63051 -1.82379,2.444855 -3.00633,2.808256 -3.00633,0.923857 v -0.844212 h -0.81559 c -1.20127,0 -1.90305,-0.715154 -1.90305,-1.939331 v -0.856189 c 0,0 -0.64757,0.02647 -0.91954,0.004 -0.27196,-0.02244 -0.52048,-0.06015 -0.70755,-0.120733 -0.18708,-0.06059 -0.64359,-0.180588 -0.31904,-0.703065 0.32455,-0.522476 3.48357,-2.991764 3.48357,-2.991764 -0.25786,-0.04975 -4.24658,0.748765 -4.81591,0.289584 z m 5.37547,-0.365658 c -0.3429,0.312812 -0.77132,0.704621 -1.11257,1.008326 -0.34126,0.303704 -3.35215,2.651322 -1.9745,2.646245 0.97275,-0.0036 1.24321,-0.145494 1.53567,-0.805751 0.3842,-0.867351 1.70964,-2.266736 3.04679,-3.216771 0.61887,-0.439714 1.00637,-0.758327 0.86109,-0.708032 -1.36862,0.473801 -4.39308,0.51141 -5.67763,0.0706 -0.70939,-0.243433 -0.95963,-0.179735 -1.61443,0.410939 -1.2427,1.121005 4.13331,0.432686 4.75178,0.278318 m 5.68067,9.449335 c 0.27055,-0.411294 0.2705,-0.495303 -0.001,-1.932799 -0.33046,-1.748655 -0.15664,-3.992581 0.40774,-5.263373 0.43506,-0.979631 0.41829,-1.036135 -0.47087,-1.58668 -0.45917,-0.284296 -0.94093,-0.754506 -1.15806,-1.130288 -0.20449,-0.353907 -0.49846,-0.676457 -0.65325,-0.716775 -0.1548,-0.04032 -0.24578,-0.01583 -0.20219,0.05443 0.10638,0.171444 -0.38301,0.348844 -0.59772,0.216672 -0.0936,-0.05762 -0.12541,-0.03259 -0.0706,0.05562 0.0548,0.08821 -0.27598,0.39987 -0.73492,0.692567 -4.04094,2.577192 -5.21819,6.841962 -1.88866,6.841962 h 0.96937 l -0.10029,0.955711 c -0.18356,1.749219 1.10451,0.996558 2.76835,-1.617633 1.08177,-1.699648 1.28202,-1.636279 0.85856,0.271692 -0.68244,3.074865 -0.20543,4.799408 0.87376,3.15889 z m 3.88252,0.02433 c 0.57902,-0.624649 0.9281,-0.712679 1.06928,-0.269642 0.0514,0.161358 0.27004,0.458593 0.48584,0.660522 0.9965,0.932447 1.25023,-1.084566 0.4992,-3.968371 -0.11407,-0.438028 -0.15283,-0.762823 -0.0861,-0.721764 0.0667,0.04106 0.14729,-0.003 0.17907,-0.09805 0.0318,-0.09499 0.39597,0.358989 0.80927,1.008852 0.80174,1.260592 2.24246,2.733453 2.564,2.621185 0.12847,-0.04485 0.18502,-0.400033 0.16666,-1.046818 l -0.0278,-0.978926 h 0.99736 c 1.3562,0 1.85681,-0.471924 1.85681,-1.750384 0,-1.964968 -1.82777,-3.999706 -5.51499,-6.139487 -0.25443,-0.147647 -0.26448,-0.252955 -0.098,-1.026274 0.37152,-1.725427 -0.41493,-3.57268 -1.91695,-4.502685 -0.88183,-0.546001 -0.88096,-0.542012 -0.40122,-1.829257 0.60448,-1.621977 0.71195,-4.343316 0.23032,-5.832124 -0.60623,-1.873973 -2.32002,-2.543484 -3.42806,-1.339205 -0.60412,0.656593 -0.95372,0.753463 -1.09696,0.303942 -0.0515,-0.161358 -0.27005,-0.458592 -0.48585,-0.660519 -0.9965,-0.932447 -1.25022,1.084564 -0.4992,3.968368 0.11408,0.438032 0.15284,0.762825 0.0861,0.721763 -0.0667,-0.04106 -0.14729,0.0031 -0.17909,0.09806 -0.0318,0.09499 -0.39595,-0.358993 -0.80927,-1.008851 -0.7983,-1.255196 -2.23995,-2.731444 -2.56399,-2.62551 -0.23558,0.07702 -0.33483,0.783254 -0.20611,1.46666 0.0738,0.39169 0.24269,0.573128 0.77268,0.829944 1.07419,0.520524 2.25568,1.69333 3.3894,3.364525 1.22854,1.810943 1.26489,2.043663 0.40205,2.57386 -1.30358,0.801029 -2.06168,2.691263 -1.74546,4.352108 0.0823,0.432146 0.1136,0.843741 0.0696,0.914656 -0.044,0.07092 -0.0225,0.152978 0.0478,0.182363 0.0703,0.02939 0.29722,0.329877 0.50436,0.667763 0.20713,0.337886 0.76848,0.864021 1.24744,1.169192 0.62388,0.397503 0.84695,0.629833 0.7866,0.819232 -0.0463,0.145407 -0.19432,0.562401 -0.32885,0.926654 -1.67214,4.527305 0.72564,9.843544 3.22406,7.148225 z m 10.43261,-5.818964 c 0,-0.512393 -1.0486,-1.52453 -2.58359,-2.493767 -1.70642,-1.077475 -1.6428,-1.276931 0.27277,-0.855151 3.26796,0.719555 4.85032,0.21357 2.99572,-0.957925 l -0.70559,-0.445695 0.59152,-0.530918 c 2.99859,-2.691358 -2.47843,-5.122088 -7.21845,-3.203585 l -0.65062,0.263341 0.16027,0.697635 c 0.10669,0.464364 0.10704,0.956529 10e-4,1.471874 l -0.15923,0.774234 1.20727,0.847788 c 1.61469,1.133879 3.34151,2.7933 3.92996,3.776563 0.51218,0.855815 0.62762,0.926537 1.55921,0.955241 0.499,0.01537 0.59971,-0.03494 0.59971,-0.299635 z m -18.35866,-4.631536 c 0.4661,-0.0941 1.13824,-0.285887 1.49365,-0.426188 l 0.6462,-0.255094 -0.15586,-0.757798 c -0.10403,-0.505864 -0.10051,-0.998669 0.0106,-1.482311 l 0.16646,-0.724511 -0.81989,-0.305542 c -3.56165,-1.327299 -7.92998,-0.332318 -7.92998,1.806222 0,1.795848 3.18423,2.832586 6.58881,2.145222 z m 2.8112,-4.685456 c 0.27834,-0.393322 0.79321,-0.912991 1.14415,-1.154819 0.82084,-0.565632 0.82131,-0.562254 -0.30586,-2.240693 -1.67257,-2.490599 -3.20111,-3.679822 -4.90487,-3.816041 -1.4135,-0.113011 -1.97513,0.415631 -1.97513,1.859145 v 0.965523 l -0.95951,-0.09989 c -1.75619,-0.182829 -1.00053,1.100129 1.62407,2.757369 1.70642,1.077475 1.64279,1.27693 -0.27277,0.855152 -3.18915,-0.702201 -4.88277,-0.188004 -3.06546,0.930697 0.50133,0.308614 0.56571,0.312595 1.24139,0.07677 1.12417,-0.392356 5.40924,-0.175521 6.32815,0.320222 0.62166,0.335383 0.57437,0.354099 1.14584,-0.453431 z m 10.03023,-0.613655 c 4.00505,-2.694749 4.95447,-7.060437 1.43084,-6.579388 l -0.7196,0.09824 0.10624,-1.03288 c 0.18793,-1.826976 -1.06138,-1.129939 -2.761,1.540463 -1.08177,1.69965 -1.28201,1.636281 -0.85856,-0.271689 0.62955,-2.836516 0.33761,-4.454976 -0.6195,-3.434452 -0.5744,0.612452 -0.57963,0.66112 -0.24193,2.247794 0.33256,1.562432 0.0132,5.001426 -0.55901,6.019863 -0.11044,0.196568 0.0147,0.351811 0.56245,0.697816 0.38747,0.244753 0.93083,0.764838 1.20746,1.155746 l 0.50298,0.71074 0.49505,-0.253327 c 0.27228,-0.13933 0.92685,-0.543847 1.45458,-0.898928 z m -2.98136,-3.56924 c 0.20046,-0.284722 0.39808,-0.517677 0.43916,-0.517677 0.13822,0 -0.23628,0.581573 -0.52128,0.809527 -0.20032,0.160229 -0.17647,0.07545 0.0821,-0.29185 z m 0.66252,-0.805001 c 0,-0.163713 1.09609,-1.227024 1.17035,-1.135357 0.0307,0.03781 -0.22016,0.33755 -0.55732,0.666076 -0.33717,0.328526 -0.61303,0.539703 -0.61303,0.469281 z m 1.43928,-1.361249 c 0,-0.03681 0.18877,-0.190122 0.41949,-0.340697 0.23072,-0.150572 0.37064,-0.19504 0.31093,-0.09882 -0.1141,0.183879 -0.73042,0.55474 -0.73042,0.439517 z m 7.63617,6.060893 c 0.48096,-0.436334 0.45371,-0.722195 -0.08,-0.838668 -0.24188,-0.05279 -0.53984,-0.127446 -0.66214,-0.165903 -0.25518,-0.08025 -3.10128,0.379576 -3.66075,0.591442 -0.24206,0.09166 -0.33845,0.08551 -0.2745,-0.01754 0.0542,-0.08734 -0.03,-0.158805 -0.18713,-0.158805 -0.15711,0 0.17968,-0.268794 0.74842,-0.59732 1.19247,-0.688815 3.10697,-2.456588 3.0025,-2.772389 -0.0968,-0.292713 -1.48175,-0.37597 -1.7118,-0.102907 -0.096,0.113997 -0.46498,0.65062 -0.81988,1.192497 -0.6245,0.953522 -1.78933,2.072713 -3.11137,2.989462 -0.35183,0.243965 -0.50661,0.398726 -0.34397,0.343911 1.30826,-0.440916 4.50617,-0.416142 5.73134,0.0444 0.40826,0.153465 0.80029,0.008 1.36924,-0.508184 z"
       sodipodi:nodetypes="sscsscssscscsscccssssscsssssccscccssscsscssssscssczzssssscsssssscssczzzszszsscssccscsssssscscsssccscssscssscsssssssssssssssssssssssssssscssscsscsccsssccssssscsssssscscssssssssscsssssssscsssssssssssssssssssssssssssssss" />
    <path
       style="display:inline;fill:#ffffff;stroke:none;stroke-width:0.264582"
       d="m 149.53016,47.684924 c -0.38249,-0.133712 -0.98912,-0.791516 -1.27898,-1.386853 -0.40422,-0.830231 -0.58015,-1.652931 -0.61911,-2.895213 -0.0425,-1.354903 0.0746,-2.133362 0.52086,-3.463714 0.20778,-0.61934 0.30217,-1.004169 0.27387,-1.116495 -0.0264,-0.104936 -0.21012,-0.288035 -0.47365,-0.472161 -0.79701,-0.556851 -1.21102,-0.946528 -1.63573,-1.5396 -0.41593,-0.580796 -0.42351,-0.599712 -0.48368,-1.207379 -0.10374,-1.047625 -0.0708,-1.81329 0.10283,-2.38944 0.29778,-0.988151 0.76182,-1.649441 1.59502,-2.273022 0.72719,-0.54425 0.75875,-0.665438 0.37044,-1.422688 -0.36775,-0.717159 -1.28292,-2.019306 -1.94621,-2.769142 -0.67243,-0.760164 -1.34788,-1.330033 -2.08321,-1.75755 -0.33057,-0.192192 -0.66108,-0.429549 -0.73447,-0.527462 -0.19077,-0.254493 -0.24935,-1.176708 -0.0977,-1.537334 0,0 0.0567,-0.180718 0.12912,-0.208135 0.0724,-0.02742 0.20999,0.0626 0.20999,0.0626 0.34008,0.101382 1.51925,1.370639 2.42119,2.690422 0.59874,0.876128 0.63835,0.913627 0.83741,0.792735 0.17838,-0.108337 0.17858,-0.106004 -0.13726,-1.582582 -0.2783,-1.301098 -0.33245,-2.616383 -0.12639,-3.070461 0.17542,-0.386551 0.42895,-0.364107 0.82973,0.07345 0.16808,0.183511 0.35901,0.433311 0.42428,0.555112 0.0828,0.154527 0.16913,0.221457 0.28562,0.221457 0.18552,0 0.59978,-0.280238 0.91935,-0.621922 0.91218,-0.975305 2.38235,-0.534289 3.06644,0.919859 0.72081,1.532213 0.67149,4.36988 -0.11316,6.511353 -0.19504,0.532304 -0.25375,0.985093 -0.14818,1.142832 0.0281,0.04206 0.32261,0.267938 0.65436,0.501944 0.33174,0.234008 0.74871,0.589905 0.92658,0.790885 0.48682,0.550076 0.86247,1.357125 0.99618,2.140196 0.10496,0.61472 0.10389,0.703047 -0.0179,1.476444 -0.0881,0.559459 -0.10755,0.857284 -0.0609,0.930997 0.0377,0.05962 0.4403,0.338678 0.89455,0.62014 3.1677,1.962783 4.77425,3.886728 4.77425,5.71745 0,1.226124 -0.54764,1.657952 -2.1026,1.657952 h -0.75368 l -7.2e-4,0.919403 c -6e-4,0.505671 -0.0297,0.964466 -0.0647,1.01954 -0.20734,0.326421 -1.485,-0.956304 -2.6489,-2.659402 -0.5677,-0.830701 -0.63991,-0.903505 -0.83494,-0.841851 -0.18901,0.05975 -0.18451,0.261574 0.0258,1.157172 0.36995,1.575602 0.45472,2.996505 0.20872,3.498452 -0.0847,0.172899 -0.18869,0.279899 -0.28522,0.29359 -0.19069,0.02704 -0.67861,-0.399372 -0.85821,-0.750033 -0.27418,-0.535302 -0.46318,-0.511141 -1.17264,0.149896 -0.46884,0.436837 -1.03206,0.752469 -1.33536,0.748345 -0.0958,-0.0013 -0.29956,-0.04621 -0.45282,-0.09979 z"
       id="path1602-3"
       sodipodi:nodetypes="ssssssssssssssszssssssssssssssssssssccsssssssscss" />
    <path
       style="display:inline;fill:#a0a0a0;stroke:none;stroke-width:0.264582"
       d="m 140.25903,36.709989 c -1.61398,-0.185452 -2.87892,-0.808544 -3.26843,-1.609984 -0.17993,-0.370205 -0.1908,-0.935897 -0.0247,-1.285215 0.66165,-1.391512 3.53866,-2.095252 6.28598,-1.537605 0.63047,0.127974 2.05642,0.577468 2.17526,0.685696 0.0263,0.0239 0.002,0.2308 -0.053,0.459783 -0.12933,0.534962 -0.13222,1.399418 -0.006,1.993289 l 0.0987,0.466733 -0.55178,0.21194 c -0.74493,0.286138 -1.82079,0.53424 -2.69475,0.621428 -0.8156,0.08137 -1.21038,0.08014 -1.96067,-0.0061 z"
       id="path1604-7" />
    <path
       style="display:inline;fill:#00ffff;stroke:none;stroke-width:0.264582"
       d="m 153.9918,31.998303 c -0.38953,-0.571948 -0.78036,-0.974005 -1.36717,-1.406452 -0.30653,-0.22589 -0.58054,-0.450885 -0.60892,-0.49999 -0.0284,-0.0491 0.0121,-0.232751 0.09,-0.408106 0.3523,-0.793285 0.58081,-2.431869 0.57687,-4.136737 -0.002,-1.04571 -0.0307,-1.410535 -0.15238,-1.967876 -0.21944,-1.004811 -0.2037,-1.350962 0.077,-1.69334 0.12452,-0.15189 0.33003,-0.347829 0.45668,-0.435414 l 0.23027,-0.15925 0.14044,0.139879 c 0.3848,0.383274 0.36132,1.401623 -0.0852,3.696817 -0.21429,1.101391 -0.2309,1.393869 -0.0819,1.442581 0.13015,0.04256 0.38795,-0.270382 1.1102,-1.347617 1.00459,-1.498342 1.70767,-2.258677 2.23142,-2.41315 0.11636,-0.03432 0.18125,-0.0021 0.27167,0.135496 0.10291,0.156429 0.11259,0.296243 0.0724,1.04529 l -0.0464,0.864703 0.29724,-0.05262 c 0.16347,-0.02895 0.57938,-0.05259 0.92422,-0.05255 0.51749,6.5e-5 0.67869,0.02749 0.92299,0.157076 1.03348,0.548159 0.92674,2.067185 -0.27074,3.852999 -0.50511,0.753269 -1.80242,1.965411 -2.81578,2.630932 -0.84283,0.55352 -1.55708,0.958511 -1.68316,0.954376 -0.03,-0.001 -0.16038,-0.157153 -0.2897,-0.347043 z m -0.60371,-4.176936 c 0.2419,-0.281493 0.37445,-0.574269 0.29556,-0.652851 -0.0494,-0.04923 -0.67577,0.747016 -0.67582,0.859158 -8e-5,0.158273 0.1255,0.09014 0.38026,-0.206307 z m 1.19053,-1.40363 c 0.51242,-0.510389 0.60985,-0.662551 0.42422,-0.662551 -0.10483,0 -1.15907,1.015391 -1.15907,1.11635 0,0.176703 0.26801,0.0112 0.73485,-0.453799 z m 1.20532,-1.009932 c 0.29164,-0.210424 0.36825,-0.346508 0.19507,-0.346508 -0.12315,0 -0.67227,0.3971 -0.67227,0.486157 0,0.125619 0.1843,0.07169 0.4772,-0.139649 z"
       id="path1606-7" />
    <path
       style="display:inline;fill:#0000ff;stroke:none;stroke-width:0.264582"
       d="m 145.05954,32.347115 c -0.58466,-0.25974 -1.4334,-0.397961 -3.07671,-0.501057 -1.43726,-0.09017 -2.81802,-0.01447 -3.38711,0.185691 -0.56538,0.198864 -0.92563,0.101337 -1.52388,-0.412547 -0.37166,-0.319259 -0.39276,-0.534275 -0.0696,-0.710105 0.18843,-0.102538 0.39007,-0.122066 1.20174,-0.116377 0.79986,0.0056 1.16955,0.04612 2.05512,0.225233 1.19204,0.241094 1.8113,0.281958 1.8113,0.119521 0,-0.128887 -0.43534,-0.478501 -1.21914,-0.979074 -1.62812,-1.039793 -2.72059,-2.098909 -2.5695,-2.49106 0.0768,-0.199361 0.4661,-0.259803 1.16988,-0.181639 0.36445,0.04048 0.67955,0.0736 0.70022,0.0736 0.0206,0 0.0376,-0.345262 0.0376,-0.767247 0,-0.967895 0.0882,-1.324654 0.41081,-1.661494 0.37914,-0.39586 1.01088,-0.512527 1.88314,-0.347764 1.53122,0.28924 2.90046,1.434646 4.48036,3.747949 0.64994,0.95164 0.88886,1.378955 0.88886,1.589728 0,0.08147 -0.13567,0.24619 -0.33091,0.401751 -0.49446,0.393981 -1.19708,1.110351 -1.56869,1.599399 -0.18125,0.238525 -0.35308,0.432741 -0.38186,0.431593 -0.0288,-0.0012 -0.25897,-0.09389 -0.51154,-0.206099 z"
       id="path1608-7" />
    <path
       style="display:inline;fill:#ff5555;stroke:none;stroke-width:0.264582"
       d="m 160.6013,41.441956 c -0.41112,-0.08188 -0.55304,-0.201696 -0.93632,-0.790496 -0.84677,-1.3008 -2.3676,-2.744021 -4.35833,-4.135919 -0.40227,-0.281263 -0.75565,-0.532463 -0.78528,-0.558223 -0.0297,-0.02576 -0.006,-0.272969 0.0523,-0.549351 0.13225,-0.626172 0.13422,-1.37211 0.005,-1.915913 -0.0544,-0.228985 -0.0762,-0.439359 -0.0486,-0.467502 0.0276,-0.02814 0.37832,-0.17428 0.77922,-0.324752 1.7208,-0.645887 3.6311,-0.784805 5.27259,-0.383428 0.67247,0.164431 1.55494,0.591159 1.92487,0.930797 0.88734,0.814677 0.78968,1.66552 -0.31125,2.711708 l -0.55899,0.531208 0.50991,0.32204 c 0.61171,0.386322 0.75918,0.507635 0.92675,0.762352 0.12455,0.189328 0.12425,0.197328 -0.0122,0.333214 -0.38312,0.381609 -1.40883,0.35875 -3.69446,-0.08233 -1.20875,-0.233266 -1.40087,-0.246409 -1.4574,-0.09969 -0.0603,0.156536 0.051,0.256672 0.97587,0.878082 1.79672,1.20717 2.6028,1.938749 2.78886,2.531128 0.10214,0.325181 -0.34255,0.452489 -1.07263,0.307083 z"
       id="path1610-6" />
    <path
       style="display:inline;fill:#ffffff;stroke:none;stroke-width:0.264582"
       d="m 146.50891,47.490249 c -0.35357,-0.389135 -0.33515,-1.618521 0.0538,-3.586746 0.29397,-1.48781 0.24678,-1.838068 -0.18504,-1.373538 -0.0976,0.104949 -0.50237,0.674807 -0.89955,1.266346 -0.45554,0.678451 -0.929,1.284894 -1.28241,1.642613 -0.70964,0.7183 -1.05712,0.828486 -1.22611,0.388794 -0.0685,-0.178145 -0.061,-0.372386 0.0494,-1.285475 l 0.0398,-0.329597 h -0.66494 c -0.3657,0 -0.82163,-0.03348 -1.01315,-0.07439 -0.95667,-0.204355 -1.43149,-1.081954 -1.16364,-2.150735 0.14691,-0.586242 0.6469,-1.580896 1.08248,-2.153445 0.50609,-0.665238 1.53006,-1.60831 2.46379,-2.269155 0.44777,-0.316903 0.84678,-0.63696 0.88669,-0.711236 0.0461,-0.08587 0.14571,-0.13505 0.27341,-0.13505 0.27125,0 0.42123,-0.06441 0.42123,-0.180895 0,-0.161357 0.24175,-0.108363 0.42954,0.09416 0.0973,0.104951 0.27226,0.331332 0.38876,0.50307 0.30221,0.445506 0.67401,0.797884 1.2578,1.192102 0.71643,0.483785 0.7242,0.514245 0.37245,1.461363 -0.41343,1.113238 -0.49787,1.580712 -0.54219,3.001734 -0.0302,0.969337 -0.0134,1.41214 0.0753,1.977584 0.28867,1.840953 0.28207,1.745861 0.14168,2.040382 -0.15518,0.325558 -0.59769,0.804567 -0.74327,0.804567 -0.0574,0 -0.15455,-0.0551 -0.21575,-0.122456 z"
       id="path1612-1" />
    <path
       style="display:inline;fill:#a0a0a0;stroke:none;stroke-width:0.264582"
       d="m 154.05276,32.021172 c -0.34547,-0.507061 -0.74308,-0.923071 -1.38097,-1.444884 -0.35775,-0.292651 -0.63469,-0.569715 -0.61654,-0.616827 0.20115,-0.522082 0.41048,-1.358117 0.50797,-2.028713 0.16812,-1.156401 0.17439,-3.593874 0.0112,-4.361315 -0.11457,-0.538827 -0.14564,-0.831932 -0.13102,-1.235807 0.008,-0.211591 0.64449,-0.949945 0.81933,-0.949945 0.0525,0 0.15754,0.101482 0.23347,0.225515 0.22294,0.364206 0.18905,1.351352 -0.10526,3.065612 -0.27443,1.598422 -0.29118,1.829912 -0.13674,1.888944 0.16152,0.06174 0.30673,-0.103154 1.12617,-1.278799 0.9302,-1.334537 1.5598,-2.064865 1.98026,-2.297086 0.50323,-0.277936 0.54841,-0.201748 0.54841,0.924993 v 0.916242 l 0.96194,-0.0053 c 0.94216,-0.0052 0.96808,-0.0013 1.25945,0.190075 0.80219,0.526915 0.74466,1.837162 -0.14674,3.342344 -0.72128,1.217909 -2.74089,2.984643 -4.35273,3.80771 -0.31615,0.161436 -0.38205,0.145168 -0.5782,-0.142726 z m -0.59535,-4.228991 c 0.22292,-0.290782 0.32995,-0.649217 0.19386,-0.649217 -0.0879,0 -0.64349,0.744363 -0.64349,0.862144 0,0.205424 0.20241,0.109573 0.44963,-0.212927 z m 1.17009,-1.40108 c 0.46421,-0.45284 0.56957,-0.635915 0.36595,-0.635915 -0.15704,0 -1.14968,0.968292 -1.14968,1.121486 0,0.114634 0.021,0.121714 0.15674,0.05277 0.0862,-0.0438 0.36836,-0.286049 0.62699,-0.538344 z m 1.18056,-0.957603 c 0.27722,-0.191345 0.34856,-0.372201 0.14683,-0.372201 -0.16312,0 -0.64815,0.344582 -0.64815,0.460464 0,0.148685 0.21216,0.11133 0.50132,-0.08826 z"
       id="path1614-5" />
    <path
       style="display:inline;fill:#0000ff;stroke:none;stroke-width:0.264582"
       d="m 161.20836,31.994598 c -1.09368,-0.290487 -3.44218,-0.3419 -4.68248,-0.10251 -0.26821,0.05177 -0.49629,0.08606 -0.50686,0.07621 -0.0105,-0.0099 0.28726,-0.245705 0.66182,-0.524116 1.04106,-0.773819 2.19179,-1.961741 2.8649,-2.957518 0.31306,-0.463129 0.61921,-0.883396 0.68034,-0.933924 0.15762,-0.130301 0.91317,-0.161243 1.24509,-0.05099 0.43545,0.144646 0.39903,0.266652 -0.28942,0.969524 -0.74306,0.758627 -1.43793,1.32663 -2.32209,1.898113 -0.76034,0.491463 -0.9116,0.634813 -0.73932,0.70066 0.0618,0.02362 0.11234,0.08644 0.11234,0.1396 0,0.116148 0.13119,0.12314 0.39604,0.02111 0.28606,-0.110204 1.74417,-0.387466 2.68083,-0.509764 0.7936,-0.10362 0.82273,-0.102572 1.3576,0.04889 0.46639,0.132071 0.55,0.178753 0.56981,0.318107 0.0277,0.194911 -0.50341,0.741162 -0.9053,0.931113 -0.30556,0.144426 -0.50356,0.140108 -1.1233,-0.0245 z"
       id="path1618-8" />
    <path
       style="display:inline;fill:#a0a0a0;stroke:none;stroke-width:0.264582"
       d="m 146.50726,47.488442 c -0.31827,-0.350296 -0.32087,-1.634781 -0.006,-3.241101 0.0971,-0.496133 0.19428,-1.12844 0.21602,-1.405125 0.0675,-0.858852 -0.12025,-0.706979 -1.30782,1.05818 -0.70171,1.04298 -1.64053,2.072368 -1.96372,2.153165 -0.519,0.129744 -0.61048,-0.203392 -0.42455,-1.546013 l 0.0408,-0.294902 h -0.6663 c -0.36646,0 -0.823,-0.03348 -1.01453,-0.07439 -0.95667,-0.204355 -1.43149,-1.081954 -1.16365,-2.150735 0.14692,-0.586242 0.64691,-1.580896 1.08248,-2.153445 0.5061,-0.665238 1.53007,-1.60831 2.4638,-2.269155 0.44777,-0.316903 0.84678,-0.63696 0.88669,-0.711236 0.0461,-0.08587 0.14571,-0.13505 0.27341,-0.13505 0.27125,0 0.42124,-0.06441 0.42124,-0.180895 0,-0.161357 0.24174,-0.108363 0.42953,0.09416 0.0973,0.104951 0.27285,0.331332 0.39007,0.50307 0.28147,0.412375 0.7852,0.885151 1.32648,1.24496 0.64003,0.425459 0.65019,0.472965 0.30103,1.408505 -0.39909,1.069373 -0.49753,1.621333 -0.5415,3.036429 -0.029,0.932895 -0.0113,1.383153 0.0763,1.942889 0.2887,1.845007 0.28182,1.745863 0.14144,2.040382 -0.15517,0.325558 -0.59769,0.804567 -0.74327,0.804567 -0.0574,0 -0.15529,-0.05592 -0.21739,-0.124263 z"
       id="path1620-6" />
    <path
       style="display:inline;fill:#ffffff;stroke:none;stroke-width:0.264582"
       d="m 146.47831,47.355615 c -0.22502,-0.342063 -0.20817,-1.498761 0.044,-3.024044 0.22382,-1.353577 0.26636,-1.952957 0.14396,-2.028309 -0.0998,-0.06142 -0.39121,0.266845 -0.90714,1.021753 -1.15459,1.689384 -2.0602,2.691744 -2.43196,2.691744 -0.31246,0 -0.37819,-0.187447 -0.32873,-0.937413 0.023,-0.348232 0.0598,-0.680027 0.0819,-0.737321 0.0336,-0.08737 -0.10915,-0.115644 -0.88553,-0.175307 -1.03793,-0.07976 -1.3861,-0.203252 -1.67832,-0.59528 -0.49638,-0.665914 -0.43553,-1.45872 0.20752,-2.703446 0.58645,-1.13517 1.44848,-2.062596 2.98342,-3.209716 0.42147,-0.314985 0.82647,-0.640122 0.89999,-0.722527 0.0735,-0.0824 0.25646,-0.169383 0.40654,-0.193286 0.15009,-0.02391 0.28923,-0.08588 0.30919,-0.137726 0.02,-0.05184 0.0898,-0.09427 0.15516,-0.09427 0.13287,0 0.3269,0.19696 0.75846,0.769905 0.30465,0.40447 0.71879,0.779103 1.28923,1.166272 0.51839,0.351829 0.53337,0.435121 0.23545,1.308985 -0.42751,1.253965 -0.47343,1.527731 -0.51478,3.069233 -0.0331,1.231356 -0.0183,1.550344 0.10968,2.374193 0.22156,1.426309 0.21544,1.476729 -0.24919,2.049353 -0.27681,0.341154 -0.455,0.371528 -0.62888,0.107202 z"
       id="path1622-7" />
    <path
       style="display:inline;fill:#ffffff;stroke:none;stroke-width:0.264582"
       d="m 146.52003,47.359428 c -0.17955,-0.215006 -0.16094,-1.641431 0.0395,-3.027565 0.20131,-1.392279 0.22955,-2.062108 0.0869,-2.062108 -0.13885,0 -0.39019,0.294434 -1.09578,1.283695 -0.76285,1.069538 -1.50998,1.972005 -1.84038,2.223006 -0.15721,0.119439 -0.30474,0.173344 -0.43399,0.158582 l -0.19582,-0.02237 -1.1e-4,-0.832021 -1.2e-4,-0.832022 -0.31338,-0.0473 c -0.17235,-0.02602 -0.58422,-0.0791 -0.91526,-0.117948 -0.33104,-0.03885 -0.71093,-0.116026 -0.84421,-0.171492 -0.53285,-0.22175 -0.87039,-0.987519 -0.74148,-1.682117 0.18395,-0.991124 0.93166,-2.236478 1.93431,-3.221701 0.81124,-0.797153 2.52895,-2.145856 2.84292,-2.232204 0.12472,-0.0343 0.24541,-0.09243 0.26822,-0.129182 0.0938,-0.15113 0.32002,-0.0483 0.56968,0.25893 0.52288,0.643457 0.97008,1.087176 1.48385,1.472306 0.37427,0.280556 0.52837,0.44135 0.5432,0.566795 0.0114,0.09632 -0.10486,0.569038 -0.25835,1.050488 -0.15349,0.481449 -0.31172,1.134716 -0.35163,1.451707 -0.10673,0.847873 -0.0884,3.028577 0.032,3.806573 0.14569,0.941509 0.13474,1.371447 -0.0424,1.665334 -0.32136,0.533165 -0.57079,0.676335 -0.76762,0.440614 z"
       id="path1624-3" />
    <path
       style="display:inline;fill:#ffff00;stroke:none;stroke-width:0.264582"
       d="m 138.66807,41.506049 c -0.13193,-0.03201 -0.19882,-0.12109 -0.17607,-0.234457 0.0598,-0.298222 0.67714,-0.959754 1.76096,-1.887207 0.5923,-0.506847 1.31689,-1.147435 1.61515,-1.427909 0.0634,-0.05964 0.0626,-0.06581 -0.0324,-0.239596 -0.0644,-0.11784 -0.11408,-0.172039 -0.14638,-0.159692 -0.083,0.03171 -1.21298,0.185662 -1.83696,0.250265 -0.83885,0.08685 -2.45994,0.08885 -2.73695,0.0034 -0.40462,-0.124852 -0.40175,-0.264231 0.0128,-0.621222 0.51675,-0.444988 0.77133,-0.500562 1.40418,-0.306532 0.71296,0.218593 1.51035,0.310406 2.69584,0.310406 1.17837,0 2.324,-0.128125 2.94337,-0.32918 0.0979,-0.0318 -0.0569,0.100014 -0.50203,0.427428 -0.9327,0.686004 -1.58531,1.249389 -2.19834,1.897767 -0.53293,0.563672 -0.86616,1.017601 -1.12723,1.535507 -0.19688,0.390571 -0.34961,0.565742 -0.57899,0.664023 -0.25533,0.109408 -0.86176,0.174103 -1.09698,0.117027 z"
       id="path1627-6" />
    <path
       style="display:inline;fill:#a0a0a0;stroke:none;stroke-width:0.264582"
       d="m 154.18062,32.137474 c -0.0484,-0.05248 -0.17907,-0.217606 -0.29027,-0.366957 -0.26104,-0.350593 -0.6495,-0.740667 -1.24053,-1.245679 -0.54073,-0.462033 -0.59415,-0.525834 -0.54542,-0.651359 0.18304,-0.471476 0.41422,-1.460771 0.49586,-2.121957 0.14873,-1.204506 0.13354,-3.335976 -0.0306,-4.296384 -0.0473,-0.276665 -0.0968,-0.63151 -0.11006,-0.788546 -0.0224,-0.265412 -0.0175,-0.298988 0.0699,-0.476703 0.10077,-0.20516 0.57006,-0.729176 0.68579,-0.76576 0.15889,-0.05023 0.32661,0.232543 0.38599,0.650799 0.0686,0.482753 -0.0125,1.298901 -0.30243,3.045338 -0.20484,1.233835 -0.20286,1.457418 0.0129,1.457418 0.14459,0 0.30987,-0.194042 1.06388,-1.249 0.79397,-1.110877 1.20728,-1.629911 1.58052,-1.984795 0.26288,-0.249957 0.62403,-0.478513 0.75612,-0.478513 0.12876,0 0.16501,0.221229 0.18305,1.116887 l 0.0172,0.856683 0.94444,0.01066 c 0.90857,0.01028 0.95072,0.01378 1.10989,0.09184 0.51792,0.254043 0.77569,0.828609 0.68929,1.536406 -0.0569,0.466267 -0.18799,0.866666 -0.46994,1.43555 -0.29848,0.602258 -0.62842,1.060157 -1.17621,1.632366 -0.97263,1.015981 -2.31386,2.049066 -3.32969,2.564713 -0.29108,0.147753 -0.3835,0.152742 -0.49962,0.02697 z m -0.98411,-4.064225 c 0.21248,-0.129056 0.47082,-0.514898 0.52017,-0.776902 0.0198,-0.104798 0.0128,-0.13246 -0.0382,-0.151945 -0.0769,-0.02941 -0.26269,0.167851 -0.50782,0.539283 -0.15645,0.237046 -0.203,0.375078 -0.14573,0.43212 0.0342,0.0341 0.053,0.02943 0.17158,-0.04256 z m 0.80631,-1.124877 c 0.14745,-0.08159 0.71241,-0.59638 0.90055,-0.820585 0.20702,-0.246694 0.24467,-0.382771 0.10591,-0.382771 -0.12769,0 -0.45506,0.277091 -0.93494,0.79136 -0.18093,0.193893 -0.23665,0.277615 -0.23665,0.355619 0,0.110864 0.0412,0.124938 0.16513,0.05638 z m 1.75067,-1.461334 c 0.31138,-0.188218 0.43267,-0.43591 0.21346,-0.43591 -0.19971,0 -0.66629,0.32759 -0.66629,0.467806 0,0.157007 0.15883,0.145819 0.45283,-0.0319 z"
       id="path1629-0" />
    <path
       style="display:inline;fill:#ffffff;stroke:none;stroke-width:0.264582"
       d="m 154.18122,32.137474 c -0.0481,-0.05248 -0.19028,-0.228117 -0.31589,-0.390314 -0.28773,-0.371521 -0.61723,-0.701735 -1.20195,-1.204576 -0.25314,-0.217688 -0.4902,-0.436742 -0.5268,-0.486788 -0.0662,-0.0905 -0.066,-0.09259 0.0344,-0.3881 0.14046,-0.413671 0.2935,-1.050677 0.37562,-1.563456 0.1992,-1.24378 0.21148,-3.534557 0.0248,-4.633086 -0.0485,-0.285473 -0.0989,-0.647526 -0.11202,-0.804562 -0.0222,-0.265191 -0.0172,-0.299135 0.0701,-0.476703 0.10078,-0.20516 0.57007,-0.729176 0.68578,-0.76576 0.15258,-0.04824 0.32063,0.2219 0.38222,0.61438 0.0739,0.471002 -0.007,1.33111 -0.28048,2.977924 -0.21958,1.322763 -0.22273,1.561251 -0.0206,1.561251 0.16928,0 0.28837,-0.140825 1.20289,-1.422474 0.66684,-0.934539 1.09634,-1.468559 1.45683,-1.811321 0.26288,-0.249957 0.62403,-0.478513 0.75611,-0.478513 0.12876,0 0.16502,0.221229 0.18305,1.116887 l 0.0173,0.856683 0.94444,0.01066 c 0.90857,0.01028 0.95072,0.01378 1.10989,0.09184 0.22542,0.11057 0.44812,0.33456 0.55894,0.562167 0.27362,0.561979 0.16864,1.370848 -0.30447,2.345987 -0.2403,0.495268 -0.40363,0.753954 -0.73035,1.156678 -0.88867,1.095424 -2.58246,2.480924 -3.7693,3.083249 -0.333,0.169 -0.42212,0.176904 -0.5404,0.04793 z m -1.00711,-4.049671 c 0.20231,-0.104211 0.49396,-0.528771 0.54255,-0.789843 0.0198,-0.106341 0.0129,-0.134033 -0.0382,-0.153558 -0.0756,-0.02891 -0.24902,0.155181 -0.50454,0.535698 -0.1589,0.236628 -0.20717,0.377776 -0.14901,0.435705 0.0314,0.03128 0.0356,0.03049 0.14917,-0.028 z m 0.85516,-1.158191 c 0.15804,-0.09701 0.65818,-0.55839 0.87245,-0.804833 0.20343,-0.233973 0.24832,-0.379763 0.11695,-0.379763 -0.10515,0 -0.2476,0.10816 -0.6368,0.483509 -0.39549,0.381415 -0.54418,0.5683 -0.54418,0.683962 0,0.09813 0.052,0.102784 0.19158,0.01712 z m 1.67775,-1.413968 c 0.20388,-0.115751 0.35996,-0.280717 0.35996,-0.38045 0,-0.124708 -0.15128,-0.110316 -0.40262,0.03831 -0.2342,0.138489 -0.3637,0.267515 -0.3637,0.362395 0,0.125768 0.16352,0.11762 0.40636,-0.02025 z"
       id="path1631-7" />
    <path
       style="display:inline;fill:#00ffff;stroke:none;stroke-width:0.264583"
       d="m 146.59065,47.440863 c -0.29355,-0.204794 -0.30923,-1.276045 -0.0455,-3.105168 0.16269,-1.128164 0.20106,-1.518066 0.18658,-1.895978 -0.0146,-0.380849 -0.29224,-0.128465 -1.06305,0.966337 -0.76562,1.087436 -1.11884,1.531638 -1.61993,2.03722 -0.53396,0.538733 -0.73081,0.643322 -0.90884,0.482849 -0.13568,-0.1223 -0.16025,-0.383939 -0.0987,-1.05062 0.0305,-0.329457 0.0477,-0.606579 0.0385,-0.615827 -0.009,-0.0093 -0.22618,-0.04109 -0.48198,-0.07076 -0.25581,-0.02967 -0.64497,-0.07532 -0.86482,-0.101455 -0.73416,-0.08726 -1.06215,-0.267864 -1.30992,-0.721297 -0.29955,-0.54819 -0.26674,-1.149513 0.11024,-2.020443 0.58325,-1.347512 1.45304,-2.334709 3.31339,-3.760639 0.29427,-0.225553 0.62972,-0.491716 0.74543,-0.591472 0.13445,-0.115894 0.30177,-0.203206 0.46349,-0.241846 0.13919,-0.03326 0.2648,-0.0909 0.27913,-0.128086 0.0478,-0.124038 0.23809,-0.07091 0.41507,0.11587 0.0956,0.100915 0.30708,0.348615 0.46991,0.550445 0.36341,0.45045 0.61922,0.687762 1.18767,1.101766 0.45228,0.329398 0.56586,0.488371 0.51262,0.717484 -0.0145,0.06239 -0.13503,0.463864 -0.26786,0.892179 -0.37326,1.203562 -0.40196,1.428586 -0.40614,3.184454 -0.003,1.342258 0.009,1.597085 0.10648,2.214686 0.13863,0.878841 0.14063,1.179048 0.01,1.434972 -0.10551,0.205985 -0.53529,0.680512 -0.61635,0.680512 -0.026,0 -0.0957,-0.03383 -0.15499,-0.07518 z"
       id="path1633-9" />
    <path
       style="display:inline;fill:#ffffff;stroke:none;stroke-width:0.264583"
       d="m 138.60806,41.444995 c -0.29001,-0.168241 0.20467,-0.75049 1.92808,-2.269391 0.52685,-0.464329 1.05534,-0.931106 1.17443,-1.037284 0.22715,-0.202532 0.24663,-0.311343 0.0926,-0.517489 -0.0601,-0.08043 -0.1116,-0.07817 -0.94775,0.04164 -1.19277,0.170907 -3.43643,0.226587 -3.78515,0.09393 -0.14492,-0.05513 -0.21841,-0.112252 -0.21841,-0.169791 0,-0.119576 0.4932,-0.573667 0.74837,-0.689027 0.27924,-0.126239 0.40329,-0.120793 1.07781,0.04732 0.88805,0.22133 1.40389,0.26254 2.90852,0.232365 1.03117,-0.02068 1.4539,-0.04891 1.87157,-0.124987 0.29675,-0.05405 0.54694,-0.09091 0.55597,-0.08191 0.009,0.009 -0.28902,0.248637 -0.66234,0.532523 -1.48922,1.132431 -2.41772,2.106696 -2.99944,3.147238 -0.29865,0.534221 -0.46932,0.694165 -0.83119,0.778967 -0.33651,0.07886 -0.79093,0.08677 -0.9131,0.01589 z"
       id="path1637-9" />
    <path
       style="display:inline;fill:#ffffff;stroke:none;stroke-width:0.264583"
       d="m 138.60396,41.416295 c -0.1962,-0.195417 0.3712,-0.823583 2.22693,-2.465418 0.52684,-0.466126 0.98483,-0.881891 1.01774,-0.923925 0.09,-0.114929 0.0748,-0.319676 -0.0307,-0.414823 -0.0888,-0.08006 -0.1377,-0.07907 -0.93878,0.01907 -1.54775,0.189599 -3.69961,0.219528 -3.89957,0.05424 -0.12572,-0.103924 -0.0949,-0.174991 0.18714,-0.431751 0.48693,-0.443263 0.68033,-0.479729 1.51069,-0.284849 0.89413,0.209844 1.27667,0.237601 2.88987,0.209683 1.06105,-0.01837 1.6197,-0.04853 1.91293,-0.103289 0.2278,-0.04254 0.41988,-0.07168 0.42684,-0.06475 0.007,0.0069 -0.32311,0.275605 -0.73348,0.597047 -0.83448,0.653628 -2.01164,1.791786 -2.35366,2.275676 -0.12364,0.174919 -0.33941,0.505187 -0.47949,0.733928 -0.33218,0.542399 -0.46151,0.672198 -0.7568,0.759541 -0.24632,0.07286 -0.91895,0.100064 -0.97963,0.03963 z"
       id="path1639-7" />
    <path
       style="display:inline;fill:#d35f5f;stroke:none;stroke-width:0.264583"
       d="m 160.76468,41.445981 c -0.43338,-0.06487 -0.64025,-0.195732 -0.90353,-0.571557 -0.6134,-0.875631 -0.98484,-1.320171 -1.68793,-2.020133 -0.84296,-0.839207 -1.57993,-1.450488 -2.80182,-2.323973 -0.4458,-0.318681 -0.82027,-0.58689 -0.83216,-0.596018 -0.0119,-0.0091 0.0159,-0.252773 0.0619,-0.541432 0.10284,-0.646338 0.10619,-1.34717 0.009,-1.853832 -0.0405,-0.210925 -0.0737,-0.40882 -0.0737,-0.439767 -2e-5,-0.130926 1.29821,-0.58855 2.21055,-0.779217 1.45648,-0.304387 3.0355,-0.253759 4.20004,0.134666 1.38209,0.460988 2.21413,1.266972 2.12054,2.05411 -0.0481,0.404792 -0.29686,0.794075 -0.90518,1.416668 l -0.55515,0.568179 0.63032,0.418192 c 0.67917,0.450608 0.9631,0.749415 0.86291,0.908132 -0.16825,0.266547 -0.75462,0.378601 -1.58341,0.302591 -0.63583,-0.05831 -0.80403,-0.08375 -2.15416,-0.325743 -0.53451,-0.0958 -1.05769,-0.163045 -1.20353,-0.154682 -0.22422,0.01286 -0.26003,0.0291 -0.27359,0.124152 -0.0205,0.143617 0.11779,0.267521 0.87526,0.784254 0.98729,0.673518 1.86492,1.342872 2.24209,1.710007 0.34398,0.334838 0.65481,0.787434 0.65573,0.954799 7.2e-4,0.197003 -0.41006,0.303047 -0.89405,0.230604 z"
       id="path1643-8" />
    <path
       style="display:inline;fill:#ffff00;stroke:none;stroke-width:0.264583"
       d="m 154.26596,32.163985 c -0.0271,-0.01977 -0.2083,-0.225904 -0.40266,-0.458074 -0.30496,-0.364301 -0.80294,-0.850227 -1.56121,-1.523443 l -0.19559,-0.17365 0.0599,-0.21253 c 0.32421,-1.150304 0.42948,-1.709102 0.50857,-2.699555 0.0798,-0.999483 0.028,-2.965923 -0.0995,-3.775823 -0.13362,-0.848953 -0.13061,-0.940591 0.0395,-1.2014 0.18321,-0.280859 0.58781,-0.69287 0.65763,-0.669689 0.12076,0.04009 0.2409,0.281018 0.29394,0.589489 0.071,0.413075 0.004,1.19911 -0.23226,2.705744 -0.23672,1.512315 -0.25258,1.694905 -0.15561,1.791483 0.18368,0.182953 0.33389,0.03681 1.20718,-1.174489 1.12494,-1.560363 1.67292,-2.171153 2.15267,-2.399423 0.25778,-0.122658 0.27646,-0.06747 0.3271,0.96665 l 0.0451,0.921625 0.93733,0.02045 c 1.0654,0.02325 1.18567,0.05569 1.48113,0.399491 0.47193,0.549159 0.40803,1.460685 -0.18613,2.655362 -0.30571,0.614691 -0.60872,1.023958 -1.24087,1.676017 -0.90387,0.932336 -2.39876,2.083547 -3.19403,2.459715 -0.31202,0.147583 -0.36354,0.159472 -0.44228,0.102045 z m -0.9382,-4.172584 c 0.17466,-0.152741 0.42257,-0.585979 0.42257,-0.738467 0,-0.110139 -0.0773,-0.156607 -0.17237,-0.103616 -0.10537,0.05874 -0.46618,0.543346 -0.54822,0.736328 -0.12276,0.28879 0.0277,0.342179 0.29802,0.105755 z m 1.05307,-1.320744 c 0.4068,-0.350708 0.74495,-0.741733 0.74495,-0.861429 0,-0.148291 -0.24954,-0.06199 -0.52755,0.182443 -0.54973,0.483319 -0.8459,0.85889 -0.77167,0.978519 0.0579,0.09338 0.16668,0.03462 0.55427,-0.299533 z m 1.43146,-1.196368 c 0.24711,-0.171021 0.3261,-0.309511 0.23071,-0.404513 -0.0657,-0.06545 -0.0976,-0.06209 -0.28973,0.03054 -0.44727,0.215661 -0.64606,0.599771 -0.27181,0.525219 0.0867,-0.01728 0.23559,-0.08534 0.33083,-0.151246 z"
       id="path1645-8" />
  </g>
</svg>
