<?xml version="1.0" encoding="UTF-8" standalone="no"?>
<svg
   xmlns:dc="http://purl.org/dc/elements/1.1/"
   xmlns:cc="http://creativecommons.org/ns#"
   xmlns:rdf="http://www.w3.org/1999/02/22-rdf-syntax-ns#"
   xmlns:svg="http://www.w3.org/2000/svg"
   xmlns="http://www.w3.org/2000/svg"
   xmlns:xlink="http://www.w3.org/1999/xlink"
   xmlns:sodipodi="http://sodipodi.sourceforge.net/DTD/sodipodi-0.dtd"
   xmlns:inkscape="http://www.inkscape.org/namespaces/inkscape"
   width="128mm"
   height="128mm"
   viewBox="0 0 128 128"
   version="1.1"
   id="svg8"
   inkscape:version="1.0.2 (e86c870879, 2021-01-15, custom)"
   sodipodi:docname="live-favicon.svg">
  <defs
     id="defs2">
    <path
       id="SVGID_1_"
       d="m 71.6,5 h 58.9 C 184.3,5 197,17.8 197,71.6 v 58.9 c 0,53.8 -12.8,66.5 -66.6,66.5 H 71.5 C 17.7,197 5,184.2 5,130.4 V 71.5 C 5,17.8 17.8,5 71.6,5 Z" />
    <path
       id="SVGID_1_-3"
       d="m 71.6,5 h 58.9 C 184.3,5 197,17.8 197,71.6 v 58.9 c 0,53.8 -12.8,66.5 -66.6,66.5 H 71.5 C 17.7,197 5,184.2 5,130.4 V 71.5 C 5,17.8 17.8,5 71.6,5 Z" />
    <radialGradient
       id="0"
       cx="332.14001"
       cy="2511.8101"
       r="3263.54"
       gradientUnits="userSpaceOnUse">
      <stop
         offset=".09"
         stop-color="#fa8f21"
         id="stop178" />
      <stop
         offset=".78"
         stop-color="#d82d7e"
         id="stop180" />
    </radialGradient>
    <radialGradient
       id="1"
       cx="1516.14"
       cy="2623.8101"
       r="2572.1201"
       gradientUnits="userSpaceOnUse">
      <stop
         offset=".64"
         stop-color="#8c3aaa"
         stop-opacity="0"
         id="stop183" />
      <stop
         offset="1"
         stop-color="#8c3aaa"
         id="stop185" />
    </radialGradient>
    <linearGradient
       inkscape:collect="always"
       xlink:href="#linearGradient116"
       id="linearGradient92"
       x1="65.65992"
       y1="170.71579"
       x2="415.17273"
       y2="391.93921"
       gradientUnits="userSpaceOnUse"
       gradientTransform="scale(0.26458333)" />
    <linearGradient
       inkscape:collect="always"
       id="linearGradient116">
      <stop
         style="stop-color:#ff6d6d;stop-opacity:1"
         offset="0"
         id="stop112" />
      <stop
         style="stop-color:#ff0000;stop-opacity:1"
         offset="1"
         id="stop118" />
      <stop
         style="stop-color:#ffff00;stop-opacity:1"
         offset="1"
         id="stop120" />
      <stop
         style="stop-color:#ff0000;stop-opacity:1"
         offset="1"
         id="stop114" />
    </linearGradient>
  </defs>
  <sodipodi:namedview
     id="base"
     pagecolor="#ffffff"
     bordercolor="#666666"
     borderopacity="1.0"
     inkscape:pageopacity="0.0"
     inkscape:pageshadow="2"
     inkscape:zoom="0.98994949"
     inkscape:cx="189.44367"
     inkscape:cy="238.79513"
     inkscape:document-units="mm"
     inkscape:current-layer="layer3"
     inkscape:document-rotation="0"
     showgrid="false"
     inkscape:window-width="1423"
     inkscape:window-height="932"
     inkscape:window-x="268"
     inkscape:window-y="45"
     inkscape:window-maximized="0" />
  <metadata
     id="metadata5">
    <rdf:RDF>
      <cc:Work
         rdf:about="">
        <dc:format>image/svg+xml</dc:format>
        <dc:type
           rdf:resource="http://purl.org/dc/dcmitype/StillImage" />
        <dc:title />
      </cc:Work>
    </rdf:RDF>
  </metadata>
  <g
     inkscape:label="Слой 1"
     inkscape:groupmode="layer"
     id="layer1"
     style="display:none">
    <g
       transform="matrix(0.01382579,0,0,-0.01330692,-25.420524,148.34713)"
       fill="#000000"
       stroke="none"
       id="g233"
       style="stroke-width:2.60085">
      <path
         d="m 7983,10759 c -407,-47 -983,-406 -1269,-790 -165,-220 -262,-430 -346,-746 l -42,-158 2,-168 c 2,-92 7,-178 12,-192 13,-33 38,-38 214,-39 146,-1 155,0 280,37 334,97 579,243 753,450 42,51 105,119 138,153 110,108 251,348 329,556 78,209 113,403 123,679 l 6,177 -26,26 c -29,29 -45,30 -174,15 z"
         id="path229"
         style="stroke-width:2.60085" />
      <path
         d="m 7890,8692 c -198,-10 -731,-158 -1114,-308 -232,-91 -232,-91 -278,-99 -80,-13 -276,44 -613,180 -179,71 -363,125 -635,187 -114,25 -303,28 -385,5 -33,-9 -137,-30 -231,-46 -202,-36 -316,-71 -468,-146 -459,-224 -772,-546 -1020,-1050 -110,-222 -191,-439 -251,-670 -89,-343 -91,-1001 -4,-1400 10,-49 19,-107 19,-130 0,-48 9,-84 93,-415 78,-306 70,-281 219,-655 209,-525 275,-641 702,-1230 175,-241 264,-351 393,-482 135,-138 244,-218 398,-294 174,-85 250,-104 410,-103 205,0 370,42 684,174 198,83 211,87 571,161 108,23 208,21 360,-4 52,-8 130,-20 172,-26 85,-12 171,-40 393,-129 268,-108 457,-156 655,-168 288,-18 566,110 863,395 303,293 586,694 872,1235 77,146 200,445 221,535 9,36 24,81 35,99 10,18 12.8168,35.9437 19,54 389.959,1138.7622 701.143,2706.3073 -353,3596 -222.1314,187.4781 -418,395 -692,528 -171,83 -289,124 -454,158 -169,36 -421,57 -581,48 z"
         id="path231"
         style="stroke-width:2.60085"
         sodipodi:nodetypes="cccccccccccsccccccccccccccccssccc" />
    </g>
  </g>
  <g
     inkscape:groupmode="layer"
     id="layer3"
     inkscape:label="Слой 3"
     style="display:inline">
    <path
       style="fill:#000000;stroke:none;stroke-width:0.264583"
       d="m 63.03366,32.741232 c -0.64358,-0.178424 -0.671009,-0.276318 -0.745198,-2.659449 -0.05887,-1.890953 0.05704,-2.951998 0.491707,-4.501043 0.824809,-2.939449 2.144077,-5.917633 3.611157,-8.152019 3.870682,-5.895115 12.58861,-11.4881259 18.917436,-12.1365332 2.413603,-0.2472809 2.471573,-0.1337183 2.083715,4.0820715 -0.39475,4.2907167 -0.838279,5.9958727 -2.420742,9.3065767 -1.580144,3.305859 -3.064671,5.28755 -6.186566,8.258441 -2.001737,1.904912 -2.898236,2.536719 -5.145569,3.626339 -4.168669,2.021181 -8.188584,2.845792 -10.60594,2.175616 z"
       id="path46" />
  </g>
  <g
     inkscape:groupmode="layer"
     id="layer2"
     inkscape:label="Слой 2"
     style="display:inline">
    <path
       style="fill:url(#linearGradient92);fill-opacity:1;stroke:none;stroke-width:0.264583"
       d="m 42.854811,120.89289 c -3.476572,-0.87122 -7.65315,-3.80654 -10.853391,-7.62782 -2.594914,-3.09848 -7.276182,-9.49023 -8.808374,-12.02685 C 19.475464,95.083576 15.951375,85.040657 14.528014,76.544688 13.908815,72.84872 13.702492,65.902463 14.106626,62.357849 c 0.391903,-3.437343 1.841109,-7.938744 3.858914,-11.986229 2.060391,-4.132905 3.344224,-5.926465 6.422802,-8.972875 4.450032,-4.403532 8.535458,-6.430944 15.605815,-7.744457 2.8033,-0.520793 4.227102,-0.663496 5.34539,-0.535752 2.480863,0.283387 7.570105,1.644658 11.354512,3.037107 1.943298,0.715023 4.401732,1.511083 5.46319,1.769017 1.735035,0.421616 2.045409,0.429406 3.073601,0.07712 7.754951,-2.657036 10.526488,-3.536588 13.458002,-4.270928 2.984236,-0.747546 3.891246,-0.862481 6.661812,-0.844164 9.021252,0.05964 14.761236,2.753283 23.414286,10.987783 8.60639,8.1901 10.64964,20.057742 6.37133,37.006059 -1.06536,4.220376 -3.63956,11.886017 -5.14072,15.308463 -2.7991,6.381527 -8.38712,14.495037 -13.069442,18.976137 -6.811081,6.51837 -11.412892,7.26422 -21.549338,3.49264 -3.119403,-1.16067 -5.647918,-1.74665 -9.275083,-2.14947 -2.17216,-0.24124 -7.473553,0.83811 -11.289887,2.29859 -1.578409,0.60405 -3.651599,1.32652 -4.607089,1.60549 -2.075156,0.60588 -5.861772,0.85344 -7.34991,0.48051 z"
       id="path44" />
  </g>
  <style
     id="style110">.st0{clip-path:url(#SVGID_2_);fill:#5181b8}.st1{fill-rule:evenodd;clip-rule:evenodd;fill:#fff}</style>
  <style
     id="style144">.st0{clip-path:url(#SVGID_2_);fill:#5181b8}.st1{fill-rule:evenodd;clip-rule:evenodd;fill:#fff}</style>
</svg>
