<?xml version="1.0" encoding="UTF-8" standalone="no"?>
<svg
   xmlns:dc="http://purl.org/dc/elements/1.1/"
   xmlns:cc="http://creativecommons.org/ns#"
   xmlns:rdf="http://www.w3.org/1999/02/22-rdf-syntax-ns#"
   xmlns:svg="http://www.w3.org/2000/svg"
   xmlns="http://www.w3.org/2000/svg"
   xmlns:sodipodi="http://sodipodi.sourceforge.net/DTD/sodipodi-0.dtd"
   xmlns:inkscape="http://www.inkscape.org/namespaces/inkscape"
   width="210mm"
   height="44mm"
   viewBox="0 0 210 44"
   version="1.1"
   id="svg1004"
   inkscape:version="1.0.2 (e86c870879, 2021-01-15, custom)"
   sodipodi:docname="NASTIE - ИМЯ 1.svg">
  <defs
     id="defs998">
    <rect
       x="-180.67262"
       y="47.625"
       width="465.66666"
       height="189.74405"
       id="rect1569" />
  </defs>
  <sodipodi:namedview
     id="base"
     pagecolor="#ffffff"
     bordercolor="#666666"
     borderopacity="1.0"
     inkscape:pageopacity="0.0"
     inkscape:pageshadow="2"
     inkscape:zoom="0.69539474"
     inkscape:cx="545.15665"
     inkscape:cy="114.19964"
     inkscape:document-units="mm"
     inkscape:current-layer="layer1"
     inkscape:document-rotation="0"
     showgrid="false"
     inkscape:window-width="1423"
     inkscape:window-height="909"
     inkscape:window-x="274"
     inkscape:window-y="82"
     inkscape:window-maximized="0" />
  <metadata
     id="metadata1001">
    <rdf:RDF>
      <cc:Work
         rdf:about="">
        <dc:format>image/svg+xml</dc:format>
        <dc:type
           rdf:resource="http://purl.org/dc/dcmitype/StillImage" />
        <dc:title></dc:title>
      </cc:Work>
    </rdf:RDF>
  </metadata>
  <g
     inkscape:label="Слой 1"
     inkscape:groupmode="layer"
     id="layer1">
    <g
       aria-label="N A S T I E"
       transform="matrix(3.4531677,0,0,3.4531677,631.47785,-164.3605)"
       id="text1567"
       style="font-style:normal;font-weight:normal;font-size:10.5833px;line-height:1.25;font-family:sans-serif;white-space:pre;shape-inside:url(#rect1569);fill:#000000;fill-opacity:1;stroke:none;stroke-width:0.289588">
      <path
         d="m -177.85672,52.507571 v 4.921235 h -2.10607 v -7.842225 h 2.01082 l 2.23308,2.846907 v -2.846907 h 2.07433 v 7.842225 h -2.07433 v -2.201327 z"
         style="font-style:normal;font-variant:normal;font-weight:normal;font-stretch:normal;font-size:10.5833px;font-family:a_Rewinder;-inkscape-font-specification:'a_Rewinder, Normal';font-variant-ligatures:normal;font-variant-caps:normal;font-variant-numeric:normal;font-variant-east-asian:normal;stroke-width:0.289588;fill:#ffffff"
         id="path1573" />
      <path
         d="m -162.35221,49.586581 0.47625,1.767411 -1.22767,-0.01058 q -1.28058,0 -1.95791,0.317499 -0.85724,0.402166 -1.24883,1.481662 h 2.00025 v -1.471078 h 2.11666 v 5.757315 h -2.11666 v -2.476492 h -2.21191 q 0.0635,1.280579 0.80433,2.476492 l -1.67216,1.100663 q -1.25942,-1.926161 -1.25942,-3.905238 0,-2.338909 1.34408,-3.682988 1.35467,-1.354662 3.69358,-1.354662 z"
         style="font-style:normal;font-variant:normal;font-weight:normal;font-stretch:normal;font-size:10.5833px;font-family:a_Rewinder;-inkscape-font-specification:'a_Rewinder, Normal';font-variant-ligatures:normal;font-variant-caps:normal;font-variant-numeric:normal;font-variant-east-asian:normal;stroke-width:0.289588;fill:#ffffff"
         id="path1575" />
      <path
         d="m -152.30869,51.375158 h -2.06375 q -0.40216,0 -0.40216,0.264583 0,0.253999 0.6985,0.952497 0.98424,1.005413 1.28057,1.396995 0.6985,0.910164 0.6985,1.640412 0,1.068913 -0.85724,1.492245 -0.61384,0.306916 -1.79917,0.306916 h -1.87324 l -0.51858,-1.809744 h 2.28599 q 0.37042,0 0.37042,-0.28575 0,-0.275165 -0.68792,-0.952497 -0.98424,-0.984246 -1.25941,-1.333495 -0.68791,-0.878414 -0.68791,-1.640412 0,-1.820327 2.42357,-1.820327 h 1.91558 z"
         style="font-style:normal;font-variant:normal;font-weight:normal;font-stretch:normal;font-size:10.5833px;font-family:a_Rewinder;-inkscape-font-specification:'a_Rewinder, Normal';font-variant-ligatures:normal;font-variant-caps:normal;font-variant-numeric:normal;font-variant-east-asian:normal;stroke-width:0.289588;fill:#ffffff"
         id="path1577" />
      <path
         d="m -143.59866,57.428806 h -2.10607 v -6.021898 h -2.19075 l 0.47625,-1.820327 h 5.54565 l 0.46567,1.820327 h -2.19075 z"
         style="font-style:normal;font-variant:normal;font-weight:normal;font-stretch:normal;font-size:10.5833px;font-family:a_Rewinder;-inkscape-font-specification:'a_Rewinder, Normal';font-variant-ligatures:normal;font-variant-caps:normal;font-variant-numeric:normal;font-variant-east-asian:normal;stroke-width:0.289588;fill:#ffffff"
         id="path1579" />
      <path
         d="m -136.69837,54.074351 c 0.58905,0.655661 1.53668,0.6562 2.15899,0 v 3.354455 h -2.15899 z"
         style="font-style:normal;font-variant:normal;font-weight:normal;font-stretch:normal;font-size:10.5833px;font-family:a_Rewinder;-inkscape-font-specification:'a_Rewinder, Normal';font-variant-ligatures:normal;font-variant-caps:normal;font-variant-numeric:normal;font-variant-east-asian:normal;stroke-width:0.289588;fill:#ffffff"
         id="path1581"
         sodipodi:nodetypes="ccccc" />
      <path
         d="m -123.91377,51.332825 h -3.14324 v 1.238246 h 2.86807 l -0.51858,1.714495 h -2.34949 v 1.375829 h 3.40782 l -0.56092,1.767411 h -4.95298 v -7.842225 h 4.77307 z"
         style="font-style:normal;font-variant:normal;font-weight:normal;font-stretch:normal;font-size:10.5833px;font-family:a_Rewinder;-inkscape-font-specification:'a_Rewinder, Normal';font-variant-ligatures:normal;font-variant-caps:normal;font-variant-numeric:normal;font-variant-east-asian:normal;stroke-width:0.289588;fill:#000000"
         id="path1583" />
    </g>
  </g>
</svg>
