<?xml version="1.0" encoding="UTF-8" standalone="no"?>
<svg
   xmlns:dc="http://purl.org/dc/elements/1.1/"
   xmlns:cc="http://creativecommons.org/ns#"
   xmlns:rdf="http://www.w3.org/1999/02/22-rdf-syntax-ns#"
   xmlns:svg="http://www.w3.org/2000/svg"
   xmlns="http://www.w3.org/2000/svg"
   xmlns:sodipodi="http://sodipodi.sourceforge.net/DTD/sodipodi-0.dtd"
   xmlns:inkscape="http://www.inkscape.org/namespaces/inkscape"
   width="190mm"
   height="55mm"
   viewBox="0 0 190 55"
   version="1.1"
   id="svg1004"
   inkscape:version="1.0.2 (e86c870879, 2021-01-15, custom)"
   sodipodi:docname="nastie---имя---композиция---2.svg">
  <defs
     id="defs998">
    <rect
       x="-0.83972523"
       y="63.539209"
       width="190.05781"
       height="48.704064"
       id="rect850" />
    <rect
       x="19.915953"
       y="5.3619871"
       width="127.15569"
       height="32.171921"
       id="rect2223" />
    <rect
       x="-180.67262"
       y="47.625"
       width="465.66666"
       height="189.74405"
       id="rect1569" />
    <rect
       x="-0.83972526"
       y="63.539207"
       width="190.05782"
       height="48.704063"
       id="rect850-2" />
    <rect
       x="-0.83972526"
       y="63.539207"
       width="190.05782"
       height="48.704063"
       id="rect883" />
  </defs>
  <sodipodi:namedview
     id="base"
     pagecolor="#ffffff"
     bordercolor="#666666"
     borderopacity="1.0"
     inkscape:pageopacity="0.0"
     inkscape:pageshadow="2"
     inkscape:zoom="0.94524967"
     inkscape:cx="292.67029"
     inkscape:cy="61.492772"
     inkscape:document-units="mm"
     inkscape:current-layer="layer1"
     inkscape:document-rotation="0"
     showgrid="false"
     inkscape:window-width="1597"
     inkscape:window-height="909"
     inkscape:window-x="205"
     inkscape:window-y="89"
     inkscape:window-maximized="0"
     showguides="false"
     inkscape:snap-text-baseline="true" />
  <metadata
     id="metadata1001">
    <rdf:RDF>
      <cc:Work
         rdf:about="">
        <dc:format>image/svg+xml</dc:format>
        <dc:type
           rdf:resource="http://purl.org/dc/dcmitype/StillImage" />
        <dc:title></dc:title>
      </cc:Work>
    </rdf:RDF>
  </metadata>
  <g
     inkscape:label="Слой 1"
     inkscape:groupmode="layer"
     id="layer1">
    <g
       aria-label="E "
       transform="matrix(3.3171818,0,0,3.3171818,77.543818,-11.119815)"
       id="text2221"
       style="font-style:normal;font-variant:normal;font-weight:normal;font-stretch:normal;font-size:10.5833px;line-height:1.25;font-family:a_BosaNova;-inkscape-font-specification:'a_BosaNova, Normal';font-variant-ligatures:normal;font-variant-caps:normal;font-variant-numeric:normal;font-variant-east-asian:normal;white-space:pre;shape-inside:url(#rect2223);fill:#ffffff;fill-opacity:1;stroke:none;stroke-width:0.301461">
      <path
         d="m 20.346745,12.460379 c 0.126999,0.747887 0.483304,1.372301 1.068913,1.873244 0.592665,0.493887 1.266468,0.740831 2.02141,0.740831 v 0.99483 c -1.128885,0 -2.091966,-0.402165 -2.889241,-1.206496 -0.797275,-0.804331 -1.195913,-1.770939 -1.195913,-2.899824 0,-1.135941 0.39511,-2.1025486 1.18533,-2.8998239 0.797275,-0.8043307 1.763883,-1.2064961 2.899824,-1.2064961 v 0.9948301 c -0.761997,0 -1.435801,0.2469437 -2.02141,0.740831 -0.585609,0.4938869 -0.941914,1.1183019 -1.068913,1.8732439 h 1.869973 v 0.99483 z"
         style="font-style:normal;font-variant:normal;font-weight:normal;font-stretch:normal;font-size:10.5833px;font-family:a_BosaNova;-inkscape-font-specification:'a_BosaNova, Normal';font-variant-ligatures:normal;font-variant-caps:normal;font-variant-numeric:normal;font-variant-east-asian:normal;fill:#ffffff;stroke:none;stroke-width:0.391899;stroke-linecap:square;stroke-linejoin:round;stroke-miterlimit:4;stroke-dasharray:none;stroke-opacity:0.83642;paint-order:normal"
         id="path2227"
         sodipodi:nodetypes="ccccsscccscccc" />
    </g>
    <g
       aria-label="N A S T I "
       transform="matrix(1.8676038,0,0,1.8676038,0.6039579,-109.34336)"
       id="text848"
       style="font-style:normal;font-weight:normal;font-size:16.9333px;line-height:1.25;font-family:sans-serif;white-space:pre;shape-inside:url(#rect850);fill:#ffffff;fill-opacity:1;stroke:none;stroke-width:0.535445">
      <path
         d="M 11.267466,68.011133 H 9.7096022 v 7.518385 L 3.3934813,68.011133 H 0.32855395 V 79.898309 H 1.7848178 v -7.162785 l 6.1637212,7.162785 h 3.318927 z"
         style="font-style:normal;font-variant:normal;font-weight:normal;font-stretch:normal;font-size:16.9333px;font-family:Aafia;-inkscape-font-specification:'Aafia, Normal';font-variant-ligatures:normal;font-variant-caps:normal;font-variant-numeric:normal;font-variant-east-asian:normal;fill:#ffffff;stroke-width:0.535445"
         id="path955" />
      <path
         d="m 20.229032,70.92366 1.456264,4.216392 h -2.912527 z m 4.419592,-2.895594 H 19.8057 l -4.114792,11.870243 h 0.03387 1.38853 l 1.117598,-3.217327 h 3.996259 l 1.117598,3.217327 h 5.418656 z"
         style="font-style:normal;font-variant:normal;font-weight:normal;font-stretch:normal;font-size:16.9333px;font-family:Aafia;-inkscape-font-specification:'Aafia, Normal';font-variant-ligatures:normal;font-variant-caps:normal;font-variant-numeric:normal;font-variant-east-asian:normal;fill:#ffffff;stroke-width:0.535445"
         id="path957" />
      <path
         d="m 44.464439,74.090188 c -0.423333,-0.592666 -1.049865,-1.083732 -1.89653,-1.507064 -0.846665,-0.423333 -1.913463,-0.778932 -2.573862,-1.134531 -0.660398,-0.338666 -0.914398,-0.694266 -0.999064,-0.999065 -0.08467,-0.304799 0.01693,-0.575732 0.304799,-0.778932 0.541866,-0.389466 1.74413,-0.575732 3.522127,0.863599 l 1.100664,-1.185331 C 42.195376,67.8926 40.806846,67.6894 39.655381,67.6386 c -1.28693,-0.0508 -2.302928,0.08467 -3.28506,0.423333 -0.982131,0.338666 -1.913463,0.897465 -2.489195,1.659463 -0.558799,0.745065 -0.761998,1.69333 -0.711198,2.489195 0.03387,0.778932 0.304799,1.422397 0.778931,1.94733 0.457199,0.524932 1.117598,0.914398 1.913463,1.253064 0.812799,0.338666 1.79493,0.609599 2.370662,0.914398 0.575732,0.287866 0.745065,0.592666 0.812799,0.897465 0.0508,0.304799 -0.01693,0.592666 -0.338666,0.812798 -0.609599,0.4064 -2.065863,0.541866 -4.453458,-1.185331 l -1.066798,1.219198 c 0.406399,0.338666 1.79493,1.710263 4.792124,2.184396 0.186266,0.03387 0.389466,0.0508 0.592665,0.06773 1.388531,0.118533 2.810928,-0.2032 3.826926,-0.626532 1.015998,-0.423333 1.64253,-0.914398 2.065863,-1.54093 0.406399,-0.626533 0.609598,-1.371598 0.609598,-2.082796 0,-0.728132 -0.203199,-1.388531 -0.609598,-1.981196 z"
         style="font-style:normal;font-variant:normal;font-weight:normal;font-stretch:normal;font-size:16.9333px;font-family:Aafia;-inkscape-font-specification:'Aafia, Normal';font-variant-ligatures:normal;font-variant-caps:normal;font-variant-numeric:normal;font-variant-east-asian:normal;fill:#ffffff;stroke-width:0.535445"
         id="path959" />
      <path
         d="m 59.36962,68.044999 h -2.133596 -5.198523 -2.133596 v 1.523997 h 2.133596 v 10.36318 h 5.198523 v -10.36318 h 2.133596 z"
         style="font-style:normal;font-variant:normal;font-weight:normal;font-stretch:normal;font-size:16.9333px;font-family:Aafia;-inkscape-font-specification:'Aafia, Normal';font-variant-ligatures:normal;font-variant-caps:normal;font-variant-numeric:normal;font-variant-east-asian:normal;fill:#ffffff;stroke-width:0.535445"
         id="path961" />
      <path
         d="m 69.194793,68.011133 h -4.82599 v 11.887176 h 4.82599 z"
         style="font-style:normal;font-variant:normal;font-weight:normal;font-stretch:normal;font-size:16.9333px;font-family:Aafia;-inkscape-font-specification:'Aafia, Normal';font-variant-ligatures:normal;font-variant-caps:normal;font-variant-numeric:normal;font-variant-east-asian:normal;fill:#ffffff;stroke-width:0.535445"
         id="path963" />
    </g>
  </g>
</svg>
