<?xml version="1.0" encoding="UTF-8" standalone="no"?>
<svg
   xmlns:dc="http://purl.org/dc/elements/1.1/"
   xmlns:cc="http://creativecommons.org/ns#"
   xmlns:rdf="http://www.w3.org/1999/02/22-rdf-syntax-ns#"
   xmlns:svg="http://www.w3.org/2000/svg"
   xmlns="http://www.w3.org/2000/svg"
   xmlns:sodipodi="http://sodipodi.sourceforge.net/DTD/sodipodi-0.dtd"
   xmlns:inkscape="http://www.inkscape.org/namespaces/inkscape"
   width="200mm"
   height="44mm"
   viewBox="0 0 200 44"
   version="1.1"
   id="svg1004"
   inkscape:version="1.0.2 (e86c870879, 2021-01-15, custom)"
   sodipodi:docname="NASTIE - ИМЯ - КОМПОЗИЦИЯ - 2.svg">
  <defs
     id="defs998">
    <rect
       x="19.915953"
       y="5.3619871"
       width="127.15569"
       height="32.171921"
       id="rect2223" />
    <rect
       x="-180.67262"
       y="47.625"
       width="465.66666"
       height="189.74405"
       id="rect1569" />
  </defs>
  <sodipodi:namedview
     id="base"
     pagecolor="#ffffff"
     bordercolor="#666666"
     borderopacity="1.0"
     inkscape:pageopacity="0.0"
     inkscape:pageshadow="2"
     inkscape:zoom="5.4901991"
     inkscape:cx="606.2479"
     inkscape:cy="63.920777"
     inkscape:document-units="mm"
     inkscape:current-layer="layer1"
     inkscape:document-rotation="0"
     showgrid="false"
     inkscape:window-width="1513"
     inkscape:window-height="909"
     inkscape:window-x="71"
     inkscape:window-y="100"
     inkscape:window-maximized="0" />
  <metadata
     id="metadata1001">
    <rdf:RDF>
      <cc:Work
         rdf:about="">
        <dc:format>image/svg+xml</dc:format>
        <dc:type
           rdf:resource="http://purl.org/dc/dcmitype/StillImage" />
        <dc:title></dc:title>
      </cc:Work>
    </rdf:RDF>
  </metadata>
  <g
     inkscape:label="Слой 1"
     inkscape:groupmode="layer"
     id="layer1">
    <g
       aria-label="E "
       transform="matrix(3.3171818,0,0,3.3171818,114.50811,-18.207916)"
       id="text2221"
       style="font-style:normal;font-variant:normal;font-weight:normal;font-stretch:normal;font-size:10.5833px;line-height:1.25;font-family:a_BosaNova;-inkscape-font-specification:'a_BosaNova, Normal';font-variant-ligatures:normal;font-variant-caps:normal;font-variant-numeric:normal;font-variant-east-asian:normal;white-space:pre;shape-inside:url(#rect2223);fill:#000000;fill-opacity:1;stroke:none;stroke-width:0.301461">
      <path
         d="m 21.291845,12.460379 c 0.126999,0.747887 0.483304,1.372301 1.068913,1.873244 0.592665,0.493887 1.266468,0.740831 2.02141,0.740831 v 0.99483 c -1.128885,0 -2.091966,-0.402165 -2.889241,-1.206496 -0.797275,-0.804331 -1.195913,-1.770939 -1.195913,-2.899824 0,-1.135941 0.39511,-2.1025486 1.18533,-2.8998239 0.797275,-0.8043307 1.763883,-1.2064961 2.899824,-1.2064961 v 0.9948301 c -0.761997,0 -1.435801,0.2469437 -2.02141,0.740831 -0.585609,0.4938869 -0.941914,1.1183019 -1.068913,1.8732439 l 1.869973,0 v 0.99483 z"
         style="font-style:normal;font-variant:normal;font-weight:normal;font-stretch:normal;font-size:10.5833px;font-family:a_BosaNova;-inkscape-font-specification:'a_BosaNova, Normal';font-variant-ligatures:normal;font-variant-caps:normal;font-variant-numeric:normal;font-variant-east-asian:normal;stroke-width:0.301461"
         id="path2227"
         sodipodi:nodetypes="ccccsscccscccc" />
    </g>
    <g
       aria-label="N A S T I E"
       transform="matrix(3.4531677,0,0,3.4531677,627.98762,-163.17412)"
       id="text1567"
       style="font-style:normal;font-weight:normal;font-size:10.5833px;line-height:1.25;font-family:sans-serif;white-space:pre;shape-inside:url(#rect1569);fill:#000000;fill-opacity:1;stroke:none;stroke-width:0.289588">
      <path
         d="m -177.85672,52.507571 v 4.921235 h -2.10607 v -7.842225 h 2.01082 l 2.23308,2.846907 v -2.846907 h 2.07433 v 7.842225 h -2.07433 v -2.201327 z"
         style="font-style:normal;font-variant:normal;font-weight:normal;font-stretch:normal;font-size:10.5833px;font-family:a_Rewinder;-inkscape-font-specification:'a_Rewinder, Normal';font-variant-ligatures:normal;font-variant-caps:normal;font-variant-numeric:normal;font-variant-east-asian:normal;fill:#ffffff;stroke-width:0.289588"
         id="path1573" />
      <path
         d="m -160.39829,49.586581 0.47625,1.767411 -3.18159,-0.01058 c -0.85372,0 -1.50636,0.105833 -1.95791,0.317499 -0.57149,0.268111 -0.98777,0.761998 -1.24883,1.481662 h 2.00025 v -1.471078 h 2.11666 v 5.757315 h -2.11666 v -2.476492 h -2.21191 c 0.0423,0.853719 0.31044,1.679217 0.80433,2.476492 l -1.67216,1.100663 c -0.83961,-1.284107 -1.25942,-2.585853 -1.25942,-3.905238 0,-1.559273 0.44803,-2.786935 1.34408,-3.682988 0.90311,-0.903108 2.13431,-1.354662 3.69358,-1.354662 z"
         style="font-style:normal;font-variant:normal;font-weight:normal;font-stretch:normal;font-size:10.5833px;font-family:a_Rewinder;-inkscape-font-specification:'a_Rewinder, Normal';font-variant-ligatures:normal;font-variant-caps:normal;font-variant-numeric:normal;font-variant-east-asian:normal;fill:#ffffff;stroke-width:0.289588"
         id="path1575"
         sodipodi:nodetypes="ccccccccccccccsccc" />
      <path
         d="m -144.96669,51.375158 -9.40575,0 c -0.26811,0 -0.40216,0.08819 -0.40216,0.264583 0,0.169333 0.23283,0.486832 0.6985,0.952497 0.65616,0.670275 1.08302,1.13594 1.28057,1.396995 0.46567,0.606776 0.6985,1.15358 0.6985,1.640412 0,0.712609 -0.28575,1.210024 -0.85724,1.492245 -0.40923,0.204611 -1.00895,0.306916 -1.79917,0.306916 h -1.87324 l -0.51858,-1.809744 h 2.28599 c 0.24695,0 0.37042,-0.09525 0.37042,-0.28575 0,-0.183443 -0.22931,-0.500942 -0.68792,-0.952497 -0.65616,-0.656164 -1.07596,-1.100662 -1.25941,-1.333495 -0.45861,-0.585609 -0.68791,-1.132413 -0.68791,-1.640412 0,-1.213551 0.80786,-1.820327 2.42357,-1.820327 l 9.25758,0 z"
         style="font-style:normal;font-variant:normal;font-weight:normal;font-stretch:normal;font-size:10.5833px;font-family:a_Rewinder;-inkscape-font-specification:'a_Rewinder, Normal';font-variant-ligatures:normal;font-variant-caps:normal;font-variant-numeric:normal;font-variant-east-asian:normal;fill:#ffffff;stroke-width:0.289588"
         id="path1577"
         sodipodi:nodetypes="cssccscsccssccsscc" />
      <path
         d="m -143.59866,57.428806 h -2.10607 v -6.021898 l -1.7145,-1.820327 h 5.54565 l 0.46567,1.820327 h -2.19075 z"
         style="font-style:normal;font-variant:normal;font-weight:normal;font-stretch:normal;font-size:10.5833px;font-family:a_Rewinder;-inkscape-font-specification:'a_Rewinder, Normal';font-variant-ligatures:normal;font-variant-caps:normal;font-variant-numeric:normal;font-variant-east-asian:normal;fill:#ffffff;stroke-width:0.289588"
         id="path1579"
         sodipodi:nodetypes="cccccccc" />
      <path
         d="m -136.69837,54.074351 c 0.58905,0.488191 1.36921,0.48873 2.15899,0 v 3.354455 h -2.15899 z"
         style="font-style:normal;font-variant:normal;font-weight:normal;font-stretch:normal;font-size:10.5833px;font-family:a_Rewinder;-inkscape-font-specification:'a_Rewinder, Normal';font-variant-ligatures:normal;font-variant-caps:normal;font-variant-numeric:normal;font-variant-east-asian:normal;fill:#ffffff;stroke-width:0.289588"
         id="path1581"
         sodipodi:nodetypes="ccccc" />
    </g>
    <path
       id="path1600"
       style="display:inline;fill:#000000;stroke-width:1"
       d="m 149.80346,15.709941 c -0.42282,-0.342382 -0.12341,-0.750115 0.4389,-1.082281 l 0.33125,-0.195673 -0.34109,-0.360963 c -0.80427,-0.851133 -0.81627,-1.513395 -0.0424,-2.343522 l 0.2981,-0.319792 -0.43138,-0.406842 c -0.65071,-0.613699 -0.5526,-0.996436 0.29647,-1.1565332 0.47561,-0.08968 1.83082,0.02336 2.41952,0.2018052 0.13065,0.03959 -0.0831,-0.1662602 -0.47507,-0.4574722 -1.82753,-1.3578802 -2.11144,-2.3155402 -0.65658,-2.2147432 l 0.59734,0.04136 -7e-5,-0.635413 c -1.1e-4,-0.923978 0.52,-1.443038 1.44596,-1.443038 h 0.6384 l -0.003,-0.682924 c 0.0273,-0.685719 0.0787,-0.715849 0.40171,-0.721529 0.4884,-0.04658 1.49381,0.934012 2.14142,2.0886072 0.2103,0.3749269 0.34452,0.5747944 0.29825,0.4441479 -0.92206,-2.6038851 -0.13851,-4.9763361 0.98215,-2.9738151 0.1138,0.20335 0.1544,0.188477 0.54109,-0.19821 0.68424,-0.684247 1.49443,-0.697045 2.15739,-0.03408 l 0.38121,0.381208 0.41613,-0.458161 c 0.61603,-0.678257 1.015,-0.591069 1.16983,0.255637 0.0865,0.473221 -0.026,1.885652 -0.19349,2.428625 -0.0411,0.1333655 0.17503,-0.06985 0.45468,-0.470132 1.91002,-2.7339778 5.14629,-5.43396484 5.04311,-4.0018175 l -0.0414,0.574618 c 0,0 0.3685,-0.025321 0.55015,-1.82e-4 1.06494,0.147379 1.10569,1.1572078 0.36426,3.0410393 -0.26647,0.6770467 -1.36333,2.3404183 -1.11519,2.3711052 0.30351,0.037536 0.92116,0.092344 1.00687,0.380907 0.0921,0.378183 -1.08557,1.551852 -2.24017,2.1994722 -0.37493,0.2102992 -0.57479,0.3445062 -0.44414,0.2982442 2.48018,-0.8782522 5.22639,-0.5643763 3.06035,0.923862 0.86679,0.193318 1.42429,0.409175 2.0898,0.727132 0.48885,0.233558 0.958,0.500101 1.38004,0.858624 0.45675,0.38801 0.40619,1.332702 -0.72723,1.573778 0,0 -1.49975,0.313503 -2.66897,0.279163 -0.0851,-0.0025 -0.0241,-0.01205 0.34446,0.3029 0.16262,0.138964 0.41949,0.5803 0.0618,0.809797 -0.53786,0.34509 -2.40171,0.205479 -2.94642,-0.0095 -0.13065,-0.05157 0.0831,0.146198 0.47507,0.43949 1.82554,1.366061 1.86833,2.23651 0.75701,2.23651 h -0.69762 v 0.605713 c 0,0.892158 -0.53325,1.413348 -1.44603,1.413348 h -0.63841 c 0,0 0.0166,0.340059 0.003,0.682921 -0.0136,0.342861 -0.0416,0.750118 -0.36523,0.785379 -0.32364,0.03526 -1.53029,-0.99786 -2.17791,-2.152455 -0.2103,-0.374928 -0.34451,-0.574793 -0.29824,-0.444147 0.92205,2.603884 0.13851,4.976334 -0.98215,2.973816 -0.11383,-0.203391 -0.15423,-0.188657 -0.53971,0.196824 -0.68509,0.685088 -1.49531,0.698927 -2.15739,0.03684 l -0.3826,-0.382597 -0.41613,0.458162 c -0.42,0.462428 -0.62005,0.53934 -0.91567,0.352038 l -1e-5,-5e-6 c -0.34056,-0.21577 -0.37645,-2.012554 -0.0606,-3.036302 0.0411,-0.133366 -0.16347,0.07819 -0.45468,0.47013 -1.35448,1.82297 -2.23274,2.093935 -2.23274,0.68886 v -0.629474 h -0.60572 c -0.89216,0 -1.41334,-0.533244 -1.41334,-1.446034 v -0.638405 c 0,0 -0.48094,0.01974 -0.68292,0.003 -0.20199,-0.01673 -0.38655,-0.04485 -0.52549,-0.09002 -0.13894,-0.04518 -0.47798,-0.134653 -0.23694,-0.524229 0.24104,-0.389577 2.58717,-2.230763 2.58717,-2.230763 -0.19151,-0.03708 -3.15385,0.558303 -3.57667,0.215921 z m 3.99224,-0.27265 c -0.25466,0.233249 -0.57283,0.525395 -0.82628,0.751846 -0.25344,0.226451 -2.48956,1.97692 -1.46641,1.973134 0.72243,-0.0027 0.9233,-0.108485 1.1405,-0.600796 0.28534,-0.646727 1.26971,-1.690158 2.26278,-2.39854 0.45963,-0.327863 0.74741,-0.565435 0.63952,-0.527932 -1.01644,0.353281 -3.26265,0.381325 -4.21665,0.05265 -0.52685,-0.181512 -0.7127,-0.134021 -1.199,0.306409 -0.92293,0.835861 3.06972,0.322625 3.52904,0.207525 m 4.2189,7.045756 c 0.20094,-0.306676 0.2009,-0.369316 -9.8e-4,-1.441164 -0.24543,-1.303858 -0.11633,-2.977009 0.30281,-3.924557 0.32312,-0.730446 0.31066,-0.772577 -0.3497,-1.183083 -0.34101,-0.211982 -0.6988,-0.562587 -0.86006,-0.842781 -0.15188,-0.263885 -0.3702,-0.504393 -0.48516,-0.534454 -0.11496,-0.03005 -0.18253,-0.0118 -0.15016,0.04058 0.079,0.127838 -0.28445,0.260112 -0.44391,0.161558 -0.0695,-0.04299 -0.0931,-0.0243 -0.0525,0.04146 0.0407,0.06577 -0.20496,0.298156 -0.5458,0.516399 -3.00112,1.921649 -3.87544,5.101609 -1.40267,5.101609 h 0.71993 l -0.0745,0.712612 c -0.13633,1.30428 0.8203,0.743069 2.05599,-1.206164 0.80341,-1.267317 0.95213,-1.220067 0.63763,0.202583 -0.50683,2.292728 -0.15256,3.578608 0.64893,2.35538 z m 2.88347,0.01815 c 0.43002,-0.465761 0.68928,-0.531399 0.79412,-0.201055 0.0382,0.120314 0.20056,0.341943 0.36083,0.492509 0.74008,0.695265 0.92852,-0.808691 0.37074,-2.958958 -0.0847,-0.326609 -0.11351,-0.568787 -0.064,-0.538173 0.0495,0.03062 0.10939,-0.0022 0.133,-0.07311 0.0236,-0.07083 0.29407,0.267675 0.60103,0.752237 0.59543,0.939941 1.66542,2.038158 1.90422,1.954447 0.0954,-0.03345 0.13741,-0.298278 0.12377,-0.780544 l -0.0207,-0.729922 h 0.74072 c 1.00722,0 1.37902,-0.351883 1.37902,-1.305148 0,-1.465149 -1.35745,-2.982318 -4.09587,-4.577821 -0.18895,-0.110088 -0.19642,-0.188609 -0.0728,-0.765223 0.27592,-1.286541 -0.30816,-2.663919 -1.42367,-3.357364 -0.65491,-0.4071132 -0.65427,-0.4041422 -0.29798,-1.3639554 0.44894,-1.209406 0.52875,-3.238531 0.17106,-4.348635 -0.45024,-1.397297 -1.72303,-1.896511 -2.54595,-0.998556 -0.44866,0.489579 -0.70831,0.5618 -0.81469,0.226629 -0.0382,-0.120313 -0.20056,-0.341945 -0.36083,-0.492506 -0.74007,-0.695265 -0.92851,0.808687 -0.37074,2.958957 0.0847,0.3266089 0.11351,0.568784 0.064,0.538172 -0.0495,-0.030641 -0.10938,0.0025 -0.133,0.07311 -0.0236,0.07083 -0.29407,-0.2676768 -0.60102,-0.752234 -0.59289,-0.935921 -1.66357,-2.036661 -1.90422,-1.957676 -0.17497,0.05743 -0.24867,0.584021 -0.15308,1.093593 0.0548,0.292062 0.18024,0.427347 0.57385,0.618838 0.79778,0.3881186 1.67524,1.262603 2.51724,2.508705 0.91241,1.3503072 0.9394,1.5238262 0.29859,1.9191654 -0.96814,0.597271 -1.53117,2.006697 -1.29631,3.245082 0.0611,0.322227 0.0844,0.629123 0.0517,0.682 -0.0327,0.05288 -0.0167,0.114066 0.0355,0.135978 0.0522,0.02189 0.22074,0.245967 0.37458,0.497905 0.15383,0.251939 0.57073,0.644247 0.92644,0.87179 0.46334,0.296396 0.62901,0.469625 0.58419,0.610851 -0.0344,0.108421 -0.14431,0.419345 -0.24423,0.690947 -1.24187,3.375713 0.53892,7.339689 2.39444,5.329964 z m 7.74806,-4.33883 c 0,-0.382058 -0.77877,-1.136748 -1.91878,-1.859442 -1.26731,-0.803405 -1.22007,-0.952127 0.20258,-0.637632 2.42705,0.53653 3.60223,0.159247 2.22486,-0.714264 l -0.52403,-0.332324 c 0,0 3.17536,-0.181696 3.48533,-0.38078 2.10145,-1.349674 -4.88669,-3.834297 -8.40699,-2.403791 l -0.48321,0.196356 0.11903,0.52018 c 0.0792,0.346248 0.0795,0.713222 9.9e-4,1.097479 l -0.11826,0.577298 0.89662,0.632143 c 1.19919,0.845456 2.48166,2.082779 2.91869,2.815934 0.38038,0.638126 0.46612,0.690859 1.15799,0.712261 0.37059,0.01146 0.44539,-0.02605 0.44539,-0.223418 z m -13.63457,-3.453445 c 0.34617,-0.07016 0.84535,-0.213162 1.10931,-0.317775 l 0.47992,-0.190208 -0.11575,-0.565046 c -0.0773,-0.37719 -0.0746,-0.744646 0.008,-1.105265 l 0.12361,-0.540218 -0.60891,-0.227824 c -2.64515,-0.989683 -5.88942,-0.247787 -5.88942,1.346781 0,1.339049 2.36486,2.112078 4.89337,1.599555 z m 2.08782,-3.493641 c 0.20672,-0.293278 0.5891,-0.680761 0.84974,-0.861073 0.60962,-0.4217552 0.60996,-0.4192372 -0.22715,-1.6707384 -1.24219,-1.8570803 -2.3774,-2.743807 -3.64275,-2.845376 -1.04977,-0.08427 -1.46688,0.3099107 -1.46688,1.386245 v 0.719926 l -0.71261,-0.07448 c -1.30428,-0.136323 -0.74307,0.820294 1.20616,2.0559932 1.26732,0.8034002 1.22007,0.9521212 -0.20258,0.6376312 -2.3685,-0.5235892 -3.62632,-0.140183 -2.27665,0.693962 0.37233,0.23011 0.42015,0.233081 0.92196,0.05724 0.83489,-0.292555 4.01732,-0.130878 4.69977,0.238767 0.4617,0.250074 0.42657,0.264027 0.85099,-0.338097 z m 7.44923,-0.457566 c 2.97446,-2.0092984 6.50795,-8.586993 3.89103,-8.2283129 l -0.53443,0.07325 0.0789,-0.770152 c 0.13956,-1.36226005 -3.61665,2.4799665 -4.87892,4.4711172 -0.8034,1.2673143 -0.95212,1.2200633 -0.63762,-0.2025827 0.46754,-2.115005 0.25073,-3.321789 -0.4601,-2.560844 -0.42659,0.45666 -0.43048,0.492947 -0.17967,1.676031 0.24698,1.1650026 0.01,3.72924 -0.41517,4.4886202 -0.082,0.146567 0.0109,0.262321 0.41772,0.520314 0.28777,0.1824962 0.69131,0.5702942 0.89676,0.8617662 l 0.37354,0.529954 0.36767,-0.18889 c 0.20222,-0.103891 0.68835,-0.405509 1.08028,-0.670275 z m -2.21419,-2.6613454 c 0.14887,-0.212301 0.29564,-0.385993 0.32615,-0.385993 0.10265,0 -0.17547,0.433637 -0.38714,0.603611 -0.14878,0.119467 -0.13106,0.05626 0.061,-0.217618 z m 0.49204,-0.600237 c 0,-0.122069 0.81404,-0.9149139 0.86919,-0.8465634 0.0228,0.028182 -0.1635,0.2516874 -0.41391,0.4966464 -0.25041,0.244964 -0.45528,0.402425 -0.45528,0.349917 z m 1.06892,-1.0149928 c 0,-0.027445 0.1402,-0.141762 0.31154,-0.2540335 0.17135,-0.1122717 0.27527,-0.1454307 0.23093,-0.073687 -0.0847,0.1371043 -0.54247,0.4136295 -0.54247,0.3277205 z m 5.67121,4.5192132 c 0.3572,-0.325345 0.33696,-0.538492 -0.0594,-0.625341 -0.17964,-0.03935 -0.40093,-0.09503 -0.49176,-0.123701 -0.18952,-0.05984 -2.30325,0.283027 -2.71876,0.441 -0.17977,0.06835 -0.25135,0.06376 -0.20387,-0.01308 0.0402,-0.06513 -0.0223,-0.118415 -0.13897,-0.118415 -0.11668,0 0.13344,-0.200418 0.55584,-0.4453822 0.88562,-0.5136042 2.30747,-1.8317162 2.22988,-2.0671872 -0.0719,-0.218258 -1.10046,-0.280337 -1.27131,-0.07673 -0.0713,0.085 -0.34533,0.485122 -0.6089,0.889166 -0.46381,0.710979 -1.3289,1.5454874 -2.31075,2.2290464 -0.26129,0.18191 -0.37625,0.297305 -0.25545,0.256433 0.97161,-0.328763 3.34662,-0.310289 4.25653,0.0331 0.30321,0.114431 0.59436,0.006 1.0169,-0.37892 z"
       sodipodi:nodetypes="sscsscssscscsscccssssscssssscssscsscassssssszcssczzssssscsssssscssczzzszszsscssccscsssssscscsssccscssscssscsssssssssssssssssssssssssssscssscssssccsssccssssscsssssscscssssssssscsssssssscssssssssssssssssssssssssssssssssss" />
    <path
       style="display:inline;fill:#ffffff;stroke:none;stroke-width:0.264582"
       d="m 159.45449,22.744417 c -0.28406,-0.0997 -0.7346,-0.590183 -0.94987,-1.034087 -0.3002,-0.619049 -0.43086,-1.232484 -0.4598,-2.158773 -0.0316,-1.010263 0.0554,-1.59071 0.38684,-2.582668 0.15431,-0.461799 0.22441,-0.748742 0.20339,-0.832497 -0.0196,-0.07825 -0.15605,-0.21477 -0.35177,-0.352061 -0.59192,-0.415208 -0.89939,-0.705766 -1.21482,-1.147981 -0.3089,-0.433062 -0.31453,-0.447162 -0.35922,-0.900262 -0.0771,-0.781144 -0.0526,-1.352053 0.0764,-1.781652 0.22115,-0.736801 0.56578,-1.229882 1.18458,-1.694844 0.54007,-0.4058142 0.56351,-0.4961742 0.27513,-1.0608074 -0.27312,-0.534739 -0.9528,-1.505663 -1.44541,-2.064768 -0.4994,-0.5668067 -1.00105,-0.9917189 -1.54715,-1.310493 -0.24551,-0.143301 -0.49097,-0.320284 -0.54548,-0.393292 -0.14168,-0.18976 -0.18519,-0.877397 -0.0725,-1.146289 0,0 0.0421,-0.134753 0.0959,-0.155194 0.0538,-0.02046 0.15595,0.04668 0.15595,0.04668 0.25257,0.0756 1.12831,1.021996 1.79816,2.0060725 0.44468,0.6532715 0.4741,0.6812325 0.62193,0.5910935 0.13248,-0.08078 0.13263,-0.07904 -0.10194,-1.180028 -0.20669,-0.970148 -0.2469,-1.950869 -0.0939,-2.289445 0.13028,-0.288226 0.31857,-0.271493 0.61622,0.05476 0.12483,0.136834 0.26663,0.323093 0.3151,0.413915 0.0615,0.115218 0.12561,0.165124 0.21213,0.165124 0.13778,0 0.44544,-0.208951 0.68278,-0.463728 0.67746,-0.727219 1.76932,-0.398382 2.27737,0.685881 0.53533,1.142472 0.49871,3.258337 -0.084,4.855094 -0.14485,0.3969062 -0.18845,0.7345222 -0.11005,0.8521352 0.0209,0.03138 0.23959,0.1997842 0.48598,0.3742682 0.24638,0.174484 0.55605,0.439854 0.68815,0.589712 0.36155,0.410157 0.64054,1.011919 0.73984,1.595807 0.0779,0.458352 0.0772,0.524214 -0.0133,1.100887 -0.0654,0.417151 -0.0799,0.63922 -0.0452,0.694183 0.028,0.04446 0.327,0.252528 0.66436,0.4624 2.35258,1.463518 3.54573,2.89808 3.54573,4.263131 0,0.914241 -0.40672,1.236227 -1.56155,1.236227 h -0.55974 l -9.8e-4,0.68554 c -3.9e-4,0.377046 -0.022,0.719139 -0.048,0.760205 -0.15399,0.24339 -1.10288,-0.713055 -1.96728,-1.982945 -0.42162,-0.619399 -0.47525,-0.673685 -0.62009,-0.627713 -0.14038,0.04455 -0.13704,0.195039 0.0191,0.862828 0.27475,1.174824 0.33771,2.2343 0.15501,2.608569 -0.0629,0.12892 -0.14013,0.208703 -0.21182,0.218911 -0.14163,0.02016 -0.50399,-0.297786 -0.63738,-0.559251 -0.20362,-0.399139 -0.34399,-0.381125 -0.87089,0.111768 -0.3482,0.325721 -0.76649,0.561067 -0.99174,0.557992 -0.0711,-9.83e-4 -0.22248,-0.03445 -0.33631,-0.0744 z"
       id="path1602"
       sodipodi:nodetypes="ssssssssssssssszssssssssssssssssssssccsssssssscss" />
    <path
       style="display:inline;fill:#a0a0a0;stroke:none;stroke-width:0.264582"
       d="m 152.56903,14.561119 c -1.19866,-0.13828 -2.1381,-0.602878 -2.42738,-1.200459 -0.13364,-0.276038 -0.14171,-0.697842 -0.0183,-0.958304 0.49139,-1.037558 2.62807,-1.562294 4.66845,-1.146495 0.46824,0.09543 1.52726,0.430583 1.61552,0.511283 0.0195,0.0178 0.002,0.172089 -0.0393,0.34283 -0.0961,0.398884 -0.0982,1.043455 -0.005,1.486266 l 0.0733,0.348013 -0.40979,0.158027 c -0.55325,0.213359 -1.35227,0.398348 -2.00134,0.463359 -0.60572,0.06067 -0.89892,0.05976 -1.45614,-0.0044 z"
       id="path1604" />
    <path
       style="display:inline;fill:#00ffff;stroke:none;stroke-width:0.264582"
       d="m 162.76804,11.047917 c -0.28928,-0.426461 -0.57954,-0.72625 -1.01536,-1.0486982 -0.22765,-0.16843 -0.43115,-0.336195 -0.45223,-0.372812 -0.0211,-0.03659 0.009,-0.173545 0.0669,-0.3042942 0.26165,-0.591502 0.43136,-1.813287 0.42844,-3.084497 -0.002,-0.779718 -0.0228,-1.051748 -0.11317,-1.46732 -0.16297,-0.74922 -0.15129,-1.007325 0.0572,-1.262613 0.0925,-0.113255 0.24511,-0.259355 0.33917,-0.324661 l 0.17101,-0.118739 0.1043,0.104298 c 0.28579,0.285782 0.26835,1.045099 -0.0633,2.7564779 -0.15914,0.8212341 -0.17148,1.0393141 -0.0608,1.0756361 0.0966,0.03172 0.28813,-0.201609 0.82452,-1.0048313 0.74609,-1.1172167 1.26824,-1.6841457 1.65723,-1.7993297 0.0864,-0.02557 0.13461,-0.0015 0.20176,0.101033 0.0764,0.116639 0.0836,0.220889 0.0538,0.779404 l -0.0345,0.644753 0.22075,-0.03925 c 0.12141,-0.02159 0.43029,-0.0392 0.6864,-0.0392 0.38433,4.9e-5 0.50405,0.02051 0.68548,0.117121 0.76755,0.4087308 0.68827,1.541366 -0.20107,2.872934 -0.37513,0.561662 -1.33861,1.4654804 -2.09121,1.9617134 -0.62595,0.412725 -1.15641,0.714702 -1.25005,0.711618 -0.0223,-4.91e-4 -0.11911,-0.11718 -0.21515,-0.258769 z m -0.44835,-3.1144694 c 0.17965,-0.209886 0.2781,-0.428193 0.2195,-0.486785 -0.0367,-0.03669 -0.50187,0.556999 -0.50191,0.640617 -6e-5,0.118011 0.0932,0.06721 0.28241,-0.153832 z m 0.88418,-1.046594 c 0.38056,-0.3805625 0.45292,-0.4940193 0.31505,-0.4940193 -0.0778,0 -0.86081,0.7571083 -0.86081,0.8323883 0,0.131753 0.19904,0.0084 0.54576,-0.338369 z m 0.89516,-0.7530401 c 0.2166,-0.1569007 0.27349,-0.2583719 0.14488,-0.2583719 -0.0915,0 -0.49929,0.2960958 -0.49929,0.3624986 0,0.093665 0.13689,0.053448 0.35441,-0.1041267 z"
       id="path1606" />
    <path
       style="display:inline;fill:#0000ff;stroke:none;stroke-width:0.264582"
       d="m 156.13426,11.308005 c -0.43421,-0.19367 -1.06455,-0.296735 -2.285,-0.373604 -1.06743,-0.06723 -2.09288,-0.01077 -2.51553,0.138457 -0.4199,0.148279 -0.68745,0.07556 -1.13175,-0.307609 -0.27603,-0.238054 -0.29169,-0.398373 -0.0517,-0.529482 0.13994,-0.07646 0.28969,-0.09101 0.8925,-0.08678 0.59404,0.0044 0.8686,0.03438 1.5263,0.167943 0.88529,0.179771 1.34521,0.21024 1.34521,0.08912 0,-0.09611 -0.32332,-0.356788 -0.90543,-0.7300332 -1.20917,-0.7753052 -2.02052,-1.5650172 -1.90831,-1.8574192 0.057,-0.148653 0.34616,-0.19372 0.86883,-0.135437 0.27068,0.0302 0.5047,0.05487 0.52005,0.05487 0.0153,0 0.0279,-0.257437 0.0279,-0.572084 0,-0.7216962 0.0655,-0.9877109 0.3051,-1.238872 0.28157,-0.295165 0.75076,-0.382157 1.39856,-0.259301 1.1372,0.215666 2.1541,1.069719 3.32747,2.794599 0.48269,0.709577 0.66014,1.0281982 0.66014,1.1853592 0,0.06075 -0.10077,0.183568 -0.24576,0.299558 -0.36723,0.2937692 -0.88905,0.8279182 -1.16504,1.1925712 -0.1346,0.177853 -0.26222,0.322664 -0.28359,0.321808 -0.0214,-9.83e-4 -0.19234,-0.07001 -0.37992,-0.153674 z"
       id="path1608" />
    <path
       style="display:inline;fill:#ff5555;stroke:none;stroke-width:0.264582"
       d="m 167.67678,18.089439 c -0.30533,-0.06105 -0.41073,-0.15039 -0.69539,-0.589421 -0.62887,-0.96992 -1.75836,-2.046039 -3.23683,-3.083887 -0.29876,-0.209719 -0.5612,-0.39702 -0.58321,-0.416231 -0.022,-0.01918 -0.004,-0.203537 0.0388,-0.409617 0.0982,-0.466895 0.0997,-1.023093 0.004,-1.428573 -0.0404,-0.170736 -0.0566,-0.327597 -0.0361,-0.348584 0.0206,-0.021 2.62313,1.528691 2.93001,1.444658 2.83417,0.802934 5.01808,-1.408284 2.34778,1.139367 l 0.37871,0.240124 c 0.4543,0.288054 0.56382,0.378508 0.68827,0.568435 0.0925,0.141172 0.0923,0.147138 -0.009,0.248456 -0.28454,0.284542 -1.04631,0.2675 -2.74379,-0.06139 -0.89772,-0.173928 -1.0404,-0.18373 -1.08239,-0.07434 -0.0448,0.116723 0.0379,0.191383 0.72476,0.654728 1.33439,0.900109 1.93304,1.445602 2.07122,1.887301 0.0759,0.242466 -0.2544,0.337391 -0.79662,0.228971 z"
       id="path1610"
       sodipodi:nodetypes="cssscccccsscsscccc" />
    <path
       style="display:inline;fill:#ffffff;stroke:none;stroke-width:0.264582"
       d="m 157.21068,22.59926 c -0.26259,-0.290153 -0.24891,-1.206827 0.0399,-2.674404 0.21832,-1.109364 0.18327,-1.370529 -0.13743,-1.024159 -0.0725,0.07825 -0.37309,0.503161 -0.66807,0.944233 -0.33832,0.505877 -0.68995,0.958062 -0.95242,1.22479 -0.52703,0.53559 -0.7851,0.617748 -0.9106,0.289898 -0.0508,-0.132831 -0.0453,-0.277663 0.0366,-0.958495 l 0.0296,-0.245759 h -0.49383 c -0.2716,0 -0.61021,-0.02496 -0.75244,-0.05547 -0.7105,-0.152374 -1.06314,-0.806743 -0.86422,-1.603664 0.10911,-0.437122 0.48044,-1.178772 0.80393,-1.605685 0.37587,-0.496022 1.13634,-1.19921 1.82981,-1.691961 0.33255,-0.236293 0.62888,-0.474937 0.65852,-0.530323 0.0343,-0.06402 0.10822,-0.100698 0.20306,-0.100698 0.20145,0 0.31284,-0.048 0.31284,-0.134882 0,-0.120313 0.17954,-0.0808 0.31901,0.07021 0.0723,0.07826 0.2022,0.247055 0.28872,0.375104 0.22444,0.332187 0.50057,0.594931 0.93414,0.888877 0.53208,0.360727 0.53785,0.38344 0.27661,1.089643 -0.30705,0.830069 -0.36976,1.178634 -0.40267,2.238198 -0.0225,0.722772 -0.01,1.052941 0.0559,1.474556 0.21438,1.37268 0.20948,1.301775 0.10522,1.521381 -0.11524,0.242747 -0.44389,0.599913 -0.55201,0.599913 -0.0427,0 -0.11478,-0.04109 -0.16023,-0.09131 z"
       id="path1612" />
    <path
       style="display:inline;fill:#a0a0a0;stroke:none;stroke-width:0.264582"
       d="m 162.81333,11.064969 c -0.25658,-0.378079 -0.55187,-0.688271 -1.02562,-1.0773532 -0.26569,-0.218213 -0.47137,-0.424799 -0.45789,-0.459931 0.14939,-0.3892822 0.30485,-1.0126552 0.37726,-1.5126762 0.12486,-0.862253 0.12951,-2.679721 0.008,-3.251953 -0.0851,-0.401766 -0.10817,-0.620314 -0.0973,-0.92146 0.006,-0.157767 0.47865,-0.708314 0.6085,-0.708314 0.0389,0 0.117,0.07567 0.17339,0.168154 0.16558,0.271563 0.14041,1.007616 -0.0782,2.28583 -0.20381,1.191837 -0.21625,1.364442 -0.10155,1.408461 0.11996,0.04604 0.2278,-0.07691 0.83638,-0.9535176 0.69084,-0.9950784 1.15843,-1.5396344 1.47069,-1.7127854 0.37374,-0.207241 0.40729,-0.150434 0.40729,0.689707 v 0.68318 l 0.71442,-0.0039 c 0.69972,-0.0039 0.71897,-9.83e-4 0.93536,0.141723 0.59577,0.3928888 0.55305,1.369858 -0.10898,2.492174 -0.53568,0.908112 -2.0356,2.2254514 -3.23267,2.8391594 -0.2348,0.120372 -0.28375,0.108243 -0.42942,-0.106423 z m -0.44215,-3.1532804 c 0.16555,-0.216821 0.24503,-0.48408 0.14397,-0.48408 -0.0653,0 -0.47791,0.555023 -0.47791,0.642845 0,0.153172 0.15032,0.0817 0.33394,-0.158765 z m 0.86899,-1.0447 c 0.34476,-0.3376501 0.42301,-0.4741543 0.27179,-0.4741543 -0.11664,0 -0.85385,0.7219913 -0.85385,0.8362153 0,0.08548 0.0156,0.09076 0.11641,0.03935 0.064,-0.03266 0.27357,-0.21329 0.46565,-0.401413 z m 0.87678,-0.714018 c 0.20588,-0.1426768 0.25886,-0.277529 0.10904,-0.277529 -0.12114,0 -0.48137,0.2569358 -0.48137,0.3433416 0,0.1108648 0.15758,0.083012 0.37233,-0.065813 z"
       id="path1614" />
    <path
       style="display:inline;fill:#0000ff;stroke:none;stroke-width:0.264582"
       d="m 168.12762,11.045158 c -0.81225,-0.2166 -2.55643,-0.254934 -3.47756,-0.07644 -0.1992,0.03861 -0.36859,0.06417 -0.37644,0.05682 -0.008,-0.0073 0.21334,-0.183204 0.49153,-0.390798 0.77316,-0.576989 1.62778,-1.4627414 2.12769,-2.2052274 0.2325,-0.345328 0.45987,-0.658696 0.50527,-0.696371 0.11707,-0.09715 0.67819,-0.120225 0.9247,-0.03802 0.3234,0.107855 0.29635,0.198825 -0.21495,0.722911 -0.55185,0.565661 -1.06792,0.9891802 -1.72455,1.4152972 -0.5647,0.3664532 -0.67704,0.4733392 -0.54909,0.5224392 0.0459,0.01761 0.0834,0.06445 0.0834,0.104092 0,0.0866 0.0974,0.09182 0.29413,0.01574 0.21245,-0.08217 1.29536,-0.28891 1.99099,-0.380096 0.58939,-0.07726 0.61103,-0.07648 1.00826,0.03645 0.34638,0.09848 0.40848,0.133283 0.42319,0.237193 0.0206,0.145333 -0.37387,0.552637 -0.67234,0.694271 -0.22694,0.107688 -0.37399,0.104466 -0.83426,-0.01825 z"
       id="path1618" />
    <path
       style="display:inline;fill:#a0a0a0;stroke:none;stroke-width:0.264582"
       d="m 157.20945,22.597913 c -0.23637,-0.261193 -0.2383,-1.21895 -0.005,-2.416679 0.0721,-0.369934 0.1443,-0.841404 0.16043,-1.047712 0.0501,-0.640389 -0.0893,-0.527147 -0.97128,0.789017 -0.52114,0.777683 -1.21838,1.545231 -1.45841,1.605476 -0.38545,0.09674 -0.45339,-0.151656 -0.3153,-1.152762 l 0.0303,-0.219889 h -0.49485 c -0.27216,0 -0.61123,-0.02496 -0.75347,-0.05547 -0.7105,-0.152374 -1.06313,-0.806743 -0.86421,-1.603664 0.10911,-0.437122 0.48044,-1.178772 0.80393,-1.605685 0.37586,-0.496022 1.13635,-1.19921 1.82981,-1.691961 0.33255,-0.236293 0.62888,-0.474937 0.65852,-0.530323 0.0343,-0.06402 0.10821,-0.100698 0.20305,-0.100698 0.20146,0 0.31285,-0.048 0.31285,-0.134882 0,-0.120313 0.17954,-0.0808 0.31901,0.07021 0.0723,0.07826 0.20263,0.247055 0.28969,0.375104 0.20904,0.307482 0.58315,0.66 0.98515,0.928287 0.47534,0.31724 0.48288,0.352662 0.22357,1.050233 -0.2964,0.797362 -0.36951,1.208922 -0.40216,2.264067 -0.0215,0.6956 -0.008,1.031328 0.0567,1.448687 0.2144,1.375703 0.2093,1.301777 0.10504,1.521381 -0.11524,0.242747 -0.44389,0.599913 -0.55201,0.599913 -0.0427,0 -0.11533,-0.04169 -0.16145,-0.09266 z"
       id="path1620" />
    <path
       style="display:inline;fill:#ffffff;stroke:none;stroke-width:0.264582"
       d="m 157.18795,22.498872 c -0.16712,-0.255054 -0.1546,-1.117529 0.0327,-2.254834 0.16623,-1.009274 0.19782,-1.456193 0.10691,-1.512378 -0.0741,-0.04579 -0.29054,0.198969 -0.67371,0.761855 -0.85748,1.259664 -1.53007,2.007059 -1.80616,2.007059 -0.23205,0 -0.28087,-0.139767 -0.24414,-0.698968 0.0171,-0.259655 0.0444,-0.507052 0.0608,-0.549773 0.025,-0.06515 -0.0811,-0.08623 -0.65767,-0.130715 -0.77084,-0.05947 -1.02942,-0.151552 -1.24645,-0.443861 -0.36865,-0.49653 -0.32345,-1.087674 0.15412,-2.015785 0.43555,-0.846424 1.07576,-1.537946 2.21573,-2.393279 0.31301,-0.234862 0.61379,-0.477298 0.66839,-0.538738 0.0546,-0.06144 0.19047,-0.126299 0.30194,-0.144123 0.11146,-0.0178 0.21479,-0.06404 0.22963,-0.102695 0.0148,-0.03866 0.0667,-0.07028 0.11523,-0.07028 0.0987,0 0.24278,0.146857 0.56328,0.574066 0.22626,0.301585 0.53383,0.580928 0.95749,0.869611 0.385,0.262341 0.39612,0.324445 0.17486,0.97603 -0.3175,0.934998 -0.35161,1.139129 -0.38232,2.288526 -0.0245,0.918143 -0.0136,1.155991 0.0815,1.770283 0.16456,1.063506 0.16,1.101101 -0.18506,1.528069 -0.20559,0.254377 -0.33792,0.277025 -0.46706,0.07993 z"
       id="path1622" />
    <path
       style="display:inline;fill:#ffffff;stroke:none;stroke-width:0.264582"
       d="m 157.21893,22.501715 c -0.13334,-0.160316 -0.11953,-1.223908 0.0293,-2.257458 0.1495,-1.038133 0.17048,-1.537581 0.0646,-1.537581 -0.10312,0 -0.28978,0.21954 -0.81381,0.957168 -0.56655,0.797485 -1.12142,1.470397 -1.3668,1.657552 -0.11676,0.08906 -0.22632,0.129251 -0.32232,0.118244 l -0.14543,-0.01668 -9e-5,-0.620384 -8e-5,-0.620386 -0.23274,-0.03527 c -0.128,-0.0194 -0.43389,-0.05898 -0.67974,-0.08795 -0.24586,-0.02897 -0.528,-0.08651 -0.62698,-0.12787 -0.39573,-0.165345 -0.64642,-0.736329 -0.55068,-1.254246 0.13661,-0.739016 0.69192,-1.667596 1.43656,-2.402212 0.6025,-0.594385 1.8782,-1.600028 2.11138,-1.664409 0.0926,-0.02558 0.18226,-0.06892 0.1992,-0.09633 0.0696,-0.112685 0.23767,-0.036 0.42308,0.19307 0.38834,0.479782 0.72047,0.810635 1.10203,1.097804 0.27796,0.209193 0.39241,0.329083 0.40343,0.42262 0.008,0.07182 -0.0779,0.424297 -0.19188,0.783279 -0.11399,0.358987 -0.23151,0.846086 -0.26114,1.082445 -0.0793,0.632205 -0.0657,2.258214 0.0237,2.838316 0.1082,0.702022 0.10007,1.022598 -0.0315,1.241731 -0.23867,0.397547 -0.42391,0.5043 -0.5701,0.328538 z"
       id="path1624" />
    <path
       style="display:inline;fill:#ffff00;stroke:none;stroke-width:0.264582"
       d="m 151.38747,18.13723 c -0.098,-0.02387 -0.14767,-0.09029 -0.13077,-0.17482 0.0445,-0.222365 0.50289,-0.715626 1.30782,-1.40717 0.43989,-0.377922 0.97803,-0.855564 1.19953,-1.064698 0.0471,-0.04446 0.0465,-0.04908 -0.0241,-0.178649 -0.0478,-0.08787 -0.0847,-0.128281 -0.10871,-0.119074 -0.0616,0.02366 -0.90085,0.138437 -1.36427,0.186608 -0.62299,0.06475 -1.82694,0.06624 -2.03266,0.0025 -0.30051,-0.09309 -0.29838,-0.19702 0.01,-0.463202 0.38377,-0.331803 0.57284,-0.37324 1.04285,-0.228561 0.5295,0.162989 1.1217,0.231448 2.00215,0.231448 0.87514,0 1.72597,-0.09553 2.18596,-0.245451 0.0727,-0.02371 -0.0422,0.07458 -0.37284,0.318705 -0.6927,0.51151 -1.17738,0.931592 -1.63265,1.415043 -0.3958,0.420294 -0.64329,0.75876 -0.83717,1.144929 -0.14622,0.291224 -0.25966,0.421837 -0.43001,0.49512 -0.18963,0.08158 -0.64001,0.129816 -0.8147,0.08726 z"
       id="path1627" />
    <path
       style="display:inline;fill:#a0a0a0;stroke:none;stroke-width:0.264582"
       d="m 162.90829,11.15169 c -0.036,-0.0391 -0.133,-0.162257 -0.21559,-0.273614 -0.19386,-0.261416 -0.48236,-0.552268 -0.9213,-0.9288232 -0.40159,-0.344512 -0.44127,-0.392082 -0.40508,-0.485679 0.13594,-0.3515482 0.30763,-1.0892002 0.36826,-1.5822022 0.11046,-0.898123 0.0992,-2.487423 -0.0227,-3.203536 -0.0351,-0.206291 -0.0719,-0.470875 -0.0817,-0.587966 -0.0166,-0.197901 -0.013,-0.22294 0.0519,-0.355451 0.0748,-0.15297 0.42337,-0.543695 0.50932,-0.570977 0.11801,-0.03743 0.24257,0.173392 0.28667,0.48526 0.0509,0.359956 -0.009,0.968505 -0.22461,2.2707106 -0.15213,0.9199894 -0.15066,1.0867024 0.01,1.0867024 0.10738,0 0.23013,-0.144684 0.79011,-0.9312968 0.58967,-0.8283112 0.89663,-1.2153182 1.17382,-1.4799312 0.19523,-0.186381 0.46345,-0.356798 0.56155,-0.356798 0.0956,0 0.12256,0.164958 0.13595,0.832788 l 0.0128,0.638772 0.70141,0.008 c 0.67478,0.0077 0.70608,0.01028 0.82429,0.06848 0.38464,0.1894263 0.57609,0.6178404 0.51192,1.1456 -0.0422,0.347665 -0.13962,0.646214 -0.34901,1.070398 -0.22168,0.449062 -0.46672,0.79049 -0.87355,1.217148 -0.72235,0.7575502 -1.71845,1.5278544 -2.47289,1.9123384 -0.21618,0.110171 -0.28481,0.113894 -0.37106,0.02012 z m -0.73088,-3.0304294 c 0.1578,-0.09623 0.34966,-0.383928 0.38632,-0.579285 0.0147,-0.07814 0.01,-0.09877 -0.0284,-0.113295 -0.0571,-0.02194 -0.1951,0.125153 -0.37715,0.402106 -0.11619,0.176751 -0.15077,0.279673 -0.10823,0.322207 0.0254,0.02543 0.0394,0.02194 0.12743,-0.03172 z m 0.59883,-0.838749 c 0.10951,-0.06083 0.52909,-0.444679 0.66882,-0.6118586 0.15374,-0.1839419 0.18171,-0.2854029 0.0787,-0.2854029 -0.0948,0 -0.33796,0.2066107 -0.69437,0.5900655 -0.13437,0.144575 -0.17575,0.206999 -0.17575,0.265159 0,0.08267 0.0306,0.09316 0.12264,0.04205 z m 1.30018,-1.0896187 c 0.23125,-0.1403455 0.32133,-0.3250303 0.15853,-0.3250303 -0.14832,0 -0.49484,0.244261 -0.49484,0.3488106 0,0.1170718 0.11796,0.1087303 0.33631,-0.023756 z"
       id="path1629" />
    <path
       style="display:inline;fill:#ffffff;stroke:none;stroke-width:0.264582"
       d="m 162.90873,11.15169 c -0.0358,-0.0391 -0.14132,-0.170092 -0.23461,-0.29103 -0.21369,-0.277022 -0.4584,-0.52324 -0.89266,-0.8981772 -0.18799,-0.162315 -0.36405,-0.325649 -0.39124,-0.362965 -0.0491,-0.06748 -0.049,-0.06904 0.0255,-0.2893812 0.10432,-0.308445 0.21798,-0.783421 0.27897,-1.165765 0.14794,-0.927407 0.15706,-2.63549 0.0184,-3.454595 -0.036,-0.212857 -0.0735,-0.482816 -0.0832,-0.599907 -0.0164,-0.197738 -0.0127,-0.223048 0.052,-0.355451 0.0748,-0.15297 0.42338,-0.543695 0.50932,-0.570977 0.11332,-0.03595 0.23813,0.165458 0.28386,0.458106 0.0549,0.351196 -0.005,0.992521 -0.2083,2.220445 -0.16308,0.986299 -0.16542,1.164122 -0.0153,1.164122 0.12572,0 0.21416,-0.105002 0.89335,-1.0606449 0.49525,-0.6968241 0.81423,-1.0950101 1.08196,-1.3505831 0.19523,-0.186381 0.46345,-0.356798 0.56154,-0.356798 0.0956,0 0.12256,0.164958 0.13596,0.832788 l 0.0128,0.638772 0.70141,0.008 c 0.67477,0.0077 0.70607,0.01028 0.82429,0.06848 0.16741,0.08245 0.33281,0.2494599 0.41511,0.4191729 0.20321,0.4190348 0.12525,1.0221541 -0.22612,1.7492501 -0.17846,0.369291 -0.29977,0.562174 -0.54242,0.86246 -0.66,0.8167872 -1.91793,1.8498644 -2.79937,2.2989804 -0.24731,0.126013 -0.3135,0.131905 -0.40134,0.03576 z m -0.74796,-3.0195754 c 0.15026,-0.0777 0.36685,-0.39427 0.40294,-0.588934 0.0147,-0.07929 0.01,-0.09994 -0.0283,-0.1145 -0.0562,-0.02154 -0.18495,0.11571 -0.37472,0.399435 -0.118,0.176437 -0.15385,0.28168 -0.11066,0.324878 0.0233,0.02331 0.0265,0.02272 0.11079,-0.0209 z m 0.63511,-0.863591 c 0.11737,-0.07233 0.48881,-0.416354 0.64795,-0.6001085 0.15108,-0.1744593 0.18443,-0.283165 0.0869,-0.283165 -0.0781,0 -0.18389,0.080647 -0.47294,0.3605205 -0.29372,0.284395 -0.40415,0.423742 -0.40415,0.509985 0,0.07317 0.0387,0.07664 0.14228,0.01274 z m 1.24603,-1.0543046 c 0.15141,-0.086308 0.26733,-0.2093109 0.26733,-0.2836765 0,-0.092987 -0.11236,-0.082255 -0.29902,0.028576 -0.17394,0.103266 -0.27011,0.1994691 -0.27011,0.2702149 0,0.093778 0.12145,0.087704 0.3018,-0.015099 z"
       id="path1631" />
    <path
       style="display:inline;fill:#00ffff;stroke:none;stroke-width:0.264583"
       d="m 157.27139,22.562436 c -0.21802,-0.152702 -0.22966,-0.951464 -0.0337,-2.315322 0.12083,-0.841199 0.14932,-1.131924 0.13856,-1.413709 -0.0109,-0.283974 -0.21704,-0.09579 -0.7895,0.720535 -0.56861,0.810831 -0.83094,1.142044 -1.20309,1.519023 -0.39655,0.401699 -0.54275,0.479684 -0.67497,0.36003 -0.10077,-0.09119 -0.11901,-0.286279 -0.0733,-0.78338 0.0226,-0.245655 0.0355,-0.452286 0.0286,-0.459182 -0.007,-0.0069 -0.16797,-0.03064 -0.35795,-0.05276 -0.18998,-0.02212 -0.47901,-0.05617 -0.64229,-0.07565 -0.54524,-0.06507 -0.78882,-0.199729 -0.97284,-0.537824 -0.22247,-0.40875 -0.19811,-0.857117 0.0819,-1.506514 0.43317,-1.004755 1.07915,-1.740842 2.46079,-2.804065 0.21854,-0.168178 0.46767,-0.366639 0.55361,-0.441019 0.0999,-0.08642 0.22412,-0.15152 0.34422,-0.180332 0.10338,-0.02479 0.19666,-0.06778 0.20731,-0.0955 0.0355,-0.09248 0.17682,-0.05288 0.30826,0.0864 0.071,0.07525 0.22806,0.25994 0.34899,0.410432 0.2699,0.33587 0.45989,0.512818 0.88206,0.821515 0.33589,0.245613 0.42025,0.364145 0.38071,0.53498 -0.0108,0.04653 -0.10029,0.345874 -0.19894,0.665243 -0.27721,0.897417 -0.29852,1.065202 -0.30162,2.37444 -0.002,1.000834 0.007,1.190842 0.0791,1.651347 0.10295,0.655295 0.10444,0.87914 0.007,1.069966 -0.0784,0.153589 -0.39755,0.507414 -0.45775,0.507414 -0.0193,0 -0.0711,-0.02523 -0.11511,-0.05606 z"
       id="path1633" />
    <path
       style="display:inline;fill:#ffffff;stroke:none;stroke-width:0.264583"
       d="m 151.34289,18.091706 c -0.21538,-0.125447 0.15201,-0.559593 1.43195,-1.692137 0.39128,-0.346223 0.78377,-0.694266 0.87222,-0.773437 0.1687,-0.151014 0.18317,-0.232147 0.0688,-0.385856 -0.0446,-0.05997 -0.0829,-0.05829 -0.70388,0.03103 -0.88585,0.12743 -2.55215,0.168946 -2.81115,0.07004 -0.10762,-0.04112 -0.1622,-0.0837 -0.1622,-0.126604 0,-0.08916 0.36629,-0.427745 0.5558,-0.513762 0.20738,-0.09413 0.29951,-0.09006 0.80046,0.03527 0.65953,0.16503 1.04263,0.19576 2.16009,0.173259 0.76583,-0.01539 1.07978,-0.03645 1.38998,-0.09319 0.22038,-0.04028 0.40619,-0.06779 0.4129,-0.06107 0.007,0.0067 -0.21465,0.185388 -0.49191,0.397064 -1.106,0.84438 -1.79558,1.570827 -2.22761,2.346693 -0.2218,0.398335 -0.34855,0.517594 -0.61731,0.580825 -0.24991,0.0588 -0.5874,0.0647 -0.67814,0.01185 z"
       id="path1637" />
    <path
       style="display:inline;fill:#ffffff;stroke:none;stroke-width:0.264583"
       d="m 151.33985,18.070306 c -0.14571,-0.14571 0.27568,-0.614093 1.65389,-1.838305 0.39128,-0.347557 0.73141,-0.657566 0.75585,-0.688911 0.0668,-0.08569 0.0556,-0.238358 -0.0228,-0.309306 -0.066,-0.05969 -0.10226,-0.05896 -0.69721,0.01421 -1.14947,0.141374 -2.74761,0.163688 -2.89612,0.04043 -0.0934,-0.07749 -0.0705,-0.130479 0.13899,-0.321931 0.36163,-0.330514 0.50526,-0.357703 1.12195,-0.21239 0.66405,0.156463 0.94816,0.177159 2.14624,0.156345 0.78802,-0.01367 1.20292,-0.0362 1.42069,-0.07702 0.16919,-0.03172 0.31184,-0.05344 0.31701,-0.0483 0.005,0.0052 -0.23997,0.205499 -0.54475,0.445176 -0.61974,0.487371 -1.49399,1.33602 -1.748,1.696826 -0.0918,0.130425 -0.25207,0.376686 -0.35611,0.547243 -0.2467,0.404432 -0.34275,0.501214 -0.56206,0.566341 -0.18293,0.05432 -0.68248,0.07461 -0.72755,0.02954 z"
       id="path1639" />
    <path
       style="display:inline;fill:#d35f5f;stroke:none;stroke-width:0.264583"
       d="m 167.79811,18.092441 c -0.32186,-0.04837 -0.4755,-0.145945 -0.67103,-0.426173 -0.45556,-0.652902 -0.73141,-0.984365 -1.25359,-1.506282 -0.62604,-0.625744 -1.17337,-1.081534 -2.08084,-1.732838 -0.33109,-0.237621 -0.6092,-0.437607 -0.61803,-0.444409 -0.009,-0.0068 0.0119,-0.188476 0.046,-0.403714 0.0764,-0.481931 0.0789,-1.004497 0.007,-1.382281 -0.0301,-0.157275 -0.0547,-0.304831 -0.0547,-0.327908 0,0 0.45208,-0.272922 1.13057,-0.410626 1.28616,-0.261036 2.70965,-0.396445 5.02758,0.23672 1.0442,0.285236 2.87116,0.927661 2.90388,1.71904 0.062,0.42479 -0.36905,0.611408 -1.01303,0.681472 l -3.44327,0.270521 1.11371,0.345683 c 0.57883,0.179661 0.71528,0.55879 0.64087,0.677135 -0.12496,0.198747 -0.56044,0.2823 -1.17597,0.225621 -0.4722,-0.04348 -0.59712,-0.06244 -1.59985,-0.242884 -0.39696,-0.07143 -0.78551,-0.121572 -0.89382,-0.115336 -0.16653,0.0096 -0.19312,0.02169 -0.20319,0.09257 -0.0152,0.107082 0.0875,0.199469 0.65003,0.584764 0.73324,0.502199 1.38504,1.001295 1.66515,1.275042 0.25547,0.249668 0.48632,0.587139 0.487,0.711932 9.8e-4,0.146893 -0.30454,0.225963 -0.66399,0.171947 z"
       id="path1643"
       sodipodi:nodetypes="cssscccssscscssssssssccc" />
    <path
       style="display:inline;fill:#ffff00;stroke:none;stroke-width:0.264583"
       d="m 162.97166,11.171457 c -0.0201,-0.01475 -0.1547,-0.16844 -0.29904,-0.341556 -0.22649,-0.271636 -0.59633,-0.633958 -1.15948,-1.1359312 l -0.14526,-0.129481 0.0445,-0.158469 c 0.24078,-0.8577082 0.31897,-1.2743672 0.3777,-2.0128842 0.0593,-0.7452497 0.0208,-2.211498 -0.0739,-2.815384 -0.0992,-0.633009 -0.097,-0.701339 0.0294,-0.895807 0.13607,-0.209419 0.43655,-0.516629 0.48841,-0.499346 0.0897,0.0299 0.1789,0.209537 0.2183,0.439544 0.0528,0.308003 0.002,0.8941 -0.17249,2.017498 -0.17581,1.127638 -0.18759,1.263783 -0.11557,1.335793 0.13641,0.136416 0.3227,0.067797 0.89654,-0.8757387 0.85267,-1.4020012 3.12223,-3.6852035 3.56947,-4.0545739 0.44725,-0.3693705 1.1735,-1.0038755 1.12893,-0.3526537 l -0.0517,0.7553517 c 0,0 0.31768,-0.071387 0.57687,-0.1125386 0.86444,-0.1372454 0.92182,0.6474126 0.86145,0.979413 -0.17961,0.9877767 -0.62392,1.9722589 -1.10619,2.8415392 -0.58849,1.0607372 -1.89835,2.6094083 -2.65698,3.3606639 -0.68667,0.6799935 -1.49186,1.2979915 -2.08249,1.5784715 -0.23172,0.110043 -0.26999,0.118911 -0.32846,0.07609 z m -0.69678,-3.1112244 c 0.12972,-0.113889 0.31383,-0.436927 0.31383,-0.550625 0,-0.08213 -0.0574,-0.116772 -0.128,-0.07726 -0.0783,0.04377 -0.34623,0.40514 -0.40716,0.549032 -0.0912,0.215331 0.0206,0.25514 0.22133,0.07886 z m 0.7821,-0.984794 c 0.30211,-0.261499 0.55325,-0.5530595 0.55325,-0.6423131 0,-0.1105697 -0.18533,-0.046233 -0.3918,0.136037 -0.40826,0.3603781 -0.62823,0.6404201 -0.5731,0.7296191 0.043,0.06963 0.12379,0.02582 0.41165,-0.223343 z m 1.0631,-0.8920529 c 0.18353,-0.1275184 0.24219,-0.2307844 0.17135,-0.3016191 -0.0488,-0.04879 -0.0725,-0.04628 -0.21517,0.022773 -0.33218,0.160801 -0.47982,0.4472072 -0.20187,0.3916198 0.0644,-0.012886 0.17497,-0.063629 0.24569,-0.1127737 z"
       id="path1645"
       sodipodi:nodetypes="ssscscccsccsszscssssssssscsssssssssssss" />
  </g>
</svg>
