<?xml version="1.0" encoding="UTF-8" standalone="no"?>
<svg
   xmlns:dc="http://purl.org/dc/elements/1.1/"
   xmlns:cc="http://creativecommons.org/ns#"
   xmlns:rdf="http://www.w3.org/1999/02/22-rdf-syntax-ns#"
   xmlns:svg="http://www.w3.org/2000/svg"
   xmlns="http://www.w3.org/2000/svg"
   xmlns:sodipodi="http://sodipodi.sourceforge.net/DTD/sodipodi-0.dtd"
   xmlns:inkscape="http://www.inkscape.org/namespaces/inkscape"
   width="200mm"
   height="55mm"
   viewBox="0 0 200 55"
   version="1.1"
   id="svg1004"
   inkscape:version="1.0.2 (e86c870879, 2021-01-15, custom)"
   sodipodi:docname="NASTIE - ИМЯ - КОМПОЗИЦИЯ - 2.svg">
  <defs
     id="defs998">
    <rect
       x="19.915953"
       y="5.3619871"
       width="127.15569"
       height="32.171921"
       id="rect2223" />
    <rect
       x="-180.67262"
       y="47.625"
       width="465.66666"
       height="189.74405"
       id="rect1569" />
  </defs>
  <sodipodi:namedview
     id="base"
     pagecolor="#ffffff"
     bordercolor="#666666"
     borderopacity="1.0"
     inkscape:pageopacity="0.0"
     inkscape:pageshadow="2"
     inkscape:zoom="5.4540793"
     inkscape:cx="588.85953"
     inkscape:cy="140.08893"
     inkscape:document-units="mm"
     inkscape:current-layer="layer1"
     inkscape:document-rotation="0"
     showgrid="false"
     inkscape:window-width="1513"
     inkscape:window-height="909"
     inkscape:window-x="206"
     inkscape:window-y="91"
     inkscape:window-maximized="0" />
  <metadata
     id="metadata1001">
    <rdf:RDF>
      <cc:Work
         rdf:about="">
        <dc:format>image/svg+xml</dc:format>
        <dc:type
           rdf:resource="http://purl.org/dc/dcmitype/StillImage" />
        <dc:title />
      </cc:Work>
    </rdf:RDF>
  </metadata>
  <g
     inkscape:label="Слой 1"
     inkscape:groupmode="layer"
     id="layer1">
    <g
       aria-label="E "
       transform="matrix(3.3171818,0,0,3.3171818,113.41766,-2.6688741)"
       id="text2221"
       style="font-style:normal;font-variant:normal;font-weight:normal;font-stretch:normal;font-size:10.5833px;line-height:1.25;font-family:a_BosaNova;-inkscape-font-specification:'a_BosaNova, Normal';font-variant-ligatures:normal;font-variant-caps:normal;font-variant-numeric:normal;font-variant-east-asian:normal;white-space:pre;shape-inside:url(#rect2223);fill:#000000;fill-opacity:1;stroke:none;stroke-width:0.301461">
      <path
         d="m 20.346745,12.460379 c 0.126999,0.747887 0.483304,1.372301 1.068913,1.873244 0.592665,0.493887 1.266468,0.740831 2.02141,0.740831 v 0.99483 c -1.128885,0 -2.091966,-0.402165 -2.889241,-1.206496 -0.797275,-0.804331 -1.195913,-1.770939 -1.195913,-2.899824 0,-1.135941 0.39511,-2.1025486 1.18533,-2.8998239 0.797275,-0.8043307 1.763883,-1.2064961 2.899824,-1.2064961 v 0.9948301 c -0.761997,0 -1.435801,0.2469437 -2.02141,0.740831 -0.585609,0.4938869 -0.941914,1.1183019 -1.068913,1.8732439 h 1.869973 v 0.99483 z"
         style="font-style:normal;font-variant:normal;font-weight:normal;font-stretch:normal;font-size:10.5833px;font-family:a_BosaNova;-inkscape-font-specification:'a_BosaNova, Normal';font-variant-ligatures:normal;font-variant-caps:normal;font-variant-numeric:normal;font-variant-east-asian:normal;stroke:none;stroke-width:0.391899;stroke-linecap:square;stroke-linejoin:round;stroke-miterlimit:4;stroke-dasharray:none;stroke-opacity:0.83642;paint-order:normal"
         id="path2227"
         sodipodi:nodetypes="ccccsscccscccc" />
    </g>
    <g
       aria-label="N A S T I E"
       transform="matrix(3.4531677,0,0,3.4531677,626.89717,-147.63508)"
       id="text1567"
       style="font-style:normal;font-weight:normal;font-size:10.5833px;line-height:1.25;font-family:sans-serif;white-space:pre;shape-inside:url(#rect1569);fill:#000000;fill-opacity:1;stroke:none;stroke-width:0.289588">
      <path
         d="m -177.85672,52.507571 v 4.921235 h -2.10607 v -7.842225 h 2.01082 l 2.23308,2.846907 v -2.846907 h 2.07433 v 7.842225 h -2.07433 v -2.201327 z"
         style="font-style:normal;font-variant:normal;font-weight:normal;font-stretch:normal;font-size:10.5833px;font-family:a_Rewinder;-inkscape-font-specification:'a_Rewinder, Normal';font-variant-ligatures:normal;font-variant-caps:normal;font-variant-numeric:normal;font-variant-east-asian:normal;fill:#ffffff;stroke-width:0.289588"
         id="path1573" />
      <path
         d="m -160.39829,49.586581 0.47625,1.767411 -3.18159,-0.01058 c -0.85372,0 -1.50636,0.105833 -1.95791,0.317499 -0.57149,0.268111 -0.98777,0.761998 -1.24883,1.481662 h 2.00025 v -1.471078 h 2.11666 v 5.757315 h -2.11666 v -2.476492 h -2.21191 c 0.0423,0.853719 0.31044,1.679217 0.80433,2.476492 l -1.67216,1.100663 c -0.83961,-1.284107 -1.25942,-2.585853 -1.25942,-3.905238 0,-1.559273 0.44803,-2.786935 1.34408,-3.682988 0.90311,-0.903108 2.13431,-1.354662 3.69358,-1.354662 z"
         style="font-style:normal;font-variant:normal;font-weight:normal;font-stretch:normal;font-size:10.5833px;font-family:a_Rewinder;-inkscape-font-specification:'a_Rewinder, Normal';font-variant-ligatures:normal;font-variant-caps:normal;font-variant-numeric:normal;font-variant-east-asian:normal;fill:#ffffff;stroke-width:0.289588"
         id="path1575"
         sodipodi:nodetypes="ccccccccccccccsccc" />
      <path
         d="m -141.04509,51.375158 h -13.32735 c -0.26811,0 -0.40216,0.08819 -0.40216,0.264583 0,0.169333 0.23283,0.486832 0.6985,0.952497 0.65616,0.670275 1.08302,1.13594 1.28057,1.396995 0.46567,0.606776 0.6985,1.15358 0.6985,1.640412 0,0.712609 -0.28575,1.210024 -0.85724,1.492245 -0.40923,0.204611 -1.00895,0.306916 -1.79917,0.306916 h -1.87324 l -0.51858,-1.809744 h 2.28599 c 0.24695,0 0.37042,-0.09525 0.37042,-0.28575 0,-0.183443 -0.22931,-0.500942 -0.68792,-0.952497 -0.65616,-0.656164 -1.07596,-1.100662 -1.25941,-1.333495 -0.45861,-0.585609 -0.68791,-1.132413 -0.68791,-1.640412 0,-1.213551 0.80786,-1.820327 2.42357,-1.820327 h 13.17918 z"
         style="font-style:normal;font-variant:normal;font-weight:normal;font-stretch:normal;font-size:10.5833px;font-family:a_Rewinder;-inkscape-font-specification:'a_Rewinder, Normal';font-variant-ligatures:normal;font-variant-caps:normal;font-variant-numeric:normal;font-variant-east-asian:normal;fill:#ffffff;stroke-width:0.289588"
         id="path1577"
         sodipodi:nodetypes="cssccscsccssccsscc" />
      <path
         d="m -143.59866,57.428806 h -2.10607 v -6.120581 h 2.10607 z"
         style="font-style:normal;font-variant:normal;font-weight:normal;font-stretch:normal;font-size:10.5833px;font-family:a_Rewinder;-inkscape-font-specification:'a_Rewinder, Normal';font-variant-ligatures:normal;font-variant-caps:normal;font-variant-numeric:normal;font-variant-east-asian:normal;fill:#ffffff;stroke-width:0.289588"
         id="path1579"
         sodipodi:nodetypes="ccccc" />
    </g>
    <path
       id="path1600"
       style="display:inline;fill:#000000;stroke-width:0.999992"
       d="m 144.92531,22.746952 c -0.56646,-0.484976 -0.16533,-1.062518 0.588,-1.533023 l 0.44379,-0.277164 -0.45697,-0.511295 c -1.07749,-1.205606 -1.09357,-2.143682 -0.0568,-3.319534 l 0.39937,-0.452977 -0.57793,-0.57628 c -0.87177,-0.869288 -0.74032,-1.411424 0.39719,-1.638198 0.63718,-0.127034 2.45278,0.03309 3.24148,0.285851 0.17503,0.05608 -0.11139,-0.235502 -0.63647,-0.647996 -2.44838,-1.923401 -2.82874,-3.2799 -0.87963,-3.137123 l 0.80027,0.05858 -9e-5,-0.900045 c -1.5e-4,-1.30879 0.69666,-2.0440241 1.93718,-2.0440241 h 0.85528 l -0.004,-0.9673431 c 0.0366,-0.9713022 0.10547,-1.0139804 0.53819,-1.022026 0.65431,-0.065978 2.00128,1.3230023 2.86889,2.9584546 0.28174,0.5310737 0.46156,0.8141805 0.39957,0.6291233 -1.2353,-3.6883316 -0.18556,-7.0488433 1.31581,-4.2123274 0.15247,0.2880399 0.20686,0.2669726 0.72491,-0.280759 0.9167,-0.969217 2.00213,-0.987345 2.8903,-0.048273 l 0.51071,0.5399706 0.55751,-0.6489725 c 0.8253,-0.9607324 1.35982,-0.8372331 1.56724,0.3621028 0.11583,0.6703047 -0.0348,2.6709742 -0.25922,3.4400806 -0.055,0.1889086 0.23448,-0.09894 0.60914,-0.6659291 2.55889,-3.8726044 6.89458,-7.69706189 6.75636,-5.6684644 l -0.0554,0.8139305 c 0,0 0.49369,-0.035866 0.73705,-2.578e-4 1.42672,0.2087582 1.48132,1.6391531 0.488,4.3075486 -0.35699,0.9590181 -1.82647,3.3151384 -1.49403,3.3586054 0.40662,0.05317 1.23409,0.130803 1.34892,0.539544 0.12336,0.535687 -1.45436,2.198156 -3.0012,3.115493 -0.50231,0.297883 -0.77006,0.487984 -0.59503,0.422454 3.32275,-1.24402 7.0019,-0.799423 4.10002,1.308625 1.16126,0.27383 1.90815,0.579585 2.79975,1.029963 0.65491,0.330829 1.28345,0.708378 1.84886,1.216217 0.61192,0.549606 0.54419,1.887736 -0.97428,2.229214 0,0 -2.00925,0.444068 -3.57567,0.395427 -0.11408,-0.0035 -0.0323,-0.01707 0.46148,0.42905 0.21786,0.196839 0.562,0.821979 0.0827,1.147055 -0.72057,0.488811 -3.21761,0.291055 -3.94738,-0.01345 -0.17503,-0.07305 0.11139,0.207085 0.63647,0.622527 2.44571,1.934987 2.50304,3.167955 1.01418,3.167955 h -0.93462 v 0.857976 c 0,1.263719 -0.7144,2.001967 -1.93727,2.001967 h -0.85529 c 0,0 0.0222,0.481686 0.004,0.967342 -0.0183,0.485651 -0.0557,1.06252 -0.48931,1.112466 -0.43358,0.04995 -2.05016,-1.413442 -2.91778,-3.048894 -0.28176,-0.531075 -0.46155,-0.814179 -0.39956,-0.629121 1.23529,3.68833 0.18556,7.048839 -1.31582,4.212329 -0.1525,-0.288097 -0.681,-0.34307 -0.77124,0.784811 -0.0902,1.12788 4.85621,19.176908 -2.44109,18.964835 -5.79345,0.07899 -3.21899,-10.605275 -2.95767,-11.625525 0.26132,-1.02025 1.1342,-5.283775 1.23452,-5.882519 0.10032,-0.598744 0.20582,-1.34115 -0.58023,-1.150584 -0.78604,0.190576 -0.8988,-3.005088 -0.47558,-4.455199 0.055,-0.188909 -0.21899,0.110755 -0.60913,0.665927 -1.81463,2.582187 -2.99125,2.966 -2.99125,0.975751 v -0.891633 h -0.8115 c -1.19524,0 -1.89347,-0.755325 -1.89347,-2.048266 v -0.904286 c 0,0 -0.64433,0.02797 -0.91493,0.0043 -0.27062,-0.02369 -0.51786,-0.06352 -0.70401,-0.127504 -0.18614,-0.06401 -0.64035,-0.190733 -0.31744,-0.742557 0.32293,-0.551825 3.46609,-3.159814 3.46609,-3.159814 -0.25657,-0.05253 -4.22527,0.79082 -4.79174,0.305846 z m 5.34849,-0.386203 c -0.34117,0.330392 -0.76744,0.744208 -1.10698,1.064971 -0.33954,0.32076 -3.33531,2.800252 -1.96458,2.79489 0.96785,-0.0038 1.23695,-0.153665 1.52795,-0.851012 0.38227,-0.91607 1.70106,-2.394062 3.03148,-3.397466 0.61578,-0.464409 1.00132,-0.800923 0.85679,-0.747801 -1.36175,0.500413 -4.37105,0.540137 -5.64913,0.07458 -0.70583,-0.257106 -0.95483,-0.189836 -1.60632,0.43402 -1.23648,1.183975 4.11256,0.456989 4.72791,0.293954 m 5.65216,9.98012 c 0.2692,-0.434398 0.26914,-0.523126 -0.001,-2.041369 -0.32881,-1.846878 -0.15585,-4.216851 0.40567,-5.559028 0.4329,-1.034657 0.4162,-1.094333 -0.4685,-1.675804 -0.45685,-0.300266 -0.93619,-0.796889 -1.15223,-1.193777 -0.20347,-0.373785 -0.49597,-0.714459 -0.64998,-0.757039 -0.15402,-0.04256 -0.24454,-0.01671 -0.20117,0.05748 0.10588,0.181079 -0.38108,0.368441 -0.59471,0.228843 -0.0931,-0.0609 -0.12471,-0.03443 -0.0704,0.05873 0.0545,0.09316 -0.27458,0.42233 -0.73122,0.731465 -4.02065,2.721962 -5.192,7.226288 -1.87918,7.226288 h 0.96451 l -0.0998,1.009396 c -0.18264,1.847476 1.09898,1.052537 2.75446,-1.708498 1.07634,-1.79512 1.27559,-1.728192 0.85424,0.286953 -0.67901,3.247586 -0.20439,5.069 0.86939,3.336331 z m 5.90704,-3.752755 c -0.11354,-0.462632 -0.15207,-0.805671 -0.0857,-0.762305 0.0663,0.04337 0.14656,-0.0031 0.17818,-0.103559 0.0316,-0.10033 0.39398,0.379155 0.80522,1.065523 0.7977,1.3314 2.23119,2.886996 2.55112,2.76842 0.1278,-0.04738 0.18409,-0.422503 0.16582,-1.105617 l -0.0277,-1.033916 h 0.99234 c 1.3494,0 1.84751,-0.498433 1.84751,-1.848706 0,-2.075343 -1.81861,-4.224372 -5.48732,-6.484358 -0.25314,-0.155936 -0.26315,-0.26716 -0.0975,-1.083918 0.36965,-1.82235 -0.41285,-3.773367 -1.90732,-4.755613 -0.8774,-0.576665 -0.87654,-0.572457 -0.39922,-1.932006 0.60146,-1.71309 0.70838,-4.5872899 0.22918,-6.1597217 -0.6032,-1.9792329 -2.30838,-2.6863558 -3.41086,-1.4144272 -0.60108,0.6934752 -0.94894,0.7957743 -1.09145,0.3210138 -0.0511,-0.1704201 -0.26871,-0.4843558 -0.48342,-0.6976213 -0.99149,-0.9848237 -1.24394,1.1454831 -0.49669,4.1912812 0.11354,0.4626327 0.15207,0.8056672 0.0857,0.7623059 -0.0663,-0.043402 -0.14653,0.00354 -0.17818,0.1035583 -0.0316,0.100329 -0.39397,-0.3791567 -0.8052,-1.0655187 -0.7943,-1.3257062 -2.22872,-2.8848742 -2.55112,-2.7729942 -0.23441,0.081348 -0.33316,0.8272497 -0.20509,1.5490444 0.0734,0.4136979 0.24148,0.6053254 0.76881,0.876567 1.0688,0.5497593 2.24434,1.7884425 3.37239,3.5535115 1.22237,1.912674 1.25853,2.158459 0.40002,2.718445 -1.29703,0.846019 -2.05134,2.842431 -1.73669,4.59657 0.0819,0.456426 0.11314,0.891136 0.0693,0.966034 -0.0439,0.0749 -0.0223,0.161572 0.0476,0.19261 0.07,0.03101 0.29573,0.348404 0.50183,0.705268 0.20609,0.356865 0.76462,0.912558 1.24116,1.234866 0.62075,0.419838 0.8427,0.665212 0.78266,0.865255 -0.0461,0.153574 -0.37007,0.573628 -0.3272,0.978708 -2.42033,4.088206 6.40742,8.792293 5.25182,3.7713 z m 8.33623,-2.367368 c 0,-0.541174 -1.04333,-1.610172 -2.57063,-2.633849 -1.69784,-1.138 -1.63455,-1.348661 0.2714,-0.903187 3.25157,0.75998 4.82597,0.225568 2.98069,-1.011736 l -0.70205,-0.470728 c 0,0 4.25408,-0.257367 4.66937,-0.539364 2.81535,-1.911776 -6.54681,-5.431177 -11.26302,-3.404904 l -0.64737,0.278132 0.15947,0.736822 c 0.10614,0.49045 0.10654,1.010259 0.001,1.554549 l -0.15843,0.817727 1.20121,0.895413 c 1.60658,1.197564 3.32473,2.950198 3.91022,3.988692 0.50962,0.903888 0.62448,0.978583 1.55139,1.008898 0.49648,0.01622 0.59671,-0.03689 0.59671,-0.316465 z m -18.26651,-4.89171 c 0.46377,-0.09938 1.13253,-0.301938 1.48616,-0.450119 l 0.64296,-0.269425 -0.15507,-0.800372 c -0.10359,-0.534279 -0.1,-1.05477 0.0108,-1.565578 l 0.1656,-0.765203 -0.81577,-0.322708 c -3.54376,-1.401857 -7.89017,-0.350983 -7.89017,1.907679 0,1.896727 3.16824,2.991701 6.55574,2.265726 z m 2.79709,-4.948647 c 0.27695,-0.41542 0.78923,-0.964279 1.13842,-1.219686 0.81672,-0.597405 0.81717,-0.593838 -0.30432,-2.366554 -1.66419,-2.6305043 -3.18505,-3.8865282 -4.88026,-4.030398 -1.40641,-0.1193666 -1.96521,0.4389799 -1.96521,1.963578 v 1.019755 l -0.9547,-0.105499 c -1.74737,-0.193098 -0.99551,1.161924 1.61592,2.912258 1.69784,1.137993 1.63455,1.348654 -0.27141,0.903187 -3.17313,-0.741649 -4.85826,-0.198565 -3.05007,0.982978 0.49882,0.325945 0.56288,0.330153 1.23516,0.08108 1.11852,-0.414396 5.3821,-0.185385 6.29639,0.338207 0.61854,0.354223 0.57148,0.373987 1.14008,-0.478906 z m 9.97989,-0.648129 c 3.98494,-2.846117 8.71883,-12.1632401 5.21289,-11.6551795 l -0.71599,0.1037562 0.10574,-1.0908993 c 0.18698,-1.92960389 -4.84529,3.5128047 -6.53638,6.3332147 -1.07633,1.7951159 -1.27558,1.7281859 -0.85423,-0.2869528 0.62637,-2.9958464 0.3359,-4.7052228 -0.61641,-3.6273652 -0.57151,0.6468464 -0.57672,0.6982461 -0.24071,2.3740519 0.33089,1.6501941 0.0135,5.282366 -0.55621,6.358008 -0.10991,0.207608 0.0147,0.37157 0.55963,0.737009 0.38553,0.258501 0.92616,0.807807 1.20141,1.220669 l 0.50044,0.750665 0.49257,-0.267557 c 0.27092,-0.14716 0.9222,-0.574393 1.44727,-0.949427 z m -2.96639,-3.769723 c 0.19943,-0.300719 0.39607,-0.546748 0.43694,-0.546748 0.13753,0 -0.23507,0.614235 -0.51865,0.854998 -0.19933,0.169222 -0.17559,0.07969 0.0818,-0.30825 z m 0.65919,-0.850219 c 0,-0.172908 1.09058,-1.2959508 1.16447,-1.1991341 0.0305,0.039919 -0.21905,0.3565082 -0.55453,0.7034861 -0.33548,0.346985 -0.60994,0.570024 -0.60994,0.495648 z m 1.43205,-1.4377097 c 0,-0.038875 0.18784,-0.200802 0.41738,-0.3598316 0.22955,-0.1590297 0.36879,-0.2059985 0.30938,-0.104375 -0.1134,0.1942046 -0.72676,0.5858949 -0.72676,0.4642066 z m 7.59783,6.4013417 c 0.47855,-0.460842 0.45143,-0.76276 -0.0796,-0.885779 -0.24066,-0.05573 -0.53713,-0.134607 -0.65883,-0.175219 -0.25389,-0.08477 -3.0857,0.400901 -3.64237,0.624665 -0.24084,0.09682 -0.33674,0.09032 -0.27312,-0.01852 0.0538,-0.09226 -0.0299,-0.167731 -0.18619,-0.167731 -0.15632,0 0.17877,-0.283887 0.74467,-0.630873 1.18648,-0.727506 3.09136,-2.594575 2.98742,-2.928113 -0.0963,-0.309157 -1.47431,-0.39709 -1.7032,-0.108686 -0.0955,0.120401 -0.46265,0.687163 -0.81576,1.25948 -0.62137,1.007082 -1.78035,2.18914 -3.09576,3.157382 -0.35005,0.257671 -0.50407,0.421125 -0.34223,0.363231 1.30169,-0.465684 4.48353,-0.439516 5.70256,0.04688 0.40621,0.162088 0.79627,0.0085 1.36236,-0.536731 z"
       sodipodi:nodetypes="sscsscssscscsscccssssscssssscssscsscassssssszcssczzssszczzzssscssczzzszszsscssccscsssssscscsssccsccssscsssssssssssssssssssssssssssccsscssssccsssccssssscsssssssscsssssssssssssssssscssssssssssssssssssssssssssssssssss" />
    <path
       style="display:inline;fill:#ffffff;stroke:none;stroke-width:0.264582"
       d="m 155.96643,28.188495 c -0.0424,-1.43101 0.0743,-2.253198 0.51826,-3.658278 0.20673,-0.654126 0.30064,-1.060573 0.27249,-1.179209 -0.0262,-0.110837 -0.20907,-0.304216 -0.47128,-0.498686 -0.793,-0.58813 -1.20494,-0.999698 -1.62752,-1.626083 -0.41383,-0.613421 -0.42138,-0.633392 -0.48126,-1.275196 -0.10332,-1.106469 -0.0705,-1.915146 0.10238,-2.523662 0.29628,-1.043658 0.75798,-1.742094 1.587,-2.4007 0.72354,-0.574824 0.75495,-0.702817 0.36859,-1.502604 -0.3659,-0.757443 -1.27648,-2.132731 -1.93644,-2.924688 -0.66905,-0.8028656 -1.34112,-1.404742 -2.07274,-1.8562767 -0.32892,-0.2029819 -0.65777,-0.4536735 -0.7308,-0.5570873 -0.1898,-0.2687899 -0.24809,-1.2428088 -0.0971,-1.623687 0,0 0.0564,-0.1908739 0.12847,-0.219828 0.0721,-0.028981 0.20894,0.066121 0.20894,0.066121 0.33836,0.1070857 1.51162,1.4476292 2.40903,2.8415465 0.59573,0.9253415 0.63515,0.9649475 0.8332,0.8372675 0.17749,-0.1144226 0.1777,-0.1119581 -0.13657,-1.6714769 -0.27691,-1.3741881 -0.33077,-2.7633524 -0.12578,-3.242936 0.17453,-0.4082642 0.4268,-0.3845624 0.82556,0.077567 0.16724,0.1938216 0.35721,0.4576524 0.42214,0.5862994 0.0825,0.1632031 0.16828,0.2338935 0.2842,0.2338935 0.18459,0 0.59676,-0.2959734 0.91473,-0.656858 0.90761,-1.0300858 2.37039,-0.5642971 3.05104,0.9715316 0.71719,1.6182802 0.66813,4.6153444 -0.1126,6.8771074 -0.19405,0.562207 -0.25246,1.040431 -0.14742,1.207025 0.028,0.04445 0.32098,0.28299 0.65108,0.530142 0.33007,0.247152 0.74494,0.62304 0.92192,0.835311 0.48438,0.580976 0.85814,1.433355 0.99118,2.260415 0.10439,0.649244 0.10345,0.742536 -0.0178,1.559378 -0.0876,0.590883 -0.10708,0.905436 -0.0605,0.983291 0.0375,0.06297 0.43809,0.357699 0.89006,0.654977 3.1518,2.073032 4.75029,4.105051 4.75029,6.038608 0,1.294997 -0.54489,1.751082 -2.09204,1.751082 h -0.7499 l -0.001,0.971049 c -5.2e-4,0.534075 -0.0295,1.01864 -0.0643,1.07681 -0.20631,0.344754 -1.47756,-1.010024 -2.63561,-2.808789 -0.56485,-0.877361 -0.6367,-0.954255 -0.83075,-0.889137 -0.18806,0.06311 -0.1836,0.276267 0.0256,1.222172 0.3681,1.664105 0.24294,2.899767 -0.002,3.42991 -0.0842,0.182612 -0.28411,0.295622 -0.38016,0.310081 -0.18974,0.02856 -0.14653,-0.536626 -0.58886,-0.912642 -0.36996,-0.314505 -1.4987,-0.273705 -1.83618,0.765326 -0.33748,1.039031 4.39188,18.331516 -1.47105,18.594029 -5.88155,0.263347 -2.00249,-11.84567 -1.51982,-15.296879 0.48317,-2.781387 0.75493,-3.880037 0.0332,-7.356237 z"
       id="path1602"
       sodipodi:nodetypes="csssssssssssszssssssssssssssssssssccssssssszsccc" />
    <path
       style="display:inline;fill:#a0a0a0;stroke:none;stroke-width:0.264582"
       d="m 148.63041,21.119676 c -1.60587,-0.19587 -2.86446,-0.85396 -3.25201,-1.700417 -0.17905,-0.391 -0.18986,-0.988473 -0.0245,-1.357411 0.65833,-1.469672 3.52088,-2.212947 6.25443,-1.62398 0.62731,0.135175 2.04609,0.609909 2.16434,0.724219 0.0261,0.02521 0.003,0.24376 -0.0526,0.48561 -0.12874,0.565008 -0.13157,1.478025 -0.007,2.105254 l 0.0982,0.492952 -0.549,0.22384 c -0.7412,0.302217 -1.81167,0.564249 -2.68124,0.656335 -0.8115,0.08594 -1.2043,0.08464 -1.95082,-0.0062 z"
       id="path1604" />
    <path
       style="display:inline;fill:#00ffff;stroke:none;stroke-width:0.264582"
       d="m 162.29423,16.143322 c -0.38756,-0.60407 -0.77642,-1.028713 -1.36031,-1.485452 -0.30498,-0.238577 -0.57761,-0.476211 -0.60586,-0.528078 -0.0283,-0.05183 0.0121,-0.245822 0.0896,-0.431025 0.35054,-0.837846 0.5779,-2.568471 0.57399,-4.3691049 -0.003,-1.1044491 -0.0305,-1.489772 -0.15162,-2.0784184 -0.21833,-1.0612494 -0.20269,-1.4268482 0.0767,-1.7884566 0.1239,-0.1604226 0.32838,-0.3673692 0.45441,-0.4598733 l 0.2291,-0.1681906 0.13973,0.1477353 c 0.38287,0.4048023 0.35952,1.4803539 -0.0848,3.9044751 -0.2132,1.1632554 -0.22973,1.4721594 -0.0815,1.5236094 0.12942,0.04493 0.38603,-0.285574 1.10464,-1.4233163 0.99955,-1.5825068 1.69908,-2.3855462 2.22022,-2.548701 0.1157,-0.03622 0.18034,-0.00213 0.27029,0.1431104 0.10238,0.1652159 0.11207,0.3128832 0.0721,1.1040042 l -0.0463,0.913275 0.29575,-0.055597 c 0.16265,-0.030582 0.57646,-0.055526 0.91958,-0.055526 0.51489,6.94e-5 0.67528,0.029052 0.91834,0.1658987 1.02831,0.5789559 0.9221,2.183303 -0.26937,4.069433 -0.50257,0.795578 -1.79336,2.075811 -2.80164,2.778712 -0.83859,0.584613 -1.54927,1.012357 -1.67471,1.007988 -0.0299,-6.96e-4 -0.15958,-0.165982 -0.28824,-0.366539 z m -0.60068,-4.41156 c 0.24069,-0.297298 0.37259,-0.606524 0.29408,-0.689518 -0.0492,-0.05197 -0.67236,0.788974 -0.67242,0.907416 -8e-5,0.16716 0.12484,0.0952 0.37834,-0.217898 z m 1.18456,-1.482472 c 0.50984,-0.5390564 0.60678,-0.6997648 0.42208,-0.6997648 -0.10426,0 -1.15324,1.0724228 -1.15324,1.1790548 0,0.186625 0.26666,0.01191 0.73116,-0.47929 z m 1.19927,-1.0666607 c 0.29018,-0.2222455 0.36639,-0.3659767 0.19409,-0.3659767 -0.12255,0 -0.66891,0.4194116 -0.66891,0.5134693 0,0.132674 0.1834,0.075707 0.47482,-0.1474926 z"
       id="path1606" />
    <path
       style="display:inline;fill:#0000ff;stroke:none;stroke-width:0.264582"
       d="m 153.40681,16.51173 c -0.58172,-0.274329 -1.4262,-0.420318 -3.06126,-0.5292 -1.43005,-0.09523 -2.80388,-0.01525 -3.3701,0.196121 -0.56255,0.210032 -0.92099,0.107029 -1.51623,-0.43572 -0.3698,-0.337197 -0.39079,-0.564285 -0.0693,-0.749997 0.18749,-0.108307 0.38811,-0.128917 1.19571,-0.122917 0.79584,0.0062 1.16368,0.0487 2.04481,0.237887 1.18604,0.25464 1.8022,0.297799 1.8022,0.12624 0,-0.136138 -0.43316,-0.505381 -1.21302,-1.034072 -1.61994,-1.0982 -2.70693,-2.216804 -2.5566,-2.630984 0.0764,-0.210563 0.46375,-0.274399 1.16399,-0.191843 0.36263,0.04278 0.67616,0.07772 0.69671,0.07772 0.0205,0 0.0374,-0.364652 0.0374,-0.810341 0,-1.0222627 0.0877,-1.3990653 0.40875,-1.754828 0.37722,-0.4180931 1.00581,-0.5413149 1.87368,-0.3672927 1.52353,0.3054849 2.88589,1.5152277 4.45788,3.9584737 0.64667,1.005096 0.88441,1.456413 0.88441,1.679027 0,0.08604 -0.13502,0.26002 -0.32926,0.424317 -0.49199,0.416116 -1.19108,1.172723 -1.56083,1.689244 -0.18033,0.251923 -0.3513,0.457045 -0.37993,0.455832 -0.0286,-0.0013 -0.25768,-0.09917 -0.50899,-0.217675 z"
       id="path1608" />
    <path
       style="display:inline;fill:#ff5555;stroke:none;stroke-width:0.264582"
       d="m 168.87056,26.117446 c -0.40905,-0.08647 -0.55026,-0.213024 -0.93163,-0.834899 -0.8425,-1.373866 -2.35571,-2.898159 -4.33645,-4.368243 -0.40025,-0.297061 -0.75184,-0.562367 -0.78133,-0.589579 -0.0295,-0.02717 -0.005,-0.288305 0.0519,-0.580211 0.13157,-0.661344 0.13359,-1.449183 0.005,-2.023534 -0.0541,-0.241844 -0.0759,-0.464033 -0.0484,-0.493761 0.0276,-0.02974 3.51426,2.16535 3.92539,2.046319 3.79699,1.137333 6.72283,-1.994796 3.14537,1.613882 l 0.50737,0.340129 c 0.60864,0.408021 0.75537,0.536147 0.92208,0.805173 0.1239,0.199966 0.12363,0.208416 -0.0121,0.35193 -0.38121,0.403047 -1.40177,0.378907 -3.67591,-0.08694 -1.20269,-0.246364 -1.39385,-0.26025 -1.4501,-0.105294 -0.06,0.165335 0.0507,0.271089 0.97097,0.927405 1.78771,1.27498 2.58973,2.047655 2.77485,2.673311 0.1017,0.343446 -0.34082,0.477905 -1.06724,0.324331 z"
       id="path1610"
       sodipodi:nodetypes="cssscccccsscsscccc" />
    <path
       style="display:inline;fill:#ffffff;stroke:none;stroke-width:0.264582"
       d="m 154.84892,32.505483 c -0.3518,-0.410993 -0.33348,-1.709438 0.0534,-3.788219 0.29248,-1.571384 0.24553,-1.941318 -0.18412,-1.450694 -0.0971,0.110837 -0.49983,0.712714 -0.89503,1.337481 -0.45324,0.71656 -0.92433,1.357067 -1.27597,1.73488 -0.70607,0.75865 -1.05182,0.875024 -1.21995,0.410633 -0.0681,-0.188152 -0.0607,-0.393302 0.0491,-1.357683 l 0.0397,-0.348109 h -0.6616 c -0.36387,0 -0.81751,-0.03535 -1.00806,-0.07856 -0.95187,-0.215833 -1.42431,-1.142729 -1.15782,-2.271545 0.14619,-0.619173 0.64366,-1.669699 1.07705,-2.27441 0.50356,-0.702601 1.52238,-1.698648 2.45143,-2.396617 0.44553,-0.334701 0.84253,-0.672734 0.88224,-0.751187 0.046,-0.09068 0.14498,-0.142636 0.27204,-0.142636 0.26988,0 0.41911,-0.06799 0.41911,-0.191057 0,-0.170419 0.24054,-0.114455 0.4274,0.09946 0.0969,0.110849 0.27088,0.349946 0.3868,0.531324 0.30068,0.470533 0.67061,0.842704 1.25148,1.25907 0.71285,0.510959 0.72057,0.543131 0.37058,1.543449 -0.41136,1.17577 -0.49538,1.669502 -0.53946,3.170346 -0.0301,1.023788 -0.0135,1.491462 0.0749,2.088669 0.2872,1.944362 0.28064,1.843928 0.14096,2.154994 -0.15438,0.343844 -0.59469,0.849759 -0.73953,0.849759 -0.0572,0 -0.15378,-0.0582 -0.21467,-0.129334 z"
       id="path1612" />
    <path
       style="display:inline;fill:#a0a0a0;stroke:none;stroke-width:0.264582"
       d="m 162.3549,16.167476 c -0.34374,-0.535539 -0.73936,-0.974917 -1.37404,-1.526042 -0.35596,-0.309092 -0.63151,-0.601715 -0.61345,-0.651479 0.20014,-0.551408 0.40842,-1.434398 0.50543,-2.142665 0.16727,-1.221357 0.17351,-3.7957507 0.0108,-4.6063015 -0.11408,-0.5690906 -0.14493,-0.8786578 -0.13036,-1.3052229 0.008,-0.2234725 0.64125,-1.0033072 0.81522,-1.0033072 0.0521,0 0.15675,0.1071839 0.23228,0.2381856 0.22184,0.3846615 0.18813,1.4272603 -0.10479,3.2378153 -0.27305,1.6882047 -0.28972,1.9326947 -0.13605,1.9950467 0.16071,0.06521 0.30519,-0.108941 1.12051,-1.3506319 0.92553,-1.4095011 1.55198,-2.1808498 1.97032,-2.4261134 0.5007,-0.2935511 0.54565,-0.2130857 0.54565,0.9769509 v 0.9677057 l 0.95713,-0.00553 c 0.93742,-0.00553 0.96321,-0.00139 1.25311,0.2007467 0.79817,0.5565162 0.74093,1.940366 -0.146,3.530097 -0.71766,1.286314 -2.72713,3.152289 -4.33088,4.021591 -0.31456,0.170503 -0.38014,0.153322 -0.5753,-0.150746 z m -0.59236,-4.466535 c 0.22179,-0.307121 0.32827,-0.685686 0.19288,-0.685686 -0.0874,0 -0.64026,0.786174 -0.64026,0.910571 0,0.216965 0.20138,0.11572 0.44738,-0.224885 z m 1.1642,-1.479789 c 0.46189,-0.4782724 0.56672,-0.6716268 0.36413,-0.6716268 -0.15627,0 -1.14392,1.0226808 -1.14392,1.1844758 0,0.121081 0.0208,0.128559 0.15596,0.05574 0.0857,-0.04626 0.3665,-0.302119 0.62383,-0.56859 z m 1.17465,-1.0113872 c 0.27582,-0.2020978 0.34679,-0.3931122 0.14608,-0.3931122 -0.16229,0 -0.64491,0.3639426 -0.64491,0.486334 0,0.1570368 0.21112,0.1175841 0.49883,-0.093222 z"
       id="path1614" />
    <path
       style="display:inline;fill:#0000ff;stroke:none;stroke-width:0.264582"
       d="m 169.47456,16.139414 c -1.08818,-0.306808 -3.42489,-0.361107 -4.65896,-0.108281 -0.26687,0.05468 -0.4938,0.0909 -0.50432,0.08049 -0.0108,-0.01036 0.28581,-0.259503 0.65852,-0.553554 1.03581,-0.817289 2.18076,-2.071933 2.8505,-3.123644 0.31149,-0.489147 0.61609,-0.933025 0.67693,-0.98639 0.15683,-0.137611 0.90857,-0.170296 1.23884,-0.05385 0.43325,0.152773 0.39701,0.28163 -0.28798,1.023983 -0.73932,0.801244 -1.43072,1.401147 -2.31041,2.00473 -0.75654,0.51907 -0.90705,0.670472 -0.73563,0.74002 0.0615,0.02494 0.11179,0.09129 0.11179,0.147444 0,0.122661 0.13049,0.13006 0.39405,0.02229 0.28462,-0.116392 1.73542,-0.409233 2.66736,-0.538396 0.78962,-0.109437 0.81861,-0.108334 1.3508,0.05163 0.46405,0.139494 0.54724,0.188793 0.56694,0.335978 0.0276,0.20586 -0.50088,0.782794 -0.90074,0.983416 -0.30403,0.152537 -0.50105,0.147973 -1.11768,-0.02586 z"
       id="path1618" />
    <path
       style="display:inline;fill:#a0a0a0;stroke:none;stroke-width:0.264582"
       d="m 154.84726,32.503575 c -0.31666,-0.369973 -0.31924,-1.72661 -0.007,-3.42316 0.0966,-0.524 0.19333,-1.191826 0.21493,-1.484055 0.0671,-0.907093 -0.11959,-0.74669 -1.30123,1.117621 -0.69819,1.101566 -1.63229,2.188777 -1.95386,2.274113 -0.51641,0.13703 -0.60743,-0.214816 -0.42243,-1.632856 l 0.0406,-0.311466 h -0.66296 c -0.36462,0 -0.81888,-0.03535 -1.00945,-0.07856 -0.95187,-0.215833 -1.4243,-1.142729 -1.15779,-2.271545 0.14618,-0.619173 0.64366,-1.669699 1.07704,-2.27441 0.50354,-0.702601 1.52239,-1.698648 2.45143,-2.396617 0.44552,-0.334701 0.84252,-0.672734 0.88224,-0.751187 0.046,-0.09068 0.14496,-0.142636 0.27202,-0.142636 0.2699,0 0.41913,-0.06799 0.41913,-0.191057 0,-0.170419 0.24054,-0.114455 0.42739,0.09946 0.0969,0.110849 0.27146,0.349946 0.3881,0.531324 0.28006,0.43554 0.78126,0.934872 1.31982,1.314893 0.63684,0.449361 0.64693,0.499535 0.29953,1.487626 -0.3971,1.129441 -0.49503,1.712404 -0.53878,3.206988 -0.0288,0.9853 -0.0108,1.460848 0.076,2.052027 0.28722,1.948644 0.28039,1.84393 0.14071,2.154994 -0.15438,0.343844 -0.59469,0.849759 -0.73953,0.849759 -0.0572,0 -0.15452,-0.05904 -0.21631,-0.131244 z"
       id="path1620" />
    <path
       style="display:inline;fill:#ffffff;stroke:none;stroke-width:0.264582"
       d="m 154.81846,32.363286 c -0.22389,-0.361278 -0.20711,-1.582948 0.0439,-3.193911 0.22269,-1.429609 0.26501,-2.062657 0.14323,-2.142241 -0.0993,-0.06486 -0.38925,0.281834 -0.90259,1.079146 -1.14878,1.784279 -2.04986,2.842945 -2.41974,2.842945 -0.31089,0 -0.3763,-0.197977 -0.32709,-0.99007 0.0229,-0.367794 0.0595,-0.718226 0.0815,-0.778738 0.0335,-0.09229 -0.10869,-0.122137 -0.88109,-0.185154 -1.03271,-0.08424 -1.37914,-0.214669 -1.66989,-0.628717 -0.49389,-0.703322 -0.43334,-1.540661 0.20647,-2.855304 0.58352,-1.198937 1.44122,-2.17846 2.96846,-3.390015 0.41934,-0.332675 0.82231,-0.676079 0.89546,-0.763107 0.0732,-0.08703 0.25517,-0.1789 0.40451,-0.204146 0.14932,-0.02521 0.28776,-0.09071 0.30765,-0.145465 0.0198,-0.05477 0.0893,-0.09955 0.15437,-0.09955 0.13224,0 0.32525,0.208019 0.75463,0.813149 0.30313,0.427186 0.71519,0.822867 1.28278,1.231779 0.51579,0.3716 0.53068,0.459569 0.23425,1.382521 -0.42536,1.3244 -0.47106,1.613545 -0.51219,3.241634 -0.0328,1.300524 -0.0182,1.63743 0.10923,2.507558 0.22048,1.506427 0.21437,1.559679 -0.24792,2.164468 -0.27544,0.360317 -0.45272,0.392398 -0.62573,0.113218 z"
       id="path1622" />
    <path
       style="display:inline;fill:#ffffff;stroke:none;stroke-width:0.264582"
       d="m 154.85996,32.367312 c -0.17863,-0.227082 -0.16012,-1.733631 0.0393,-3.197626 0.20029,-1.470487 0.22839,-2.177941 0.0865,-2.177941 -0.13816,0 -0.38823,0.310971 -1.09029,1.355801 -0.75901,1.129617 -1.50239,2.082777 -1.83113,2.347877 -0.15643,0.126159 -0.3032,0.183081 -0.43182,0.16749 l -0.19483,-0.02362 -1.2e-4,-0.878757 -1.1e-4,-0.87876 -0.3118,-0.04996 c -0.17149,-0.02747 -0.58129,-0.08354 -0.91067,-0.124572 -0.32939,-0.04103 -0.70736,-0.122527 -0.83997,-0.181124 -0.53017,-0.234207 -0.86602,-1.042989 -0.73777,-1.776605 0.18303,-1.046795 0.92698,-2.362103 1.92459,-3.402667 0.80719,-0.841931 2.51626,-2.266396 2.82866,-2.35759 0.12403,-0.03623 0.24418,-0.09763 0.26687,-0.136449 0.0932,-0.159615 0.31842,-0.051 0.56682,0.273477 0.52027,0.6796 0.96523,1.148244 1.47641,1.55501 0.37238,0.296316 0.52572,0.466136 0.54049,0.59863 0.0108,0.101729 -0.10439,0.601005 -0.25707,1.109494 -0.15271,0.508495 -0.31016,1.198457 -0.34986,1.533253 -0.10628,0.895502 -0.088,3.198698 0.0318,4.020396 0.14495,0.994397 0.13399,1.448484 -0.0422,1.758879 -0.31975,0.563114 -0.56792,0.714327 -0.76378,0.465365 z"
       id="path1624" />
    <path
       style="display:inline;fill:#ffff00;stroke:none;stroke-width:0.264582"
       d="m 147.04744,26.18514 c -0.1313,-0.03381 -0.19784,-0.127895 -0.1752,-0.247628 0.0596,-0.314974 0.67374,-1.013664 1.75212,-1.993217 0.58933,-0.535317 1.31028,-1.211884 1.60703,-1.508117 0.0631,-0.06298 0.0623,-0.06952 -0.0323,-0.253051 -0.064,-0.124463 -0.11354,-0.181707 -0.14564,-0.168665 -0.0826,0.03351 -1.20689,0.196093 -1.82774,0.264326 -0.83463,0.09172 -2.44759,0.09382 -2.72319,0.0035 -0.4026,-0.131863 -0.39975,-0.279074 0.0135,-0.656114 0.51413,-0.469989 0.76745,-0.528683 1.39712,-0.32375 0.70939,0.230869 1.50277,0.32784 2.68232,0.32784 1.17244,0 2.31232,-0.135316 2.92858,-0.347674 0.0974,-0.03359 -0.0565,0.105643 -0.4995,0.451437 -0.92803,0.724539 -1.57736,1.319573 -2.1873,2.004369 -0.53025,0.595336 -0.86183,1.074763 -1.12158,1.62176 -0.19588,0.412512 -0.34787,0.597522 -0.57608,0.701325 -0.25405,0.115558 -0.85744,0.183881 -1.09148,0.123603 z"
       id="path1627" />
    <path
       style="display:inline;fill:#a0a0a0;stroke:none;stroke-width:0.264582"
       d="m 162.48212,16.290313 c -0.0483,-0.05538 -0.17818,-0.229831 -0.28883,-0.387566 -0.25971,-0.370288 -0.64623,-0.782273 -1.23429,-1.315652 -0.53801,-0.487992 -0.59118,-0.555374 -0.54269,-0.687952 0.18212,-0.497958 0.41215,-1.542821 0.49337,-2.241145 0.14798,-1.272167 0.13291,-3.523367 -0.0304,-4.5377214 -0.0471,-0.2922055 -0.0963,-0.6669814 -0.1095,-0.8328375 -0.0222,-0.2803213 -0.0174,-0.3157884 0.0695,-0.5034866 0.10022,-0.2166778 0.5672,-0.770129 0.68234,-0.8087732 0.15811,-0.053018 0.32498,0.2456048 0.38406,0.6873573 0.0682,0.5098678 -0.0121,1.3718608 -0.30091,3.2163991 -0.20382,1.3031403 -0.20184,1.5392843 0.0135,1.5392843 0.14385,0 0.30831,-0.204941 1.05852,-1.3191564 0.79,-1.1732802 1.20124,-1.7214649 1.57259,-2.0962819 0.26156,-0.2640036 0.62089,-0.5053945 0.75233,-0.5053945 0.12807,0 0.16419,0.2336585 0.18213,1.1796213 l 0.0172,0.904803 0.93969,0.011327 c 0.90401,0.01091 0.94595,0.014561 1.10432,0.097 0.5153,0.268317 0.77179,0.8751538 0.68583,1.6227105 -0.0565,0.492458 -0.18706,0.915345 -0.46758,1.516189 -0.29699,0.636084 -0.62527,1.119708 -1.17031,1.724057 -0.96775,1.07305 -2.30224,2.164164 -3.31298,2.708775 -0.28962,0.156055 -0.38157,0.161328 -0.49712,0.02849 z m -0.97918,-4.292519 c 0.21141,-0.136308 0.46845,-0.543824 0.51757,-0.820542 0.0196,-0.110683 0.0135,-0.139905 -0.0381,-0.160479 -0.0766,-0.03108 -0.26139,0.177276 -0.50528,0.569572 -0.15567,0.250363 -0.202,0.396149 -0.145,0.456397 0.034,0.03603 0.0527,0.03108 0.17072,-0.04493 z m 0.80227,-1.188065 c 0.14671,-0.08616 0.70883,-0.629876 0.89604,-0.8666813 0.20596,-0.2605487 0.24343,-0.4042654 0.10546,-0.4042654 -0.12699,0 -0.45276,0.2926584 -0.93026,0.8358117 -0.18001,0.204786 -0.23545,0.293208 -0.23545,0.37559 0,0.1171 0.041,0.131959 0.1643,0.05956 z m 1.74188,-1.5434154 c 0.3098,-0.1987955 0.43049,-0.4603965 0.21238,-0.4603965 -0.19871,0 -0.66295,0.3459891 -0.66295,0.4940807 0,0.165829 0.15803,0.1540135 0.45057,-0.03365 z"
       id="path1629" />
    <path
       style="display:inline;fill:#ffffff;stroke:none;stroke-width:0.264582"
       d="m 162.48271,16.290313 c -0.048,-0.05538 -0.18933,-0.24093 -0.31432,-0.412236 -0.28628,-0.392393 -0.61412,-0.741154 -1.19591,-1.272243 -0.25185,-0.229915 -0.48773,-0.461273 -0.52416,-0.51413 -0.0658,-0.09558 -0.0656,-0.09779 0.0342,-0.409901 0.13976,-0.436904 0.29203,-1.109693 0.37375,-1.651273 0.19819,-1.313647 0.21041,-3.7330995 0.0246,-4.8933392 -0.0483,-0.3015061 -0.0985,-0.6838956 -0.11152,-0.8497517 -0.0219,-0.2800905 -0.017,-0.3159415 0.0697,-0.5034866 0.10022,-0.2166778 0.56721,-0.770129 0.68234,-0.8087732 0.15183,-0.050922 0.31903,0.2343666 0.38029,0.6488945 0.0736,0.4974595 -0.007,1.4058787 -0.27906,3.1451993 -0.21848,1.3970659 -0.22162,1.6489469 -0.0204,1.6489469 0.16843,0 0.28691,-0.148733 1.19683,-1.5023745 0.6635,-0.9870322 1.09085,-1.5510517 1.44954,-1.9130638 0.26154,-0.2640036 0.62089,-0.5053945 0.75229,-0.5053945 0.12807,0 0.16421,0.2336585 0.18215,1.1796213 l 0.0172,0.904803 0.9397,0.011327 c 0.904,0.01091 0.94593,0.014561 1.10431,0.097 0.22428,0.1167877 0.44587,0.3533529 0.55613,0.5937467 0.27224,0.5935513 0.1678,1.4478528 -0.30294,2.4777648 -0.23908,0.52309 -0.4016,0.796303 -0.72668,1.22165 -0.88422,1.156957 -2.5695,2.620282 -3.75038,3.256443 -0.33133,0.178494 -0.41999,0.18684 -0.53768,0.05065 z m -1.00206,-4.277145 c 0.20131,-0.110056 0.49148,-0.558473 0.53983,-0.834209 0.0196,-0.112312 0.0135,-0.141562 -0.0379,-0.162186 -0.0753,-0.03051 -0.24778,0.1639 -0.50202,0.565789 -0.15808,0.249918 -0.20612,0.398992 -0.14825,0.46018 0.0312,0.03301 0.0355,0.03218 0.14842,-0.02961 z m 0.85087,-1.223253 c 0.15725,-0.102453 0.65487,-0.589754 0.86807,-0.8500371 0.20241,-0.247117 0.24709,-0.4010956 0.11637,-0.4010956 -0.10467,0 -0.24636,0.1142344 -0.63361,0.5106677 -0.3935,0.402837 -0.54144,0.600219 -0.54144,0.72238 0,0.103643 0.0518,0.108558 0.19061,0.01805 z m 1.66934,-1.4933935 c 0.20284,-0.1222535 0.35815,-0.2964832 0.35815,-0.4018199 0,-0.1317135 -0.15054,-0.116512 -0.40061,0.040478 -0.23304,0.1462734 -0.36188,0.2825424 -0.36188,0.3827519 0,0.1328341 0.16271,0.1242298 0.40434,-0.021387 z"
       id="path1631" />
    <path
       style="display:inline;fill:#00ffff;stroke:none;stroke-width:0.264582"
       d="m 154.93025,32.453321 c -0.29208,-0.216296 -0.30769,-1.347721 -0.0452,-3.279589 0.16188,-1.191534 0.20004,-1.603339 0.18564,-2.002479 -0.0147,-0.402242 -0.29078,-0.135685 -1.05772,1.020618 -0.76178,1.148519 -1.11323,1.617673 -1.6118,2.151653 -0.53127,0.568997 -0.72714,0.67946 -0.90427,0.509973 -0.13501,-0.129172 -0.15944,-0.405507 -0.0982,-1.109635 0.0303,-0.347965 0.0475,-0.640651 0.0383,-0.650419 -0.009,-0.0098 -0.22503,-0.0434 -0.47954,-0.07473 -0.25453,-0.03133 -0.64175,-0.07956 -0.8605,-0.10715 -0.73047,-0.09218 -1.05679,-0.282912 -1.30333,-0.761813 -0.29805,-0.578983 -0.26541,-1.214084 0.10977,-2.133936 0.58032,-1.423207 1.44576,-2.465855 3.29677,-3.971882 0.29277,-0.23822 0.62655,-0.519334 0.74167,-0.624691 0.13386,-0.122406 0.30027,-0.214623 0.46117,-0.255435 0.1385,-0.03511 0.26347,-0.09601 0.27773,-0.135273 0.0476,-0.130988 0.23689,-0.0749 0.41298,0.122379 0.0951,0.106585 0.30554,0.368197 0.46755,0.581365 0.36159,0.475751 0.61613,0.726393 1.18172,1.163653 0.44999,0.347904 0.56302,0.515803 0.51004,0.757785 -0.0145,0.0659 -0.13439,0.489922 -0.26652,0.942299 -0.37139,1.271167 -0.39993,1.508831 -0.40409,3.363328 -0.003,1.417655 0.009,1.686796 0.10601,2.339089 0.13791,0.928208 0.13992,1.245278 0.009,1.515578 -0.10506,0.217553 -0.5326,0.718737 -0.61326,0.718737 -0.0258,0 -0.0953,-0.03573 -0.15421,-0.07941 z"
       id="path1633" />
    <path
       style="display:inline;fill:#ffffff;stroke:none;stroke-width:0.264582"
       d="m 146.98772,26.120656 c -0.28854,-0.177692 0.20365,-0.792647 1.91841,-2.396865 0.52421,-0.490416 1.05004,-0.983409 1.16853,-1.095553 0.22602,-0.213908 0.2454,-0.32883 0.0922,-0.546554 -0.0597,-0.08495 -0.11112,-0.08256 -0.943,0.04395 -1.1868,0.180502 -3.41917,0.239307 -3.76616,0.09921 -0.14418,-0.05824 -0.21731,-0.118558 -0.21731,-0.179331 0,-0.126293 0.49073,-0.605889 0.74462,-0.72773 0.27784,-0.133329 0.40127,-0.127571 1.07239,0.04996 0.8836,0.233759 1.39684,0.277288 2.89392,0.245416 1.02601,-0.02179 1.4466,-0.05163 1.86218,-0.131997 0.29526,-0.05705 0.54419,-0.09602 0.55317,-0.0865 0.009,0.0096 -0.28756,0.262597 -0.65901,0.56243 -1.48173,1.196041 -2.40558,2.225034 -2.98438,3.324027 -0.29715,0.564231 -0.46695,0.733157 -0.82703,0.822723 -0.3348,0.08329 -0.78695,0.09164 -0.90851,0.01679 z"
       id="path1637" />
    <path
       style="display:inline;fill:#ffffff;stroke:none;stroke-width:0.264582"
       d="m 146.98365,26.090344 c -0.19522,-0.206394 0.36934,-0.869846 2.21575,-2.60391 0.5242,-0.492303 0.97988,-0.931424 1.01262,-0.975822 0.0895,-0.12137 0.0745,-0.337629 -0.0305,-0.438123 -0.0884,-0.08455 -0.13699,-0.08353 -0.93406,0.02013 -1.53998,0.200252 -3.68103,0.231859 -3.88,0.05727 -0.12511,-0.10976 -0.0944,-0.18482 0.18621,-0.456007 0.48449,-0.468164 0.67691,-0.506676 1.50311,-0.300844 0.88963,0.221626 1.27026,0.25094 2.87535,0.221457 1.05572,-0.01936 1.61157,-0.05128 1.90333,-0.1091 0.22667,-0.04493 0.41778,-0.0757 0.4247,-0.06842 0.007,0.0074 -0.32149,0.291085 -0.7298,0.630579 -0.83029,0.690348 -2.00154,1.892438 -2.34184,2.403509 -0.12295,0.184744 -0.3377,0.533566 -0.47708,0.775155 -0.33052,0.572867 -0.45919,0.709956 -0.75301,0.802208 -0.24507,0.07694 -0.91433,0.10567 -0.97471,0.04184 z"
       id="path1639" />
    <path
       style="display:inline;fill:#d35f5f;stroke:none;stroke-width:0.264582"
       d="m 169.03311,26.121697 c -0.43121,-0.06851 -0.63703,-0.206727 -0.899,-0.603662 -0.61032,-0.924817 -0.97987,-1.394327 -1.67945,-2.133607 -0.83872,-0.88635 -1.572,-1.531964 -2.78775,-2.454517 -0.44356,-0.336584 -0.81616,-0.619859 -0.82798,-0.629494 -0.0121,-0.0097 0.016,-0.266971 0.0616,-0.57185 0.10237,-0.682642 0.10574,-1.422843 0.009,-1.957963 -0.0404,-0.222776 -0.0733,-0.431785 -0.0733,-0.464472 0,0 0.60566,-0.386588 1.51464,-0.581642 1.7231,-0.369749 3.63017,-0.561553 6.73555,0.335309 1.39894,0.404028 3.84656,1.314005 3.89038,2.434972 0.0831,0.601704 -0.49441,0.866043 -1.35716,0.965286 l -4.61302,0.383186 1.49206,0.489651 c 0.77546,0.254485 0.95827,0.79151 0.85858,0.959143 -0.16741,0.28152 -0.75083,0.399871 -1.57547,0.319587 -0.63261,-0.0616 -0.79998,-0.08844 -2.14335,-0.344039 -0.53182,-0.101178 -1.05237,-0.172204 -1.19747,-0.163371 -0.2231,0.0136 -0.25872,0.03073 -0.27221,0.131123 -0.0203,0.151677 0.11717,0.282542 0.87085,0.828301 0.98234,0.711352 1.85557,1.418309 2.23084,1.806064 0.34225,0.353647 0.65153,0.831666 0.65244,1.008431 0.001,0.208071 -0.40799,0.32007 -0.88956,0.24356 z"
       id="path1643"
       sodipodi:nodetypes="cssscccssscscssssssssccc" />
    <path
       style="display:inline;fill:#ffffff;stroke:none;stroke-width:0.264582;fill-opacity:1"
       d="m 162.56702,16.318314 c -0.0269,-0.02089 -0.20725,-0.238591 -0.40063,-0.483806 -0.30344,-0.384764 -0.79891,-0.897984 -1.55338,-1.609015 l -0.1946,-0.183406 0.0596,-0.224467 c 0.32258,-1.21492 0.42734,-1.805106 0.50602,-2.851195 0.0794,-1.0556262 0.0279,-3.1325266 -0.099,-3.9879146 -0.13291,-0.8966398 -0.12995,-0.9934274 0.0394,-1.2688859 0.18229,-0.2966364 0.58485,-0.7317908 0.65433,-0.7073099 0.12013,0.042352 0.23968,0.2968034 0.29246,0.622602 0.0708,0.4362778 0.003,1.266468 -0.23109,2.8577304 -0.23554,1.597268 -0.25132,1.790114 -0.15482,1.892114 0.18274,0.19323 0.43232,0.09603 1.2011,-1.2404597 1.14235,-1.9858961 4.18291,-5.2199895 4.78209,-5.7431925 0.5992,-0.5232032 1.57217,-1.4219621 1.51246,-0.4995243 l -0.0693,1.0699351 c 0,0 0.4256,-0.1011181 0.77284,-0.159408 1.15811,-0.1944044 1.23499,0.9170422 1.1541,1.3873116 -0.24063,1.3991585 -0.83587,2.7936506 -1.48199,4.0249622 -0.7884,1.5025046 -2.54324,3.6961556 -3.5596,4.7602886 -0.91995,0.963192 -1.99868,1.838568 -2.78996,2.235861 -0.31043,0.155873 -0.3617,0.168434 -0.44004,0.107783 z"
       id="path1645"
       sodipodi:nodetypes="ssscscccsccsszscsssssss" />
  </g>
</svg>
