<?xml version="1.0" encoding="UTF-8" standalone="no"?>
<svg
   xmlns:dc="http://purl.org/dc/elements/1.1/"
   xmlns:cc="http://creativecommons.org/ns#"
   xmlns:rdf="http://www.w3.org/1999/02/22-rdf-syntax-ns#"
   xmlns:svg="http://www.w3.org/2000/svg"
   xmlns="http://www.w3.org/2000/svg"
   xmlns:sodipodi="http://sodipodi.sourceforge.net/DTD/sodipodi-0.dtd"
   xmlns:inkscape="http://www.inkscape.org/namespaces/inkscape"
   id="Слой_1"
   data-name="Слой 1"
   viewBox="0 0 351.73 118.02"
   version="1.1"
   sodipodi:docname="photoblog  текст.svg"
   inkscape:version="1.0.2 (e86c870879, 2021-01-15, custom)">
  <metadata
     id="metadata29">
    <rdf:RDF>
      <cc:Work
         rdf:about="">
        <dc:format>image/svg+xml</dc:format>
        <dc:type
           rdf:resource="http://purl.org/dc/dcmitype/StillImage" />
        <dc:title>Монтажная область 19</dc:title>
      </cc:Work>
    </rdf:RDF>
  </metadata>
  <sodipodi:namedview
     pagecolor="#ffffff"
     bordercolor="#666666"
     borderopacity="1"
     objecttolerance="10"
     gridtolerance="10"
     guidetolerance="10"
     inkscape:pageopacity="0"
     inkscape:pageshadow="2"
     inkscape:window-width="1538"
     inkscape:window-height="727"
     id="namedview27"
     showgrid="false"
     inkscape:zoom="1.2714314"
     inkscape:cx="131.50494"
     inkscape:cy="-39.945083"
     inkscape:window-x="198"
     inkscape:window-y="154"
     inkscape:window-maximized="0"
     inkscape:current-layer="Слой_1" />
  <defs
     id="defs4">
    <style
       id="style2">.cls-1{fill:#fff;}</style>
  </defs>
  <title
     id="title6">Монтажная область 19</title>
  <path
     class="cls-1"
     d="M49.8,32.12a13.12,13.12,0,0,1,4.9.83,9.53,9.53,0,0,1,3.37,2.2,8.38,8.38,0,0,1,2,3.22,11.91,11.91,0,0,1,.63,3.85,12.8,12.8,0,0,1-.58,3.8,9.22,9.22,0,0,1-1.87,3.4,9.71,9.71,0,0,1-3.38,2.45,11.87,11.87,0,0,1-5,1H39.3a.75.75,0,0,0-.85.85v12.2h-5.9V52.52a5.62,5.62,0,0,1,1.25-4.1,5.56,5.56,0,0,1,4.05-1.25H50a5.22,5.22,0,0,0,2.15-.4,3.85,3.85,0,0,0,1.45-1.05,4.42,4.42,0,0,0,.82-1.47,5.27,5.27,0,0,0,.28-1.73,4.73,4.73,0,0,0-1.13-3.17A4.38,4.38,0,0,0,50.05,38H32.5v-5.9Z"
     id="path8"
     style="fill:#ffffff" />
  <path
     class="cls-1"
     d="M71.55,28V39.47h9.3q6.69,0,10,3.05t3.3,8.5V65.87H88.8V51a6.08,6.08,0,0,0-1.9-4.75q-1.91-1.7-6.05-1.7h-9.3v21.3h-5.3V28Z"
     id="path10"
     style="fill:#ffffff" />
  <path
     class="cls-1"
     d="M117.35,39.47a11,11,0,0,1,8.35,3.28q3.09,3.27,3.1,9.92t-3.1,9.95a11,11,0,0,1-8.35,3.25H111.8a11,11,0,0,1-8.38-3.25q-3.08-3.24-3.07-9.95t3.07-10a11,11,0,0,1,8.38-3.25Zm-5,5.1c-2.3,0-4,.64-5,1.9s-1.57,3.34-1.57,6.2.52,4.93,1.57,6.18,2.73,1.87,5,1.87h4.55q3.45,0,5-1.87t1.58-6.18q0-4.29-1.58-6.2c-1.05-1.26-2.72-1.9-5-1.9Z"
     id="path12"
     style="fill:#ffffff" />
  <path
     class="cls-1"
     d="M136.1,39.47V33.22h5.35v6.25h7.3v5.1h-7.3v12.5a4.45,4.45,0,0,0,.82,3.1A3.67,3.67,0,0,0,145,61h3.65v4.85H143.9a12.17,12.17,0,0,1-3.53-.45,5.25,5.25,0,0,1-2.42-1.5,6.42,6.42,0,0,1-1.4-2.8,17.72,17.72,0,0,1-.45-4.35V44.57h-3.6v-5.1Z"
     id="path14"
     style="fill:#ffffff" />
  <path
     class="cls-1"
     d="M169.65,39.47A11,11,0,0,1,178,42.75q3.09,3.27,3.1,9.92T178,62.62a11,11,0,0,1-8.35,3.25H164.1a11,11,0,0,1-8.38-3.25q-3.08-3.24-3.07-9.95t3.07-10a11,11,0,0,1,8.38-3.25Zm-5.05,5.1c-2.3,0-4,.64-5,1.9S158,49.81,158,52.67s.52,4.93,1.57,6.18,2.73,1.87,5,1.87h4.55q3.45,0,5-1.87t1.58-6.18q0-4.29-1.58-6.2c-1-1.26-2.72-1.9-5-1.9Z"
     id="path16"
     style="fill:#ffffff" />
  <path
     class="cls-1"
     d="M192.75,28V39.47h11.7a10.87,10.87,0,0,1,8.32,3.28q3.07,3.27,3.08,9.92t-3.08,9.95a10.89,10.89,0,0,1-8.32,3.25h-7.3q-4.8,0-7.25-2.77c-1.64-1.85-2.45-4.69-2.45-8.53V28Zm0,16.55v9.75q0,3.41,1.35,4.9t4.6,1.5h5.2q3.45,0,5-1.87t1.58-6.18q0-4.29-1.58-6.2c-1-1.26-2.72-1.9-5-1.9Z"
     id="path18"
     style="fill:#ffffff" />
  <path
     class="cls-1"
     d="M227.5,28V65.87h-5.3V28Z"
     id="path20"
     style="fill:#ffffff" />
  <path
     class="cls-1"
     d="M250.85,39.47a11,11,0,0,1,8.35,3.28q3.09,3.27,3.1,9.92t-3.1,9.95a11,11,0,0,1-8.35,3.25H245.3a11,11,0,0,1-8.38-3.25q-3.07-3.24-3.07-9.95t3.07-10a11,11,0,0,1,8.38-3.25Zm-5,5.1c-2.3,0-4,.64-5,1.9s-1.57,3.34-1.57,6.2.52,4.93,1.57,6.18,2.73,1.87,5,1.87h4.55q3.45,0,5-1.87T257,52.67q0-4.29-1.58-6.2c-1.05-1.26-2.72-1.9-5-1.9Z"
     id="path22"
     style="fill:#ffffff" />
  <path
     class="cls-1"
     d="m 286.14,39.47 c 3.16667,0 5.57667,0.926667 7.23,2.78 1.65333,1.853333 2.47667,4.693333 2.47,8.52 V 66 c 0.0305,1.615559 -0.14422,3.228455 -0.52,4.8 -0.28333,1.209433 -0.86815,2.327483 -1.7,3.25 -0.8514,0.875854 -1.9218,1.507738 -3.1,1.83 -1.52502,0.411287 -3.10085,0.603215 -4.68,0.57 l -96.56623,0 c -2.44856,0 -2.42995,-5.1 0,-5.1 l 95.97623,0 c 2,0 3.33,-0.41 4.09,-1.25 0.8804,-1.176181 1.29368,-2.636906 1.16,-4.1 v -1.2 h -11.66 c -3.10158,0.1633 -6.13209,-0.966353 -8.37,-3.12 -2.05333,-2.08 -3.08,-5.273333 -3.08,-9.58 0,-4.306667 1.02667,-7.473333 3.08,-9.5 2.24512,-2.140167 5.27245,-3.2614 8.37,-3.1 z m -13.39,12.8 c 0,2.666667 0.52333,4.626667 1.57,5.88 1.05,1.22 2.72,1.82 5,1.82 h 11.18 v -9.25 c 0,-2.16 -0.46,-3.73 -1.36,-4.7 -0.9,-0.97 -2.41,-1.45 -4.55,-1.45 h -5.25 c -2.3,0 -3.96667,0.61 -5,1.83 -1.07,1.22 -1.59,3.17 -1.59,5.87 z"
     id="path24"
     style="fill:#ffffff"
     sodipodi:nodetypes="csccccccssscccccscccscscsssscs" />
</svg>
