<svg id="Слой_1" data-name="Слой 1" xmlns="http://www.w3.org/2000/svg" viewBox="0 0 351.73 118.02"><defs><style>.cls-1{fill:#fff;}</style></defs><title>Монтажная область 19</title><path class="cls-1" d="M49.8,32.12a13.12,13.12,0,0,1,4.9.83,9.53,9.53,0,0,1,3.37,2.2,8.38,8.38,0,0,1,2,3.22,11.91,11.91,0,0,1,.63,3.85,12.8,12.8,0,0,1-.58,3.8,9.22,9.22,0,0,1-1.87,3.4,9.71,9.71,0,0,1-3.38,2.45,11.87,11.87,0,0,1-5,1H39.3a.75.75,0,0,0-.85.85v12.2h-5.9V52.52a5.62,5.62,0,0,1,1.25-4.1,5.56,5.56,0,0,1,4.05-1.25H50a5.22,5.22,0,0,0,2.15-.4,3.85,3.85,0,0,0,1.45-1.05,4.42,4.42,0,0,0,.82-1.47,5.27,5.27,0,0,0,.28-1.73,4.73,4.73,0,0,0-1.13-3.17A4.38,4.38,0,0,0,50.05,38H32.5v-5.9Z"/><path class="cls-1" d="M71.55,28V39.47h9.3q6.69,0,10,3.05t3.3,8.5V65.87H88.8V51a6.08,6.08,0,0,0-1.9-4.75q-1.91-1.7-6.05-1.7h-9.3v21.3h-5.3V28Z"/><path class="cls-1" d="M117.35,39.47a11,11,0,0,1,8.35,3.28q3.09,3.27,3.1,9.92t-3.1,9.95a11,11,0,0,1-8.35,3.25H111.8a11,11,0,0,1-8.38-3.25q-3.08-3.24-3.07-9.95t3.07-10a11,11,0,0,1,8.38-3.25Zm-5,5.1c-2.3,0-4,.64-5,1.9s-1.57,3.34-1.57,6.2.52,4.93,1.57,6.18,2.73,1.87,5,1.87h4.55q3.45,0,5-1.87t1.58-6.18q0-4.29-1.58-6.2c-1.05-1.26-2.72-1.9-5-1.9Z"/><path class="cls-1" d="M136.1,39.47V33.22h5.35v6.25h7.3v5.1h-7.3v12.5a4.45,4.45,0,0,0,.82,3.1A3.67,3.67,0,0,0,145,61h3.65v4.85H143.9a12.17,12.17,0,0,1-3.53-.45,5.25,5.25,0,0,1-2.42-1.5,6.42,6.42,0,0,1-1.4-2.8,17.72,17.72,0,0,1-.45-4.35V44.57h-3.6v-5.1Z"/><path class="cls-1" d="M169.65,39.47A11,11,0,0,1,178,42.75q3.09,3.27,3.1,9.92T178,62.62a11,11,0,0,1-8.35,3.25H164.1a11,11,0,0,1-8.38-3.25q-3.08-3.24-3.07-9.95t3.07-10a11,11,0,0,1,8.38-3.25Zm-5.05,5.1c-2.3,0-4,.64-5,1.9S158,49.81,158,52.67s.52,4.93,1.57,6.18,2.73,1.87,5,1.87h4.55q3.45,0,5-1.87t1.58-6.18q0-4.29-1.58-6.2c-1-1.26-2.72-1.9-5-1.9Z"/><path class="cls-1" d="M192.75,28V39.47h11.7a10.87,10.87,0,0,1,8.32,3.28q3.07,3.27,3.08,9.92t-3.08,9.95a10.89,10.89,0,0,1-8.32,3.25h-7.3q-4.8,0-7.25-2.77c-1.64-1.85-2.45-4.69-2.45-8.53V28Zm0,16.55v9.75q0,3.41,1.35,4.9t4.6,1.5h5.2q3.45,0,5-1.87t1.58-6.18q0-4.29-1.58-6.2c-1-1.26-2.72-1.9-5-1.9Z"/><path class="cls-1" d="M227.5,28V65.87h-5.3V28Z"/><path class="cls-1" d="M250.85,39.47a11,11,0,0,1,8.35,3.28q3.09,3.27,3.1,9.92t-3.1,9.95a11,11,0,0,1-8.35,3.25H245.3a11,11,0,0,1-8.38-3.25q-3.07-3.24-3.07-9.95t3.07-10a11,11,0,0,1,8.38-3.25Zm-5,5.1c-2.3,0-4,.64-5,1.9s-1.57,3.34-1.57,6.2.52,4.93,1.57,6.18,2.73,1.87,5,1.87h4.55q3.45,0,5-1.87T257,52.67q0-4.29-1.58-6.2c-1.05-1.26-2.72-1.9-5-1.9Z"/><path class="cls-1" d="M286.14,39.47q4.75,0,7.23,2.78t2.47,8.52V66a19.09,19.09,0,0,1-.52,4.8,7.36,7.36,0,0,1-1.7,3.25,6.84,6.84,0,0,1-3.1,1.83,16.63,16.63,0,0,1-4.68.57h-15.7v-5.1h15.11c2,0,3.33-.41,4.09-1.25A5.94,5.94,0,0,0,290.5,66v-1.2H278.84a11.22,11.22,0,0,1-8.37-3.12q-3.08-3.12-3.08-9.58t3.08-9.5a11.28,11.28,0,0,1,8.37-3.1Zm-13.39,12.8q0,4,1.57,5.88c1.05,1.22,2.72,1.82,5,1.82H290.5V50.72c0-2.16-.46-3.73-1.36-4.7s-2.41-1.45-4.55-1.45h-5.25q-3.45,0-5,1.83C273.27,47.62,272.75,49.57,272.75,52.27Z"/></svg>