<?xml version="1.0" encoding="UTF-8" standalone="no"?>
<svg
   xmlns:dc="http://purl.org/dc/elements/1.1/"
   xmlns:cc="http://creativecommons.org/ns#"
   xmlns:rdf="http://www.w3.org/1999/02/22-rdf-syntax-ns#"
   xmlns:svg="http://www.w3.org/2000/svg"
   xmlns="http://www.w3.org/2000/svg"
   xmlns:sodipodi="http://sodipodi.sourceforge.net/DTD/sodipodi-0.dtd"
   xmlns:inkscape="http://www.inkscape.org/namespaces/inkscape"
   width="251mm"
   height="60mm"
   viewBox="0 0 251 60"
   version="1.1"
   id="svg8"
   inkscape:version="1.0.2 (e86c870879, 2021-01-15, custom)"
   sodipodi:docname="React.js - значок.svg">
  <defs
     id="defs2">
    <rect
       x="-30.00316"
       y="-88.278526"
       width="306.95541"
       height="37.503948"
       id="rect1048" />
    <rect
       x="9.6848173"
       y="11.66005"
       width="276.49918"
       height="30.45977"
       id="rect853" />
  </defs>
  <sodipodi:namedview
     id="base"
     pagecolor="#ffffff"
     bordercolor="#666666"
     borderopacity="1.0"
     inkscape:pageopacity="0.0"
     inkscape:pageshadow="2"
     inkscape:zoom="0.91712562"
     inkscape:cx="409.05985"
     inkscape:cy="13.407019"
     inkscape:document-units="mm"
     inkscape:current-layer="layer1"
     inkscape:document-rotation="0"
     showgrid="false"
     inkscape:window-width="1609"
     inkscape:window-height="976"
     inkscape:window-x="84"
     inkscape:window-y="26"
     inkscape:window-maximized="0" />
  <metadata
     id="metadata5">
    <rdf:RDF>
      <cc:Work
         rdf:about="">
        <dc:format>image/svg+xml</dc:format>
        <dc:type
           rdf:resource="http://purl.org/dc/dcmitype/StillImage" />
        <dc:title></dc:title>
      </cc:Work>
    </rdf:RDF>
  </metadata>
  <g
     inkscape:groupmode="layer"
     id="layer5"
     inkscape:label="Слой 2" />
  <g
     inkscape:label="Слой 1"
     inkscape:groupmode="layer"
     id="layer1"
     style="display:inline">
    <g
       aria-label="iFrame API Support"
       transform="matrix(1,0,0,0.76234288,54.080349,84.800572)"
       id="text1046"
       style="font-style:normal;font-weight:normal;font-size:10.5833px;line-height:1.25;font-family:sans-serif;white-space:pre;shape-inside:url(#rect1048);fill:#ffffff;fill-opacity:1;stroke:none;stroke-width:1.14531">
      <path
         d="m -26.188258,-64.4126 h -2.46098 v -12.553257 h 2.46098 z m -2.46098,-16.73015 h 2.46098 v 2.325513 h -2.46098 z"
         style="font-style:normal;font-variant:normal;font-weight:normal;font-stretch:normal;font-size:22.5778px;font-family:a_RewinderMedium;-inkscape-font-specification:'a_RewinderMedium, Normal';font-variant-ligatures:normal;font-variant-caps:normal;font-variant-numeric:normal;font-variant-east-asian:normal;fill:#000000"
         id="path1064" />
      <path
         d="m -14.944554,-81.14275 0.745067,2.573869 h -6.344362 v 4.402671 h 5.734761 l -0.699911,2.506136 h -5.03485 v 4.176893 q 0,3.160892 0.135467,3.522137 l -2.709336,1.85138 q -0.316089,-0.451556 -0.316089,-5.057428 V -81.14275 Z"
         style="font-style:normal;font-variant:normal;font-weight:normal;font-stretch:normal;font-size:22.5778px;font-family:a_RewinderMedium;-inkscape-font-specification:'a_RewinderMedium, Normal';font-variant-ligatures:normal;font-variant-caps:normal;font-variant-numeric:normal;font-variant-east-asian:normal;fill:#000000"
         id="path1066" />
      <path
         d="m -12.754542,-76.965857 h 2.302936 v 1.467557 q 0.9708451,-1.603024 2.7544914,-1.603024 v 2.370669 q -2.3255134,0 -2.5964474,2.325513 v 7.992542 h -2.46098 z"
         style="font-style:normal;font-variant:normal;font-weight:normal;font-stretch:normal;font-size:22.5778px;font-family:a_RewinderMedium;-inkscape-font-specification:'a_RewinderMedium, Normal';font-variant-ligatures:normal;font-variant-caps:normal;font-variant-numeric:normal;font-variant-east-asian:normal;fill:#000000"
         id="path1068" />
      <path
         d="M 2.9595716,-76.965857 V -64.4126 H 1.221081 q -3.635026,0 -5.7347614,-2.144891 -2.0545799,-2.077158 -2.0545799,-5.486406 0,-2.325513 1.6481794,-3.680181 1.5352905,-1.241779 3.860804,-1.241779 z m -2.39324687,10.318055 v -8.082853 h -1.19662344 q -3.49955909,0 -3.49955909,2.889959 0,1.557868 0.7224896,2.822225 0.7676452,1.33209 2.1223133,1.964268 0.8579564,0.406401 1.85137963,0.406401 z"
         style="font-style:normal;font-variant:normal;font-weight:normal;font-stretch:normal;font-size:22.5778px;font-family:a_RewinderMedium;-inkscape-font-specification:'a_RewinderMedium, Normal';font-variant-ligatures:normal;font-variant-caps:normal;font-variant-numeric:normal;font-variant-east-asian:normal;fill:#000000"
         id="path1070" />
      <path
         d="m 5.4882414,-64.4126 v -12.553257 h 9.7761876 q 4.876805,0 4.876805,5.034849 v 7.518408 h -2.370669 v -7.473252 q 0,-2.844803 -2.573869,-2.844803 H 14.000072 V -64.4126 H 11.629403 V -74.730655 H 7.8589105 V -64.4126 Z"
         style="font-style:normal;font-variant:normal;font-weight:normal;font-stretch:normal;font-size:22.5778px;font-family:a_RewinderMedium;-inkscape-font-specification:'a_RewinderMedium, Normal';font-variant-ligatures:normal;font-variant-caps:normal;font-variant-numeric:normal;font-variant-east-asian:normal;fill:#000000"
         id="path1072" />
      <path
         d="m 30.594715,-66.625225 -0.587022,2.212625 h -0.993424 q -3.206047,0 -5.215472,-2.235202 -1.896535,-2.099736 -1.896535,-5.170317 0,-2.483558 1.286935,-3.815648 1.286934,-1.33209 3.747915,-1.33209 2.302935,0 3.431825,1.038579 0.970846,0.880534 0.970846,2.528713 0,1.219201 -1.061157,2.528714 -1.106312,1.377246 -3.973693,3.296359 0.880535,0.6096 1.761069,0.790223 0.654756,0.158044 1.896535,0.158044 z m -3.747915,-8.30863 q -1.219201,0 -1.964268,0.92569 -0.677334,0.835378 -0.677334,2.099735 0,1.422402 0.6096,2.596447 1.354668,-0.92569 1.783647,-1.241779 1.083734,-0.790223 1.670757,-1.444979 0.609601,-0.677334 0.609601,-1.490135 0,-0.745067 -0.677334,-1.12889 -0.564445,-0.316089 -1.354669,-0.316089 z"
         style="font-style:normal;font-variant:normal;font-weight:normal;font-stretch:normal;font-size:22.5778px;font-family:a_RewinderMedium;-inkscape-font-specification:'a_RewinderMedium, Normal';font-variant-ligatures:normal;font-variant-caps:normal;font-variant-numeric:normal;font-variant-east-asian:normal;fill:#000000"
         id="path1074" />
      <path
         d="m 39.821474,-70.972608 -0.853334,2.66667 h 3.040003 c 0,2.82667 1.200002,6.560008 1.253335,6.560008 l 2.533337,-0.773334 c -0.960001,-2.880004 -1.093335,-5.946675 -1.093335,-5.786674 h 5.973341 l -1.253335,3.813338 h 2.773337 l 2.026669,-6.160008 c 0.720001,-2.240003 1.066668,-3.973338 1.066668,-5.360007 0,-3.013337 -1.520002,-4.240005 -3.893338,-4.240005 -4.026672,0 -7.706676,4.666672 -8.986678,9.280012 z m 11.706682,0 h -6.400009 c 0.800001,-2.720004 3.573338,-6.640009 6.266675,-6.640009 0.853334,0 1.280002,0.320001 1.280002,1.520002 0,1.120002 -0.320001,2.58667 -0.986668,4.640006 z"
         style="font-style:normal;font-variant:normal;font-weight:normal;font-stretch:normal;font-size:26.6667px;font-family:'Airstream NF';-inkscape-font-specification:'Airstream NF, Normal';font-variant-ligatures:normal;font-variant-caps:normal;font-variant-numeric:normal;font-variant-east-asian:normal"
         id="path1076" />
      <path
         d="m 71.314806,-75.905948 c 0.05333,-0.293334 0.05333,-0.693334 0.05333,-1.040001 0,-1.600002 -0.640001,-3.440005 -2.880004,-3.440005 -2.373336,0 -5.093339,2.853337 -6.160007,4.240006 0.106667,-0.640001 0.106667,-1.093335 0.106667,-1.146668 0,-2.66667 -1.680003,-2.960004 -3.413338,-2.960004 h -1.600002 l -0.853335,2.640003 h 3.333338 c 0,1.333335 -0.213334,2.933337 -0.506667,3.760005 -1.333335,3.760005 -4.320006,8.00001 -4.880006,8.906678 -0.106667,0.106667 -0.240001,0.346667 -0.293334,0.453334 h 3.120004 c 2.82667,-4.186672 5.520007,-9.146678 9.706679,-12.586683 0.453334,-0.373334 0.986668,-0.693334 1.306668,-0.693334 0.266667,0 0.400001,0.266667 0.400001,1.120001 0,2.50667 -1.813336,6.160008 -3.946672,6.160008 h -2.560003 l -0.853335,2.66667 c 0.746668,0 1.493335,0.02667 2.18667,0.02667 2.080002,0 3.866671,-0.213334 5.200006,-1.893336 1.360002,-1.733335 2.34667,-3.946671 2.533337,-6.213341 z"
         style="font-style:normal;font-variant:normal;font-weight:normal;font-stretch:normal;font-size:26.6667px;font-family:'Airstream NF';-inkscape-font-specification:'Airstream NF, Normal';font-variant-ligatures:normal;font-variant-caps:normal;font-variant-numeric:normal;font-variant-east-asian:normal"
         id="path1078" />
      <path
         d="m 84.168143,-76.945949 c 0.106667,-0.346667 0.186667,-0.640001 0.186667,-1.040002 0,-1.173334 -0.853334,-2.693336 -2.960003,-2.693336 -2.986671,0 -7.013343,3.546671 -7.866677,5.440007 -0.32,0.693334 -0.480001,1.333335 -0.480001,2.026669 0,1.626669 0.880001,2.533336 1.893336,4.213338 l 2.240003,-1.440001 c -0.906668,-1.333335 -1.493335,-1.493336 -1.493335,-2.74667 0,-1.813336 3.040004,-3.706672 3.120004,-3.760005 0.720001,-0.426667 1.626668,-1.066668 2.720003,-1.066668 0.05333,0 0.186667,0.02667 0.186667,0.133333 -0.666668,1.333335 -0.960001,2.986671 -1.440002,4.426673 -0.880001,2.613336 -1.253335,5.73334 -3.626671,6.266674 -0.373334,0.106667 -0.906668,0.133334 -1.440002,0.133334 h -4.453339 l -0.853334,2.560003 h 6.320008 c 2.186669,0 4.480005,-1.760002 5.17334,-3.866672 0.906667,-2.82667 1.866669,-5.680007 2.773336,-8.586677 z"
         style="font-style:normal;font-variant:normal;font-weight:normal;font-stretch:normal;font-size:26.6667px;font-family:'Airstream NF';-inkscape-font-specification:'Airstream NF, Normal';font-variant-ligatures:normal;font-variant-caps:normal;font-variant-numeric:normal;font-variant-east-asian:normal"
         id="path1080" />
      <path
         d="m 105.52811,-79.612619 c -0.64,-1.013335 -1.6,-1.066668 -2.72,-1.066668 -1.68,0.106667 -3.253338,0.880001 -4.266672,1.386668 -1.973336,0.986668 -4.266672,2.66667 -4.266672,4.986673 0,2.240003 2.213336,3.840005 4.293338,6.133341 -0.05333,0.560001 -0.506667,1.040002 -1.040001,1.040002 H 90.568094 L 89.71476,-64.4926 h 7.813343 c 2.106669,0 3.786667,-1.573335 3.786667,-3.840005 0,-1.226668 -1.493331,-2.400003 -2.373332,-3.360004 -0.986668,-1.066668 -2.000002,-2.026669 -2.000002,-2.640004 0,-0.800001 1.413335,-1.760002 1.893335,-2.133336 1.893339,-1.093334 3.146669,-1.600002 4.346669,-1.600002 -0.0267,0.693335 -1.04,2.10667 -1.73333,3.013338 l -1.28,1.706668 2.16,1.520002 c 1.41333,-1.973336 3.49334,-4.186672 3.49334,-6.320008 0,-0.506667 -0.0267,-1.013334 -0.29334,-1.466668 z"
         style="font-style:normal;font-variant:normal;font-weight:normal;font-stretch:normal;font-size:26.6667px;font-family:'Airstream NF';-inkscape-font-specification:'Airstream NF, Normal';font-variant-ligatures:normal;font-variant-caps:normal;font-variant-numeric:normal;font-variant-east-asian:normal"
         id="path1082" />
      <path
         d="m 113.23474,-67.105937 h -1.57333 c -0.24,0 -0.4,-0.08 -0.4,-0.373334 0,-0.05333 0.0267,-0.106666 0.0267,-0.16 l 1.73334,-5.466673 h -2.74667 l -1.52,4.640005 c -0.4,1.226669 -1.54667,1.360002 -1.70667,1.360002 -0.26667,0 -0.32,-0.08 -0.32,-0.373334 0,-0.05333 0.0267,-0.106666 0.0267,-0.16 l 1.76,-5.466673 h -2.77334 l -1.49333,4.640005 c -0.08,0.480001 -0.13334,0.746668 -0.13334,1.200002 0,1.493335 1.22667,2.800004 2.90667,2.800004 0.85334,0 1.73334,-0.320001 2.42667,-0.800001 0.85334,0.693334 1.65334,0.800001 2.90667,0.800001 z"
         style="font-style:normal;font-variant:normal;font-weight:normal;font-stretch:normal;font-size:26.6667px;font-family:'Airstream NF';-inkscape-font-specification:'Airstream NF, Normal';font-variant-ligatures:normal;font-variant-caps:normal;font-variant-numeric:normal;font-variant-east-asian:normal"
         id="path1084" />
      <path
         d="m 126.46142,-67.105937 h -2.37333 c 0.45333,-0.773334 0.82667,-1.600002 0.82667,-2.560003 0,-1.866669 -1.41334,-3.413338 -3.49334,-3.413338 -1.54667,0 -3.04001,0.906668 -4.10667,1.973336 -0.10667,-1.120001 -0.34667,-2.106669 -0.37334,-2.213336 l -2.58667,0.560001 c -0.0267,0 0.34667,0.800001 0.34667,2.293336 0,0.906668 -0.16,2.026669 -0.61333,3.466671 l -2.98667,9.226678 2.50667,0.826668 2.24,-6.960009 c 1.04,-3.253337 3.84,-6.533341 5.52,-6.533341 0.50667,0 0.90667,0.213333 0.90667,0.773334 0,1.333335 -1.73333,2.560003 -2.85333,2.560003 h -1.73334 v 2.640004 h 7.92001 z"
         style="font-style:normal;font-variant:normal;font-weight:normal;font-stretch:normal;font-size:26.6667px;font-family:'Airstream NF';-inkscape-font-specification:'Airstream NF, Normal';font-variant-ligatures:normal;font-variant-caps:normal;font-variant-numeric:normal;font-variant-east-asian:normal"
         id="path1086" />
      <path
         d="m 139.68806,-67.105937 h -2.37333 c 0.45333,-0.773334 0.82666,-1.600002 0.82666,-2.560003 0,-1.866669 -1.41333,-3.413338 -3.49333,-3.413338 -1.54667,0 -3.04001,0.906668 -4.10667,1.973336 -0.10667,-1.120001 -0.34667,-2.106669 -0.37334,-2.213336 l -2.58667,0.560001 c -0.0267,0 0.34667,0.800001 0.34667,2.293336 0,0.906668 -0.16,2.026669 -0.61334,3.466671 l -2.98667,9.226678 2.50667,0.826668 2.24001,-6.960009 c 1.04,-3.253337 3.84,-6.533341 5.52,-6.533341 0.50667,0 0.90667,0.213333 0.90667,0.773334 0,1.333335 -1.73333,2.560003 -2.85334,2.560003 h -1.73333 v 2.640004 h 7.92001 z"
         style="font-style:normal;font-variant:normal;font-weight:normal;font-stretch:normal;font-size:26.6667px;font-family:'Airstream NF';-inkscape-font-specification:'Airstream NF, Normal';font-variant-ligatures:normal;font-variant-caps:normal;font-variant-numeric:normal;font-variant-east-asian:normal"
         id="path1088" />
      <path
         d="m 150.70137,-71.025942 h -2.40001 c -0.58666,-1.360001 -1.92,-2.240003 -3.46667,-2.240003 -2.61333,0 -4.72,2.373337 -4.72,4.85334 0,2.133336 1.6,3.946672 3.84,3.946672 2.16,0 4.10667,-1.760003 4.58667,-3.840005 h 1.28 z m -5.01334,2.66667 c -0.37334,0.666668 -1.04,1.173335 -1.73334,1.173335 -0.74667,0 -1.14667,-0.640001 -1.14667,-1.306668 0,-0.666668 0.50667,-1.440002 1.12,-1.813336 0.10667,0.960001 0.85334,1.786669 1.76001,1.946669 z"
         style="font-style:normal;font-variant:normal;font-weight:normal;font-stretch:normal;font-size:26.6667px;font-family:'Airstream NF';-inkscape-font-specification:'Airstream NF, Normal';font-variant-ligatures:normal;font-variant-caps:normal;font-variant-numeric:normal;font-variant-east-asian:normal"
         id="path1090" />
      <path
         d="m 160.0347,-70.439274 v -2.66667 h -5.25334 l 0.13333,-0.346667 -2.53333,-0.826668 -1.46667,4.586672 2.50667,0.826668 c 0.21333,-1.093335 1.14667,-1.573335 1.41333,-1.573335 h 0.42667 c -0.69333,0.906667 -1.25333,2.080002 -1.25333,3.173337 0,2.560003 2.26667,2.800004 3.92,2.800004 h 1.14667 l 0.85333,-2.640004 h -2.98667 c -0.18666,0 -0.26666,-0.08 -0.32,-0.24 0,-0.613334 1.57334,-2.480003 2.40001,-3.093337 z"
         style="font-style:normal;font-variant:normal;font-weight:normal;font-stretch:normal;font-size:26.6667px;font-family:'Airstream NF';-inkscape-font-specification:'Airstream NF, Normal';font-variant-ligatures:normal;font-variant-caps:normal;font-variant-numeric:normal;font-variant-east-asian:normal"
         id="path1092" />
      <path
         d="m 167.07467,-73.079278 h -1.41334 l 1.01334,-3.093337 h -2.77334 l -1.01333,3.093337 h -1.46667 l -0.88,2.640004 h 1.49333 l -1.01333,3.093337 c -0.13334,0.266667 -0.13334,0.693334 -0.13334,0.746668 0,1.093334 0.88,2.133336 2.16001,2.133336 h 2.98667 l 0.85333,-2.640004 h -3.17334 l 1.09334,-3.333337 h 1.41333 z"
         style="font-style:normal;font-variant:normal;font-weight:normal;font-stretch:normal;font-size:26.6667px;font-family:'Airstream NF';-inkscape-font-specification:'Airstream NF, Normal';font-variant-ligatures:normal;font-variant-caps:normal;font-variant-numeric:normal;font-variant-east-asian:normal"
         id="path1094" />
    </g>
  </g>
</svg>
