<?xml version="1.0" encoding="UTF-8" standalone="no"?>
<svg
   xmlns:dc="http://purl.org/dc/elements/1.1/"
   xmlns:cc="http://creativecommons.org/ns#"
   xmlns:rdf="http://www.w3.org/1999/02/22-rdf-syntax-ns#"
   xmlns:svg="http://www.w3.org/2000/svg"
   xmlns="http://www.w3.org/2000/svg"
   xmlns:sodipodi="http://sodipodi.sourceforge.net/DTD/sodipodi-0.dtd"
   xmlns:inkscape="http://www.inkscape.org/namespaces/inkscape"
   width="307mm"
   height="111mm"
   viewBox="0 0 307 111"
   version="1.1"
   id="svg8"
   inkscape:version="1.0.2 (e86c870879, 2021-01-15, custom)"
   sodipodi:docname="Story кнопка.svg">
  <defs
     id="defs2">
    <rect
       x="175.4903"
       y="33.621971"
       width="238.634"
       height="82.004807"
       id="rect892" />
    <rect
       x="-76.264473"
       y="59.043465"
       width="467.4274"
       height="173.03015"
       id="rect841" />
    <rect
       x="-22.961348"
       y="98.405769"
       width="351.80063"
       height="98.405769"
       id="rect835" />
    <rect
       x="-76.264473"
       y="59.043465"
       width="467.4274"
       height="173.03015"
       id="rect841-8" />
    <rect
       x="-76.264473"
       y="59.043465"
       width="467.4274"
       height="173.03015"
       id="rect854" />
    <rect
       x="175.4903"
       y="33.621971"
       width="238.634"
       height="82.004807"
       id="rect892-2" />
    <rect
       x="175.4903"
       y="33.621971"
       width="238.634"
       height="82.004807"
       id="rect905" />
  </defs>
  <sodipodi:namedview
     id="base"
     pagecolor="#ffffff"
     bordercolor="#666666"
     borderopacity="1.0"
     inkscape:pageopacity="0.0"
     inkscape:pageshadow="2"
     inkscape:zoom="0.45628707"
     inkscape:cx="555.03578"
     inkscape:cy="182.18998"
     inkscape:document-units="mm"
     inkscape:current-layer="layer3"
     inkscape:document-rotation="0"
     showgrid="false"
     inkscape:window-width="1609"
     inkscape:window-height="972"
     inkscape:window-x="355"
     inkscape:window-y="19"
     inkscape:window-maximized="0" />
  <metadata
     id="metadata5">
    <rdf:RDF>
      <cc:Work
         rdf:about="">
        <dc:format>image/svg+xml</dc:format>
        <dc:type
           rdf:resource="http://purl.org/dc/dcmitype/StillImage" />
        <dc:title></dc:title>
      </cc:Work>
    </rdf:RDF>
  </metadata>
  <g
     inkscape:groupmode="layer"
     id="layer3"
     inkscape:label="Слой 3" />
  <g
     inkscape:label="Слой 1"
     inkscape:groupmode="layer"
     id="layer1">
    <text
       xml:space="preserve"
       id="text833"
       style="font-style:normal;font-weight:normal;font-size:10.5833px;line-height:1.25;font-family:sans-serif;white-space:pre;shape-inside:url(#rect835);fill:#000000;fill-opacity:1;stroke:none;" />
    <path
       style="fill:#ff4aff;stroke-width:0.999999;fill-opacity:1"
       d="m 37.239953,80.132077 c -0.320912,-0.320906 -3.215643,-0.526404 -6.432725,-0.456643 -3.217081,0.06978 -7.373991,-0.329995 -9.237568,-0.888325 -3.720947,-1.114823 -3.356478,-0.06155 -4.92785,-14.240872 -0.666483,-6.013995 -0.297591,-6.165497 6.155697,-2.528127 8.961938,5.05136 27.050346,5.027248 29.762071,-0.03961 1.174348,-2.19428 -0.962556,-7.191178 -3.897745,-9.11438 -1.080681,-0.708097 -6.476017,-2.657015 -11.989637,-4.330922 -14.110101,-4.28379 -21.272547,-9.985913 -21.272547,-16.935374 0,-3.521923 2.958315,-10.677308 5.578103,-13.491989 4.572027,-4.912125 16.688637,-8.2386233 27.482637,-7.545076 12.902146,0.828982 13.273766,1.105857 14.61301,10.887107 0.553754,4.044433 0.68259,7.675635 0.286299,8.069344 -0.396291,0.39371 -3.516165,-0.673162 -6.933048,-2.370854 -5.242978,-2.60496 -7.456312,-3.167251 -14.182389,-3.603018 -8.613513,-0.558042 -11.833924,0.311434 -11.833924,3.195066 0,3.340029 10.339909,10.5256 18.637756,12.952012 2.618694,0.765747 7.198693,2.581081 10.177785,4.034068 5.682826,2.771679 7.395202,5.140421 8.762366,12.121001 1.438176,7.343255 1.060896,10.091451 -2.054849,14.967633 -3.860961,6.042412 -7.877246,7.932387 -17.98721,8.464329 -4.063393,0.213791 -8.00331,0.624841 -8.755364,0.913438 -0.752062,0.288582 -1.629948,0.26214 -1.950868,-0.05881 z m -9.632589,-6.556301 c 2.100668,-2.439284 3.667341,-4.891208 3.4815,-5.448729 -0.488332,-1.465009 -4.359396,-1.555276 -6.393635,-0.149103 -0.957919,0.662155 -2.447952,1.20394 -3.311181,1.20394 -1.228651,0 -1.569491,0.728667 -1.569491,3.355327 0,3.29471 1.21327,5.474912 3.046287,5.474062 0.509922,-2.47e-4 2.645854,-1.996212 4.74652,-4.435497 z m -4.342873,-2.512773 c 1.061598,-1.490878 2.309023,-2.944826 2.772049,-3.230994 1.351642,-0.83537 0.968295,1.028722 -0.454373,2.209426 -0.712937,0.591682 -1.209614,1.510768 -1.103727,2.042381 0.105883,0.53164 -0.55823,1.129341 -1.475816,1.328245 -1.553959,0.336848 -1.536009,0.17582 0.261867,-2.349058 z m 3.61392,-0.946022 c 0,-0.456973 0.397341,-1.076441 0.882981,-1.37658 0.485641,-0.300152 0.882982,0.07375 0.882982,0.830861 0,0.757124 -0.397341,1.376592 -0.882982,1.376592 -0.48564,0 -0.882981,-0.373901 -0.882981,-0.830873 z m 6.912818,6.437452 c 1.874976,-0.233244 2.735416,-0.03565 2.376086,0.545814 -1.120706,1.813347 2.118918,0.857139 4.832816,-1.426463 2.017286,-1.697431 2.471447,-2.52766 1.65778,-3.030528 -0.791487,-0.489172 -0.292532,-1.164103 1.698618,-2.297748 1.550614,-0.882814 2.821807,-1.908453 2.82488,-2.279202 0.0061,-0.784072 -5.903643,1.556882 -7.705032,3.051899 -0.673025,0.558563 -2.19496,1.119128 -3.382066,1.245695 -1.187117,0.126525 -2.781357,0.853081 -3.542761,1.614482 -1.337196,1.33721 -3.024195,1.858625 -3.024195,0.934727 0,-0.247321 1.98671,-1.672098 4.414908,-3.166183 2.4282,-1.494085 4.414909,-2.88111 4.414909,-3.082262 0,-0.201166 -0.894019,-0.364237 -1.986709,-0.362359 -1.295757,0.0027 -3.138294,1.426477 -5.297889,4.095193 -3.598204,4.446476 -4.186278,6.165744 -1.765964,5.162875 0.84987,-0.352147 2.867951,-0.804815 4.484619,-1.00594 z m -0.349996,-1.095345 c 0.629972,-1.019305 4.032957,-3.075133 4.032957,-2.436406 0,0.204059 -1.042281,1.053932 -2.316166,1.888618 -1.273895,0.834685 -2.046451,1.081197 -1.716791,0.547788 z m 4.915939,-1.420801 c 1.199584,-1.445421 3.531927,-1.799336 3.531927,-0.535959 0,0.812876 -2.090257,1.860434 -3.712259,1.860434 -0.556375,0 -0.485233,-0.522525 0.180332,-1.324475 z m 15.827941,0.300317 c 1.663581,-2.002696 2.656936,-3.477069 2.207453,-3.276396 -4.504945,2.011222 -10.971541,5.695227 -10.971541,6.250459 0,0.384458 1.291361,0.691875 2.869691,0.683115 2.274975,-0.01234 3.496527,-0.770531 5.894397,-3.657178 z m -4.349179,-2.698148 c 0,-1.345928 -1.48389,-0.66439 -3.598759,1.652865 l -2.140622,2.345467 2.86969,-1.652866 c 1.578327,-0.909079 2.869691,-1.964533 2.869691,-2.345466 z m 15.988651,-6.167964 c 1.251318,-2.338119 0.389686,-2.975777 -2.340255,-1.73192 -1.238999,0.564526 -2.532036,1.013192 -2.873416,0.99703 -1.159241,-0.05483 3.540987,-3.502552 4.775015,-3.502552 0.67466,0 1.226655,-0.55881 1.226655,-1.241801 0,-1.882339 -2.984,-0.751203 -5.815803,2.204561 -1.353788,1.413042 -2.119155,2.569169 -1.700825,2.569169 0.418339,0 -0.202671,1.047283 -1.380021,2.327289 l -2.14062,2.327288 2.081505,-1.084611 c 3.672186,-1.913468 4.238064,0.329077 0.888022,3.519152 -1.777476,1.692592 -1.099232,1.32808 1.689568,-0.908078 2.562502,-2.054677 5.078081,-4.518661 5.590175,-5.475527 z m -8.437207,-2.278215 c -0.751047,-0.751038 -6.668463,3.48772 -6.668463,4.776759 0,0.879413 1.131621,0.384675 3.531583,-1.543995 1.942373,-1.560925 3.35397,-3.015668 3.13688,-3.232764 z M 20.929463,63.39846 c -1.929942,-1.411206 -2.32928,-1.066626 -1.562762,1.348463 0.479494,1.510755 0.843309,1.674059 1.85638,0.833288 1.079232,-0.895687 1.037106,-1.208696 -0.293618,-2.181751 z m 44.786621,-7.431014 c -0.0071,-0.745103 -0.389094,-1.948837 -0.848122,-2.674926 -0.895157,-1.415977 -0.847472,-1.456813 -5.373719,4.604188 l -1.793045,2.401038 4.014202,-1.487765 c 2.3898,-0.88572 4.008728,-2.035993 4.000684,-2.842535 z m -6.608844,0.04976 c 1.761936,-1.996431 2.131528,-2.808045 1.103727,-2.423781 -4.124186,1.541913 -4.440654,1.434936 -1.986709,-0.671572 1.456921,-1.250629 3.159602,-2.275843 3.783736,-2.278256 0.861066,-0.0041 0.906822,-0.430365 0.189682,-1.770357 -1.282636,-2.396625 -1.969552,-2.235692 -4.38139,1.026488 -2.059174,2.785195 -3.139149,7.233028 -2.146307,8.839478 0.288011,0.46602 0.583209,0.719552 0.655993,0.563416 0.07276,-0.156149 1.324349,-1.634593 2.781268,-3.285416 z m -3.528553,-6.993424 c -0.161488,-0.161481 -1.147982,0.163633 -2.192214,0.722485 -1.563893,0.836973 -1.705091,1.249272 -0.800899,2.338736 0.95355,1.148955 1.241419,1.054096 2.192213,-0.722485 0.601982,-1.124817 0.962389,-2.17724 0.8009,-2.338736 z m -5.325095,-0.111995 c 0,-0.545965 1.0693,-0.634355 1.738379,-0.377589 0.669072,0.256738 2.512499,-0.203387 4.096496,-1.022499 2.592559,-1.340664 2.719796,-1.578952 1.274885,-2.387565 -1.270346,-0.710914 -1.9636,-0.459672 -3.323983,1.204667 -1.174897,1.437402 -1.561916,1.613921 -1.222904,0.557727 0.609513,-1.898967 0.476386,-1.901956 -3.354244,-0.07526 -1.695423,0.808475 -2.877478,1.801831 -2.626792,2.207454 0.618608,1.000936 3.418163,1.116126 3.418163,-0.106925 z m -5.102547,-3.072611 2.477435,-2.151073 -3.948218,0.874987 c -4.666424,1.034152 -5.273211,1.477211 -3.531555,2.578668 1.871312,1.183447 2.253835,1.083844 5.002338,-1.302582 z m 6.802411,-2.409347 c -0.825799,-1.336181 -2.533833,-0.716561 -4.15178,1.506121 l -1.592766,2.188098 3.100165,-1.478376 c 1.705091,-0.813095 2.895068,-1.81022 2.644381,-2.215843 z m -17.64291,-1.589067 c 0,-5.10038 5.228532,-2.872556 1.308306,-2.088523 -1.863754,0.37275 -2.996937,0.154203 -3.548076,-0.684307 -0.671209,-1.021169 -0.965595,-0.967571 -1.720473,0.313243 -0.505808,0.858222 -1.970753,1.551001 -3.295022,1.55824 l -2.384325,0.01371 2.207455,1.224872 c 2.950253,1.63706 7.432135,4.688561 7.432135,-0.336547 z m 11.110479,0.885144 c 1.863824,-0.568583 1.973288,-0.773328 0.703189,-1.315208 -0.892721,-0.380865 -2.31871,-0.07142 -3.507654,0.761443 -2.137891,1.497443 -1.015393,1.719089 2.804465,0.553765 z M 27.709412,38.289532 c 0.919457,-0.0082 0.808262,-0.351503 -0.400769,-1.235578 -1.242549,-0.908571 -2.188011,-0.988983 -3.673009,-0.312366 -2.442063,1.112671 -1.708728,2.770184 0.91423,2.066357 1.037883,-0.278494 2.459679,-0.511778 3.159548,-0.518413 z m 9.764778,-0.842923 c 0,-1.461954 -1.288447,-1.671701 -2.463016,-0.40092 -0.945787,1.023253 -0.833666,1.231794 0.662237,1.231794 0.990431,0 1.800779,-0.373888 1.800779,-0.830874 z M 24.229465,33.782617 c 0.889799,-0.503415 0.10199,-0.758139 -2.400492,-0.776179 -2.986781,-0.02152 -3.622237,0.240838 -3.206609,1.323941 0.518027,1.349958 2.614826,1.145118 5.607101,-0.547762 z m 7.42049,-1.040251 c -2.697945,-2.472473 -3.665618,-2.836929 -6.751225,-2.542671 -2.553318,0.243496 -3.211616,0.561894 -2.261298,1.093712 0.737316,0.412628 2.156427,0.593108 3.153569,0.401085 0.997143,-0.192037 2.543755,0.189844 3.436909,0.848599 1.540741,1.136427 1.510852,1.243255 -0.583536,2.085643 -1.95493,0.786296 -1.729143,0.894261 1.973737,0.94383 l 4.181201,0.05593 z m -8.303471,-4.177689 c 0,-0.485637 -0.794683,-0.882979 -1.765964,-0.882979 -2.669588,0 -2.115376,-1.740227 0.735816,-2.310469 1.375985,-0.27519 2.501787,-1.077045 2.501787,-1.781886 0,-0.74221 -0.525859,-1.079731 -1.249525,-0.802033 -0.687242,0.263716 -1.746379,0.479481 -2.353641,0.479481 -0.607252,0 -1.530922,1.390699 -2.052587,3.090433 -0.933189,3.040616 -0.907105,3.090445 1.617816,3.090445 1.411464,0 2.566298,-0.397342 2.566298,-0.882992 z m 3.752672,-2.350744 c -0.607049,-0.24495 -1.600404,-0.24495 -2.207454,0 -0.60705,0.244949 -0.110378,0.445376 1.103726,0.445376 1.2141,0 1.710779,-0.200427 1.103728,-0.445376 z m 33.332558,-0.739688 c 0,0.774329 -0.803629,-1.324475 -1.934728,-1.324475 -1.890747,0 -1.895763,0.02947 -0.220746,1.296401 2.149503,1.625792 2.155474,-1.56974 2.155474,0.0281 z M 28.644374,24.14977 c 0,-0.485636 -0.695348,-0.876892 -1.545218,-0.869462 -1.320543,0.01097 -1.35264,0.137971 -0.220745,0.869462 1.666371,1.076893 1.765963,1.076893 1.765963,0 z m 30.390648,-1.418937 c 0.768184,-0.294778 1.396692,-0.890792 1.396692,-1.324475 0,-1.263378 -2.332344,-0.909448 -3.531927,0.535959 -1.165316,1.404132 -0.300894,1.723339 2.135235,0.788516 z m -1.093565,-6.060838 c 1.164926,-1.589779 0.03117,-1.482788 -3.527979,0.332956 -2.828296,1.442886 -3.443601,2.176391 -3.059099,3.646735 0.466303,1.783161 0.566689,1.763174 3.220058,-0.640866 1.506314,-1.364779 3.021475,-2.867238 3.36702,-3.338825 z m -32.757745,3.592232 c -1.236443,0 -0.763523,-1.329822 0.112626,-1.632058 1.522207,-0.525088 5.182758,1.162077 4.592715,2.11679 -0.256259,0.414628 0.153541,0.753876 0.910663,0.753876 2.130863,0 1.62436,-3.10092 -0.710624,-4.350563 -1.7383,-0.930312 -2.550131,-0.877659 -4.856399,0.314957 -1.523056,0.787611 -2.76919,1.752921 -2.76919,2.145151 0,1.092823 1.039093,1.890455 2.462734,1.890455 1.002881,0 1.513276,-1.238608 0.257475,-1.238608 z m 13.870513,-0.871135 c -0.626201,-0.674713 -1.337214,-0.932959 -1.580035,-0.57389 -0.242819,0.359083 -1.037503,0.879745 -1.765963,1.157045 -0.728459,0.277301 -0.01748,0.535547 1.580034,0.57389 2.438115,0.05853 2.721684,-0.127211 1.765964,-1.157045 z m 4.380092,0.273051 c -0.849871,-0.494999 -1.551302,-1.575621 -1.558736,-2.401355 -0.01165,-1.289985 -0.131941,-1.314893 -0.854692,-0.176861 -0.536791,0.845212 -0.529912,1.43163 0.01899,1.620623 0.473101,0.162893 0.635587,0.659578 0.361077,1.103735 -0.274502,0.444156 0.418365,0.79548 1.539718,0.780717 1.809909,-0.02386 1.865333,-0.127896 0.493603,-0.926859 z m -9.938445,-3.466624 c -0.881692,-0.974245 -1.836663,-1.537771 -2.122167,-1.252273 -0.285502,0.285498 0.251571,1.082622 1.193491,1.771371 2.419273,1.769027 2.804519,1.553687 0.928676,-0.519098 z M 44.62085,14.166586 c 0,-1.630754 -1.313515,0.124744 -0.329635,2.626371 0.613567,1.560021 0.647843,1.559253 0.965787,-0.02152 0.181294,-0.901457 -0.636152,-1.853592 -0.636152,-2.604795 z m 4.149572,3.050828 c -1.062019,0 0.779955,-1.171492 -0.544172,-2.806715 l -1.686124,-2.08227 0.102691,2.818231 c 0.10925,2.99838 4.257978,2.070754 2.127615,2.070754 z M 38.665633,14.850181 c -0.516262,-1.345352 -2.957406,-1.832194 -2.957406,-0.589804 0,1.12701 1.98051,2.79716 2.751734,2.32053 0.386683,-0.238987 0.479238,-1.017812 0.205672,-1.730726 z M 53.36786,13.385952 c 0,-1.160581 -2.006824,-0.433847 -2.446795,0.886063 -0.215078,0.645239 0.188596,0.842581 1.048541,0.512586 0.769041,-0.295107 1.398254,-0.9245 1.398254,-1.398649 z"
       id="path974-7"
       sodipodi:nodetypes="ssssssssssssssssssssccssssssssssssssssssssssscsssssscsssssssssssssssssscsssssssssscssssssssscsscsscscssscssssssssssssssssssssssssssscssssssscsssscsscssscssssssssssssssscsssssssssssssssssssssssssssssssssssssssssssssssccssssccssssssssssscsssssssssss" />
  </g>
  <g
     inkscape:groupmode="layer"
     id="layer2"
     inkscape:label="Слой 2"
     style="display:inline">
    <path
       style="fill:#daee32;fill-opacity:1;stroke-width:0.999999"
       d="m 152.19122,79.651245 c -17.05799,-6.221151 -19.69466,-8.058171 -23.39246,-16.297947 -2.27399,-5.06715 -2.39295,-5.868018 -1.54711,-10.416332 1.07675,-5.789951 6.29481,-15.173146 10.70083,-19.242431 3.9208,-3.621154 11.24988,-6.399726 16.88065,-6.399726 5.2099,0 15.20564,3.454094 18.23701,6.30192 3.32016,3.119122 8.24714,13.849877 9.08024,19.776305 1.31505,9.355189 -0.93441,17.028287 -6.06258,20.679872 -5.33008,3.795343 -12.24715,6.223839 -17.52013,6.151076 -2.77859,-0.03839 -5.648,-0.287074 -6.37645,-0.552737 z m 17.7935,-4.823092 c 2.25902,-0.968558 5.01957,-2.732103 6.13459,-3.918975 l 2.02728,-2.157954 -6.13458,2.532952 c -3.37402,1.393124 -7.72395,3.406307 -9.66651,4.473755 l -3.53192,1.940804 3.53192,-0.55478 c 1.94256,-0.305115 5.3802,-1.34723 7.63922,-2.315802 z m -10.72965,0.589146 c 1.93512,-1.106201 1.98958,-1.257456 0.4415,-1.22601 -0.97128,0.01974 -3.15667,0.571449 -4.8564,1.22601 l -3.09044,1.190122 2.64894,0.03592 c 1.45693,0.01974 3.6423,-0.53197 4.8564,-1.22601 z m -11.47876,-2.735571 2.20745,-1.348518 -2.20745,0.484772 c -1.21409,0.266622 -3.20081,0.518124 -4.41491,0.558892 -2.0263,0.06799 -2.06252,0.136395 -0.4415,0.832971 2.35794,1.013233 2.32798,1.016496 4.85641,-0.528117 z m 20.3467,-4.389314 c 7.26295,-4.782898 6.79633,-5.860367 -0.66276,-1.530341 -2.0433,1.186131 -4.42735,2.055471 -5.29788,1.931865 -2.4817,-0.35238 -7.09402,0.969572 -8.25229,2.36522 -1.24677,1.502269 -1.21747,1.507108 2.5607,0.423538 2.43692,-0.698892 2.85855,-0.622923 2.45009,0.441497 -0.90055,2.346809 1.65524,1.338128 9.20214,-3.631779 z m -22.99565,0.949052 c 0,-0.215107 -0.49667,-0.238096 -1.10372,-0.051 -0.60705,0.187006 -2.27503,0.59918 -3.70662,0.915933 -1.9202,0.424855 -2.28129,0.774685 -1.37669,1.333756 1.10084,0.680318 6.18703,-1.127106 6.18703,-2.198653 z m 25.72183,0.37471 c 0.97087,-0.519591 2.63345,-1.10716 3.69463,-1.305708 1.97138,-0.368857 5.42208,-3.822511 4.62031,-4.624282 -0.24402,-0.244018 -2.93601,1.19936 -5.98219,3.207526 -5.12436,3.37815 -6.45109,4.926545 -2.33275,2.722464 z m -30.13674,-2.75476 c 0.96584,-0.610298 0.72673,-0.704185 -0.88297,-0.346747 -1.2141,0.269612 -2.92625,0.49563 -3.80479,0.502251 -0.87976,0.0068 -1.34222,0.424854 -1.02941,0.930955 0.58028,0.938909 3.3427,0.413957 5.71717,-1.086459 z m 22.14406,-3.45652 c 2.24331,-2.97401 2.83028,-7.249409 1.72577,-12.569845 -1.47536,-7.106831 -3.57979,-9.931587 -7.91544,-10.624887 -6.45502,-1.032205 -10.31563,2.990021 -11.22552,11.695461 -0.67829,6.489474 0.6424,10.218785 4.47208,12.627993 3.8232,2.405125 10.73198,1.802628 12.94311,-1.128722 z M 142.9199,64.3388 c 1.2308,-0.557618 0.69563,-0.637111 -1.76595,-0.26229 -1.94256,0.295792 -3.69748,0.683759 -3.89984,0.862155 -0.75864,0.668831 3.97073,0.168103 5.66579,-0.599865 z m 26.04798,-2.298832 c 0,-0.638742 -3.40299,1.417086 -4.03296,2.436392 -0.32966,0.53341 0.4429,0.286911 1.71679,-0.547775 1.27389,-0.834698 2.31617,-1.684572 2.31617,-1.888617 z m -30.46288,1.037318 2.64895,-1.223089 -3.09043,0.501386 c -1.69975,0.275739 -3.68646,0.831971 -4.41491,1.236058 -2.33851,1.297196 1.90679,0.84757 4.85639,-0.514355 z m 36.17708,-0.85611 c 2.68487,-1.187381 4.88157,-2.539861 4.88157,-3.005511 0,-0.653053 -8.66858,3.354642 -10.52219,4.864655 -1.01762,0.828982 1.25901,0.07855 5.64062,-1.859144 z m -2.18228,-4.72663 c 0.24282,-0.218766 -0.41909,-0.133516 -1.47091,0.189351 -3.12666,0.959866 -3.173,-0.941019 -0.0827,-3.395341 l 2.87816,-2.285863 -2.85016,0.970353 c -2.17427,0.740236 -3.05414,1.70911 -3.71034,4.085653 -0.47309,1.713414 -1.57458,3.911875 -2.44772,4.885478 -0.95563,1.065542 0.16982,0.611421 2.82734,-1.140842 2.42821,-1.601077 4.6136,-3.090021 4.8564,-3.308789 z m -37.84884,2.946635 c 1.63408,-0.709448 2.37505,-1.300047 1.64658,-1.312411 -2.26465,-0.03852 -5.29788,1.004856 -5.29788,1.822324 0,1.02557 0.16893,1.001979 3.6513,-0.509913 z m 7.34183,-0.569077 c 1.18307,-1.114152 -0.23488,-0.899813 -3.92927,0.593957 l -3.09045,1.24956 3.09045,-0.526787 c 1.69973,-0.289721 3.46791,-0.882266 3.92927,-1.31673 z m -3.17805,-2.642301 c 1.52938,-0.533149 2.78071,-1.307559 2.78071,-1.720913 0,-0.41334 -1.29137,-0.227417 -2.86969,0.413162 -1.57833,0.640605 -3.4657,1.383652 -4.19417,1.651207 -1.12103,0.411763 -1.10737,0.497192 0.0889,0.556191 0.77738,0.03839 2.66476,-0.366499 4.19415,-0.899647 z m -1.93186,-2.238078 c 4.01735,-1.678554 3.69958,-2.003134 -1.08582,-1.109121 -4.54917,0.849874 -5.68038,1.380048 -5.68038,2.662206 0,0.937934 1.78487,0.528254 6.7662,-1.553085 z m 42.27559,1.382734 c 0.95033,-1.537663 -0.13201,-1.863312 -1.34307,-0.4041 -0.69644,0.839181 -0.76344,1.345818 -0.17794,1.345818 0.51644,0 1.20089,-0.423772 1.52101,-0.941718 z M 178.2353,52.02457 c 1.00416,-1.624764 -0.84298,-0.91108 -3.52805,1.363131 l -2.64894,2.24363 2.8137,-1.358758 c 1.54753,-0.74731 3.06101,-1.758912 3.36329,-2.248003 z m -41.49626,-1.367888 2.64895,-1.143281 -3.57608,-0.0721 c -3.36594,-0.06786 -5.69523,1.082704 -5.69523,2.813021 0,0.817755 2.32607,0.256574 6.62236,-1.597704 z m 39.51344,-1.048998 c 0.84986,-0.244373 1.54522,-0.795301 1.54522,-1.224295 0,-1.339567 -2.11307,-0.818935 -4.41491,1.087777 -1.78826,1.481282 -1.8721,1.710056 -0.4415,1.204666 0.97129,-0.343113 2.46132,-0.823801 3.31119,-1.068148 z m -4.52303,-0.82439 c 1.10849,-1.343761 1.02359,-1.371205 -0.99561,-0.321893 -2.96015,1.538307 -3.18297,1.790919 -1.57975,1.790919 0.74993,0 1.90884,-0.661058 2.57536,-1.469026 z m -29.05282,-2.742041 c 0.83747,-0.725843 1.75035,-2.037048 2.0286,-2.913776 0.27827,-0.876728 2.37445,-2.837284 4.65821,-4.356798 3.57275,-2.377173 4.6713,-2.686139 7.87129,-2.213841 4.23176,0.624553 7.36862,-0.632436 7.21581,-2.891474 -0.0921,-1.362486 -0.14127,-1.367736 -0.49015,-0.0525 -0.49839,1.878912 -4.73383,3.011281 -5.65973,1.513153 -0.51777,-0.837783 -2.21048,-0.485006 -7.0811,1.475743 -3.52037,1.417183 -7.02661,3.237397 -7.79165,4.044912 -0.76505,0.807502 -2.18567,1.663654 -3.15693,1.902558 -1.35946,0.334354 -1.2134,0.457918 0.63451,0.536768 1.74925,0.07457 2.2626,0.461757 1.89223,1.426901 -0.27953,0.728461 -0.9624,1.342392 -1.51749,1.364296 -0.5551,0.02194 -2.20129,0.590216 -3.65821,1.262913 l -2.64895,1.22309 3.09045,-0.50114 c 1.69973,-0.275615 3.77563,-1.095002 4.61311,-1.820859 z m -8.14504,0.679154 c 0.72847,-0.470777 0.92714,-0.855947 0.44148,-0.855947 -0.48564,0 -1.47899,0.38517 -2.20745,0.855947 -0.72846,0.470762 -0.92713,0.855932 -0.44149,0.855932 0.48565,0 1.479,-0.38517 2.20746,-0.855932 z m 39.52649,-0.660469 c 1.09986,-0.238357 2.2518,-0.841224 2.55988,-1.339705 0.80409,-1.301034 -3.98073,0.01604 -6.2537,1.721502 -1.74981,1.312864 -1.75326,1.347134 -0.0718,0.71526 0.97128,-0.365032 2.66585,-0.858701 3.76572,-1.097057 z m -0.4784,-5.191662 c -0.83675,-0.635562 -2.11738,-1.180279 -2.84584,-1.210492 -1.04813,-0.04346 -1.00206,-0.242715 0.22074,-0.954946 0.84987,-0.494999 1.54522,-1.291918 1.54522,-1.770933 0,-0.479029 -1.46744,0.126251 -3.26098,1.344954 -3.3963,2.307838 -5.38833,2.345645 -2.41394,0.04579 1.61356,-1.247628 1.58974,-1.277031 -0.46048,-0.56879 -2.70971,0.936043 -3.06256,1.946725 -1.44741,4.145817 1.236,1.682859 1.34517,1.686546 3.98533,0.135162 2.90246,-1.705601 3.73816,-1.135797 1.16928,0.797235 -1.30106,0.979031 -1.0258,1.007037 1.74213,0.177259 2.95608,-0.886186 3.13404,-1.101938 1.76595,-2.141051 z m -33.0465,-1.272138 c 1.11549,-0.870901 3.19698,-1.840159 4.62551,-2.153923 1.42857,-0.313764 2.80776,-0.910875 3.06487,-1.326928 0.77514,-1.254166 -4.79182,-0.697837 -5.85673,0.585294 -1.22354,1.474277 -4.67968,1.630357 -3.77751,0.170597 0.39172,-0.63382 0.24207,-0.779634 -0.39565,-0.385499 -0.56413,0.348652 -1.64766,1.836649 -2.40783,3.30665 -1.36477,2.639202 -1.35638,2.664686 0.66851,2.030002 1.12786,-0.353504 2.96333,-1.355305 4.07883,-2.226193 z m 27.99321,-4.354494 c 1.16441,-0.500373 1.3148,-0.775399 0.44149,-0.807407 -0.72847,-0.0266 -1.92049,0.33663 -2.64895,0.807407 -1.61407,1.043089 -0.21995,1.043089 2.20746,0 z m -20.75008,-3.531929 c 1.1773,-0.760839 1.1773,-0.855932 0,-0.855932 -0.72846,0 -1.92048,0.385169 -2.64895,0.855932 -1.17731,0.760839 -1.17731,0.855932 0,0.855932 0.72847,0 1.92049,-0.385155 2.64895,-0.855932 z m 11.89557,-0.961333 c -2.56145,-1.001034 -3.06576,-0.935659 -3.06576,0.397396 0,0.83219 0.73953,1.060663 2.40353,0.742567 2.15781,-0.41249 2.22552,-0.529023 0.66223,-1.139963 z"
       id="path974"
       sodipodi:nodetypes="sssssssscsccsscsscssccccssscsssssssssssssssssssssssssssssssssssscsscssssssscsccssssccscsssssssssssssssssssssssscssccssscssssssssssssssssssssssscsssssssscsssccsssssssssssssssssssssssssssssssscssc" />
    <path
       style="fill:#00b981;stroke-width:0.999999;fill-opacity:1"
       d="M 96.057045,77.978208 C 87.935965,74.1885 86.622518,70.780328 85.97431,51.815077 85.430111,35.89299 85.677851,36.646029 81.385695,37.866981 80.158729,38.216002 79.973351,37.366746 80.061214,31.799222 l 0.10222,-6.473586 3.713441,-0.26961 3.71344,-0.269584 0.25998,-5.911282 0.259981,-5.911266 5.739379,-0.487569 c 9.197925,-0.781361 9.587015,-0.461949 9.969855,8.184451 l 0.18443,4.164967 5.29789,-0.191556 5.29788,-0.191544 v 6.622361 6.62236 l -5.96012,-0.311023 -5.96012,-0.311036 -0.005,6.4919 c -0.004,3.570557 0.42801,9.67064 0.95825,13.555757 1.61971,11.867427 1.36755,11.295525 4.7043,10.669547 3.98349,-0.747309 5.10297,0.825596 4.76694,6.697657 l -0.26903,4.707342 -6.62236,0.219439 C 101.2454,79.57154 98.707435,79.214444 96.058275,77.978208 Z m 13.281025,-1.939884 c 0.94124,-1.522954 0.11611,-1.648549 -2.2451,-0.341784 -2.1275,1.177428 -2.13718,1.222047 -0.27151,1.25222 1.06402,0.01727 2.1965,-0.39249 2.51661,-0.910436 z m -7.10016,-2.590143 c 2.09849,-2.318804 0.26204,-2.318804 -3.973405,0 l -3.09045,1.691933 2.73285,0.03702 c 1.64825,0.02234 3.367095,-0.663841 4.331005,-1.728946 z m 6.2404,-0.979318 c 0.32967,-0.53341 -0.44288,-0.286897 -1.71676,0.547788 -1.2739,0.834685 -2.31618,1.684572 -2.31618,1.888617 0,0.638729 3.40298,-1.4171 4.03294,-2.436405 z M 98.043745,70.80891 c 3.988765,-2.431993 3.581885,-2.838011 -1.10371,-1.101417 -2.18539,0.809969 -3.973431,1.784285 -3.973431,2.165177 0,1.193207 2.095541,0.754164 5.077141,-1.06376 z m -2.86969,-4.010462 c 1.92695,-1.579501 2.24345,-2.172512 1.16122,-2.175692 -2.68216,-0.0082 -6.0176,1.690522 -6.0176,3.064194 0,1.938624 1.811746,1.607149 4.85638,-0.888502 z m 5.355285,-1.389945 c 0.4279,-0.692367 0.0802,-0.689681 -1.226135,0.0095 -1.00282,0.536699 -2.09208,1.410672 -2.42055,1.942148 -0.42792,0.692366 -0.0802,0.689666 1.22611,-0.0095 1.00285,-0.536699 2.092095,-1.410672 2.420575,-1.942148 z m -6.679755,-2.556105 c 1.61408,-1.043089 0.21995,-1.043089 -2.207451,0 -1.164417,0.500373 -1.314819,0.775397 -0.441487,0.807406 0.728459,0.02673 1.920482,-0.336629 2.648938,-0.807406 z m 2.63108,-3.186306 c 1.95238,-0.781196 3.549805,-2.000269 3.549805,-2.709073 0,-1.032013 -0.483685,-0.951794 -2.428195,0.402716 -1.33552,0.930285 -3.2229,2.137282 -4.194174,2.682218 -2.584077,1.449795 -1.008466,1.257046 3.072564,-0.375861 z m -3.072564,-1.626327 c 2.573584,-2.093608 2.586134,-2.140092 0.441484,-1.634044 -2.523411,0.595424 -4.414905,1.890522 -4.414905,3.022864 0,1.291343 1.190191,0.875344 3.973421,-1.38882 z m -1.04024,-4.40978 c 1.556304,-1.179689 1.556304,-1.231218 0,-1.581433 -1.073,-0.241481 -0.359041,-0.754712 2.143964,-1.541213 2.06397,-0.648557 3.75268,-1.712317 3.75268,-2.363904 0,-1.6795 -0.51761,-1.520939 -4.918065,1.506655 -2.151463,1.480254 -3.91176,3.268295 -3.91176,3.973425 0,1.586587 0.846154,1.588451 2.933181,0.0055 z m 6.779624,-1.373372 c 0,-0.485636 -0.17522,-0.882978 -0.38937,-0.882978 -0.21417,0 -0.63496,0.397342 -0.93511,0.882978 -0.30013,0.485651 -0.12488,0.882993 0.38938,0.882993 0.5143,0 0.9351,-0.397342 0.9351,-0.882993 z M 93.092514,48.21809 c 1.477941,-0.764267 2.515981,-1.560734 2.306781,-1.769947 -0.62065,-0.620647 -5.964615,1.496388 -5.964615,2.362931 0,1.099922 0.559533,1.009217 3.657834,-0.592984 z m 1.341731,-4.387011 c 2.10663,-1.234578 3.83026,-2.390072 3.83026,-2.56777 0,-0.177698 -1.98672,0.312243 -4.41492,1.088737 -2.4282,0.776507 -4.414905,1.932003 -4.414905,2.567769 0,1.609974 0.627884,1.473235 4.999565,-1.088736 z m 1.11693,-6.306183 c 0.2074,-0.163552 -0.98461,-0.03208 -2.648952,0.292174 -2.877246,0.56055 -4.30716,1.633249 -4.337003,3.253558 -0.01097,0.572449 4.967495,-1.954169 6.985955,-3.545732 z m 0.6224,2.297967 c 1.63565,-1.010889 2.97391,-2.014443 2.97391,-2.230126 0,-0.404608 -3.84139,1.546449 -6.180881,3.139301 -2.502674,1.703942 0.234326,0.928009 3.206971,-0.909175 z m -0.23866,-6.117656 c 3.22384,-1.461747 5.861505,-2.804947 5.861505,-2.98488 0,-0.293997 -12.626173,2.639628 -15.893674,3.692834 -0.922973,0.297493 -0.655315,0.631052 0.882994,1.100335 1.214101,0.370392 2.4505,0.713039 2.747551,0.761442 0.297052,0.04839 3.177796,-1.10797 6.401624,-2.569731 z m 15.574305,-1.400884 c 0,-2.604055 -0.70226,-2.628921 -6.29508,-0.222962 -5.13356,2.208401 -4.54196,3.082057 1.79524,2.651157 4.07811,-0.277287 4.49984,-0.504855 4.49984,-2.428195 z M 86.570278,32.064186 89.445242,29.60316 87.319575,28.465554 c -3.144486,-1.682886 -4.507256,-0.807652 -4.507256,2.894791 0,1.77987 0.198671,3.220096 0.441498,3.200493 0.242804,-0.0196 1.735224,-1.143076 3.316461,-2.496652 z m 11.338857,-1.995897 c 2.177235,-0.548241 3.833275,-1.372727 3.680115,-1.832194 -0.33832,-1.01496 -1.00095,-0.872945 -5.532205,1.185611 -4.111718,1.867973 -3.645247,2.030825 1.85209,0.646583 z m 12.717095,-2.977244 c 0,-0.394931 -5.45946,0.464059 -6.04854,0.951669 -0.17003,0.140755 -0.0481,0.678235 0.27087,1.1944 0.39311,0.636082 1.41742,0.505444 3.17884,-0.405417 1.42936,-0.739154 2.59883,-1.522434 2.59883,-1.740652 z m -15.452175,0.736712 c 1.55195,-1.243664 1.56995,-1.34727 0.14853,-0.854903 -0.88959,0.308157 -1.982265,0.56029 -2.428193,0.56029 -0.445929,0 -0.810761,0.397342 -0.810761,0.882978 0,1.250534 1.043673,1.051835 3.090424,-0.588365 z m 2.60741,-3.085304 c 1.23694,-0.563581 2.249005,-1.368464 2.249005,-1.788631 0,-0.628159 -4.820145,1.332439 -6.107295,2.484165 -0.813069,0.727516 1.74856,0.265731 3.85829,-0.695534 z m -4.373364,-0.741237 c 1.564864,-0.67245 1.489444,-0.765925 -0.662235,-0.820922 -1.335515,-0.03413 -2.428191,0.335272 -2.428191,0.820922 0,1.036358 0.678664,1.036358 3.090426,0 z m 6.569804,-4.945 c 2.259165,-2.120461 0.239055,-2.378146 -2.99143,-0.381605 -1.72529,1.066298 -3.13689,2.112539 -3.13689,2.325002 0,0.770366 4.88878,-0.779949 6.12832,-1.943397 z m -4.24298,-2.525796 2.97107,-1.289901 -2.79747,-0.03455 c -1.53863,-0.01892 -3.425996,-0.275739 -4.194168,-0.570517 -1.001261,-0.384223 -1.396682,-0.0095 -1.396682,1.324459 0,2.191141 1.355629,2.333911 5.41725,0.570531 z"
       id="path974-4"
       sodipodi:nodetypes="ssscccccssccccccccssccssssssssscssssssssssssssssscssscssssssscsscsssssccssssssssssssssssssssssssssssssssssssssssssssssssssssssssssssscssccsssscc" />
    <path
       style="fill:#03a3b6;fill-opacity:1;stroke-width:0.999999"
       d="m 196.64761,79.106578 c -1.79511,-0.701579 -1.98707,-4.259704 -2.6005,-48.201133 l -0.074,-5.2979 7.2413,-0.255751 c 6.81703,-0.240769 7.32313,-0.130913 8.63779,1.875566 l 1.39649,2.131305 7.25081,-2.108015 c 3.98795,-1.159401 7.79551,-1.898993 8.46126,-1.643516 0.94891,0.364128 1.07432,1.749864 0.58044,6.413325 -0.75582,7.13688 -1.53299,8.374623 -4.54032,7.231232 -2.77463,-1.054904 -7.60676,0.841293 -9.48236,3.720991 -1.81396,2.78507 -2.56545,13.40309 -1.70815,24.134995 1.07302,13.432342 1.39492,12.814711 -6.64065,12.741166 -3.72994,-0.03413 -7.56492,-0.368143 -8.52216,-0.742265 z m 11.83876,-5.155787 c -0.0485,-2.873488 -0.16152,-3.048568 -0.85452,-1.324475 -0.49833,1.239773 -1.55619,1.991236 -2.81372,1.998762 -1.10833,0.0068 -2.90918,0.251653 -4.00187,0.544485 -2.94627,0.789571 -2.40838,-1.050615 0.68118,-2.330347 3.39921,-1.407998 4.38649,-2.893981 1.42968,-2.151867 -3.47673,0.872602 -4.72241,-0.446184 -2.23096,-2.361901 2.07465,-1.595264 1.38001,-2.172018 -1.3529,-1.123295 -1.00626,0.386143 -1.39668,1.72556 -1.39668,4.791644 0,4.730933 0.3409,4.988262 6.84309,5.16574 l 3.75269,0.102396 -0.0559,-3.311174 z m -1.00359,-6.578219 c 1.18128,-1.18128 1.51016,-15.334367 0.37265,-16.037386 -0.3778,-0.233489 -1.66917,0.330228 -2.8697,1.252727 l -2.18276,1.677266 1.9867,0.0196 c 2.82835,0.02797 2.45727,1.524667 -0.88298,3.561249 l -2.86969,1.749672 3.31119,0.0041 c 3.78767,0.0041 4.50287,1.807657 1.32448,3.340549 l -1.98672,0.958141 1.98672,0.05976 c 2.37298,0.07142 2.58356,1.61946 0.44147,3.245512 -0.84986,0.645157 -1.128,1.185625 -0.61808,1.201089 0.50993,0.01549 1.40395,-0.448735 1.98672,-1.031506 z m -5.1213,-4.679801 2.20746,-1.261898 -2.81758,-0.03126 c -2.77517,-0.03084 -4.29713,0.948024 -3.19214,2.053005 0.78331,0.783306 1.27457,0.685144 3.80226,-0.759825 z m -1.47703,-5.077145 c 1.35442,-0.990368 1.28107,-1.10372 -0.71422,-1.10372 -1.22301,0 -2.22365,0.496671 -2.22365,1.10372 0,0.607049 0.3214,1.103734 0.71421,1.103734 0.39282,0 1.39346,-0.496685 2.22366,-1.103734 z m 2.36,-5.915366 2.20746,-1.771454 -3.44803,-0.0196 c -3.39177,-0.01932 -3.42195,-0.04852 -1.84985,-1.7856 1.55118,-1.714045 1.54223,-1.765958 -0.30464,-1.765958 -1.6965,0 -1.90281,0.482073 -1.90281,4.44597 0,4.868302 0.28797,4.917048 5.29787,0.896673 z m 4.85641,-4.459663 c 0.69065,-1.117497 -0.47825,-1.117497 -2.20745,0 -1.14142,0.737645 -1.11812,0.85781 0.16864,0.869462 0.82119,0.0068 1.73868,-0.383826 2.03881,-0.869462 z m -2.86969,-1.467765 c -0.60706,-0.244951 -1.60041,-0.244951 -2.20745,0 -0.60706,0.244949 -0.11035,0.445375 1.10373,0.445375 1.2141,0 1.71077,-0.200426 1.10372,-0.445375 z m 1.48458,-2.046768 c 1.65997,-0.476068 4.14868,-1.948727 5.53046,-3.272558 1.74894,-1.675579 3.7814,-2.552855 6.68883,-2.887072 3.77729,-0.434231 4.20355,-0.71585 4.45955,-2.94621 l 0.28305,-2.466084 -3.16145,1.320953 c -1.7388,0.726514 -5.2847,2.730265 -7.87979,4.452782 -5.03949,3.345018 -7.25207,3.966104 -6.42187,1.802654 0.41039,-1.069477 -0.14346,-0.995811 -2.83428,0.376944 -1.83941,0.938387 -3.86312,2.331211 -4.49712,3.095175 -1.00983,1.216743 -0.78276,1.389013 1.83084,1.389013 1.641,0 4.3418,-0.389529 6.00178,-0.865597 z m -6.50974,-3.962732 c 0.94269,-0.713012 1.24979,-1.309012 0.68247,-1.324475 -1.67747,-0.04565 -3.82489,0.983075 -3.82489,1.832359 0,1.157209 1.19669,0.963788 3.14242,-0.507884 z m 6.73986,-6.442784 c 1.00695,-1.239088 0.92861,-1.333865 -0.61097,-0.739346 -0.97128,0.375053 -3.05732,0.898798 -4.63566,1.16383 -2.92041,0.49042 -3.76195,1.562447 -1.76596,2.249634 1.58432,0.545444 5.65892,-1.008313 7.01259,-2.674118 z m 7.29826,-1.86408 c -0.25158,-0.251557 -1.53805,0.666309 -2.85885,2.03968 l -2.40144,2.497078 2.85883,-2.03968 c 1.57236,-1.121829 2.65301,-2.245507 2.40146,-2.497078 z m 10.56685,-2.462026 c 0.54334,-1.415895 -0.16065,-1.470096 -3.58591,-0.27604 -1.61302,0.562305 -2.59149,1.523009 -2.59149,2.544426 0,1.542625 0.17164,1.559171 2.8624,0.276052 1.57432,-0.750749 3.06608,-1.895744 3.315,-2.544438 z m -19.35907,0.727762 c 2.202,-1.144556 2.37074,-1.435907 1.00004,-1.726738 -2.84945,-0.604622 -9.38836,0.742347 -9.38836,1.933936 0,2.625604 3.08499,2.549401 8.38832,-0.207198 z"
       id="path974-3"
       sodipodi:nodetypes="scsscsssssscccsccsssssssccsccsccsccsccsscccsssscscssscscsssscsscssssssssscsssssssssssssssssscsssssssscssc" />
    <path
       style="fill:#e6c977;fill-opacity:1;stroke-width:0.999999"
       d="m 257.19225,104.54252 c -7.38145,-0.43422 -7.50131,-0.47793 -7.2613,-2.64895 0.1342,-1.21409 2.48415,-7.571562 5.22208,-14.127699 2.86611,-6.863074 4.97314,-13.231381 4.96647,-15.010691 -0.015,-4.027092 -5.76689,-18.482535 -13.91174,-34.963199 -3.57687,-7.23762 -6.44271,-13.210917 -6.36852,-13.274014 0.0741,-0.06305 3.64026,-0.291366 7.92461,-0.507281 l 7.78974,-0.392587 2.25705,4.480707 c 1.24137,2.464397 3.01361,5.553431 3.93831,6.864527 0.92467,1.311109 2.98119,5.613884 4.57001,9.561742 1.58882,3.947845 3.24799,7.184364 3.68707,7.19226 0.98064,0.01768 6.42531,-12.368761 9.3827,-21.345278 l 2.18178,-6.62236 h 8.34021 8.34019 l -0.12104,2.785496 c -0.0667,1.532015 -1.79189,6.221714 -3.83405,10.421527 -2.04214,4.199827 -5.21759,11.290524 -7.05654,15.757124 -1.83893,4.4666 -4.24403,10.306462 -5.34467,12.977481 -1.10064,2.671018 -4.52353,10.530629 -7.60643,17.465794 -3.0829,6.935165 -6.04943,14.373308 -6.5923,16.529205 -0.54287,2.155896 -1.43955,4.229836 -1.99265,4.608756 -0.55309,0.3789 -4.38303,0.49026 -8.51098,0.24744 z m 7.52808,-3.60355 c 0.85473,-2.692995 -0.11199,-3.072366 -3.59569,-1.411097 -3.73927,1.783117 -5.89411,1.909717 -3.6588,0.214928 2.17073,-1.645805 0.43048,-2.547057 -2.41485,-1.250643 -3.15064,1.435525 -2.85005,3.233942 0.59605,3.566212 8.19329,0.78999 8.47844,0.7548 9.07329,-1.1194 z m -2.30488,-4.702888 c 2.26926,-0.0477 4.05295,-0.543183 4.26774,-1.185613 0.43456,-1.299705 -1.03992,-1.435689 -3.17534,-0.292845 -0.85563,0.457904 -2.84823,0.497246 -4.5776,0.09033 -3.01744,-0.709914 -3.02423,-0.721826 -0.46098,-0.810888 2.02179,-0.07032 9.31877,-3.943417 9.31877,-4.946328 0,-0.110487 -2.08604,0.171296 -4.63565,0.626158 -4.69819,0.838181 -8.60907,2.736106 -8.60907,4.177936 0,0.43471 -0.264,1.478376 -0.58668,2.319257 -0.50694,1.321048 -0.2369,1.432001 1.98671,0.81633 1.41536,-0.391873 4.32781,-0.749352 6.4721,-0.794397 z m 5.85038,-4.114056 c 0.96188,-1.55632 -0.0521,-1.774525 -1.86673,-0.401702 -1.49389,1.13019 -1.51931,1.290698 -0.20839,1.315359 0.82121,0.01549 1.75502,-0.395711 2.07512,-0.913657 z m 3.08708,-6.940799 c 1.78233,-3.831395 4.31596,-11.543068 3.79239,-11.543068 -0.27195,0 -1.93925,0.787817 -3.70512,1.750686 -1.76585,0.962883 -4.32725,2.154157 -5.69197,2.647292 -1.36473,0.493133 -2.25923,1.255988 -1.98777,1.695237 0.27146,0.439233 -0.7624,1.236454 -2.2975,1.77159 -1.5351,0.535137 -2.58566,1.178388 -2.33458,1.429466 0.25106,0.251077 2.72029,-0.409804 5.48712,-1.468615 3.41748,-1.307806 4.66194,-2.158982 3.88085,-2.654405 -0.74004,-0.469406 -0.10858,-0.73411 1.77202,-0.742828 3.93244,-0.01823 2.97109,1.126667 -2.9713,3.538508 -3.4261,1.390547 -4.57861,2.229948 -3.76771,2.744084 0.89711,0.568775 0.82294,0.743841 -0.31947,0.754232 -0.81826,0.0068 -2.60631,0.440536 -3.97342,0.962458 -2.23695,0.853986 -2.3368,1.058332 -0.9979,2.042052 1.11851,0.821785 2.79951,0.876179 6.77266,0.219082 4.38321,-0.724911 5.46519,-1.261623 6.3417,-3.145771 z m -7.0968,0.886021 c 1.69975,-0.967612 2.49443,-1.807314 1.76598,-1.865999 -0.72847,-0.05867 -0.20698,-0.51408 1.1589,-1.011971 2.67461,-0.97496 3.80477,-0.55759 2.81715,1.040375 -0.62929,1.018195 -2.70243,1.959214 -6.625,3.007155 -1.6492,0.440578 -1.42589,0.144812 0.88297,-1.16956 z m 0.71742,-6.851394 c 0.63741,-0.255067 1.39899,-0.223702 1.6924,0.06963 0.2934,0.293408 -0.22812,0.5021 -1.15892,0.463759 -1.02864,-0.04236 -1.23785,-0.251585 -0.53348,-0.53345 z m 1.72709,-2.529402 c 1.79892,-0.751641 4.07089,-2.102654 5.04878,-3.002289 0.97792,-0.89962 2.51113,-1.774662 3.40714,-1.944559 1.03874,-0.196959 2.39842,-2.202492 3.75186,-5.53402 1.16751,-2.873831 1.98508,-5.362779 1.81685,-5.531006 -0.16822,-0.168225 -1.26054,0.439756 -2.42738,1.351097 -1.16683,0.911313 -3.86621,2.54289 -5.99861,3.625719 -2.13241,1.082814 -4.3178,2.343011 -4.85641,2.800422 -0.5386,0.457411 -1.77397,1.441199 -2.74524,2.186192 -1.68563,1.292878 -1.64547,1.330644 0.88298,0.830176 l 2.64895,-0.524335 -2.20745,1.769014 c -1.21412,0.972959 -1.86545,1.777842 -1.44741,1.788644 0.41804,0.01097 -0.17798,0.801101 -1.32448,1.756225 -2.51974,2.09916 -0.99955,2.288044 3.45042,0.42872 z m 3.73637,-7.904683 c 0,-0.849202 0.85267,-1.324473 2.37621,-1.324473 2.27893,0 2.30606,0.05305 0.66224,1.296386 -2.20577,1.668356 -3.03845,1.676045 -3.03845,0.0281 z m 2.23863,-5.606164 c 1.27704,-1.004515 3.08382,-2.068234 4.01505,-2.363794 0.93123,-0.29556 1.72452,-1.205956 1.76285,-2.023094 0.0431,-0.918784 0.23967,-1.064542 0.51507,-0.38199 0.24496,0.60705 1.10762,1.097648 1.91701,1.090204 1.27282,-0.01097 1.29271,-0.129129 0.14716,-0.869461 -1.16416,-0.752341 -1.15724,-0.857578 0.0571,-0.869463 1.13524,-0.01097 4.35771,-4.992292 4.35771,-6.735987 0,-0.264936 -1.29136,-0.2417 -2.86969,0.05168 l -2.8697,0.5333 2.64895,-1.309849 2.64895,-1.309847 -2.4282,0.500933 c -3.64487,0.75193 -2.92206,-0.372448 0.90124,-1.401966 2.18138,-0.587377 3.85598,-1.787876 4.85641,-3.481455 2.10239,-3.55907 1.96488,-4.769466 -0.45976,-4.046585 -1.9544,0.582676 -1.95799,0.569749 -0.22075,-0.795397 1.68183,-1.321596 1.58716,-1.389054 -1.98672,-1.415797 -4.46177,-0.03331 -4.71724,-0.797112 -0.97853,-2.925333 3.07843,-1.752373 2.86131,-2.898423 -0.3943,-2.081312 -1.8521,0.464855 -6.79475,6.208363 -6.79475,7.895718 0,0.338123 0.89403,0.620853 1.98672,0.628296 1.63131,0.01097 1.74977,0.175573 0.66224,0.919415 -0.94423,0.645801 -0.12035,0.739894 2.8697,0.327706 2.30677,-0.318 4.1908,-0.235053 4.18673,0.184318 -0.008,0.870683 -8.94705,5.788553 -9.50571,5.229908 -0.20146,-0.201482 1.16121,-1.172165 3.0282,-2.157091 2.6687,-1.407889 2.98516,-1.79913 1.48,-1.82981 -1.05297,-0.02139 -2.51936,-0.271131 -3.25866,-0.554834 -0.96364,-0.369789 -2.01576,0.817468 -3.71672,4.194166 -1.30491,2.590484 -2.71924,4.84242 -3.14296,5.004286 -0.42372,0.161892 -0.7704,1.217387 -0.7704,2.345535 0,1.616498 0.37427,1.953346 1.76596,1.589411 1.95955,-0.512436 2.3825,0.836672 0.66224,2.112387 -0.60705,0.450187 -2.29575,1.304406 -3.75267,1.898281 l -2.64895,1.079772 2.20745,-1.859885 2.20746,-1.859884 -2.64894,0.538042 c -1.8842,0.382702 -2.27395,0.289226 -1.35005,-0.323771 2.1079,-1.398553 0.24301,-2.223328 -2.35284,-1.040567 -1.72265,0.784883 -2.06854,1.283214 -1.24431,1.792606 0.80362,0.496671 0.46324,0.875781 -1.14977,1.280636 -3.19414,0.801676 -2.86222,2.921932 0.57833,3.694204 l 2.8697,0.644142 -2.37861,0.807544 c -1.3779,0.467802 -2.19667,1.281596 -1.94619,1.93436 0.48104,1.253548 6.30508,-1.310902 10.53683,-4.639609 z m 5.91522,-7.533207 c 2.07631,-1.576664 1.05599,-2.336639 -2.29798,-1.711633 -1.99156,0.371106 -2.51308,0.242661 -1.86368,-0.459043 0.98997,-1.06971 2.99662,-1.393577 7.04507,-1.137126 l 2.64895,0.167801 -2.47742,2.179557 c -1.36261,1.198758 -2.95197,2.166919 -3.53194,2.15147 -0.59029,-0.01576 -0.38028,-0.540043 0.477,-1.191026 z m 4.92532,-14.394747 c 0.6374,-0.255066 1.39897,-0.223702 1.69237,0.06964 0.29341,0.293408 -0.22811,0.502099 -1.15891,0.463758 -1.02863,-0.04236 -1.23785,-0.251598 -0.53346,-0.533463 z M 262.93164,57.74449 c 2.83212,-1.875635 2.0017,-2.315445 -1.70849,-0.904842 -1.24572,0.473627 -2.26492,1.268313 -2.26492,1.76597 0,1.32516 0.99921,1.108614 3.97341,-0.861128 z m 3.41084,-3.50018 c 0.78473,-0.783663 0.0499,-2.684207 -1.03476,-2.676173 -0.33557,0.0027 -2.19948,1.02132 -4.14204,2.264067 l -3.53193,2.259544 3.97343,-0.543293 c 2.18536,-0.298821 4.31626,-0.885692 4.7353,-1.304145 z m -4.82747,-3.639317 c -0.94315,-0.597206 -0.80067,-0.783472 0.60723,-0.793821 2.29935,-0.01686 3.03122,-0.714658 2.42005,-2.307303 -0.62638,-1.632332 -1.05281,-1.572646 -4.70109,0.658152 -2.82359,1.726533 -2.93795,1.949618 -1.32447,2.583589 1.67236,0.657097 1.66066,0.697179 -0.22074,0.755946 -1.09268,0.03413 -1.98671,0.393175 -1.98671,0.797879 0,1.622913 1.23742,1.775196 3.77246,0.464265 2.06248,-1.066544 2.38675,-1.554962 1.43327,-2.158707 z M 260.2827,46.8 c 2.09243,-1.612714 0.90039,-1.793169 -2.95868,-0.447885 -2.72961,0.951547 -3.33186,1.717075 -2.22313,2.825812 0.60091,0.600907 2.37053,-0.211173 5.18181,-2.377927 z m 0.66223,-2.288181 c 0.84986,-0.0068 1.54522,-0.608063 1.54522,-1.336523 0,-1.801394 -1.19212,-1.664889 -4.61431,0.52835 -2.53114,1.622173 -2.61623,1.788562 -0.68359,1.336524 1.21411,-0.283963 2.90281,-0.521715 3.75268,-0.528351 z m -4.22412,-1.500061 c 3.56924,-1.70205 4.02506,-2.901412 1.13369,-2.982878 l -1.98671,-0.05593 1.98671,-0.79855 c 3.34479,-1.344448 2.23288,-2.16707 -3.3136,-2.451512 -4.06397,-0.208405 -5.29548,0.01398 -5.29548,0.956563 0,2.092621 1.00888,2.385686 3.60003,1.045748 2.87171,-1.48501 4.72582,-1.712248 2.25416,-0.276259 -1.33319,0.774561 -1.41821,1.106846 -0.44149,1.725587 0.90895,0.575808 0.75237,0.769668 -0.62987,0.779825 -2.29936,0.01686 -3.03121,0.714658 -2.42006,2.307303 0.61158,1.593771 1.31898,1.559198 5.11262,-0.24987 z m 35.89887,-7.892907 c 0.35789,-0.910998 0.67863,-1.945835 0.71277,-2.299655 0.072,-0.746981 -3.62618,0.778852 -7.44329,3.070967 l -2.64894,1.590644 4.36438,-0.352804 c 3.2409,-0.261989 4.53187,-0.779195 5.01508,-2.009152 z m -36.66559,-0.36469 c 1.82829,-0.695123 2.16172,-1.162789 1.38374,-1.940791 -0.77802,-0.777988 -1.92971,-0.570502 -4.77946,0.861019 -3.4349,1.725491 -3.55266,1.890673 -1.38372,1.94079 1.30391,0.03016 3.45465,-0.357328 4.77944,-0.861018 z m -2.77989,-2.738778 c 1.8442,-1.450645 2.12775,-2.061779 1.2228,-2.63542 -0.97293,-0.616741 -0.96706,-0.749175 0.0336,-0.760347 0.98499,-0.01097 1.00297,-0.265196 0.0961,-1.357881 -0.9991,-1.20383 -1.3302,-1.20383 -3.16748,0 -2.36795,1.551535 -3.33732,1.726546 -2.55538,0.461387 0.31072,-0.502772 -0.44969,-0.882993 -1.76597,-0.882993 -1.31626,0 -2.07669,0.380221 -1.76595,0.882993 0.30013,0.485636 1.14171,0.882978 1.87017,0.882978 0.72847,0 1.12334,0.325444 0.87751,0.723211 -0.24584,0.397768 0.82341,0.602182 2.37608,0.454244 l 2.82307,-0.268965 -2.86969,0.89548 c -3.07096,0.958291 -3.95838,3.493915 -1.22277,3.493915 0.9058,0 2.72733,-0.849873 4.04785,-1.888602 z m 33.24544,-0.8381 c 5.90314,-1.889563 5.79613,-1.817841 3.88442,-2.603904 -1.33694,-0.549736 -0.85432,-0.74121 1.98672,-0.788201 2.06397,-0.03413 3.75267,-0.459399 3.75267,-0.945049 0,-1.381734 -8.6249,-1.034289 -11.5226,0.46417 -1.55026,0.801675 -2.6051,2.053032 -2.6051,3.090432 0,2.013703 0.42627,2.087767 4.50389,0.782552 z"
       id="path974-74"
       sodipodi:nodetypes="ssssssscsssssccccssssssssssssssssssssssssssssssssssssssssscssssssssssssssssssssssssscsssssssssscsssssscccsssssssssssscsssssssssscccsssssscsssssssscssssssssssssssscsssssssssssscsscssscsscssssssssssssscsssssssssssssssssscssssscsssssc" />
  </g>
</svg>
