<?xml version="1.0" encoding="UTF-8" standalone="no"?>
<svg
   xmlns:dc="http://purl.org/dc/elements/1.1/"
   xmlns:cc="http://creativecommons.org/ns#"
   xmlns:rdf="http://www.w3.org/1999/02/22-rdf-syntax-ns#"
   xmlns:svg="http://www.w3.org/2000/svg"
   xmlns="http://www.w3.org/2000/svg"
   xmlns:sodipodi="http://sodipodi.sourceforge.net/DTD/sodipodi-0.dtd"
   xmlns:inkscape="http://www.inkscape.org/namespaces/inkscape"
   width="390mm"
   height="153mm"
   viewBox="0 0 390 153"
   version="1.1"
   id="svg8"
   inkscape:version="1.0.2 (e86c870879, 2021-01-15, custom)"
   sodipodi:docname="Story кнопка -2.svg">
  <defs
     id="defs2">
    <rect
       x="175.4903"
       y="33.621971"
       width="238.634"
       height="82.004807"
       id="rect892" />
    <rect
       x="-76.264473"
       y="59.043465"
       width="467.4274"
       height="173.03015"
       id="rect841" />
    <rect
       x="-22.961348"
       y="98.405769"
       width="351.80063"
       height="98.405769"
       id="rect835" />
    <rect
       x="-76.264473"
       y="59.043465"
       width="467.4274"
       height="173.03015"
       id="rect841-8" />
    <rect
       x="-76.264473"
       y="59.043465"
       width="467.4274"
       height="173.03015"
       id="rect854" />
    <rect
       x="175.4903"
       y="33.621971"
       width="238.634"
       height="82.004807"
       id="rect892-2" />
    <rect
       x="175.4903"
       y="33.621971"
       width="238.634"
       height="82.004807"
       id="rect905" />
  </defs>
  <sodipodi:namedview
     id="base"
     pagecolor="#ffffff"
     bordercolor="#666666"
     borderopacity="1.0"
     inkscape:pageopacity="0.0"
     inkscape:pageshadow="2"
     inkscape:zoom="0.32264368"
     inkscape:cx="695.84534"
     inkscape:cy="211.97096"
     inkscape:document-units="mm"
     inkscape:current-layer="layer1"
     inkscape:document-rotation="0"
     showgrid="false"
     inkscape:window-width="1609"
     inkscape:window-height="972"
     inkscape:window-x="66"
     inkscape:window-y="19"
     inkscape:window-maximized="0" />
  <metadata
     id="metadata5">
    <rdf:RDF>
      <cc:Work
         rdf:about="">
        <dc:format>image/svg+xml</dc:format>
        <dc:type
           rdf:resource="http://purl.org/dc/dcmitype/StillImage" />
        <dc:title></dc:title>
      </cc:Work>
    </rdf:RDF>
  </metadata>
  <g
     inkscape:groupmode="layer"
     id="layer4"
     inkscape:label="Слой 4">
    <path
       id="rect1047"
       style="display:inline;opacity:0.777518;fill:none;fill-opacity:1;stroke:#deddc6;stroke-width:7;stroke-linecap:round;stroke-linejoin:round;stroke-miterlimit:4;stroke-dasharray:7, 21;stroke-dashoffset:70;stroke-opacity:1"
       d="m 42.875716,21.321115 c 0,0 103.068924,1.103998 154.605344,1.101445 50.82962,-0.0025 152.48488,-1.101445 152.48488,-1.101445 16.91715,0 30.53637,13.619222 30.53637,30.536372 v 56.808793 c 0,16.91715 -28.38009,32.58649 -45.29724,32.58649 0,0 -97.44258,-0.68085 -146.16468,-0.69142 -53.64234,-0.0116 -160.92554,0.69142 -160.92554,0.69142 -16.917149,0 -15.775505,-15.66934 -15.775505,-32.58649 V 51.857487 c 0,-16.91715 13.619222,-30.536372 30.536371,-30.536372 z"
       sodipodi:nodetypes="sassssassss" />
  </g>
  <g
     inkscape:groupmode="layer"
     id="layer3"
     inkscape:label="Слой 3" />
  <g
     inkscape:label="Слой 1"
     inkscape:groupmode="layer"
     id="layer1">
    <text
       xml:space="preserve"
       id="text833"
       style="font-style:normal;font-weight:normal;font-size:10.5833px;line-height:1.25;font-family:sans-serif;white-space:pre;shape-inside:url(#rect835);fill:#000000;fill-opacity:1;stroke:none;" />
    <path
       style="fill:#ff97ff;fill-opacity:1;stroke-width:1"
       d="m 80.620996,117.71328 c -0.360858,-0.36034 -3.615932,-0.59108 -7.233485,-0.51275 -3.617551,0.0784 -8.291919,-0.37054 -10.387479,-0.99747 -4.184138,-1.25182 -3.7743,-0.0691 -5.541279,-15.99071 -0.749449,-6.752958 -0.334636,-6.923075 6.92197,-2.838768 10.077541,5.672038 30.417631,5.644968 33.466926,-0.04448 C 99.168181,94.865206 96.765266,89.254321 93.464705,87.094808 92.249494,86.299704 86.182533,84.111316 79.982564,82.231729 64.116007,77.421574 56.061963,71.018811 56.061963,63.215444 c 0,-3.954675 3.326572,-11.989267 6.272477,-15.149798 5.141167,-5.515696 18.766076,-9.250933 30.903739,-8.472168 14.508221,0.930842 14.926101,1.241739 16.432061,12.224846 0.62271,4.541387 0.76759,8.618767 0.32196,9.060853 -0.44562,0.442086 -3.95386,-0.755876 -7.7961,-2.662169 -5.895642,-2.92504 -8.38449,-3.556422 -15.947846,-4.045734 -9.685743,-0.62661 -13.30704,0.349701 -13.30704,3.587655 0,3.750431 11.627046,11.818919 20.957834,14.543473 2.944669,0.859837 8.094812,2.898228 11.444742,4.529749 6.39021,3.112246 8.31576,5.772044 9.85313,13.610353 1.61721,8.245548 1.19293,11.331426 -2.31065,16.806766 -4.34157,6.78486 -8.85781,8.90707 -20.226305,9.50437 -4.569213,0.24006 -8.999579,0.70162 -9.845251,1.02567 -0.845681,0.32404 -1.832848,0.29435 -2.193718,-0.066 z m -16.169049,-2.3814 c 0.573395,-2.7e-4 -2.061197,9.6e-4 0,0 z"
       id="path974-7"
       sodipodi:nodetypes="ssssssssssssssssssssccssss" />
  </g>
  <g
     inkscape:groupmode="layer"
     id="layer2"
     inkscape:label="Слой 2"
     style="display:inline">
    <path
       style="fill:#daee32;fill-opacity:1;stroke-width:1"
       d="m 197.97731,110.31308 c -17.08248,-6.22118 -19.72294,-8.05821 -23.42605,-16.298012 -2.27725,-5.067167 -2.39639,-5.868038 -1.54931,-10.416367 1.07828,-5.78997 6.30383,-15.173197 10.71617,-19.242496 3.92644,-3.621166 11.26605,-6.399747 16.90489,-6.399747 5.21738,0 15.22749,3.454106 18.2632,6.301941 3.32494,3.119133 8.259,13.849924 9.09328,19.776372 1.31694,9.35522 -0.93573,17.028349 -6.07127,20.679939 -5.33776,3.79536 -12.26475,6.22387 -17.54531,6.1511 -2.78257,-0.0384 -5.65611,-0.28707 -6.3856,-0.55273 z m 17.81906,-4.82312 c 2.26226,-0.96856 5.02678,-2.73211 6.1434,-3.91899 l 2.03019,-2.157958 -6.1434,2.532958 c -3.37886,1.39313 -7.73503,3.40632 -9.68038,4.47377 l -3.537,1.94082 3.537,-0.55478 c 1.94535,-0.30512 5.38792,-1.34724 7.65019,-2.31582 z m -10.74505,0.58915 c 1.93789,-1.1062 1.99242,-1.25746 0.44213,-1.22601 -0.97268,0.0197 -3.16121,0.57145 -4.86339,1.22601 l -3.09489,1.19013 2.65276,0.0359 c 1.45904,0.0197 3.64753,-0.53197 4.86339,-1.22602 z m -11.49526,-2.73558 2.21064,-1.34852 -2.21064,0.48477 c -1.21582,0.26662 -3.20541,0.51813 -4.42123,0.55889 -2.02921,0.068 -2.06549,0.1364 -0.44213,0.83298 2.36131,1.01324 2.3313,1.0165 4.86336,-0.52812 z m 20.37592,-4.389329 c 7.27338,-4.782914 6.8061,-5.860387 -0.6637,-1.530347 -2.04625,1.186135 -4.43371,2.055478 -5.3055,1.931872 -2.48527,-0.352381 -7.1042,0.969574 -8.26413,2.365224 -1.24858,1.50228 -1.21923,1.50712 2.56438,0.42354 2.4404,-0.69889 2.86264,-0.62292 2.45361,0.4415 -0.90186,2.34682 1.6576,1.33814 9.21534,-3.631789 z m -23.02869,0.949055 c 0,-0.215108 -0.49737,-0.238097 -1.10528,-0.051 -0.60792,0.187004 -2.27829,0.599184 -3.71195,0.915934 -1.92296,0.42486 -2.28457,0.77469 -1.37865,1.33376 1.1024,0.68032 6.19588,-1.12711 6.19588,-2.198658 z m 25.75878,0.374714 c 0.97227,-0.519596 2.63723,-1.107167 3.69994,-1.305715 1.97421,-0.368859 5.42986,-3.822524 4.62694,-4.624298 -0.24437,-0.244019 -2.94021,1.199364 -5.99078,3.207537 -5.13172,3.378166 -6.46035,4.926566 -2.3361,2.722476 z m -30.18001,-2.754772 c 0.96723,-0.6103 0.72778,-0.704188 -0.88422,-0.346748 -1.21589,0.269613 -2.93046,0.495631 -3.81028,0.502252 -0.88102,0.0068 -1.34412,0.424856 -1.03089,0.930958 0.58113,0.938913 3.34749,0.413959 5.72539,-1.086462 z m 22.17586,-3.456532 c 2.24654,-2.97402 2.83434,-7.249433 1.72824,-12.569887 -1.47747,-7.106855 -3.58492,-9.93162 -7.92678,-10.624923 -6.46429,-1.032208 -10.33048,2.990031 -11.24166,11.695501 -0.67929,6.489495 0.64332,10.218819 4.47849,12.628035 3.8287,2.405133 10.74741,1.802634 12.96171,-1.128726 z m -19.96522,0.933907 c 1.23253,-0.55762 0.69663,-0.637113 -1.76851,-0.262291 -1.94534,0.295793 -3.70278,0.683762 -3.90543,0.862158 -0.75974,0.668834 3.97643,0.168104 5.67394,-0.599867 z m 26.08538,-2.298839 c 0,-0.638745 -3.40789,1.41709 -4.03878,2.4364 -0.33013,0.533412 0.44356,0.286912 1.71928,-0.547777 1.27571,-0.834701 2.3195,-1.684578 2.3195,-1.888623 z m -30.50666,1.037321 2.65277,-1.223093 -3.09487,0.501388 c -1.70218,0.27574 -3.69173,0.831973 -4.42124,1.236062 -2.34187,1.2972 1.90952,0.847573 4.86334,-0.514357 z m 36.22905,-0.856113 c 2.68873,-1.187385 4.88859,-2.539869 4.88859,-3.005521 0,-0.653055 -8.68105,3.354653 -10.53731,4.864671 -1.01909,0.828985 1.26082,0.07855 5.64872,-1.85915 z m -2.18541,-4.726646 c 0.24316,-0.218766 -0.41969,-0.133516 -1.47304,0.189352 -3.13113,0.959869 -3.17755,-0.941022 -0.0827,-3.395352 l 2.8823,-2.285871 -2.85426,0.970356 c -2.17738,0.740239 -3.05852,1.709116 -3.71565,4.085667 -0.47377,1.71342 -1.57686,3.911888 -2.45124,4.885494 -0.95702,1.065546 0.17006,0.611423 2.83139,-1.140846 2.4317,-1.601082 4.62022,-3.090031 4.86338,-3.3088 z m -37.90319,2.946645 c 1.63642,-0.70945 2.37846,-1.300051 1.64896,-1.312415 -2.26792,-0.03852 -5.3055,1.004859 -5.3055,1.82233 0,1.025573 0.16917,1.001982 3.65654,-0.509915 z m 7.35238,-0.569079 c 1.18476,-1.114155 -0.23525,-0.899816 -3.93493,0.593959 l -3.09488,1.249565 3.09488,-0.526789 c 1.70217,-0.289722 3.47289,-0.882269 3.93493,-1.316735 z m -3.18263,-2.64231 c 1.53158,-0.53315 2.78471,-1.307563 2.78471,-1.720918 0,-0.413342 -1.29321,-0.227418 -2.87384,0.413163 -1.58057,0.640607 -3.47064,1.383657 -4.20017,1.651213 -1.12266,0.411764 -1.10895,0.497193 0.0889,0.556193 0.7785,0.03839 2.66858,-0.366501 4.20016,-0.899651 z m -1.93461,-2.238085 c 4.0231,-1.67856 3.70489,-2.003141 -1.08738,-1.109125 -4.55573,0.849877 -5.68853,1.380053 -5.68853,2.662215 0,0.937937 1.78742,0.528256 6.77591,-1.55309 z m 42.33627,1.382739 c 0.9517,-1.537669 -0.13219,-1.863319 -1.34499,-0.404102 -0.69744,0.839184 -0.76454,1.345823 -0.1782,1.345823 0.51719,0 1.20261,-0.423774 1.52319,-0.941721 z m -0.92449,-4.349904 c 1.00561,-1.624769 -0.84419,-0.911083 -3.53312,1.363136 l -2.65275,2.243637 2.81776,-1.358762 c 1.54976,-0.747313 3.0654,-1.758918 3.36811,-2.248011 z m -41.55583,-1.367893 2.65274,-1.143284 -3.58122,-0.0721 c -3.37078,-0.06786 -5.70338,1.082708 -5.70338,2.813031 0,0.817758 2.32938,0.256575 6.63186,-1.59771 z m 39.57018,-1.049001 c 0.85105,-0.244374 1.54741,-0.795304 1.54741,-1.224299 0,-1.339572 -2.11609,-0.818938 -4.42124,1.08778 -1.79083,1.481287 -1.87479,1.710062 -0.44212,1.20467 0.97267,-0.343114 2.46484,-0.823803 3.31595,-1.068151 z m -4.52955,-0.824393 c 1.11008,-1.343765 1.02507,-1.371209 -0.99703,-0.321894 -2.9644,1.538312 -3.18755,1.790925 -1.58202,1.790925 0.75101,0 1.91157,-0.66106 2.57905,-1.469031 z m -29.09455,-2.74205 c 0.83869,-0.725846 1.75288,-2.037055 2.03153,-2.913786 0.27867,-0.876731 2.37786,-2.837293 4.6649,-4.356812 3.57789,-2.377181 4.67801,-2.686149 7.88259,-2.213849 4.23784,0.624555 7.3792,-0.632438 7.22617,-2.891484 -0.0921,-1.36249 -0.14147,-1.36774 -0.49086,-0.0525 -0.49909,1.878919 -4.74061,3.011291 -5.66785,1.513158 -0.51852,-0.837786 -2.21366,-0.485007 -7.09129,1.475748 -3.52539,1.417188 -7.03667,3.237408 -7.80283,4.044926 -0.76612,0.807505 -2.18878,1.663659 -3.16144,1.902564 -1.3614,0.334355 -1.21516,0.45792 0.63542,0.53677 1.75176,0.07457 2.26586,0.461759 1.89495,1.426906 -0.27994,0.728463 -0.96377,1.342396 -1.51967,1.3643 -0.55591,0.02194 -2.20444,0.590218 -3.66347,1.262918 l -2.65275,1.223094 3.09488,-0.501142 c 1.70217,-0.275616 3.78106,-1.095006 4.61972,-1.820865 z m -8.15672,0.679156 c 0.72953,-0.470778 0.92849,-0.85595 0.44212,-0.85595 -0.48632,0 -1.48114,0.385172 -2.21062,0.85595 -0.72949,0.470764 -0.92846,0.855935 -0.44215,0.855935 0.48638,0 1.48114,-0.385171 2.21065,-0.855935 z m 39.58326,-0.660471 c 1.10144,-0.238358 2.25504,-0.841227 2.56356,-1.33971 0.80524,-1.301038 -3.98645,0.01604 -6.26269,1.721508 -1.75233,1.312869 -1.75578,1.347139 -0.0718,0.715263 0.97268,-0.365034 2.66968,-0.858704 3.77114,-1.097061 z m -0.47909,-5.191679 c -0.83796,-0.635565 -2.12043,-1.180283 -2.84993,-1.210497 -1.04962,-0.04346 -1.0035,-0.242715 0.22105,-0.954949 0.8511,-0.495 1.54745,-1.291922 1.54745,-1.770939 0,-0.47903 -1.46955,0.126252 -3.26566,1.344959 -3.40119,2.307846 -5.39608,2.345653 -2.4174,0.04579 1.61587,-1.247632 1.59201,-1.277035 -0.46116,-0.568792 -2.71361,0.936046 -3.06695,1.946732 -1.44949,4.145831 1.23779,1.682865 1.34712,1.686552 3.99106,0.135162 2.90663,-1.705606 3.74353,-1.1358 1.17096,0.797238 -1.30292,0.979034 -1.02726,1.007041 1.74462,0.17726 2.96034,-0.886189 3.13856,-1.101942 1.7685,-2.141058 z m -33.09398,-1.272143 c 1.11709,-0.870904 3.20159,-1.840165 4.63217,-2.15393 1.43063,-0.313765 2.81179,-0.910878 3.06928,-1.326932 0.77625,-1.254171 -4.7987,-0.69784 -5.86515,0.585296 -1.22529,1.474282 -4.68638,1.630362 -3.78293,0.170597 0.39228,-0.633822 0.24242,-0.779636 -0.39622,-0.3855 -0.56493,0.348653 -1.65,1.836655 -2.41128,3.306661 -1.36674,2.639211 -1.35832,2.664695 0.66947,2.030009 1.12947,-0.353505 2.96758,-1.35531 4.08466,-2.226201 z m 28.03343,-4.354508 c 1.16609,-0.500375 1.31669,-0.775402 0.44214,-0.80741 -0.72952,-0.0266 -1.92325,0.336631 -2.65276,0.80741 -1.61639,1.043092 -0.22027,1.043092 2.21062,0 z m -20.77988,-3.531941 c 1.179,-0.760842 1.179,-0.855935 0,-0.855935 -0.72951,0 -1.92324,0.38517 -2.65277,0.855935 -1.17896,0.760841 -1.17896,0.855935 0,0.855935 0.72953,0 1.92326,-0.385157 2.65277,-0.855935 z m 11.91266,-0.961336 c -2.56512,-1.001038 -3.07016,-0.935663 -3.07016,0.397397 0,0.832193 0.74058,1.060666 2.40697,0.742569 2.16092,-0.412491 2.22872,-0.529024 0.66319,-1.139966 z"
       id="path974"
       sodipodi:nodetypes="sssssssscsccsscsscssccccssscsssssssssssssssssssssssssssssssssssscsscssssssscsccssssccscsssssssssssssssssssssssscssccssscssssssssssssssssssssssscsssssssscsssccsssssssssssssssssssssssssssssssscssc" />
    <path
       style="fill:#00b981;fill-opacity:1;stroke-width:1"
       d="m 141.76255,108.64003 c -8.13276,-3.78972 -9.44809,-7.19791 -10.09723,-26.163222 -0.54497,-15.92214 -0.29687,-15.169099 -4.5952,-13.948143 -1.22873,0.349023 -1.41436,-0.500236 -1.3264,-6.067779 l 0.10239,-6.473608 3.71874,-0.269611 3.71879,-0.269584 0.26037,-5.911301 0.26032,-5.911286 5.74764,-0.487571 c 9.21114,-0.781363 9.60078,-0.46195 9.98419,8.184479 l 0.18468,4.16498 5.30552,-0.191556 5.30544,-0.191545 v 6.622383 6.622382 l -5.96866,-0.311024 -5.96865,-0.311037 -0.005,6.491922 c -0.004,3.570569 0.42861,9.670672 0.95962,13.555802 1.62201,11.867467 1.36949,11.295563 4.71103,10.669583 3.98921,-0.747312 5.11032,0.825599 4.7738,6.697676 l -0.2694,4.70737 -6.63187,0.21944 c -4.97433,0.16459 -7.51594,-0.19251 -10.16887,-1.42875 z"
       id="path974-4"
       sodipodi:nodetypes="ssscccccssccccccccssccssss" />
    <path
       style="fill:#03a3b6;fill-opacity:1;stroke-width:1"
       d="m 242.49753,109.76841 c -1.79767,-0.70159 -1.98992,-4.25973 -2.60423,-48.201304 l -0.074,-5.297918 7.25171,-0.255752 c 6.82681,-0.240769 7.33365,-0.130913 8.65017,1.875573 l 1.39851,2.131312 7.26123,-2.108022 c 3.99365,-1.159405 7.8067,-1.899 8.4734,-1.643522 0.95028,0.36413 1.07586,1.74987 0.58128,6.413347 -0.75691,7.136904 -1.5352,8.374651 -4.54685,7.231256 -2.7786,-1.054907 -7.61768,0.841296 -9.49596,3.721004 -1.81658,2.785079 -2.56915,13.403135 -1.71062,24.135076 1.07457,13.43239 1.39693,12.81476 -6.65018,12.74121 -3.73529,-0.0341 -7.57578,-0.36814 -8.53441,-0.74226 z m 9.81843,-51.111293 c -2.85355,-0.604624 1.37266,0.290832 0,0 z"
       id="path974-3"
       sodipodi:nodetypes="scsscsssssscccsss" />
    <path
       style="fill:#e6c977;fill-opacity:1;stroke-width:1"
       d="m 300.88072,124.26001 c -6.08644,-0.38451 -6.18526,-0.42322 -5.98735,-2.34573 0.11066,-1.07513 2.04831,-6.70491 4.3059,-12.51062 2.36326,-6.0775 4.10064,-11.716872 4.09513,-13.292517 -0.0124,-3.56614 -4.75512,-16.366974 -11.47102,-30.961217 -2.94933,-6.409183 -5.31237,-11.698759 -5.25122,-11.754634 0.061,-0.05583 3.00162,-0.258015 6.53431,-0.449217 l 6.42308,-0.34765 1.86107,3.967832 c 1.02358,2.182316 2.48489,4.917771 3.24736,6.078796 0.76247,1.161036 2.45818,4.971303 3.76825,8.467279 1.31008,3.495964 2.67816,6.362023 3.04021,6.369015 0.80859,0.01566 5.29802,-10.953 7.73656,-18.902041 l 1.799,-5.864346 h 6.877 6.87696 l -0.0997,2.46666 c -0.0549,1.356656 -1.47751,5.50956 -3.16138,9.228651 -1.68385,3.719103 -4.30222,9.99818 -5.81851,13.953521 -1.51634,3.955342 -3.49947,9.126757 -4.40701,11.492044 -0.90754,2.365286 -3.72989,9.325265 -6.27194,15.466614 -2.54203,6.14135 -4.9881,12.7281 -5.43573,14.63722 -0.44764,1.90914 -1.18698,3.74568 -1.64306,4.08123 -0.45605,0.33553 -3.61404,0.43415 -7.01779,0.21911 z m 6.69169,-46.910784 c -0.2767,0.0024 0.89436,-0.0071 0,0 z"
       id="path974-74"
       sodipodi:nodetypes="ssssssscsssssccccsssssssss" />
  </g>
</svg>
