<?xml version="1.0" encoding="UTF-8" standalone="no"?>
<svg
   xmlns:dc="http://purl.org/dc/elements/1.1/"
   xmlns:cc="http://creativecommons.org/ns#"
   xmlns:rdf="http://www.w3.org/1999/02/22-rdf-syntax-ns#"
   xmlns:svg="http://www.w3.org/2000/svg"
   xmlns="http://www.w3.org/2000/svg"
   xmlns:sodipodi="http://sodipodi.sourceforge.net/DTD/sodipodi-0.dtd"
   xmlns:inkscape="http://www.inkscape.org/namespaces/inkscape"
   width="113mm"
   height="92mm"
   viewBox="0 0 113 92"
   version="1.1"
   id="svg8"
   inkscape:version="1.0.2 (e86c870879, 2021-01-15, custom)"
   sodipodi:docname="stream - значок 2.svg">
  <defs
     id="defs2">
    <rect
       x="13.869593"
       y="89.638664"
       width="117.37785"
       height="21.318077"
       id="rect1138" />
    <rect
       x="25.258244"
       y="-21.708435"
       width="59.254475"
       height="13.926167"
       id="rect843" />
    <rect
       x="3.627317"
       y="4.8364224"
       width="83.126015"
       height="15.113821"
       id="rect844" />
    <rect
       x="-11.374326"
       y="-19.905071"
       width="70.831032"
       height="18.741789"
       id="rect19" />
    <rect
       x="1.5904548"
       y="6.6799102"
       width="75.228516"
       height="25.606323"
       id="rect17" />
    <rect
       x="27.037731"
       y="-42.624187"
       width="99.880562"
       height="34.671913"
       id="rect850" />
    <rect
       x="3.5987885"
       y="7.4225011"
       width="94.243271"
       height="34.413414"
       id="rect835" />
  </defs>
  <sodipodi:namedview
     id="base"
     pagecolor="#ffffff"
     bordercolor="#666666"
     borderopacity="1.0"
     inkscape:pageopacity="0.0"
     inkscape:pageshadow="2"
     inkscape:zoom="0.85725861"
     inkscape:cx="4.6460263"
     inkscape:cy="202.99925"
     inkscape:document-units="mm"
     inkscape:current-layer="layer5"
     inkscape:document-rotation="0"
     showgrid="false"
     inkscape:window-width="1733"
     inkscape:window-height="894"
     inkscape:window-x="151"
     inkscape:window-y="29"
     inkscape:window-maximized="0"
     inkscape:snap-text-baseline="true"
     inkscape:snap-intersection-paths="true"
     inkscape:snap-smooth-nodes="false"
     inkscape:snap-midpoints="true"
     inkscape:snap-nodes="false"
     inkscape:snap-global="false" />
  <metadata
     id="metadata5">
    <rdf:RDF>
      <cc:Work
         rdf:about="">
        <dc:format>image/svg+xml</dc:format>
        <dc:type
           rdf:resource="http://purl.org/dc/dcmitype/StillImage" />
        <dc:title />
      </cc:Work>
    </rdf:RDF>
  </metadata>
  <g
     inkscape:groupmode="layer"
     id="layer6"
     inkscape:label="qq">
    <path
       style="display:inline;fill:#000000;stroke:none;stroke-width:1;stroke-opacity:1"
       d="M 16.405545,64.055662 C 15.0771,63.83177 13.831765,63.254083 12.569421,62.783568 10.527645,62.022534 8.9374991,60.954461 7.8875661,59.341425 c -1.16,-1.782134 -1.687563,-4.176325 -1.72576,-7.53544 -0.05901,-5.189304 -0.08627,-5.113821 1.349906,-3.737634 2.8287399,2.710582 6.2866749,4.12995 10.5471159,4.329237 4.920305,0.230153 8.661241,-1.125553 12.075636,-4.376187 2.145011,-2.042128 3.382687,-3.894026 4.412673,-6.602547 0.603631,-1.587352 0.870247,-3.53673 0.870247,-4.992344 0.0044,-1.537509 -0.255616,-4.171595 -0.784544,-5.654899 -0.821039,-2.302479 -2.223005,-4.576252 -3.935412,-6.382642 0,0 -0.459723,-0.513877 -0.648466,-0.732574 -0.188744,-0.218697 -0.508104,-0.548399 -0.51793,-0.715547 -0.0098,-0.167148 0.424799,-0.26766 0.424799,-0.26766 l 0.579177,-0.118315 c 1.710392,-0.349403 5.108673,-0.323311 6.452378,0.150774 1.885238,0.66515 2.510245,0.179441 2.091505,-1.625369 -1.195343,-5.152068 1.694328,-10.896576 6.779773,-13.4778144 1.852279,-0.940168 2.22713,-1.032021 4.600755,-1.127358 5.330669,-0.214109 9.387012,2.067107 11.746997,6.6062994 1.886551,3.628586 2.085075,3.728154 4.161261,2.087023 1.783561,-1.409825 4.675317,-2.796077 7.25365,-3.477263 2.977388,-0.786611 8.130661,-0.787239 11.112499,-0.0013 4.801926,1.26559 8.797304,4.038425 10.398264,7.216492 1.08388,2.151626 1.44174,4.036459 1.10426,5.815997 -0.14175,0.747466 -0.25773,1.40231 -0.25773,1.455208 0,0.0529 0.24956,0.09618 0.55459,0.09618 0.90687,0 3.33123,0.784653 4.57884,1.481955 1.49088,0.83327 3.04664,2.524863 3.86881,4.206586 1.22931,2.5145 0.96169,6.760805 -0.56083,8.898999 -0.68224,0.95813 -0.63997,1.166902 0.31648,1.563084 1.3519,0.559975 3.36669,2.74116 4.22367,4.572481 2.01829,4.312981 0.86323,9.12854 -2.91677,12.160329 -1.22702,0.984144 -2.88311,3.511482 -4.93059,6.0622 -1.55074,1.931885 -56.861556,3.52931 -84.707275,-1.163714 z"
       id="path861"
       sodipodi:nodetypes="assssssscsszzcsssssssscsssssssssssa" />
  </g>
  <g
     inkscape:groupmode="layer"
     id="layer5"
     inkscape:label="ee">
    <path
       id="rect955"
       style="display:inline;fill:#d5d500;stroke:none;stroke-width:0.3;stroke-linecap:square;stroke-dashoffset:10.8095;stroke-opacity:1;fill-opacity:1"
       d="M 15.269762,60.678115 H 104.70136 L 99.46351,78.658134 H 10.031901 Z"
       sodipodi:nodetypes="ccccc" />
  </g>
  <g
     inkscape:groupmode="layer"
     id="layer4"
     inkscape:label="Layer 3"
     style="display:inline" />
  <g
     inkscape:groupmode="layer"
     id="layer2"
     inkscape:label="Layer 1"
     style="display:inline">
    <path
       style="fill:#ffff00;stroke:none;stroke-width:0.264583"
       d="m 16.967962,51.485818 c -2.910328,-0.281091 -5.935893,-1.657795 -8.4494869,-3.844716 -1.541172,-1.340879 -2.591773,-2.733511 -3.5660306,-4.72698 -1.73162,-3.54314 -2.34038,-9.003453 -0.172213,-13.573011 1.0571456,-2.228006 2.7809326,-4.342101 4.7508456,-5.82655 1.7251309,-1.299992 4.6703439,-2.587684 6.7443499,-2.948734 1.222855,-0.212879 4.445149,-0.135736 5.819392,0.139318 1.908897,0.382065 3.495741,1.041852 5.194273,2.159705 6.063052,3.990263 8.596458,11.129274 6.365862,17.938675 -1.344514,4.104442 -4.256114,7.416292 -8.165158,9.287608 -1.768306,0.84651 -3.195031,1.219009 -5.356794,1.398582 -1.302069,0.108162 -2.013889,0.107286 -3.16504,-0.0039 z"
       id="path888"
       sodipodi:nodetypes="sssssssssssss" />
  </g>
  <g
     inkscape:groupmode="layer"
     id="layer7"
     inkscape:label="r"
     style="opacity:0.65">
    <text
       xml:space="preserve"
       id="text1136"
       style="font-style:normal;font-variant:normal;font-weight:normal;font-stretch:normal;font-size:10.5833px;line-height:1.25;font-family:'Airstream NF';-inkscape-font-specification:'Airstream NF, Normal';font-variant-ligatures:normal;font-variant-caps:normal;font-variant-numeric:normal;font-variant-east-asian:normal;white-space:pre;shape-inside:url(#rect1138);fill:#000000;fill-opacity:1;stroke:none;"
       transform="translate(47.6565,-10.515495)"><tspan
         x="13.869141"
         y="99.110725"><tspan
           style="font-style:normal;font-variant:normal;font-weight:normal;font-stretch:normal;font-size:10.5833px;font-family:'Airstream NF';-inkscape-font-specification:'Airstream NF, Normal';font-variant-ligatures:normal;font-variant-caps:normal;font-variant-numeric:normal;font-variant-east-asian:normal">ONLINE</tspan></tspan></text>
    <path
       style="display:inline;fill:#ffffff;stroke:none;stroke-width:1;stroke-opacity:1"
       d="m 41.088986,71.068199 c -0.661821,-1.183182 -0.678622,-1.288741 -0.244311,-1.535131 1.471141,-0.834599 2.223336,-2.457535 1.842421,-3.975219 -0.311701,-1.241915 -1.568323,-1.730891 -4.243991,-1.651421 l -2.369889,0.07039 -0.832344,4.167187 -0.832345,4.167188 h 0.870918 c 0.829358,0 0.879438,-0.05681 1.049462,-1.190625 0.178533,-1.190535 0.178628,-1.190625 1.273437,-1.190625 1.025673,0 1.134332,0.07435 1.718773,1.176025 0.509106,0.959676 0.776732,1.191297 1.454753,1.25903 0.45698,0.04565 0.874284,0.05842 0.927341,0.02838 0.05306,-0.03005 -0.223346,-0.626375 -0.614225,-1.325176 z"
       id="path1085" />
    <path
       style="display:inline;fill:#ffffff;stroke:none;stroke-width:1;stroke-opacity:1"
       d="m 52.792827,71.363342 c 0.59263,-0.904066 0.59313,-0.904233 2.701933,-0.904233 2.085647,0 2.110986,0.0081 2.26967,0.727605 0.08826,0.400182 0.185997,0.835414 0.217191,0.967181 0.05014,0.211786 1.74915,0.413798 1.749099,0.207968 -2.1e-5,-0.08777 -1.445921,-5.88632 -1.876435,-7.525149 -0.233011,-0.886989 -0.350737,-0.992021 -1.110343,-0.990621 -0.803838,0.0016 -0.989967,0.21722 -3.448613,3.997219 -1.429404,2.197608 -2.653527,4.137961 -2.720271,4.311896 -0.0834,0.217344 0.151728,0.284366 0.751837,0.214307 0.642062,-0.07496 1.030092,-0.341289 1.465932,-1.006173 z"
       id="path1089" />
  </g>
  <g
     inkscape:groupmode="layer"
     id="layer3"
     inkscape:label="Layer 2"
     style="display:inline;opacity:0.65">
    <path
       id="path1111"
       style="fill:#000000;stroke:none;stroke-width:1.41138;stroke-opacity:1"
       sodipodi:type="inkscape:offset"
       inkscape:radius="0.71196705"
       inkscape:original="M 18.701172 29.394531 C 18.592032 29.394496 18.503906 33.20252 18.503906 37.857422 L 18.503906 46.322266 L 26.949219 42.158203 C 31.594154 39.868014 35.374258 37.908679 35.349609 37.804688 C 35.302675 37.606694 19.046387 29.394639 18.701172 29.394531 z "
       d="m 18.701172,28.681641 c -8.53e-4,-10e-7 -0.3429,0.08743 -0.34375,0.08789 -4.25e-4,2.32e-4 -0.08088,0.05128 -0.111328,0.07617 -0.03045,0.02489 -0.05381,0.04806 -0.07422,0.07031 -0.08165,0.08901 -0.108468,0.148774 -0.128906,0.193359 -0.04088,0.08917 -0.04754,0.13014 -0.05664,0.169922 -0.0182,0.07956 -0.02524,0.136937 -0.0332,0.207031 -0.01592,0.140188 -0.02687,0.315155 -0.03906,0.53711 -0.02439,0.443909 -0.04652,1.06871 -0.06445,1.839843 -0.03587,1.542267 -0.05859,3.662197 -0.05859,5.994141 v 8.464844 a 0.71203825,0.71203825 0 0 0 1.027343,0.638672 l 8.445313,-4.164063 c 2.32599,-1.146831 4.435902,-2.211494 5.964844,-3.003906 0.76447,-0.396207 1.382455,-0.723016 1.816406,-0.962891 0.216975,-0.119937 0.386522,-0.217119 0.515625,-0.296875 0.06455,-0.03988 0.117174,-0.07367 0.177734,-0.119141 0.03028,-0.02273 0.06044,-0.04269 0.115235,-0.09961 0.02739,-0.02846 0.06339,-0.06366 0.111328,-0.146484 0.02397,-0.04141 0.07395,-0.180603 0.07422,-0.181641 2.71e-4,-0.001 0.0041,-0.344891 0.0039,-0.345703 -1.84e-4,-7.73e-4 -0.07136,-0.186992 -0.101563,-0.232422 -0.0302,-0.04543 -0.05483,-0.0728 -0.07422,-0.09375 -0.03878,-0.0419 -0.06182,-0.05971 -0.08203,-0.07617 -0.04042,-0.03292 -0.06493,-0.05052 -0.0918,-0.06836 -0.05373,-0.03568 -0.108605,-0.06823 -0.175781,-0.107422 -0.134351,-0.07839 -0.31467,-0.179111 -0.542969,-0.302734 -0.456597,-0.247247 -1.09917,-0.584495 -1.86914,-0.984375 -1.53994,-0.79976 -3.588152,-1.844975 -5.646485,-2.884766 -2.058333,-1.039791 -4.125955,-2.074722 -5.703125,-2.849609 -0.788584,-0.387444 -1.455133,-0.709408 -1.939453,-0.9375 -0.24216,-0.114047 -0.438118,-0.204213 -0.58789,-0.269532 -0.07489,-0.03266 -0.135579,-0.05932 -0.195313,-0.08203 -0.02987,-0.01136 -0.05898,-0.02149 -0.09766,-0.0332 -0.03868,-0.01171 -0.05267,-0.03705 -0.234375,-0.03711 z"
       transform="matrix(0.64685066,0,0,0.77608412,2.9439095,7.2570186)" />
    <path
       style="fill:#ffffff;stroke:none;stroke-width:1;stroke-opacity:1"
       d="M 96.50778,50.218485 V 48.498694 H 91.877576 87.247368 V 46.64661 44.794527 h 3.96875 3.968752 v -1.719792 -1.719791 h -3.968752 -3.96875 V 39.635152 37.91536 h 4.497917 4.497915 v -1.719791 -1.719792 h -6.614582 -6.614583 v 8.73125 8.73125 h 6.746875 6.74687 z"
       id="path1109" />
    <path
       style="fill:#ffffff;stroke:none;stroke-width:1;stroke-opacity:1"
       d="m 75.389474,48.426677 c 0.82696,-1.924921 2.472245,-5.702515 3.656189,-8.39465 1.183944,-2.692135 2.218658,-5.048673 2.299364,-5.236747 0.114628,-0.267126 -0.329649,-0.325025 -2.030206,-0.264583 l -2.176946,0.07737 -1.00728,2.38125 c -0.554005,1.309687 -1.715672,4.022653 -2.581484,6.028811 L 71.974907,46.66569 71.38673,45.267087 c -0.323495,-0.769231 -1.493062,-3.511963 -2.599036,-6.094958 l -2.01086,-4.696354 h -2.200148 c -1.210083,0 -2.200151,0.100087 -2.200151,0.222417 0,0.122327 0.782238,1.997562 1.73831,4.167187 1.522452,3.454924 4.220091,9.659395 5.310082,12.213 l 0.367043,0.859896 2.04697,-0.0059 2.04697,-0.0059 1.503564,-3.499858 z"
       id="path1107" />
    <path
       style="fill:#ffffff;stroke:none;stroke-width:1;stroke-opacity:1"
       d="m 60.54791,43.207027 0.01577,-8.598958 -2.003994,-0.07727 -2.003983,-0.07728 v 8.753509 8.753509 l 1.988211,-0.07728 1.988214,-0.07727 0.01577,-8.598958 z"
       id="path1105" />
    <path
       style="fill:#ffffff;stroke:none;stroke-width:1;stroke-opacity:1"
       d="M 54.439035,50.218485 V 48.498694 H 50.07341 45.707786 v -7.011459 -7.011458 h -2.116667 -2.116667 v 8.73125 8.73125 h 6.482292 6.482291 z"
       id="path1103" />
    <path
       style="fill:#ffffff;stroke:none;stroke-width:1;stroke-opacity:1"
       d="m 74.929239,68.408589 c 0.415573,-2.146433 0.810056,-4.051433 0.876625,-4.233334 0.08179,-0.223475 -0.170757,-0.330729 -0.778745,-0.330729 h -0.899782 l -0.755589,3.902604 c -0.415573,2.146433 -0.810056,4.051433 -0.876626,4.233334 -0.08178,0.223475 0.170757,0.330729 0.778746,0.330729 h 0.899782 z"
       id="path1101" />
    <path
       style="fill:#ffffff;stroke:none;stroke-width:1;stroke-opacity:1"
       d="m 49.941119,72.06825 c 0,-0.13362 0.07227,-0.431276 0.160599,-0.661459 0.1392,-0.362751 -0.160459,-0.418515 -2.248958,-0.418515 -2.647889,0 -2.763282,-0.09352 -2.139588,-1.73396 0.265981,-0.699585 0.299199,-0.708282 2.248959,-0.588849 1.088443,0.06668 1.980612,0.05104 1.982599,-0.03475 0.0021,-0.08579 0.07541,-0.42387 0.163153,-0.751292 0.155662,-0.580861 0.108413,-0.595312 -1.946338,-0.595312 H 46.05567 l 0.160682,-0.992188 0.160681,-0.992187 2.414482,-0.07569 c 2.330103,-0.07305 2.418836,-0.09847 2.539103,-0.727604 l 0.124621,-0.651915 h -3.208731 -3.208735 l -0.757224,3.902601 c -0.416473,2.146433 -0.81424,4.051433 -0.883926,4.233334 -0.09723,0.253793 0.649232,0.330729 3.208896,0.330729 1.849271,0 3.3356,-0.108254 3.3356,-0.242943 z"
       id="path1099" />
    <path
       style="fill:#ffffff;stroke:none;stroke-width:1;stroke-opacity:1"
       d="M 92.625508,72.153583 C 93.9295,71.709268 93.9338,71.70232 94.35616,69.35898 c 0.21903,-1.215268 0.21166,-1.233958 -0.52978,-1.342779 -0.79697,-0.11697 -0.82233,-0.08117 -1.168542,1.649159 -0.227671,1.137898 -0.479626,1.313717 -1.889988,1.318865 -2.143524,0.0078 -3.138159,-1.697116 -2.245029,-3.848295 0.703755,-1.695051 3.549301,-2.583696 5.006039,-1.563354 0.4782,0.334944 0.67175,0.346837 1.11721,0.06865 0.7285,-0.454957 0.67774,-0.807895 -0.18881,-1.312807 -3.481251,-2.02842 -7.994112,0.578448 -8.002166,4.62248 -0.0055,2.751425 2.966929,4.294224 6.170414,3.202688 z"
       id="path1097" />
    <path
       style="fill:#ffffff;stroke:none;stroke-width:1;stroke-opacity:1"
       d="m 78.605883,69.458363 c 0.500843,-2.660047 0.741347,-3.155971 1.086507,-2.240399 0.096,0.254661 0.789656,1.504817 1.541449,2.778125 1.197247,2.027774 1.458216,2.315104 2.102712,2.315104 0.404699,0 0.736307,-0.02977 0.736905,-0.06615 5.29e-4,-0.03638 0.357296,-1.792552 0.792662,-3.902604 0.435367,-2.110052 0.792067,-3.985287 0.792663,-4.167188 5.29e-4,-0.189248 -0.329086,-0.330729 -0.77074,-0.330729 -0.843203,0 -0.784785,-0.150481 -1.626777,4.190566 l -0.325276,1.677025 -1.721321,-2.933796 c -1.518004,-2.587259 -1.805802,-2.933795 -2.436529,-2.933795 -0.711732,0 -0.719246,0.02024 -1.547125,4.167188 -0.457557,2.291953 -0.831839,4.241448 -0.831741,4.332208 1e-4,0.09076 0.3821,0.08691 0.848891,-0.0086 0.844249,-0.172667 0.851387,-0.187796 1.35772,-2.876999 z"
       id="path1095" />
    <path
       style="fill:#ffffff;stroke:none;stroke-width:1;stroke-opacity:1"
       d="m 70.962153,68.647925 c 0.392327,-1.987026 0.777089,-3.880664 0.855033,-4.208086 0.121981,-0.512413 0.03555,-0.595313 -0.620657,-0.595313 -0.655508,0 -1.065877,0.392113 -2.927538,2.7973 l -2.165165,2.797299 -0.363164,-0.87907 c -0.199742,-0.483489 -0.700006,-1.742274 -1.111697,-2.7973 -0.672246,-1.722733 -0.82133,-1.918229 -1.462844,-1.918229 -0.706565,0 -0.722104,0.03946 -1.432666,3.638021 -0.395097,2.000911 -0.782127,3.905911 -0.860071,4.233333 -0.123264,0.517806 -0.03708,0.595313 0.661959,0.595313 0.766477,0 0.817856,-0.07042 1.110059,-1.521354 0.535705,-2.660036 0.739823,-3.544282 0.841674,-3.646133 0.05456,-0.05456 0.502621,0.907211 0.995688,2.13727 0.49307,1.230055 1.052883,2.236467 1.244031,2.236467 0.191146,0 1.078352,-0.922735 1.971572,-2.050521 0.893217,-1.127786 1.709756,-2.084096 1.814528,-2.125136 0.104773,-0.04104 -0.02646,0.911463 -0.291637,2.116667 -0.65637,2.983203 -0.650398,3.048524 0.266428,2.913962 0.753459,-0.110583 0.768355,-0.148217 1.474467,-3.72449 z"
       id="path1093" />
    <path
       style="fill:#ffffff;stroke:none;stroke-width:1;stroke-opacity:1"
       d="m 31.137658,68.812179 0.700939,-3.512444 1.510636,-0.07935 c 1.40516,-0.07381 1.510636,-0.124613 1.510636,-0.727604 v -0.648255 h -3.704167 -3.704166 v 0.661459 c 0,0.61736 0.08819,0.661458 1.322916,0.661458 0.727604,0 1.322557,0.0893 1.322115,0.198437 -0.0011,0.244801 -1.020389,5.514576 -1.222634,6.320391 -0.122574,0.488365 -0.02257,0.600392 0.604425,0.677018 0.413215,0.0505 0.79789,0.06246 0.854831,0.02658 0.05694,-0.03588 0.418952,-1.645841 0.804469,-3.577685 z"
       id="path1083" />
    <path
       style="fill:#ffffff;stroke:none;stroke-width:1;stroke-opacity:1"
       d="m 23.725337,72.317511 c 1.419029,-0.304182 2.138699,-1.247235 2.138699,-2.436278 0,-1.243962 -0.4968,-1.717955 -2.572314,-2.454225 -1.631354,-0.57871 -1.983152,-1.105884 -1.236352,-1.852686 0.341278,-0.341276 0.779287,-0.42535 1.799153,-0.345337 0.741431,0.05817 1.547283,0.196413 1.790784,0.307213 0.315016,0.143341 0.53457,0.02985 0.761103,-0.393435 0.4054,-0.757495 -0.126783,-1.203492 -1.721392,-1.442617 -2.328161,-0.349131 -4.641815,0.937665 -4.641815,2.581658 0,1.269201 0.427654,1.711003 2.377389,2.45604 1.933784,0.738939 2.317353,1.273535 1.437609,2.003658 -0.579848,0.481232 -2.877233,0.401997 -3.68471,-0.127085 -0.64109,-0.420055 -0.674407,-0.411974 -0.969245,0.235128 -0.361267,0.79289 2.266908,1.951171 4.521091,1.467966 z"
       id="path1081"
       sodipodi:nodetypes="ssssssssssssss" />
  </g>
  <g
     inkscape:groupmode="layer"
     id="layer8"
     inkscape:label="A"
     style="display:inline;opacity:1">
    <path
       style="display:inline;opacity:1;fill:#863a96;fill-opacity:1;stroke:none;stroke-width:1;stroke-opacity:1"
       d="m 36.976535,68.223174 c 0,-0.211119 0.128929,-0.985025 0.286507,-1.719792 l 0.28651,-1.335939 h 1.30099 c 1.261182,0 2.359327,0.609954 2.359327,1.310468 0,0.692528 -0.688486,1.603722 -1.398868,1.851361 -1.203248,0.419454 -2.834466,0.358397 -2.834466,-0.106098 z"
       id="path1087" />
    <path
       style="display:inline;fill:#863a96;fill-opacity:1;stroke:none;stroke-width:1;stroke-opacity:1"
       d="m 54.585641,68.408589 c 0.259628,-0.400183 0.777444,-1.192303 1.150707,-1.760265 l 0.678659,-1.032661 0.29427,1.032661 c 0.161848,0.567962 0.374367,1.360082 0.472262,1.760265 l 0.177994,0.727604 h -1.62297 -1.62297 z"
       id="path1091" />
  </g>
</svg>
