<?xml version="1.0" encoding="UTF-8" standalone="no"?>
<svg
   xmlns:dc="http://purl.org/dc/elements/1.1/"
   xmlns:cc="http://creativecommons.org/ns#"
   xmlns:rdf="http://www.w3.org/1999/02/22-rdf-syntax-ns#"
   xmlns:svg="http://www.w3.org/2000/svg"
   xmlns="http://www.w3.org/2000/svg"
   xmlns:sodipodi="http://sodipodi.sourceforge.net/DTD/sodipodi-0.dtd"
   xmlns:inkscape="http://www.inkscape.org/namespaces/inkscape"
   width="91mm"
   height="24mm"
   viewBox="0 0 91 24"
   version="1.1"
   id="svg8"
   inkscape:version="1.0.2 (e86c870879, 2021-01-15, custom)"
   sodipodi:docname="stream -  надпись 2.svg">
  <defs
     id="defs2">
    <rect
       x="-11.374326"
       y="-19.905071"
       width="70.831032"
       height="18.741788"
       id="rect19" />
    <rect
       x="1.5904548"
       y="6.6799102"
       width="75.228516"
       height="25.606323"
       id="rect17" />
    <rect
       x="27.037731"
       y="-42.624187"
       width="99.880562"
       height="34.671913"
       id="rect850" />
    <rect
       x="3.5987885"
       y="7.4225011"
       width="94.243271"
       height="34.413414"
       id="rect835" />
  </defs>
  <sodipodi:namedview
     id="base"
     pagecolor="#ffffff"
     bordercolor="#666666"
     borderopacity="1.0"
     inkscape:pageopacity="0.0"
     inkscape:pageshadow="2"
     inkscape:zoom="1.118228"
     inkscape:cx="50.482483"
     inkscape:cy="-86.786132"
     inkscape:document-units="mm"
     inkscape:current-layer="layer1"
     inkscape:document-rotation="0"
     showgrid="false"
     inkscape:window-width="1427"
     inkscape:window-height="851"
     inkscape:window-x="263"
     inkscape:window-y="135"
     inkscape:window-maximized="0"
     inkscape:snap-text-baseline="true" />
  <metadata
     id="metadata5">
    <rdf:RDF>
      <cc:Work
         rdf:about="">
        <dc:format>image/svg+xml</dc:format>
        <dc:type
           rdf:resource="http://purl.org/dc/dcmitype/StillImage" />
        <dc:title></dc:title>
      </cc:Work>
    </rdf:RDF>
  </metadata>
  <g
     inkscape:label="Слой 1"
     inkscape:groupmode="layer"
     id="layer1">
    <g
       aria-label="Stream"
       transform="matrix(2.0315437,0,0,1.933849,7.9445505,-12.422572)"
       id="text15"
       style="font-style:normal;font-variant:normal;font-weight:normal;font-stretch:normal;font-size:10.5833px;line-height:1.25;font-family:Akaju;-inkscape-font-specification:'Akaju, Normal';font-variant-ligatures:normal;font-variant-caps:normal;font-variant-numeric:normal;font-variant-east-asian:normal;white-space:pre;shape-inside:url(#rect17);fill:#ffffff;fill-opacity:1;stroke:none;stroke-width:0.504517">
      <path
         d="m 7.7031462,8.8462978 c 0.1998149,0 0.3582888,0.062012 0.4754217,0.1860346 0.1205779,0.124023 0.1808669,0.2824969 0.1808669,0.4754216 0,0.1343583 -0.029283,0.2514912 -0.08785,0.3513986 C 8.1613421,10.069303 7.9718624,10.174378 7.7031458,10.174378 H 4.0444665 c -0.2480461,0 -0.4564738,0.08268 -0.6252829,0.248046 -0.1688091,0.161919 -0.2532137,0.366901 -0.2532137,0.614948 0,0.248046 0.084405,0.454751 0.2532137,0.620115 0.1688091,0.165364 0.3772368,0.248046 0.6252829,0.248046 h 2.7698479 c 0.6028898,0.0035 1.1162074,0.220507 1.5399528,0.651121 0.4203003,0.423745 0.6304505,0.93534 0.6304505,1.534785 0,0.530543 -0.1946473,1.024912 -0.5839419,1.483109 C 7.9977009,16.049969 7.530892,16.28768 7.000349,16.28768 h -7.76539579 c -0.19981487,0 -0.36001131,-0.06201 -0.48058921,-0.186034 -0.120578,-0.120578 -0.180867,-0.280775 -0.180867,-0.48059 0,-0.127468 0.029283,-0.244601 0.08785,-0.351398 0.1136878,-0.21015 0.30489,-0.315225 0.57360651,-0.315225 H 6.8504881 c 0.2239305,0 0.4168552,-0.08613 0.5787742,-0.258382 0.1584739,-0.172254 0.2377108,-0.373791 0.2377108,-0.604612 0,-0.244601 -0.084405,-0.447861 -0.2532137,-0.60978 C 7.2518403,13.316295 7.0485802,13.233613 6.8039792,13.233613 H 4.0444665 c -0.60978,0 -1.1265427,-0.215318 -1.5502881,-0.645953 -0.4306355,-0.423746 -0.6459533,-0.940509 -0.6459533,-1.550288 0,-0.606335 0.2153178,-1.1230982 0.6459533,-1.5502885 C 2.9179238,9.059893 3.4346865,8.8462978 4.0444665,8.8462978 Z"
         style="font-style:normal;font-variant:normal;font-weight:normal;font-stretch:normal;font-size:10.5833px;font-family:Akaju;-inkscape-font-specification:'Akaju, Normal';font-variant-ligatures:normal;font-variant-caps:normal;font-variant-numeric:normal;font-variant-east-asian:normal;fill:#ffffff;stroke-width:0.504517"
         id="path15"
         sodipodi:nodetypes="scscsscsssccscsscscsscscsscscss" />
    </g>
    <g
       aria-label="t r e a m"
       transform="matrix(1.627041,0,0,1.9333058,50.051019,38.817718)"
       id="text17"
       style="font-style:normal;font-variant:normal;font-weight:normal;font-stretch:normal;font-size:10.5833px;line-height:1.25;font-family:Assinatura;-inkscape-font-specification:'Assinatura, Normal';font-variant-ligatures:normal;font-variant-caps:normal;font-variant-numeric:normal;font-variant-east-asian:normal;white-space:pre;shape-inside:url(#rect19);fill:#800000;fill-opacity:1;stroke:#ffffff;stroke-width:0.563833;stroke-opacity:1">
      <path
         d="m -11.884372,-10.06748 c -0.299387,0.7731108 -0.479253,0.3213593 -0.319969,-0.207714 0.322126,-1.069959 0.67548,-2.078189 0.800152,-2.598561 0.249345,-1.044359 0.607539,-2.070409 0.929159,-2.955764 -0.202367,0.01084 -0.406541,0.01987 -0.612522,0.0271 -0.935948,0.03252 -1.866475,0.08492 -2.791581,0.157196 h -0.02168 c -0.09034,0 -0.135514,-0.01807 -0.135514,-0.05421 0,-0.04698 0.06143,-0.08131 0.184299,-0.102986 0.737194,-0.05782 1.889963,-0.133706 3.458307,-0.227662 0.112025,-0.307166 0.267414,-0.664921 0.4661674,-1.073268 -0.1553894,0.119251 -0.2782544,0.178877 -0.3685964,0.178877 l -0.04879,-0.0055 c -0.07227,-0.02891 -0.108411,-0.08854 -0.108411,-0.178879 0,-0.05059 0.01084,-0.11022 0.03253,-0.178878 0.05782,-0.133707 0.130092,-0.20056 0.216822,-0.20056 0.05421,0 0.09938,0.03794 0.135514,0.113831 l 0.6504651,-0.672148 c 0.1011836,-0.09757 0.1861055,-0.146353 0.2547657,-0.146353 0.02891,0 0.056012,0.01084 0.081308,0.03253 0.02891,0.01807 0.043364,0.04879 0.043364,0.09215 0,0.06143 -0.028909,0.139128 -0.086729,0.233084 -0.2890958,0.448098 -0.5872257,1.040745 -0.8943888,1.777939 l 1.0786874,-0.06504 c 0.1011834,0 0.1517752,0.03072 0.1517752,0.09215 0,0.06505 -0.056012,0.104798 -0.1680369,0.119251 -0.3830519,0.02529 -0.764297,0.04697 -1.1437347,0.06504 -0.364983,0.903424 -1.783363,5.778375 -1.783363,5.778375 z"
         style="font-style:normal;font-variant:normal;font-weight:normal;font-stretch:normal;font-size:10.5833px;font-family:Assinatura;-inkscape-font-specification:'Assinatura, Normal';font-variant-ligatures:normal;font-variant-caps:normal;font-variant-numeric:normal;font-variant-east-asian:normal;fill:#ffffff;stroke:#ffffff;stroke-width:0.563833;stroke-opacity:1"
         id="path23"
         sodipodi:nodetypes="csccccsscccccscsccscscccsccc" />
      <path
         d="m -7.137274,-10.522879 c 0.045128,-0.517206 0.1538751,-1.185637 0.4616254,-2.001115 0.1556854,-0.405859 0.3041296,-0.742196 0.4453327,-1.009011 0.039826,-0.06764 0.072411,-0.101465 0.097755,-0.101465 0.028965,-0.0038 0.047068,-0.0057 0.054309,-0.0057 0.036206,0 0.06336,0.01691 0.081463,0.05074 0.010862,0.01503 0.016293,0.03383 0.016293,0.05637 0,0.03006 -0.00905,0.06576 -0.027154,0.107106 -0.1375825,0.255542 -0.3330944,0.815479 -0.5865358,1.67981 -0.1737884,0.586241 -0.2606826,0.967674 -0.2606826,1.144298 0,0.0714 0.016293,0.107097 0.048879,0.107097 0.1013766,0 0.3421459,-0.42465 0.722308,-1.27395 0.2136148,-0.481018 0.3946444,-0.838024 0.5430887,-1.071018 0.083274,-0.124012 0.1792192,-0.186018 0.287837,-0.186018 0.1556853,0 0.3729208,0.159713 0.6517063,0.479139 l 0.1031866,0.118376 c 0.4960211,0.586242 0.881614,0.90379 1.156779,0.952643 0.1484442,0.0263 0.251631,0.03945 0.3095604,0.03945 0.213615,0 0.4598152,-0.06201 0.7386007,-0.186018 0.014482,-0.0075 0.028964,-0.01128 0.043447,-0.01128 0.032586,0.0038 0.056119,0.02069 0.070601,0.05074 0.00724,0.01503 0.010862,0.03006 0.010862,0.04509 0,0.03006 -0.018103,0.05449 -0.054309,0.07328 -0.2824061,0.12777 -0.5539504,0.191656 -0.814633,0.191656 -0.2136149,0 -0.4199886,-0.04322 -0.619121,-0.12965 -0.4417122,-0.18414 -0.8399772,-0.484776 -1.1947952,-0.901909 -0.2534414,-0.304396 -0.4217988,-0.456594 -0.5050724,-0.456594 -0.021724,0 -0.095946,0.114618 -0.2226664,0.343854 -0.2280973,0.428408 -0.4978313,0.956402 -0.8092021,1.583981 -0.1412031,0.289363 -0.2299076,0.477261 -0.2661135,0.563693 -0.05793,0.154077 -0.533338,0.3193204 -0.4833488,-0.253595 z"
         style="font-style:normal;font-variant:normal;font-weight:normal;font-stretch:normal;font-size:10.5833px;font-family:Assinatura;-inkscape-font-specification:'Assinatura, Normal';font-variant-ligatures:normal;font-variant-caps:normal;font-variant-numeric:normal;font-variant-east-asian:normal;fill:#800000;stroke:#ffffff;stroke-width:0.563833;stroke-opacity:1"
         id="path25"
         sodipodi:nodetypes="scccscsccssccscccsccsscsccscccs" />
      <path
         d="m 1.861705,-10.128292 c -0.1412031,0 -0.2606826,-0.01879 -0.3584386,-0.05637 -0.1701677,-0.08643 -0.2643031,-0.180381 -0.2824061,-0.281847 -0.021724,-0.105222 -0.032585,-0.184139 -0.032585,-0.23675 0,-0.112739 0.021723,-0.231115 0.06517,-0.355128 0.05793,-0.176624 0.1357723,-0.340095 0.233528,-0.490414 0.2968886,-0.454713 0.537658,-0.730923 0.7223081,-0.82863 0.1846502,-0.101465 0.3294739,-0.152197 0.434471,-0.152197 0.072412,0 0.1393927,0.01879 0.2009427,0.05637 0.159306,0.105223 0.238959,0.268695 0.238959,0.490414 v 0.01127 c 0,0.221719 -0.088704,0.405859 -0.2661134,0.552419 -0.1774089,0.154077 -0.4181783,0.231115 -0.722308,0.231115 -0.1737883,0 -0.2860266,-0.01128 -0.3367149,-0.03383 l -0.043447,-0.0057 c -0.014482,0 -0.034396,0.02818 -0.059739,0.08455 -0.083274,0.14656 -0.1249104,0.278089 -0.1249104,0.394586 0,0.06764 0.021724,0.129649 0.065171,0.186019 0.094135,0.09771 0.2480105,0.14656 0.4616255,0.14656 0.3439561,0 0.7874785,-0.09395 1.3305672,-0.281848 0.4018856,-0.135285 0.7675654,-0.281846 1.0970391,-0.43968 0.3330944,-0.161592 0.5611917,-0.300637 0.6842918,-0.417134 0.025344,-0.02255 0.047067,-0.03383 0.06517,-0.03383 0.032586,0 0.048879,0.0075 0.048879,0.02254 0.00362,0.01127 0.00543,0.01879 0.00543,0.02254 0,0.01879 -0.010862,0.03946 -0.032585,0.062 -0.1955119,0.18414 -0.544899,0.396464 -1.0481612,0.636974 -0.5032622,0.236752 -0.9666979,0.415255 -1.390307,0.53551 -0.4199886,0.120255 -0.7386006,0.180382 -0.9558361,0.180382 z m 0.2280973,-1.240126 c 0.2570619,0 0.4525738,-0.05449 0.5865357,-0.163472 0.1665471,-0.131528 0.2498207,-0.234872 0.2498207,-0.310032 0.00362,-0.07892 0.00543,-0.120255 0.00543,-0.124013 0,-0.161592 -0.076033,-0.242389 -0.2280974,-0.242389 -0.2244766,0 -0.5105033,0.249905 -0.8580801,0.749715 -0.028965,0.0263 -0.043447,0.04697 -0.043447,0.062 0,0.0075 0.018103,0.01315 0.054309,0.01691 h 0.032585 c 0.068791,0.0075 0.1357721,0.01127 0.2009429,0.01127 z"
         style="font-style:normal;font-variant:normal;font-weight:normal;font-stretch:normal;font-size:10.5833px;font-family:Assinatura;-inkscape-font-specification:'Assinatura, Normal';font-variant-ligatures:normal;font-variant-caps:normal;font-variant-numeric:normal;font-variant-east-asian:normal;fill:#800000;stroke:#ffffff;stroke-width:0.563833;stroke-opacity:1"
         id="path27"
         sodipodi:nodetypes="cccscccscsscscccscscccscsccccccccsscscccc" />
      <path
         d="m 11.061627,-9.9479094 c -0.517744,0 -0.803771,-0.4114966 -0.85808,-1.2344896 0,-0.131529 -0.0054,-0.197293 -0.01629,-0.197293 -0.0072,-0.0038 -0.01267,-0.0057 -0.01629,-0.0057 -0.02172,0 -0.09413,0.04134 -0.2172355,0.124013 -0.1194795,0.07892 -0.251631,0.174745 -0.3964547,0.287484 -0.4742974,0.36828 -0.8019609,0.55242 -0.9829905,0.55242 -0.1049971,0 -0.1574956,-0.04885 -0.1574956,-0.14656 0,-0.06764 0.025344,-0.155955 0.076033,-0.264937 0.1049972,-0.229235 0.2787855,-0.47914 0.5213651,-0.749713 0.2425797,-0.274332 0.4851593,-0.47914 0.7277389,-0.614426 0.2425796,-0.139045 0.4507637,-0.208567 0.6245517,-0.208567 0.09051,0 0.177409,0.01503 0.260683,0.04509 0.0688,0.03006 0.105003,0.05637 0.108618,0.07892 0.0072,0.02255 0.01087,0.03758 0.01087,0.04509 0,0.0451 -0.03078,0.06765 -0.09233,0.06765 -0.03259,0 -0.0706,-0.0056 -0.114048,-0.01691 -0.03983,-0.01503 -0.08146,-0.02254 -0.124911,-0.02254 -0.108617,0 -0.229907,0.03946 -0.363869,0.118376 -0.1918913,0.112738 -0.3801621,0.261178 -0.5648122,0.445318 -0.1810296,0.180382 -0.3276635,0.347612 -0.4399018,0.501689 -0.1086178,0.150318 -0.1629267,0.255541 -0.1629267,0.315668 0,0.01879 0.00905,0.02819 0.027154,0.02819 0.065171,0 0.2914578,-0.131529 0.6788609,-0.394586 0.1013765,-0.06764 0.2009428,-0.131528 0.2986987,-0.191656 0.2317181,-0.157834 0.3946441,-0.236752 0.4887801,-0.236752 0.104997,0 0.161116,0.144682 0.168358,0.434045 0.05431,0.668916 0.275163,1.003374 0.662568,1.003374 0.224477,0 0.470677,-0.08643 0.7386,-0.259297 0.246201,-0.157835 0.470678,-0.343855 0.673431,-0.558058 0.202753,-0.214204 0.345766,-0.407739 0.42904,-0.580605 0.02173,-0.03382 0.04888,-0.05074 0.08146,-0.05074 0.05793,0 0.0869,0.03006 0.0869,0.09019 0,0.01127 -0.0036,0.02442 -0.01086,0.03945 -0.144824,0.285605 -0.409128,0.591879 -0.792911,0.918822 -0.383782,0.326942 -0.774805,0.53363 -1.17307,0.6200631 -0.06155,0.011273 -0.121292,0.016909 -0.179221,0.016909 z"
         style="font-style:normal;font-variant:normal;font-weight:normal;font-stretch:normal;font-size:10.5833px;font-family:Assinatura;-inkscape-font-specification:'Assinatura, Normal';font-variant-ligatures:normal;font-variant-caps:normal;font-variant-numeric:normal;font-variant-east-asian:normal;fill:#800000;stroke:#ffffff;stroke-width:0.563833;stroke-opacity:1"
         id="path29"
         sodipodi:nodetypes="cccsccsscccsccsscscccssccscscscsscsccc" />
      <path
         d="m 16.552228,-10.652556 c 0.09775,-0.398343 0.231718,-0.796686 0.401885,-1.19503 0.23896,-0.55242 0.429041,-0.828631 0.570243,-0.828631 0.01449,0 0.02716,0.0019 0.03801,0.0057 0.0507,0.0263 0.07604,0.06764 0.07604,0.124012 0,0.04509 -0.02716,0.09208 -0.08146,0.140925 -0.126721,0.116497 -0.286027,0.481018 -0.477917,1.093566 -0.07966,0.255541 -0.141204,0.488535 -0.184651,0.698981 l -0.0055,0.02255 c -0.02534,0.116497 -0.03801,0.212325 -0.03801,0.287484 0,0.08643 0.02354,0.12965 0.0706,0.12965 0.03621,0 0.0869,-0.02819 0.152065,-0.08455 0.329474,-0.308152 0.839976,-0.999616 1.53151,-2.074394 0.08328,-0.12777 0.135772,-0.204809 0.157495,-0.231114 0.253442,-0.338216 0.43085,-0.507325 0.532228,-0.507325 0.07966,0 0.119478,0.09019 0.119478,0.270574 0,0.236751 -0.06879,0.68019 -0.206373,1.330318 -0.07966,0.368279 -0.11948,0.591878 -0.11948,0.670796 0,0.04134 0.01087,0.062 0.03259,0.062 0.07966,0 0.360249,-0.22172 0.841788,-0.665159 0.286027,-0.266816 0.488779,-0.400223 0.608259,-0.400223 0.108618,0 0.162927,0.09395 0.162927,0.281846 0,0.09395 -0.01991,0.219842 -0.05974,0.377675 -0.03621,0.154078 -0.05431,0.293122 -0.05431,0.417134 0,0.199172 0.115859,0.298758 0.347577,0.298758 0.18465,0 0.452573,-0.04885 0.803771,-0.146561 0.492401,-0.139045 0.981181,-0.310032 1.46634,-0.512961 0.488779,-0.20293 0.807391,-0.36828 0.955836,-0.496051 0.02172,-0.01879 0.04164,-0.02818 0.05974,-0.02818 0.04345,0 0.06517,0.02066 0.06517,0.062 0,0.112739 -0.353008,0.323185 -1.059023,0.631337 -0.510503,0.22172 -1.010145,0.411497 -1.498925,0.56933 -0.485159,0.154076 -0.830926,0.231115 -1.0373,0.231115 l -0.07604,-0.0057 c -0.238959,-0.06013 -0.362059,-0.14468 -0.3693,-0.253663 -0.0072,-0.10898 -0.01086,-0.180381 -0.01086,-0.214204 0,-0.157833 0.02172,-0.323183 0.06517,-0.49605 0.03621,-0.157834 0.05432,-0.279968 0.05432,-0.366402 0,-0.02255 -0.0072,-0.03383 -0.02172,-0.03383 -0.03983,0 -0.13577,0.07328 -0.287836,0.21984 -0.387403,0.345733 -0.67524,0.593757 -0.863512,0.744076 -0.184651,0.146561 -0.313181,0.219841 -0.385593,0.219841 -0.07966,0 -0.119479,-0.0808 -0.119479,-0.242389 0,-0.195413 0.08508,-0.599393 0.255251,-1.211941 0.11948,-0.450956 0.17922,-0.725287 0.17922,-0.822994 0,-0.05636 -0.01087,-0.08455 -0.03259,-0.08455 -0.0507,0 -0.191895,0.169108 -0.423609,0.507324 -1.075316,1.559554 -1.552434,2.3109632 -1.849322,2.3109632 0,0 -0.544684,0.1778373 -0.285004,-0.8058982 z"
         style="font-style:normal;font-variant:normal;font-weight:normal;font-stretch:normal;font-size:10.5833px;font-family:Assinatura;-inkscape-font-specification:'Assinatura, Normal';font-variant-ligatures:normal;font-variant-caps:normal;font-variant-numeric:normal;font-variant-east-asian:normal;fill:#800000;stroke:#ffffff;stroke-width:0.563833;stroke-opacity:1"
         id="path31"
         sodipodi:nodetypes="ccscsccccsscccsscsscsscsscccssccccsscssccsscssccc" />
    </g>
  </g>
</svg>
