<?xml version="1.0" encoding="UTF-8" standalone="no"?>
<svg
   xmlns:dc="http://purl.org/dc/elements/1.1/"
   xmlns:cc="http://creativecommons.org/ns#"
   xmlns:rdf="http://www.w3.org/1999/02/22-rdf-syntax-ns#"
   xmlns:svg="http://www.w3.org/2000/svg"
   xmlns="http://www.w3.org/2000/svg"
   xmlns:sodipodi="http://sodipodi.sourceforge.net/DTD/sodipodi-0.dtd"
   xmlns:inkscape="http://www.inkscape.org/namespaces/inkscape"
   width="91mm"
   height="24mm"
   viewBox="0 0 91 24"
   version="1.1"
   id="svg8"
   inkscape:version="1.0.2 (e86c870879, 2021-01-15, custom)"
   sodipodi:docname="stream -  надпись.svg">
  <defs
     id="defs2">
    <rect
       x="1.5904548"
       y="6.6799102"
       width="75.228516"
       height="25.606323"
       id="rect17" />
    <rect
       x="27.037731"
       y="-42.624187"
       width="99.880562"
       height="34.671913"
       id="rect850" />
    <rect
       x="3.5987885"
       y="7.4225011"
       width="94.243271"
       height="34.413414"
       id="rect835" />
  </defs>
  <sodipodi:namedview
     id="base"
     pagecolor="#ffffff"
     bordercolor="#666666"
     borderopacity="1.0"
     inkscape:pageopacity="0.0"
     inkscape:pageshadow="2"
     inkscape:zoom="2.5810097"
     inkscape:cx="171.80549"
     inkscape:cy="43.992405"
     inkscape:document-units="mm"
     inkscape:current-layer="layer1"
     inkscape:document-rotation="0"
     showgrid="false"
     inkscape:window-width="1427"
     inkscape:window-height="860"
     inkscape:window-x="263"
     inkscape:window-y="126"
     inkscape:window-maximized="0" />
  <metadata
     id="metadata5">
    <rdf:RDF>
      <cc:Work
         rdf:about="">
        <dc:format>image/svg+xml</dc:format>
        <dc:type
           rdf:resource="http://purl.org/dc/dcmitype/StillImage" />
        <dc:title></dc:title>
      </cc:Work>
    </rdf:RDF>
  </metadata>
  <g
     inkscape:label="Слой 1"
     inkscape:groupmode="layer"
     id="layer1">
    <g
       aria-label="Stream"
       transform="matrix(2.0315437,0,0,1.933849,7.9445505,-12.422572)"
       id="text15"
       style="font-style:normal;font-variant:normal;font-weight:normal;font-stretch:normal;font-size:10.5833px;line-height:1.25;font-family:Akaju;-inkscape-font-specification:'Akaju, Normal';font-variant-ligatures:normal;font-variant-caps:normal;font-variant-numeric:normal;font-variant-east-asian:normal;white-space:pre;shape-inside:url(#rect17);fill:#ffffff;fill-opacity:1;stroke:none;stroke-width:0.504517">
      <path
         d="m 7.7031462,8.8462978 c 0.1998149,0 0.3582888,0.062012 0.4754217,0.1860346 0.1205779,0.124023 0.1808669,0.2824969 0.1808669,0.4754216 0,0.1343583 -0.029283,0.2514912 -0.08785,0.3513986 C 8.1613421,10.069303 7.9718624,10.174378 7.7031458,10.174378 H 4.0444665 c -0.2480461,0 -0.4564738,0.08268 -0.6252829,0.248046 -0.1688091,0.161919 -0.2532137,0.366901 -0.2532137,0.614948 0,0.248046 0.084405,0.454751 0.2532137,0.620115 0.1688091,0.165364 0.3772368,0.248046 0.6252829,0.248046 h 2.7698479 c 0.6028898,0.0035 1.1162074,0.220507 1.5399528,0.651121 0.4203003,0.423745 0.6304505,0.93534 0.6304505,1.534785 0,0.530543 -0.1946473,1.024912 -0.5839419,1.483109 C 7.9977009,16.049969 7.530892,16.28768 7.000349,16.28768 h -7.76539579 c -0.19981487,0 -0.36001131,-0.06201 -0.48058921,-0.186034 -0.120578,-0.120578 -0.180867,-0.280775 -0.180867,-0.48059 0,-0.127468 0.029283,-0.244601 0.08785,-0.351398 0.1136878,-0.21015 0.30489,-0.315225 0.57360651,-0.315225 H 6.8504881 c 0.2239305,0 0.4168552,-0.08613 0.5787742,-0.258382 0.1584739,-0.172254 0.2377108,-0.373791 0.2377108,-0.604612 0,-0.244601 -0.084405,-0.447861 -0.2532137,-0.60978 C 7.2518403,13.316295 7.0485802,13.233613 6.8039792,13.233613 H 4.0444665 c -0.60978,0 -1.1265427,-0.215318 -1.5502881,-0.645953 -0.4306355,-0.423746 -0.6459533,-0.940509 -0.6459533,-1.550288 0,-0.606335 0.2153178,-1.1230982 0.6459533,-1.5502885 C 2.9179238,9.059893 3.4346865,8.8462978 4.0444665,8.8462978 Z"
         style="font-style:normal;font-variant:normal;font-weight:normal;font-stretch:normal;font-size:10.5833px;font-family:Akaju;-inkscape-font-specification:'Akaju, Normal';font-variant-ligatures:normal;font-variant-caps:normal;font-variant-numeric:normal;font-variant-east-asian:normal;fill:#ffffff;stroke-width:0.504517"
         id="path15"
         sodipodi:nodetypes="scscsscsssccscsscscsscscsscscss" />
      <path
         d="m 12.596889,16.28768 q -0.82682,0 -1.539953,-0.480589 -0.769976,-0.506427 -0.91467,-1.286739 l -0.07751,-1.317745 0.0052,-1.049028 H 9.966567 q -0.2532138,0 -0.4340807,-0.175699 -0.1860346,-0.180867 -0.1860346,-0.444416 0,-0.253214 0.1860346,-0.434081 0.1808669,-0.186035 0.4340807,-0.186035 h 0.103352 V 9.4715806 q 0,-0.2532137 0.180867,-0.4392482 0.180867,-0.180867 0.439249,-0.180867 0.258381,0 0.43408,0.1860346 0.186035,0.1808669 0.186035,0.4340806 l -0.0052,1.4417674 h 0.852659 q 0.253213,0 0.43408,0.186035 0.186035,0.180867 0.186035,0.434081 0,0.263549 -0.186035,0.444416 -0.180867,0.175699 -0.43408,0.175699 H 11.30495 v 1.049028 q 0,0.05684 -0.0052,0.372069 -0.0052,0.118856 -0.0052,0.211873 0,0.09818 0.0052,0.175699 0.03617,0.449584 0.284219,0.671792 0.439248,0.41341 1.012855,0.41341 0.258381,0 0.439248,0.175699 0.180867,0.186035 0.180867,0.444416 0,0.258381 -0.180867,0.439248 -0.180867,0.180867 -0.439248,0.180867 z"
         style="font-style:normal;font-variant:normal;font-weight:normal;font-stretch:normal;font-size:10.5833px;font-family:Akaju;-inkscape-font-specification:'Akaju, Normal';font-variant-ligatures:normal;font-variant-caps:normal;font-variant-numeric:normal;font-variant-east-asian:normal;fill:#ffffff;stroke-width:0.504517"
         id="path17" />
      <path
         d="m 13.837119,11.533464 q 0,-0.253214 0.186035,-0.434081 0.180867,-0.186035 0.43408,-0.186035 0.465087,0 0.594277,0.449584 0.676959,-0.439248 1.472774,-0.449584 0.258381,0 0.439248,0.186035 0.180867,0.180867 0.180867,0.434081 0,0.263549 -0.180867,0.444416 -0.180867,0.175699 -0.439248,0.175699 -0.604612,0 -1.02319,0.428913 -0.206705,0.206705 -0.310058,0.459919 -0.04651,0.103352 -0.113688,0.558103 v 2.067051 q 0,0.258381 -0.180866,0.439248 -0.180867,0.180867 -0.439249,0.180867 -0.253213,0 -0.43408,-0.180867 -0.186035,-0.180867 -0.186035,-0.439248 z"
         style="font-style:normal;font-variant:normal;font-weight:normal;font-stretch:normal;font-size:10.5833px;font-family:Akaju;-inkscape-font-specification:'Akaju, Normal';font-variant-ligatures:normal;font-variant-caps:normal;font-variant-numeric:normal;font-variant-east-asian:normal;fill:#ffffff;stroke-width:0.504517"
         id="path19" />
      <path
         d="m 19.211451,14.675381 q 0.08268,0.07751 0.1757,0.134358 0.330728,0.227376 0.749306,0.248046 h 0.04651 q 0.387572,0 0.723468,-0.186034 0.237711,-0.139526 0.511595,-0.496093 0.139526,-0.21704 0.387572,-0.279051 0.07235,-0.02067 0.144694,-0.02067 0.175699,0 0.32556,0.09302 0.21704,0.134359 0.273884,0.382405 0.0155,0.08268 0.0155,0.155029 0,0.170531 -0.09302,0.320392 -0.50126,0.661457 -0.956011,0.919838 -0.604612,0.341063 -1.291907,0.341063 -0.19637,0 -0.392739,-0.02067 -0.904335,-0.124023 -1.539953,-0.759641 -0.351399,-0.351399 -0.558104,-0.811318 -0.0155,-0.03617 -0.03101,-0.07235 -0.0155,-0.04134 -0.03101,-0.08268 -0.165365,-0.470254 -0.165365,-0.93534 0,-0.527098 0.211873,-1.038693 0.310058,-0.744138 0.992185,-1.183386 0.656288,-0.418578 1.483108,-0.459919 h 0.09302 q 0.728635,0 1.379756,0.449583 0.651121,0.449584 0.992184,1.183387 0.0052,0.02067 0.02067,0.04134 0,0.01034 0.0052,0.0155 v 0.01033 l 0.0052,0.0052 v 0.0155 q 0.0052,0.0052 0.0052,0.01034 v 0.0052 q 0.01034,0.01034 0.01034,0.0155 v 0.01033 q 0.0052,0.0052 0.0052,0.02067 v 0.01034 h 0.0052 v 0.03101 q 0.0052,0.02067 0.0052,0.03101 v 0.124023 q -0.0052,0.0052 -0.0052,0.0155 v 0.03101 q -0.0052,0.0155 -0.01034,0.03617 v 0.0052 q 0,0.0052 -0.01034,0.01034 v 0.0155 q -0.0052,0.0052 -0.0052,0.0155 l -0.0052,0.0155 q 0,0.0052 -0.0052,0.01034 0,0.0052 -0.0052,0.0155 l -0.01033,0.01034 v 0.0052 l -0.0052,0.0155 -0.0052,0.01034 -0.0052,0.01033 -0.0052,0.0155 q 0,0.0052 -0.01034,0.01033 0,0.0052 -0.0052,0.0155 -0.0052,0.0052 -0.01034,0.01033 l -0.0052,0.01033 -0.0155,0.0155 -0.0052,0.01033 -0.01034,0.0155 q 0,0.0052 -0.01033,0.01034 -0.01034,0.01034 -0.0155,0.02067 l -0.0155,0.01033 q -0.0052,0.0052 -0.01034,0.01034 l -0.0052,0.01033 -0.0052,0.0052 -0.01034,0.0052 q -0.0052,0.0052 -0.01033,0.01034 l -0.01034,0.01034 q -0.01034,0.0052 -0.0155,0.01033 -0.01034,0.0052 -0.02584,0.02067 l -0.01034,0.0052 q -0.0052,0.0052 -0.01034,0.0052 -0.01034,0.0052 -0.02067,0.0052 v 0.0052 l -0.01034,0.01033 q -0.01033,0 -0.0155,0.0052 -0.0052,0.0052 -0.01034,0.0052 -0.0052,0.0052 -0.02067,0.0052 -0.0052,0.0052 -0.01033,0.0052 z m 1.953363,-2.129062 q -0.335896,-0.310058 -0.764809,-0.366902 -0.113687,-0.0155 -0.227375,-0.0155 -0.749306,0 -1.178219,0.640786 -0.222208,0.320393 -0.242878,0.7183 z"
         style="font-style:normal;font-variant:normal;font-weight:normal;font-stretch:normal;font-size:10.5833px;font-family:Akaju;-inkscape-font-specification:'Akaju, Normal';font-variant-ligatures:normal;font-variant-caps:normal;font-variant-numeric:normal;font-variant-east-asian:normal;fill:#ffffff;stroke-width:0.504517"
         id="path21" />
      <path
         d="m 25.924198,12.153579 q -0.589109,0.01033 -1.018022,0.428913 -0.428913,0.428913 -0.428913,1.018022 0,0.506428 0.330728,0.909503 0.32556,0.403075 0.821653,0.506427 0.155028,0.03101 0.299722,0.03101 0.41341,0 0.785479,-0.242879 0.511595,-0.330728 0.620115,-0.914669 0.03101,-0.160197 0.03101,-0.310058 0,-0.480589 -0.32556,-0.883664 -0.444416,-0.532266 -1.116208,-0.542601 z m 0.0155,-1.240231 q 1.090369,0.0155 1.881016,0.800983 0.78548,0.795814 0.78548,1.886183 v 2.067051 q 0,0.258381 -0.180867,0.439248 -0.186035,0.180867 -0.439249,0.180867 -0.459918,0 -0.594277,-0.444416 -0.428913,0.289388 -0.930173,0.387572 -0.279051,0.05684 -0.552936,0.05684 -0.759641,0 -1.45727,-0.454751 -0.940508,-0.614947 -1.157549,-1.694981 -0.05684,-0.268717 -0.05684,-0.537434 0,-0.640785 0.310058,-1.235062 0.439248,-0.852659 1.30741,-1.224728 0.511595,-0.21704 1.069698,-0.227376 z"
         style="font-style:normal;font-variant:normal;font-weight:normal;font-stretch:normal;font-size:10.5833px;font-family:Akaju;-inkscape-font-specification:'Akaju, Normal';font-variant-ligatures:normal;font-variant-caps:normal;font-variant-numeric:normal;font-variant-east-asian:normal;fill:#ffffff;stroke-width:0.504517"
         id="path23" />
      <path
         d="m 29.484693,11.533464 q 0,-0.253214 0.180866,-0.434081 0.180867,-0.186035 0.439249,-0.186035 0.459919,0 0.589109,0.449584 0.687295,-0.449584 1.19889,-0.449584 0.273884,0 0.558103,0.05684 0.651121,0.186035 1.255734,0.925006 0.558103,-0.661457 1.410762,-0.888832 0.351398,-0.08268 0.692462,-0.08268 0.501259,0 0.992184,0.19637 0.847491,0.480589 1.121375,1.266068 0.227376,0.630451 0.227376,1.214392 v 2.067051 q 0,0.258381 -0.180867,0.439248 -0.1757,0.180867 -0.439249,0.180867 -0.253213,0 -0.43408,-0.180867 -0.180867,-0.180867 -0.180867,-0.439248 v -2.067051 q -0.0052,-0.43408 -0.144694,-0.785479 -0.139526,-0.356566 -0.444416,-0.547768 -0.263549,-0.113688 -0.537433,-0.113688 -0.144693,0 -0.289387,0.03101 -0.434081,0.08785 -0.738971,0.392739 -0.206705,0.206705 -0.310057,0.459919 -0.05168,0.10852 -0.118856,0.563271 v 2.067051 q 0,0.258381 -0.180867,0.439248 -0.180866,0.180867 -0.439248,0.180867 -0.253213,0 -0.43408,-0.180867 -0.180867,-0.180867 -0.180867,-0.439248 v -2.067051 q -0.07751,-0.997352 -0.625283,-1.333247 -0.268717,-0.113688 -0.547769,-0.113688 -0.144693,0 -0.289387,0.03101 -0.392739,0.113687 -0.640785,0.439248 -0.242879,0.32556 -0.273885,0.976681 v 2.067051 q 0,0.258381 -0.180867,0.439248 -0.180867,0.180867 -0.43408,0.180867 -0.258382,0 -0.439249,-0.180867 -0.180866,-0.180867 -0.180866,-0.439248 z"
         style="font-style:normal;font-variant:normal;font-weight:normal;font-stretch:normal;font-size:10.5833px;font-family:Akaju;-inkscape-font-specification:'Akaju, Normal';font-variant-ligatures:normal;font-variant-caps:normal;font-variant-numeric:normal;font-variant-east-asian:normal;fill:#ffffff;stroke-width:0.504517"
         id="path25" />
    </g>
  </g>
</svg>
