<?xml version="1.0" encoding="UTF-8" standalone="no"?>
<svg
   xmlns:dc="http://purl.org/dc/elements/1.1/"
   xmlns:cc="http://creativecommons.org/ns#"
   xmlns:rdf="http://www.w3.org/1999/02/22-rdf-syntax-ns#"
   xmlns:svg="http://www.w3.org/2000/svg"
   xmlns="http://www.w3.org/2000/svg"
   xmlns:sodipodi="http://sodipodi.sourceforge.net/DTD/sodipodi-0.dtd"
   xmlns:inkscape="http://www.inkscape.org/namespaces/inkscape"
   width="91mm"
   height="24mm"
   viewBox="0 0 91 24"
   version="1.1"
   id="svg8"
   inkscape:version="1.0.2 (e86c870879, 2021-01-15, custom)"
   sodipodi:docname="stream -  надпись 2.svg">
  <defs
     id="defs2">
    <rect
       x="3.627317"
       y="4.8364226"
       width="83.126014"
       height="15.113821"
       id="rect844" />
    <rect
       x="-11.374326"
       y="-19.905071"
       width="70.831032"
       height="18.741788"
       id="rect19" />
    <rect
       x="1.5904548"
       y="6.6799102"
       width="75.228516"
       height="25.606323"
       id="rect17" />
    <rect
       x="27.037731"
       y="-42.624187"
       width="99.880562"
       height="34.671913"
       id="rect850" />
    <rect
       x="3.5987885"
       y="7.4225011"
       width="94.243271"
       height="34.413414"
       id="rect835" />
  </defs>
  <sodipodi:namedview
     id="base"
     pagecolor="#ffffff"
     bordercolor="#666666"
     borderopacity="1.0"
     inkscape:pageopacity="0.0"
     inkscape:pageshadow="2"
     inkscape:zoom="1.2378648"
     inkscape:cx="158.0502"
     inkscape:cy="-21.212736"
     inkscape:document-units="mm"
     inkscape:current-layer="svg8"
     inkscape:document-rotation="0"
     showgrid="false"
     inkscape:window-width="1427"
     inkscape:window-height="851"
     inkscape:window-x="263"
     inkscape:window-y="135"
     inkscape:window-maximized="0"
     inkscape:snap-text-baseline="true" />
  <metadata
     id="metadata5">
    <rdf:RDF>
      <cc:Work
         rdf:about="">
        <dc:format>image/svg+xml</dc:format>
        <dc:type
           rdf:resource="http://purl.org/dc/dcmitype/StillImage" />
        <dc:title />
      </cc:Work>
    </rdf:RDF>
  </metadata>
  <g
     aria-label="Stream"
     transform="matrix(3.1097726,0,0,1.8513623,-6.7987089,-4.0083407)"
     id="text842"
     style="font-style:normal;font-variant:normal;font-weight:normal;font-stretch:normal;font-size:10.5833px;line-height:1.25;font-family:Andora;-inkscape-font-specification:'Andora, Normal';font-variant-ligatures:normal;font-variant-caps:normal;font-variant-numeric:normal;font-variant-east-asian:normal;white-space:pre;shape-inside:url(#rect844);fill:#ffffff;fill-opacity:1;stroke:none;stroke-width:0.416764">
    <path
       d="m 8.9031001,13.050841 q 0.1085201,0 0.4650864,-0.03101 0.3617338,-0.03101 0.9146695,-0.30489 0.992185,-0.511595 1.338416,-1.348751 0.310057,-0.754473 0.310057,-1.6329699 0,-0.9508434 -0.196369,-2.2117443 l -0.05684,-0.4082425 q 0.84749,-1.0955369 1.018022,-1.8396752 0.06718,-0.3048899 0.06718,-0.5322655 0,-0.3358958 -0.144693,-0.5167627 -0.139526,-0.1860346 -0.330728,-0.1860346 -0.124023,0 -0.387572,0.1446936 -0.258382,0.1395259 -0.496093,0.9301728 -0.134358,0.4495835 -0.134358,1.1162074 0,0.5064274 0.07752,1.1317103 Q 10.918475,7.8418737 10.401712,8.2759543 10.257018,8.0072377 10.03481,7.8057003 9.5800592,7.3974578 9.0116202,7.3974578 q -0.940508,0 -1.6691434,1.0955368 -0.5477685,0.8681613 -0.6149476,1.7931664 -0.6046123,0.165364 -1.121375,0.165364 -0.2170403,0 -0.4185778,-0.03101 Q 4.4692763,10.301664 4.1695539,9.9037567 3.8956697,9.5471905 3.8956697,9.0769365 q 0,-0.046509 0.015503,-0.3358958 Q 3.9318431,8.4516536 4.210895,7.9348909 4.4951144,7.4129606 4.944698,7.0460591 5.5028016,6.6016432 6.3916335,6.2140712 7.2856329,5.8264992 8.226141,5.6507999 q 0.4599187,-0.08785 0.8681613,-0.08785 1.1782187,0 1.6536407,0.6614563 0.01034,0.015503 0.04134,0.015503 0.03617,0 0.03617,-0.031006 0,-0.025838 -0.0052,-0.036173 -0.563272,-0.775144 -2.2530857,-0.775144 -0.6872943,0 -1.7414902,0.2687166 Q 5.7715182,5.9298517 4.7173224,6.7670073 4.1540511,7.2269261 3.8749992,7.8160355 3.6269531,8.3327982 3.6269531,8.8392256 q 0,0.067179 0.020671,0.387572 0.02067,0.3203929 0.3979073,0.7389707 0.3772367,0.4185777 1.1265426,0.5477687 0.2015375,0.02584 0.4185778,0.02584 0.5219303,0 1.1317103,-0.160197 l -0.00517,0.206705 q 0,0.857827 0.3927397,1.50378 0.6097799,0.961178 1.7931665,0.961178 z M 8.5723719,12.854472 q -0.2790518,0 -0.6511209,-0.113688 -0.3720692,-0.118856 -0.7389707,-0.69763 -0.3772367,-0.63045 -0.3772367,-1.477941 l 0.00517,-0.206705 q 1.8758485,-0.5426009 3.5604948,-1.9378601 0.175699,0.3669015 0.175699,0.7699763 0,0.2997224 -0.144693,0.7751441 -0.139526,0.4702537 -0.7803118,1.0800337 -0.010335,0.01034 -0.010335,0.03617 0,0.04134 0.041341,0.04134 0.015503,0 0.031006,-0.01034 0.6614563,-0.63045 0.8526583,-1.2712358 0.09818,-0.3410634 0.09818,-0.6562886 0,-0.428913 -0.191202,-0.8268203 0.50126,-0.4185777 0.919837,-0.8784965 l 0.0155,0.08785 q 0.186035,1.1833866 0.186035,2.0722184 0,0.7958142 -0.279052,1.5296172 -0.279052,0.728636 -1.147213,1.204057 -0.5322657,0.28422 -1.0748665,0.418578 -0.2532137,0.06201 -0.4909246,0.06201 z M 6.8205465,10.260323 Q 6.8928932,9.3766588 7.4148236,8.5395033 8.1176208,7.490475 9.001285,7.490475 q 0.5426008,0 0.9715138,0.3824044 Q 10.189839,8.0692492 10.329365,8.3379658 9.8229376,8.7565436 9.2596663,9.1182775 8.1796323,9.8159071 7.1047659,10.172473 6.9600724,10.22415 6.8205465,10.260323 Z M 11.662613,6.9892152 q -0.06201,-0.5581037 -0.06201,-0.9921843 0,-0.5115951 0.129191,-1.0025196 0.129191,-0.4960922 0.39274,-0.6304505 0.08268,-0.046509 0.155028,-0.046509 0.155029,0 0.258382,0.1963698 0.07235,0.1343583 0.07235,0.3513986 0,0.2377109 -0.12919,0.7234678 -0.124023,0.4857569 -0.816485,1.4004268 z"
       style="font-style:normal;font-variant:normal;font-weight:normal;font-stretch:normal;font-size:10.5833px;font-family:Andora;-inkscape-font-specification:'Andora, Normal';font-variant-ligatures:normal;font-variant-caps:normal;font-variant-numeric:normal;font-variant-east-asian:normal;stroke-width:0.416764;fill:#ffffff"
       id="path854" />
    <path
       d="m 13.125051,13.231708 q 0.0155,0 0.201537,-0.02067 0.186035,-0.0155 0.878497,-0.837156 0.52193,-0.651121 0.899167,-1.565791 l 0.0052,-0.02067 q 0,-0.04651 -0.04651,-0.04651 -0.03101,0 -0.04134,0.03101 -0.372069,0.904335 -0.888832,1.54512 -0.527098,0.625283 -0.790647,0.625283 -0.0155,0 -0.155028,-0.02067 -0.134359,-0.02584 -0.170532,-0.552936 -0.0052,-0.129191 -0.0052,-0.268717 0,-0.940508 0.372069,-2.6406572 0.387572,-1.7673283 0.578775,-2.2169119 0.0155,-0.036173 0.0155,-0.072347 0,-0.1085202 -0.113687,-0.1601965 -0.03617,-0.015503 -0.06718,-0.015503 -0.03617,0 -0.08785,0.020671 -0.10852,0.046509 -0.387572,1.0903692 -0.191202,0.7131325 -0.366902,1.5967967 -0.289387,1.4779417 -0.289387,2.4184497 0,0.356566 0.04651,0.63045 0.08785,0.480589 0.41341,0.480589 z m 4.842066,-4.6043551 q 0.04134,0 0.04134,-0.046509 Q 17.98262,8.1984399 17.502031,8.017573 16.835407,7.7643593 15.429813,7.7643593 q -0.60978,0 -1.607132,0.072347 l -0.268717,0.02067 q -0.129191,0.00517 -0.372069,0.025838 -1.090369,0.1033525 -1.989536,0.1033525 -0.335896,0 -0.868162,-0.025838 Q 9.7919317,7.9348909 9.3268453,7.754024 8.9134352,7.5886599 8.9134352,7.2527642 l 0.00517,-0.082682 q 0,-0.031006 -0.041341,-0.041341 -0.015503,0 -0.036173,0.015503 -0.02067,0.015503 -0.02067,0.1240231 0,0.9456757 2.7956861,0.9456757 0.831988,0 1.679479,-0.072347 0.170531,-0.010335 0.273884,-0.015503 0.10852,-0.00517 0.32556,-0.025838 1.116208,-0.093017 1.979201,-0.093017 0.222208,0 0.666624,0.015503 0.444416,0.010335 0.899167,0.1395259 0.454751,0.1291907 0.48059,0.4237454 0,0.041341 0.04651,0.041341 z"
       style="font-style:normal;font-variant:normal;font-weight:normal;font-stretch:normal;font-size:10.5833px;font-family:Andora;-inkscape-font-specification:'Andora, Normal';font-variant-ligatures:normal;font-variant-caps:normal;font-variant-numeric:normal;font-variant-east-asian:normal;stroke-width:0.416764;fill:#ffffff"
       id="path856" />
    <path
       d="m 15.822552,10.606554 q -0.118855,-0.211873 -0.118855,-0.459919 0,-0.10852 0.03101,-0.2118725 0.03617,-0.1033525 0.139526,-0.2118727 0.175699,-0.1912022 0.30489,-0.1912022 0.08785,0 0.08785,0.1136878 0,0.072347 -0.04134,0.2067051 -0.139526,0.4082425 -0.403075,0.7544735 z m 0.744139,2.444287 q 0.201537,0 0.501259,-0.206705 0.299723,-0.211872 0.558104,-0.470254 0.69763,-0.687294 1.126543,-1.565791 l 0.0052,-0.02067 q 0,-0.0052 -0.01034,-0.02067 -0.01034,-0.02067 -0.04134,-0.02067 -0.02584,0 -0.03101,0.02584 -0.428913,0.862994 -1.116207,1.539953 -0.542601,0.542601 -0.780312,0.542601 -0.170531,0 -0.170531,-0.315226 0,-0.361733 0.196369,-0.966346 0.144694,-0.444416 0.299723,-0.873329 0.284219,-0.671791 0.289387,-1.0541956 0,-0.2067051 -0.165364,-0.263549 h -0.01034 q -0.170532,0 -0.728636,0.6717916 -0.356566,0.423745 -0.604612,0.620115 0.124023,-0.160196 0.237711,-0.377237 0.242878,-0.4392479 0.242878,-0.7338026 0,-0.3100576 -0.310057,-0.3100576 -0.118856,0 -0.330729,0.1085201 -0.206705,0.1085202 -0.335895,0.4650864 -0.04651,0.1498612 -0.04651,0.3100577 0,0.113688 0.02584,0.232543 0.103353,0.547769 0.341064,0.547769 0,0 0.124023,-0.0052 0.124023,-0.0052 0.397907,-0.289387 0.273884,-0.289387 0.490924,-0.578774 0.232544,-0.3100579 0.273885,-0.3100579 0.0155,0 0.0155,0.036173 0,0.1240231 -0.242879,0.8113176 -0.165364,0.43408 -0.310058,0.899167 -0.196369,0.625283 -0.196369,1.049028 0,0.459919 0.201537,0.506428 0.04651,0.0155 0.103353,0.0155 z"
       style="font-style:normal;font-variant:normal;font-weight:normal;font-stretch:normal;font-size:10.5833px;font-family:Andora;-inkscape-font-specification:'Andora, Normal';font-variant-ligatures:normal;font-variant-caps:normal;font-variant-numeric:normal;font-variant-east-asian:normal;stroke-width:0.416764;fill:#ffffff"
       id="path858" />
    <path
       d="m 19.331371,13.081847 q 0.279052,0 0.687295,-0.180867 1.007687,-0.449583 1.756993,-2.092889 v -0.0155 q 0,-0.04651 -0.04651,-0.04651 -0.02584,0 -0.03617,0.02584 -0.434081,0.961179 -0.940508,1.477941 -0.279052,0.289387 -0.702798,0.444416 -0.258381,0.09302 -0.490924,0.09302 -0.160197,0 -0.418578,-0.07235 -0.253214,-0.07235 -0.361734,-0.573607 -0.02067,-0.118855 -0.02067,-0.248046 l 0.0052,-0.149861 q 0.490925,0 1.069699,-0.258381 0.423745,-0.19637 0.713132,-0.48059 0.299723,-0.32556 0.299723,-0.614947 0,-0.06718 -0.05168,-0.268717 -0.05168,-0.206705 -0.439249,-0.3255604 -0.124023,-0.041341 -0.258381,-0.041341 -0.294555,0 -0.656289,0.1860345 -0.372069,0.2118729 -0.63045,0.6149479 -0.41341,0.645953 -0.41341,1.333247 0,0.160197 0.02584,0.315226 0.144693,0.687294 0.568439,0.82682 0.165364,0.05168 0.341063,0.05168 z m -0.558104,-1.431432 q 0.06718,-0.475422 0.325561,-0.888832 0.211873,-0.335896 0.511595,-0.506428 0.454751,-0.23771 0.738971,-0.23771 0.05684,0 0.242878,0.03617 0.186035,0.03617 0.186035,0.320393 0,0.253213 -0.294555,0.568439 -0.279052,0.273884 -0.692462,0.459919 -0.552936,0.248046 -1.018023,0.248046 z"
       style="font-style:normal;font-variant:normal;font-weight:normal;font-stretch:normal;font-size:10.5833px;font-family:Andora;-inkscape-font-specification:'Andora, Normal';font-variant-ligatures:normal;font-variant-caps:normal;font-variant-numeric:normal;font-variant-east-asian:normal;stroke-width:0.416764;fill:#ffffff"
       id="path860" />
    <path
       d="m 24.12176,13.092182 q 0.21704,0 0.50126,-0.23771 0.289387,-0.237711 0.50126,-0.547769 0.454751,-0.682127 0.682126,-1.503779 v -0.0155 q 0,-0.01033 -0.01033,-0.02584 -0.01034,-0.0155 -0.03617,-0.0155 -0.03101,0 -0.04134,0.03101 -0.227376,0.811317 -0.671792,1.477941 -0.160196,0.237711 -0.382404,0.397907 -0.165364,0.118856 -0.30489,0.118856 -0.04651,0 -0.155029,-0.02584 -0.10852,-0.03101 -0.139526,-0.423745 l -0.0052,-0.113688 q 0,-0.397907 0.124023,-1.069698 0.05168,-0.279052 0.05168,-0.351399 0,-0.06718 -0.05168,-0.118855 -0.05168,-0.05684 -0.134358,-0.05684 -0.06201,0 -0.113688,0.04651 -0.05168,0.04134 -0.06201,0.129191 -0.01034,0.08268 -0.06201,0.232543 -0.242878,0.7183 -0.925005,1.410762 -0.366901,0.351399 -0.723468,0.351399 -0.02584,0 -0.222208,-0.01034 -0.196369,-0.0155 -0.30489,-0.583942 -0.01033,-0.07752 -0.01033,-0.155029 0,-0.341063 0.191202,-0.744138 0.191203,-0.403075 0.547769,-0.754474 0.356566,-0.356566 0.749306,-0.50126 0.165364,-0.056843 0.315225,-0.056843 0.206705,0 0.39274,0.1085205 0.351398,0.237711 0.459918,0.713132 0.01034,0.03617 0.04134,0.03617 0.0052,0 0.0155,0 0.0155,-0.0052 0.02067,-0.0155 0.01034,-0.0155 0.01034,-0.02584 v -0.01034 q -0.103353,-0.506427 -0.50126,-0.775144 -0.330728,-0.2067048 -0.666624,-0.2067048 -0.144693,0 -0.454751,0.077514 -0.310057,0.077514 -0.707965,0.4650864 -0.392739,0.382404 -0.60978,0.893999 -0.165364,0.397908 -0.165364,0.780312 0,0.10852 0.0155,0.222208 0.09818,0.583942 0.377237,0.728635 0.134358,0.07235 0.284219,0.07235 0.449584,0 1.007688,-0.547768 0.485757,-0.506428 0.82682,-1.080034 -0.07235,0.397907 -0.07235,0.785479 l 0.0052,0.144694 q 0.05168,0.671791 0.310057,0.73897 0.04651,0.01033 0.103353,0.01033 z"
       style="font-style:normal;font-variant:normal;font-weight:normal;font-stretch:normal;font-size:10.5833px;font-family:Andora;-inkscape-font-specification:'Andora, Normal';font-variant-ligatures:normal;font-variant-caps:normal;font-variant-numeric:normal;font-variant-east-asian:normal;stroke-width:0.416764;fill:#ffffff"
       id="path862" />
    <path
       d="m 28.943156,13.112853 q 0.346231,0 0.987017,-1.090369 0.299722,-0.537433 0.501259,-1.21956 v -0.0155 q 0,-0.01033 -0.01034,-0.02584 -0.01034,-0.0155 -0.03617,-0.0155 -0.03617,0 -0.04134,0.03101 -0.191203,0.666624 -0.490925,1.193721 -0.465086,0.831988 -0.635618,0.831988 -0.07235,0 -0.07235,-0.170531 0,-0.217041 0.129191,-0.759641 0.263549,-1.064532 0.263549,-1.508947 0,-0.113688 -0.01034,-0.217041 -0.08785,-0.4599186 -0.30489,-0.4599186 -0.02067,0 -0.160197,0.031006 -0.134358,0.025838 -0.43408,0.3617338 -0.299723,0.335896 -0.537434,0.702797 -0.232543,0.366902 -0.294554,0.50126 0.09302,-0.485757 0.09302,-0.847491 0,-0.175699 -0.02067,-0.320393 -0.09302,-0.3927392 -0.294554,-0.3927392 h -0.10852 q -0.108521,0.00517 -0.356567,0.2325432 -0.707965,0.656289 -1.162716,1.819005 0.139526,-1.214393 0.289387,-1.819005 l 0.0052,-0.046509 q 0,-0.051676 -0.03101,-0.098185 -0.05168,-0.077514 -0.160196,-0.077514 -0.129191,0 -0.165364,0.1343583 -0.160197,0.6717916 -0.330728,2.1549006 -0.08268,0.697629 -0.08268,0.800982 0,0.263549 0.12919,0.263549 0.05168,0 0.09819,-0.0155 0.103353,-0.03617 0.134358,-0.263549 0.04651,-0.568439 0.191203,-0.997352 0.32556,-0.940508 0.976681,-1.555456 0.237711,-0.222208 0.372069,-0.222208 0.103353,0 0.144694,0.155029 0.0155,0.113688 0.0155,0.258382 0,0.547768 -0.335896,1.912021 -0.113688,0.423746 -0.113688,0.527098 0,0.07235 0.04134,0.134359 0.04134,0.06201 0.129191,0.06201 0.144693,0 0.19637,-0.227375 l 0.08268,-0.37207 q 0.08785,-0.361733 0.32556,-0.862993 0.237711,-0.506428 0.516763,-0.950843 0.279052,-0.449584 0.506427,-0.625283 0.07235,-0.056844 0.129191,-0.056844 0.113688,0 0.160196,0.2170402 0.01034,0.07751 0.01034,0.170532 0,0.372069 -0.253214,1.410762 -0.149861,0.60978 -0.149861,0.930173 l 0.01033,0.201537 q 0.0052,0.19637 0.155029,0.19637 z"
       style="font-style:normal;font-variant:normal;font-weight:normal;font-stretch:normal;font-size:10.5833px;font-family:Andora;-inkscape-font-specification:'Andora, Normal';font-variant-ligatures:normal;font-variant-caps:normal;font-variant-numeric:normal;font-variant-east-asian:normal;stroke-width:0.416764;fill:#ffffff"
       id="path864" />
  </g>
</svg>
