<?xml version="1.0" encoding="UTF-8" standalone="no"?>
<svg
   xmlns:dc="http://purl.org/dc/elements/1.1/"
   xmlns:cc="http://creativecommons.org/ns#"
   xmlns:rdf="http://www.w3.org/1999/02/22-rdf-syntax-ns#"
   xmlns:svg="http://www.w3.org/2000/svg"
   xmlns="http://www.w3.org/2000/svg"
   xmlns:sodipodi="http://sodipodi.sourceforge.net/DTD/sodipodi-0.dtd"
   xmlns:inkscape="http://www.inkscape.org/namespaces/inkscape"
   width="113mm"
   height="92mm"
   viewBox="0 0 113 92"
   version="1.1"
   id="svg8"
   inkscape:version="1.0.2 (e86c870879, 2021-01-15, custom)"
   sodipodi:docname="stream - значок 2.svg">
  <defs
     id="defs2">
    <rect
       x="13.869593"
       y="89.638664"
       width="117.37785"
       height="21.318077"
       id="rect1138" />
    <rect
       x="25.258244"
       y="-21.708435"
       width="59.254475"
       height="13.926167"
       id="rect843" />
    <rect
       x="3.627317"
       y="4.8364224"
       width="83.126015"
       height="15.113821"
       id="rect844" />
    <rect
       x="-11.374326"
       y="-19.905071"
       width="70.831032"
       height="18.741789"
       id="rect19" />
    <rect
       x="1.5904548"
       y="6.6799102"
       width="75.228516"
       height="25.606323"
       id="rect17" />
    <rect
       x="27.037731"
       y="-42.624187"
       width="99.880562"
       height="34.671913"
       id="rect850" />
    <rect
       x="3.5987885"
       y="7.4225011"
       width="94.243271"
       height="34.413414"
       id="rect835" />
  </defs>
  <sodipodi:namedview
     id="base"
     pagecolor="#ffffff"
     bordercolor="#666666"
     borderopacity="1.0"
     inkscape:pageopacity="0.0"
     inkscape:pageshadow="2"
     inkscape:zoom="0.90436699"
     inkscape:cx="-7.2450742"
     inkscape:cy="-46.155503"
     inkscape:document-units="mm"
     inkscape:current-layer="layer6"
     inkscape:document-rotation="0"
     showgrid="false"
     inkscape:window-width="1496"
     inkscape:window-height="830"
     inkscape:window-x="358"
     inkscape:window-y="109"
     inkscape:window-maximized="0"
     inkscape:snap-text-baseline="true"
     inkscape:snap-intersection-paths="true"
     inkscape:snap-smooth-nodes="false"
     inkscape:snap-midpoints="true"
     inkscape:snap-nodes="true"
     inkscape:snap-global="false"
     inkscape:snap-bbox="true" />
  <metadata
     id="metadata5">
    <rdf:RDF>
      <cc:Work
         rdf:about="">
        <dc:format>image/svg+xml</dc:format>
        <dc:type
           rdf:resource="http://purl.org/dc/dcmitype/StillImage" />
        <dc:title></dc:title>
      </cc:Work>
    </rdf:RDF>
  </metadata>
  <g
     inkscape:groupmode="layer"
     id="layer6"
     inkscape:label="qq">
    <path
       id="path861"
       style="display:inline;fill:#000000;stroke:none;stroke-width:3.77953;stroke-opacity:1"
       d="m 192.58789,24.423828 c -0.62015,0.0069 -1.24539,0.02354 -1.875,0.04883 -8.97118,0.360329 -10.38793,0.708328 -17.38867,4.261719 -19.22058,9.755862 -30.14283,31.46707 -25.625,50.939453 1.58264,6.821329 -1.02679,7.417553 -7.9043,6.142578 -5.29517,-0.981634 -9.94184,-3.067786 -15.43241,-4.434797 -2.9578,-0.736418 -6.36873,-0.853971 -9.14353,-0.117975 -2.77481,0.735996 -4.21147,3.011863 -3.97988,4.78768 0.36886,2.828328 2.39375,4.036641 5.32731,7.343217 23.67559,22.164817 26.33146,58.807007 6.09961,84.154297 -21.25469,26.62844 -59.984212,31.18424 -86.837895,10.21484 l -2.060547,-1.68164 c -2.233506,-1.66715 -6.606545,-3.93988 -9.316172,-1.84921 -2.709627,2.09067 -3.248271,8.0167 -2.381094,14.83749 1.237227,9.73143 4.708616,16.88969 9.59961,23.97266 4.232291,6.12906 10.107452,11.22035 16.455078,15.11719 4.397824,2.69984 10.5149,4.45739 14.5,5.42773 103.49198,25.19951 313.67214,10.21177 319.5332,2.91016 7.73851,-9.64051 13.99917,-19.19251 18.63672,-22.91211 14.28662,-11.45873 18.65162,-29.65991 11.02344,-45.96094 -3.23898,-6.92153 -10.85335,-15.16481 -15.96289,-17.28125 -3.61493,-1.49738 -3.77581,-2.28692 -1.19727,-5.9082 5.75441,-8.08137 6.76535,-24.12919 2.11914,-33.63282 -3.10741,-6.35611 -8.98627,-12.74907 -14.62109,-15.89843 -4.71538,-2.63548 -13.8791,-5.601564 -17.30664,-5.601564 -1.15287,0 -2.0957,-0.163344 -2.0957,-0.363281 0,-0.199929 0.43886,-2.674932 0.97461,-5.5 1.27551,-6.725813 -0.0773,-13.850292 -4.17383,-21.982422 -6.05087,-12.011592 -21.15177,-22.492058 -39.30078,-27.27539 -11.26994,-2.970478 -30.74688,-2.967159 -42,0.0059 -9.74488,2.574561 -20.675,7.814106 -27.41602,13.142578 -7.847,6.2027 -8.59629,5.825669 -15.72656,-7.888672 -8.64089,-16.619877 -23.29876,-25.231342 -42.52344,-25.017578 z"
       transform="scale(0.26458333)"
       sodipodi:nodetypes="sssssszscccczssssssssssssssscsssss" />
  </g>
  <g
     inkscape:groupmode="layer"
     id="layer5"
     inkscape:label="ee"
     style="display:inline">
    <path
       id="rect955"
       style="display:inline;fill:#ffd5d5;fill-opacity:1;stroke:none;stroke-width:0.3;stroke-linecap:square;stroke-dashoffset:10.8095;stroke-opacity:1"
       d="M 15.269762,60.678115 H 104.70136 L 99.46351,78.658134 H 10.031901 Z"
       sodipodi:nodetypes="ccccc" />
  </g>
  <g
     inkscape:groupmode="layer"
     id="layer4"
     inkscape:label="Layer 3"
     style="display:inline" />
  <g
     inkscape:groupmode="layer"
     id="layer2"
     inkscape:label="Layer 1"
     style="display:none">
    <path
       style="fill:#ffff00;stroke:none;stroke-width:0.264583"
       d="m 16.967962,51.485818 c -2.910328,-0.281091 -5.935893,-1.657795 -8.4494869,-3.844716 -1.541172,-1.340879 -2.591773,-2.733511 -3.5660306,-4.72698 -1.73162,-3.54314 -2.34038,-9.003453 -0.172213,-13.573011 1.0571456,-2.228006 2.7809326,-4.342101 4.7508456,-5.82655 1.7251309,-1.299992 4.6703439,-2.587684 6.7443499,-2.948734 1.222855,-0.212879 4.445149,-0.135736 5.819392,0.139318 1.908897,0.382065 3.495741,1.041852 5.194273,2.159705 6.063052,3.990263 8.596458,11.129274 6.365862,17.938675 -1.344514,4.104442 -4.256114,7.416292 -8.165158,9.287608 -1.768306,0.84651 -3.195031,1.219009 -5.356794,1.398582 -1.302069,0.108162 -2.013889,0.107286 -3.16504,-0.0039 z"
       id="path888"
       sodipodi:nodetypes="sssssssssssss" />
  </g>
  <g
     inkscape:groupmode="layer"
     id="layer7"
     inkscape:label="r"
     style="opacity:0.65">
    <path
       style="display:inline;fill:#000000;stroke:none;stroke-width:1;stroke-opacity:1"
       d="m 41.088986,71.068199 c -0.661821,-1.183182 -0.678622,-1.288741 -0.244311,-1.535131 1.471141,-0.834599 2.223336,-2.457535 1.842421,-3.975219 -0.311701,-1.241915 -1.568323,-1.730891 -4.243991,-1.651421 l -2.369889,0.07039 -0.832344,4.167187 -0.832345,4.167188 h 0.870918 c 0.829358,0 0.879438,-0.05681 1.049462,-1.190625 0.178533,-1.190535 0.178628,-1.190625 1.273437,-1.190625 1.025673,0 1.134332,0.07435 1.718773,1.176025 0.509106,0.959676 0.776732,1.191297 1.454753,1.25903 0.45698,0.04565 0.874284,0.05842 0.927341,0.02838 0.05306,-0.03005 -0.223346,-0.626375 -0.614225,-1.325176 z"
       id="path1085" />
    <path
       style="display:inline;fill:#000000;stroke:none;stroke-width:1;stroke-opacity:1"
       d="m 52.792827,71.363342 c 0.59263,-0.904066 0.59313,-0.904233 2.701933,-0.904233 2.085647,0 2.110986,0.0081 2.26967,0.727605 0.08826,0.400182 0.185997,0.835414 0.217191,0.967181 0.05014,0.211786 1.74915,0.413798 1.749099,0.207968 -2.1e-5,-0.08777 -1.445921,-5.88632 -1.876435,-7.525149 -0.233011,-0.886989 -0.350737,-0.992021 -1.110343,-0.990621 -0.803838,0.0016 -0.989967,0.21722 -3.448613,3.997219 -1.429404,2.197608 -2.653527,4.137961 -2.720271,4.311896 -0.0834,0.217344 0.151728,0.284366 0.751837,0.214307 0.642062,-0.07496 1.030092,-0.341289 1.465932,-1.006173 z"
       id="path1089" />
  </g>
  <g
     inkscape:groupmode="layer"
     id="layer3"
     inkscape:label="Layer 2"
     style="display:inline;opacity:0.65">
    <path
       id="path1111"
       style="fill:#000000;stroke:none;stroke-width:1.41138;stroke-opacity:1"
       sodipodi:type="inkscape:offset"
       inkscape:radius="0.71196705"
       inkscape:original="M 18.701172 29.394531 C 18.592032 29.394496 18.503906 33.20252 18.503906 37.857422 L 18.503906 46.322266 L 26.949219 42.158203 C 31.594154 39.868014 35.374258 37.908679 35.349609 37.804688 C 35.302675 37.606694 19.046387 29.394639 18.701172 29.394531 z "
       d="m 18.701172,28.681641 c -8.53e-4,-10e-7 -0.3429,0.08743 -0.34375,0.08789 -4.25e-4,2.32e-4 -0.08088,0.05128 -0.111328,0.07617 -0.03045,0.02489 -0.05381,0.04806 -0.07422,0.07031 -0.08165,0.08901 -0.108468,0.148774 -0.128906,0.193359 -0.04088,0.08917 -0.04754,0.13014 -0.05664,0.169922 -0.0182,0.07956 -0.02524,0.136937 -0.0332,0.207031 -0.01592,0.140188 -0.02687,0.315155 -0.03906,0.53711 -0.02439,0.443909 -0.04652,1.06871 -0.06445,1.839843 -0.03587,1.542267 -0.05859,3.662197 -0.05859,5.994141 v 8.464844 a 0.71203825,0.71203825 0 0 0 1.027343,0.638672 l 8.445313,-4.164063 c 2.32599,-1.146831 4.435902,-2.211494 5.964844,-3.003906 0.76447,-0.396207 1.382455,-0.723016 1.816406,-0.962891 0.216975,-0.119937 0.386522,-0.217119 0.515625,-0.296875 0.06455,-0.03988 0.117174,-0.07367 0.177734,-0.119141 0.03028,-0.02273 0.06044,-0.04269 0.115235,-0.09961 0.02739,-0.02846 0.06339,-0.06366 0.111328,-0.146484 0.02397,-0.04141 0.07395,-0.180603 0.07422,-0.181641 2.71e-4,-0.001 0.0041,-0.344891 0.0039,-0.345703 -1.84e-4,-7.73e-4 -0.07136,-0.186992 -0.101563,-0.232422 -0.0302,-0.04543 -0.05483,-0.0728 -0.07422,-0.09375 -0.03878,-0.0419 -0.06182,-0.05971 -0.08203,-0.07617 -0.04042,-0.03292 -0.06493,-0.05052 -0.0918,-0.06836 -0.05373,-0.03568 -0.108605,-0.06823 -0.175781,-0.107422 -0.134351,-0.07839 -0.31467,-0.179111 -0.542969,-0.302734 -0.456597,-0.247247 -1.09917,-0.584495 -1.86914,-0.984375 -1.53994,-0.79976 -3.588152,-1.844975 -5.646485,-2.884766 -2.058333,-1.039791 -4.125955,-2.074722 -5.703125,-2.849609 -0.788584,-0.387444 -1.455133,-0.709408 -1.939453,-0.9375 -0.24216,-0.114047 -0.438118,-0.204213 -0.58789,-0.269532 -0.07489,-0.03266 -0.135579,-0.05932 -0.195313,-0.08203 -0.02987,-0.01136 -0.05898,-0.02149 -0.09766,-0.0332 -0.03868,-0.01171 -0.05267,-0.03705 -0.234375,-0.03711 z"
       transform="matrix(0.64685066,0,0,0.77608412,2.9439095,7.2570186)" />
    <path
       style="fill:#ffffff;stroke:none;stroke-width:1;stroke-opacity:1"
       d="M 96.50778,50.218485 V 48.498694 H 91.877576 87.247368 V 46.64661 44.794527 h 3.96875 3.968752 v -1.719792 -1.719791 h -3.968752 -3.96875 V 39.635152 37.91536 h 4.497917 4.497915 v -1.719791 -1.719792 h -6.614582 -6.614583 v 8.73125 8.73125 h 6.746875 6.74687 z"
       id="path1109" />
    <path
       style="fill:#ffffff;stroke:none;stroke-width:1;stroke-opacity:1"
       d="m 75.389474,48.426677 c 0.82696,-1.924921 2.472245,-5.702515 3.656189,-8.39465 1.183944,-2.692135 2.218658,-5.048673 2.299364,-5.236747 0.114628,-0.267126 -0.329649,-0.325025 -2.030206,-0.264583 l -2.176946,0.07737 -1.00728,2.38125 c -0.554005,1.309687 -1.715672,4.022653 -2.581484,6.028811 L 71.974907,46.66569 71.38673,45.267087 c -0.323495,-0.769231 -1.493062,-3.511963 -2.599036,-6.094958 l -2.01086,-4.696354 h -2.200148 c -1.210083,0 -2.200151,0.100087 -2.200151,0.222417 0,0.122327 0.782238,1.997562 1.73831,4.167187 1.522452,3.454924 4.220091,9.659395 5.310082,12.213 l 0.367043,0.859896 2.04697,-0.0059 2.04697,-0.0059 1.503564,-3.499858 z"
       id="path1107" />
    <path
       style="fill:#ffffff;stroke:none;stroke-width:1;stroke-opacity:1"
       d="m 60.54791,43.207027 0.01577,-3.499383 -2.003994,-0.07727 -2.003983,-0.07728 0,3.653934 v 8.753509 l 1.988211,-0.07728 1.988214,-0.07727 0.01577,-8.598958 z"
       id="path1105"
       sodipodi:nodetypes="cccccccccc" />
    <path
       style="fill:#ffffff;stroke:none;stroke-width:1;stroke-opacity:1"
       d="M 54.439035,50.218485 V 48.498694 H 50.07341 45.707786 v -7.011459 -7.011458 h -2.116667 -2.116667 v 8.73125 8.73125 h 6.482292 6.482291 z"
       id="path1103" />
    <path
       style="fill:#000000;stroke:none;stroke-width:1;stroke-opacity:1"
       d="m 74.929239,68.408589 c 0.415573,-2.146433 0.810056,-4.051433 0.876625,-4.233334 0.08179,-0.223475 -0.170757,-0.330729 -0.778745,-0.330729 h -0.899782 l -0.755589,3.902604 c -0.415573,2.146433 -0.810056,4.051433 -0.876626,4.233334 -0.08178,0.223475 0.170757,0.330729 0.778746,0.330729 h 0.899782 z"
       id="path1101" />
    <path
       style="fill:#000000;stroke:none;stroke-width:1;stroke-opacity:1"
       d="m 49.941119,72.06825 c 0,-0.13362 0.07227,-0.431276 0.160599,-0.661459 0.1392,-0.362751 -0.160459,-0.418515 -2.248958,-0.418515 -2.647889,0 -2.763282,-0.09352 -2.139588,-1.73396 0.265981,-0.699585 0.299199,-0.708282 2.248959,-0.588849 1.088443,0.06668 1.980612,0.05104 1.982599,-0.03475 0.0021,-0.08579 0.07541,-0.42387 0.163153,-0.751292 0.155662,-0.580861 0.108413,-0.595312 -1.946338,-0.595312 H 46.05567 l 0.160682,-0.992188 0.160681,-0.992187 2.414482,-0.07569 c 2.330103,-0.07305 2.418836,-0.09847 2.539103,-0.727604 l 0.124621,-0.651915 h -3.208731 -3.208735 l -0.757224,3.902601 c -0.416473,2.146433 -0.81424,4.051433 -0.883926,4.233334 -0.09723,0.253793 0.649232,0.330729 3.208896,0.330729 1.849271,0 3.3356,-0.108254 3.3356,-0.242943 z"
       id="path1099" />
    <path
       style="fill:#000000;stroke:none;stroke-width:1;stroke-opacity:1"
       d="M 92.625508,72.153583 C 93.9295,71.709268 93.9338,71.70232 94.35616,69.35898 c 0.21903,-1.215268 0.21166,-1.233958 -0.52978,-1.342779 -0.79697,-0.11697 -0.82233,-0.08117 -1.168542,1.649159 -0.227671,1.137898 -0.479626,1.313717 -1.889988,1.318865 -2.143524,0.0078 -3.138159,-1.697116 -2.245029,-3.848295 0.703755,-1.695051 3.549301,-2.583696 5.006039,-1.563354 0.4782,0.334944 0.67175,0.346837 1.11721,0.06865 0.7285,-0.454957 0.67774,-0.807895 -0.18881,-1.312807 -3.481251,-2.02842 -7.994112,0.578448 -8.002166,4.62248 -0.0055,2.751425 2.966929,4.294224 6.170414,3.202688 z"
       id="path1097" />
    <path
       style="fill:#000000;stroke:none;stroke-width:1;stroke-opacity:1"
       d="m 78.605883,69.458363 c 0.500843,-2.660047 0.741347,-3.155971 1.086507,-2.240399 0.096,0.254661 0.789656,1.504817 1.541449,2.778125 1.197247,2.027774 1.458216,2.315104 2.102712,2.315104 0.404699,0 0.736307,-0.02977 0.736905,-0.06615 5.29e-4,-0.03638 0.357296,-1.792552 0.792662,-3.902604 0.435367,-2.110052 0.792067,-3.985287 0.792663,-4.167188 5.29e-4,-0.189248 -0.329086,-0.330729 -0.77074,-0.330729 -0.843203,0 -0.784785,-0.150481 -1.626777,4.190566 l -0.325276,1.677025 -1.721321,-2.933796 c -1.518004,-2.587259 -1.805802,-2.933795 -2.436529,-2.933795 -0.711732,0 -0.719246,0.02024 -1.547125,4.167188 -0.457557,2.291953 -0.831839,4.241448 -0.831741,4.332208 1e-4,0.09076 0.3821,0.08691 0.848891,-0.0086 0.844249,-0.172667 0.851387,-0.187796 1.35772,-2.876999 z"
       id="path1095" />
    <path
       style="fill:#000000;stroke:none;stroke-width:1;stroke-opacity:1"
       d="m 70.962153,68.647925 c 0.392327,-1.987026 0.777089,-3.880664 0.855033,-4.208086 0.121981,-0.512413 0.03555,-0.595313 -0.620657,-0.595313 -0.655508,0 -1.065877,0.392113 -2.927538,2.7973 l -2.165165,2.797299 -0.363164,-0.87907 c -0.199742,-0.483489 -0.700006,-1.742274 -1.111697,-2.7973 -0.672246,-1.722733 -0.82133,-1.918229 -1.462844,-1.918229 -0.706565,0 -0.722104,0.03946 -1.432666,3.638021 -0.395097,2.000911 -0.782127,3.905911 -0.860071,4.233333 -0.123264,0.517806 -0.03708,0.595313 0.661959,0.595313 0.766477,0 0.817856,-0.07042 1.110059,-1.521354 0.535705,-2.660036 0.739823,-3.544282 0.841674,-3.646133 0.05456,-0.05456 0.502621,0.907211 0.995688,2.13727 0.49307,1.230055 1.052883,2.236467 1.244031,2.236467 0.191146,0 1.078352,-0.922735 1.971572,-2.050521 0.893217,-1.127786 1.709756,-2.084096 1.814528,-2.125136 0.104773,-0.04104 -0.02646,0.911463 -0.291637,2.116667 -0.65637,2.983203 -0.650398,3.048524 0.266428,2.913962 0.753459,-0.110583 0.768355,-0.148217 1.474467,-3.72449 z"
       id="path1093" />
    <path
       style="fill:#000000;stroke:none;stroke-width:1;stroke-opacity:1"
       d="m 31.137658,68.812179 0.700939,-3.512444 1.510636,-0.07935 c 1.40516,-0.07381 1.510636,-0.124613 1.510636,-0.727604 v -0.648255 h -3.704167 -3.704166 v 0.661459 c 0,0.61736 0.08819,0.661458 1.322916,0.661458 0.727604,0 1.322557,0.0893 1.322115,0.198437 -0.0011,0.244801 -1.020389,5.514576 -1.222634,6.320391 -0.122574,0.488365 -0.02257,0.600392 0.604425,0.677018 0.413215,0.0505 0.79789,0.06246 0.854831,0.02658 0.05694,-0.03588 0.418952,-1.645841 0.804469,-3.577685 z"
       id="path1083" />
    <path
       style="fill:#000000;stroke:none;stroke-width:1;stroke-opacity:1"
       d="m 23.725337,72.317511 c 1.419029,-0.304182 2.138699,-1.247235 2.138699,-2.436278 0,-1.243962 -0.4968,-1.717955 -2.572314,-2.454225 -1.631354,-0.57871 -1.983152,-1.105884 -1.236352,-1.852686 0.341278,-0.341276 0.779287,-0.42535 1.799153,-0.345337 0.741431,0.05817 1.547283,0.196413 1.790784,0.307213 0.315016,0.143341 0.53457,0.02985 0.761103,-0.393435 0.4054,-0.757495 -0.126783,-1.203492 -1.721392,-1.442617 -2.328161,-0.349131 -4.641815,0.937665 -4.641815,2.581658 0,1.269201 0.427654,1.711003 2.377389,2.45604 1.933784,0.738939 2.317353,1.273535 1.437609,2.003658 -0.579848,0.481232 -2.877233,0.401997 -3.68471,-0.127085 -0.64109,-0.420055 -0.674407,-0.411974 -0.969245,0.235128 -0.361267,0.79289 2.266908,1.951171 4.521091,1.467966 z"
       id="path1081"
       sodipodi:nodetypes="ssssssssssssss" />
  </g>
  <g
     inkscape:groupmode="layer"
     id="layer8"
     inkscape:label="A"
     style="display:inline;opacity:1">
    <path
       style="display:inline;opacity:1;fill:#ffd5d5;fill-opacity:1;stroke:none;stroke-width:1;stroke-opacity:1"
       d="m 36.976535,68.223174 c 0,-0.211119 0.128929,-0.985025 0.286507,-1.719792 l 0.28651,-1.335939 h 1.30099 c 1.261182,0 2.359327,0.609954 2.359327,1.310468 0,0.692528 -0.688486,1.603722 -1.398868,1.851361 -1.203248,0.419454 -2.834466,0.358397 -2.834466,-0.106098 z"
       id="path1087" />
    <path
       style="display:inline;fill:#ffd5d5;fill-opacity:1;stroke:none;stroke-width:1;stroke-opacity:1"
       d="m 54.585641,68.408589 c 0.259628,-0.400183 0.777444,-1.192303 1.150707,-1.760265 l 0.678659,-1.032661 0.29427,1.032661 c 0.161848,0.567962 0.374367,1.360082 0.472262,1.760265 l 0.177994,0.727604 h -1.62297 -1.62297 z"
       id="path1091" />
  </g>
  <g
     inkscape:groupmode="layer"
     id="layer1"
     inkscape:label="A 1"
     style="opacity:0.84309133">
    <g
       aria-label="ONLINE"
       transform="translate(47.6565,-10.515495)"
       id="text1136"
       style="font-style:normal;font-variant:normal;font-weight:normal;font-stretch:normal;font-size:10.5833px;line-height:1.25;font-family:'Airstream NF';-inkscape-font-specification:'Airstream NF, Normal';font-variant-ligatures:normal;font-variant-caps:normal;font-variant-numeric:normal;font-variant-east-asian:normal;white-space:pre;shape-inside:url(#rect1138);opacity:0.65;fill:#ffffff;fill-opacity:1;stroke:none">
      <path
         d="m 22.166448,94.57049 h -1.661579 c -0.359832,-1.079497 -1.354662,-1.746245 -2.465908,-1.746245 -1.883828,0 -3.534822,1.799161 -3.534822,3.598322 0,1.439329 1.079496,2.656408 2.635241,2.656408 1.788578,0 3.439573,-1.693328 3.503072,-3.460739 h 1.18533 z m -2.571742,1.047746 c -0.08467,1.238246 -1.238246,2.412992 -2.476492,2.412992 -0.931331,0 -1.566329,-0.709081 -1.566329,-1.608661 0,-1.269996 1.18533,-2.550575 2.487076,-2.550575 0.126999,0 0.243416,0.01058 0.402165,0.03175 -0.253999,0.253999 -0.253999,0.603248 -0.253999,0.83608 0,0.825498 0.857247,0.878414 1.407579,0.878414 z"
         style="font-style:normal;font-variant:normal;font-weight:normal;font-stretch:normal;font-size:10.5833px;font-family:'Airstream NF';-inkscape-font-specification:'Airstream NF, Normal';font-variant-ligatures:normal;font-variant-caps:normal;font-variant-numeric:normal;font-variant-east-asian:normal;fill:#ffffff;fill-opacity:1"
         id="path867" />
      <path
         d="m 28.865674,92.824245 h -1.15358 c -0.603248,1.502829 -1.481662,3.376073 -2.508242,4.730735 0.127,-1.15358 0.306916,-2.529409 0.455082,-3.693572 l 0.127,-1.037163 H 24.71702 c -0.539748,1.132413 -1.185329,2.275409 -1.777994,3.354906 -0.603248,1.100663 -1.492245,2.307159 -1.936744,2.899824 h 1.301746 c 0.687914,-0.941914 1.418162,-2.137826 2.042577,-3.301989 -0.116416,0.83608 -0.243416,1.693328 -0.243416,2.360075 0,0.412749 0.158749,0.952497 0.740831,0.952497 0.412749,0 0.86783,-0.444498 1.02658,-0.687914 0.952497,-1.206496 1.640411,-2.603492 2.317743,-4.011071 0.243415,-0.507998 0.507998,-1.111246 0.677331,-1.566328 z"
         style="font-style:normal;font-variant:normal;font-weight:normal;font-stretch:normal;font-size:10.5833px;font-family:'Airstream NF';-inkscape-font-specification:'Airstream NF, Normal';font-variant-ligatures:normal;font-variant-caps:normal;font-variant-numeric:normal;font-variant-east-asian:normal;fill:#ffffff;fill-opacity:1"
         id="path869" />
      <path
         d="m 32.686236,94.591656 c 0.158749,-0.285749 0.222249,-0.560915 0.222249,-0.825497 0,-0.613832 -0.507998,-0.973664 -1.142996,-0.973664 -0.814914,0 -2.000244,0.645581 -2.412992,1.936744 l -1.026581,3.164407 c -0.08467,0.253999 -0.380998,0.497415 -0.730247,0.719664 l 0.338665,1.015997 c 0.264583,-0.15875 0.550332,-0.359832 0.783165,-0.550332 h 3.397239 l 0.338665,-1.047747 h -3.069157 l 0.963081,-2.973907 c 0.232832,-0.719664 0.878414,-1.259412 1.449912,-1.259412 0.04233,0 0.0635,0.03175 0.0635,0.0635 0,0.211666 -0.465666,0.888998 -0.592665,1.132413 -0.15875,0.317499 -0.328083,0.613832 -0.497415,0.920748 l 0.920747,0.497415 z"
         style="font-style:normal;font-variant:normal;font-weight:normal;font-stretch:normal;font-size:10.5833px;font-family:'Airstream NF';-inkscape-font-specification:'Airstream NF, Normal';font-variant-ligatures:normal;font-variant-caps:normal;font-variant-numeric:normal;font-variant-east-asian:normal;fill:#ffffff;fill-opacity:1"
         id="path871" />
      <path
         d="m 38.422375,94.136574 c 0.04233,-0.137583 0.07408,-0.253999 0.07408,-0.412748 0,-0.465666 -0.338666,-1.068914 -1.174747,-1.068914 -1.185329,0 -2.783407,1.407579 -3.122073,2.158993 -0.127,0.275166 -0.190499,0.529165 -0.190499,0.804331 0,0.645581 0.349248,1.005414 0.751414,1.672162 l 0.888997,-0.571499 c -0.359832,-0.529165 -0.592665,-0.592664 -0.592665,-1.09008 0,-0.719664 1.206496,-1.471078 1.238246,-1.492245 0.285749,-0.169333 0.645582,-0.423332 1.079497,-0.423332 0.02117,0 0.07408,0.01058 0.07408,0.05292 -0.264583,0.529165 -0.380999,1.185329 -0.571498,1.756827 -0.349249,1.037164 -0.497415,2.27541 -1.439329,2.487076 -0.148166,0.04233 -0.359832,0.05292 -0.571498,0.05292 h -1.767411 l -0.338666,1.015997 h 2.508242 c 0.867831,0 1.777995,-0.698498 2.05316,-1.534578 0.359833,-1.12183 0.740831,-2.254243 1.100664,-3.407823 z"
         style="font-style:normal;font-variant:normal;font-weight:normal;font-stretch:normal;font-size:10.5833px;font-family:'Airstream NF';-inkscape-font-specification:'Airstream NF, Normal';font-variant-ligatures:normal;font-variant-caps:normal;font-variant-numeric:normal;font-variant-east-asian:normal;fill:#ffffff;fill-opacity:1"
         id="path873" />
      <path
         d="M 45.576669,92.824245 H 44.42309 c -0.603248,1.502829 -1.481662,3.376073 -2.508242,4.730735 0.126999,-1.15358 0.306915,-2.529409 0.455082,-3.693572 l 0.126999,-1.037163 h -1.068913 c -0.539748,1.132413 -1.18533,2.275409 -1.777994,3.354906 -0.603248,1.100663 -1.492246,2.307159 -1.936744,2.899824 h 1.301746 c 0.687914,-0.941914 1.418162,-2.137826 2.042577,-3.301989 -0.116417,0.83608 -0.243416,1.693328 -0.243416,2.360075 0,0.412749 0.158749,0.952497 0.740831,0.952497 0.412748,0 0.86783,-0.444498 1.02658,-0.687914 0.952497,-1.206496 1.640411,-2.603492 2.317742,-4.011071 0.243416,-0.507998 0.507999,-1.111246 0.677331,-1.566328 z"
         style="font-style:normal;font-variant:normal;font-weight:normal;font-stretch:normal;font-size:10.5833px;font-family:'Airstream NF';-inkscape-font-specification:'Airstream NF, Normal';font-variant-ligatures:normal;font-variant-caps:normal;font-variant-numeric:normal;font-variant-east-asian:normal;fill:#ffffff;fill-opacity:1"
         id="path875" />
      <path
         d="m 49.037398,92.591412 c -1.418162,0 -3.227906,1.12183 -3.227906,2.381243 0.02117,0.370415 0.232833,0.86783 0.455082,1.09008 l 0.04233,0.08467 c -1.005413,0.730248 -2.000243,1.24883 -2.000243,2.010827 0,0.486832 0.423331,0.920747 1.174746,0.920747 h 4.085153 l 0.338666,-1.047747 H 45.49199 c 0.719664,-0.539748 1.471079,-1.047746 2.169576,-1.619244 l -0.783164,-1.375829 c -0.01058,-0.03175 -0.01058,-0.05292 -0.01058,-0.08467 0,-0.391582 0.677331,-0.814914 0.814914,-0.888997 0.423332,-0.243416 0.973664,-0.444498 1.354662,-0.444498 0.116417,0 0.433916,0.02117 0.433916,0.158749 0,0.222249 -0.920747,0.93133 -1.24883,1.15358 l -0.264582,0.179916 0.645581,0.83608 c 0.592665,-0.412748 1.936744,-1.280579 1.936744,-2.190743 0,-0.80433 -0.730248,-1.164163 -1.502829,-1.164163 z"
         style="font-style:normal;font-variant:normal;font-weight:normal;font-stretch:normal;font-size:10.5833px;font-family:'Airstream NF';-inkscape-font-specification:'Airstream NF, Normal';font-variant-ligatures:normal;font-variant-caps:normal;font-variant-numeric:normal;font-variant-east-asian:normal;fill:#ffffff;fill-opacity:1"
         id="path877" />
    </g>
  </g>
  <g
     inkscape:groupmode="layer"
     id="layer9"
     inkscape:label="круг"
     style="display:inline" />
</svg>
