<?xml version="1.0" encoding="UTF-8" standalone="no"?>
<svg
   xmlns:dc="http://purl.org/dc/elements/1.1/"
   xmlns:cc="http://creativecommons.org/ns#"
   xmlns:rdf="http://www.w3.org/1999/02/22-rdf-syntax-ns#"
   xmlns:svg="http://www.w3.org/2000/svg"
   xmlns="http://www.w3.org/2000/svg"
   xmlns:sodipodi="http://sodipodi.sourceforge.net/DTD/sodipodi-0.dtd"
   xmlns:inkscape="http://www.inkscape.org/namespaces/inkscape"
   width="32mm"
   height="24mm"
   viewBox="0 0 32 24"
   version="1.1"
   id="svg8"
   inkscape:version="1.0.2 (e86c870879, 2021-01-15, custom)"
   sodipodi:docname="stream - значок.svg">
  <defs
     id="defs2">
    <rect
       x="1.5904548"
       y="6.6799102"
       width="75.228516"
       height="25.606323"
       id="rect17" />
    <rect
       x="27.037731"
       y="-42.624187"
       width="99.880562"
       height="34.671913"
       id="rect850" />
    <rect
       x="3.5987885"
       y="7.4225011"
       width="94.243271"
       height="34.413414"
       id="rect835" />
  </defs>
  <sodipodi:namedview
     id="base"
     pagecolor="#ffffff"
     bordercolor="#666666"
     borderopacity="1.0"
     inkscape:pageopacity="0.0"
     inkscape:pageshadow="2"
     inkscape:zoom="4.6022987"
     inkscape:cx="44.686451"
     inkscape:cy="55.03471"
     inkscape:document-units="mm"
     inkscape:current-layer="layer1"
     inkscape:document-rotation="0"
     showgrid="false"
     inkscape:window-width="1427"
     inkscape:window-height="885"
     inkscape:window-x="196"
     inkscape:window-y="156"
     inkscape:window-maximized="0" />
  <metadata
     id="metadata5">
    <rdf:RDF>
      <cc:Work
         rdf:about="">
        <dc:format>image/svg+xml</dc:format>
        <dc:type
           rdf:resource="http://purl.org/dc/dcmitype/StillImage" />
        <dc:title></dc:title>
      </cc:Work>
    </rdf:RDF>
  </metadata>
  <g
     inkscape:label="Слой 1"
     inkscape:groupmode="layer"
     id="layer1">
    <path
       style="fill:#000000;stroke-width:1"
       d="M 6.5505869,21.531678 C 4.7973039,19.741633 3.5783089,17.490372 3.0257749,15.022 2.7918919,13.977159 2.542235,11.964161 2.9351949,10.290759 3.4247289,7.3394911 4.8306829,4.7754571 7.1217129,2.6558171 l 0.241219,-0.223173 0.675321,0.670814 0.675321,0.670814 -0.662045,0.647176 c -2.071481,2.024956 -3.199339,4.590343 -3.308346,7.5250509 -0.0589,1.585641 0.08283,2.567221 0.584158,4.045792 0.562371,1.658601 1.766223,3.505139 2.964871,4.547691 l 0.531466,0.462256 -0.662133,0.666581 c -0.364173,0.366621 -0.698495,0.666582 -0.742938,0.666582 -0.04444,0 -0.435053,-0.361676 -0.868022,-0.803723 z m 16.9564671,0.139128 -0.660159,-0.664595 0.499824,-0.431516 c 0.274903,-0.237335 0.778045,-0.781138 1.118094,-1.208453 1.64156,-2.062833 2.486449,-4.444696 2.486449,-7.009655 0,-2.9407759 -1.15225,-5.7328929 -3.2318,-7.8312569 l -0.75528,-0.762113 0.671126,-0.666647 0.671126,-0.666647 0.37686,0.36123 c 1.789638,1.71541 2.879515,3.413029 3.571786,5.563498 0.506197,1.572449 0.732713,2.8350949 0.644052,4.4930179 -0.08642,1.616014 -0.224321,2.270547 -0.633737,3.541292 -0.333482,1.03506 -1.122691,2.59531 -1.783591,3.526124 -0.541546,0.762716 -2.075969,2.420316 -2.240461,2.420316 -0.04077,0 -0.371201,-0.299067 -0.734289,-0.664595 z M 9.8642519,18.119936 C 8.9039259,17.131889 8.2744186,16.180477 7.8905739,14.862682 7.6998973,14.208061 7.5573959,13.747525 7.4905262,12.747384 7.3573769,10.755927 7.8801279,9.3044811 8.9084639,7.7679851 c 0.492381,-0.735695 1.6193351,-1.941365 1.7908601,-1.915949 0.04193,0.0062 0.353653,0.306965 0.692717,0.668337 l 0.616483,0.65704 -0.716997,0.727671 c -1.2999061,1.319262 -1.9004911,2.8925609 -1.8160611,4.7573789 0.07949,1.755658 0.7491341,3.189064 2.0531851,4.394932 l 0.648773,0.599926 -0.65751,0.653122 c -0.36163,0.359217 -0.697555,0.653173 -0.746498,0.653233 -0.04894,6.2e-5 -0.458067,-0.37962 -0.9091641,-0.84374 z m 10.2794721,0.182931 -0.651653,-0.660698 0.647701,-0.59235 c 1.296818,-1.185996 1.971807,-2.629612 2.05139,-4.387356 0.08443,-1.864818 -0.516154,-3.4381169 -1.816061,-4.7573789 l -0.716997,-0.727671 0.616483,-0.65704 c 0.339065,-0.361372 0.650788,-0.662124 0.692718,-0.668337 0.171524,-0.02542 1.298479,1.180254 1.79086,1.915949 1.032964,1.543412 1.516341,2.9776149 1.430147,4.9794209 -0.03616,0.839792 -0.159614,1.348491 -0.411899,2.115276 -0.429232,1.304611 -1.013998,2.269503 -1.974037,3.257254 -0.451097,0.46412 -0.862211,0.843802 -0.913588,0.84374 -0.05138,-6e-5 -0.386655,-0.297425 -0.745064,-0.660809 z M 15.110768,14.76196 c -0.818784,-0.24944 -1.490131,-0.998783 -1.672109,-1.866373 -0.360912,-1.720657 1.171072,-3.2482399 2.894967,-2.886649 2.19873,0.461188 2.658686,3.410858 0.703667,4.512575 -0.53895,0.303716 -1.375943,0.40818 -1.926525,0.240447 z"
       id="path35"
       sodipodi:nodetypes="sscscccscsscssssscsssscccssssssssssscscssscsssscssscsssscssssssss" />
  </g>
</svg>
