<?xml version="1.0" encoding="UTF-8" standalone="no"?>
<svg
   xmlns:dc="http://purl.org/dc/elements/1.1/"
   xmlns:cc="http://creativecommons.org/ns#"
   xmlns:rdf="http://www.w3.org/1999/02/22-rdf-syntax-ns#"
   xmlns:svg="http://www.w3.org/2000/svg"
   xmlns="http://www.w3.org/2000/svg"
   xmlns:sodipodi="http://sodipodi.sourceforge.net/DTD/sodipodi-0.dtd"
   xmlns:inkscape="http://www.inkscape.org/namespaces/inkscape"
   width="91mm"
   height="24mm"
   viewBox="0 0 91 24"
   version="1.1"
   id="svg8"
   inkscape:version="1.0.2 (e86c870879, 2021-01-15, custom)"
   sodipodi:docname="stream -  надпись 2.svg">
  <defs
     id="defs2">
    <rect
       x="-11.374326"
       y="-19.905071"
       width="70.831032"
       height="18.741788"
       id="rect19" />
    <rect
       x="1.5904548"
       y="6.6799102"
       width="75.228516"
       height="25.606323"
       id="rect17" />
    <rect
       x="27.037731"
       y="-42.624187"
       width="99.880562"
       height="34.671913"
       id="rect850" />
    <rect
       x="3.5987885"
       y="7.4225011"
       width="94.243271"
       height="34.413414"
       id="rect835" />
  </defs>
  <sodipodi:namedview
     id="base"
     pagecolor="#ffffff"
     bordercolor="#666666"
     borderopacity="1.0"
     inkscape:pageopacity="0.0"
     inkscape:pageshadow="2"
     inkscape:zoom="2.8571464"
     inkscape:cx="168.71577"
     inkscape:cy="50.391445"
     inkscape:document-units="mm"
     inkscape:current-layer="layer1"
     inkscape:document-rotation="0"
     showgrid="false"
     inkscape:window-width="1427"
     inkscape:window-height="851"
     inkscape:window-x="263"
     inkscape:window-y="135"
     inkscape:window-maximized="0"
     inkscape:snap-text-baseline="true" />
  <metadata
     id="metadata5">
    <rdf:RDF>
      <cc:Work
         rdf:about="">
        <dc:format>image/svg+xml</dc:format>
        <dc:type
           rdf:resource="http://purl.org/dc/dcmitype/StillImage" />
        <dc:title></dc:title>
      </cc:Work>
    </rdf:RDF>
  </metadata>
  <g
     inkscape:label="Слой 1"
     inkscape:groupmode="layer"
     id="layer1">
    <g
       aria-label="Stream"
       transform="matrix(2.0315437,0,0,1.933849,7.9445505,-12.422572)"
       id="text15"
       style="font-style:normal;font-variant:normal;font-weight:normal;font-stretch:normal;font-size:10.5833px;line-height:1.25;font-family:Akaju;-inkscape-font-specification:'Akaju, Normal';font-variant-ligatures:normal;font-variant-caps:normal;font-variant-numeric:normal;font-variant-east-asian:normal;white-space:pre;shape-inside:url(#rect17);fill:#ffffff;fill-opacity:1;stroke:none;stroke-width:0.504517">
      <path
         d="m 7.7031462,8.8462978 c 0.1998149,0 0.3582888,0.062012 0.4754217,0.1860346 0.1205779,0.124023 0.1808669,0.2824969 0.1808669,0.4754216 0,0.1343583 -0.029283,0.2514912 -0.08785,0.3513986 C 8.1613421,10.069303 7.9718624,10.174378 7.7031458,10.174378 H 4.0444665 c -0.2480461,0 -0.4564738,0.08268 -0.6252829,0.248046 -0.1688091,0.161919 -0.2532137,0.366901 -0.2532137,0.614948 0,0.248046 0.084405,0.454751 0.2532137,0.620115 0.1688091,0.165364 0.3772368,0.248046 0.6252829,0.248046 h 2.7698479 c 0.6028898,0.0035 1.1162074,0.220507 1.5399528,0.651121 0.4203003,0.423745 0.6304505,0.93534 0.6304505,1.534785 0,0.530543 -0.1946473,1.024912 -0.5839419,1.483109 C 7.9977009,16.049969 7.530892,16.28768 7.000349,16.28768 h -7.76539579 c -0.19981487,0 -0.36001131,-0.06201 -0.48058921,-0.186034 -0.120578,-0.120578 -0.180867,-0.280775 -0.180867,-0.48059 0,-0.127468 0.029283,-0.244601 0.08785,-0.351398 0.1136878,-0.21015 0.30489,-0.315225 0.57360651,-0.315225 H 6.8504881 c 0.2239305,0 0.4168552,-0.08613 0.5787742,-0.258382 0.1584739,-0.172254 0.2377108,-0.373791 0.2377108,-0.604612 0,-0.244601 -0.084405,-0.447861 -0.2532137,-0.60978 C 7.2518403,13.316295 7.0485802,13.233613 6.8039792,13.233613 H 4.0444665 c -0.60978,0 -1.1265427,-0.215318 -1.5502881,-0.645953 -0.4306355,-0.423746 -0.6459533,-0.940509 -0.6459533,-1.550288 0,-0.606335 0.2153178,-1.1230982 0.6459533,-1.5502885 C 2.9179238,9.059893 3.4346865,8.8462978 4.0444665,8.8462978 Z"
         style="font-style:normal;font-variant:normal;font-weight:normal;font-stretch:normal;font-size:10.5833px;font-family:Akaju;-inkscape-font-specification:'Akaju, Normal';font-variant-ligatures:normal;font-variant-caps:normal;font-variant-numeric:normal;font-variant-east-asian:normal;fill:#ffffff;stroke-width:0.504517"
         id="path15"
         sodipodi:nodetypes="scscsscsssccscsscscsscscsscscss" />
    </g>
    <g
       aria-label="t r e a m"
       transform="matrix(1.627041,0,0,1.9333058,50.051019,38.817718)"
       id="text17"
       style="font-style:normal;font-variant:normal;font-weight:normal;font-stretch:normal;font-size:10.5833px;line-height:1.25;font-family:Assinatura;-inkscape-font-specification:'Assinatura, Normal';font-variant-ligatures:normal;font-variant-caps:normal;font-variant-numeric:normal;font-variant-east-asian:normal;white-space:pre;shape-inside:url(#rect19);fill:#800000;fill-opacity:1;stroke:#ffffff;stroke-width:0.563833;stroke-opacity:1">
      <path
         d="m -11.89693,-9.9641596 q -0.08785,0 -0.08785,-0.082682 v -0.01033 q 0.170532,-1.245398 0.527098,-2.733674 0.356566,-1.493445 0.816485,-2.759513 -0.289387,0.0155 -0.583942,0.02584 -1.338415,0.04651 -2.661328,0.149861 h -0.02067 q -0.129191,0 -0.129191,-0.05168 0,-0.06718 0.1757,-0.09818 1.054195,-0.08268 3.296945,-0.21704 0.160197,-0.439249 0.444416,-1.02319 -0.222208,0.170531 -0.351398,0.170531 l -0.04651,-0.0052 q -0.103352,-0.04134 -0.103352,-0.170532 0,-0.07235 0.03101,-0.170532 0.08268,-0.191202 0.206705,-0.191202 0.07752,0 0.129191,0.10852 l 0.6201152,-0.640786 q 0.1446936,-0.139525 0.2428785,-0.139525 0.041341,0 0.077514,0.03101 0.041341,0.02584 0.041341,0.08785 0,0.08785 -0.082682,0.222208 -0.4134102,0.640786 -0.8526581,1.694982 l 1.0283574,-0.06201 q 0.1446935,0 0.1446935,0.08785 0,0.09302 -0.1601964,0.113687 -0.5477684,0.03617 -1.0903695,0.06201 -0.52193,1.291907 -0.93534,2.738842 -0.41341,1.446936 -0.604613,2.790519 -0.0052,0.072346 -0.07235,0.072346 z"
         style="font-style:normal;font-variant:normal;font-weight:normal;font-stretch:normal;font-size:10.5833px;font-family:Assinatura;-inkscape-font-specification:'Assinatura, Normal';font-variant-ligatures:normal;font-variant-caps:normal;font-variant-numeric:normal;font-variant-east-asian:normal;fill:#800000;stroke-width:0.563833;stroke:#ffffff;stroke-opacity:1"
         id="path23" />
      <path
         d="m -7.2365479,-9.9808031 q -0.072485,0 -0.1294371,-0.05374 -0.093194,-0.08598 -0.093194,-0.456784 0,-0.741602 0.4400863,-1.907744 0.2226318,-0.580383 0.4245538,-0.961932 0.056952,-0.09673 0.093194,-0.09673 0.04142,-0.0054 0.051775,-0.0054 0.051775,0 0.077662,0.04837 0.015533,0.0215 0.015533,0.05374 0,0.04299 -0.025887,0.102109 -0.1967445,0.365428 -0.5591684,1.601431 -0.2485194,0.838332 -0.2485194,1.090906 0,0.1021 0.046598,0.1021 0.1449696,0 0.6886056,-1.214508 0.3054716,-0.687862 0.5177486,-1.021046 0.1190821,-0.177338 0.2744067,-0.177338 0.2226318,0 0.6212982,0.456783 l 0.098372,0.112852 q 0.7093156,0.838333 1.1028045,0.908194 0.2122769,0.03761 0.2951166,0.03761 0.3054717,0 0.7041381,-0.177339 0.020709,-0.01075 0.04142,-0.01075 0.046598,0.0054 0.067307,0.04837 0.010355,0.02149 0.010355,0.04299 0,0.04299 -0.051775,0.06986 -0.4038439,0.182713 -0.7766228,0.182713 -0.3054717,0 -0.5902333,-0.1236 -0.6316533,-0.263322 -1.1390469,-0.859827 -0.362424,-0.435289 -0.4815061,-0.435289 -0.031065,0 -0.212277,0.32781 -0.3261816,0.612628 -0.7714453,1.510073 -0.201922,0.413793 -0.2536968,0.537392 -0.08284,0.220332 -0.1553246,0.2525749 -0.04142,0.01612 -0.08284,0.01612 z"
         style="font-style:normal;font-variant:normal;font-weight:normal;font-stretch:normal;font-size:10.5833px;font-family:Assinatura;-inkscape-font-specification:'Assinatura, Normal';font-variant-ligatures:normal;font-variant-caps:normal;font-variant-numeric:normal;font-variant-east-asian:normal;fill:#800000;stroke:#ffffff;stroke-width:0.563833;stroke-opacity:1"
         id="path25" />
      <path
         d="m 1.1199144,-10.115151 q -0.20192194,0 -0.34171414,-0.05374 -0.2433417,-0.123599 -0.2692292,-0.268696 -0.031065,-0.150469 -0.031065,-0.225704 0,-0.161218 0.062129,-0.338558 0.08284,-0.252574 0.2226318,-0.467531 0.42455394,-0.650245 0.68860574,-0.789967 0.2640518,-0.145096 0.4141989,-0.145096 0.1035496,0 0.1915668,0.05374 0.2278094,0.150471 0.2278094,0.467532 v 0.01074 q 0,0.317061 -0.2536968,0.526644 -0.2536967,0.220331 -0.6886056,0.220331 -0.2485192,0 -0.321004,-0.03225 l -0.04142,-0.0054 q -0.02071,0 -0.056952,0.0806 -0.1190822,0.209583 -0.1190822,0.376175 0,0.09673 0.06213,0.177339 0.13461464,0.139722 0.44008634,0.139722 0.4918611,0 1.2684839,-0.268697 0.574701,-0.19346 1.0458521,-0.419165 0.4763287,-0.231079 0.6523632,-0.397671 0.036242,-0.03225 0.062129,-0.03225 0.046598,0 0.046598,0.02149 0.00518,0.01612 0.00518,0.02149 0,0.02687 -0.031065,0.05911 -0.2795842,0.263322 -0.9992547,0.607253 -0.7196706,0.338558 -1.3254363,0.510524 -0.6005884,0.171965 -0.9112375,0.171965 z m 0.2174544,-1.182263 q 0.3676014,0 0.5591684,-0.155844 0.2381643,-0.188087 0.2381643,-0.295566 0.00518,-0.112853 0.00518,-0.118227 0,-0.231079 -0.2174545,-0.231079 -0.321004,0 -0.8180427,0.714733 -0.04142,0.03761 -0.04142,0.05911 0,0.01074 0.051775,0.01612 h 0.031065 q 0.098372,0.01074 0.191567,0.01074 z"
         style="font-style:normal;font-variant:normal;font-weight:normal;font-stretch:normal;font-size:10.5833px;font-family:Assinatura;-inkscape-font-specification:'Assinatura, Normal';font-variant-ligatures:normal;font-variant-caps:normal;font-variant-numeric:normal;font-variant-east-asian:normal;fill:#800000;stroke:#ffffff;stroke-width:0.563833;stroke-opacity:1"
         id="path27" />
      <path
         d="m 9.8905747,-9.9431851 q -0.74038,0 -0.8180421,-1.1768889 0,-0.188088 -0.015533,-0.188088 -0.010355,-0.0054 -0.015532,-0.0054 -0.031065,0 -0.2070995,0.118226 -0.170857,0.112852 -0.3779564,0.27407 -0.6782506,0.526645 -0.9371249,0.526645 -0.150147,0 -0.150147,-0.139722 0,-0.09673 0.072485,-0.252575 0.1501471,-0.327809 0.4970386,-0.714732 0.3468916,-0.392297 0.6937831,-0.585757 0.3468916,-0.198836 0.5954102,-0.198836 0.129438,0 0.24852,0.04299 0.09838,0.04299 0.10355,0.07524 0.01036,0.03225 0.01036,0.04299 0,0.06449 -0.08802,0.06449 -0.0466,0 -0.108727,-0.01612 -0.05695,-0.02149 -0.119082,-0.02149 -0.1553245,0 -0.3468915,0.112853 -0.2744067,0.161217 -0.5384585,0.42454 -0.2588743,0.257948 -0.4193763,0.47828 -0.1553246,0.214957 -0.1553246,0.300939 0,0.02687 0.025887,0.02687 0.093195,0 0.6471857,-0.376175 0.1449696,-0.09673 0.2847617,-0.182713 0.3313591,-0.225705 0.4659735,-0.225705 0.150147,0 0.160503,0.413792 0.07766,0.956558 0.6316533,0.956558 0.321004,0 0.704137,-0.247199 0.35207,-0.225706 0.642009,-0.532019 0.289939,-0.306314 0.409022,-0.553515 0.03107,-0.04837 0.07766,-0.04837 0.08284,0 0.08284,0.08598 0,0.01612 -0.01035,0.03761 -0.2071,0.408418 -0.755914,0.87595 -0.548813,0.467531 -1.118336,0.5911319 -0.08802,0.01612 -0.1708583,0.01612 z"
         style="font-style:normal;font-variant:normal;font-weight:normal;font-stretch:normal;font-size:10.5833px;font-family:Assinatura;-inkscape-font-specification:'Assinatura, Normal';font-variant-ligatures:normal;font-variant-caps:normal;font-variant-numeric:normal;font-variant-east-asian:normal;fill:#800000;stroke:#ffffff;stroke-width:0.563833;stroke-opacity:1"
         id="path29" />
      <path
         d="m 15.197498,-9.8195851 -0.05178,-0.0054 q -0.08284,-0.04837 -0.08802,-0.139722 -0.0052,-0.09136 -0.0052,-0.1128529 0,-0.19346 0.07249,-0.537393 0.139793,-0.569635 0.383134,-1.139271 0.341715,-0.789968 0.543636,-0.789968 0.02071,0 0.03624,0.0054 0.07249,0.03761 0.07249,0.118226 0,0.06449 -0.07766,0.134349 -0.181212,0.166591 -0.455618,1.042541 -0.113905,0.365427 -0.176035,0.666367 l -0.0052,0.0215 q -0.03624,0.166592 -0.03624,0.27407 0,0.123601 0.06731,0.123601 0.05178,0 0.144969,-0.08061 0.471151,-0.440661 1.460051,-1.977604 0.119082,-0.182714 0.150147,-0.220331 0.362424,-0.483653 0.507394,-0.483653 0.113904,0 0.113904,0.257949 0,0.338556 -0.196744,1.268246 -0.113905,0.526644 -0.113905,0.639497 0,0.05911 0.03107,0.05911 0.113905,0 0.802511,-0.634123 0.409021,-0.381549 0.579878,-0.381549 0.155325,0 0.155325,0.268696 0,0.134349 -0.05695,0.360053 -0.05178,0.220332 -0.05178,0.39767 0,0.284819 0.33136,0.284819 0.264051,0 0.766267,-0.139723 0.704139,-0.198835 1.397922,-0.489027 0.69896,-0.290192 0.911237,-0.472905 0.03107,-0.02687 0.05695,-0.02687 0.06213,0 0.06213,0.05911 0,0.161218 -1.00961,0.601879 -0.730025,0.317062 -1.428986,0.542766 -0.693783,0.220331 -0.9889,0.220331 l -0.07249,-0.0054 q -0.341715,-0.08598 -0.352069,-0.241827 -0.01035,-0.155843 -0.01035,-0.204209 0,-0.225704 0.06213,-0.472905 0.05178,-0.225705 0.05178,-0.349306 0,-0.03225 -0.02071,-0.03225 -0.05695,0 -0.274406,0.209583 -0.553991,0.494401 -0.823221,0.709358 -0.264052,0.209583 -0.367601,0.209583 -0.113905,0 -0.113905,-0.231079 0,-0.279443 0.243342,-1.155393 0.170857,-0.644872 0.170857,-0.784594 0,-0.0806 -0.03107,-0.0806 -0.07249,0 -0.403844,0.483653 -1.537713,2.2301789 -1.962267,2.2301789 z"
         style="font-style:normal;font-variant:normal;font-weight:normal;font-stretch:normal;font-size:10.5833px;font-family:Assinatura;-inkscape-font-specification:'Assinatura, Normal';font-variant-ligatures:normal;font-variant-caps:normal;font-variant-numeric:normal;font-variant-east-asian:normal;fill:#800000;stroke:#ffffff;stroke-width:0.563833;stroke-opacity:1"
         id="path31" />
    </g>
  </g>
</svg>
