<?xml version="1.0" encoding="UTF-8" standalone="no"?>
<svg
   xmlns:dc="http://purl.org/dc/elements/1.1/"
   xmlns:cc="http://creativecommons.org/ns#"
   xmlns:rdf="http://www.w3.org/1999/02/22-rdf-syntax-ns#"
   xmlns:svg="http://www.w3.org/2000/svg"
   xmlns="http://www.w3.org/2000/svg"
   xmlns:sodipodi="http://sodipodi.sourceforge.net/DTD/sodipodi-0.dtd"
   xmlns:inkscape="http://www.inkscape.org/namespaces/inkscape"
   version="1.0"
   width="1280.000000pt"
   height="1280.000000pt"
   viewBox="0 0 1280.000000 1280.000000"
   preserveAspectRatio="xMidYMid meet"
   id="svg12"
   sodipodi:docname="telephone.svg"
   inkscape:version="1.0.2 (e86c870879, 2021-01-15, custom)">
  <metadata
     id="metadata18">
    <rdf:RDF>
      <cc:Work
         rdf:about="">
        <dc:format>image/svg+xml</dc:format>
        <dc:type
           rdf:resource="http://purl.org/dc/dcmitype/StillImage" />
      </cc:Work>
    </rdf:RDF>
  </metadata>
  <defs
     id="defs16" />
  <sodipodi:namedview
     pagecolor="#ffffff"
     bordercolor="#666666"
     borderopacity="1"
     objecttolerance="10"
     gridtolerance="10"
     guidetolerance="10"
     inkscape:pageopacity="0"
     inkscape:pageshadow="2"
     inkscape:window-width="1523"
     inkscape:window-height="798"
     id="namedview14"
     showgrid="false"
     inkscape:snap-others="true"
     inkscape:snap-midpoints="true"
     inkscape:snap-intersection-paths="true"
     inkscape:object-paths="true"
     inkscape:snap-object-midpoints="true"
     inkscape:zoom="0.25421175"
     inkscape:cx="384.67241"
     inkscape:cy="697.10951"
     inkscape:window-x="0"
     inkscape:window-y="0"
     inkscape:window-maximized="0"
     inkscape:current-layer="svg12" />
  <g
     transform="translate(0.000000,1280.000000) scale(0.100000,-0.100000)"
     fill="#000000"
     stroke="none"
     id="g10">
    <path
       d="m 6190,12789 c -58,-4 -177,-13 -265,-19 C 4725,12687 3552,12249 2575,11518 1584,10778 824,9758 400,8600 200,8057 72,7461 31,6890 -6,6384 -6,6416 31,5905 72,5337 201,4743 400,4200 1044,2442 2442,1044 4200,400 4743,200 5339,72 5910,31 c 506,-37 474,-37 985,0 1193,87 2359,525 3330,1251 991,740 1751,1760 2175,2918 200,543 328,1139 369,1710 37,506 37,474 0,985 -41,568 -170,1162 -369,1705 -644,1758 -2042,3156 -3800,3800 -546,200 -1148,330 -1715,369 -82,6 -213,15 -291,21 -156,11 -249,11 -404,-1 z m 594.1229,-1172.004 c 942.5309,-64.81 1860.0634,-396.27 2647.9747,-957.344 386.0859,-274.982 762.9134,-633.292 1062.8934,-1011.0452 419.417,-529.595 739.766,-1148.073 924.014,-1782.2907 155.545,-537.9278 223.133,-1093.4469 201.838,-1662.8541 -37.96,-1017.526 -367.568,-1986.9069 -960.122,-2821.1116 C 9920.9545,2340.752 8817.3231,1600.0597 7576.6636,1313.0415 6547.1014,1074.1683 5454.5803,1156.5703 4475.0148,1546.3596 c -1762.8475,700.88 -3020.1725,2317.4408 -3259.0458,4192.318 -30.5535,236.0957 -39.8122,398.1221 -39.8122,666.623 0,268.501 9.2587,430.5274 39.8122,666.623 99.9935,785.1338 381.4565,1541.5658 819.3908,2204.4853 992.5276,1501.7531 2675.7507,2390.5841 4457.1155,2353.5491 84.2538,-1.851 215.7266,-7.406 291.6476,-12.962 z"
       id="path2"
       sodipodi:nodetypes="ccccccccccccccccccccccccccccscccc" />
    <path
       d="M5040 10721 c-73 -29 -652 -369 -688 -404 -83 -80 -101 -204 -45 -312 86 -167 1156 -2005 1185 -2035 61 -65 167 -95 253 -71 54 14 671 371 715 413 68 64 97 179 68 264 -8 22 -275 493 -594 1045 -395 685 -592 1017 -620 1045 -69 70 -181 93 -274 55z"
       id="path4" />
    <path
       d="M3920 9844 c-687 -423 -856 -788 -764 -1644 170 -1580 1271 -3734 2614 -5113 381 -393 847 -750 1173 -901 194 -90 329 -121 532 -121 211 1 362 36 600 142 121 54 376 192 372 201 -2 4 -273 473 -601 1043 l-598 1037 -62 -28 c-378 -172 -817 -37 -1252 383 -268 259 -492 570 -677 942 -228 458 -337 862 -339 1255 -1 263 45 436 158 607 52 78 127 155 187 191 15 9 27 22 27 29 0 7 -125 230 -279 495 -153 266 -420 728 -593 1028 -173 300 -321 546 -329 548 -8 1 -84 -41 -169 -94z"
       id="path6" />
    <path
       d="M8215 5320 c-50 -8 -67 -17 -414 -217 -157 -90 -301 -179 -320 -196 -71 -68 -100 -182 -67 -273 24 -68 1166 -2037 1204 -2076 74 -78 195 -101 292 -57 103 46 645 367 680 402 54 53 73 109 69 199 l-4 73 -479 830 c-264 457 -527 912 -585 1013 -58 101 -120 201 -138 222 -54 63 -149 95 -238 80z"
       id="path8" />
  </g>
</svg>
