<?xml version="1.0" encoding="UTF-8" standalone="no"?>
<svg
   xmlns:dc="http://purl.org/dc/elements/1.1/"
   xmlns:cc="http://creativecommons.org/ns#"
   xmlns:rdf="http://www.w3.org/1999/02/22-rdf-syntax-ns#"
   xmlns:svg="http://www.w3.org/2000/svg"
   xmlns="http://www.w3.org/2000/svg"
   xmlns:sodipodi="http://sodipodi.sourceforge.net/DTD/sodipodi-0.dtd"
   xmlns:inkscape="http://www.inkscape.org/namespaces/inkscape"
   id="Слой_1"
   data-name="Слой 1"
   viewBox="0 0 299.99999 55.000002"
   version="1.1"
   sodipodi:docname="Theodosia.svg"
   width="300"
   height="55"
   inkscape:version="1.0.2 (e86c870879, 2021-01-15, custom)">
  <metadata
     id="metadata29">
    <rdf:RDF>
      <cc:Work
         rdf:about="">
        <dc:format>image/svg+xml</dc:format>
        <dc:type
           rdf:resource="http://purl.org/dc/dcmitype/StillImage" />
        <dc:title>Монтажная область 32</dc:title>
      </cc:Work>
    </rdf:RDF>
  </metadata>
  <sodipodi:namedview
     pagecolor="#ffffff"
     bordercolor="#666666"
     borderopacity="1"
     objecttolerance="10"
     gridtolerance="10"
     guidetolerance="10"
     inkscape:pageopacity="0"
     inkscape:pageshadow="2"
     inkscape:window-width="1631"
     inkscape:window-height="755"
     id="namedview27"
     showgrid="false"
     inkscape:zoom="2.1411209"
     inkscape:cx="149.84499"
     inkscape:cy="83.825379"
     inkscape:window-x="0"
     inkscape:window-y="0"
     inkscape:window-maximized="0"
     inkscape:current-layer="Слой_1"
     inkscape:document-rotation="0" />
  <defs
     id="defs4">
    <style
       id="style2">.cls-1{fill:#fff;}</style>
  </defs>
  <title
     id="title6">Монтажная область 32</title>
  <path
     class="cls-1"
     d="m 34.16,10.93 a 4.92,4.92 0 0 1 0,-0.79 4,4 0 0 1 0.27,-1.36 11,11 0 0 1 1.31,-3 5.53,5.53 0 0 1 2.65,-0.35 l 2.59,-0.18 h 0.4 4.49 A 27.89,27.89 0 0 1 51.8,5.6 c 0.71,0.24 1.06,0.87 1.06,1.89 0,0.79 -0.2,1.29 -0.62,1.5 A 7.35,7.35 0 0 1 49.56,9.3 h -2.64 l -2.42,0.17 0.35,0.31 0.31,0.26 1.32,1.15 -0.62,3 -0.57,2.81 -0.44,2.25 -0.66,3.34 -0.35,1.8 -0.62,3.44 c -0.24,1.29 -0.38,2.15 -0.44,2.59 -0.21,1.12 -0.32,1.87 -0.35,2.25 a 22.2,22.2 0 0 1 -0.62,4.07 1.56,1.56 0 0 1 -1.1,1.07 1.19,1.19 0 0 1 -1,0 0.75,0.75 0 0 1 -0.39,-0.7 c 0.09,-1.59 0.16,-2.91 0.22,-4 0.06,-1.09 0.09,-2.35 0.09,-3.84 0.17,-1.82 0.32,-3.2 0.44,-4.14 l 0.57,-4 0.88,-6 0.22,-1.58 0.48,-3.83 -0.66,0.13 h -0.44 l -0.92,0.18 -2,0.4 z"
     id="path8"
     style="fill:#ffffff" />
  <path
     class="cls-1"
     d="M 52.24,28.14 52.55,26 q 0.48,-3.16 1,-5.81 c 0.37,-1.76 0.7,-3.17 1,-4.22 a 35.65,35.65 0 0 1 1.91,-5.41 13.05,13.05 0 0 1 2,-3 13.24,13.24 0 0 1 2.54,-2.22 9.22,9.22 0 0 1 2.69,-1.1 6.28,6.28 0 0 1 0.79,-0.08 c 1.35,0 2.1,0.58 2.24,1.76 a 5.23,5.23 0 0 1 0.05,0.83 8,8 0 0 1 -0.22,1.78 c -0.15,0.66 -0.42,1.65 -0.82,3 a 24.71,24.71 0 0 1 -2.17,4.8 52.26,52.26 0 0 1 -4.1,6.16 c -0.73,1 -1.13,1.48 -1.18,1.54 -0.24,0.29 -0.59,0.69 -1.06,1.19 l -0.4,0.44 -0.52,0.57 -0.53,2.55 -0.09,0.84 -0.26,1.89 c -0.18,1.12 -0.28,2 -0.31,2.53 -0.03,0.53 -0.05,1.3 -0.05,2.18 0.27,-0.68 0.5,-1.23 0.71,-1.67 l 0.83,-1.63 c 0.65,-1.26 1.24,-2.35 1.76,-3.26 0.52,-0.91 1,-1.6 1.28,-2.07 a 23.72,23.72 0 0 1 2.07,-2.75 3.58,3.58 0 0 1 1.49,-1 4.75,4.75 0 0 1 1.32,-0.24 q 1.5,0 1.5,2.55 a 15.67,15.67 0 0 0 0.31,2.51 l 0.17,1.18 0.58,2.42 c 0.52,1.53 1.13,2.29 1.8,2.29 0.67,0 1.54,-0.54 2.86,-1.63 l 0.62,-0.61 c 1,-1.15 1.7,-1.72 2,-1.72 a 5.12,5.12 0 0 1 0.7,0.18 4.13,4.13 0 0 1 -1,2.75 16.84,16.84 0 0 1 -3.76,2.88 5.94,5.94 0 0 1 -2.91,0.92 3.61,3.61 0 0 1 -2.81,-1.47 14.16,14.16 0 0 1 -2.25,-4.64 L 61.67,29.1 61.54,28.66 a 24,24 0 0 0 -2.81,3.91 c -0.39,0.68 -0.77,1.36 -1.15,2.07 L 56.9,36 q -1.14,2.91 -2.55,2.91 a 3,3 0 0 1 -1.43,-0.42 2,2 0 0 1 -1,-1.17 A 8.06,8.06 0 0 1 51.67,35 V 32.89 32.5 31.13 a 3.43,3.43 0 0 0 -0.66,0.66 l -0.71,0.8 q -0.21,0.34 -0.48,0.21 c -0.62,-0.14 -0.85,-0.55 -0.7,-1.23 a 2.81,2.81 0 0 1 0.57,-1 l 0.57,-0.57 1,-1 0.18,-0.22 z M 62.49,15 64.25,11.13 a 8.22,8.22 0 0 0 0.92,-3 A 1.33,1.33 0 0 0 64.89,7.25 0.83,0.83 0 0 0 63.59,7.16 9.24,9.24 0 0 0 62,9.26 c -1.38,2.61 -2.2,4.2 -2.47,4.75 -0.27,0.55 -0.78,1.92 -1.54,4.1 a 18.08,18.08 0 0 0 -1.27,5.1 25.28,25.28 0 0 0 5.5,-7.66 z"
     id="path10"
     style="fill:#ffffff" />
  <path
     class="cls-1"
     d="m 80.13,30.86 a 2.82,2.82 0 0 0 0,0.84 3.1,3.1 0 0 0 1,2.38 3.74,3.74 0 0 0 2.6,0.92 4.7,4.7 0 0 0 2.11,-0.48 7.52,7.52 0 0 0 2.51,-1.81 l 1.38,-1.36 c 0.49,-0.47 0.86,-0.7 1.13,-0.7 a 2.25,2.25 0 0 1 0.74,0.17 5.11,5.11 0 0 1 -1.16,2.66 18.83,18.83 0 0 1 -3.76,3 8.55,8.55 0 0 1 -2.42,1.06 10,10 0 0 1 -2.34,0.31 5.91,5.91 0 0 1 -3.78,-1.19 5,5 0 0 1 -1.85,-3.17 7,7 0 0 1 -0.09,-0.92 5.86,5.86 0 0 1 0.07,-1 6.3,6.3 0 0 1 0.37,-1.1 l -0.88,0.92 -1.18,1.28 a 0.72,0.72 0 0 1 -1,-0.4 1.12,1.12 0 0 1 -0.13,-0.53 2,2 0 0 1 0.55,-1.09 21.65,21.65 0 0 1 1.93,-2 l 2.16,-2.07 0.53,-0.44 Q 80,24.93 81.1,24.09 c 0.5,-0.38 1.12,-0.84 1.85,-1.37 a 17.45,17.45 0 0 1 3.43,-1.82 7.19,7.19 0 0 1 2.33,-0.51 2.27,2.27 0 0 1 1.54,0.66 2,2 0 0 1 0.53,1.41 2.61,2.61 0 0 1 -0.09,0.66 5.76,5.76 0 0 1 -0.33,0.9 10.93,10.93 0 0 1 -0.72,1.34 9.53,9.53 0 0 1 -3.13,2.95 19.9,19.9 0 0 1 -5.32,2.25 l -0.88,0.26 z m 8.06,-7.21 A 2.33,2.33 0 0 0 87,23.3 2.37,2.37 0 0 0 85.75,23.69 14.18,14.18 0 0 0 84,25.19 l -1.89,1.67 a 10.51,10.51 0 0 0 -1.4,2.14 13.75,13.75 0 0 0 3.65,-1.36 10.75,10.75 0 0 0 2.53,-1.83 6.08,6.08 0 0 0 1.3,-2.16 z"
     id="path12"
     style="fill:#ffffff" />
  <path
     class="cls-1"
     d="m 103.67,19.38 2.2,-0.44 a 2.84,2.84 0 0 1 0.69,-0.09 h 0.5 q 4.62,0 4.62,5.33 a 13.88,13.88 0 0 1 -0.31,2.86 14,14 0 0 1 -1.56,4.26 12.29,12.29 0 0 1 -2.81,3.26 10.76,10.76 0 0 1 -6.86,2.73 9.19,9.19 0 0 1 -1.45,-0.13 7.93,7.93 0 0 1 -4.2,-1.68 4.54,4.54 0 0 1 -1.29,-3.48 6.08,6.08 0 0 1 0,-0.84 l 0.13,-0.7 -0.66,0.66 -0.09,0.09 a 12.82,12.82 0 0 1 -1.32,1.41 0.82,0.82 0 0 1 -0.7,0.17 0.69,0.69 0 0 1 -0.58,-0.75 2.66,2.66 0 0 1 0.44,-1.23 2.62,2.62 0 0 1 0.49,-0.57 c 0.79,-0.79 1.65,-1.64 2.59,-2.55 l 0.31,-0.31 a 6.76,6.76 0 0 0 0.64,-0.82 6.5,6.5 0 0 0 0.68,-1.18 c 0.18,-0.4 0.46,-1.15 0.84,-2.27 l 0.39,-0.88 a 6.71,6.71 0 0 1 1.1,-1.72 18,18 0 0 1 2.8,-2.57 3.68,3.68 0 0 1 2,-0.73 1.71,1.71 0 0 1 1.1,0.4 1.25,1.25 0 0 1 0.48,1 1.34,1.34 0 0 1 -0.17,0.77 z m 5,9.33 a 9,9 0 0 0 0.18,-1.81 5.34,5.34 0 0 0 -0.82,-3.1 3,3 0 0 0 -1.8,-1.36 8.54,8.54 0 0 0 -1.48,-0.2 3.11,3.11 0 0 0 -1.23,0.22 2.42,2.42 0 0 0 -0.88,0.62 q -0.75,0.92 -1,1.23 a 2.06,2.06 0 0 1 -0.49,0.39 5.9,5.9 0 0 0 -1.34,1 7.67,7.67 0 0 0 -0.81,1.95 9.94,9.94 0 0 0 -0.46,2.86 4.37,4.37 0 0 0 0.18,1.37 c 0.52,1.93 1.48,2.9 2.86,2.9 a 7.65,7.65 0 0 0 3.47,-1.19 6.7,6.7 0 0 0 3.64,-4.88 z"
     id="path14"
     style="fill:#ffffff" />
  <path
     class="cls-1"
     d="m 124.44,18.81 0.09,-0.49 v -0.44 l 0.22,-1.1 0.22,-1.36 q 0.61,-2.82 1.24,-4.84 A 11.37,11.37 0 0 1 126.82,9 c 0.11,-0.29 0.25,-0.6 0.39,-0.92 0.65,-1.35 1.1,-2.25 1.37,-2.69 a 3.21,3.21 0 0 1 0.83,-1 1.44,1.44 0 0 1 0.88,-0.34 1.18,1.18 0 0 1 1,0.51 2.14,2.14 0 0 1 0.37,1.12 c 0,0.41 0,0.81 0,1.19 v 1.5 a 7.56,7.56 0 0 1 -0.15,1.43 c -0.11,0.51 -0.35,1.6 -0.73,3.27 -0.26,1.21 -0.75,2.89 -1.45,5.07 l -0.92,2.68 -0.09,0.26 -0.31,1.54 0.4,2.77 0.3,2.16 0.14,0.79 0.17,0.8 c 0.21,0.87 0.37,1.5 0.49,1.86 a 7.48,7.48 0 0 0 0.39,1 1.79,1.79 0 0 0 1.54,1.05 2.69,2.69 0 0 0 1.81,-0.79 l 1,-0.92 a 4.57,4.57 0 0 0 0.61,-0.62 0.49,0.49 0 0 1 0.44,-0.22 1,1 0 0 1 0.71,0.35 0.77,0.77 0 0 1 0.17,0.53 1.8,1.8 0 0 1 -0.61,1.24 l -1.28,1.31 -0.09,0.09 c -1.46,1.35 -2.71,2 -3.74,2 -1.03,0 -2.15,-0.75 -3.21,-2.25 a 11.86,11.86 0 0 1 -1.08,-2 19.78,19.78 0 0 1 -1,-2.81 l -0.22,-0.8 -0.13,-0.79 -0.82,2.22 -1.45,2.64 a 21.24,21.24 0 0 1 -3.15,3.92 4,4 0 0 1 -2.53,1.18 2.42,2.42 0 0 1 -0.79,-0.13 3.22,3.22 0 0 1 -2.47,-3.52 10.82,10.82 0 0 1 0.27,-2.2 l 0.17,-0.66 -0.57,0.62 c -0.59,0.61 -1,1 -1.16,1.14 a 0.85,0.85 0 0 1 -0.64,0.18 0.71,0.71 0 0 1 -0.62,-1 2.68,2.68 0 0 1 0.57,-1 l 0.58,-0.61 1.58,-1.72 0.26,-0.26 2.25,-2.69 0.66,-0.75 a 43.22,43.22 0 0 1 4.31,-4.22 11.55,11.55 0 0 1 3.17,-1.7 z m -1.85,4.8 -1.36,1.84 -1.23,1.81 -0.22,0.35 -0.26,0.39 c -0.73,1.35 -1.24,2.37 -1.52,3.06 a 4.82,4.82 0 0 0 -0.42,1.74 2.1,2.1 0 0 0 0.09,0.66 6.74,6.74 0 0 0 0.31,0.75 4,4 0 0 0 1.19,-0.84 15.94,15.94 0 0 0 1.27,-1.8 l 1.32,-2.11 0.31,-0.53 1.45,-2.55 0.58,-1.1 0.39,-0.75 v -0.66 l -0.05,-0.62 v -0.83 -0.79 l -1.59,1.84 z"
     id="path16"
     style="fill:#ffffff" />
  <path
     class="cls-1"
     d="m 148.51,19.38 2.2,-0.44 a 2.71,2.71 0 0 1 0.68,-0.09 h 0.51 q 4.62,0 4.62,5.33 a 14.61,14.61 0 0 1 -0.31,2.86 14,14 0 0 1 -1.56,4.26 12.47,12.47 0 0 1 -2.84,3.26 10.78,10.78 0 0 1 -6.81,2.73 9.31,9.31 0 0 1 -1.46,-0.13 8,8 0 0 1 -4.2,-1.68 A 4.58,4.58 0 0 1 138,32 a 6.35,6.35 0 0 1 0,-0.84 l 0.13,-0.7 -0.66,0.66 -0.08,0.09 a 12.82,12.82 0 0 1 -1.32,1.41 0.83,0.83 0 0 1 -0.71,0.17 0.69,0.69 0 0 1 -0.57,-0.75 2.66,2.66 0 0 1 0.44,-1.23 2.79,2.79 0 0 1 0.48,-0.57 c 0.8,-0.79 1.66,-1.64 2.6,-2.55 l 0.31,-0.31 a 8.59,8.59 0 0 0 1.32,-2 c 0.17,-0.4 0.45,-1.15 0.83,-2.27 l 0.4,-0.88 a 6.45,6.45 0 0 1 1.1,-1.72 17.54,17.54 0 0 1 2.87,-2.51 3.7,3.7 0 0 1 2,-0.73 1.73,1.73 0 0 1 1.1,0.4 1.25,1.25 0 0 1 0.48,1 1.34,1.34 0 0 1 -0.21,0.71 z m 5,9.33 a 9.83,9.83 0 0 0 0.17,-1.81 5.34,5.34 0 0 0 -0.81,-3.1 3,3 0 0 0 -1.81,-1.36 8.57,8.57 0 0 0 -1.47,-0.2 3.11,3.11 0 0 0 -1.23,0.22 2.34,2.34 0 0 0 -0.88,0.62 c -0.5,0.61 -0.85,1 -1.06,1.23 a 2.06,2.06 0 0 1 -0.48,0.39 5.67,5.67 0 0 0 -1.34,1 7.28,7.28 0 0 0 -0.75,1.91 9.94,9.94 0 0 0 -0.46,2.86 4.4,4.4 0 0 0 0.17,1.37 c 0.53,1.93 1.48,2.9 2.86,2.9 a 7.64,7.64 0 0 0 3.48,-1.19 6.75,6.75 0 0 0 3.63,-4.84 z"
     id="path18"
     style="fill:#ffffff" />
  <path
     class="cls-1"
     d="m 164,20.17 h 0.61 c 1.29,0 2.12,0.38 2.49,1.15 0.37,0.77 0.55,2.46 0.55,5.1 a 20.39,20.39 0 0 1 -1.36,6.16 l -0.22,0.62 -0.09,0.22 a 7.82,7.82 0 0 0 1.32,-1.15 l 1.58,-1.58 a 1.73,1.73 0 0 1 1.23,0.13 2.82,2.82 0 0 1 -0.61,1.85 12.6,12.6 0 0 1 -1.28,1.27 l -1.63,1.54 -0.92,0.62 a 4.45,4.45 0 0 0 -0.48,0.31 l -0.09,0.17 c -0.21,0.36 -0.37,0.65 -0.49,0.88 a 1.71,1.71 0 0 1 -1.71,0.88 2.3,2.3 0 0 1 -1.06,-0.26 3.06,3.06 0 0 1 -1.52,-1.8 6.33,6.33 0 0 1 -0.41,-1.72 0.58,0.58 0 0 1 0.37,-0.62 4.7,4.7 0 0 1 1.3,-0.13 3.53,3.53 0 0 0 1.32,-0.48 l 0.22,-0.88 a 17.79,17.79 0 0 0 0.66,-4.14 6.82,6.82 0 0 0 -0.27,-1.93 l -1.14,0.88 c -0.94,0.76 -1.78,1.49 -2.51,2.2 a 9.32,9.32 0 0 0 -1.23,1.32 14.42,14.42 0 0 1 -1.5,1.76 c -0.29,0.35 -0.63,0.23 -1,-0.36 a 2.18,2.18 0 0 1 -0.26,-0.7 1.51,1.51 0 0 1 0.42,-0.9 21.79,21.79 0 0 1 1.65,-1.7 c 0.26,-0.26 0.52,-0.53 0.77,-0.81 0.25,-0.28 0.65,-0.77 1.21,-1.47 l 0.88,-1.1 1,-1.28 a 17.09,17.09 0 0 0 1.38,-2.09 11.56,11.56 0 0 0 0.82,-1.96 z"
     id="path20"
     style="fill:#ffffff" />
  <path
     class="cls-1"
     d="m 174.91,27.65 -0.88,0.79 -2,1.9 c -0.46,0.52 -0.91,1 -1.34,1.47 a 3.87,3.87 0 0 1 -0.92,0.82 1.33,1.33 0 0 1 -0.42,0.13 0.79,0.79 0 0 1 -0.66,-0.29 1,1 0 0 1 -0.22,-0.64 1.43,1.43 0 0 1 0.48,-1 l 1.37,-1.32 0.31,-0.31 1.4,-1.41 2.82,-2.9 0.62,-0.66 c 1,-1 1.76,-1.54 2.28,-1.54 a 6.11,6.11 0 0 1 1.5,0.37 2.32,2.32 0 0 1 1.34,0.84 9.56,9.56 0 0 1 0.24,2.93 c 0.06,0.58 0.12,1.05 0.18,1.4 0.06,0.35 0.16,0.84 0.31,1.46 l 0.35,1.18 q 1.14,3.7 3.21,3.7 a 3.47,3.47 0 0 0 2.07,-0.84 c 0.56,-0.44 1,-0.77 1.23,-1 0.23,-0.23 0.52,-0.47 0.75,-0.7 a 9.75,9.75 0 0 1 1.07,-1.21 0.83,0.83 0 0 1 0.71,-0.17 0.7,0.7 0 0 1 0.61,1 2,2 0 0 1 -0.41,0.88 c -0.22,0.3 -0.67,0.81 -1.35,1.54 l -1.54,1.32 a 13,13 0 0 1 -3.52,2.2 10.19,10.19 0 0 1 -3.6,1 3.1,3.1 0 0 1 -2.53,-1.34 18.43,18.43 0 0 1 -2.23,-4.73 q -0.44,-1.19 -0.72,-2.25 c -0.15,-0.77 -0.34,-1.62 -0.51,-2.62 z m 2,-15 a 2.48,2.48 0 0 1 0.16,-1.26 6.79,6.79 0 0 1 1,-1.69 5.92,5.92 0 0 1 1.74,-1.59 2.09,2.09 0 0 1 3.19,1.24 3.78,3.78 0 0 1 0.26,1.45 4,4 0 0 1 -2.81,3.83 3.42,3.42 0 0 1 -0.93,0.13 2.33,2.33 0 0 1 -2.59,-2.15 z"
     id="path22"
     style="fill:#ffffff" />
  <path
     class="cls-1"
     d="m 204.39,31.57 -1.06,1.23 a 24.89,24.89 0 0 1 -2.79,2.86 10.89,10.89 0 0 1 -5.83,2.34 4.16,4.16 0 0 1 -2.82,-0.88 2.28,2.28 0 0 1 -0.83,-2.15 10.35,10.35 0 0 1 0.48,-1.85 l 0.48,-1.32 -0.88,0.79 a 0.65,0.65 0 0 1 -0.66,0.18 0.6,0.6 0 0 1 -0.48,-0.49 1.33,1.33 0 0 1 0,-0.88 3.62,3.62 0 0 1 0.8,-1.05 l 1.36,-1.41 0.62,-0.57 2,-1.9 0.66,-0.61 c 0.7,-0.62 1.48,-1.23 2.33,-1.85 0.85,-0.62 1.64,-1.14 2.38,-1.58 a 25.66,25.66 0 0 1 3.94,-1.92 8.72,8.72 0 0 1 2.83,-0.59 2.17,2.17 0 0 1 2,0.88 0.54,0.54 0 0 1 0.09,0.44 0.45,0.45 0 0 1 -0.22,0.35 6.13,6.13 0 0 1 -0.68,0.35 4.57,4.57 0 0 1 -1.06,0.31 11.27,11.27 0 0 0 -2.15,0.81 28.49,28.49 0 0 0 -3.54,2.05 q -1.36,1 -2.31,1.74 a 12,12 0 0 0 -1.52,1.43 11.39,11.39 0 0 0 -2.51,3.87 1.69,1.69 0 0 0 -0.09,0.62 1.2,1.2 0 0 0 1.19,1.32 3.44,3.44 0 0 0 1.5,-0.36 13,13 0 0 0 2.11,-1.4 c 0.32,-0.3 0.54,-0.49 0.66,-0.58 0.41,-0.38 0.86,-0.83 1.36,-1.36 l 1,-1.14 q 2.55,-3.3 3.26,-4 a 2.41,2.41 0 0 1 1.67,-0.93 4.72,4.72 0 0 0 0.53,0 1.64,1.64 0 0 1 1.58,1.8 2.13,2.13 0 0 1 0,0.49 9.78,9.78 0 0 1 -0.93,2.81 l -0.39,1.28 a 15.48,15.48 0 0 0 -0.27,2.2 2.72,2.72 0 0 0 0.29,1.23 0.69,0.69 0 0 0 1,0.31 c 0.32,-0.18 0.63,-0.37 0.92,-0.57 a 14,14 0 0 0 1.45,-1.28 l 0.53,-0.48 a 13.79,13.79 0 0 1 1.32,-1.43 0.86,0.86 0 0 1 0.75,-0.2 0.71,0.71 0 0 1 0.53,0.31 0.75,0.75 0 0 1 0.09,0.61 4.31,4.31 0 0 1 -0.75,1.37 c -0.53,0.55 -1,1.07 -1.45,1.54 a 15,15 0 0 1 -3.17,2.28 3.69,3.69 0 0 1 -1,0.44 3.76,3.76 0 0 1 -1,0.14 2.77,2.77 0 0 1 -2.9,-2.07 5.65,5.65 0 0 1 -0.13,-0.82 c 0,-0.3 -0.05,-0.9 -0.05,-1.78 l 0.09,-1.19 z"
     id="path24"
     style="fill:#ffffff" />
</svg>
