<svg id="Слой_1" data-name="Слой 1" xmlns="http://www.w3.org/2000/svg" viewBox="0 0 793.46 118.02"><defs><style>.cls-1{fill:#fff;}</style></defs><title>Монтажная область 32</title><path class="cls-1" d="M34.16,10.93a4.92,4.92,0,0,1,0-.79,4,4,0,0,1,.27-1.36,11,11,0,0,1,1.31-3,5.53,5.53,0,0,1,2.65-.35l2.59-.18.4,0h4.49a27.89,27.89,0,0,1,5.93.35c.71.24,1.06.87,1.06,1.89,0,.79-.2,1.29-.62,1.5a7.35,7.35,0,0,1-2.68.31H46.92l-2.42.17.35.31.31.26,1.32,1.15-.62,3-.57,2.81-.44,2.25-.66,3.34-.35,1.8-.62,3.44c-.24,1.29-.38,2.15-.44,2.59-.21,1.12-.32,1.87-.35,2.25a22.2,22.2,0,0,1-.62,4.07,1.56,1.56,0,0,1-1.1,1.07,1.19,1.19,0,0,1-1,0,.75.75,0,0,1-.39-.7c.09-1.59.16-2.91.22-4s.09-2.35.09-3.84c.17-1.82.32-3.2.44-4.14l.57-4,.88-6,.22-1.58.48-3.83-.66.13-.44,0-.92.18-2,.4Z"/><path class="cls-1" d="M52.24,28.14,52.55,26q.48-3.16,1-5.81c.37-1.76.7-3.17,1-4.22a35.65,35.65,0,0,1,1.91-5.41,13.05,13.05,0,0,1,2-3A13.24,13.24,0,0,1,61,5.34a9.22,9.22,0,0,1,2.69-1.1,6.28,6.28,0,0,1,.79-.08c1.35,0,2.1.58,2.24,1.76a5.23,5.23,0,0,1,.05.83,8,8,0,0,1-.22,1.78c-.15.66-.42,1.65-.82,3a24.71,24.71,0,0,1-2.17,4.8,52.26,52.26,0,0,1-4.1,6.16c-.73,1-1.13,1.48-1.18,1.54-.24.29-.59.69-1.06,1.19l-.4.44-.52.57-.53,2.55-.09.84-.26,1.89c-.18,1.12-.28,2-.31,2.53s-.05,1.3-.05,2.18c.27-.68.5-1.23.71-1.67l.83-1.63c.65-1.26,1.24-2.35,1.76-3.26s1-1.6,1.28-2.07a23.72,23.72,0,0,1,2.07-2.75,3.58,3.58,0,0,1,1.49-1,4.75,4.75,0,0,1,1.32-.24q1.5,0,1.5,2.55a15.67,15.67,0,0,0,.31,2.51l.17,1.18.58,2.42c.52,1.53,1.13,2.29,1.8,2.29s1.54-.54,2.86-1.63l.62-.61c1-1.15,1.7-1.72,2-1.72a5.12,5.12,0,0,1,.7.18,4.13,4.13,0,0,1-1,2.75,16.84,16.84,0,0,1-3.76,2.88,5.94,5.94,0,0,1-2.91.92,3.61,3.61,0,0,1-2.81-1.47,14.16,14.16,0,0,1-2.25-4.64l-.66-2.11-.13-.44a24,24,0,0,0-2.81,3.91c-.39.68-.77,1.36-1.15,2.07L56.9,36q-1.14,2.91-2.55,2.91a3,3,0,0,1-1.43-.42,2,2,0,0,1-1-1.17A8.06,8.06,0,0,1,51.67,35l0-2.11,0-.39,0-1.37a3.43,3.43,0,0,0-.66.66l-.71.8q-.21.34-.48.21c-.62-.14-.85-.55-.7-1.23a2.81,2.81,0,0,1,.57-1l.57-.57,1-1,.18-.22ZM62.49,15l1.76-3.87a8.22,8.22,0,0,0,.92-3,1.33,1.33,0,0,0-.28-.88.83.83,0,0,0-1.3-.09A9.24,9.24,0,0,0,62,9.26c-1.38,2.61-2.2,4.2-2.47,4.75s-.78,1.92-1.54,4.1a18.08,18.08,0,0,0-1.27,5.1,25.28,25.28,0,0,0,5.5-7.66Z"/><path class="cls-1" d="M80.13,30.86a2.82,2.82,0,0,0,0,.84,3.1,3.1,0,0,0,1,2.38,3.74,3.74,0,0,0,2.6.92,4.7,4.7,0,0,0,2.11-.48,7.52,7.52,0,0,0,2.51-1.81l1.38-1.36c.49-.47.86-.7,1.13-.7a2.25,2.25,0,0,1,.74.17,5.11,5.11,0,0,1-1.16,2.66,18.83,18.83,0,0,1-3.76,3,8.55,8.55,0,0,1-2.42,1.06,10,10,0,0,1-2.34.31,5.91,5.91,0,0,1-3.78-1.19,5,5,0,0,1-1.85-3.17,7,7,0,0,1-.09-.92,5.86,5.86,0,0,1,.07-1,6.3,6.3,0,0,1,.37-1.1l-.88.92-1.18,1.28a.72.72,0,0,1-1-.4,1.12,1.12,0,0,1-.13-.53A2,2,0,0,1,74,30.65a21.65,21.65,0,0,1,1.93-2l2.16-2.07.53-.44Q80,24.93,81.1,24.09c.5-.38,1.12-.84,1.85-1.37a17.45,17.45,0,0,1,3.43-1.82,7.19,7.19,0,0,1,2.33-.51,2.27,2.27,0,0,1,1.54.66,2,2,0,0,1,.53,1.41,2.61,2.61,0,0,1-.09.66,5.76,5.76,0,0,1-.33.9,10.93,10.93,0,0,1-.72,1.34,9.53,9.53,0,0,1-3.13,2.95,19.9,19.9,0,0,1-5.32,2.25l-.88.26Zm8.06-7.21A2.33,2.33,0,0,0,87,23.3a2.37,2.37,0,0,0-1.25.39A14.18,14.18,0,0,0,84,25.19l-1.89,1.67A10.51,10.51,0,0,0,80.71,29a13.75,13.75,0,0,0,3.65-1.36,10.75,10.75,0,0,0,2.53-1.83A6.08,6.08,0,0,0,88.19,23.65Z"/><path class="cls-1" d="M103.67,19.38l2.2-.44a2.84,2.84,0,0,1,.69-.09h.5q4.62,0,4.62,5.33a13.88,13.88,0,0,1-.31,2.86,14,14,0,0,1-1.56,4.26A12.29,12.29,0,0,1,107,34.56a10.76,10.76,0,0,1-6.86,2.73,9.19,9.19,0,0,1-1.45-.13,7.93,7.93,0,0,1-4.2-1.68A4.54,4.54,0,0,1,93.2,32a6.08,6.08,0,0,1,0-.84l.13-.7-.66.66-.09.09a12.82,12.82,0,0,1-1.32,1.41.82.82,0,0,1-.7.17.69.69,0,0,1-.58-.75,2.66,2.66,0,0,1,.44-1.23,2.62,2.62,0,0,1,.49-.57c.79-.79,1.65-1.64,2.59-2.55l.31-.31a6.76,6.76,0,0,0,.64-.82,6.5,6.5,0,0,0,.68-1.18c.18-.4.46-1.15.84-2.27l.39-.88a6.71,6.71,0,0,1,1.1-1.72,18,18,0,0,1,2.8-2.57,3.68,3.68,0,0,1,2-.73,1.71,1.71,0,0,1,1.1.4,1.25,1.25,0,0,1,.48,1A1.34,1.34,0,0,1,103.67,19.38Zm5,9.33a9,9,0,0,0,.18-1.81,5.34,5.34,0,0,0-.82-3.1,3,3,0,0,0-1.8-1.36,8.54,8.54,0,0,0-1.48-.2,3.11,3.11,0,0,0-1.23.22,2.42,2.42,0,0,0-.88.62q-.75.92-1,1.23a2.06,2.06,0,0,1-.49.39,5.9,5.9,0,0,0-1.34,1A7.67,7.67,0,0,0,99,27.65a9.94,9.94,0,0,0-.46,2.86,4.37,4.37,0,0,0,.18,1.37c.52,1.93,1.48,2.9,2.86,2.9a7.65,7.65,0,0,0,3.47-1.19A6.7,6.7,0,0,0,108.69,28.71Z"/><path class="cls-1" d="M124.44,18.81l.09-.49,0-.44.22-1.1.22-1.36q.61-2.82,1.24-4.84A11.37,11.37,0,0,1,126.82,9c.11-.29.25-.6.39-.92.65-1.35,1.1-2.25,1.37-2.69a3.21,3.21,0,0,1,.83-1,1.44,1.44,0,0,1,.88-.34,1.18,1.18,0,0,1,1,.51,2.14,2.14,0,0,1,.37,1.12c0,.41,0,.81,0,1.19v1.5a7.56,7.56,0,0,1-.15,1.43c-.11.51-.35,1.6-.73,3.27-.26,1.21-.75,2.89-1.45,5.07l-.92,2.68-.09.26-.31,1.54.4,2.77.3,2.16.14.79.17.8c.21.87.37,1.5.49,1.86a7.48,7.48,0,0,0,.39,1,1.79,1.79,0,0,0,1.54,1.05,2.69,2.69,0,0,0,1.81-.79l1-.92a4.57,4.57,0,0,0,.61-.62.49.49,0,0,1,.44-.22,1,1,0,0,1,.71.35.77.77,0,0,1,.17.53,1.8,1.8,0,0,1-.61,1.24l-1.28,1.31-.09.09c-1.46,1.35-2.71,2-3.74,2s-2.15-.75-3.21-2.25a11.86,11.86,0,0,1-1.08-2,19.78,19.78,0,0,1-1-2.81l-.22-.8-.13-.79L124,29.59l-1.45,2.64a21.24,21.24,0,0,1-3.15,3.92,4,4,0,0,1-2.53,1.18,2.42,2.42,0,0,1-.79-.13,3.22,3.22,0,0,1-2.47-3.52,10.82,10.82,0,0,1,.27-2.2l.17-.66-.57.62c-.59.61-1,1-1.16,1.14a.85.85,0,0,1-.64.18.71.71,0,0,1-.62-1,2.68,2.68,0,0,1,.57-1l.58-.61,1.58-1.72.26-.26,2.25-2.69.66-.75a43.22,43.22,0,0,1,4.31-4.22A11.55,11.55,0,0,1,124.44,18.81Zm-1.85,4.8-1.36,1.84L120,27.26l-.22.35-.26.39c-.73,1.35-1.24,2.37-1.52,3.06a4.82,4.82,0,0,0-.42,1.74,2.1,2.1,0,0,0,.09.66,6.74,6.74,0,0,0,.31.75,4,4,0,0,0,1.19-.84,15.94,15.94,0,0,0,1.27-1.8l1.32-2.11.31-.53,1.45-2.55.58-1.1.39-.75,0-.66-.05-.62,0-.83,0-.79-1.59,1.84Z"/><path class="cls-1" d="M148.51,19.38l2.2-.44a2.71,2.71,0,0,1,.68-.09h.51q4.62,0,4.62,5.33a14.61,14.61,0,0,1-.31,2.86,14,14,0,0,1-1.56,4.26,12.47,12.47,0,0,1-2.84,3.26A10.78,10.78,0,0,1,145,37.29a9.31,9.31,0,0,1-1.46-.13,8,8,0,0,1-4.2-1.68A4.58,4.58,0,0,1,138,32a6.35,6.35,0,0,1,0-.84l.13-.7-.66.66-.08.09a12.82,12.82,0,0,1-1.32,1.41.83.83,0,0,1-.71.17.69.69,0,0,1-.57-.75,2.66,2.66,0,0,1,.44-1.23,2.79,2.79,0,0,1,.48-.57c.8-.79,1.66-1.64,2.6-2.55l.31-.31a8.59,8.59,0,0,0,1.32-2c.17-.4.45-1.15.83-2.27l.4-.88a6.45,6.45,0,0,1,1.1-1.72A17.54,17.54,0,0,1,145.14,18a3.7,3.7,0,0,1,2-.73,1.73,1.73,0,0,1,1.1.4,1.25,1.25,0,0,1,.48,1A1.34,1.34,0,0,1,148.51,19.38Zm5,9.33a9.83,9.83,0,0,0,.17-1.81,5.34,5.34,0,0,0-.81-3.1,3,3,0,0,0-1.81-1.36,8.57,8.57,0,0,0-1.47-.2,3.11,3.11,0,0,0-1.23.22,2.34,2.34,0,0,0-.88.62c-.5.61-.85,1-1.06,1.23a2.06,2.06,0,0,1-.48.39,5.67,5.67,0,0,0-1.34,1,7.28,7.28,0,0,0-.75,1.91,9.94,9.94,0,0,0-.46,2.86,4.4,4.4,0,0,0,.17,1.37c.53,1.93,1.48,2.9,2.86,2.9a7.64,7.64,0,0,0,3.48-1.19A6.75,6.75,0,0,0,153.53,28.71Z"/><path class="cls-1" d="M164,20.17h.61c1.29,0,2.12.38,2.49,1.15s.55,2.46.55,5.1a20.39,20.39,0,0,1-1.36,6.16l-.22.62-.09.22a7.82,7.82,0,0,0,1.32-1.15l1.58-1.58a1.73,1.73,0,0,1,1.23.13,2.82,2.82,0,0,1-.61,1.85,12.6,12.6,0,0,1-1.28,1.27l-1.63,1.54-.92.62a4.45,4.45,0,0,0-.48.31l-.09.17c-.21.36-.37.65-.49.88a1.71,1.71,0,0,1-1.71.88,2.3,2.3,0,0,1-1.06-.26,3.06,3.06,0,0,1-1.52-1.8,6.33,6.33,0,0,1-.41-1.72.58.58,0,0,1,.37-.62,4.7,4.7,0,0,1,1.3-.13,3.53,3.53,0,0,0,1.32-.48l.22-.88a17.79,17.79,0,0,0,.66-4.14,6.82,6.82,0,0,0-.27-1.93l-1.14.88c-.94.76-1.78,1.49-2.51,2.2a9.32,9.32,0,0,0-1.23,1.32,14.42,14.42,0,0,1-1.5,1.76c-.29.35-.63.23-1-.36a2.18,2.18,0,0,1-.26-.7,1.51,1.51,0,0,1,.42-.9,21.79,21.79,0,0,1,1.65-1.7c.26-.26.52-.53.77-.81s.65-.77,1.21-1.47l.88-1.1,1-1.28a17.09,17.09,0,0,0,1.38-2.09A11.56,11.56,0,0,0,164,20.17Z"/><path class="cls-1" d="M174.91,27.65l-.88.79-2,1.9c-.46.52-.91,1-1.34,1.47a3.87,3.87,0,0,1-.92.82,1.33,1.33,0,0,1-.42.13.79.79,0,0,1-.66-.29,1,1,0,0,1-.22-.64,1.43,1.43,0,0,1,.48-1l1.37-1.32.31-.31,1.4-1.41,2.82-2.9.62-.66c1-1,1.76-1.54,2.28-1.54a6.11,6.11,0,0,1,1.5.37,2.32,2.32,0,0,1,1.34.84,9.56,9.56,0,0,1,.24,2.93c.06.58.12,1.05.18,1.4s.16.84.31,1.46l.35,1.18q1.14,3.7,3.21,3.7a3.47,3.47,0,0,0,2.07-.84c.56-.44,1-.77,1.23-1s.52-.47.75-.7A9.75,9.75,0,0,1,190,30.82a.83.83,0,0,1,.71-.17.7.7,0,0,1,.61,1,2,2,0,0,1-.41.88c-.22.3-.67.81-1.35,1.54l-1.54,1.32a13,13,0,0,1-3.52,2.2,10.19,10.19,0,0,1-3.6,1,3.1,3.1,0,0,1-2.53-1.34,18.43,18.43,0,0,1-2.23-4.73q-.44-1.19-.72-2.25C175.27,29.5,175.08,28.65,174.91,27.65Zm2-15a2.48,2.48,0,0,1,.16-1.26,6.79,6.79,0,0,1,1-1.69,5.92,5.92,0,0,1,1.74-1.59A2.09,2.09,0,0,1,183,9.35a3.78,3.78,0,0,1,.26,1.45,4,4,0,0,1-2.81,3.83,3.42,3.42,0,0,1-.93.13A2.33,2.33,0,0,1,176.93,12.61Z"/><path class="cls-1" d="M204.39,31.57l-1.06,1.23a24.89,24.89,0,0,1-2.79,2.86A10.89,10.89,0,0,1,194.71,38a4.16,4.16,0,0,1-2.82-.88,2.28,2.28,0,0,1-.83-2.15,10.35,10.35,0,0,1,.48-1.85l.48-1.32-.88.79a.65.65,0,0,1-.66.18.6.6,0,0,1-.48-.49,1.33,1.33,0,0,1,0-.88,3.62,3.62,0,0,1,.8-1.05l1.36-1.41.62-.57,2-1.9.66-.61c.7-.62,1.48-1.23,2.33-1.85s1.64-1.14,2.38-1.58a25.66,25.66,0,0,1,3.94-1.92,8.72,8.72,0,0,1,2.83-.59,2.17,2.17,0,0,1,2,.88.54.54,0,0,1,.09.44.45.45,0,0,1-.22.35,6.13,6.13,0,0,1-.68.35,4.57,4.57,0,0,1-1.06.31,11.27,11.27,0,0,0-2.15.81,28.49,28.49,0,0,0-3.54,2.05q-1.36,1-2.31,1.74a12,12,0,0,0-1.52,1.43,11.39,11.39,0,0,0-2.51,3.87,1.69,1.69,0,0,0-.09.62,1.2,1.2,0,0,0,1.19,1.32,3.44,3.44,0,0,0,1.5-.36,13,13,0,0,0,2.11-1.4c.32-.3.54-.49.66-.58.41-.38.86-.83,1.36-1.36l1-1.14q2.55-3.3,3.26-4a2.41,2.41,0,0,1,1.67-.93,4.72,4.72,0,0,0,.53,0,1.64,1.64,0,0,1,1.58,1.8,2.13,2.13,0,0,1,0,.49,9.78,9.78,0,0,1-.93,2.81l-.39,1.28a15.48,15.48,0,0,0-.27,2.2,2.72,2.72,0,0,0,.29,1.23.69.69,0,0,0,1,.31c.32-.18.63-.37.92-.57a14,14,0,0,0,1.45-1.28l.53-.48a13.79,13.79,0,0,1,1.32-1.43.86.86,0,0,1,.75-.2.71.71,0,0,1,.53.31.75.75,0,0,1,.09.61,4.31,4.31,0,0,1-.75,1.37c-.53.55-1,1.07-1.45,1.54a15,15,0,0,1-3.17,2.28,3.69,3.69,0,0,1-1,.44,3.76,3.76,0,0,1-1,.14,2.77,2.77,0,0,1-2.9-2.07,5.65,5.65,0,0,1-.13-.82c0-.3-.05-.9-.05-1.78l.09-1.19Z"/></svg>