<?xml version="1.0" encoding="UTF-8" standalone="no"?>
<svg
   xmlns:dc="http://purl.org/dc/elements/1.1/"
   xmlns:cc="http://creativecommons.org/ns#"
   xmlns:rdf="http://www.w3.org/1999/02/22-rdf-syntax-ns#"
   xmlns:svg="http://www.w3.org/2000/svg"
   xmlns="http://www.w3.org/2000/svg"
   xmlns:sodipodi="http://sodipodi.sourceforge.net/DTD/sodipodi-0.dtd"
   xmlns:inkscape="http://www.inkscape.org/namespaces/inkscape"
   version="1.0"
   width="652pt"
   height="550pt"
   viewBox="0 0 652 550"
   preserveAspectRatio="xMidYMid meet"
   id="svg26"
   sodipodi:docname="бабаочка 2.svg"
   inkscape:version="1.0.2 (e86c870879, 2021-01-15, custom)">
  <defs
     id="defs30" />
  <sodipodi:namedview
     pagecolor="#ffffff"
     bordercolor="#666666"
     borderopacity="1"
     objecttolerance="10"
     gridtolerance="10"
     guidetolerance="10"
     inkscape:pageopacity="0"
     inkscape:pageshadow="2"
     inkscape:window-width="1580"
     inkscape:window-height="879"
     id="namedview28"
     showgrid="false"
     inkscape:zoom="0.48485257"
     inkscape:cx="545.84188"
     inkscape:cy="181.90544"
     inkscape:window-x="139"
     inkscape:window-y="52"
     inkscape:window-maximized="0"
     inkscape:current-layer="layer4"
     inkscape:document-rotation="0" />
  <metadata
     id="metadata2">
Created by potrace 1.15, written by Peter Selinger 2001-2017
<rdf:RDF>
  <cc:Work
     rdf:about="">
    <dc:format>image/svg+xml</dc:format>
    <dc:type
       rdf:resource="http://purl.org/dc/dcmitype/StillImage" />
    <dc:title></dc:title>
  </cc:Work>
</rdf:RDF>
</metadata>
  <g
     inkscape:groupmode="layer"
     id="layer3"
     inkscape:label="Layer 1"
     style="display:inline">
    <path
       d="m 555.47415,-208.77103 c -4.3,3.6 -10.7,13.6 -11.5,17.9 -0.5,2.8 -0.1,4.2 2.2,7.5 3,4.4 3.1,4.3 -2.1,7.4 -4.2,2.5 4.3,11.3 17,17.8 5.1,2.6 6.1,3.5 3.8,3 -5.3,-0.9 -12.3,0.6 -14.9,3.2 -1.8,1.8 -2.4,3.5 -2.4,7 0,11.9 8.3,18.7 20.1,16.5 6.8,-1.3 8.4,-2.3 15.8,-9.4 l 6.3,-6.1 -0.6,4.5 c -0.6,4.6 -0.1,4.5 3,-0.7 0.9,-1.5 1.3,-0.5 2.4,5.7 1.4,8.6 3,12.2 7.4,16.8 4.9,5.3 8.3,6.6 15.8,6.3 5.1,-0.2 12.8,-8.9 12.8,-14.3 0,-2.3 -6.1,-9.1 -10.5,-11.7 -1.8,-1.1 -1.7,-1.2 1,-0.6 1.7,0.3 6.8,0.8 11.5,1.1 10.6,0.7 16.6,-0.9 16.3,-4.4 -0.2,-1.2 -0.4,-3.2 -0.5,-4.3 -0.2,-1.7 0.5,-2.5 3.1,-3.4 5.9,-2 7.6,-5.3 7.9,-16.1 0.5,-11 -0.7,-14.7 -4.9,-16.4 -8.9,-3.7 -36.5,6.8 -49,18.7 -2.9,2.8 -3.8,3.1 -4.7,2 -0.9,-1 -0.2,-2.6 2.9,-7 5.3,-7.4 4.2,-7.4 -1.3,0 l -4.3,5.7 -0.6,-5.5 -0.6,-5.4 -0.1,5.1 c -0.2,4.1 -0.6,5.3 -2.1,5.7 -1.6,0.4 -2.1,-0.4 -3.1,-5.7 -2.3,-12.3 -15.2,-34.5 -23.7,-40.9 -4.6,-3.4 -8.3,-3.4 -12.4,0 z m 37.8,51.5 c -0.3,0.8 -0.6,0.5 -0.6,-0.6 -0.1,-1.1 0.2,-1.7 0.5,-1.3 0.3,0.3 0.4,1.2 0.1,1.9 z"
       id="path4"
       style="fill:#800000;stroke-width:0.1" />
  </g>
  <g
     inkscape:groupmode="layer"
     id="layer4"
     inkscape:label="Layer 2"
     style="display:inline">
    <path
       d="m 552.40203,45.08883 c -58.53813,27.9585 -99.31096,71.0612 -147.65589,156.39292 -18.34777,32.90949 -27.66728,56.20825 -29.99716,77.46837 -1.7474,13.39678 -2.03863,13.97926 -6.98962,9.31951 -4.07729,-3.78605 -4.65975,-5.82469 -2.32987,-9.02827 2.6211,-2.91234 2.32987,-4.95099 0,-7.86334 -2.91235,-3.20357 -2.91235,-5.82469 0,-10.77568 2.32987,-4.65975 2.91234,-16.60036 1.45617,-42.81146 -1.74742,-30.57963 -1.45617,-37.27802 2.6211,-43.68517 4.36852,-7.57211 4.36852,-7.28087 -3.20357,0.8737 -7.5721,8.15456 -7.5721,9.02826 -5.24222,29.12344 3.49482,29.12345 2.91234,56.20826 -1.16495,60.28555 -2.6211,2.62111 -3.4948,2.32988 -3.4948,-2.32989 0,-4.36851 -0.58247,-4.65974 -2.62112,-1.45617 -1.45617,2.32989 -5.24222,3.49482 -8.44579,2.62112 -4.36852,-1.16495 -5.53346,-0.58247 -4.36852,2.32987 0.8737,2.32988 0,5.82469 -1.74742,8.15457 -4.07727,4.65975 -1.16493,13.39678 4.36852,13.39678 4.36852,0 5.53347,10.19322 1.45618,12.81432 -1.45618,0.87371 -5.8247,-3.49481 -10.19322,-9.90197 C 321.45307,269.63062 288.54358,247.4968 223.01582,214.58729 172.34101,189.24989 113.2204,176.43558 66.914128,180.8041 c -55.33456,5.24222 -56.49949,23.00752 -4.951,82.71059 10.48444,12.23185 23.59,32.61826 32.0358,49.21864 24.463692,48.63615 36.113082,55.04331 80.380732,44.55887 14.27048,-3.49482 25.91987,-5.82469 26.50234,-5.24222 0.58246,0.58247 -6.98964,7.28087 -16.89161,15.43543 -29.12344,23.00753 -45.43257,63.48911 -31.74456,78.05084 3.20358,3.49482 6.69839,10.48444 7.86334,15.43543 1.16493,5.24222 4.36852,10.19322 8.44579,11.94062 3.49482,1.7474 9.90197,8.73704 13.68803,15.72666 6.40715,11.35814 7.86332,12.52308 16.60036,11.64938 7.28087,-0.58247 12.23184,1.45617 19.51271,8.15457 6.40716,5.24222 13.39678,8.73703 18.639,8.73703 4.65977,0 12.23186,3.20358 17.18285,7.5721 8.4458,6.98962 9.61074,7.28086 16.01789,3.20357 4.07729,-2.91234 12.81433,-4.36852 21.55135,-4.36852 16.60038,0.58248 26.50234,-4.65974 41.06407,-21.55135 7.86333,-9.02826 9.90197,-15.14418 14.85296,-41.93776 3.20358,-17.18284 7.86333,-38.7342 10.48444,-47.76246 3.20358,-11.94061 4.36852,-25.62863 3.49482,-47.47122 -0.29124,-16.89161 0,-29.99715 1.45617,-29.12345 1.16493,0.58247 2.03863,4.65975 2.03863,9.02827 0,4.36852 4.07729,16.8916 8.73704,28.24974 4.95099,11.06691 9.61074,27.08482 10.48444,35.53061 1.16495,8.4458 4.65976,19.51271 8.15457,24.75493 l 6.11593,9.61074 0.8737,-11.06692 c 0.58248,-6.69839 -1.74741,-18.05653 -6.11593,-29.12344 -4.07728,-9.90197 -7.86332,-25.62863 -9.02827,-34.94814 -0.8737,-9.31951 -3.78604,-21.55135 -6.11592,-27.08481 -7.28086,-17.18284 -2.32987,-10.77567 10.48444,13.97925 6.98964,12.81433 16.8916,27.66729 22.13382,32.61827 5.53347,4.95099 21.55136,22.13382 35.53061,38.15173 23.88123,26.79357 27.37605,29.70591 43.39395,34.6569 20.09518,6.11592 36.11307,4.65975 43.68518,-4.36852 3.20357,-3.49481 8.44579,-5.53346 15.14418,-5.53346 11.94062,0 17.47408,-4.07727 17.47408,-13.10554 0,-3.20359 4.3685,-9.31951 9.90197,-13.68803 6.40716,-5.24222 10.48444,-11.35814 11.64938,-18.05653 1.45617,-7.28087 4.65975,-11.64939 12.52309,-16.30914 9.90196,-5.82469 10.19319,-6.69839 8.73702,-18.05654 -1.16493,-8.15457 0,-15.14419 2.91234,-20.67765 3.49482,-6.6984 3.78605,-10.1932 1.16495,-15.72666 -1.74742,-4.07728 -2.62112,-11.64937 -1.45617,-16.89161 1.45617,-7.86332 0,-11.06691 -7.86334,-20.09518 -16.30913,-18.93023 -32.32702,-25.91987 -73.97357,-32.61826 l -11.64936,-1.7474 26.79357,-8.4458 c 46.59752,-14.85295 53.29591,-26.21111 48.34492,-83.5843 -2.03865,-24.17247 -1.45617,-35.82185 2.62112,-59.70308 12.23184,-71.64367 1.7474,-87.661581 -43.39395,-66.40145 z"
       id="path14"
       style="fill:#ff0000;stroke-width:0.0999999" />
    <path
       d="m 283.59259,207.0152 c 2.03864,2.32987 5.24222,4.36852 7.28086,4.36852 9.02827,0 21.55135,15.43543 29.12345,34.94814 4.36851,11.35814 10.48445,21.84259 13.3968,23.58999 4.65974,2.32988 3.4948,-1.45617 -5.8247,-19.80395 -14.2705,-28.24974 -25.04617,-41.06406 -37.56925,-44.55887 -8.44579,-2.32988 -9.31951,-2.03865 -6.40716,1.45617 z"
       id="path18"
       style="fill:#ff0000;stroke-width:0.0999999" />
  </g>
  <g
     inkscape:groupmode="layer"
     id="layer5"
     inkscape:label="Layer 3"
     style="display:inline">
    <path
       d="m 789.32754,-213.50913 c -3.7,1.6 -7.2,6 -11.4,14.3 -4.5,9.1 -6.1,16.2 -6.1,28 0,8.9 -0.2,10.2 -1.6,9.6 -1,-0.4 -1.7,0.2 -2.1,1.7 -0.4,1.7 -1.1,2 -2.7,1.5 -1.1,-0.4 -6.8,-0.9 -12.6,-1.2 -7.9,-0.4 -12.1,-0.1 -16.9,1.1 -14.4,3.7 -23.1,9.5 -23.1,15.5 0,3.4 2.9,6.2 10.1,10 3,1.6 5.3,3.4 5.1,4 -0.6,3 1.9,5.1 6.3,5.1 3.5,0 4.7,0.5 6.3,2.6 1.6,2.4 2.3,2.6 5.6,2 2.1,-0.4 6,-2.6 9.1,-5.2 l 5.5,-4.4 v 4.4 c 0,6.3 1.6,9.1 6.4,11.2 3.1,1.5 4.2,2.5 4.4,4.6 0.2,2.1 1.1,3 3.8,3.8 1.9,0.6 4.7,2.8 6.2,4.8 2.3,2.999995 2.8,4.699995 3.1,11.399995 0.2,4.3 0.5,7.8 0.8,7.8 1.7,0 4.3,-2.4 5.2,-5 1.2,-3.6 0.3,-6.5 -3.4,-11.4 -3,-3.899995 -3.3,-7.599995 -0.7,-7.599995 1,0 2.4,0.6 3.1,1.2 1.1,1.1 1.2,0.7 0.9,-2.2 -0.4,-2.4 -0.1,-3.8 1,-4.6 1.9,-1.4 0.6,-4 -4.3,-8.2 -5.8,-5.1 -7.5,-8.8 -7.5,-16.2 0,-4.7 -0.6,-7.4 -2,-9.8 -3.3,-5.4 -2.3,-5 3.8,1.6 3.2,3.4 6.3,6.2 7,6.2 2.5,0 1,-3.4 -3.8,-9 -5.2,-6 -6.7,-8.9 -2.7,-5.3 3.4,3.2 6,4.2 12.2,4.9 6.3,0.8 11.3,4.1 14.1,9.5 2,4 6,6.5 7.8,5 0.8,-0.7 2.5,-0.9 4,-0.5 2.3,0.5 2.5,0.3 2.3,-2.2 -0.3,-4.4 2.7,-4.2 7.8,0.5 5.5,5.1 10.7,5.6 14.5,1.6 l 2.3,-2.5 h -3.5 c -9.3,0 -18,-5.2 -19.8,-12 -0.7,-2.6 -1.8,-3.8 -3.9,-4.7 -2.2,-0.8 -3.2,-2 -4,-5.1 -1.4,-5 -2.5,-5.9 -9,-7.3 l -5.4,-1.1 4.1,-3.7 c 4.4,-3.9 8.2,-9.6 8.2,-12.3 0,-1 -0.9,-2.2 -2,-2.8 -1.6,-0.9 -2,-2.1 -2,-6.6 0,-5.2 -0.1,-5.5 -3,-6 -2.3,-0.5 -3.2,-1.4 -4.1,-4.3 -1.7,-5.3 -5.8,-13.1 -6.8,-13.1 -0.5,0 -1.5,-0.2 -2.3,-0.5 -0.7,-0.2 -2.7,0.2 -4.3,0.9 z"
       id="path6"
       style="fill:#800000;stroke-width:0.1" />
    <path
       d="m 761.02754,-184.40913 c 0.8,1.1 2.1,3.3 2.7,5 l 1.1,3 -0.6,-3 c -0.3,-1.7 -1.5,-3.9 -2.7,-5 l -2.1,-2 z"
       id="path8"
       style="fill:#800000;stroke-width:0.1" />
    <path
       d="m 746.02754,-169.30913 c 1,1 2,1.6 2.2,1.3 0.3,-0.3 -0.5,-1.1 -1.7,-1.8 -2.1,-1.3 -2.1,-1.2 -0.5,0.5 z"
       id="path10"
       style="fill:#800000;stroke-width:0.1" />
  </g>
  <g
     inkscape:groupmode="layer"
     id="layer6"
     inkscape:label="Layer 4">
    <path
       d="m 890.2567,-181.61479 c -3.2,3.9 -4,8 -1.9,10.1 0.9,0.9 0.8,1.5 -0.8,2.6 -1.9,1.4 -1.9,1.5 0.5,3.9 1.2,1.4 3.7,3.2 5.3,4 l 3,1.4 -2.9,0.8 c -5.7,1.4 -7,5.1 -3.2,9.9 3.4,4.4 12.4,3 16.3,-2.6 1.5,-2.1 1.6,-2.1 1.6,-0.3 0,1.5 0.2,1.7 0.9,0.6 0.6,-0.9 1.1,-0.1 1.6,3 0.9,5.5 5.1,9.9 9.4,9.9 6.1,0 9.5,-7.2 5,-10.4 -2.1,-1.4 -1.8,-1.5 4.2,-1.8 5.6,-0.3 6.4,-0.5 6.4,-2.3 0,-1.1 1.2,-2.8 2.8,-3.7 2.3,-1.5 2.7,-2.4 2.7,-6.7 0,-7.3 -0.6,-8.1 -5.4,-8.1 -4.5,0 -15.6,4.7 -19.3,8.2 -2.6,2.4 -4.3,1.7 -2.2,-0.9 1.3,-1.6 1.3,-1.6 -1.1,0 -3.2,2.2 -4,2.1 -4,-0.6 0,-5.9 -10,-20.7 -14,-20.7 -1,0 -3.2,1.7 -4.9,3.7 z"
       id="path16"
       style="fill:#800000;stroke-width:0.1" />
  </g>
</svg>
