<?xml version="1.0" encoding="UTF-8" standalone="no"?>
<svg
   xmlns:dc="http://purl.org/dc/elements/1.1/"
   xmlns:cc="http://creativecommons.org/ns#"
   xmlns:rdf="http://www.w3.org/1999/02/22-rdf-syntax-ns#"
   xmlns:svg="http://www.w3.org/2000/svg"
   xmlns="http://www.w3.org/2000/svg"
   xmlns:sodipodi="http://sodipodi.sourceforge.net/DTD/sodipodi-0.dtd"
   xmlns:inkscape="http://www.inkscape.org/namespaces/inkscape"
   version="1.0"
   width="652pt"
   height="550pt"
   viewBox="0 0 652 550"
   preserveAspectRatio="xMidYMid meet"
   id="svg26"
   sodipodi:docname="бабаочка 3.svg"
   inkscape:version="1.0.2 (e86c870879, 2021-01-15, custom)">
  <defs
     id="defs30" />
  <sodipodi:namedview
     pagecolor="#ffffff"
     bordercolor="#666666"
     borderopacity="1"
     objecttolerance="10"
     gridtolerance="10"
     guidetolerance="10"
     inkscape:pageopacity="0"
     inkscape:pageshadow="2"
     inkscape:window-width="1580"
     inkscape:window-height="879"
     id="namedview28"
     showgrid="false"
     inkscape:zoom="0.48485257"
     inkscape:cx="572.45519"
     inkscape:cy="315.60022"
     inkscape:window-x="139"
     inkscape:window-y="52"
     inkscape:window-maximized="0"
     inkscape:current-layer="layer5"
     inkscape:document-rotation="0" />
  <metadata
     id="metadata2">
Created by potrace 1.15, written by Peter Selinger 2001-2017
<rdf:RDF>
  <cc:Work
     rdf:about="">
    <dc:format>image/svg+xml</dc:format>
    <dc:type
       rdf:resource="http://purl.org/dc/dcmitype/StillImage" />
    <dc:title></dc:title>
  </cc:Work>
</rdf:RDF>
</metadata>
  <g
     inkscape:groupmode="layer"
     id="layer3"
     inkscape:label="Layer 1"
     style="display:inline">
    <path
       d="m 555.47415,-208.77103 c -4.3,3.6 -10.7,13.6 -11.5,17.9 -0.5,2.8 -0.1,4.2 2.2,7.5 3,4.4 3.1,4.3 -2.1,7.4 -4.2,2.5 4.3,11.3 17,17.8 5.1,2.6 6.1,3.5 3.8,3 -5.3,-0.9 -12.3,0.6 -14.9,3.2 -1.8,1.8 -2.4,3.5 -2.4,7 0,11.9 8.3,18.7 20.1,16.5 6.8,-1.3 8.4,-2.3 15.8,-9.4 l 6.3,-6.1 -0.6,4.5 c -0.6,4.6 -0.1,4.5 3,-0.7 0.9,-1.5 1.3,-0.5 2.4,5.7 1.4,8.6 3,12.2 7.4,16.8 4.9,5.3 8.3,6.6 15.8,6.3 5.1,-0.2 12.8,-8.9 12.8,-14.3 0,-2.3 -6.1,-9.1 -10.5,-11.7 -1.8,-1.1 -1.7,-1.2 1,-0.6 1.7,0.3 6.8,0.8 11.5,1.1 10.6,0.7 16.6,-0.9 16.3,-4.4 -0.2,-1.2 -0.4,-3.2 -0.5,-4.3 -0.2,-1.7 0.5,-2.5 3.1,-3.4 5.9,-2 7.6,-5.3 7.9,-16.1 0.5,-11 -0.7,-14.7 -4.9,-16.4 -8.9,-3.7 -36.5,6.8 -49,18.7 -2.9,2.8 -3.8,3.1 -4.7,2 -0.9,-1 -0.2,-2.6 2.9,-7 5.3,-7.4 4.2,-7.4 -1.3,0 l -4.3,5.7 -0.6,-5.5 -0.6,-5.4 -0.1,5.1 c -0.2,4.1 -0.6,5.3 -2.1,5.7 -1.6,0.4 -2.1,-0.4 -3.1,-5.7 -2.3,-12.3 -15.2,-34.5 -23.7,-40.9 -4.6,-3.4 -8.3,-3.4 -12.4,0 z m 37.8,51.5 c -0.3,0.8 -0.6,0.5 -0.6,-0.6 -0.1,-1.1 0.2,-1.7 0.5,-1.3 0.3,0.3 0.4,1.2 0.1,1.9 z"
       id="path4"
       style="fill:#800000;stroke-width:0.1" />
  </g>
  <g
     inkscape:groupmode="layer"
     id="layer4"
     inkscape:label="Layer 2"
     style="display:inline" />
  <g
     inkscape:groupmode="layer"
     id="layer5"
     inkscape:label="Layer 3"
     style="display:inline">
    <path
       d="m 599.99915,23.01442 c -19.99682,-6.50461 -48.87103,-1.36375 -93.93896,16.62154 -49.00172,20.08045 -79.75675,42.34046 -120.46637,88.50997 -30.70471,34.82277 -35.97221,39.21925 -39.37996,32.04169 -2.53268,-5.01504 -7.34154,-5.08241 -14.08154,-0.5934 -7.43001,5.27154 -11.20389,4.03038 -15.73916,-3.4459 -2.92397,-5.36003 -23.5012,-26.98118 -45.15971,-48.16479 C 241.70336,79.16373 224.23515,65.84767 201.31437,53.98302 132.20704,18.78038 78.15701,11.459136 57.4572,34.93518 c -11.729884,13.30307 -10.04306,34.26345 5.01829,73.97136 6.21807,16.61017 9.00728,31.5879 6.15474,33.2455 -12.69748,9.66805 -10.16074,26.50957 7.05501,41.68941 13.69435,12.0749 16.66454,18.1712 15.67989,31.90775 -2.01964,14.91035 0.0292,18.10787 15.01104,27.14516 9.5966,5.67986 32.44593,10.52686 53.54512,11.0488 l 36.69955,1.75908 -15.17986,17.21575 c -21.7348,24.64983 -25.13445,41.12525 -13.59856,65.9017 6.95433,16.5639 7.80831,24.27154 1.3459,33.17813 -6.46238,8.90661 -6.04595,15.53298 1.75828,27.97803 5.36409,8.90254 8.72965,27.17033 7.69871,40.17061 -1.35076,19.67294 -5.25936,28.04946 -27.20034,55.29934 -14.05234,17.51449 -24.95342,32.24382 -23.77961,33.27882 6.65153,5.86495 25.1044,5.44444 37.59572,-1.62353 17.11508,-9.94565 23.59858,-24.39737 26.02654,-56.33434 1.71686,-25.6093 13.30794,-41.12117 23.48088,-32.15127 3.91268,3.44998 7.32044,10.62753 7.98933,15.39012 0.50897,8.09888 2.28023,6.87882 11.11134,-5.50291 6.71484,-10.7704 12.7186,-15.21315 19.78251,-14.54832 12.26402,1.0772 16.14747,-13.5807 11.46524,-46.91875 -5.09865,-39.96443 1.0147,-60.30625 26.54446,-89.26002 16.21483,-18.38954 23.18215,-31.02374 25.98431,-45.2441 5.71802,-32.51331 8.2507,-27.49828 9.34821,19.37013 0.79066,24.343 3.26003,45.99336 5.99889,48.40833 9.78169,8.62493 15.64257,-9.8531 16.18157,-48.3239 0.35392,-41.41584 4.48982,-57.93754 7.72061,-30.05208 2.2632,24.25046 8.98617,37.13305 30.82975,61.26171 21.88984,24.86493 30.06831,55.02658 22.39395,85.81491 -5.97451,22.55061 1.05124,46.13216 13.26899,46.47308 5.54511,0.0211 12.88666,5.10352 17.37568,11.84353 7.27415,9.89127 8.74668,9.79873 16.58907,-0.67294 14.00604,-18.25073 25.05407,-7.11829 28.79384,28.86608 3.92485,38.92943 22.54576,58.8256 51.21377,56.28479 l 17.62407,-1.84674 -13.69435,-12.07489 c -36.38784,-32.0847 -52.48825,-82.44529 -36.07127,-115.2614 6.23104,-12.58792 6.06707,-21.07808 0.95543,-31.84442 -5.84789,-10.72006 -5.62062,-18.86524 1.94415,-33.75449 11.77209,-24.3933 10.57313,-31.70967 -10.02927,-59.61218 l -17.33345,-22.93377 28.80683,-0.332 c 30.67061,-0.0796 65.20357,-9.27192 74.51848,-19.83613 3.44998,-3.91267 4.06854,-11.71284 1.83457,-17.85542 -3.15529,-9.04134 -0.5804,-15.11652 14.94446,-32.72355 17.93982,-20.34587 18.58354,-21.86469 8.96179,-33.82592 -7.27417,-9.89126 -7.69061,-16.51763 -1.2071,-30.96935 11.63328,-26.60209 22.50107,-71.26578 18.5884,-74.71575 -1.95633,-1.72498 -5.17901,-5.95748 -7.27415,-9.89126 -2.04888,-3.1975 -11.25421,-8.53237 -19.92946,-11.31345 z"
       id="path6"
       style="fill:#9e0024;fill-opacity:1;stroke-width:0.0999999" />
    <path
       d="m 388.87655,39.23904 c -0.66482,7.06391 -3.16829,20.15674 -6.68563,28.87827 l -6.04596,15.53296 8.0023,-13.80798 c 4.69114,-7.68654 7.58587,-20.43438 6.68562,-28.87828 l -1.31667,-15.07026 z"
       id="path8"
       style="fill:#9e0024;fill-opacity:1;stroke-width:0.0999999" />
    <path
       d="m 278.09199,46.57085 c 0.4627,7.36265 2.30539,13.16021 4.12291,12.67639 2.2088,-0.13881 1.83864,-6.02892 -0.4416,-12.90775 -3.73165,-12.33139 -4.07664,-11.94013 -3.68131,0.23136 z"
       id="path10"
       style="fill:#9e0024;fill-opacity:1;stroke-width:0.0999999" />
  </g>
  <g
     inkscape:groupmode="layer"
     id="layer6"
     inkscape:label="Layer 4">
    <path
       d="m 890.2567,-181.61479 c -3.2,3.9 -4,8 -1.9,10.1 0.9,0.9 0.8,1.5 -0.8,2.6 -1.9,1.4 -1.9,1.5 0.5,3.9 1.2,1.4 3.7,3.2 5.3,4 l 3,1.4 -2.9,0.8 c -5.7,1.4 -7,5.1 -3.2,9.9 3.4,4.4 12.4,3 16.3,-2.6 1.5,-2.1 1.6,-2.1 1.6,-0.3 0,1.5 0.2,1.7 0.9,0.6 0.6,-0.9 1.1,-0.1 1.6,3 0.9,5.5 5.1,9.9 9.4,9.9 6.1,0 9.5,-7.2 5,-10.4 -2.1,-1.4 -1.8,-1.5 4.2,-1.8 5.6,-0.3 6.4,-0.5 6.4,-2.3 0,-1.1 1.2,-2.8 2.8,-3.7 2.3,-1.5 2.7,-2.4 2.7,-6.7 0,-7.3 -0.6,-8.1 -5.4,-8.1 -4.5,0 -15.6,4.7 -19.3,8.2 -2.6,2.4 -4.3,1.7 -2.2,-0.9 1.3,-1.6 1.3,-1.6 -1.1,0 -3.2,2.2 -4,2.1 -4,-0.6 0,-5.9 -10,-20.7 -14,-20.7 -1,0 -3.2,1.7 -4.9,3.7 z"
       id="path16"
       style="fill:#800000;stroke-width:0.1" />
  </g>
</svg>
