<?xml version="1.0" encoding="UTF-8" standalone="no"?>
<svg
   xmlns:dc="http://purl.org/dc/elements/1.1/"
   xmlns:cc="http://creativecommons.org/ns#"
   xmlns:rdf="http://www.w3.org/1999/02/22-rdf-syntax-ns#"
   xmlns:svg="http://www.w3.org/2000/svg"
   xmlns="http://www.w3.org/2000/svg"
   xmlns:sodipodi="http://sodipodi.sourceforge.net/DTD/sodipodi-0.dtd"
   xmlns:inkscape="http://www.inkscape.org/namespaces/inkscape"
   width="222mm"
   height="77mm"
   viewBox="0 0 222 77"
   version="1.1"
   id="svg94"
   inkscape:version="1.0.2 (e86c870879, 2021-01-15, custom)"
   sodipodi:docname="бабочки А 1.svg">
  <defs
     id="defs88">
    <rect
       x="6.4060397"
       y="6.9398761"
       width="315.49744"
       height="66.19574"
       id="rect694" />
  </defs>
  <sodipodi:namedview
     id="base"
     pagecolor="#ffffff"
     bordercolor="#666666"
     borderopacity="1.0"
     inkscape:pageopacity="0.0"
     inkscape:pageshadow="2"
     inkscape:zoom="0.35046053"
     inkscape:cx="672.18897"
     inkscape:cy="31.392005"
     inkscape:document-units="mm"
     inkscape:current-layer="layer1"
     inkscape:document-rotation="0"
     showgrid="false"
     inkscape:window-width="1423"
     inkscape:window-height="915"
     inkscape:window-x="259"
     inkscape:window-y="100"
     inkscape:window-maximized="0" />
  <metadata
     id="metadata91">
    <rdf:RDF>
      <cc:Work
         rdf:about="">
        <dc:format>image/svg+xml</dc:format>
        <dc:type
           rdf:resource="http://purl.org/dc/dcmitype/StillImage" />
        <dc:title></dc:title>
      </cc:Work>
    </rdf:RDF>
  </metadata>
  <g
     inkscape:label="Слой 1"
     inkscape:groupmode="layer"
     id="layer1"
     style="opacity:1;mix-blend-mode:normal">
    <text
       xml:space="preserve"
       id="text692"
       style="font-style:normal;font-weight:normal;font-size:10.5833px;line-height:1.25;font-family:sans-serif;white-space:pre;shape-inside:url(#rect694);fill:#000000;fill-opacity:1;stroke:none;" />
    <path
       style="fill:#000000;stroke-width:1"
       d="m 135.9601,67.417285 c -0.41792,-0.644553 -0.92086,-1.651314 -1.11766,-2.237246 -0.1968,-0.585929 -0.93005,-1.520172 -1.62946,-2.076093 -1.07169,-0.851825 -1.44888,-0.950652 -2.3987,-0.628478 -0.61988,0.210256 -1.64023,0.297233 -2.26746,0.193277 -0.62722,-0.103957 -1.30869,-0.01644 -1.51438,0.1945 -0.70677,0.724796 -2.40275,0.412059 -2.76806,-0.51043 -0.19471,-0.491667 -0.94802,-1.065474 -1.67402,-1.275126 -1.07869,-0.311499 -1.38982,-0.744654 -1.70182,-2.369255 -0.85924,-4.474058 -3.58135,-10.63112 -4.70015,-10.63112 -0.24018,0 -0.60497,1.147476 -0.81063,2.549944 -0.54084,3.688165 -1.45578,3.890543 -1.45578,0.322012 0,-2.067327 -0.18177,-2.842397 -0.62581,-2.668463 -1.09583,0.429238 -3.62011,4.433908 -5.26416,8.351367 -1.25745,2.996265 -1.79647,3.792361 -2.56773,3.792361 -0.53691,0 -1.36477,0.47625 -1.83971,1.058333 -0.95143,1.166089 -1.99541,1.343223 -3.07182,0.521201 -0.39331,-0.300365 -1.144083,-0.448476 -1.703183,-0.336007 -0.54991,0.110617 -1.51363,-0.0021 -2.14161,-0.2508 -0.97724,-0.386799 -1.29718,-0.351091 -2.22028,0.247816 -0.59318,0.384852 -1.66868,1.640727 -2.39,2.790828 -0.72132,1.150102 -1.61644,2.155518 -1.98916,2.234258 -1.19203,0.251831 -0.73222,-0.88677 1.30819,-3.239452 1.30692,-1.506922 2.09372,-2.952048 2.30131,-4.226853 0.30411,-1.867481 0.26276,-1.945452 -1.15094,-2.170331 -1.51328,-0.240717 -1.86668,-0.973123 -0.92503,-1.917089 0.38101,-0.381935 0.12104,-0.792378 -0.9511,-1.50163 -1.14301,-0.756144 -1.32575,-1.070885 -0.81114,-1.397043 0.36535,-0.231556 0.66427,-0.952768 0.66427,-1.602694 0,-1.825448 1.45284,-3.242493 4.07499,-3.974577 2.84888,-0.795391 9.648853,-1.359595 9.055753,-0.751374 -0.21684,0.222366 -0.78474,0.404304 -1.262,0.404304 -0.47726,0 -1.72359,0.47625 -2.769603,1.058333 -1.68336,0.936745 -2.844,1.238684 -4.22874,1.100109 -0.22961,-0.02296 -0.41746,0.358504 -0.41746,0.847732 0,0.606464 -0.44279,1.017373 -1.39155,1.291347 -1.8351,0.529932 -1.76312,0.720873 0.59351,1.574465 l 1.98505,0.719003 -1.42843,0.593192 c -1.95745,0.812881 -1.80056,1.182405 0.80589,1.898079 1.32787,0.364603 2.12532,0.793538 1.96563,1.057285 -0.73011,1.205872 1.45345,2.011278 2.924743,1.078787 0.51951,-0.329258 0.66794,-0.255492 0.66794,0.331957 0,1.028291 0.98168,1.33452 2.14291,0.668468 0.53167,-0.304951 1.46518,-0.466555 2.0935,-0.362415 1.00617,0.166761 1.3007,-0.164158 2.61336,-2.936307 0.81367,-1.718338 2.60273,-4.587053 3.9757,-6.37492 l 2.49631,-3.250671 -3.18204,-0.04644 c -2.66765,-0.03893 -2.86711,-0.0817 -1.23387,-0.264583 1.62044,-0.181448 1.91898,-0.351205 1.77475,-1.009153 -0.13317,-0.607459 0.0372,-0.739782 0.7343,-0.570248 0.83857,0.203948 0.83895,0.116407 0.005,-1.149268 -2.22886,-3.382797 -6.40302,-6.640414 -9.05431,-7.066216 -0.68881,-0.110624 -1.25239,-0.342674 -1.25239,-0.51567 0,-0.172991 -0.75143,-0.314533 -1.66985,-0.314533 -1.979693,0 -2.142113,0.455902 -0.43276,1.21472 1.39981,0.621407 0.92126,0.739687 -0.728573,0.180079 -1.3903,-0.471583 -2.47191,-0.103759 -1.61628,0.549652 0.47959,0.366251 0.33139,0.498052 -0.66875,0.594741 -1.25169,0.12101 -1.24337,0.138568 0.32253,0.679926 l 1.6074,0.555714 -2.30317,0.233418 c -2.86913,0.290778 -2.97262,0.827705 -0.21587,1.119932 3.28878,0.348626 3.34559,0.396148 0.80646,0.674603 -3.15324,0.345803 -2.74146,1.0267 0.75761,1.25277 l 2.730123,0.176389 -2.634133,0.439618 c -3.46973,0.579074 -3.62957,1.48894 -0.26852,1.528512 1.3011,0.01531 1.98991,0.10892 1.5307,0.208008 -0.45921,0.09909 -1.68092,0.421107 -2.7149,0.715599 -2.20721,0.628646 -5.90305,0.381367 -7.43528,-0.497473 -0.92109,-0.528313 -1.21152,-0.50739 -3.90583,0.281379 -1.60092,0.468676 -6.610688,2.412337 -11.132838,4.319248 l -8.222092,3.467111 1.1581,1.030806 c 1.42892,1.271838 2.41727,1.335655 2.05442,0.132651 -0.23028,-0.763467 0.0626,-1.005967 1.952732,-1.617133 1.22301,-0.395436 2.69662,-0.640588 3.27469,-0.544777 0.69402,0.115027 1.2633,-0.08462 1.67587,-0.587731 0.72949,-0.889579 2.45366,-1.996652 3.10961,-1.996652 0.850368,0 4.043638,2.073716 4.043638,2.625947 0,0.312413 0.47601,0.549053 1.10445,0.549053 0.60745,0 1.86433,0.436562 2.79307,0.970139 l 1.68861,0.970139 -1.15117,1.184186 c -0.63314,0.651306 -1.59364,1.257522 -2.13444,1.347156 -0.72356,0.11992 -0.92245,0.425588 -0.75301,1.157277 0.34772,1.501528 -1.27836,2.837769 -3.4533,2.837769 -0.97777,0 -2.258728,-0.222903 -2.846588,-0.495335 -0.73765,-0.341856 -1.95217,-0.437554 -3.91966,-0.308857 -2.60168,0.170183 -2.87922,0.117672 -3.17569,-0.600858 -0.17868,-0.433035 -0.0908,-1.177509 0.19526,-1.654387 0.72433,-1.207452 0.65353,-1.526674 -0.33864,-1.526674 -0.47232,0 -2.038822,-0.699579 -3.481122,-1.554621 -2.53107,-1.500508 -2.67555,-1.536954 -4.15078,-1.047065 -0.84063,0.279153 -1.52843,0.798576 -1.52843,1.154267 0,0.85936 -2.08373,2.505752 -3.17137,2.505752 -0.66261,0 -0.78648,-0.24596 -0.53124,-1.05483 l 0.33287,-1.05483 -4.02044,0.04835 c -2.21125,0.0266 -4.60249,-0.06877 -5.31387,-0.211921 -3.39302,-0.682766 -6.6486,1.773689 -5.99449,4.52307 0.24412,1.026071 0.18228,1.298504 -0.20999,0.925159 -0.3058,-0.291041 -0.55983,-1.32728 -0.56452,-2.302753 -0.009,-1.881318 1.11593,-3.341691 2.5742,-3.341691 1.26879,0 0.82958,-0.379966 -3.15753,-2.731646 -2.972383,-1.753168 -3.816883,-2.080623 -4.625903,-1.793677 -0.54433,0.193068 -1.35019,0.263355 -1.790814,0.156196 -1.07964,-0.26258 -1.01509,-1.164365 0.11196,-1.564111 1.448734,-0.513846 0.335584,-1.122317 -2.05319,-1.122317 -4.797178,0 -10.833543,-2.173806 -12.791752,-4.606547 -0.615674,-0.764871 -1.19575,-1.390674 -1.289056,-1.390674 -0.09331,0 -3.001491,0.323179 -6.462632,0.718177 -3.4611414,0.394999 -6.4070664,0.645876 -6.5465014,0.557502 -0.139435,-0.08837 2.754762,-0.603144 6.4315484,-1.143938 l 6.685065,-0.983262 0.181551,-2.204254 c 0.139857,-1.698033 -0.04215,-2.378894 -0.792529,-2.964709 -0.535743,-0.41825 -0.974079,-1.088045 -0.974079,-1.488426 0,-0.7233 0.0083,-0.723032 1.293682,0.04231 0.711524,0.423655 1.452245,0.669781 1.646046,0.546951 0.193802,-0.122827 0.207587,0.34212 0.03064,1.033222 -0.294055,1.148454 -0.220184,1.239718 0.858728,1.060898 0.966774,-0.160232 1.180457,-0.03845 1.180457,0.672765 0,0.477629 -0.500955,1.155746 -1.113233,1.506932 -2.161575,1.239817 -1.457628,1.664783 2.365621,1.428098 8.512274,-0.526966 10.383734,-0.954084 12.128948,-2.768142 1.30746,-1.359041 1.37519,-2.403263 0.24565,-3.78764 -0.96264,-1.17983 -3.264784,-1.704227 -4.805134,-1.094546 -0.66109,0.261669 -1.029218,0.277421 -1.029218,0.04405 0,-0.761527 2.640228,-1.176863 4.454098,-0.700677 3.758444,0.986681 4.368574,4.396638 1.161874,6.493517 l -1.707924,1.116816 7.647617,0.460047 c 4.20619,0.253027 8.65138,0.538011 9.87821,0.633296 l 2.23059,0.173246 1.00575,-2.47444 c 1.37962,-3.394314 3.96411,-5.216168 10.16013,-7.162058 3.66987,-1.152539 4.68943,-1.634885 4.68943,-2.218517 0,-0.979615 1.502672,-2.31388 2.605922,-2.31388 0.67307,0 0.79647,0.242316 0.53897,1.058333 -0.36396,1.153372 0.0974,1.300949 2.04041,0.652745 1.78426,-0.595231 2.02287,-0.96332 2.13827,-3.298578 l 0.10459,-2.116666 0.32139,2.233048 0.32139,2.233051 2.248128,-1.034789 c 1.23646,-0.569136 2.6982,-1.470145 3.2483,-2.002247 0.97464,-0.942756 0.97053,-0.980619 -0.16081,-1.482848 -1.32107,-0.586454 -1.56841,-1.886493 -0.35892,-1.886493 0.44114,0 0.95688,0.15875 1.14609,0.352778 0.61582,0.631518 1.29621,0.373366 1.62713,-0.617361 0.53662,-1.606575 -0.3359,-2.856495 -2.46428,-3.530208 -2.03929,-0.645517 -2.97032,-1.849653 -1.43013,-1.849653 1.3126,0 1.08253,-0.420666 -1.17114,-2.141361 l -2.046868,-1.562805 2.628678,1.587499 c 3.39064,2.047667 5.92214,5.209572 5.90578,7.376484 -0.0214,2.835032 -2.9386,5.679391 -7.8333,7.637734 -2.363118,0.945466 -2.796438,1.566337 -1.093198,1.566337 0.59421,0 1.221218,0.144423 1.393348,0.320943 0.58576,0.600692 -0.36231,1.442946 -1.624238,1.442946 -1.05268,0 -1.50219,0.417202 -2.75569,2.557638 -2.32563,3.971212 -2.2885,3.792361 -0.78735,3.792361 2.50063,0 5.517368,2.088709 5.452028,3.774842 -0.0157,0.40561 -0.4041,0.179909 -1.075488,-0.624992 -1.21284,-1.454019 -1.98021,-1.912348 -4.02787,-2.405764 -1.28404,-0.309411 -1.95242,-0.155677 -5.199152,1.195849 -2.04912,0.852999 -4.4462,1.651205 -5.32684,1.773792 -1.79272,0.249555 -1.99775,0.577387 -0.76624,1.225162 0.45921,0.241543 0.83493,0.6777 0.83493,0.969235 0,0.808634 -3.33375,0.262347 -4.88986,-0.801278 -0.78061,-0.533552 -1.89202,-0.873513 -2.85573,-0.873513 -1.29356,0 -1.63555,0.183208 -1.89872,1.017178 -0.17653,0.559446 -0.47531,1.406892 -0.66394,1.883212 -0.30475,0.769582 -0.0667,0.932904 2.13737,1.466392 2.23548,0.54109 7.61426,3.491533 7.61426,4.17668 0,0.621104 1.51485,0.145168 7.973202,-2.505018 3.72743,-1.529549 8.655718,-3.409304 10.951768,-4.177231 2.70097,-0.903361 4.09767,-1.571702 3.95663,-1.893305 -1.37684,-3.139539 -2.28214,-6.112132 -2.30014,-7.55263 -0.0123,-0.984123 -0.38332,-2.066614 -0.83927,-2.448676 -1.02993,-0.863028 -1.02302,-1.07466 0.0575,-1.759458 1.69345,-1.073287 9.63796,-0.430632 14.62998,1.18346 3.295943,1.065696 10.220813,5.382591 12.587753,7.847086 2.62813,2.736448 2.49849,2.639395 2.96923,2.222927 0.50377,-0.445692 1.93907,-0.43979 2.48509,0.01023 0.26341,0.217093 0.74165,0.08141 1.24344,-0.352777 6.14656,-5.318502 13.51054,-8.621948 20.91633,-9.382957 3.23178,-0.332094 7.1967,-0.212916 9.2105,0.276856 0.97901,0.238104 0.98463,1.479021 0.01,2.199157 -0.41459,0.30632 -1.05346,1.747569 -1.41973,3.202777 -0.62906,2.499339 -3.27604,6.592411 -5.36131,8.290277 -1.28155,1.043457 -7.35987,0.966841 -9.06566,-0.114268 -1.03064,-0.65321 -1.06221,-0.750563 -0.22919,-0.706726 0.53136,0.02797 1.5923,0.01997 2.35764,-0.01775 l 1.39155,-0.06858 -1.66985,-0.867505 c -0.91842,-0.477125 -2.04557,-0.893233 -2.50478,-0.92468 -0.45921,-0.03143 0.41746,-0.152428 1.94816,-0.268852 l 2.78308,-0.21168 -2.22646,-0.775639 -2.22647,-0.775642 2.36562,-0.01559 c 2.7984,-0.01845 3.04686,-0.456706 0.6201,-1.093791 -1.67166,-0.438852 -1.6937,-0.470394 -0.52086,-0.745374 1.32012,-0.309513 1.08591,-0.998657 -0.33939,-0.998657 -0.74676,0 -0.76184,-0.08352 -0.1063,-0.588663 0.69254,-0.533664 0.59691,-0.567704 -1.02351,-0.364335 -0.98308,0.123384 -1.93715,0.07078 -2.12015,-0.116889 -0.18301,-0.187674 0.18299,-0.341224 0.81334,-0.341224 1.43493,0 1.51365,-0.915123 0.0989,-1.149604 -1.27868,-0.211931 -5.88314,1.21364 -8.07341,2.499585 -1.88332,1.105726 -5.90804,4.902077 -5.90804,5.572806 0,0.288209 0.36826,0.381966 0.97408,0.247999 0.91289,-0.20187 0.91158,-0.173471 -0.0209,0.452046 -0.96493,0.647294 -0.92292,0.680611 1.39154,1.10351 l 2.3865,0.436065 -3.20055,-0.145994 c -1.7603,-0.08029 -3.20054,-0.02607 -3.20054,0.120474 0,0.146558 0.60842,1.215468 1.35205,2.375358 1.31493,2.050983 3.17606,6.358382 3.9047,9.037059 0.28354,1.042334 0.61083,1.322916 1.54319,1.322916 0.65084,0 1.62562,0.253676 2.16618,0.563725 1.06251,0.609427 2.16621,0.40532 2.16621,-0.400593 0,-0.409861 0.25989,-0.425736 1.4314,-0.08743 1.15896,0.334677 1.52734,0.316453 1.93545,-0.09576 0.27723,-0.28001 0.36765,-0.78692 0.20094,-1.126468 -0.21937,-0.446804 0.006,-0.617362 0.81479,-0.617362 0.61483,0 1.27269,-0.158749 1.46189,-0.352777 0.18921,-0.194028 0.83019,-0.352778 1.4244,-0.352778 1.38351,0 1.37278,-0.428487 -0.0309,-1.233593 -1.30362,-0.747723 -0.7601,-1.391543 1.47488,-1.747065 1.37483,-0.218698 1.39296,-0.254437 0.46038,-0.907553 -0.53395,-0.373937 -1.47953,-0.782221 -2.10131,-0.907295 -1.01285,-0.203743 -1.03418,-0.26157 -0.2049,-0.555702 1.29478,-0.459243 1.15375,-0.998792 -0.26107,-0.998792 -0.65266,0 -1.97954,-0.532828 -2.94862,-1.184059 -0.96908,-0.651235 -2.33511,-1.378472 -3.03563,-1.616082 -2.12326,-0.720196 -0.94431,-0.799765 2.79556,-0.18868 6.12935,1.001515 8.82095,2.656304 8.11699,4.990278 -0.15737,0.521758 -0.009,1.334075 0.32961,1.805153 0.54026,0.751508 0.42903,0.9427 -0.90736,1.559687 -1.27595,0.589089 -1.46965,0.883705 -1.19378,1.815712 0.29519,0.997274 0.15254,1.154811 -1.37702,1.520726 -1.13502,0.271529 -1.70632,0.648871 -1.70632,1.127033 0,1.225423 1.20688,4.405965 2.08529,5.495455 1.27226,1.577989 1.79724,2.982983 1.20174,3.21624 -0.29,0.113594 -0.8692,-0.320827 -1.28711,-0.96538 z M 80.957747,56.347588 c 1.47059,-0.652829 1.57841,-1.449292 0.31589,-2.333469 -1.698368,-1.189415 -4.644968,-0.620427 -4.644968,0.896944 0,0.77572 1.50337,1.985695 2.46719,1.985695 0.34364,0 1.181498,-0.247128 1.861888,-0.54917 z m -28.82021,-2.940864 c 0,-0.173271 -0.37571,-0.406411 -0.83492,-0.518097 -1.22309,-0.297462 -1.02416,-1.283536 0.25894,-1.283536 0.60162,0 1.94196,0.471946 2.97853,1.04877 1.59375,0.886883 2.13372,1.002513 3.49821,0.749116 2.706,-0.502528 5.78818,-1.552956 5.78818,-1.972641 0,-0.777138 -3.47754,-2.691359 -4.40414,-2.424271 -0.48605,0.140102 -2.10308,0.32253 -3.5934,0.405401 -3.18874,0.177313 -3.45112,-0.571062 -0.37722,-1.075894 2.50168,-0.410852 1.57678,-0.898204 -2.50338,-1.319079 -3.2044,-0.330542 -3.32211,-0.313714 -4.995,0.713927 -0.9423,0.578849 -2.26969,1.052449 -2.94976,1.052449 -1.04388,0 -1.18161,-0.138603 -0.88415,-0.889751 l 0.35235,-0.889751 -3.26398,0.233196 c -1.795193,0.128256 -3.374553,0.294446 -3.509683,0.369313 -0.13513,0.07486 1.11726,1.01201 2.78309,2.082549 3.965023,2.548107 11.656333,5.001588 11.656333,3.718299 z M 34.3258,45.948237 c 0,-0.200854 -0.40214,-0.796167 -0.89364,-1.322917 -0.82697,-0.886266 -0.82618,-0.905083 0.0106,-0.252173 0.49731,0.388056 1.27272,0.983368 1.72312,1.322917 0.870804,0.656484 4.169504,0.862023 4.169504,0.259796 0,-0.196659 -0.30361,-0.665692 -0.6747,-1.042289 -0.37108,-0.376597 -0.50799,-0.790384 -0.30423,-0.919526 0.73959,-0.468743 3.020153,0.206111 3.794183,1.122754 l 0.79298,0.939084 5.23693,-0.218024 c 2.8803,-0.119916 5.3469,-0.287732 5.48133,-0.372928 0.42249,-0.267772 1.31061,-3.116802 1.02752,-3.296225 -1.36003,-0.861973 -31.500568,-1.63788 -32.75443,-0.843195 -0.608982,0.385967 0.676529,1.812914 1.63322,1.812914 0.364938,0 0.826706,-0.325857 1.026151,-0.724129 0.298731,-0.596533 0.508993,-0.647143 1.193281,-0.287207 0.574444,0.302158 0.726916,0.787382 0.494329,1.573149 -0.31977,1.080308 -0.219133,1.163119 2.044775,1.682595 4.007217,0.91949 5.999107,1.107224 5.999107,0.565404 z m 29.784407,-5.634881 c 0.45623,-0.239977 0.82951,-0.704451 0.82951,-1.03216 0,-0.75322 2.00478,-2.139992 3.09368,-2.139992 0.60082,0 0.7293,0.238745 0.47459,0.881944 -0.92369,2.332517 3.566402,-0.59303 5.930172,-3.863844 1.81417,-2.51031 2.54547,-4.426433 1.68938,-4.426433 -0.55731,0 -5.09409,1.047005 -5.56182,1.283564 -0.120162,0.06077 0.0893,0.345503 0.46538,0.632735 0.37612,0.287232 0.52227,0.687941 0.32478,0.890471 -0.48108,0.493342 -3.805872,0.470383 -4.598152,-0.03175 -0.8275,-0.52446 -4.99719,0.994131 -7.13327,2.597926 -1.97611,1.483677 -3.56282,3.698159 -3.57838,4.994105 l -0.0122,1.018438 3.62341,-0.184341 c 1.99288,-0.101384 3.9967,-0.380682 4.45293,-0.620659 z m 85.435243,23.265823 c 0,-0.205224 0.52312,-1.97311 1.16249,-3.928638 1.23948,-3.790989 1.11873,-4.140055 -1.4408,-4.164895 -0.61228,-0.0059 -1.48895,-0.171943 -1.94816,-0.368896 -0.84127,-0.360814 -0.47507,-0.340437 3.63828,0.202452 1.18179,0.155978 1.5328,0.004 2.15438,-0.932963 0.63913,-0.963379 0.61912,-1.255624 -0.14363,-2.097937 -0.66839,-0.738106 -0.75327,-1.217048 -0.34538,-1.948628 0.72329,-1.297238 1.80799,-1.464557 2.25049,-0.347144 0.19755,0.498852 0.47495,0.907006 0.61644,0.907006 0.14149,0 1.42935,-0.612906 2.86189,-1.362012 1.43256,-0.749102 3.65447,-1.725598 4.93758,-2.169985 3.04274,-1.053804 3.88154,-2.279428 2.74247,-4.007241 -0.46438,-0.704402 -1.52248,-1.679067 -2.35134,-2.165918 -0.82885,-0.486851 -1.36338,-0.97621 -1.18784,-1.087466 0.17554,-0.111259 1.32797,0.437088 2.56097,1.218548 2.4343,1.542838 3.37384,3.368106 2.35485,4.574846 -0.33417,0.395732 -0.6053,0.769634 -0.60252,0.830898 0.003,0.06126 2.42421,0.135875 5.38094,0.165809 4.82374,0.04884 5.47176,-0.0206 6.30934,-0.676191 1.2981,-1.016021 3.02853,-0.591333 2.54683,0.625056 -0.19138,0.483259 -0.15532,0.879369 0.0801,0.880236 0.23544,7.06e-4 2.28413,-0.594441 4.55264,-1.322916 3.64417,-1.170227 4.58684,-1.322903 8.09333,-1.310816 3.12884,0.01079 4.40127,0.183102 6.01249,0.814225 2.18289,0.855045 4.70641,2.702944 6.17285,4.52019 0.8073,1.000422 1.14809,1.112383 3.3224,1.091551 2.22769,-0.02134 5.94967,0.937521 5.94967,1.53277 0,0.463053 -2.23561,0.594216 -4.30042,0.2523 -1.15537,-0.191322 -2.53085,-0.36823 -3.05663,-0.393132 -0.52577,-0.02491 -1.24498,-0.487507 -1.59822,-1.028016 -0.71534,-1.094535 -1.072,-1.186405 -2.10321,-0.541764 -1.1093,0.693448 -2.44615,-0.683179 -2.03431,-2.09483 0.30251,-1.036905 0.1382,-1.195228 -2.10516,-2.028472 -3.13049,-1.162741 -3.72702,-1.138004 -3.72702,0.154552 0,0.582084 -0.23259,1.058334 -0.51686,1.058334 -0.90053,0 -2.26622,-1.082206 -2.26622,-1.795809 0,-0.570127 -0.26055,-0.647918 -1.5307,-0.457016 -2.13726,0.321229 -4.95705,1.069403 -6.33365,1.68051 -1.1375,0.504962 -1.11624,0.531586 0.98526,1.234168 2.42431,0.810503 1.99909,0.921688 -0.91355,0.238862 -1.66144,-0.389498 -2.17086,-0.375317 -3.46139,0.09636 -2.17756,0.795888 -2.29894,1.359556 -0.34607,1.6071 2.00418,0.254046 1.85767,0.955308 -0.30058,1.438709 -1.05829,0.237031 -1.83833,0.209673 -2.59831,-0.09113 -0.95123,-0.376502 -1.59959,-0.177715 -5.22367,1.601554 -2.2757,1.117276 -4.15434,2.121825 -4.17475,2.232329 -0.0204,0.110507 0.74989,0.428007 1.71176,0.705555 0.96188,0.277552 1.77593,0.663388 1.80901,0.857416 0.10246,0.601126 -5.09896,0.626336 -6.43957,0.03122 -0.88328,-0.392109 -2.04497,-0.48537 -4.31234,-0.346195 -1.99467,0.122435 -4.06418,0.0014 -5.79275,-0.338766 l -2.68938,-0.529258 -0.73486,1.120669 c -0.40417,0.61637 -1.28479,2.27161 -1.95693,3.678311 -1.13908,2.383945 -1.67025,3.078664 -1.67025,2.184495 z m 15.27264,-7.540169 c 3.8314,-0.730807 7.14279,-2.26654 6.7805,-3.144597 -0.4251,-1.030263 1.14919,-2.676553 2.57715,-2.695032 0.2296,-0.0028 0.41746,0.232724 0.41746,0.523766 0,0.291042 0.32488,0.529166 0.72196,0.529166 1.01447,0 5.14257,-2.750671 4.62284,-3.080328 -0.23504,-0.149084 -3.47497,-0.27106 -7.19985,-0.27106 -5.46068,0 -7.12643,0.122491 -8.59971,0.632386 -1.00496,0.34781 -1.67647,0.786962 -1.49224,0.975892 0.18424,0.18893 0.54554,0.261028 0.8029,0.160221 0.57495,-0.225209 2.23823,0.15057 2.23823,0.505672 0,0.468348 -2.79756,1.077217 -4.94947,1.077217 -1.31604,0 -2.43725,0.233035 -2.97035,0.617362 -0.99648,0.718393 -3.21251,3.429465 -3.21251,3.930159 0,0.78528 6.59437,0.938957 10.26309,0.239176 z M 39.004854,55.079352 c -0.40305,-0.413325 1.17268,-1.362029 2.245893,-1.352193 0.32416,0.0028 0.9651,0.16474 1.42431,0.359484 0.72267,0.306472 0.68966,0.424321 -0.24554,0.87654 -1.29119,0.624363 -2.876653,0.678141 -3.424663,0.116169 z m 85.388476,-4.068025 c 0.40181,-0.101906 0.88189,-0.08938 1.06686,0.02783 0.18495,0.117224 -0.1438,0.200603 -0.73056,0.185286 -0.64843,-0.01693 -0.78033,-0.100521 -0.3363,-0.213135 z m -99.530015,-2.51068 c 0,-0.742858 1.026926,-1.481667 2.059482,-1.481667 1.033471,0 0.897768,1.646044 -0.156847,1.902534 -1.443265,0.351014 -1.902635,0.2494 -1.902635,-0.420867 z m 39.533432,-0.943292 c -1.20499,-0.812934 -1.22445,-0.889565 -0.28398,-1.118295 1.11896,-0.272144 4.78609,0.831694 5.14954,1.550059 0.43478,0.859342 -3.46471,0.513306 -4.86556,-0.431764 z M 208.16235,46.326986 c -3.13,-1.346017 -5.08319,-1.980992 -5.42574,-1.763889 -0.68569,0.43458 -3.65228,0.444031 -3.65228,0.01164 0,-0.180171 0.42124,-0.594551 0.93607,-0.920849 0.87701,-0.55584 0.56243,-0.823849 -4.98629,-4.248111 -3.2573,-2.010163 -6.56067,-3.756377 -7.34082,-3.880478 -0.78015,-0.1241 -2.28263,-0.122886 -3.33884,0.0028 -3.67654,0.437137 -5.59798,3.419862 -2.958,4.591815 0.96659,0.429087 1.03613,0.549169 0.31807,0.549169 -0.50546,0 -1.31225,-0.249227 -1.79287,-0.553836 -3.24445,-2.056423 0.12342,-5.79629 5.21963,-5.79629 0.93361,0 1.69749,-0.07623 1.69749,-0.169401 0,-0.09317 -1.31501,-1.362629 -2.92224,-2.821019 -1.60723,-1.45839 -3.49576,-3.247474 -4.19674,-3.975738 -0.70099,-0.728267 -1.48705,-1.542912 -1.74681,-1.810325 -0.38402,-0.395326 -1.08215,-0.296418 -3.73505,0.529167 -2.8285,0.880237 -3.89242,1.014236 -7.99398,1.006827 -4.29226,-0.0078 -5.1398,-0.130799 -9.13462,-1.326197 -4.13637,-1.23776 -4.46535,-1.282114 -5.42534,-0.731492 -0.99275,0.569415 -4.11271,0.758487 -4.83963,0.293289 -0.19817,-0.126816 0.3641,-0.597482 1.24947,-1.045922 l 1.60978,-0.815344 -1.79134,-0.587103 c -1.99304,-0.653211 -2.05077,-0.639502 -6.99438,1.661043 -1.71897,0.799934 -1.54557,0.63874 0.76076,-0.707203 l 2.98723,-1.7433 -2.53794,-0.405032 c -1.39586,-0.222765 -3.55417,-0.405027 -4.79623,-0.405027 -2.11678,0 -2.25829,0.06361 -2.25829,1.015139 0,0.558324 -0.38177,1.215947 -0.84838,1.461382 -1.00816,0.530292 -1.27069,0.410033 -1.60245,-0.734053 -0.13724,-0.473287 -0.26815,-0.91102 -0.29089,-0.972739 -0.10737,-0.291296 -3.52928,1.515131 -4.32124,2.281174 -0.674,0.651958 -0.7372,0.965994 -0.2558,1.2711 0.86869,0.550567 0.80854,2.205394 -0.0975,2.681962 -0.5314,0.279519 -0.90586,0.280461 -1.34304,0.0035 -0.33341,-0.21131 -0.88492,-0.275025 -1.22558,-0.141587 -0.39702,0.155515 -0.0148,0.600551 1.06474,1.239686 0.92626,0.548393 1.68411,1.159986 1.68411,1.359101 0,0.425658 -2.67949,1.824344 -3.49493,1.824344 -0.30894,0 -1.35093,0.57864 -2.31552,1.285864 -1.55696,1.14154 -1.89084,1.23939 -2.97466,0.871763 -0.67146,-0.227756 -1.37619,-0.806397 -1.56607,-1.285864 -0.24093,-0.608549 -0.72875,-0.871911 -1.61475,-0.871911 -2.11438,0 -3.76722,-1.09123 -3.32899,-2.197851 0.20652,-0.521515 0.72664,-1.132907 1.1558,-1.358653 0.42918,-0.225743 0.78032,-1.030986 0.78032,-1.78943 0,-1.59325 0.97863,-2.022479 3.16906,-1.389941 1.16054,0.335135 1.60547,0.310769 2.37396,-0.130013 1.25193,-0.718072 4.47608,-0.727639 4.47608,-0.01328 0,0.827948 0.95659,0.619968 1.31535,-0.285983 0.60993,-1.540182 3.52845,-3.64388 6.13087,-4.419184 3.06174,-0.912142 8.69682,-1.022656 12.71731,-0.249413 2.75286,0.529445 3.8735,0.238566 2.65775,-0.689864 -0.35885,-0.274042 -0.49087,-0.663963 -0.29337,-0.866493 0.53099,-0.544534 2.39518,-0.446765 2.92512,0.153412 0.39432,0.446568 0.93903,0.396981 3.78483,-0.344544 1.82832,-0.476405 4.13827,-0.966935 5.13322,-1.090069 2.02683,-0.250842 2.12044,-0.383892 0.95638,-1.359316 -1.36573,-1.144404 -1.01264,-3.095321 0.85611,-4.730337 2.15728,-1.887448 2.52585,-1.871319 0.80587,0.03528 -1.44403,1.600697 -1.72255,3.063688 -0.79286,4.164679 0.66488,0.787375 3.34594,1.744348 4.88697,1.744348 0.58434,0 2.53798,0.474239 4.34142,1.053864 3.81575,1.226379 4.29629,1.281465 3.88582,0.445442 -0.16671,-0.339549 -0.0533,-0.855486 0.25211,-1.146528 0.47186,-0.449717 0.72834,-0.398113 1.70831,0.343719 0.86757,0.656738 1.07857,1.180877 0.85211,2.116666 -0.22194,0.917141 -0.015,1.463347 0.78789,2.079847 l 1.08887,0.836066 2.74298,-0.747871 c 1.50865,-0.411329 3.19751,-0.731464 3.75304,-0.711412 0.55552,0.02004 0.13337,0.186267 -0.93812,0.369365 -1.07148,0.183099 -2.56252,0.628216 -3.31341,0.989154 -1.23904,0.59558 -1.30058,0.746216 -0.66564,1.629427 1.40558,1.955179 7.59678,7.468302 12.1157,10.788755 4.07297,2.992773 12.28571,8.048335 13.54697,8.33918 0.2474,0.05705 0.31783,-0.638532 0.15649,-1.545742 -0.23205,-1.304787 -0.13217,-1.615422 0.47797,-1.486521 1.27648,0.269674 2.87049,2.353917 2.9317,3.833329 0.0316,0.763542 0.18692,1.39471 0.34517,1.402595 0.45363,0.02261 4.18519,2.10233 3.77212,2.10233 -0.20344,0 -2.57061,-0.946397 -5.2604,-2.103106 z m -86.7658,-15.384592 c 1.0348,-0.655846 1.04368,-0.702998 0.29849,-1.585493 -0.73491,-0.870302 -3.10587,-0.889705 -3.83069,-0.03136 -0.39568,0.468588 -0.31433,0.864013 0.29029,1.411111 0.99508,0.900409 2.04111,0.966788 3.24191,0.205733 z m 52.11939,-5.486297 c 1.60001,-0.436242 2.74711,-0.977075 2.74711,-1.295196 0,-0.67262 -4.73106,-3.600252 -5.81801,-3.600252 -0.43391,0 -1.47493,0.165305 -2.31339,0.367348 -1.65081,0.397788 -4.67078,0.136504 -4.67078,-0.404111 0,-0.183412 0.68881,-0.499462 1.53069,-0.702331 1.42564,-0.343538 1.45816,-0.394585 0.47369,-0.743768 -2.44183,-0.866101 -12.12255,0.365216 -16.12305,2.050732 -0.94594,0.398547 -0.78687,0.518118 1.7905,1.345879 3.40476,1.093491 3.97892,1.122772 3.97892,0.202918 0,-0.388056 0.26186,-0.705556 0.58191,-0.705556 0.99522,0 3.3144,1.696156 3.3144,2.42401 0,1.694575 9.60663,2.396681 14.50801,1.060327 z M 68.638607,46.137904 c -1.04698,-0.663561 -1.13834,-1.185055 -0.34009,-1.941145 0.48355,-0.458022 0.6695,-0.437099 1.38301,0.15562 0.933272,0.775261 1.013882,1.225377 0.3401,1.898918 -0.37738,0.377243 -0.64329,0.355442 -1.38302,-0.113393 z M 169.02703,44.385558 c 0,-0.81492 1.34756,-1.599911 2.7465,-1.599911 1.07422,0 0.6182,1.360005 -0.64388,1.920276 -1.69828,0.753903 -2.10262,0.692298 -2.10262,-0.320365 z m 19.14172,-0.395047 c -0.23846,-0.602171 -0.0715,-1.095333 0.49167,-1.452267 0.76593,-0.485436 0.91696,-0.464435 1.48329,0.206248 0.45303,0.536491 0.46281,0.945343 0.0347,1.452267 -0.81378,0.963714 -1.57744,0.885345 -2.00972,-0.206248 z M 17.055227,43.72532 c -1.951862,-0.622003 -2.025655,-1.29245 -0.142253,-1.29245 1.501207,0 2.940791,0.534141 2.940791,1.091145 0,0.490488 -1.542819,0.601468 -2.798538,0.201305 z M 152.2945,43.432275 c -0.37358,-0.45266 -1.42533,-1.224873 -2.33723,-1.716027 l -1.65798,-0.893011 1.458,-1.09819 c 0.80191,-0.604009 1.45801,-1.32134 1.45801,-1.594076 0,-0.272733 0.2716,-0.668017 0.60356,-0.878406 0.65215,-0.413325 2.73614,-0.21433 2.73614,0.261267 0,0.159685 0.93929,0.339605 2.08731,0.399824 l 2.08732,0.109492 v 2.469444 2.469444 h -1.74855 c -0.9617,0 -2.25678,0.290982 -2.87794,0.646628 -1.10086,0.630297 -1.14655,0.625842 -1.80864,-0.176389 z m 3.37373,-2.586905 c 0.87105,-0.665191 -0.14885,-1.5875 -1.75547,-1.5875 -1.34324,0 -1.92316,0.903594 -1.02173,1.591991 0.8768,0.669579 1.89669,0.667931 2.7772,-0.0045 z m -31.72715,1.448855 c 0,-0.07626 0.38873,-0.233187 0.86384,-0.348739 0.49534,-0.12047 0.71877,-0.06133 0.52376,0.138645 -0.32687,0.335213 -1.3876,0.495812 -1.3876,0.210094 z m -18.12281,-0.732081 c -0.59425,-0.284868 -0.82998,-0.517945 -0.52385,-0.517945 0.30614,0 1.04283,0.233077 1.63709,0.517945 0.59425,0.284871 0.82998,0.517948 0.52385,0.517948 -0.30614,0 -1.04283,-0.233077 -1.63709,-0.517948 z m 6.512,-3.024434 c -1.00284,-1.156134 -1.69953,-2.102062 -1.54821,-2.102062 0.40627,0 3.85412,3.898272 3.59379,4.063269 -0.12223,0.07747 -1.04274,-0.805074 -2.04558,-1.961207 z m 6.35483,0.274923 c 1.19811,-1.086626 2.26879,-1.918381 2.3793,-1.848348 0.27324,0.173179 -3.09859,3.252498 -3.90909,3.569974 -0.35673,0.139731 0.33168,-0.635 1.52979,-1.721626 z m -69.579153,0.475795 c -0.7873,-0.807371 2.03496,-3.205558 3.7724,-3.205558 0.60246,0 -0.0424,1.75968 -0.87893,2.398536 -0.95614,0.730176 -2.53814,1.171413 -2.89347,0.807022 z m 81.236233,-0.03056 c 0.1892,-0.194028 0.45446,-0.352778 0.58946,-0.352778 0.13501,0 0.24546,0.15875 0.24546,0.352778 0,0.194028 -0.26526,0.352778 -0.58947,0.352778 -0.3242,0 -0.43466,-0.15875 -0.24545,-0.352778 z m 32.02504,-1.035142 c -0.31691,-0.375299 -0.5762,-0.937563 -0.5762,-1.249471 0,-0.311912 -0.50096,-0.907906 -1.11324,-1.324434 -1.56237,-1.062873 -1.38691,-1.665566 0.55662,-1.911925 1.356,-0.171884 1.66985,-0.389036 1.66985,-1.155347 0,-1.854715 2.02267,-2.304362 4.18916,-0.931263 0.74551,0.472497 2.17437,0.909059 3.17524,0.970139 1.70539,0.104073 1.81141,0.188666 1.68666,1.345777 -0.0732,0.679097 -0.19846,1.949097 -0.27831,2.822222 l -0.14519,1.5875 h -2.31914 c -1.27552,0 -2.50704,0.119062 -2.7367,0.264583 -0.85117,0.539334 -3.53061,0.266887 -4.10875,-0.417781 z m 5.43526,-1.857636 c 1.6806,-1.065148 -0.0264,-2.754601 -2.07957,-2.058179 -1.77503,0.602082 -1.16963,2.481513 0.79935,2.481513 0.33675,0 0.91285,-0.1905 1.28022,-0.423334 z M 45.926517,36.982952 c -0.4914,-0.683552 -0.4995,-1.021471 -0.0316,-1.318034 0.88132,-0.558574 2.45124,0.313814 2.23398,1.241393 -0.25079,1.070741 -1.45756,1.112736 -2.20241,0.07664 z m 30.702152,0.01662 c 0,-0.689532 1.87335,-1.333221 3.048388,-1.047443 1.54715,0.37628 0.72182,1.355577 -1.243948,1.476005 -1.32375,0.0811 -1.80444,-0.03307 -1.80444,-0.428562 z M 195.00824,35.799087 c -0.95516,-0.668926 -1.31112,-2.891221 -0.46311,-2.891221 0.92062,0 2.36476,1.340894 2.477,2.299892 0.14022,1.198044 -0.76714,1.464468 -2.01389,0.591329 z M 53.353947,34.366855 c -0.40247,-0.161752 -1.36158,-0.21779 -2.13136,-0.124527 -1.26237,0.152947 -1.38164,0.06989 -1.21641,-0.847029 0.11198,-0.62139 -0.19057,-1.253494 -0.77825,-1.62596 -1.27837,-0.810218 -0.67397,-1.67042 1.35431,-1.927521 0.90411,-0.114604 1.93464,-0.503499 2.29007,-0.864214 0.84039,-0.852872 1.01053,-0.835258 3.03565,0.31429 0.93997,0.533576 2.12259,1.185679 2.62802,1.449112 0.84709,0.441515 0.82871,0.539859 -0.23497,1.257462 -0.63466,0.428166 -1.15393,1.014314 -1.15393,1.302551 0,1.123096 -2.14852,1.726815 -3.79313,1.065836 z m 2.33491,-2.358001 c 0.4896,-0.808627 -1.20879,-1.634624 -2.47674,-1.204542 -1.29667,0.439822 -1.35193,0.819044 -0.22354,1.534198 0.93729,0.59405 2.23709,0.435367 2.70028,-0.329656 z m -34.117596,1.604567 c -0.01683,-0.291042 0.212208,-0.767292 0.508971,-1.058333 0.657544,-0.644867 0.657544,-0.08787 0,0.881944 -0.315425,0.465222 -0.488796,0.525307 -0.508971,0.176389 z m 131.908409,-1.37737 c -1.21416,-1.080689 -1.54417,-2.50318 -0.58074,-2.50318 0.31371,0 0.80847,-0.396875 1.09945,-0.881945 0.58711,-0.978697 2.4706,-1.201342 2.98438,-0.352777 0.17621,0.291041 0.8292,0.529166 1.45109,0.529166 0.96122,0 1.1307,0.227373 1.1307,1.516945 0,1.593331 -0.76437,2.426313 -1.95968,2.135603 -0.39094,-0.09508 -0.87615,-0.0032 -1.07826,0.203959 -0.6475,0.664005 -1.86364,0.405458 -3.04694,-0.647771 z m 3.74869,-1.339384 c 0.20811,-0.890298 -1.23946,-1.304583 -2.1442,-0.613661 -0.51812,0.395672 -0.50864,0.627966 0.0429,1.049112 0.90638,0.692175 1.88519,0.489342 2.10135,-0.435451 z m 18.74125,1.642911 c -0.48716,-0.499583 1.23124,-2.101152 2.25443,-2.101152 0.99783,0 1.10651,1.442519 0.15415,2.046111 -0.8225,0.521296 -1.92925,0.546587 -2.40858,0.05504 z m 23.53219,-0.394512 c -0.84189,-0.194878 -1.5307,-0.509573 -1.5307,-0.699322 0,-0.208767 -0.98523,-0.251354 -2.49508,-0.107854 -2.3726,0.225499 -2.52553,0.187596 -3.11572,-0.772136 -0.39656,-0.644874 -0.44025,-1.3277 -0.12101,-1.891217 0.33734,-0.595464 0.26725,-1.168424 -0.21577,-1.763888 -0.39347,-0.48507 -0.7191,-1.154173 -0.72361,-1.486895 -0.011,-0.811682 2.00626,-1.450393 3.84481,-1.217344 1.06085,0.134472 1.67182,0.005 2.11937,-0.449227 1.53023,-1.552963 5.1345,-1.065365 6.05202,0.81874 0.20014,0.410976 1.14583,1.171635 2.10153,1.69036 1.43532,0.779046 1.63288,1.055242 1.13549,1.587499 -0.33118,0.354401 -1.13608,0.798576 -1.78868,0.987058 -0.89397,0.258195 -1.10539,0.547589 -0.85744,1.173706 0.40603,1.025303 -0.80451,2.550357 -1.99449,2.512695 -0.48402,-0.01531 -1.56884,-0.187297 -2.41072,-0.382175 z m 0.3777,-3.672116 c 1.75956,-1.115191 0.32396,-2.875142 -2.03871,-2.499311 -1.83866,0.292478 -2.34078,1.177015 -1.26102,2.221438 1.00054,0.967818 2.06915,1.057804 3.29973,0.277873 z m -12.699,2.176744 c -0.96952,-1.294899 -1.15854,-2.932885 -0.42323,-3.667548 1.05639,-1.055461 3.06227,2.036043 2.49253,3.841528 -0.42322,1.341176 -0.96925,1.295266 -2.0693,-0.17398 z m -83.41677,-0.488092 c -1.46195,-0.19164 -1.18396,-0.641753 0.90062,-1.458292 1.88877,-0.739838 5.91793,-1.015968 5.91793,-0.405571 0,0.904603 -4.58184,2.15706 -6.81855,1.863863 z M 29.566683,29.351507 c -0.204535,-0.209747 -0.97075,-0.286099 -1.702699,-0.169668 -0.916655,0.145814 -1.330819,0.06179 -1.330819,-0.269991 0,-0.264929 -0.405763,-0.997194 -0.901695,-1.627258 -0.766451,-0.973745 -1.121271,-1.113801 -2.365621,-0.933761 -3.977592,0.575504 -5.240443,0.654996 -4.902659,0.3086 0.193796,-0.198734 1.547745,-0.462354 3.008778,-0.585816 3.540114,-0.299156 6.282756,-1.359641 5.902122,-2.282151 -0.201217,-0.487673 0.05925,-0.762815 0.878039,-0.92752 0.640266,-0.128795 1.16412,-0.511573 1.16412,-0.850617 0,-0.361601 0.836974,-0.869404 2.024581,-1.228341 2.31114,-0.6985 4.48395,-0.535347 7.298754,0.548047 2.31455,0.890856 2.28228,0.594364 -0.13916,-1.278512 -1.07148,-0.828745 -1.93766,-1.807965 -1.92482,-2.176035 0.0389,-1.115798 1.74366,-2.75886 5.471893,-5.273851 4.0676,-2.743923 4.48378,-2.741108 6.74765,0.0456 1.07859,1.327682 1.43884,2.380173 1.59128,4.648901 0.18397,2.738053 -0.15906,3.968782 -1.94684,6.984929 -0.35653,0.601511 -0.29377,0.628072 0.50796,0.214965 0.50312,-0.259238 1.17386,-0.369855 1.49053,-0.245812 1.20908,0.473601 -1.9799,2.368599 -6.28323,3.733708 -4.455073,1.413246 -7.453293,1.963364 -3.502903,0.642719 1.183333,-0.395598 2.277073,-1.023581 2.430543,-1.395518 0.15346,-0.371941 0.62553,-0.676254 1.04903,-0.676254 0.4235,0 0.77001,-0.08996 0.77001,-0.199926 0,-0.438782 -2.95614,-2.622296 -3.55018,-2.622296 -0.349243,0 -0.947823,-0.3175 -1.330203,-0.705556 -0.38237,-0.388055 -1.14618,-0.705555 -1.69736,-0.705555 -0.55117,0 -1.48834,-0.233077 -2.08259,-0.517948 -1.407844,-0.674882 -2.116694,-0.676148 -1.709164,-0.0032 0.2625,0.433549 0.11981,0.467617 -0.73878,0.176389 -1.746,-0.592233 -2.40281,-0.440729 -2.04178,0.470968 0.28926,0.730427 0.1639,0.811851 -1.027641,0.667488 -1.279315,-0.154997 -1.338409,-0.09148 -1.031195,1.108367 0.229081,0.894698 0.118661,1.272791 -0.371711,1.272791 -0.547652,0 -0.553006,0.110423 -0.02491,0.513715 0.369979,0.282539 0.503705,0.687003 0.297168,0.898807 -0.206537,0.211801 0.28131,0.801387 1.084104,1.310188 1.101655,0.698218 1.284385,0.995571 0.745065,1.212459 -0.967195,0.388958 -1.414819,0.368889 -1.855667,-0.0832 z m 18.665494,-6.133185 c 1.6227,-2.124499 1.49619,-5.76266 -0.2149,-6.179841 -0.64218,-0.15657 -1.38598,-0.154912 -1.65288,0.0037 -0.26691,0.158595 -0.87397,0.193823 -1.34903,0.07829 -0.63482,-0.154396 -0.76899,-0.0536 -0.50626,0.380344 0.38297,0.632531 -0.42635,0.825024 -0.99913,0.237645 -0.65631,-0.673047 -1.45336,-0.379606 -0.86416,0.318149 0.48191,0.570699 0.40168,0.643605 -0.53703,0.488022 -1.362693,-0.225851 -1.408783,0.154775 -0.1295,1.069467 0.94335,0.674504 0.93573,0.683726 -0.24172,0.292361 -0.668683,-0.22226 -1.487803,-0.40411 -1.820263,-0.40411 -0.68819,0 1.988633,3.120425 4.176963,4.869173 1.71362,1.369391 2.34572,1.193235 4.13791,-1.153167 z m -3.53194,-1.070173 c -0.17622,-0.291042 -0.0778,-0.529166 0.21876,-0.529166 0.29653,0 0.53914,0.238124 0.53914,0.529166 0,0.291042 -0.0984,0.529167 -0.21875,0.529167 -0.12032,0 -0.36294,-0.238125 -0.53915,-0.529167 z m 129.064113,7.101995 c -1.0087,-0.467473 -1.00442,-0.49535 0.13533,-0.881945 1.83792,-0.623414 5.70307,-0.428596 5.70307,0.287454 0,0.346294 -2.58936,1.077218 -3.81612,1.077218 -0.53936,0 -1.44939,-0.217227 -2.02228,-0.482727 z m -141.1084,-0.4263 c 0,-0.238161 2.89136,-0.903831 3.167,-0.729132 0.126244,0.08001 -0.53469,0.314318 -1.46874,0.520686 -0.93404,0.206368 -1.69826,0.300168 -1.69826,0.208446 z m 53.178237,-1.68329 c -1.1735,-0.543842 -0.72378,-1.288238 0.77827,-1.288238 1.2267,0 2.49548,0.886043 1.99853,1.395659 -0.49047,0.502973 -1.54798,0.462065 -2.7768,-0.107421 z m 23.656553,-0.649203 c -1.31612,-0.895346 -1.44518,-1.344591 -0.38627,-1.344591 0.721,0 1.99185,0.755826 2.81754,1.675694 0.67721,0.754458 -1.21418,0.496877 -2.43127,-0.331103 z m 15.04207,-5.374728 c -0.59129,-0.451544 -0.48277,-0.602562 0.67277,-0.936254 1.56606,-0.452236 3.9753,0.113852 3.59685,0.845135 -0.33282,0.643157 -3.45938,0.709878 -4.26962,0.09112 z M 89.264887,20.690655 c -0.52317,-0.331583 0.5901,-1.471358 1.85682,-1.901024 0.87197,-0.295765 1.18083,-0.257016 1.4463,0.181444 0.58766,0.970601 -2.1973,2.420433 -3.30312,1.71958 z m 48.146323,-1.611672 c -0.91739,-0.581427 -0.84664,-2.046111 0.0988,-2.046111 1.19624,0 2.14571,0.949734 1.74648,1.746959 -0.41352,0.825743 -0.89205,0.903322 -1.84531,0.299152 z m 17.70041,-3.104444 c -1.47655,-0.935821 -1.40577,-1.411111 0.21015,-1.411111 1.57419,0 2.82707,0.835307 2.37436,1.583009 -0.43882,0.724764 -1.25545,0.67045 -2.58451,-0.171898 z"
       id="path1339" />
  </g>
</svg>
