<?xml version="1.0" encoding="UTF-8" standalone="no"?>
<svg
   xmlns:dc="http://purl.org/dc/elements/1.1/"
   xmlns:cc="http://creativecommons.org/ns#"
   xmlns:rdf="http://www.w3.org/1999/02/22-rdf-syntax-ns#"
   xmlns:svg="http://www.w3.org/2000/svg"
   xmlns="http://www.w3.org/2000/svg"
   xmlns:sodipodi="http://sodipodi.sourceforge.net/DTD/sodipodi-0.dtd"
   xmlns:inkscape="http://www.inkscape.org/namespaces/inkscape"
   version="1.0"
   width="652pt"
   height="333pt"
   viewBox="0 0 652 333"
   preserveAspectRatio="xMidYMid meet"
   id="svg26"
   sodipodi:docname="бабаочка 5.svg"
   inkscape:version="1.0.2 (e86c870879, 2021-01-15, custom)">
  <defs
     id="defs30">
    <filter
       style="color-interpolation-filters:sRGB;"
       inkscape:label="Drop Shadow"
       id="filter932">
      <feFlood
         flood-opacity="1"
         flood-color="rgb(124,50,0)"
         result="flood"
         id="feFlood922" />
      <feComposite
         in="flood"
         in2="SourceGraphic"
         operator="in"
         result="composite1"
         id="feComposite924" />
      <feGaussianBlur
         in="composite1"
         stdDeviation="8.98204"
         result="blur"
         id="feGaussianBlur926" />
      <feOffset
         dx="0"
         dy="0"
         result="offset"
         id="feOffset928" />
      <feComposite
         in="SourceGraphic"
         in2="offset"
         operator="over"
         result="composite2"
         id="feComposite930" />
    </filter>
    <filter
       style="color-interpolation-filters:sRGB;"
       inkscape:label="Drop Shadow"
       id="filter944">
      <feFlood
         flood-opacity="1"
         flood-color="rgb(124,50,0)"
         result="flood"
         id="feFlood934" />
      <feComposite
         in="flood"
         in2="SourceGraphic"
         operator="in"
         result="composite1"
         id="feComposite936" />
      <feGaussianBlur
         in="composite1"
         stdDeviation="8.98204"
         result="blur"
         id="feGaussianBlur938" />
      <feOffset
         dx="0"
         dy="0"
         result="offset"
         id="feOffset940" />
      <feComposite
         in="SourceGraphic"
         in2="offset"
         operator="over"
         result="composite2"
         id="feComposite942" />
    </filter>
  </defs>
  <sodipodi:namedview
     pagecolor="#ffffff"
     bordercolor="#666666"
     borderopacity="1"
     objecttolerance="10"
     gridtolerance="10"
     guidetolerance="10"
     inkscape:pageopacity="0"
     inkscape:pageshadow="2"
     inkscape:window-width="1580"
     inkscape:window-height="879"
     id="namedview28"
     showgrid="false"
     inkscape:zoom="0.39512698"
     inkscape:cx="572.45519"
     inkscape:cy="315.60022"
     inkscape:window-x="169"
     inkscape:window-y="136"
     inkscape:window-maximized="0"
     inkscape:current-layer="layer3"
     inkscape:document-rotation="0" />
  <metadata
     id="metadata2">
Created by potrace 1.15, written by Peter Selinger 2001-2017
<rdf:RDF>
  <cc:Work
     rdf:about="">
    <dc:format>image/svg+xml</dc:format>
    <dc:type
       rdf:resource="http://purl.org/dc/dcmitype/StillImage" />
    <dc:title></dc:title>
  </cc:Work>
</rdf:RDF>
</metadata>
  <g
     inkscape:groupmode="layer"
     id="layer3"
     inkscape:label="Layer 1"
     style="display:inline">
    <path
       d="m 74.642177,32.967571 c -9.9753,8.35141 -24.822254,31.54977 -26.678124,41.52507 -1.15992,6.49554 -0.23198,9.743307 5.10364,17.398767 6.959514,10.207282 7.191494,9.975302 -4.87166,17.166792 -9.74331,5.79959 9.975304,26.21415 39.437224,41.29309 11.831175,6.03157 14.151013,8.11943 8.815385,6.95951 -12.295135,-2.08785 -28.533995,1.3919 -34.565565,7.42347 -4.17571,4.17571 -5.567614,8.11943 -5.567614,16.23886 0,27.60605 19.254644,43.38094 46.628717,38.2773 15.77489,-3.01579 19.48663,-5.33562 36.65342,-21.80646 l 14.61497,-14.151 -1.3919,10.43926 c -1.39191,10.67125 -0.23199,10.43926 6.95951,-1.62389 2.08785,-3.47975 3.01578,-1.15991 5.5676,13.22307 3.24777,19.95059 6.95951,28.30201 17.16679,38.97325 11.3672,12.29514 19.25464,15.31092 36.65342,14.61497 11.83116,-0.46396 29.6939,-20.64654 29.6939,-33.17366 0,-5.33562 -14.151,-21.11051 -24.35828,-27.14208 -4.1757,-2.55182 -3.94372,-2.78381 2.31984,-1.39191 3.94372,0.69596 15.77488,1.85587 26.67812,2.55182 24.59026,1.62389 38.50928,-2.08785 37.81333,-10.20728 -0.46397,-2.7838 -0.92794,-7.42347 -1.15992,-9.97529 -0.46397,-3.94372 1.15992,-5.79959 7.19149,-7.88745 13.68704,-4.63967 17.63076,-12.29513 18.32671,-37.34936 1.15992,-25.5182 -1.62388,-34.1016 -11.3672,-38.045322 -20.64654,-8.58339 -84.67403,15.774892 -113.67198,43.380942 -6.72753,6.49554 -8.81538,7.19149 -10.90323,4.63967 -2.08785,-2.31983 -0.46397,-6.03157 6.72752,-16.23885 12.29514,-17.16679 9.74332,-17.16679 -3.01578,0 l -9.9753,13.22307 -1.3919,-12.7591 -1.3919,-12.52712 -0.23199,11.83117 c -0.46396,9.51132 -1.3919,12.29513 -4.87165,13.22306 -3.71174,0.92794 -4.87166,-0.92793 -7.1915,-13.22306 -5.33562,-28.533992 -35.26151,-80.034359 -54.98012,-94.881309 -10.671253,-7.88745 -19.254643,-7.88745 -28.765973,0 z M 162.332,152.43914 c -0.69596,1.85587 -1.39191,1.15992 -1.39191,-1.3919 -0.23198,-2.55182 0.46397,-3.94372 1.15992,-3.01579 0.69595,0.69595 0.92794,2.78381 0.23199,4.40769 z"
       id="path4"
       style="fill:#ff0000;stroke-width:0.1;filter:url(#filter932)" />
  </g>
  <g
     inkscape:groupmode="layer"
     id="layer4"
     inkscape:label="Layer 2"
     style="display:inline" />
  <g
     inkscape:groupmode="layer"
     id="layer5"
     inkscape:label="Layer 3"
     style="display:inline" />
  <g
     inkscape:groupmode="layer"
     id="layer6"
     inkscape:label="Layer 4">
    <path
       d="m 413.78341,225.66531 c 0.73976,17.7463 8.25197,30.39055 18.69145,30.98219 4.47407,0.25356 5.61826,2.0639 3.99512,8.70457 -1.70765,8.13201 -1.47318,8.39466 10.45766,9.07081 6.43437,0.86337 17.22101,-0.27082 23.29912,-1.92122 l 11.16198,-3.35713 -5.74094,8.90087 c -11.68818,17.04197 -6.4271,29.808 14.80813,33.50503 19.24673,3.58435 39.60222,-21.19522 36.71494,-45.0478 -0.98423,-9.03265 -0.7216,-9.26712 3.49891,-4.5395 3.51709,3.93969 4.51132,3.99603 3.77065,-0.53438 -0.53438,-3.77064 2.65463,-2.84185 11.23651,4.1278 15.2598,12.33527 36.6077,14.04383 47.90146,3.96151 16.02138,-14.30282 8.06931,-41.18538 -11.25285,-39.03877 -8.79818,1.24688 -8.24472,0.28082 6.8106,-14.57547 14.00474,-13.9184 15.63696,-16.31947 11.41646,-21.04709 -2.5792,-2.8891 -3.41348,-10.16775 -1.32141,-16.28312 2.52376,-9.33255 1.46409,-12.63425 -8.61822,-23.92801 -17.1165,-19.17313 -20.56816,-19.86746 -33.17515,-8.61278 -11.81905,10.55126 -29.9525,48.92206 -31.46385,66.79013 -1.20144,12.39978 -7.30773,14.5473 -7.88846,2.79459 -0.33717,-7.25048 -0.33717,-7.25048 -2.8891,2.5792 -3.24627,13.28132 -5.58191,14.89446 -11.91266,7.80302 -13.83388,-15.49609 -74.80037,-30.92039 -85.3062,-21.54149 -2.62646,2.34473 -4.41863,11.96809 -4.19415,21.20704 z"
       id="path16"
       style="fill:#ff0000;stroke-width:0.1;filter:url(#filter944)" />
  </g>
</svg>
