<?xml version="1.0" encoding="UTF-8" standalone="no"?>
<svg
   xmlns:dc="http://purl.org/dc/elements/1.1/"
   xmlns:cc="http://creativecommons.org/ns#"
   xmlns:rdf="http://www.w3.org/1999/02/22-rdf-syntax-ns#"
   xmlns:svg="http://www.w3.org/2000/svg"
   xmlns="http://www.w3.org/2000/svg"
   xmlns:xlink="http://www.w3.org/1999/xlink"
   xmlns:sodipodi="http://sodipodi.sourceforge.net/DTD/sodipodi-0.dtd"
   xmlns:inkscape="http://www.inkscape.org/namespaces/inkscape"
   width="270mm"
   height="280mm"
   viewBox="0 0 270 280"
   version="1.1"
   id="svg108"
   inkscape:version="1.0.2 (e86c870879, 2021-01-15, custom)"
   sodipodi:docname="ee.svg">
  <defs
     id="defs102">
    <path
       id="SVGID_1_"
       d="m 71.6,5 h 58.9 C 184.3,5 197,17.8 197,71.6 v 58.9 c 0,53.8 -12.8,66.5 -66.6,66.5 H 71.5 C 17.7,197 5,184.2 5,130.4 V 71.5 C 5,17.8 17.8,5 71.6,5 Z" />
    <path
       id="SVGID_1_-3"
       d="m 71.6,5 h 58.9 C 184.3,5 197,17.8 197,71.6 v 58.9 c 0,53.8 -12.8,66.5 -66.6,66.5 H 71.5 C 17.7,197 5,184.2 5,130.4 V 71.5 C 5,17.8 17.8,5 71.6,5 Z" />
  </defs>
  <sodipodi:namedview
     id="base"
     pagecolor="#ffffff"
     bordercolor="#666666"
     borderopacity="1.0"
     inkscape:pageopacity="0.0"
     inkscape:pageshadow="2"
     inkscape:zoom="0.35"
     inkscape:cx="829.75242"
     inkscape:cy="840.92795"
     inkscape:document-units="mm"
     inkscape:current-layer="layer1"
     inkscape:document-rotation="0"
     showgrid="false"
     inkscape:window-width="1379"
     inkscape:window-height="774"
     inkscape:window-x="286"
     inkscape:window-y="143"
     inkscape:window-maximized="0" />
  <metadata
     id="metadata105">
    <rdf:RDF>
      <cc:Work
         rdf:about="">
        <dc:format>image/svg+xml</dc:format>
        <dc:type
           rdf:resource="http://purl.org/dc/dcmitype/StillImage" />
        <dc:title></dc:title>
      </cc:Work>
    </rdf:RDF>
  </metadata>
  <g
     inkscape:label="Слой 1"
     inkscape:groupmode="layer"
     id="layer1">
    <g
       id="g176"
       transform="matrix(1.2980457,0,0,1.2980457,3.4569031,9.504525)"
       style="stroke-width:2.52268">
      <g
         id="Base"
         style="stroke-width:2.52268">
        <defs
           id="defs147">
          <path
             id="path167"
             d="m 71.6,5 h 58.9 C 184.3,5 197,17.8 197,71.6 v 58.9 c 0,53.8 -12.8,66.5 -66.6,66.5 H 71.5 C 17.7,197 5,184.2 5,130.4 V 71.5 C 5,17.8 17.8,5 71.6,5 Z" />
        </defs>
        <use
           xlink:href="#SVGID_1_-3"
           overflow="visible"
           fill-rule="evenodd"
           clip-rule="evenodd"
           fill="#5181b8"
           id="use149"
           x="0"
           y="0"
           width="100%"
           height="100%"
           style="stroke-width:5.70619" />
        <clipPath
           id="SVGID_2_">
          <use
             xlink:href="#SVGID_1_-3"
             overflow="visible"
             id="use151"
             x="0"
             y="0"
             width="100%"
             height="100%" />
        </clipPath>
        <path
           class="st0"
           d="M 0,0 H 202 V 202 H 0 Z"
           clip-path="url(#SVGID_2_)"
           id="path154"
           style="stroke-width:2.52268" />
      </g>
      <path
         id="Logo"
         class="st1"
         d="m 162.2,71.1 c 0.9,-3 0,-5.1 -4.2,-5.1 h -14 c -3.6,0 -5.2,1.9 -6.1,4 0,0 -7.1,17.4 -17.2,28.6 -3.3,3.3 -4.7,4.3 -6.5,4.3 -0.9,0 -2.2,-1 -2.2,-4 V 71.1 C 112,67.5 111,66 108,66 H 86 c -2.2,0 -3.6,1.7 -3.6,3.2 0,3.4 5,4.2 5.6,13.6 v 20.6 c 0,4.5 -0.8,5.3 -2.6,5.3 C 80.7,108.7 69.1,91.3 62.3,71.3 60.9,67.6 59.6,66 56,66 H 42 c -4,0 -4.8,1.9 -4.8,4 0,3.7 4.7,22.1 22.1,46.4 11.6,16.6 27.9,25.6 42.7,25.6 8.9,0 10,-2 10,-5.4 V 124 c 0,-4 0.8,-4.8 3.7,-4.8 2.1,0 5.6,1 13.9,9 9.5,9.5 11.1,13.8 16.4,13.8 h 14 c 4,0 6,-2 4.8,-5.9 -1.3,-3.9 -5.8,-9.6 -11.8,-16.4 -3.3,-3.9 -8.2,-8 -9.6,-10.1 -2.1,-2.7 -1.5,-3.9 0,-6.2 0,-0.1 17.1,-24.1 18.8,-32.3 z"
         style="stroke-width:2.52268" />
    </g>
  </g>
  <style
     id="style110">.st0{clip-path:url(#SVGID_2_);fill:#5181b8}.st1{fill-rule:evenodd;clip-rule:evenodd;fill:#fff}</style>
  <style
     id="style144">.st0{clip-path:url(#SVGID_2_);fill:#5181b8}.st1{fill-rule:evenodd;clip-rule:evenodd;fill:#fff}</style>
</svg>
