<?xml version="1.0" encoding="UTF-8" standalone="no"?>
<svg
   xmlns:dc="http://purl.org/dc/elements/1.1/"
   xmlns:cc="http://creativecommons.org/ns#"
   xmlns:rdf="http://www.w3.org/1999/02/22-rdf-syntax-ns#"
   xmlns:svg="http://www.w3.org/2000/svg"
   xmlns="http://www.w3.org/2000/svg"
   xmlns:sodipodi="http://sodipodi.sourceforge.net/DTD/sodipodi-0.dtd"
   xmlns:inkscape="http://www.inkscape.org/namespaces/inkscape"
   width="210mm"
   height="100mm"
   viewBox="0 0 210 100"
   version="1.1"
   id="svg8"
   inkscape:version="1.0.2 (e86c870879, 2021-01-15, custom)"
   sodipodi:docname="ветка.svg">
  <defs
     id="defs2">
    <inkscape:perspective
       sodipodi:type="inkscape:persp3d"
       inkscape:vp_x="0 : -48.500004 : 1"
       inkscape:vp_y="0 : 999.99996 : 0"
       inkscape:vp_z="210 : -48.500004 : 1"
       inkscape:persp3d-origin="105 : -98.000002 : 1"
       id="perspective869" />
    <inkscape:path-effect
       effect="bspline"
       id="path-effect867"
       is_visible="true"
       lpeversion="1"
       weight="33.333333"
       steps="2"
       helper_size="0"
       apply_no_weight="true"
       apply_with_weight="true"
       only_selected="false" />
    <inkscape:path-effect
       effect="bspline"
       id="path-effect835"
       is_visible="true"
       lpeversion="1"
       weight="33.333333"
       steps="2"
       helper_size="0"
       apply_no_weight="true"
       apply_with_weight="true"
       only_selected="false" />
  </defs>
  <sodipodi:namedview
     id="base"
     pagecolor="#ffffff"
     bordercolor="#666666"
     borderopacity="1.0"
     inkscape:pageopacity="0.0"
     inkscape:pageshadow="2"
     inkscape:zoom="10.065263"
     inkscape:cx="41.71067"
     inkscape:cy="192.3277"
     inkscape:document-units="mm"
     inkscape:current-layer="layer1"
     inkscape:document-rotation="0"
     showgrid="false"
     inkscape:window-width="1277"
     inkscape:window-height="837"
     inkscape:window-x="525"
     inkscape:window-y="143"
     inkscape:window-maximized="0" />
  <metadata
     id="metadata5">
    <rdf:RDF>
      <cc:Work
         rdf:about="">
        <dc:format>image/svg+xml</dc:format>
        <dc:type
           rdf:resource="http://purl.org/dc/dcmitype/StillImage" />
        <dc:title></dc:title>
      </cc:Work>
    </rdf:RDF>
  </metadata>
  <g
     inkscape:label="Слой 1"
     inkscape:groupmode="layer"
     id="layer1"
     style="opacity:1">
    <path
       style="fill:#000000;stroke-width:1"
       d="m 8.7808536,50.182481 c 2.9383804,0.164924 3.0169134,0.271551 6.5570804,0.774733 7.95496,1.02012 19.02223,2.397827 23.94899,2.981274 l 3.7357,0.442392 0.45644,-0.472793 c 0.58882,-0.609899 1.77541,-1.253388 3.45201,-1.872009 1.75417,-0.647243 2.70929,-0.766888 8.25812,-1.03452 l 1.38277,-0.06672 0.34492,-0.911104 c 1.15017,-3.037974 3.35806,-6.366559 5.87276,-8.853707 3.5157,-3.477153 7.20991,-5.558769 12.66727,-7.137748 4.84878,-1.402901 8.725,-1.926239 17.0456,-2.301378 5.21324,-0.235039 7.09048,-0.450735 8.805056,-1.011719 0.46307,-0.151513 0.87479,-0.2235 0.93826,-0.164056 0.0623,0.05829 0.1276,0.548381 0.14532,1.089154 0.028,0.854005 -0.03,1.181208 -0.44117,2.489669 -0.26036,0.82854 -0.60683,2.237819 -0.76993,3.131724 -0.708,3.880238 -1.330786,5.794921 -2.657226,8.169147 -1.08576,1.943412 -1.51191,2.508234 -3.44955,4.572018 -1.53208,1.631817 -2.01117,2.089005 -3.00547,2.868064 -2.39442,1.876076 -3.86703,2.740609 -6.12428,3.595416 -2.58585,0.979244 -5.05748,1.422539 -8.41144,1.508612 l -2.17188,0.05576 2.24085,0.229244 c 13.62038,1.393328 23.388786,2.133855 28.954376,2.194985 1.82991,0.02007 4.3597,-0.0987 4.76584,-0.223795 0.1116,-0.03441 0.84718,-0.205676 1.6346,-0.380672 3.47455,-0.772176 7.13638,-2.06181 9.61665,-3.386839 0.91826,-0.490549 1.69051,-0.935094 1.7161,-0.987856 0.0255,-0.0528 18.02441,-16.973498 19.46129,-18.326995 3.8739,-3.649131 5.96139,-6.248163 7.92703,-9.869559 0.6146,-1.132291 0.77578,-1.369962 0.92313,-1.361122 0.29962,0.01797 0.45671,0.408821 0.43911,1.092545 -0.0226,0.876334 -0.31931,1.743626 -1.00914,2.949102 -0.91706,1.602605 -1.65637,3.229631 -2.10208,4.626198 -1.28962,4.040752 -2.56806,6.60676 -4.5522,9.136935 -2.71847,3.466576 -6.60303,6.430954 -12.84431,9.801707 -0.94512,0.510431 -11.41191,5.00148 -11.72661,5.135186 -0.3147,0.133715 -0.55972,0.254778 -0.5445,0.269041 0.0153,0.01426 0.54978,-0.08497 1.18788,-0.220513 0.6381,-0.135545 5.98509,-1.347997 5.98509,-1.347997 l 2.26186,-0.578968 c 7.26543,-1.859728 15.68272,-4.507591 23.6893,-7.452044 6.61956,-2.434368 10.50436,-4.066429 13.44566,-5.648731 1.36501,-0.734327 1.58429,-0.884828 2.11884,-1.454231 0.78736,-0.838603 1.92588,-2.390369 2.98971,-4.074679 4.32546,-6.848302 15.61285,-19.232818 25.70042,-28.1984732 1.60883,-1.429908 3.25936,-2.8392 3.87314,-3.30705 l 0.28246,-0.215301 -0.0224,0.388705 c -0.0488,0.846662 -0.5477,2.126408 -1.53956,3.9490662 -0.85908,1.578666 -1.23123,2.442836 -2.88497,6.699337 -3.18694,8.202659 -4.44668,11.004575 -6.65067,14.792465 -4.16078,7.15095 -8.38634,9.649509 -18.38532,10.871147 -0.83827,0.102425 -1.97469,0.255578 -2.52537,0.340361 -0.98221,0.151217 -1.0124,0.164241 -1.58991,0.685883 -3.4527,3.1187 -7.18944,5.54481 -10.89416,7.073092 -1.30227,0.537231 -4.99201,1.727827 -12.5469,4.048623 -2.17177,0.667141 -4.15119,1.275885 -4.39873,1.352755 -0.32479,0.100866 0.19962,0.121618 1.88425,0.07457 3.32226,-0.09281 5.32697,0.134077 7.91423,0.895726 3.27814,0.96503 6.76172,2.93029 11.10782,6.266475 3.04767,2.339472 6.99851,5.95881 10.33379,9.466718 2.19705,2.310763 5.1037,5.494263 5.29891,5.803623 0.10871,0.17231 0.20907,0.55642 0.22296,0.85356 l 0.0253,0.54026 -0.65892,-0.24307 c -2.13123,-0.7862 -4.62136,-0.70293 -12.7941,0.42788 -9.929,1.37379 -15.32297,1.1838 -20.49959,-0.72206 -6.0876,-2.24126 -12.61061,-6.433801 -17.4759,-11.232321 -1.67614,-1.653133 -2.88801,-3.07784 -3.08116,-3.622324 -0.23346,-0.658072 -0.746,-0.88277 -2.74913,-1.205215 -0.48768,-0.07854 -1.30255,-0.194368 -1.66395,-0.241498 -0.3605,-0.04698 -2.24028,-0.08899 -3.35371,-0.05367 -2.06424,0.06529 -2.91454,-5.82e-4 -4.68773,-0.363195 -0.55051,-0.112576 -1.55223,-0.21589 -2.22609,-0.229589 -0.67385,-0.01366 -1.51237,-0.04133 -1.86336,-0.06132 -0.35098,-0.02 -0.70956,-0.03737 -0.79683,-0.03863 -0.0872,-8.43e-4 -1.02415,-0.05567 -2.08198,-0.12102 -8.352996,-0.516109 -27.500666,-2.272285 -48.942626,-4.488899 -3.3254,-0.343768 -6.05606,-0.57604 -6.06815,-0.516149 -0.0736,0.365126 1.66832,1.162666 4.95479,2.268471 3.60708,1.213692 4.04349,1.264253 7.70197,0.892311 4.67001,-0.474784 5.53105,-0.537804 6.88275,-0.503733 3.67881,0.0927 6.955,1.315825 10.60091,3.95769 1.02604,0.743479 2.88363,2.276141 3.82226,3.153672 5.21184,4.872582 8.28574,13.009129 8.77646,23.231169 0.16166,3.367418 0.0256,6.333268 -0.29851,6.508848 -0.052,0.0281 -0.33644,-0.0909 -0.6319,-0.26482 -1.17041,-0.68866 -2.60855,-1.28508 -8.2476,-3.420408 -9.37254,-3.54909 -13.88451,-6.00259 -17.88097,-9.72326 -1.75119,-1.63039 -2.43329,-2.40486 -3.54654,-4.02706 -1.7609,-2.56595 -2.87283,-5.13344 -3.67576,-8.487536 -0.48611,-2.030592 -0.64247,-3.226266 -0.73366,-5.610131 -0.0899,-2.35302 -0.18243,-2.498418 -2.34461,-3.688238 -0.50928,-0.280251 -0.98729,-0.562046 -1.06225,-0.626213 -0.075,-0.06419 -0.16102,-0.09025 -0.19128,-0.05795 -0.0303,0.03231 -0.0921,0.02396 -0.13757,-0.01856 -0.13416,-0.125659 -2.6429,-1.10196 -4.41124,-1.716684 -1.51696,-0.527335 -1.75289,-0.642754 -3.1274,-1.529978 l -1.48663,-0.95959 -9.97834,-1.106775 C 23.553834,55.029016 8.7905536,53.90249 8.7905536,53.90249 Z m 40.6132004,4.963312 c 3.88392,0.46425 5.83597,0.68677 13.76659,1.569355 4.42053,0.491957 8.05182,0.879016 8.06952,0.860121 0.0177,-0.0189 -0.6184,-0.163761 -1.41356,-0.321922 -3.05364,-0.607376 -6.26944,-1.648653 -8.10488,-2.624353 -2.44921,-1.301992 -3.53484,-1.576777 -6.12869,-1.551278 -1.98641,0.01957 -2.28685,-8.44e-4 -2.32976,-0.159366 -0.0214,-0.07904 -0.0458,-0.07516 -0.063,0.01014 -0.0173,0.0858 -0.66394,0.174068 -1.68745,0.230331 -2.06553,0.113529 -2.96905,0.321239 -4.29308,0.986954 -0.57216,0.287674 -1.05662,0.540486 -1.07659,0.561818 -0.0385,0.04108 0.15021,0.06647 3.26093,0.438252 z m 25.79614,2.864792 c 0.20402,-0.03147 0.20385,-0.03661 -0.002,-0.05466 -0.21597,-0.01898 -0.31306,0.005 -0.25154,0.06292 0.0155,0.01451 0.12952,0.01079 0.25333,-0.0084 z m 41.156196,4.752203 c 0.12845,-8.01e-4 1.116,0.17412 1.24871,0.1634 0.13269,-0.01079 0.46183,-0.0025 0.7314,0.01847 0.26958,0.02092 4.33504,0.226206 4.68944,0.09719 0.74745,-0.272095 1.92569,-0.999666 2.78962,-1.722589 0.41343,-0.345962 0.86519,-0.712159 1.00388,-0.813786 0.16581,-0.121502 -0.62052,0.0068 -2.29621,0.375189 -3.177,0.698107 -4.88332,1.030555 -7.28247,1.418853 -1.03416,0.167406 -1.89981,0.32522 -1.9237,0.350719 -0.0432,0.04614 0.59414,0.114922 1.03922,0.112122 z"
       id="path929"
       sodipodi:nodetypes="ccscssccsssssssssssssscsscsscssssssssssscssscsssccssssssssssssssscssssssscscsccscssssssssscsssssscsscscccssssccsssscccsccccccssscsscc" />
  </g>
  <g
     inkscape:label="Копия Слой 1"
     inkscape:groupmode="layer"
     id="g865"
     style="opacity:1" />
</svg>
