<svg id="Слой_1" data-name="Слой 1" xmlns="http://www.w3.org/2000/svg" viewBox="0 0 248.05 499.89"><defs><style>.cls-1{fill:#fff;}</style></defs><title>девушка 3</title><path class="cls-1" d="M7482,7047.84c5.79-5.39,14.54-4.13,20.38-8-3.8-1.53-7.89-3.25-12-4.79-.6-.23-1.53.27-2.26.55-3.23,1.22-6.44,2.47-9.65,3.72-2.67,1-4,2.05-3.6,5.82.29,2.69-2.35,6.84-4.88,8.48-7.31,4.74-7.88,11.46-7.3,18.91,0,.49-.13,1-.13,1.48a11.75,11.75,0,0,0,.1,1.36c10.5,2.53,12.22,3.89,9.93,8.18l9.89,4.79.69-.8-3.68-2.47.48-.78,5.56,1.2.57-1.21-10.79-5.55a27.1,27.1,0,0,0,4.36,0c3.63-.81,7.4-1.36,10.8-2.77,2.85-1.18,3-3.21.62-5.88-1.92-2.19-2.72-5.37-4-8.11l1.1-1.13,5.79,1.45c.23-1.17.46-2.35.75-3.8,4.58-.06,7.81,2,11,5.11,3,2.92,6.8,4.94,10.16,7.49,1.61,1.21,4.21,2.65,4.29,4.1.69,13.5,3.42,27.52.79,40.42-5.47,26.87-17.25,51.34-37.27,71-3.67,3.61-7.72,6-13,3.27a2.79,2.79,0,0,0-1.95-.3c-4.56,1.77-6.84-.29-9.07-4.19-.94-1.65-4.22-2.65-6.47-2.72-7.09-.23-13.49-1.25-18.43-7.27-1.47-1.79-5-1.74-7.19-3.16s-5.24-3.87-5-5.27a50,50,0,0,1,5.34-14.61c1.7-3,5.3-4.83,7.94-7.31,4.09-3.85,4.82-8.17,1.65-12.64-5.62-7.95-6.78-16.74-6.52-26.2.24-8.34-.55-16.7-1-25.05q-.7-13.94-1.63-27.87a4.6,4.6,0,0,0-1.14-2.67c-6.15-6.5-12.7-12.64-18.45-19.46a50.78,50.78,0,0,1-8.27-13.94c-3-7.55-4.71-15.57-7.3-23.28-2.5-7.4,4.37-20.61,11.92-22.61a61.41,61.41,0,0,0,7.88-3c3.78-1.58,7.5-3.33,11,.52.4.43,1.39.9,1.73.7,4.74-2.72,8.7.46,12.94,1.54,5.74,1.46,6.9-2.66,7.74-6.56,5.76-2.42,9.25-.27,12.15,4.56,2.82,4.67,7.33,4.83,12.53,2.63a16,16,0,0,1,10.15-.54c6.13,1.87,11.87,5,17.88,7.33,2,.75,4.42.21,6.43.89,4.71,1.6,7.07,5.65,8.32,10,3.44,12,6.61,24.14,9.6,36.29.64,2.6.09,5.5.09,8.24l-9.65.68c11.8,5.68,11.81,5.69,9.43,17.93a22.69,22.69,0,0,1-1.42,5.32,32.9,32.9,0,0,1-3.28,4.71c-1.07-1.08-2-2.55-3.25-3.17-5.54-2.68-11-5.66-16.87-7.47-5.19-1.61-10.82-1.83-16.25-2.66C7482.14,7048.85,7482.06,7048.34,7482,7047.84Zm-35.37,91.64c.08.62.17,1.24.26,1.87,2.52.13,5.07.58,7.52.25.94-.13,1.64-2,2.45-3.13-1.2-.61-2.55-1.92-3.57-1.7C7451,7137.27,7448.82,7138.53,7446.61,7139.48Zm-9.64,26.83,1.62-.17c2-3.49-.3-5.91-3.23-8.21C7435.89,7160.72,7436.43,7163.52,7437,7166.31Z" transform="translate(-7296.85 -6902.57)"/><path class="cls-1" d="M7399,7402.46c-2.86-2.63-6-5.06-8.55-7.94-17.66-19.52-35.51-38.79-57.67-53.49-7.07-4.69-13.56-10.27-20.65-14.93-2.41-1.59-5.84-2.15-8.83-2.25-6.24-.2-6.55-.84-6.46-6.94.12-7.44,3.36-13.6,6.74-19.7,2.08-3.76,5.49-6.31,10.33-5.54a2.54,2.54,0,0,0,1,.15c8.63-2.41,17,1,25.49,1.3,5.34.2,8.34-1.95,9.2-7,.77-4.54,2.89-5.35,7-3.61q12.71,5.39,25.66,10.21a74.65,74.65,0,0,0,11.18,2.81c3.37.67,4.5,2,2.21,5.05-3,4-5.9,8.11-9,12.06-9,11.44-10.66,35.06.21,47.36a11.58,11.58,0,0,0,2.06,1.07c.2-2.86.84-5.34.45-7.64-2.11-12.63,1.44-24.21,6.14-35.62a5.7,5.7,0,0,1,1.08-1.67,12,12,0,0,1,2.43-1.13C7395.28,7344.3,7397,7372.86,7399,7402.46Z" transform="translate(-7296.85 -6902.57)"/><path class="cls-1" d="M7477.9,7212.27c-8,9.41-15.75,19-24.12,28.12-3.19,3.45-7.65,5.85-11.8,8.27-4.59,2.66-9.21,2-13.77-.76a14.42,14.42,0,0,0-6.37-1.66c-3.68-.24-8.23-8.84-6.68-12.48,3.75-8.81,10.42-11.34,19.44-10.07,5.46.77,13.21-3,17.73-8.19-2.07-.66-3.88-1.39-5.75-1.81-8.46-1.92-8.47-1.89-10.45-8.76l-6.19-3c-.33,1.71-.74,3.79-1.46,7.54-2-3.18-4-5.14-4.5-7.43-.59-2.55,1-4.24,4.12-4.25,3.78,0,7.72,0,11.3-1a44.39,44.39,0,0,1,19.75-1.22c4.82.77,6.18,3,5.94,7.36-.48,8.36,2,10.3,10.18,8.19a7.43,7.43,0,0,1,1.42-.09Z" transform="translate(-7296.85 -6902.57)"/><path class="cls-1" d="M7390.72,7088.53c-3,4.15-6.05,7.6-8.17,11.55a21.79,21.79,0,0,0-2.06,9,38.44,38.44,0,0,0,.95,9.84c.88,4.11,1.54,8.53,3.6,12,3,5.08,2.4,10,1.09,15-.66,2.56-2.81,3.4-5.13,1.81-3-2.08-6.1-4.18-5.77-8.68.1-1.4-.26-3.61-1.18-4.19-5.72-3.54-4-9.48-5.22-14.49-.69-2.83-1.36-6.09-3.19-8.14-3.36-3.76-3-8.33-4.07-12.61a5,5,0,0,1,.51-3.64c4.9-6.88,12.45-9.47,20.15-11C7384.55,7084.51,7387.48,7087.09,7390.72,7088.53Z" transform="translate(-7296.85 -6902.57)"/><path class="cls-1" d="M7379.33,7081.59l-11.44-6.73,5.66-6.35-5.11-8.88,1.15-1.3c3.62.17,7.72-.71,10.75.71,7.64,3.57,8.13,8.63,2.38,15.35C7386.75,7078.53,7386.42,7079.1,7379.33,7081.59Z" transform="translate(-7296.85 -6902.57)"/><path class="cls-1" d="M7515.14,6902.57c1.41,1.49,3.17,2.78,4.17,4.51,3.86,6.7,7.2,13.71,11.27,20.29,3.88,6.29,8.42,12.18,12.68,18.24.48.68,1.13,1.24,1.54,2,.2.35,0,.91,0,1.93a13.78,13.78,0,0,1-3.09-1.43c-7.3-6.3-14.47-12.79-18.94-21.53-1-1.88-.25-4.57-1.08-6.57-1.73-4.19-4-8.14-6-12.24a40.55,40.55,0,0,1-1.57-4.5Z" transform="translate(-7296.85 -6902.57)"/><path class="cls-1" d="M7492.09,7200.65c9.15-7,15.43-17.3,25.58-23.14C7515.05,7187.33,7501.91,7198.74,7492.09,7200.65Z" transform="translate(-7296.85 -6902.57)"/><path class="cls-1" d="M7539,6972.51l-10.1-15.93,1.76-.71-16.12-19.46c5.71,1.87,7.75,2.93,10.82,7.4,6,8.71,12.15,17.41,14.88,27.85Z" transform="translate(-7296.85 -6902.57)"/><path class="cls-1" d="M7423.36,7256.47c-3.19,2.81-5.63,5.2-8.35,7.21-.77.56-3.17.4-3.4-.09-.58-1.26-1-3.31-.35-4.29C7414.05,7255.06,7418.35,7255.83,7423.36,7256.47Z" transform="translate(-7296.85 -6902.57)"/><path class="cls-1" d="M7508.93,7201.06c-2,2.19-3.66,4-5.86,6.41.14-1.82.23-2.85.34-4.19l-5.48,2.09-.76-1.05,7.63-6.45Z" transform="translate(-7296.85 -6902.57)"/><path class="cls-1" d="M7517.61,6987.72q2.05,7.45,4.1,14.9l-1.84.51q-2.09-7.48-4.19-15Z" transform="translate(-7296.85 -6902.57)"/><path class="cls-1" d="M7511,6919a38.3,38.3,0,0,1,3.73,5.71c.34.79-.75,2.21-1.18,3.34-.87-.77-2.23-1.39-2.5-2.33a38,38,0,0,1-.83-6.26Z" transform="translate(-7296.85 -6902.57)"/><path class="cls-1" d="M7416.32,7203.73l5.25-4.75c.73,1.89,1.45,3.78,2.6,6.8Z" transform="translate(-7296.85 -6902.57)"/></svg>