<?xml version="1.0" encoding="utf-8"?>
<!-- Generator: Adobe Illustrator 22.0.1, SVG Export Plug-In . SVG Version: 6.00 Build 0)  -->
<svg version="1.1" xmlns="http://www.w3.org/2000/svg" xmlns:xlink="http://www.w3.org/1999/xlink" x="0px" y="0px"
	 viewBox="0 0 1200 1320" style="enable-background:new 0 0 1200 1320;" xml:space="preserve">
<style type="text/css">
	.st0{fill:none;stroke:#000000;stroke-miterlimit:10;}
</style>
<g id="svg4" inkscape:version="1.0.2 (e86c870879, 2021-01-15, custom)" sodipodi:docname="РґРµРІСѓС€РєР° Р°Р±СЃС‚СЂР°РєС†РёСЏ.svg" xmlns:cc="http://creativecommons.org/ns#" xmlns:dc="http://purl.org/dc/elements/1.1/" xmlns:inkscape="http://www.inkscape.org/namespaces/inkscape" xmlns:rdf="http://www.w3.org/1999/02/22-rdf-syntax-ns#" xmlns:sodipodi="http://sodipodi.sourceforge.net/DTD/sodipodi-0.dtd" xmlns:svg="http://www.w3.org/2000/svg">
	
		<sodipodi:namedview  bordercolor="#666666" borderopacity="1" gridtolerance="10" guidetolerance="10" id="namedview6" inkscape:current-layer="svg4" inkscape:cx="466.53039" inkscape:cy="668.07705" inkscape:pageopacity="0" inkscape:pageshadow="2" inkscape:window-height="816" inkscape:window-maximized="0" inkscape:window-width="1537" inkscape:window-x="117" inkscape:window-y="23" inkscape:zoom="0.4996736" objecttolerance="10" pagecolor="#ffffff" showgrid="false">
		</sodipodi:namedview>
	<g id="path835">
		<path d="M459.3,1288.2c2.3-40.8,10.4-70.6,31.1-115.6c6.7-14.4,12.1-27.6,12.1-29.4c0-1.7,0.5-2.6,1.2-2c0.6,0.6,5-5,9.6-12.6
			c4.7-7.6,14.6-22,22.1-32.1l13.7-18.3l-17.1,9.2c-43.4,23.4-117.6,50.8-161.4,59.6c-26.9,5.4-54.5,6.1-69.2,1.7
			c-8.8-2.7-7.6-2.9,16.8-3c51.7-0.2,90.2-12.9,198-65.1c49.4-23.9,54.8-27.1,63.5-38c5.2-6.5,27.5-30.2,49.5-52.6
			c38.7-39.5,40.1-41.3,45.3-57.5c12.7-40,27-64,76.9-129.5c45.8-60.1,46.3-61,43.1-70.2l-2.6-7.5l-16,16.1
			c-53.4,53.7-99.7,80.9-151.6,89.1C558.7,841,493.8,813.1,469,764c-6.2-12.3-6.9-15.8-6.9-38.7c0-23.3,0.6-26.4,7.6-41.1
			c4.2-8.8,12.1-20.5,17.6-26c11.6-11.6,36.1-24,47.4-24c4.3,0,7.8-1,7.8-2.2s-4.2-11-9.4-21.7c-11.6-23.9-23.1-69.9-19.3-77
			c2.4-4.5,61-34.6,87.4-44.9c11.2-4.4,12-5.3,14.6-16.3c5.9-25.7,22.8-46.7,48.7-60.5c16.2-8.6,51-17.3,67.6-16.8l10.8,0.3
			l-10.8,1.5l-10.8,1.5l9.6,1.7c13.7,2.5,18.6,2.2,16.6-0.9c-1.1-1.7,0-2.2,2.9-1.4c13.1,3.6,23,4.3,22,1.4
			c-2.4-7.1-20.1-9.9-73.9-11.7c-54.7-1.9-59.4-2.4-79.8-8.8c-10.2-3.2-15.2-3.1-47.9,0.5c-42.1,4.7-90.4,3.7-113.5-2.4
			c-24.4-6.4-51.4-21.2-66.9-36.5c-42.7-42.2-52.5-86-30.5-136.3c5.4-12.3,6.2-17.2,5.6-33.8l-0.7-19.5l-10.3,3.7
			c-10.4,3.7-16.3,2.8-35.7-5.5c-3.5-1.5-4.2-0.5-4.2,6.3c0,9.3-1.6,12.3-8.6,16c-3.8,2-6.1,1.9-9.3-0.4c-4.4-3.2-4.3-11.3,0.2-12.8
			c1.7-0.6,2.3,1.3,1.5,5.2c-0.9,4.8-0.2,6.1,3.4,6.1c11.3,0,13.5-12.6,5.3-30.5c-5.4-11.7-5.6-34.1-0.4-39.3c1.7-1.7,1.7,0.5,0,7.1
			c-7.2,27,19.2,53.3,46.2,46c10.9-2.9,12.2-4.5,16.2-19.2c4-14.9,3.8-17.5-1.8-23.5c-5.5-5.9-20.9-7.3-25.8-2.4
			c-4.6,4.6-3.3,13.3,2.5,17.6c4.9,3.5,4.9,3.8,0.7,3.1c-2.6-0.4-6.4-3.7-8.4-7.3c-3.4-6-3.2-7,1.4-13.2c7.3-9.8,20.7-10.5,30-1.6
			c3.8,3.6,7.2,6.1,7.6,5.6c0.4-0.6,2.1-4.1,3.7-7.9c2.5-5.8,2.4-7.6-0.7-11c-2-2.2-3.7-5.1-3.6-6.3c0-1.2,2.1,0.2,4.6,3.2
			c2.5,3,5.2,4.5,5.9,3.3c1.6-2.5-4-7.7-9-8.4c-1.9-0.3-5.2-1.9-7.2-3.6c-10.4-8.6-36.9-4.9-50.7,7.2l-8.3,7.2l3.4-6.9
			c3.9-7.8,22.3-15,38.4-15h9.2l-7-7.4c-9.9-10.5-34.2-27.5-49.4-34.6c-8.8-4.1-10.6-5.6-5.7-4.6c11.2,2.2,36.8,18.4,54,34.1
			c8.6,7.9,20.2,16.6,25.9,19.5l10.3,5.2l6-7.1c8.6-10.2,28.5-19.5,41.8-19.5c28.3,0,49.5,24,41,46.3l-2.2,5.9l14.6-7.5
			c12.5-6.4,17.2-7.5,31.6-7.4c36.9,0.2,66.8,26,65.9,56.8l-0.3,10.3l-1.8-12.1c-2.2-14.9-6.8-24.1-17.2-33.8
			c-10.3-9.7-19.2-14.1-35.8-17.5c-24.3-5-48,4-67,25.6c-8.3,9.4-21.6,31-21.6,35c0,3.4,9.9,2.8,13.2-0.8
			c6.5-7.2,30.4-16.5,46.8-18.1c12.7-1.3,18.1-0.6,29.4,3.6c7.6,2.9,15.4,7.5,17.4,10.4c4.3,6.2,4.8,11.1,0.7,7
			c-1.6-1.6-5.9-2.9-9.5-2.9c-4.5,0-8-2-10.7-6.1c-6-9.1-10.1-10.3-28-8.1c-14.9,1.8-45.1,14.4-44.8,18.7
			c0.3,4.3,21.9,24.2,27.8,25.6c25.4,6,36.2,21.3,48.1,68.2c8.4,33.2,11.2,40.7,15.2,40.7c1,0,2.4-5.8,3.1-12.9
			c0.7-7.1,3.5-17.1,6.1-22.2c7.2-14,22.8-30.5,35-37c8.7-4.6,11.7-7.9,14.9-16.6c8.8-23.4,26.3-39.9,49.8-46.9
			c24.3-7.2,43.9-3,62.5,13.3c8.5,7.4,23,29.4,23,34.7c0,1.3-3.6-4.1-8-12c-5-9.1-12.3-17.7-19.8-23.4c-16.6-12.7-17.8-11.2-2.8,3.6
			c18.8,18.5,21.2,25.2,21.8,60c0.4,26.4,1,30.1,6,37.1c8.8,12.3,25.7,13.7,31.1,2.5c2-4.1,2.7-4.5,2.8-1.4
			c0.2,5.1-8.8,11.5-16.2,11.5c-8.7,0-18.6-7-23-16c-2.8-5.8-3.9-15-3.9-32.6c0-26-2.3-38.6-8.6-46.2c-3.8-4.6-3.8-4.6-2.1,0.1
			c5.8,16.6,6.5,23.6,3.5,36.7c-3.4,15.1-15.7,30-27.2,32.9c-16.9,4.2-34.1-6.8-28-18.1c3.6-6.7,15.2-5.8,16.4,1.2
			c0.8,4.7,0.8,4.7-2.6,0.2c-4.2-5.6-11.4-3.6-11.4,3.2c0,2.6,2.4,6.4,5.3,8.5c15.7,11,39.5-4.9,44.9-29.9
			c3.6-16.8-1.1-32.5-15.5-51.7c-9.3-12.4-19.8-16-37.8-12.8c-21.3,3.7-38.1,13.9-48.4,29.3c-4.6,6.9-9,16-9.9,20.3
			c-1.5,7.7-1.4,7.8,7.2,7.8c4.8,0,13,2.2,18.2,4.8c5.2,2.6,9.9,4.8,10.4,4.8s1.6-3.1,2.4-6.9c1.9-9.7,12.7-21.5,21.6-23.9
			c8.9-2.4,20.2,0.3,25.5,5.9c3.5,3.7,3.3,3.7-2.2,0c-7.4-4.9-21.3-5.1-28.1-0.4c-6.6,4.6-15.1,18.4-15.1,24.5
			c0,2.6,1.7,8.2,3.8,12.4c2.3,4.6,3.2,10.1,2.3,13.8c-1.2,4.8,0.5,8.8,7.9,18.6c13.2,17.4,30.8,28.7,66.2,42.2
			c32.9,12.6,52.7,22.9,50.6,26.4c-1.1,1.8,5.8,7.2,9.2,7.2c0.6,0,10.6-18.1,22.1-40.2c23.6-45.3,36.8-65.8,45.9-71.9
			c6.2-4,6.7-3.9,30.5,8.5c13.3,6.9,38.1,20.4,55,29.9l30.8,17.3l-1.3,11.4l-1.3,11.4l8.9,0.1c15.2,0.1,21.1,7.2,36.1,43.1
			c5.2,12.5,13.4,31.8,18.1,42.8c9.9,22.9,10.5,28.6,3.8,37c-2.6,3.4-4.8,8.1-4.8,10.5c0,3.7-0.4,3.9-2.4,0.8c-2-3.1-2.3-3-2.4,0.5
			c0,4.3-13.6,14.6-30.6,23.2c-12.5,6.3-27,20.5-27.7,27c-0.6,5.1,2.2,6.8,82.1,47.8l32.2,16.5l-13.7,6c-7.5,3.3-14.8,6-16.1,6
			c-3.8,0-29.5,27.1-33.1,34.9c-1.8,3.9-4.3,9-5.5,11.4s-2.8,10-3.4,16.8c-0.7,6.8-1.7,15.9-2.4,20.3l-1.2,7.9l-19-17.1
			c-21.9-19.8-80-66.9-81.1-65.9c-0.4,0.4,1.4,7.1,4,14.8c8.5,25.2,12.3,50.1,12.3,79.3c0,85-28.8,144-157.5,323.2
			c-51.6,71.8-67.4,96.4-64,99.8c1.6,1.6,4.8-1.8,9.7-10.3c12.4-21.6,15.6-23.4,5.8-3.2c-8.7,17.8-10.2,25.2-5.2,25.2
			c1.1,0,3.8-6.1,6-13.6c4.1-14.1,19.5-46.2,26.2-54.7c2.1-2.6-1.1,6.3-7,19.9c-15.1,34.4-19.8,51.8-15.3,57.2
			c6.3,7.6,28.1,20,47,26.5c16.7,5.8,22.3,6.5,50,6.6c23.2,0,34.9-1.1,45.6-4.3c14.7-4.4,34.8-14.8,34.8-17.8
			c0-0.9-5.6-4.9-12.5-8.9c-39.5-22.9-64.5-68.2-68.3-124.1c-0.8-11.6-1.9-20.5-2.5-20c-0.6,0.6-2.1,9.5-3.3,19.8
			c-1.2,10.3-3.4,22.3-4.8,26.5c-3.4,10.5-12.8,17.4-23.5,17.4l-8.7-0.1l9.9-4.5c16-7.3,18.6-13.4,24.8-57.8
			c1.8-13.2,5.4-23.7,13.4-39.6c14.8-29.5,22.7-39.4,13.2-16.6c-14.7,35.4-17.6,58.6-10.6,85.6c11,42.4,44.5,74.7,69.2,66.5
			c16.2-5.4,24.8-24,16-34.6c-7.4-9-23.3-1.1-17.3,8.6c4.2,6.8,1.7,8.1-4.3,2.2c-4.1-4.1-4.5-5.9-2.3-10.7c6.2-13.6,22.9-14,31-0.8
			c12.3,20.1-3.2,42.5-29.5,42.5c-10.7,0-29.6-9.8-41.3-21.4c-5.3-5.2-10.5-9.6-11.5-9.6c-1.1-0.1,1.6,6.4,5.8,14.4
			c9.5,17.9,29.8,39.3,48.5,51.2l14,9l5.9-5.6c9.9-9.3,22.7-38,24.2-54.3c1.3-14.3,1.2-14.6-7.4-22.2c-4.8-4.2-13.3-14.6-18.9-23.1
			c-10.9-16.5-18.3-20.8-25.3-14.5c-11.4,10.2-27.7,4.6-36.5-12.6c-5.5-10.8-4.3-12.2,4-4.5c3.2,3,10.5,6,17,7
			c6.3,1,15.3,2.5,20.2,3.4l8.8,1.7l-5.5-15.3c-13.4-37-14-81.7-1.8-128c3.8-14.5,12.1-43.6,18.3-64.7c6.2-21.1,13.9-52.9,17.1-70.7
			l5.8-32.4l-1.2,21.2c-1.6,28.1-6.1,48.9-21.8,100.9c-7.2,23.8-14.8,50.9-16.8,60.1c-10.3,46.6,0.8,125.8,18.7,133.2
			c10.1,4.2,25.5,22.1,27.3,31.8c1.4,7.3,3.2,9.1,13.7,13.6c34.6,14.9,74.4,4.2,84.7-22.6c3-7.8,3.8-14.9,3-24.8l-1.2-13.8l3.4,10.8
			c7.2,23.2-3.8,45.3-28.8,57.6c-14.2,7-17.4,7.6-33.2,6.8c-11.2-0.6-21-2.6-27.3-5.8l-9.8-4.9l-2.9,17.1
			c-3,17.9-13.5,43.2-20.3,48.8c-8.9,7.4-2.7,12.2,23.4,18.4c18.5,4.4,54.1,4.5,70.1,0.2c33.1-8.8,78.7-43.5,88.8-67.5
			c10.6-25.4-6-85.4-31.4-113.5c-10.9-12-33.1-23.7-53.3-27.9c-35-7.4-72.7,8.8-79.7,34.2c-4.4,15.9,4,31.8,16.8,31.8
			c12.7,0,16.2-15.1,4.8-20.8c-5.1-2.5-5.3-3.2-1.8-4.5c6.2-2.4,11,0.4,12.7,7.2c2.6,10.4-0.8,18.1-9.8,21.8
			c-22,9.2-36.5-17.9-23.3-43.6c19.5-37.9,69.2-46.1,114.4-18.9c7.9,4.8,16.9,11,20,13.9c8.1,7.6,20.6,29.3,26.9,46.7
			c3,8.3,5.7,14.7,6.1,14.4c1.7-1.7-6.6-33.9-11.3-43.9c-8.1-17.1-26.7-35.6-58.3-57.9c-31.7-22.3-39.1-29.5-48.7-47.5
			c-9-16.8-9.3-39.6-0.6-52.4c6.3-9.3,21.6-18.4,31-18.4c15,0,29,13.9,29,28.7c0,16.3-22.2,28-32.2,17.1c-4.7-5.2-4.4-19.6,0.4-21.2
			c2.4-0.8,2.5,0.3,0.4,4.9c-3.9,8.6,0.7,16.1,9.9,16.1c16.7,0,22.7-20.8,9.7-33.8c-14.2-14.2-37.7-6.5-46.7,15.1
			c-4.1,10-4.3,12.7-1.7,24.3c4.9,21.9,14.2,32.8,49.2,57.7c17.3,12.4,36.6,27.7,42.8,34.1c19.5,20.1,30.3,50.9,32.9,94.3l1.5,25.2
			l2.9-12.7c3.7-15.9,3.8-44.2,0.2-60.9c-3.5-16.4-13.3-38.1-28.5-62.8c-8.9-14.4-13.1-24.4-15.8-37.5c-2-9.8-5.3-19.6-7.3-21.8
			c-2.7-3-3.2-6.9-1.9-16.2c1.2-9.4,0.7-13.6-2.3-18.3c-5.5-8.4-0.8-7.6,6.6,1.2c6.1,7.2,8.2,16.3,9.4,39.6l0.6,12l3.1-13.3
			c1.9-8.3,5.7-16.2,10-20.9c3.8-4.2,7.7-10,8.6-12.9c1.7-5.2,1.7-5.2,5,1c4,7.7,1.7,14.9-7.5,23.4c-6,5.5-13.2,16.8-13.2,20.5
			c0,0.9,3.1-1.7,6.8-5.7s10-7.9,13.8-8.7s9.9-2.4,13.6-3.5c7.2-2.3,8.2-0.5,4.1,7.2c-1.6,3-5,4.6-9.7,4.6c-6.5,0-6.9,0.5-4.6,4.9
			c3.2,5.9,1.5,12.2-4.3,15.8c-3.9,2.4-4.2,1.9-3.4-5.4c0.8-6.8,0.2-8.1-3.7-8.1c-7.2,0-12.6,7.7-12.6,18c0,6.5,3.1,14.4,10.7,27.4
			c22.4,38.2,30,62.6,30.1,96.2c0.1,35.8-10.8,60.7-37.6,86.5c-18.9,18.1-38.7,30.6-60.7,38.4c-12.9,4.6-20.5,5.5-44.4,5.6
			c-26.2,0-30.7-0.6-49.9-7.5l-21.1-7.5l-13.4,8c-18.3,11-43.6,16.4-76.4,16.2c-37.8-0.2-70.3-10.2-91.8-28.3l-7.4-6.2l-1.6,7.3
			c-1.8,8.3-2.4,7.5,50.7,73.5c32.2,40,43.2,57.4,51.5,81.4c4.8,13.8,6.7,31.5,2.3,21.3c-1.1-2.6-3.8-10.7-6-18
			c-5.7-18.8-16.1-36-38.9-64.1c-10.9-13.5-29.2-36.1-40.7-50.3l-20.8-25.7l1.6,20.3c2.8,35.9,12.5,63.8,36.7,104.7l13.6,23.2
			l5.7-6.6c4.1-4.8,5.7-9.5,5.7-17.2c0-12.1,1-12.8,7.3-5.3c6.6,7.9,8.2,19.1,3.9,27.3c-6.4,12.2-12.2,15.3-28.6,15.1
			c-12.5-0.1-14.2-0.6-10.6-3c12.8-8.3,12.6-7.1,3.4-22.3c-24.8-41.2-36.4-74-40.4-114.2c-2.6-25.9-8.2-44.9-12.2-40.9
			c-4.7,4.7-9.7,36-11,68.1c-1.6,41.1,2,71.7,12.8,108.2c0.8,2.6-0.1,4.2-2.2,4.2c-2.3,0-4.7-6-7.4-18.6
			c-11.5-53.5-11.5-118,0.1-158.4c3.6-12.5,3.1-19.7-1.3-19.7c-3,0-34.6,64.3-41.2,83.9c-4.6,13.8-5.1,18.9-3.9,44.4
			c0.7,15.8,3.5,37.4,6.1,47.9c2.6,10.5,4.3,19.6,3.8,20.1c-3.8,3.8-8.5-5.2-14.2-27.6c-3.6-14.3-7.2-27.6-7.9-29.6
			c-1.1-2.9-8.8,25.8-14,52.2c-0.6,3-2.2,5.4-3.6,5.4c-3.3,0-1.4-12.1,7.7-48.4c3.8-15.4,7-32.4,7-37.6c0-17,7.2-65.5,13.4-90.2
			c3.3-13.2,10.9-36.2,16.9-51.2c10.6-26.6,10.8-27.5,8-39.6c-1.6-6.8-3.6-13.7-4.4-15.2c-1.9-3.7-37.1,49-50.5,75.7
			c-29.5,58.7-41,133.4-30.1,196.4c1.4,8.3,1.1,10.2-1.9,10.2c-10.3,0-11.8-97.1-2.1-139.1c10.5-45.5,25.9-78.3,58.1-123.7
			c10.7-15,20.4-27.9,21.6-28.7c1.2-0.8,2.2-8.4,2.2-17.1V991l-16.2,14.2c-24.9,21.8-53.2,44.2-67.6,53.3
			c-16.1,10.3-45.2,44.9-60.9,72.3c-6.3,11-14.7,25.6-18.6,32.3c-19.2,32.6-35.9,93.9-35.9,131.4c0,17.6-0.6,20.6-4,20.6
			C458.2,1315.2,457.9,1312.3,459.3,1288.2L459.3,1288.2z M666.2,1157c3.9-8.6,11-22.7,15.8-31.5c8.2-15.1,8.5-16.3,5.3-23.8
			c-1.9-4.6-4.2-7-5.4-5.7c-3.2,3.5-16.2,39-20.6,56.2c-2.2,8.6-4.5,17.7-5.3,20.4C653.7,1181,658.8,1173.2,666.2,1157L666.2,1157z
			 M715.3,1129.6c0-6.9-5.9-12.8-8.5-8.6c-1.9,3,3.3,14.3,6.5,14.3C714.4,1135.3,715.3,1132.8,715.3,1129.6L715.3,1129.6z
			 M701.1,1108.2c-1.9-1.9-2.6-1.3-2.6,2.3c0,6.3,3.4,9.7,4.4,4.4C703.4,1112.7,702.6,1109.7,701.1,1108.2z M692,1094.4
			c-3.7-6.3-7.9-9.3-7.9-5.6c0,3.6,8.3,15,10.1,13.9C695.3,1102,694.3,1098.3,692,1094.4z M773,987.8
			c92.2-127,118.4-173.2,137.8-242.3c1.1-3.8-0.1-5.7-4.7-7.8c-8.3-3.8-10.7-3.5-10.7,1.1c0,6.9-14.6,46.9-25.3,69.2
			c-20.3,42.4-49.1,86.1-95.6,145.1c-14.1,17.8-31.7,40.9-39.2,51.3c-16.3,22.5-43.9,68.4-43.9,72.9c0,1.7,1.7,6.5,3.8,10.5l3.8,7.4
			l16.2-25C724,1056.5,750,1019.4,773,987.8L773,987.8z M688.5,1037.9c7.3-15,23.2-39.6,67.8-105.2c46.6-68.3,58.8-87.9,75.5-121.2
			c12-24,29.9-71.4,29.8-79.3c0-1.8-6.3,9.7-14,25.5c-21.5,44.3-40.9,74.2-121.2,187c-26.3,36.9-48.3,68.5-49,70.2
			c-1.7,4.2,1.7,34.1,3.9,34.1C682.4,1049,685.6,1044,688.5,1037.9L688.5,1037.9z M931.5,1035.1c-4.4-8.6-19.2-23.1-21.4-20.9
			c-0.5,0.5,0.4,3.4,2,6.5c3.3,6.4,21.9,26.4,23.3,25C936,1045.1,934.2,1040.4,931.5,1035.1z M612.1,1027.7
			c19.4-13.5,45.9-34.4,49.5-38.9c1.5-1.9,3.3-9.1,4.1-16.1l1.4-12.7l-28.2,29.5c-36.4,38.1-50.5,53.7-46,51.1
			C594.9,1039.5,603.5,1033.7,612.1,1027.7L612.1,1027.7z M760,891.7c31.3-43.7,58.8-88.1,75.5-121.9c7.8-15.8,14.1-29.8,14.1-31.2
			c-0.1-1.4-4.3,6.3-9.3,17.1c-21,44.7-52.7,86.1-105.6,138.2c-22.5,22.1-42.4,43.2-44.2,46.8c-4.1,8-13.5,47.8-13.5,57.1
			c0,5.7,5,0.2,30.3-33.9C723.8,941.4,747.6,909,760,891.7L760,891.7z M769.1,847.6c29.4-31.3,48.3-57.2,60.6-83
			c5.7-12,10.4-22.6,10.4-23.5c0-4.2-5.2,2.4-13.4,17.2c-4.9,8.9-10.4,18.2-12.1,20.8c-3,4.4-3.2,4.3-5.7-2
			c-2.5-6.6-2.7-6.4-25.9,23c-12.9,16.3-30.7,38.9-39.6,50.3c-17.4,22.4-42.6,61.1-42.5,65.3C701,918.3,728,891.3,769.1,847.6
			L769.1,847.6z M627,825c31.6-6,76.4-26.6,99.1-45.5l7.2-6l-16,5.7c-24.3,8.7-55.6,14-83.6,14c-40.6,0-64.9-8.3-88-30.2
			c-22.3-21.1-31-47.4-23.8-72c6.6-22.8,29.2-36.4,45.2-27.3c6.5,3.7,6.9,3.6,10.6-2c6.3-9.7,2.8-14-10.1-12.2
			c-9.6,1.3-11.6,0.8-16.6-4.7c-5.5-5.9-6.3-6.1-17.9-3.6c-17.4,3.7-28.7,10.2-40.6,23c-15.2,16.5-22.6,34.3-23.8,57.7
			c-0.9,16.4-0.1,21.5,4.8,33.7c7.4,18.4,16.4,29.7,34.3,43.2c18.7,14.1,29.2,19.4,50.1,24.8C578.5,829.1,603.2,829.6,627,825z
			 M658.2,786.5c22.7-1.9,58.4-11.4,75.6-20.1c17-8.6,29.4-22,39.2-42.7c3.9-8.1,7-15.4,7-16.2s-3.4,0.2-7.4,2.3
			c-12.6,6.5-28.9,10.6-47.8,12.1c-18.7,1.4-29.6,4.9-27.3,8.7c0.7,1.2-0.9,2.8-3.7,3.5c-2.8,0.7-5,2.3-5,3.4c0,1.2-1.6,2.1-3.6,2.1
			s-3.6,1.2-3.6,2.6s-1.3,2.1-3,1.6s-7,1.1-11.9,3.6c-5.7,2.9-10.8,4-14.2,2.9c-2.9-0.9-15.3-11.3-27.4-23.1L603,705.9l-9,6.1
			c-11.3,7.7-21.3,7.7-33.5,0.2l-9.6-5.9l12-0.1c11.1-0.1,27.6-6.8,27.6-11.3c0-0.9-2.4-4.2-5.2-7.2l-5.2-5.6l-5.4,5.1
			c-3.6,3.4-6.9,4.5-9.8,3.4c-3.9-1.6-3.8-1.9,1.1-3.8c5.9-2.3,7.1-9.1,2.5-13.7c-1.6-1.6-6.9-2.9-11.9-2.9
			c-13.5,0-24.9,10.9-28.6,27.4c-2.5,11.4-2.3,14.7,2.5,30.3c4.6,15.2,7.2,19.4,20.1,32.2c11.1,11,18.5,16.1,29.6,20.2
			c14.4,5.3,43.7,9.7,56,8.3C639.4,788.2,649.3,787.3,658.2,786.5L658.2,786.5z M780,731.4c7.9-10.2,9.6-14,7.7-17.2
			c-2-3.5-3.7-1.6-10.4,11.3c-9.9,19.1-9.9,19-8.6,19C769.4,744.5,774.4,738.6,780,731.4L780,731.4z M915.4,723.5
			c0.8-3.6,2.2-18.5,3-33c1.7-30.6-1.4-58.7-9.9-87.8c-5.7-19.8-10.1-26-23.6-33.6c-4.1-2.3-4.1-2-0.7,4.7c2,3.9,6.6,16.7,10.2,28.3
			c6,19.5,6.6,24.9,7.1,67.3c0.5,39.2,1.2,47.2,4.9,53.4C911.7,731.8,913.5,732,915.4,723.5L915.4,723.5z M764.7,706.4l17-7.7
			l-7.4-25.5c-4.5-15.7-7.7-23.3-8.2-19.9c-0.6,4.4-1.3,4.9-3,2.3c-1.6-2.6-2.2-2.7-2.2-0.2c0,1.7-1.1,2.5-2.4,1.7
			c-2.8-1.7-16.8,12.7-16.8,17.3c0,1.7-1.3,3.1-3,3.1c-2.9,0-13.8,14.7-13.8,18.6c0,1.1-3.9,6.1-8.7,11.1l-8.7,9.2l20.1-1.1
			C743.5,714.3,751.2,712.5,764.7,706.4z M876.1,640.9c0-12.8-1.2-29-2.6-36c-2.9-14-16.7-45.8-21-48.5c-1.5-0.9-0.6,1.9,1.9,6.3
			c8.1,14,12.4,33.3,12.4,56.2c0,12.1-0.7,24.8-1.6,28.3c-1.9,7.5,5.9,24.7,9.1,19.8C875.2,665.5,876,653.7,876.1,640.9z
			 M838.8,577.2c-4.1-14-10.1-26.9-16.3-35.3c-2.4-3.3-1.4,3.5,3.3,21.6c3.8,14.5,6.9,29.4,7,33.2c0.1,3.8,2,10,4.3,14l4.2,7.1
			l0.7-13.5C842.4,596.6,841,584.8,838.8,577.2L838.8,577.2z M819.9,569c-2.1-7-5-14.4-6.4-16.4c-2.2-2.9-2.4-2.7-1,1.2
			c0.9,2.6,3.4,10.4,5.5,17.3c2.1,6.9,4.3,12.1,4.8,11.6C823.3,582.2,822,576.1,819.9,569L819.9,569z M758,481.6
			c9.1-2.4,12.9-13,11-30.8c-1.2-11.7-2.6-15.8-5.7-16.8c-8.4-2.7-21.6,5.8-21.6,14c0,2.7-0.7,4.2-1.5,3.3c-0.8-0.8-0.8-4.2,0-7.5
			c1.7-6.8,12.4-13.3,21.9-13.3c5.4,0,6.2-0.9,5.5-6.6c-0.6-5-3.3-7.9-11.7-12.4c-13.9-7.3-20.8-5.8-35.3,7.9
			c-9.9,9.3-11,11.6-12,23.3c-1.5,18.6,1.7,25.3,13.1,27.2c5.1,0.9,13.5,4.1,18.7,7.2C751.8,483.7,751,483.5,758,481.6L758,481.6z
			 M631.9,476.7c8.5-3.1,11.4-5.3,11.5-9c0.1-14,18.7-41.1,37.2-54.4c5.9-4.2,10.2-8.2,9.6-8.8c-2.5-2.5-37.7,16.6-47.9,26
			c-11.2,10.3-21.5,28.6-23.9,42.5C616.8,482,616.9,482.1,631.9,476.7L631.9,476.7z M671.9,466.5c7.2-1,17.7-1.3,23.4-0.6l10.4,1.2
			l-1.5-11.1c-2.6-18.9,8.3-38.5,27.2-49.1c6.6-3.7,2.8-5.3-12.9-5.8c-12.5-0.3-15.9,0.6-26.7,7.5c-21.8,14-46,45-46,58.8
			c0,3.5,1.2,4,6.6,2.6C655.9,469,664.8,467.5,671.9,466.5L671.9,466.5z M770.5,410.3c0-4.3-13.1-9.7-18.5-7.6
			c-3.4,1.3-2.3,2.5,5.4,6.1C769.2,414.3,770.5,414.4,770.5,410.3z M778.6,377.1c-2.5-4-25.3-14-45.1-19.7
			c-25.2-7.3-47.7-10.2-103.4-13.2c-23.8-1.3-47-3.1-51.6-3.9l-8.4-1.6l6.2,6.4c6.2,6.4,6.5,6.4,52.8,8.3l46.6,1.9l-43.2,0.6
			l-43.2,0.6l14.4,6.9l14.4,6.9l31.2-4.6c17.2-2.6,38.2-4.9,46.8-5.1l15.6-0.5l-13.2-1.7c-11.6-1.5-11.1-1.6,4.8-0.9
			c24,1.1,46.2,5.8,39.6,8.4c-2.6,1-6.4,1.9-8.4,1.9c-2.3,0-1.8-0.7,1.1-1.8c2.6-1-9.3-1.6-26.4-1.3c-32.4,0.5-79.2,5.4-76.6,8
			c0.8,0.8,28.1,2.2,60.7,3c40.5,1,63,2.6,71.2,5C775.9,383.9,781.9,382.4,778.6,377.1L778.6,377.1z M764.5,374
			c-5.3-3.2-8.6-5.9-7.5-5.9c2.5,0,18.3,9.5,18.3,11C775.3,380.6,774.8,380.3,764.5,374L764.5,374z M554,377.5
			c14.9-1.4,31.4-3.3,36.6-4.2l9.4-1.6l-11.7-8.6c-11.4-8.5-12.2-8.7-39-10c-29.7-1.4-44.3-5.4-69.6-18.9c-20.7-11-46-35.2-54.4-52
			c-3.8-7.6-12.5-19-19.4-25.5c-14.7-13.8-30.4-36.4-34.3-49.5c-1.5-5.1-3.8-9.4-4.9-9.4c-3.4,0-11.2,20.5-14.1,37.3
			c-8.1,46.3,24.3,102.1,73.4,126.4C460,378.2,496.8,382.8,554,377.5L554,377.5z M724.3,361.6c-2.3-0.6-6.6-0.6-9.6,0
			c-3,0.6-1.1,1.1,4.2,1.1C724.2,362.7,726.6,362.2,724.3,361.6L724.3,361.6z M788.1,359.8c3-7.9-39.6-26.9-72.8-32.4
			c-8.6-1.4-45.3-3.7-81.6-5c-36.3-1.3-67.9-2.8-70.2-3.3c-6.9-1.6-4.9,5.6,2.4,8.5c3.8,1.5,35.9,3.4,75,4.5
			c78.8,2.2,92.1,4.4,122.4,19.9C787.6,364.5,786.4,364.1,788.1,359.8L788.1,359.8z M569.1,344.3c-3.3-4.6-7.9-7.5-14-8.6
			c-12.5-2.3-41.4-14.1-53.8-21.9c-12.5-7.9-74-39.3-74-37.8c0,5.2,11.9,21.7,23.4,32.3c28.4,26.3,68.1,41.3,112.9,42.6l10.4,0.3
			L569.1,344.3z M774.1,339.4c-4-2.5-19.9-9.5-35.3-15.5c-48.2-18.6-60.4-26.1-77.7-48l-7.4-9.4l-4,8c-2.2,4.4-4,10-4,12.5
			c0,2.5-1.1,3.9-2.4,3.1s-2.4-5.2-2.4-9.8c0-6.7,1.2-8.8,6.3-10.7c5.2-2,6-3.4,4.7-8.5c-1-4-0.7-5.6,0.9-4.6
			c3.8,2.4,3-6.8-1.1-12.1c-3.4-4.4-3.5-4.3-2,2.3c1,4.6,0.7,6.4-0.9,5.4c-1.4-0.8-3.1,0.1-3.9,2.2c-1.8,4.6-11.4,3.6-13.1-1.4
			c-0.9-2.9-0.5-3,2.3-0.7c5.2,4.3,11.3-0.2,7.9-5.8c-3.3-5.4-12.1-6.8-16.9-2.7c-6.5,5.4-8.1,13.5-5.3,26.6
			c3.5,16.1,21.4,34.8,39.3,40.8l12,4.1l-10.8-1.3c-5.9-0.7-18.6-5.2-28-10c-15.5-7.8-17.9-8.4-23.8-5.7c-5.9,2.7-6.2,2.6-3.5-0.7
			c4.3-5.2,13.6-4.6,23.8,1.5l8.7,5.3l-11.2-12.1c-16.7-18.1-22.1-30.1-22.3-49.3c-0.2-18.6-2.1-19.8-16.1-10.3
			c-17.6,12-33.2,39.7-33.2,59c0,10.5,0.9,11.3,20.4,17.2c14.4,4.3,14.4,4.3,3.6,3.4c-5.9-0.5-13.5-0.2-16.8,0.7
			c-8.7,2.4,14,4.9,44.4,4.9c68,0.1,132.8,8.3,157.6,20C779.1,344.9,784,345.7,774.1,339.4L774.1,339.4z M556.4,322.1
			c-0.5-1.5-2.5-3.1-4.4-3.4c-12.9-2.4-30.6-6.1-34.7-7.3c-10.5-3.2-0.6,2.4,13.6,7.7C547.6,325.2,557.8,326.5,556.4,322.1
			L556.4,322.1z M547.3,311.8c0-0.6-6-4-13.4-7.4s-21.4-12.7-31.2-20.5s-17.8-13.6-17.8-12.9s-2.8-0.5-6.1-2.7
			c-7.3-4.8-23.7-25.7-34.5-44l-7.8-13.2l1.3,9.4c3.4,24.2,34.3,68.9,55.3,79.9C506.1,307.1,547.3,315.8,547.3,311.8L547.3,311.8z
			 M564.1,308.1c-4.7-3.1-10.3-3.1-8.4,0c0.8,1.3,3.8,2.4,6.7,2.4C566.7,310.4,567,310,564.1,308.1z M550.1,302.8
			c-1.7-1.7-2.8-1.9-2.8-0.4c0,3.2,2.8,6,4.4,4.4C552.4,306.2,551.7,304.4,550.1,302.8z M543.3,302.1c-0.8-2-8-10.4-16.2-18.6
			c-13.1-13.3-22.7-28.7-30.2-48.3c-2-5.4-3.1-5.8-8.5-3.7c-8.6,3.3-21.1,3-25-0.6c-1.8-1.6-0.6,1.9,2.5,7.8
			c8.9,16.6,43.8,50.2,61.9,59.4C545.6,306.9,545.2,306.8,543.3,302.1L543.3,302.1z M472.9,292.7c0-0.6-5.2-7.9-11.5-16.2
			c-16.8-22.2-29.3-52.5-29.3-70.9c0-3.1-1.1-5-2.4-4.2c-1.3,0.8-1.8,0-1.1-1.9c1.6-4.1-10.3-31.9-12.6-29.6
			c-0.9,0.9-0.3,2.9,1.2,4.4c3.7,3.7,3.6,12.1,0,15.8c-4,4-13.8,3.6-15.4-0.7c-0.8-2-2.5-2.9-3.8-2.1c-1.4,0.9-1.3-0.6,0.3-3.5
			c1.5-2.7,3.7-5.6,5-6.4c6-3.7,1.9-6.5-7.6-5.3c-6.8,0.9-12.3,3.7-17.3,8.7c-7.2,7.2-7.3,7.5-4.3,18.8c1.7,6.3,6.5,17.1,10.7,24.1
			c8.6,14.2,27.3,36.5,30.7,36.5c1.2,0,2.2-7.4,2.2-16.4s1.7-21.5,3.9-27.7c5.2-15.1,6.2-13.2,1.8,3.3c-2.3,8.7-3.1,18.9-2.3,29.9
			c1.5,19.2,1.8,19.6,30.3,34.7C468.7,293.2,472.9,294.9,472.9,292.7L472.9,292.7z M392.4,220.2c-3-3-3.6-6.3-2.5-13.6
			c2.2-13.6,6.2-19.9,4.5-7.1c-1,7.2-0.2,11.9,2.6,16.1c2.2,3.3,3.9,6.5,3.9,7.2C400.9,225.5,396.3,224.1,392.4,220.2L392.4,220.2z
			 M533.5,265.5c-7.5-32.3-13.7-49-21.5-58.3c-7-8.3-17.4-14.3-24.7-14.3c-4.3,0-4.6,0.7-2.3,5c1.5,2.8,2.2,5.4,1.7,6
			c-0.5,0.5-2.4-1.7-4.2-5c-3.9-7.4-8.8-7.6-16-0.8c-6.8,6.4-7.6,22.1-1.6,28.8c5.2,5.8,15.8,5.6,21.3-0.4c4.2-4.7,4.2-5-1-10.5
			c-4.5-4.8-4.8-5.9-1.6-7.1c5.6-2.1,10.9,0.7,10.9,5.9c0,3.4,1.7,4.5,6.9,4.5c7,0,10.3,2.6,13.1,10.2c1.4,3.9,1,4-5.5,0.6
			c-8.9-4.6-9.7-4.6-9.7,0.8c0,11.6,31,60.3,38.3,60.3C538.6,291.3,536.8,279.7,533.5,265.5L533.5,265.5z M615.9,261.1
			c0-11.7,0.9-14.2,6.6-19.2c7.7-6.6,14.1-7.3,19.4-1.9c3.4,3.4,3.8,3.3,3.8-1.3c0-6.4-16.3-14.3-29.7-14.4l-9.3-0.1l1.1,18.6
			c0.9,15.7,4.6,31.8,7.3,31.8C615.5,274.5,615.9,268.5,615.9,261.1L615.9,261.1z M480.2,263.2c-13.1-16.9-26.6-39.4-33.8-56.5
			c-5.9-13.9-8.4-17.8-9.9-15.1c-3.7,6.5,19.5,48.1,38.4,69.1C484.4,271.2,487.6,272.7,480.2,263.2z M467.7,193.6
			c3.5-2.2,6.8-4.3,7.4-4.7c1.7-1.2-17.4-19.9-20.3-19.9c-1.5,0-5.2,2.7-8.3,5.9l-5.6,5.9l6.8,18.6l6.8,18.6l3.4-10.2
			C460,201.8,464,196,467.7,193.6L467.7,193.6z M415.3,182.4c0-7.9-4.1-9.9-9.7-4.8c-3.5,3.2-4,5-2,7.4
			C408.2,190.5,415.3,189,415.3,182.4L415.3,182.4z M434.5,180.9c0-9.1-3.8-16.6-8.5-16.6c-4.6,0-4.4,5.1,0.5,15.5
			C431.5,190.2,434.5,190.6,434.5,180.9z M394.2,167.8c4.3-0.8,10.6-1.1,13.9-0.7c5,0.6,5.9-0.2,5.4-4.9
			c-0.8-7.6-26.7-60.3-29.6-60.3c-3.6,0-7.6,12.3-7.2,22c0.2,5-1.7,12.8-4.5,17.9c-5,9.3-6.1,20.6-3.4,34l1.5,7.5l8.1-7.1
			C382.8,172.5,389.9,168.6,394.2,167.8L394.2,167.8z M448.9,166.3c0-3.6-6.6-2.2-8.1,1.8c-2.7,7.2-1.5,8.9,3.3,4.6
			C446.7,170.2,448.9,167.4,448.9,166.3L448.9,166.3z M426.3,153.9c-4.3-21.2-32.6-64.9-39.4-60.7c-2.1,1.3-1.2,4.5,3.4,11.8
			c3.4,5.5,11.6,21,18.1,34.5c9.1,19,12.7,24.2,15.6,23C426.7,161.5,427.4,159.3,426.3,153.9z M445,149.5
			c2.5-5.4,7.6-13.3,11.4-17.6c3.8-4.3,6.9-8.3,6.9-8.9c0-0.6-3.1-0.6-6.9-0.1c-9,1.3-21.5-5.3-24.4-12.9
			c-1.3-3.3-2.3-10.6-2.3-16.3c0-8.2,1.1-10.8,5.4-13.1c7.9-4.1,21-7.5,21-5.4c0,2.5-9.6,11-16.2,14.4c-3.8,2-5.4,4.9-5.4,10
			c0,10.5,3.6,15.8,12.8,18.8c16.3,5.4,28-6,28-27.2c0-14.1-9.2-23.7-26.3-27.9c-17.7-4.2-33,0-47.5,13.2L390.1,87l9.3,9.2
			c8.6,8.5,32.5,52.7,32.6,60.2C432.1,163.4,440.7,158.8,445,149.5L445,149.5z M374.3,128.3c-0.1-2.4-0.8-2-2.2,1.2
			c-2.8,6.6-2.8,10.4,0,6C373.4,133.5,374.4,130.3,374.3,128.3z M685.6,1308.6c-3-15.8-3.9-35.9-1.8-42.6c2.1-6.7,2.3-6.4,2.6,4.8
			c0.2,6.6,1.7,19.3,3.4,28.2c2.5,13,2.5,16.2,0.1,16.2C688.2,1315.2,686.3,1312.2,685.6,1308.6L685.6,1308.6z M934.9,1308.9
			c2.8-4.3,3.7-8.9,2.8-14.6c-1.2-7.2-0.9-7.9,2.3-5.3c5,4.1,10.5,15.3,10.5,21.2c0,4.2-1.5,4.9-9.9,4.9h-9.9L934.9,1308.9z
			 M1029.6,1305c-7.4-27.9-27.4-52.2-52.2-63.6c-11.1-5.1-17.3-6.2-34.4-6.4c-26.9-0.2-29.4,1.7-48.5,36.3
			c-15,27.3-21.9,35.1-33.9,38c-6.6,1.6-6.6,1.6-3-4c2-3.1,5.3-15.8,7.3-28.1c4.1-25.8,10.6-36.7,24.7-41.3c5-1.6,23.4-3,42.6-3.2
			c30.1-0.3,35.3,0.3,47.5,5.2c18.8,7.6,35.4,23.2,45.7,42.9c10.8,20.6,14.8,34.3,10.1,34.3
			C1033.7,1315.2,1031.1,1310.7,1029.6,1305L1029.6,1305z M250.9,775.2c9-3.1,15-8.2,20.7-17.5c5.3-8.6,6-3.9,0.9,6
			c-4.8,9.2-12.7,14.5-21.5,14.2l-7.3-0.2L250.9,775.2L250.9,775.2z M168.1,772.6c-13.6-6.9-5.3-17,13.7-16.7
			c6.2,0.1,16.6,3.1,26.2,7.6c16.2,7.6,19.9,12,6,7.1c-6.1-2.1-9.6-1.9-17.2,1.2C185.3,776.4,176.2,776.7,168.1,772.6z M146.5,660.1
			c0-2.5-1.4-3.6-3.3-2.9c-3.9,1.5-20.8-14.7-20.8-19.9c0-2.9,0.7-3.1,3.4-0.8c2.3,1.9,4.9,2.1,7.8,0.6c2.4-1.2,8.4-2.9,13.3-3.6
			c5.7-0.9,11.2-3.9,14.9-8.1c8.3-9.4,8.1-1.9-0.3,10.3c-3.5,5.1-8.3,13.6-10.7,18.9C148.6,659.9,146.6,662.3,146.5,660.1z
			 M374,617.4c-2.7-6.6-5.9-12-7.1-12c-1.1,0-2.1,4.6-2.1,10.1v10.1l-6.1-8.9c-6.5-9.5-9.8-11.7-7.4-4.8c1,2.9,0,2.5-3.3-1.4
			l-4.8-5.6l-2.4,6.2c-1.3,3.4-2.9,6.2-3.6,6.2c-0.7,0-0.5-1.8,0.3-4c1-2.7,0.6-3.4-1.3-2.3c-1.7,1.1-2.8,0.2-2.8-2.1
			c0-2.1-1.1-3.2-2.4-2.4s-2.4,0.3-2.4-1.1c0-1.6-2.6-1.2-7.1,1.1c-10.1,5.2-13.6,4.5-7-1.3c5.4-4.8,4.3-4.9-6.3-0.8
			c-4.3,1.7-4.5,1.5-1.4-2.3c3.1-3.9,2.9-4.1-3.3-2.5c-6.4,1.6-6.5,1.4-3.7-3.8c2.4-4.6,2.3-5.8-0.9-7.6c-2.1-1.2-3.9-4.2-3.9-6.8
			c0-4.1,0.8-4.3,6.6-2.1c3.6,1.4,12.7,3.5,20.2,4.8c21.8,3.6,41.5-0.5,71-14.6c29.1-14,34.5-18.1,39.6-30.7
			c2-4.9,4.7-11.6,6.1-14.9c1.9-4.5,2.4,0.6,2.1,20.9c-0.3,22.4-1,26.8-4,26.4c-3.8-0.6-4.2,3.5-1.1,11.4c1.8,4.7,1.8,4.7-3.3,0.2
			c-6.2-5.4-6.8-2.4-1.2,5.7c4.4,6.3,5.1,6.2-7.7,1c-3.1-1.2-3.2-0.4-1.1,5.1l2.5,6.6l-6.1-4c-5.8-3.8-6.1-3.7-6.1,0.7
			c0,2.6,1.1,7.6,2.5,11.2c3.7,9.8,1.2,9.6-5.1-0.5c-3-4.9-6-7.6-6.5-6c-0.7,2.2-1.8,2.3-4.3,0.1c-4.1-3.4-4.4-0.4-1,8.6l2.4,6.3
			l-7.2-5.1c-5.4-3.8-6.8-4.2-5.7-1.4c1.9,5-1.4,4.8-5.2-0.4c-4.7-6.4-6.8-1.9-4,8.9C382.1,632.9,380.1,631.9,374,617.4L374,617.4z
			 M146.5,490.2c-3.3-1-9.5-1.9-13.9-2c-8.4-0.3-12.9-6.6-10.7-15.2c3.3-12.5,16.4-8.1,27,9.1C155,491.8,154.8,492.6,146.5,490.2z
			 M250.5,461.6c-12.9-5.2-9.2-11.5,19.9-32.9c38.9-28.7,58.4-35.5,95.4-33.6c48,2.5,113.1,29.1,139.4,57c6.9,7.3,6.1,7.1-19.9-5.9
			c-46.2-23-70.5-30.1-103.7-30.1c-34.8,0-56.2,7-85.8,27.9c-14.6,10.4-33,20-37.8,19.8C256.8,463.7,253.4,462.7,250.5,461.6
			L250.5,461.6z M755.9,273.1c-2.3-2.7-2.5-4.9-0.6-7.8c5.1-8.2,20-5.2,20,4c0,2.9-0.9,2.5-3.7-1.5c-2.1-2.9-5.9-5.3-8.5-5.3
			c-6.7,0-8.8,7.1-3.3,11.1c2.4,1.8,3.3,3.2,1.9,3.2C760.2,276.9,757.7,275.2,755.9,273.1z M767.5,249.7
			c-15.2-17.4-20.4-24.7-22-30.3l-1.6-6l3.6,6.3c4.2,7.4,10.7,10.5,14.3,6.9c1.8-1.8,1.6-3.2-1-4.8c-3.1-1.9-3-2.3,0.5-2.3
			c2.2,0,4.8,1.1,5.6,2.5c1.1,1.7,2.6,1.7,4.9-0.2c1.8-1.5,4.7-2.3,6.4-1.7c1.8,0.6-0.7,3.3-5.9,6.5c-5,3-9,5.7-9,6.2
			s3.6,0.2,7.9-0.5c5.8-0.9,8.9-0.1,11.4,2.9c3.3,3.9,2.7,4.1-7.9,2.9l-11.4-1.3l6,7.1c3.3,3.9,6,8.6,6,10.5
			C775.3,258.7,775.3,258.7,767.5,249.7z M533.1,195.7c-16.3-8.4-12.2-10.8,14.8-8.5c18.4,1.6,19,1.5,26.3-5.3l7.5-6.9l-7.9,10.2
			C559,204.6,553.3,206.1,533.1,195.7z M288.7,98.2c9.8-9.1,10.7-10.7,5.7-10.7c-6.7,0-15.9-9.8-15.9-16.8c0-12.7,10.5-18,21.1-10.7
			c6.3,4.4,6.5,5.8,1.7,12c-3.5,4.4-3.6,4.3-2.2-1.9c1.2-5.4,0.4-7-4.7-9.3c-7.6-3.5-13.5,0.4-13.5,9c0,8.5,8.1,15.3,18.2,15.3h8.6
			l-10.3,10.8c-5.7,5.9-12,10.8-14,10.7C281,106.6,282.9,103.6,288.7,98.2z M232.6,60.9c-4-4-4.8-6.9-3.7-13.8
			c1.5-9.5,13-21.9,20.2-21.9c2.9,0,1.9,1.4-3,4.4c-10.9,6.7-13.6,11.1-12.8,21.2c0.6,7.2,1.8,9.3,5.8,9.9c7.3,1,12.2-5.5,7.9-10.7
			c-2.8-3.4-2.8-3.8,0.3-2.8c5.6,1.8,5.6,8.4,0.1,13.8C241.2,67.2,238.9,67.2,232.6,60.9z"/>
	</g>
	<g id="layer3" inkscape:groupmode="layer" inkscape:label="Layer 1">
	</g>
</g>
<g id="Слой_2">
	<g>
		<path d="M298.7,882.1c-4.5-1.9-19.8-11.1-34-20.5c-14.2-9.4-30.5-19.1-36.2-21.6c-13.7-5.9-32.9-5.9-42.7,0.1
			c-5.4,3.3-10.2,4.2-16.8,3.4c-7.3-1-10.2-0.2-13.8,3.7c-10,11,1.4,33.1,28.9,55.7c24,19.9,31.7,36.8,19.4,43.1
			c-15.6,8-21.4,21.2-16.3,36.6c2.5,7.7,13,18,21.7,21.4c8.9,3.4,23.6,1.5,36.1-4.7c20.3-10.1,88.7-81,88.7-92
			C333.7,902.5,314.6,888.8,298.7,882.1z M246.5,972.4L246.5,972.4c-12.4,4.7-25.8,6.2-28.8,3.1c-0.9-0.9-1.6-3.5-1.6-5.8
			c0-3.3,2.7-4.6,11.4-5.8c6.3-0.8,17.9-3.7,25.8-6.3c24.1-8,27.6-9,27.6-7.1C280.9,953.7,259.1,967.6,246.5,972.4z M308.2,891.2
			c-0.8,1.3-3,1.7-4.9,1c-1.9-0.7-6.1,0.4-9.4,2.5c-3.9,2.6-8.7,3.4-14.1,2.6c-5.8-0.9-8.5-0.3-9.5,2.1c-1.7,4.5-9.7,7.4-24.7,9.1v0
			c-6.6,0.7-13.5,1.8-15.4,2.4c-6.4,2.1-16.2-3.6-20-11.6c-8.1-17-3.1-27,11.9-24.2c5.4,1,9.9,0.6,12-1.2c2.6-2.2,7.4-1.9,20.8,1.1
			C288.9,882.6,309.6,888.9,308.2,891.2z"/>
		<path class="st0" d="M298.7,882.1c-4.5-1.9-19.8-11.1-34-20.5c-14.2-9.4-30.5-19.1-36.2-21.6c-13.7-5.9-32.9-5.9-42.7,0.1
			c-5.4,3.3-10.2,4.2-16.8,3.4c-7.3-1-10.2-0.2-13.8,3.7c-10,11,1.4,33.1,28.9,55.7c24,19.9,31.7,36.8,19.4,43.1
			c-15.6,8-21.4,21.2-16.3,36.6c2.5,7.7,13,18,21.7,21.4c8.9,3.4,23.6,1.5,36.1-4.7c20.3-10.1,88.7-81,88.7-92
			C333.7,902.5,314.6,888.8,298.7,882.1z M246.5,972.4L246.5,972.4c-12.4,4.7-25.8,6.2-28.8,3.1c-0.9-0.9-1.6-3.5-1.6-5.8
			c0-3.3,2.7-4.6,11.4-5.8c6.3-0.8,17.9-3.7,25.8-6.3c24.1-8,27.6-9,27.6-7.1C280.9,953.7,259.1,967.6,246.5,972.4z M308.2,891.2
			c-0.8,1.3-3,1.7-4.9,1c-1.9-0.7-6.1,0.4-9.4,2.5c-3.9,2.6-8.7,3.4-14.1,2.6c-5.8-0.9-8.5-0.3-9.5,2.1c-1.7,4.5-9.7,7.4-24.7,9.1v0
			c-6.6,0.7-13.5,1.8-15.4,2.4c-6.4,2.1-16.2-3.6-20-11.6c-8.1-17-3.1-27,11.9-24.2c5.4,1,9.9,0.6,12-1.2c2.6-2.2,7.4-1.9,20.8,1.1
			C288.9,882.6,309.6,888.9,308.2,891.2z"/>
	</g>
</g>
</svg>
