<?xml version="1.0" encoding="UTF-8" standalone="no"?>
<svg
   xmlns:dc="http://purl.org/dc/elements/1.1/"
   xmlns:cc="http://creativecommons.org/ns#"
   xmlns:rdf="http://www.w3.org/1999/02/22-rdf-syntax-ns#"
   xmlns:svg="http://www.w3.org/2000/svg"
   xmlns="http://www.w3.org/2000/svg"
   xmlns:sodipodi="http://sodipodi.sourceforge.net/DTD/sodipodi-0.dtd"
   xmlns:inkscape="http://www.inkscape.org/namespaces/inkscape"
   width="210mm"
   height="210mm"
   viewBox="0 0 210 210"
   version="1.1"
   id="svg8"
   inkscape:version="1.0.2 (e86c870879, 2021-01-15, custom)"
   sodipodi:docname="зиг заг.svg">
  <defs
     id="defs2" />
  <sodipodi:namedview
     id="base"
     pagecolor="#ffffff"
     bordercolor="#666666"
     borderopacity="1.0"
     inkscape:pageopacity="0.0"
     inkscape:pageshadow="2"
     inkscape:zoom="0.35"
     inkscape:cx="400"
     inkscape:cy="560"
     inkscape:document-units="mm"
     inkscape:current-layer="layer1"
     inkscape:document-rotation="0"
     showgrid="false"
     inkscape:window-width="1423"
     inkscape:window-height="914"
     inkscape:window-x="238"
     inkscape:window-y="85"
     inkscape:window-maximized="0" />
  <metadata
     id="metadata5">
    <rdf:RDF>
      <cc:Work
         rdf:about="">
        <dc:format>image/svg+xml</dc:format>
        <dc:type
           rdf:resource="http://purl.org/dc/dcmitype/StillImage" />
        <dc:title></dc:title>
      </cc:Work>
    </rdf:RDF>
  </metadata>
  <g
     inkscape:label="Слой 1"
     inkscape:groupmode="layer"
     id="layer1">
    <path
       sodipodi:type="spiral"
       style="fill:none;fill-rule:evenodd;stroke:#000000;stroke-width:1.16767;stroke-miterlimit:4;stroke-dasharray:none"
       id="path833"
       sodipodi:cx="90.714287"
       sodipodi:cy="103.56547"
       sodipodi:expansion="1"
       sodipodi:revolution="3"
       sodipodi:radius="70.222237"
       sodipodi:argument="-17.528959"
       sodipodi:t0="0.11643278"
       d="m 83.102442,100.58058 c -0.360824,-6.697102 6.76304,-10.759264 12.733084,-10.074911 9.666214,1.10805 15.101954,11.323141 13.386514,20.317381 -2.40637,12.61686 -15.912273,19.50449 -27.901688,16.69812 C 65.750023,123.87663 57.38653,107.00909 61.310626,92.035186 66.165924,73.50792 86.427797,63.657683 104.38092,68.713853 c 21.48676,6.051357 32.82974,29.72532 26.63294,50.654597 -7.23866,24.44807 -34.335435,37.28749 -58.238899,29.94454 C 45.364283,140.89266 31.02597,110.36611 39.51881,83.489794 49.116983,53.115565 83.078108,37.27663 112.92631,46.922037 c 33.33849,10.77329 50.6793,48.172426 39.87936,80.991803 -6.84344,20.79618 -23.86409,37.16747 -44.70454,43.68735"
       transform="matrix(1.4131137,0,0,1.4388278,-29.678405,-48.832346)" />
  </g>
</svg>
