<?xml version="1.0" encoding="UTF-8" standalone="no"?>
<svg
   xmlns:dc="http://purl.org/dc/elements/1.1/"
   xmlns:cc="http://creativecommons.org/ns#"
   xmlns:rdf="http://www.w3.org/1999/02/22-rdf-syntax-ns#"
   xmlns:svg="http://www.w3.org/2000/svg"
   xmlns="http://www.w3.org/2000/svg"
   xmlns:sodipodi="http://sodipodi.sourceforge.net/DTD/sodipodi-0.dtd"
   xmlns:inkscape="http://www.inkscape.org/namespaces/inkscape"
   width="155mm"
   height="155mm"
   viewBox="0 0 155 155"
   version="1.1"
   id="svg8"
   inkscape:version="1.0.2 (e86c870879, 2021-01-15, custom)"
   sodipodi:docname="знак вперёд.svg">
  <defs
     id="defs2" />
  <sodipodi:namedview
     id="base"
     pagecolor="#ffffff"
     bordercolor="#666666"
     borderopacity="1.0"
     inkscape:pageopacity="0.0"
     inkscape:pageshadow="2"
     inkscape:zoom="0.7"
     inkscape:cx="342.76743"
     inkscape:cy="351.77399"
     inkscape:document-units="mm"
     inkscape:current-layer="layer1"
     inkscape:document-rotation="0"
     showgrid="false"
     inkscape:snap-global="false"
     inkscape:window-width="1609"
     inkscape:window-height="1040"
     inkscape:window-x="174"
     inkscape:window-y="48"
     inkscape:window-maximized="0" />
  <metadata
     id="metadata5">
    <rdf:RDF>
      <cc:Work
         rdf:about="">
        <dc:format>image/svg+xml</dc:format>
        <dc:type
           rdf:resource="http://purl.org/dc/dcmitype/StillImage" />
        <dc:title></dc:title>
      </cc:Work>
    </rdf:RDF>
  </metadata>
  <g
     inkscape:label="Слой 1"
     inkscape:groupmode="layer"
     id="layer1">
    <path
       style="fill:#000000;stroke-width:1"
       d="m 71.416138,151.72335 c -13.725534,-1.30868 -26.778514,-6.38996 -38.06324,-14.81731 -3.574261,-2.66924 -11.466558,-10.56153 -14.135791,-14.1358 -20.15952703,-26.994787 -20.15952703,-62.745125 0,-89.739918 2.669233,-3.574271 10.56153,-11.466563 14.135791,-14.135796 26.994798,-20.1595322 62.745134,-20.1595322 89.739942,0 3.57426,2.669233 11.46655,10.561525 14.13579,14.135796 20.15952,26.994793 20.15952,62.745131 0,89.739918 -2.66924,3.57427 -10.56153,11.46656 -14.13579,14.1358 -15.05542,11.24328 -33.548373,16.54578 -51.676702,14.81731 z m 13.765883,-12.4251 c 9.578422,-1.15938 19.188299,-4.6435 26.958889,-9.77412 15.30098,-10.10266 25.25478,-26.28115 27.47992,-44.664699 0.38213,-3.157068 0.38213,-10.761237 0,-13.918305 -1.15809,-9.567858 -4.64827,-19.200808 -9.75708,-26.929668 -10.15166,-15.357934 -26.26816,-25.280365 -44.681729,-27.509143 -3.157068,-0.382128 -10.761237,-0.382128 -13.918303,0 -9.567869,1.158096 -19.200817,4.648281 -26.92968,9.757093 -15.357937,10.151657 -25.280365,26.268165 -27.509139,44.681718 -0.382131,3.157068 -0.382131,10.761237 0,13.918305 2.228774,18.413559 12.151202,34.530069 27.509139,44.681719 7.557261,4.99539 17.298207,8.57021 26.5028,9.72625 2.88983,0.36294 11.449395,0.38135 14.345183,0.0309 z M 66.99578,109.95422 c -3.312563,-1.20137 -5.013341,-5.00996 -3.67954,-8.23969 0.302727,-0.73303 4.071006,-4.706867 11.80179,-12.445558 L 86.475087,77.900279 75.11803,66.531596 C 67.387246,58.792906 63.618967,54.819057 63.31624,54.086024 c -2.149607,-5.205171 3.230678,-10.330843 8.312659,-7.919277 0.531567,0.252248 7.297073,6.811188 15.034471,14.575429 13.010193,13.055317 14.09577,14.220299 14.43747,15.493211 0.40915,1.524175 0.28021,2.878469 -0.41318,4.339664 -0.25224,0.53157 -6.811181,7.294327 -14.575422,15.028354 -12.071469,12.024485 -14.289541,14.110805 -15.308998,14.399665 -1.4623,0.41432 -2.569513,0.40012 -3.80746,-0.0488 z"
       id="path881" />
  </g>
</svg>
