<?xml version="1.0" encoding="utf-8"?>
<!-- Generator: Adobe Illustrator 22.0.1, SVG Export Plug-In . SVG Version: 6.00 Build 0)  -->
<svg version="1.1"
	 id="svg8" inkscape:version="1.0.2 (e86c870879, 2021-01-15, custom)" sodipodi:docname="Р В·Р Р…Р В°РЎвЂЎР С•Р С” РЎвЂћР С•РЎвЂљР С•Р В°Р С—Р С—Р В°РЎР‚Р В°РЎвЂљР В° 1.svg" xmlns:cc="http://creativecommons.org/ns#" xmlns:dc="http://purl.org/dc/elements/1.1/" xmlns:inkscape="http://www.inkscape.org/namespaces/inkscape" xmlns:osb="http://www.openswatchbook.org/uri/2009/osb" xmlns:rdf="http://www.w3.org/1999/02/22-rdf-syntax-ns#" xmlns:sodipodi="http://sodipodi.sourceforge.net/DTD/sodipodi-0.dtd" xmlns:svg="http://www.w3.org/2000/svg"
	 xmlns="http://www.w3.org/2000/svg" xmlns:xlink="http://www.w3.org/1999/xlink" x="0px" y="0px" viewBox="0 0 237.2 186.3"
	 style="enable-background:new 0 0 237.2 186.3;" xml:space="preserve">
<style type="text/css">
	.st0{opacity:0.6772;enable-background:new    ;}
	.st1{fill:#FFFF00;fill-opacity:0;}
	.st2{fill:#030303;}
</style>
<sodipodi:namedview  bordercolor="#666666" borderopacity="1.0" id="base" inkscape:current-layer="layer1" inkscape:cx="684.71218" inkscape:cy="462.10977" inkscape:document-rotation="0" inkscape:document-units="mm" inkscape:object-nodes="true" inkscape:pageopacity="0.0" inkscape:pageshadow="2" inkscape:snap-global="true" inkscape:snap-grids="true" inkscape:snap-nodes="false" inkscape:snap-others="false" inkscape:window-height="914" inkscape:window-maximized="0" inkscape:window-width="1423" inkscape:window-x="152" inkscape:window-y="61" inkscape:zoom="1.8506098" pagecolor="#ffffff" showgrid="true" showguides="true">
	<inkscape:grid  dotted="true" enabled="false" id="grid899" originx="105" originy="148.5" type="xygrid"></inkscape:grid>
	<sodipodi:guide  id="guide901" orientation="0,793.70079" position="0,297"></sodipodi:guide>
	<sodipodi:guide  id="guide903" orientation="1122.5197,0" position="281.85477,103.04822"></sodipodi:guide>
	<sodipodi:guide  id="guide905" orientation="0,-793.70079" position="210,0"></sodipodi:guide>
	<sodipodi:guide  id="guide907" orientation="-1122.5197,0" position="0,0"></sodipodi:guide>
	<sodipodi:guide  id="guide909" orientation="0,793.70079" position="0,297"></sodipodi:guide>
	<sodipodi:guide  id="guide911" orientation="1122.5197,0" position="281.85477,162.15135"></sodipodi:guide>
	<sodipodi:guide  id="guide913" orientation="0,-793.70079" position="210,0"></sodipodi:guide>
	<sodipodi:guide  id="guide915" orientation="-1122.5197,0" position="0,0"></sodipodi:guide>
</sodipodi:namedview>
<g id="layer5" inkscape:groupmode="layer" inkscape:label="Р РЋР В»Р С•Р в„– 4">
</g>
<g id="layer1" inkscape:groupmode="layer" inkscape:label="Р РЋР В»Р С•Р в„– 1">
	<g id="rect919_1_" class="st0">
		<rect x="-168.3" y="-284.4" class="st1" width="167.6" height="157.5"/>
	</g>
	<path id="path2183_1_" class="st2" d="M91,11.4c-12.5,3.6-17.4,19.4-28.5,25c-3.2,1.6-7.8,0.8-11.3,0.8c-11.5,0-30.1-3.6-38.6,6.1
		C6,50.8,8.5,63.9,8.5,73.2v73.5c0,10.1-2.1,21.9,6.8,29c5,4,11.2,3.3,17.2,3.3h33h102.8c14.3,0,33.5,3.4,47.3-0.6
		c13-3.8,12-17.2,12-27.9V79.2c0-9.2,2.5-23-1.4-31.5c-8.7-18.6-35.1-6.9-50.3-10.7c-10.5-2.6-17-18.3-26.3-23.8
		c-5-3-10.9-2.2-16.5-2.2C120.3,10.9,103.2,7.9,91,11.4 M205.7,51c9.4-1.4,11,13.6,1.5,14.5C198,66.4,196.5,52.3,205.7,51
		 M111.2,55.4c50.7-6.6,77.1,63.4,32.3,90.2c-6.3,3.7-13,6-20.3,6.9c-50.6,6.2-73.3-62.9-31.5-90C97.6,58.7,104.3,56.3,111.2,55.4
		 M111.2,67.5c-5.1,0.9-10,3-14.3,5.9c-31.7,21.4-10.8,73.6,27,66.8c5.4-1,10.5-2.9,15-5.9C171.3,112.5,149,60.7,111.2,67.5
		L111.2,67.5z"/>
</g>
<g id="layer3" inkscape:groupmode="layer" inkscape:label="Р РЋР В»Р С•Р в„– 3">
</g>
<g id="layer2" inkscape:groupmode="layer" inkscape:label="Р РЋР В»Р С•Р в„– 2">
</g>
</svg>
