<?xml version="1.0" encoding="utf-8"?>
<!-- Generator: Adobe Illustrator 22.0.1, SVG Export Plug-In . SVG Version: 6.00 Build 0)  -->
<svg version="1.1" xmlns="http://www.w3.org/2000/svg" xmlns:xlink="http://www.w3.org/1999/xlink" x="0px" y="0px"
	 viewBox="0 0 237.2 186.3" style="enable-background:new 0 0 237.2 186.3;" xml:space="preserve">
<style type="text/css">
	.st0{display:none;}
	.st1{display:inline;fill:#FF0000;stroke:#000000;stroke-miterlimit:10;}
	.st2{opacity:0.6772;enable-background:new    ;}
	.st3{fill:#FFFF00;fill-opacity:0;}
	.st4{enable-background:new    ;}
	.st5{fill:#A03232;}
	.st6{fill:#FFFF00;}
</style>
<g id="Слой_2" class="st0">
	<rect x="-45.5" y="-19" class="st1" width="297.5" height="207.5"/>
</g>
<g id="Слой_1">
	<g id="Слой_3">
	</g>
	
		<g id="svg8" inkscape:version="1.0.2 (e86c870879, 2021-01-15, custom)" sodipodi:docname="Р В Р’В·Р В Р вЂ¦Р В Р’В°Р РЋРІР‚РЋР В РЎвЂўР В РЎвЂќ Р РЋРІР‚С›Р В РЎвЂўР РЋРІР‚С™Р В РЎвЂўР В Р’В°Р В РЎвЂ”Р В РЎвЂ”Р В Р’В°Р РЋР вЂљР В Р’В°Р РЋРІР‚С™Р В Р’В° 1.svg" xmlns:cc="http://creativecommons.org/ns#" xmlns:dc="http://purl.org/dc/elements/1.1/" xmlns:inkscape="http://www.inkscape.org/namespaces/inkscape" xmlns:osb="http://www.openswatchbook.org/uri/2009/osb" xmlns:rdf="http://www.w3.org/1999/02/22-rdf-syntax-ns#" xmlns:sodipodi="http://sodipodi.sourceforge.net/DTD/sodipodi-0.dtd" xmlns:svg="http://www.w3.org/2000/svg">
		<g id="rect919_1_" class="st2">
			<rect x="-178" y="-298.8" class="st3" width="167.6" height="157.5"/>
		</g>
	</g>
	<g id="Слой_4" class="st4">
		<g>
			<g>
				<g>
					<g>
						<g id="Слой_2_10_">
							<g>
								<g>
									<g>
										<ellipse class="st5" cx="117.3" cy="97" rx="15.4" ry="15.4"/>
									</g>
								</g>
							</g>
							<g>
								<g>
									<g>
										<ellipse class="st5" cx="117.3" cy="97" rx="15.4" ry="15.4"/>
									</g>
									<g>
										<path class="st5" d="M132.3,93.4c-2.4,8.1-3.2,16.6-11.4,18.5c-8.3,2-16.6-3.2-18.5-11.4c-2-8.3,5.1-12.9,11.4-18.5"/>
									</g>
								</g>
							</g>
						</g>
					</g>
				</g>
			</g>
		</g>
		<g>
			<g>
				<g>
					<g>
						<g id="Слой_2_13_">
							<g>
								<g>
									<g>
										<ellipse class="st6" cx="117.3" cy="97" rx="15.4" ry="15.4"/>
									</g>
								</g>
							</g>
							<g>
								<g>
									<g>
										<ellipse class="st6" cx="117.3" cy="97" rx="15.4" ry="15.4"/>
									</g>
									<g>
										<path class="st6" d="M132.3,93.4c-2.4,8.1-3.2,16.6-11.4,18.5c-8.3,2-16.6-3.2-18.5-11.4c-2-8.3,5.1-12.9,11.4-18.5"/>
									</g>
								</g>
							</g>
						</g>
					</g>
				</g>
				<g>
					<g>
						<g id="Слой_2_12_">
							<g>
								<g>
									<g>
										<ellipse class="st6" cx="117.3" cy="97" rx="15.4" ry="15.4"/>
									</g>
								</g>
							</g>
							<g>
								<g>
									<g>
										<ellipse class="st6" cx="117.3" cy="97" rx="15.4" ry="15.4"/>
									</g>
									<g>
										<path class="st6" d="M132.3,93.4c-2.4,8.1-3.2,16.6-11.4,18.5c-8.3,2-16.6-3.2-18.5-11.4c-2-8.3,5.1-12.9,11.4-18.5"/>
									</g>
								</g>
							</g>
						</g>
					</g>
				</g>
				<g>
					<g>
						<g id="Слой_2_11_">
							<g>
								<g>
									<g>
										<ellipse class="st6" cx="117.3" cy="97" rx="15.4" ry="15.4"/>
									</g>
								</g>
							</g>
							<g>
								<g>
									<g>
										<ellipse class="st6" cx="117.3" cy="97" rx="15.4" ry="15.4"/>
									</g>
									<g>
										<path class="st6" d="M132.3,93.4c-2.4,8.1-3.2,16.6-11.4,18.5c-8.3,2-16.6-3.2-18.5-11.4c-2-8.3,5.1-12.9,11.4-18.5"/>
									</g>
								</g>
							</g>
						</g>
					</g>
				</g>
			</g>
		</g>
	</g>
	<g id="Слой_5">
		<g>
			<path d="M93.4,3.6L93.4,3.6L93.4,3.6z"/>
			<path d="M93.4,3.6c-1.3,0.2-2.4,0.5-3.5,0.8L93.4,3.6z"/>
			<path class="st6" d="M223.8,39.7c-9.2-14.1-36.7-8.2-49.8-10.8c-10.5-2.6-15.6-16.1-24.5-22.3c-4.4-3.1-10.6-3.9-16.2-4
				c-6.7-0.1-27-1.3-39.8,1.1c-14.8,3.7-21.3,21.1-34,23.7c-4.3,0.9-9.1,1-21.7,1.7c-8.2,0.4-18.8-0.6-26.3,7.3
				c-6.6,7.5-4.6,22-4.6,31.3l0.5,72.1c0,10.1-1.8,23.3,6.8,29c5.7,3.8,12.8,3.4,17.2,3.3h33h102.8c14.3,0,37.1,1.3,47.3-0.6
				c13-3.8,12-17.2,12-27.9l1.2-69.7C227.7,64.6,229.4,48.3,223.8,39.7z M142.6,138.6c-6.3,3.7-13,6-20.3,6.9
				c-50.6,6.2-73.3-62.9-31.5-90c5.9-3.8,12.6-6.2,19.5-7.1C161,41.8,187.4,111.8,142.6,138.6z M202.8,60.1
				c-3.8-0.6-6.9-3.7-7.5-7.5c-1-6.3,4.3-11.6,10.6-10.6c3.8,0.6,6.9,3.7,7.5,7.5C214.4,55.8,209,61.1,202.8,60.1z"/>
		</g>
	</g>
</g>
</svg>
