<?xml version="1.0" encoding="UTF-8" standalone="no"?>
<svg
   xmlns:dc="http://purl.org/dc/elements/1.1/"
   xmlns:cc="http://creativecommons.org/ns#"
   xmlns:rdf="http://www.w3.org/1999/02/22-rdf-syntax-ns#"
   xmlns:svg="http://www.w3.org/2000/svg"
   xmlns="http://www.w3.org/2000/svg"
   xmlns:sodipodi="http://sodipodi.sourceforge.net/DTD/sodipodi-0.dtd"
   xmlns:inkscape="http://www.inkscape.org/namespaces/inkscape"
   width="270mm"
   height="280mm"
   viewBox="0 0 270 280"
   version="1.1"
   id="svg108"
   inkscape:version="1.0.2 (e86c870879, 2021-01-15, custom)"
   sodipodi:docname="инстагр.svg">
  <defs
     id="defs102">
    <path
       id="SVGID_1_"
       d="m 71.6,5 h 58.9 C 184.3,5 197,17.8 197,71.6 v 58.9 c 0,53.8 -12.8,66.5 -66.6,66.5 H 71.5 C 17.7,197 5,184.2 5,130.4 V 71.5 C 5,17.8 17.8,5 71.6,5 Z" />
    <path
       id="SVGID_1_-3"
       d="m 71.6,5 h 58.9 C 184.3,5 197,17.8 197,71.6 v 58.9 c 0,53.8 -12.8,66.5 -66.6,66.5 H 71.5 C 17.7,197 5,184.2 5,130.4 V 71.5 C 5,17.8 17.8,5 71.6,5 Z" />
    <radialGradient
       id="0"
       cx="332.14"
       cy="2511.81"
       r="3263.54"
       gradientUnits="userSpaceOnUse">
      <stop
         offset=".09"
         stop-color="#fa8f21"
         id="stop178" />
      <stop
         offset=".78"
         stop-color="#d82d7e"
         id="stop180" />
    </radialGradient>
    <radialGradient
       id="1"
       cx="1516.14"
       cy="2623.81"
       r="2572.12"
       gradientUnits="userSpaceOnUse">
      <stop
         offset=".64"
         stop-color="#8c3aaa"
         stop-opacity="0"
         id="stop183" />
      <stop
         offset="1"
         stop-color="#8c3aaa"
         id="stop185" />
    </radialGradient>
  </defs>
  <sodipodi:namedview
     id="base"
     pagecolor="#ffffff"
     bordercolor="#666666"
     borderopacity="1.0"
     inkscape:pageopacity="0.0"
     inkscape:pageshadow="2"
     inkscape:zoom="0.35"
     inkscape:cx="408.43238"
     inkscape:cy="637.06925"
     inkscape:document-units="mm"
     inkscape:current-layer="layer1"
     inkscape:document-rotation="0"
     showgrid="false"
     inkscape:window-width="1379"
     inkscape:window-height="774"
     inkscape:window-x="10"
     inkscape:window-y="252"
     inkscape:window-maximized="0" />
  <metadata
     id="metadata105">
    <rdf:RDF>
      <cc:Work
         rdf:about="">
        <dc:format>image/svg+xml</dc:format>
        <dc:type
           rdf:resource="http://purl.org/dc/dcmitype/StillImage" />
        <dc:title></dc:title>
      </cc:Work>
    </rdf:RDF>
  </metadata>
  <g
     inkscape:label="Слой 1"
     inkscape:groupmode="layer"
     id="layer1">
    <g
       id="g208"
       transform="matrix(0.09741003,0,0,0.09741003,13.242399,20.680285)"
       style="stroke-width:2.71618">
      <path
         d="m 833.4,1250 c 0,-230.11 186.49,-416.7 416.6,-416.7 230.11,0 416.7,186.59 416.7,416.7 0,230.11 -186.59,416.7 -416.7,416.7 -230.11,0 -416.6,-186.59 -416.6,-416.7 m -225.26,0 c 0,354.5 287.36,641.86 641.86,641.86 354.5,0 641.86,-287.36 641.86,-641.86 C 1891.86,895.5 1604.5,608.14 1250,608.14 895.5,608.14 608.14,895.5 608.14,1250 M 1767.27,582.69 a 150,150 0 1 0 150.06,-149.94 h -0.06 a 150.07,150.07 0 0 0 -150,149.94 M 745,2267.47 c -121.87,-5.55 -188.11,-25.85 -232.13,-43 -58.36,-22.72 -100,-49.78 -143.78,-93.5 -43.78,-43.72 -70.88,-85.32 -93.5,-143.68 -17.16,-44 -37.46,-110.26 -43,-232.13 -6.06,-131.76 -7.27,-171.34 -7.27,-505.15 0,-333.81 1.31,-373.28 7.27,-505.15 5.55,-121.87 26,-188 43,-232.13 22.72,-58.36 49.78,-100 93.5,-143.78 43.72,-43.78 85.32,-70.88 143.78,-93.5 44,-17.16 110.26,-37.46 232.13,-43 131.76,-6.06 171.34,-7.27 505,-7.27 333.66,0 373.28,1.31 505.15,7.27 121.87,5.55 188,26 232.13,43 58.36,22.62 100,49.78 143.78,93.5 43.78,43.72 70.78,85.42 93.5,143.78 17.16,44 37.46,110.26 43,232.13 6.06,131.87 7.27,171.34 7.27,505.15 0,333.81 -1.21,373.28 -7.27,505.15 -5.55,121.87 -25.95,188.11 -43,232.13 -22.72,58.36 -49.78,100 -93.5,143.68 -43.72,43.68 -85.42,70.78 -143.78,93.5 -44,17.16 -110.26,37.46 -232.13,43 -131.76,6.06 -171.34,7.27 -505.15,7.27 -333.81,0 -373.28,-1.21 -505,-7.27 M 734.65,7.57 C 601.58,13.63 510.65,34.73 431.24,65.63 349,97.54 279.38,140.35 209.81,209.81 140.24,279.27 97.54,349 65.63,431.24 34.73,510.7 13.63,601.58 7.57,734.65 1.41,867.93 0,910.54 0,1250 c 0,339.46 1.41,382.07 7.57,515.35 6.06,133.08 27.16,223.95 58.06,303.41 31.91,82.19 74.62,152 144.18,221.43 69.56,69.43 139.19,112.18 221.43,144.18 79.56,30.9 170.34,52 303.41,58.06 133.35,6.06 175.89,7.57 515.35,7.57 339.46,0 382.07,-1.41 515.35,-7.57 133.08,-6.06 223.95,-27.16 303.41,-58.06 82.19,-32 151.86,-74.72 221.43,-144.18 69.57,-69.46 112.18,-139.24 144.18,-221.43 30.9,-79.46 52.1,-170.34 58.06,-303.41 6.06,-133.38 7.47,-175.89 7.47,-515.35 0,-339.46 -1.41,-382.07 -7.47,-515.35 -6.06,-133.08 -27.16,-224 -58.06,-303.41 -32,-82.19 -74.72,-151.86 -144.18,-221.43 C 2220.73,140.24 2150.95,97.54 2068.86,65.63 1989.3,34.73 1898.42,13.53 1765.45,7.57 1632.17,1.51 1589.56,0 1250.1,0 910.64,0 868,1.41 734.65,7.57"
         fill="url(#0)"
         id="path190"
         style="fill:url(#0);stroke-width:2.71618" />
      <path
         d="m 833.4,1250 c 0,-230.11 186.49,-416.7 416.6,-416.7 230.11,0 416.7,186.59 416.7,416.7 0,230.11 -186.59,416.7 -416.7,416.7 -230.11,0 -416.6,-186.59 -416.6,-416.7 m -225.26,0 c 0,354.5 287.36,641.86 641.86,641.86 354.5,0 641.86,-287.36 641.86,-641.86 C 1891.86,895.5 1604.5,608.14 1250,608.14 895.5,608.14 608.14,895.5 608.14,1250 M 1767.27,582.69 a 150,150 0 1 0 150.06,-149.94 h -0.06 a 150.07,150.07 0 0 0 -150,149.94 M 745,2267.47 c -121.87,-5.55 -188.11,-25.85 -232.13,-43 -58.36,-22.72 -100,-49.78 -143.78,-93.5 -43.78,-43.72 -70.88,-85.32 -93.5,-143.68 -17.16,-44 -37.46,-110.26 -43,-232.13 -6.06,-131.76 -7.27,-171.34 -7.27,-505.15 0,-333.81 1.31,-373.28 7.27,-505.15 5.55,-121.87 26,-188 43,-232.13 22.72,-58.36 49.78,-100 93.5,-143.78 43.72,-43.78 85.32,-70.88 143.78,-93.5 44,-17.16 110.26,-37.46 232.13,-43 131.76,-6.06 171.34,-7.27 505,-7.27 333.66,0 373.28,1.31 505.15,7.27 121.87,5.55 188,26 232.13,43 58.36,22.62 100,49.78 143.78,93.5 43.78,43.72 70.78,85.42 93.5,143.78 17.16,44 37.46,110.26 43,232.13 6.06,131.87 7.27,171.34 7.27,505.15 0,333.81 -1.21,373.28 -7.27,505.15 -5.55,121.87 -25.95,188.11 -43,232.13 -22.72,58.36 -49.78,100 -93.5,143.68 -43.72,43.68 -85.42,70.78 -143.78,93.5 -44,17.16 -110.26,37.46 -232.13,43 -131.76,6.06 -171.34,7.27 -505.15,7.27 -333.81,0 -373.28,-1.21 -505,-7.27 M 734.65,7.57 C 601.58,13.63 510.65,34.73 431.24,65.63 349,97.54 279.38,140.35 209.81,209.81 140.24,279.27 97.54,349 65.63,431.24 34.73,510.7 13.63,601.58 7.57,734.65 1.41,867.93 0,910.54 0,1250 c 0,339.46 1.41,382.07 7.57,515.35 6.06,133.08 27.16,223.95 58.06,303.41 31.91,82.19 74.62,152 144.18,221.43 69.56,69.43 139.19,112.18 221.43,144.18 79.56,30.9 170.34,52 303.41,58.06 133.35,6.06 175.89,7.57 515.35,7.57 339.46,0 382.07,-1.41 515.35,-7.57 133.08,-6.06 223.95,-27.16 303.41,-58.06 82.19,-32 151.86,-74.72 221.43,-144.18 69.57,-69.46 112.18,-139.24 144.18,-221.43 30.9,-79.46 52.1,-170.34 58.06,-303.41 6.06,-133.38 7.47,-175.89 7.47,-515.35 0,-339.46 -1.41,-382.07 -7.47,-515.35 -6.06,-133.08 -27.16,-224 -58.06,-303.41 -32,-82.19 -74.72,-151.86 -144.18,-221.43 C 2220.73,140.24 2150.95,97.54 2068.86,65.63 1989.3,34.73 1898.42,13.53 1765.45,7.57 1632.17,1.51 1589.56,0 1250.1,0 910.64,0 868,1.41 734.65,7.57"
         fill="url(#1)"
         id="path192"
         style="fill:url(#1);stroke-width:2.71618" />
    </g>
  </g>
  <style
     id="style110">.st0{clip-path:url(#SVGID_2_);fill:#5181b8}.st1{fill-rule:evenodd;clip-rule:evenodd;fill:#fff}</style>
  <style
     id="style144">.st0{clip-path:url(#SVGID_2_);fill:#5181b8}.st1{fill-rule:evenodd;clip-rule:evenodd;fill:#fff}</style>
</svg>
