<?xml version="1.0" encoding="UTF-8" standalone="no"?>
<svg
   xmlns:dc="http://purl.org/dc/elements/1.1/"
   xmlns:cc="http://creativecommons.org/ns#"
   xmlns:rdf="http://www.w3.org/1999/02/22-rdf-syntax-ns#"
   xmlns:svg="http://www.w3.org/2000/svg"
   xmlns="http://www.w3.org/2000/svg"
   xmlns:xlink="http://www.w3.org/1999/xlink"
   xmlns:sodipodi="http://sodipodi.sourceforge.net/DTD/sodipodi-0.dtd"
   xmlns:inkscape="http://www.inkscape.org/namespaces/inkscape"
   width="308mm"
   height="83mm"
   viewBox="0 0 308 83"
   version="1.1"
   id="svg8"
   sodipodi:docname="кисть мазок 3.svg"
   inkscape:version="1.0.2 (e86c870879, 2021-01-15, custom)">
  <defs
     id="defs2">
    <linearGradient
       inkscape:collect="always"
       id="linearGradient1267">
      <stop
         style="stop-color:#000000;stop-opacity:1;"
         offset="0"
         id="stop1263" />
      <stop
         style="stop-color:#000000;stop-opacity:0;"
         offset="1"
         id="stop1265" />
    </linearGradient>
    <linearGradient
       inkscape:collect="always"
       id="linearGradient1257">
      <stop
         style="stop-color:#9e0024;stop-opacity:1;"
         offset="0"
         id="stop1253" />
      <stop
         style="stop-color:#9e0024;stop-opacity:0;"
         offset="1"
         id="stop1255" />
    </linearGradient>
    <filter
       style="color-interpolation-filters:sRGB"
       inkscape:label="Drop Shadow"
       id="filter1223">
      <feFlood
         flood-opacity="1"
         flood-color="rgb(124,50,0)"
         result="flood"
         id="feFlood1213" />
      <feComposite
         in="flood"
         in2="SourceGraphic"
         operator="in"
         result="composite1"
         id="feComposite1215" />
      <feGaussianBlur
         in="composite1"
         stdDeviation="1"
         result="blur"
         id="feGaussianBlur1217" />
      <feOffset
         dx="0"
         dy="0"
         result="offset"
         id="feOffset1219" />
      <feComposite
         in="SourceGraphic"
         in2="offset"
         operator="over"
         result="composite2"
         id="feComposite1221" />
    </filter>
    <linearGradient
       inkscape:collect="always"
       xlink:href="#linearGradient1257"
       id="linearGradient1261"
       x1="318.07568"
       y1="38.077423"
       x2="-70.264351"
       y2="36.32782"
       gradientUnits="userSpaceOnUse" />
    <linearGradient
       inkscape:collect="always"
       xlink:href="#linearGradient1267"
       id="linearGradient1269"
       x1="256.78787"
       y1="93.338211"
       x2="218.38795"
       y2="16.250906"
       gradientUnits="userSpaceOnUse" />
  </defs>
  <sodipodi:namedview
     id="base"
     pagecolor="#ffffff"
     bordercolor="#666666"
     borderopacity="1.0"
     inkscape:pageopacity="0.0"
     inkscape:pageshadow="2"
     inkscape:zoom="0.28495013"
     inkscape:cx="395.01492"
     inkscape:cy="-21.380096"
     inkscape:document-units="mm"
     inkscape:current-layer="layer1"
     inkscape:document-rotation="0"
     showgrid="false"
     inkscape:window-width="1609"
     inkscape:window-height="955"
     inkscape:window-x="290"
     inkscape:window-y="41"
     inkscape:window-maximized="0" />
  <metadata
     id="metadata5">
    <rdf:RDF>
      <cc:Work
         rdf:about="">
        <dc:format>image/svg+xml</dc:format>
        <dc:type
           rdf:resource="http://purl.org/dc/dcmitype/StillImage" />
        <dc:title />
      </cc:Work>
    </rdf:RDF>
  </metadata>
  <g
     inkscape:label="Слой 1"
     inkscape:groupmode="layer"
     id="layer1">
    <path
       style="fill:url(#linearGradient1261);fill-opacity:1;stroke:url(#linearGradient1269);stroke-width:0.993942;filter:url(#filter1223)"
       d="M 9.3447477,22.925058 8.0974657,25.7413 6.8501844,26.09334 v 2.464214 l 10.8097766,0.704067 v 0.352027 l -9.9782563,1.408121 4.5733693,1.408134 v 0.352027 l -2.9103263,0.704066 v 0.352027 C 10.571241,33.491985 10.850633,33.31456 10.59203,34.19005 h 1.663044 v 0.35204 l -4.1576083,0.352027 v 0.352027 l 1.663043,0.352041 v 0.352026 l -1.247282,0.704068 4.5733683,1.40812 4.989128,1.40812 v -0.704054 l 5.820649,2.464215 c -3.277026,3.59e-4 -12.881928,-0.218257 -14.9673833,2.112188 4.0582393,0.209808 8.0520353,1.223658 12.0570573,1.394044 2.531566,0.10777 6.035598,-0.189386 7.899453,1.42221 1.480106,-0.04817 2.0418,0.201705 2.494564,1.40812 l -14.135862,1.760162 v 0.352027 l 32.013562,0.383719 11.641304,1.376442 v 0.352026 l -1.247278,0.35204 v 0.352027 l 3.741845,0.704067 v 0.352027 l -2.078807,-0.352027 0.415769,1.056095 -2.494567,0.352026 V 54.9599 l 26.608672,1.821059 11.603906,1.091644 12.925993,2.367766 4.15759,2.464228 1.66304,0.704053 -13.72008,1.408134 2.49455,1.408121 7.06793,0.221783 13.30435,1.186338 4.57335,1.408133 -7.48369,0.704054 0.41579,0.704067 -9.56252,1.056094 v 0.352027 l 15.38313,0.06627 8.31522,2.933472 c 0,0 8.87131,-0.229459 13.30435,-0.415744 9.20272,-0.416572 14.29068,-1.169439 21.87929,-1.011553 8.14391,0.563102 18.10917,-0.173746 18.10917,-0.173746 l 21.2038,-1.750649 v -0.704067 l -1.66305,-1.056093 0.83151,-0.704054 1.66307,0.352026 c 1.49672,-1.598929 2.98138,-1.37362 4.98746,-2.157252 4.3056,-1.682006 8.57921,-3.972323 13.72175,-3.123217 l 7.48369,-3.168281 h -2.91033 v -0.704067 c 3.77345,-0.137642 7.43629,-1.169441 11.22554,-1.334544 2.00148,-0.08728 3.85204,0.628375 5.57327,-0.606553 3.27954,-2.352624 1.68385,-5.743741 6.06805,-7.817916 3.03047,-1.433825 10.12167,-0.31718 11.22552,-3.61818 -1.87966,0 -5.26935,-0.810721 -4.98913,-1.760147 l -2.49456,0.704053 V 44.75106 h -2.49456 v -0.704053 c 2.4322,-0.470669 4.99744,-1.240916 7.48369,-1.389121 0.89179,-0.05322 2.71242,0.22918 3.25458,-0.58331 0.9762,-1.463404 -1.9308,-2.872229 -3.25624,-2.921512 -2.47878,-0.09193 -4.99578,0.643516 -7.4837,0.599861 -4.2524,-0.07425 -8.62621,-0.667451 -12.88692,-0.282334 2.14824,-1.635531 5.50094,-2.09211 8.31521,-2.112188 v -0.352026 h -4.1576 V 36.65435 l 4.98913,-0.35204 v -0.352027 h -0.83153 v -0.352027 c 3.26581,0.008 9.48974,1.620749 11.6413,-1.056094 l 15.38315,-2.464228 v -0.352026 h -1.66304 v -0.35203 l 2.49457,-0.352041 c -0.27192,-1.075092 -0.83404,-1.033555 -2.07881,-1.056094 v -0.352027 c 1.02193,-0.173192 2.44674,-0.207346 4.1576,-0.352026 1.94327,-0.164398 12.12524,-0.641399 12.47282,-2.112188 l 1.66306,-0.35204 h 3.74184 v -0.352026 l -14.96739,-1.056095 -5.40489,-2.112187 5.82065,-0.704068 4.98913,-1.760147 h -4.57336 v -0.35204 h 1.24727 v -0.352028 c -12.36347,0 -25.13316,-3.34605 -37.41845,-1.408119 v -0.35204 l 1.24727,-0.352027 v -0.35203 l -6.65216,0.352028 c -0.21828,-1.469738 -2.29416,-0.982877 -3.74185,-1.147274 -3.5348,-0.402014 -6.811,-0.612888 -10.39403,-0.612888 -7.76639,0 -15.86998,-1.927366 -23.69834,-2.351919 -6.56528,-0.355899 -12.6778,1.07194 -19.12499,-0.816362 0.70887,-1.676726 -0.72884,-1.997777 -2.49457,-1.760149 l 4.57337,-1.4081276 2.91032,-1.4081208 c -3.42671,-1.1838765 -9.59907,0.1150889 -13.30267,0.3252704 -7.09912,0.4034374 -24.92504,0.026343 -32.09068,0.026736 -21.90641,0.00103 -43.63198,2.534274 -65.2744,5.174861 -8.302348,1.012799 -16.691563,1.33807 -24.945651,2.629679 -5.517566,0.863182 -10.423536,3.232705 -15.798909,4.381734 -5.24274,1.120159 -11.638385,0.124935 -17.046186,0.345335 -5.620252,0.228822 -11.907383,2.098816 -17.4619463,1.549648 M 191.1076,9.3131075 l 0.13844,0.1176176 c -0.20498,0.057743 -0.45985,-0.1176176 -0.13844,-0.1176176 m 0.41576,2.6990315 0.41575,0.352026 -0.41575,-0.352026 m 102.27711,8.800778 0.83152,0.704068 -0.83152,-0.704068 m 1.24727,0.352027 0.41577,0.352041 -0.41577,-0.352041 m -283.208427,9.856885 -1.247283,0.704054 1.247283,-0.704054 m 0.83152,1.056094 -0.415759,0.352027 0.415759,-0.352027 m -2.078803,3.872335 -0.41576,0.352041 0.41576,-0.352041 m -3.8802942,6.80582 0.2768972,0.117617 -0.2768972,-0.117617 m 256.3224442,2.346997 0.41577,0.352027 -0.41577,-0.352027 m -230.406834,1.408128 -0.415763,0.352039 0.415763,-0.352039 m 25.361393,8.096723 0.415771,0.352028 -0.415771,-0.352028 m 177.189491,5.28047 v 0.704066 h -1.66306 v -0.704133 h 1.66306 m 4.15759,1.056093 0.41577,0.352027 -0.41577,-0.352027 m -122.30906,1.760162 0.41576,0.704053 z"
       id="path863"
       sodipodi:nodetypes="ccccccccccccccccccccccccccccccccccccccccccccccccccccccccccccccccccccccccccccccccccccccccccccccccccccccccccccccccccccccscccccccccccccccccccccccccccccccccccccccccccccccccccccccc"
       transform="matrix(1,0,0,1.0122263,-0.8378071,-2.6184999)" />
  </g>
</svg>
