<?xml version="1.0" encoding="UTF-8" standalone="no"?>
<svg
   xmlns:dc="http://purl.org/dc/elements/1.1/"
   xmlns:cc="http://creativecommons.org/ns#"
   xmlns:rdf="http://www.w3.org/1999/02/22-rdf-syntax-ns#"
   xmlns:svg="http://www.w3.org/2000/svg"
   xmlns="http://www.w3.org/2000/svg"
   xmlns:sodipodi="http://sodipodi.sourceforge.net/DTD/sodipodi-0.dtd"
   xmlns:inkscape="http://www.inkscape.org/namespaces/inkscape"
   width="308mm"
   height="93mm"
   viewBox="0 0 308 93"
   version="1.1"
   id="svg8"
   sodipodi:docname="многоугольник 3.svg"
   inkscape:version="1.0.2 (e86c870879, 2021-01-15, custom)">
  <defs
     id="defs2">
    <filter
       style="color-interpolation-filters:sRGB"
       inkscape:label="Drop Shadow"
       id="filter1223">
      <feFlood
         flood-opacity="1"
         flood-color="rgb(124,50,0)"
         result="flood"
         id="feFlood1213" />
      <feComposite
         in="flood"
         in2="SourceGraphic"
         operator="in"
         result="composite1"
         id="feComposite1215" />
      <feGaussianBlur
         in="composite1"
         stdDeviation="1"
         result="blur"
         id="feGaussianBlur1217" />
      <feOffset
         dx="0"
         dy="0"
         result="offset"
         id="feOffset1219" />
      <feComposite
         in="SourceGraphic"
         in2="offset"
         operator="over"
         result="composite2"
         id="feComposite1221" />
    </filter>
    <filter
       style="color-interpolation-filters:sRGB"
       inkscape:label="Drop Shadow"
       id="filter885">
      <feFlood
         flood-opacity="1"
         flood-color="rgb(124,50,0)"
         result="flood"
         id="feFlood875" />
      <feComposite
         in="flood"
         in2="SourceGraphic"
         operator="in"
         result="composite1"
         id="feComposite877" />
      <feGaussianBlur
         in="composite1"
         stdDeviation="0.9"
         result="blur"
         id="feGaussianBlur879" />
      <feOffset
         dx="0"
         dy="0"
         result="offset"
         id="feOffset881" />
      <feComposite
         in="SourceGraphic"
         in2="offset"
         operator="over"
         result="composite2"
         id="feComposite883" />
    </filter>
  </defs>
  <sodipodi:namedview
     id="base"
     pagecolor="#ffffff"
     bordercolor="#666666"
     borderopacity="1.0"
     inkscape:pageopacity="0.0"
     inkscape:pageshadow="2"
     inkscape:zoom="0.65616742"
     inkscape:cx="597.90395"
     inkscape:cy="296.76293"
     inkscape:document-units="mm"
     inkscape:current-layer="layer1"
     inkscape:document-rotation="0"
     showgrid="false"
     inkscape:window-width="1609"
     inkscape:window-height="955"
     inkscape:window-x="281"
     inkscape:window-y="36"
     inkscape:window-maximized="0"
     inkscape:snap-global="false" />
  <metadata
     id="metadata5">
    <rdf:RDF>
      <cc:Work
         rdf:about="">
        <dc:format>image/svg+xml</dc:format>
        <dc:type
           rdf:resource="http://purl.org/dc/dcmitype/StillImage" />
        <dc:title></dc:title>
      </cc:Work>
    </rdf:RDF>
  </metadata>
  <g
     inkscape:label="Слой 1"
     inkscape:groupmode="layer"
     id="layer1">
    <path
       style="fill:#9e0024;fill-opacity:1;stroke:#000000;stroke-width:0.259925px;stroke-linecap:butt;stroke-linejoin:miter;stroke-opacity:1;filter:url(#filter885)"
       d="M 10.505062,21.010123 C 14.016309,13.168265 26.87261,7.0999387 38.887938,5.2856066 c 9.909585,-1.4963619 19.450985,4.2425788 29.5542,4.9712544 10.813094,0.779874 22.724046,-3.6928983 32.613712,-0.6870348 5.21532,1.5851448 5.09037,8.8472608 10.826,8.8801838 7.35596,0.04222 6.97001,-10.2551189 14.17889,-11.2277801 14.20773,-1.9169839 24.64288,12.9727571 38.73741,13.1313261 11.3274,0.127438 20.1866,-9.841725 31.51519,-9.848494 10.61396,-0.0063 19.34615,11.46618 29.54549,9.191928 5.37052,-1.19752 4.46683,-9.337939 9.8485,-10.5050607 8.45406,-1.8334305 15.53755,7.3754897 24.29295,7.8787957 12.60953,0.724861 27.60967,-13.9717327 36.76771,-7.2222294 4.80432,3.5407964 0.23537,11.1103854 -3.93941,15.1010264 -6.22324,5.948745 -20.26114,3.687302 -27.22211,9.124026 -5.0063,3.910072 -3.13827,11.429885 -8.3033,15.214196 -5.30114,3.88403 -13.35344,5.109256 -20.60827,5.728115 -9.69825,0.827288 -19.28699,-2.992385 -29.04168,-2.829973 -9.54618,0.15894 -19.99778,-0.01798 -28.24085,3.712881 -7.50576,3.397146 -7.98994,14.042203 -16.41984,15.689599 -8.56505,1.673811 -16.47829,-5.042855 -24.45702,-7.90143 -6.02073,-2.157074 -10.83281,-6.497672 -17.63735,-6.968648 -9.75375,-0.675108 -18.63001,4.07818 -27.841348,6.312081 C 84.453041,65.116926 76.606637,69.828043 67.450723,69.65116 57.890161,69.466459 50.776986,62.842281 41.363681,61.717238 32.508749,60.658929 20.378636,67.520419 14.44446,63.030369 7.6789637,57.911306 21.150186,49.824514 20.669296,43.021635 20.127406,35.355827 7.2113248,28.366205 10.505062,21.010123 Z"
       id="path849"
       sodipodi:nodetypes="aaaaaaaaaaaaaaaaaaaaaaaaaaa"
       transform="matrix(0.82942072,0,0,1.2492632,-0.4080424,-2.8823269)" />
  </g>
</svg>
