<?xml version="1.0" encoding="UTF-8" standalone="no"?>
<svg
   xmlns:dc="http://purl.org/dc/elements/1.1/"
   xmlns:cc="http://creativecommons.org/ns#"
   xmlns:rdf="http://www.w3.org/1999/02/22-rdf-syntax-ns#"
   xmlns:svg="http://www.w3.org/2000/svg"
   xmlns="http://www.w3.org/2000/svg"
   xmlns:sodipodi="http://sodipodi.sourceforge.net/DTD/sodipodi-0.dtd"
   xmlns:inkscape="http://www.inkscape.org/namespaces/inkscape"
   width="308mm"
   height="93mm"
   viewBox="0 0 308 93"
   version="1.1"
   id="svg8"
   sodipodi:docname="многоугольник 3.svg"
   inkscape:version="1.0.2 (e86c870879, 2021-01-15, custom)">
  <defs
     id="defs2">
    <filter
       style="color-interpolation-filters:sRGB"
       inkscape:label="Drop Shadow"
       id="filter1223">
      <feFlood
         flood-opacity="1"
         flood-color="rgb(124,50,0)"
         result="flood"
         id="feFlood1213" />
      <feComposite
         in="flood"
         in2="SourceGraphic"
         operator="in"
         result="composite1"
         id="feComposite1215" />
      <feGaussianBlur
         in="composite1"
         stdDeviation="1"
         result="blur"
         id="feGaussianBlur1217" />
      <feOffset
         dx="0"
         dy="0"
         result="offset"
         id="feOffset1219" />
      <feComposite
         in="SourceGraphic"
         in2="offset"
         operator="over"
         result="composite2"
         id="feComposite1221" />
    </filter>
    <filter
       style="color-interpolation-filters:sRGB"
       inkscape:label="Drop Shadow"
       id="filter885">
      <feFlood
         flood-opacity="1"
         flood-color="rgb(124,50,0)"
         result="flood"
         id="feFlood875" />
      <feComposite
         in="flood"
         in2="SourceGraphic"
         operator="in"
         result="composite1"
         id="feComposite877" />
      <feGaussianBlur
         in="composite1"
         stdDeviation="0.9"
         result="blur"
         id="feGaussianBlur879" />
      <feOffset
         dx="0"
         dy="0"
         result="offset"
         id="feOffset881" />
      <feComposite
         in="SourceGraphic"
         in2="offset"
         operator="over"
         result="composite2"
         id="feComposite883" />
    </filter>
  </defs>
  <sodipodi:namedview
     id="base"
     pagecolor="#ffffff"
     bordercolor="#666666"
     borderopacity="1.0"
     inkscape:pageopacity="0.0"
     inkscape:pageshadow="2"
     inkscape:zoom="0.65616742"
     inkscape:cx="597.90395"
     inkscape:cy="296.76293"
     inkscape:document-units="mm"
     inkscape:current-layer="layer1"
     inkscape:document-rotation="0"
     showgrid="false"
     inkscape:window-width="1609"
     inkscape:window-height="955"
     inkscape:window-x="235"
     inkscape:window-y="313"
     inkscape:window-maximized="0"
     inkscape:snap-global="false" />
  <metadata
     id="metadata5">
    <rdf:RDF>
      <cc:Work
         rdf:about="">
        <dc:format>image/svg+xml</dc:format>
        <dc:type
           rdf:resource="http://purl.org/dc/dcmitype/StillImage" />
        <dc:title></dc:title>
      </cc:Work>
    </rdf:RDF>
  </metadata>
  <g
     inkscape:label="Слой 1"
     inkscape:groupmode="layer"
     id="layer1">
    <path
       style="fill:#9e0024;fill-opacity:1;stroke:#000000;stroke-width:0.259925px;stroke-linecap:butt;stroke-linejoin:miter;stroke-opacity:1;filter:url(#filter885)"
       d="M 9.5327561,11.004237 C 15.117729,5.3394584 28.692127,5.4117846 38.887938,5.2856066 c 10.160887,-0.1257458 19.450985,4.2425788 29.5542,4.9712544 10.813094,0.779874 22.724046,-3.6928983 32.613712,-0.6870348 5.21532,1.5851448 5.09037,8.8472608 10.826,8.8801838 7.35596,0.04222 6.97001,-10.2551189 14.17889,-11.2277801 14.20773,-1.9169839 24.64288,12.9727571 38.73741,13.1313261 11.3274,0.127438 20.1866,-9.841725 31.51519,-9.848494 10.61396,-0.0063 19.34615,11.46618 29.54549,9.191928 5.37052,-1.19752 4.46683,-9.337939 9.8485,-10.5050607 8.45406,-1.8334305 15.53755,7.3754897 24.29295,7.8787957 12.60953,0.724861 27.60967,-13.9717327 36.76771,-7.2222294 4.80432,3.5407964 0.23537,11.1103854 -3.93941,15.1010264 -6.22324,5.948745 -20.26114,3.687302 -27.22211,9.124026 -5.0063,3.910072 -3.13827,11.429885 -8.3033,15.214196 -5.30114,3.88403 -13.35344,5.109256 -20.60827,5.728115 -9.69825,0.827288 -19.28699,-2.992385 -29.04168,-2.829973 -9.54618,0.15894 -19.99778,-0.01798 -28.24085,3.712881 -7.50576,3.397146 -7.98994,14.042203 -16.41984,15.689599 -8.56505,1.673811 -15.63901,-6.502372 -24.45702,-7.90143 -5.71887,-0.907351 -11.75872,-0.109519 -17.63735,-0.190467 -9.2814,-0.127804 -18.78403,-1.818047 -27.841348,-0.4661 -6.494728,0.96944 -11.183059,5.707133 -17.827641,5.97525 C 68.753568,69.266917 63.277204,65.483132 56.920576,64.622173 43.025521,62.740187 24.252965,69.830393 14.44446,63.030369 4.2450703,55.959353 14.889859,43.428069 13.863154,33.661289 13.06481,26.06685 3.2528407,17.373889 9.5327561,11.004237 Z"
       id="path849"
       sodipodi:nodetypes="aaaaaaaaaaaaaaaaaaaaaaaaaaa"
       transform="matrix(0.82942072,0,0,1.2492632,-0.4080424,-2.8823269)" />
  </g>
</svg>
