<?xml version="1.0" encoding="UTF-8" standalone="no"?>
<svg
   xmlns:dc="http://purl.org/dc/elements/1.1/"
   xmlns:cc="http://creativecommons.org/ns#"
   xmlns:rdf="http://www.w3.org/1999/02/22-rdf-syntax-ns#"
   xmlns:svg="http://www.w3.org/2000/svg"
   xmlns="http://www.w3.org/2000/svg"
   xmlns:sodipodi="http://sodipodi.sourceforge.net/DTD/sodipodi-0.dtd"
   xmlns:inkscape="http://www.inkscape.org/namespaces/inkscape"
   width="210mm"
   height="297mm"
   viewBox="0 0 210 297"
   version="1.1"
   id="svg8"
   inkscape:version="1.0.2 (e86c870879, 2021-01-15, custom)"
   sodipodi:docname="Настя лицо образ.svg">
  <defs
     id="defs2" />
  <sodipodi:namedview
     id="base"
     pagecolor="#ffffff"
     bordercolor="#666666"
     borderopacity="1.0"
     inkscape:pageopacity="0.0"
     inkscape:pageshadow="2"
     inkscape:zoom="0.49497475"
     inkscape:cx="33.065161"
     inkscape:cy="556.94527"
     inkscape:document-units="mm"
     inkscape:current-layer="layer1"
     inkscape:document-rotation="0"
     showgrid="false"
     inkscape:window-width="1423"
     inkscape:window-height="914"
     inkscape:window-x="234"
     inkscape:window-y="87"
     inkscape:window-maximized="0" />
  <metadata
     id="metadata5">
    <rdf:RDF>
      <cc:Work
         rdf:about="">
        <dc:format>image/svg+xml</dc:format>
        <dc:type
           rdf:resource="http://purl.org/dc/dcmitype/StillImage" />
        <dc:title></dc:title>
      </cc:Work>
    </rdf:RDF>
  </metadata>
  <g
     inkscape:label="Слой 1"
     inkscape:groupmode="layer"
     id="layer1">
    <path
       style="fill:#000000;stroke-width:0.999999"
       d="m 191.68466,221.37096 c -1.31834,-3.18742 -1.41115,-3.80457 -0.57212,-3.80457 0.56459,0 2.37707,5.97542 1.94386,6.4086 -0.11459,0.11459 -0.73196,-1.05715 -1.37174,-2.60403 z m -19.25702,-41.07732 c 0.80082,-2.10631 0.28607,-4.31508 -1.00563,-4.31508 -0.56792,0 -0.76918,0.49327 -0.54736,1.34155 0.19623,0.75003 0.0203,1.34153 -0.39817,1.34153 -0.41195,0 -0.749,0.42606 -0.749,0.94682 0,0.98918 -1.08542,1.06191 -2.51541,0.16859 -0.53918,-0.33686 -0.83846,-0.14223 -0.83846,0.54555 0,0.91348 -0.20737,0.94367 -1.42328,0.20737 -4.39764,-2.6636 -4.24849,-2.64198 -4.67598,-0.67748 -0.36377,1.67187 -0.44381,1.71332 -0.9384,0.48618 -0.29741,-0.73784 -1.11683,-1.98318 -1.82093,-2.76742 l -1.2802,-1.42588 4.07244,0.20282 c 2.38155,0.11865 3.91292,-0.0553 3.68828,-0.41873 -0.21118,-0.3419 0.0466,-0.62164 0.57316,-0.62164 1.32084,0 3.43865,-7.59454 2.56816,-9.20949 -1.31442,-2.43855 -6.88337,-6.21823 -9.16191,-6.21823 -0.84468,0 -1.04891,0.38116 -0.77189,1.44057 0.61459,2.35008 -1.97363,6.47358 -5.45002,8.68298 -3.51254,2.23237 -3.86605,2.21574 -10.8974,-0.51289 l -4.38868,-1.70313 -1.21456,-4.24095 c -0.668,-2.33253 -1.02929,-4.54072 -0.80287,-4.9071 0.22639,-0.36639 1.84236,-1.19259 3.59093,-1.83599 3.91868,-1.44195 4.90442,-2.20868 2.39163,-1.86026 -1.11207,0.15414 -0.66313,-0.14425 1.08623,-0.72195 6.67209,-2.20362 12.68781,-1.76303 23.4965,1.72087 6.08567,1.96159 9.82,3.91401 10.93209,5.7157 0.28482,0.46146 0.91329,1.23444 1.39661,1.71773 0.48331,0.48331 0.82923,1.55045 0.76877,2.37142 -0.17087,2.31761 2.11608,2.6574 3.76624,0.55957 0.74895,-0.95214 1.73783,-1.73118 2.19752,-1.73118 0.45968,0 1.324,-0.981 1.92073,-2.18 l 1.08494,-2.18001 0.11637,2.01231 c 0.0981,1.69686 0.20813,1.54505 0.70088,-0.96839 0.32146,-1.63939 1.19849,-4.28697 1.94896,-5.88351 2.63712,-5.61017 3.37448,-13.22766 1.23557,-12.7642 -0.41569,0.09 -1.03128,-0.85036 -1.36799,-2.08981 -0.33669,-1.23946 -0.79428,-2.07146 -1.01684,-1.84887 -0.22258,0.22259 -0.84039,-0.21727 -1.3729,-0.97768 -0.53253,-0.76028 -1.32501,-1.24542 -1.76106,-1.07809 -0.43725,0.16784 -0.79281,-0.26325 -0.79281,-0.96109 0,-1.5949 1.71686,-1.68479 1.74717,-0.0915 0.0203,1.02394 0.17568,0.99032 1.22285,-0.26313 1.09507,-1.31078 1.27269,-1.34024 2.02209,-0.33541 0.75914,1.01788 0.79689,1.01662 0.49645,-0.0178 -0.17873,-0.61507 0.12423,-1.29077 0.67347,-1.50155 0.54926,-0.21067 0.83406,-0.11687 0.63289,0.20864 -0.20129,0.32552 0.11611,1.74542 0.70532,3.15537 0.73214,1.75225 0.83687,2.64157 0.33094,2.81024 -0.4071,0.13563 -0.74018,0.67434 -0.74018,1.19697 0,0.70161 0.33802,0.61225 1.29177,-0.34149 0.75209,-0.75209 1.15054,-1.83181 0.95373,-2.58442 -0.18583,-0.71093 2.44989,-0.19181 2.44989,0.98557 0,1.17737 -0.33025,2.34478 -0.73393,2.59427 -0.40366,0.24946 -0.59643,1.17283 -0.4284,2.05188 0.16808,0.87908 0.0644,1.59832 -0.23045,1.59832 -0.29484,0 -0.52988,0.52821 -0.52233,1.17385 0.007,0.64561 -0.60971,3.43771 -1.37174,6.20459 -1.45911,5.29824 -1.90548,9.16196 -0.71678,6.20465 1.37466,-3.42001 0.99137,-0.99241 -1.25726,7.96272 -1.70685,6.79759 -2.53046,9.11762 -2.91702,8.21697 -0.33105,-0.77136 -0.38238,-0.38254 -0.1331,1.00891 0.28075,1.56787 0.17721,2.12282 -0.33711,1.805 -0.45009,-0.27818 -0.77544,-3.01861 -0.82616,-6.95931 -0.0766,-5.95263 -0.12803,-6.19461 -0.61058,-2.87155 -0.3169,2.18253 -0.95192,3.86676 -1.59325,4.22567 -0.58649,0.3282 -1.06635,1.07148 -1.06635,1.6517 0,0.81789 0.20687,0.88334 0.92015,0.2913 0.73817,-0.61263 1.00351,-0.34695 1.34155,1.34325 0.57756,2.8879 0.40968,11.96205 -0.25928,14.01313 -0.34109,1.04578 -0.43688,-0.16022 -0.25451,-3.20411 0.48757,-8.13846 -2.10901,-10.32239 -2.88356,-2.42532 -0.2132,2.17388 -0.7241,4.3789 -1.13526,4.90003 -0.55767,0.70684 -0.53457,1.01926 0.0911,1.22975 1.14786,0.38634 1.05328,2.57287 -0.19369,4.47585 -0.67185,1.02533 -10.01153,-11.44839 -9.01269,-14.07555 z m 12.72758,-2.97353 c 0,-0.36893 -0.30186,-0.67079 -0.67078,-0.67079 -0.36893,0 -0.67076,0.30186 -0.67076,0.67079 0,0.36892 0.30183,0.67076 0.67076,0.67076 0.36892,0 0.67078,-0.30184 0.67078,-0.67076 z m -10.73236,-2.01231 c 0,-0.36893 -0.30183,-0.67079 -0.67076,-0.67079 -0.36892,0 -0.67076,0.30186 -0.67076,0.67079 0,0.36892 0.30184,0.67076 0.67076,0.67076 0.36893,0 0.67076,-0.30184 0.67076,-0.67076 z m 2.68311,-2.97889 c 0,-0.16275 -0.30186,-0.48234 -0.67079,-0.71036 -0.36892,-0.22792 -0.67076,-0.0948 -0.67076,0.29578 0,0.3907 0.30184,0.71037 0.67076,0.71037 0.36893,0 0.67079,-0.13311 0.67079,-0.29579 z m 1.67691,-2.38729 c -0.22792,-0.36893 -0.0446,-0.67077 0.40761,-0.67077 0.45217,0 0.65654,-0.16554 0.45413,-0.36803 -0.20231,-0.20231 -1.18696,-0.16251 -2.18785,0.0887 -1.33615,0.33536 -1.58004,0.60871 -0.91762,1.02854 1.24666,0.79008 2.74808,0.73758 2.24373,-0.0783 z m -29.90962,-1.7142 c 0.59319,0.36661 -0.77566,-5.38234 -1.43969,-6.04632 -0.50686,-0.50687 -1.01385,1.77791 -1.03785,4.67718 -0.0127,1.39074 0.15413,1.67835 0.57982,1.00615 0.445,-0.70289 0.61826,-0.51657 0.68402,0.73564 0.0608,1.15995 0.18304,1.31252 0.39643,0.49487 0.16961,-0.65013 0.53736,-1.04052 0.81727,-0.86752 z m 41.92015,-5.40802 0.38078,-3.27473 -0.98424,3.35386 c -0.54131,1.84461 -0.97093,3.95755 -0.95465,4.69539 0.0284,1.28438 0.054,1.28101 0.60345,-0.0791 0.31563,-0.78138 0.74522,-2.89428 0.95466,-4.69542 z m -36.75666,2.59458 c 1.37195,-1.8073 1.1022,-3.22947 -0.77473,-4.08464 -2.27326,-1.03577 -2.98692,-0.98137 -2.98692,0.22767 0,0.55338 0.30187,1.00614 0.67078,1.00614 0.36893,0 0.67077,-0.32339 0.67077,-0.71868 0,-0.39527 0.45276,-0.26592 1.00614,0.28747 1.28155,1.28154 1.29156,2.44352 0.0203,2.44352 -0.60005,0 -0.83418,0.39329 -0.59899,1.00618 0.49977,1.30237 0.90165,1.26856 1.99191,-0.16758 z m -5.10318,-4.86309 c -0.67079,-0.43348 -0.72669,-0.65365 -0.16782,-0.66049 0.46115,-0.005 0.83846,-0.31211 0.83846,-0.68104 0,-0.36892 -0.45276,-0.67079 -1.00617,-0.67079 -0.55339,0 -1.00614,-0.30184 -1.00614,-0.67076 0,-0.36892 -0.23629,-0.67077 -0.52522,-0.67077 -0.40168,0 -0.54644,2.79105 -0.20003,3.85693 0.0299,0.0923 0.73366,0.16301 1.56374,0.15743 1.22042,-0.007 1.3167,-0.13461 0.50308,-0.66049 z m 5.08026,-1.26144 c -0.47874,-0.77465 -3.73873,-1.39114 -3.73873,-0.70705 0,0.29072 0.52823,0.66664 1.17384,0.83535 2.0266,0.52958 2.94317,0.48374 2.56489,-0.12828 z m 3.30438,-4.10472 c -0.22792,-0.36892 -0.71642,-0.67079 -1.08534,-0.67079 -0.36892,0 -0.48422,0.30187 -0.25621,0.67079 0.22792,0.36893 0.71639,0.67076 1.08532,0.67076 0.36895,0 0.48422,-0.30183 0.25623,-0.67076 z m -11.92017,-0.40528 c -0.22285,-0.22284 -0.80143,-0.24667 -1.28565,-0.053 -0.53509,0.21423 -0.37615,0.37308 0.40528,0.40525 0.70709,0.0291 1.10326,-0.12954 0.88037,-0.35229 z m 45.22926,60.7747 c 0,-0.9223 0.15237,-1.29961 0.33832,-0.83846 0.18608,0.46115 0.18608,1.21578 0,1.67693 -0.18608,0.46116 -0.33832,0.0839 -0.33832,-0.83847 z m 0.41772,-4.52771 c -0.61329,-2.49025 -1.32654,-5.58418 -1.58505,-6.87541 -0.38452,-1.92071 -0.5547,-2.10893 -0.93569,-1.03482 -0.25614,0.72208 -0.47602,-1.08899 -0.48861,-4.02463 -0.0152,-3.52932 0.17087,-4.88301 0.54943,-3.99595 0.33282,0.78006 0.36651,-0.34286 0.0804,-2.6831 -0.75658,-6.19009 -0.40074,-10.81879 1.36645,-17.77545 l 1.61877,-6.37232 -0.0616,8.72004 c -0.034,4.79602 0.12473,12.04035 0.35249,16.09852 0.22766,4.05817 0.22766,5.86924 0,4.02463 -0.36299,-2.93987 -0.47613,-3.13275 -0.9166,-1.56255 -0.27637,0.98523 -0.33098,2.34354 -0.12144,3.01846 0.20967,0.67495 -0.0819,0.47253 -0.64759,-0.44977 -1.29609,-2.11276 -1.37453,-1.20919 -0.1369,1.57555 1.16726,2.62619 1.71055,4.70312 2.13213,8.15063 0.1805,1.4757 0.46524,3.07607 0.63286,3.55639 0.16757,0.48031 0.0101,0.69169 -0.34821,0.46974 -0.40023,-0.24743 -0.49461,0.38824 -0.24389,1.6421 0.7686,3.84303 -0.1298,2.05498 -1.24727,-2.48206 z m -0.73619,-16.39199 c -0.21422,-0.53507 -0.37308,-0.37614 -0.40525,0.40528 -0.0292,0.70709 0.12929,1.10327 0.35229,0.88037 0.22284,-0.22284 0.24667,-0.80143 0.053,-1.28565 z m -1.31065,15.14827 c -0.26901,-0.26901 -0.46997,-1.26887 -0.44659,-2.22192 l 0.0426,-1.73284 0.64742,1.61947 c 0.69766,1.74518 0.55318,3.13183 -0.24338,2.33529 z m -2.33225,-16.6994 c 0.007,-1.47571 0.14476,-2.00043 0.30524,-1.16605 0.16047,0.83439 0.15439,2.04178 -0.0127,2.68309 -0.16783,0.64133 -0.29918,-0.0414 -0.29173,-1.51704 z m 6.31844,-2.27435 c -0.24793,-1.23937 -0.40989,-4.2531 -0.36002,-6.69724 l 0.0908,-4.44385 0.57977,6.03695 c 0.60938,6.34529 0.45281,8.92019 -0.31042,5.10414 z m 1.00579,-9.12877 c -0.0733,-1.84464 -0.28855,-4.10847 -0.47839,-5.0308 l -0.34514,-1.67691 0.71989,1.6493 c 0.39593,0.90709 0.61121,3.17095 0.4784,5.03077 l -0.24161,3.38151 z m -39.90648,-4.10936 c -0.67221,-0.9006 -1.11126,-1.97035 -0.97562,-2.37723 0.13563,-0.40688 0.7801,0.0745 1.43216,1.06968 1.53359,2.34055 1.14507,3.45327 -0.45654,1.30755 z m -4.57274,-2.97166 c -1.50025,-1.30687 -1.50611,-1.34198 -0.11155,-0.66719 0.80954,0.39177 1.65742,1.01249 1.88421,1.37943 0.65941,1.06694 -0.0636,0.77643 -1.77256,-0.71224 z m 45.69559,-0.80062 c -0.007,-1.22042 -0.13462,-1.31667 -0.66052,-0.50306 -0.45074,0.69747 -0.67708,-0.74316 -0.73775,-4.69541 -0.10774,-7.02232 -0.0736,-7.36536 1.09257,-10.89651 0.67548,-2.04573 0.8623,-2.28424 0.65951,-0.84197 -0.87882,6.25013 -1.1403,15.24938 -0.43033,14.81058 0.49982,-0.30889 0.75755,0.22994 0.75755,1.58372 0,1.12854 -0.15085,2.05191 -0.33539,2.05191 -0.18455,0 -0.34001,-0.67915 -0.34564,-1.50926 z m -2.45813,-5.19847 c 0,-2.398 0.12169,-3.37899 0.27054,-2.17999 0.14881,1.199 0.14881,3.16102 0,4.36001 -0.14882,1.199 -0.27054,0.21803 -0.27054,-2.18002 z m 7.26968,-11.40309 c 0,-0.92231 0.15237,-1.29963 0.33835,-0.83847 0.18609,0.46115 0.18609,1.21578 0,1.67693 -0.18609,0.46115 -0.33835,0.084 -0.33835,-0.83846 z m -0.0286,-4.69542 c -0.0312,-1.66015 0.23603,-3.47122 0.59365,-4.02461 0.8121,-1.25662 0.8121,2.83038 0,5.36616 -0.44521,1.39023 -0.54672,1.16084 -0.59365,-1.34155 z m -5.05006,-0.67076 c 0.69231,-3.5992 1.67589,-5.54496 1.18675,-2.34767 -0.22564,1.47566 -0.68673,3.13584 -1.0244,3.68922 -0.40025,0.65596 -0.45676,0.18912 -0.16225,-1.34155 z M 58.826634,148.70058 c -0.245914,-0.24591 -0.447187,-1.01838 -0.447187,-1.7165 0,-0.72943 -0.304782,-1.08099 -0.716489,-0.82653 -0.394103,0.24363 -0.534066,0.94051 -0.311099,1.54883 0.223097,0.60829 -0.472868,0.092 -1.546315,-1.14728 -1.237256,-1.42841 -2.121251,-1.97902 -2.414784,-1.50411 -0.322601,0.522 -0.779391,0.43283 -1.506259,-0.29403 -0.573794,-0.57379 -0.85137,-1.23516 -0.616836,-1.46968 0.234506,-0.23451 0.760027,-0.0928 1.167757,0.31492 0.407739,0.40774 1.108946,0.60026 1.558266,0.42784 0.449331,-0.17239 1.207205,0.15668 1.6842,0.73145 0.628834,0.75773 1.102947,0.84935 1.724677,0.33333 0.596761,-0.49527 0.989592,-0.49778 1.292137,-0.007 0.239073,0.38684 1.624256,0.70334 3.078189,0.70334 1.453915,0 2.643506,0.29239 2.643506,0.64972 0,0.35737 -0.456209,0.47467 -1.013775,0.2607 -0.761478,-0.29219 -0.900102,-0.0783 -0.557042,0.85953 0.436892,1.19428 0.398484,1.19753 -0.883667,0.0748 -1.83077,-1.60329 -3.111928,-1.51988 -2.576318,0.16758 0.435422,1.37184 0.236536,1.68993 -0.558961,0.89436 z m -8.812884,-2.4145 c -0.263865,-1.19301 -0.621955,-1.80876 -0.795768,-1.36832 -0.347786,0.88128 -2.093624,0.42261 -3.434919,-0.90246 -0.471826,-0.46612 -1.305323,-0.67577 -1.852216,-0.46591 -0.710718,0.27274 -0.873859,0.0674 -0.571942,-0.71926 0.407356,-1.06151 1.074443,-1.03766 4.230534,0.15134 0.67576,0.25459 0.783406,0.0834 0.374328,-0.59513 -0.462648,-0.76746 -0.321188,-0.75701 0.728413,0.0537 1.951209,1.50715 2.934418,2.88739 2.958218,4.15273 0.03959,2.10388 -1.152905,1.88043 -1.636648,-0.30668 z M 37.040531,143.2366 c -0.668684,-0.66869 -1.574207,-1.09631 -2.012314,-0.95028 -0.438108,0.14603 -0.796534,-0.0794 -0.796534,-0.50075 0,-0.42143 -0.257399,-0.60717 -0.571966,-0.41275 -0.314568,0.19445 -1.144642,-0.11434 -1.844611,-0.68595 -1.113561,-0.90948 -1.125907,-0.99329 -0.09887,-0.67033 0.645614,0.20306 1.173848,0.0441 1.173848,-0.35336 0,-0.44493 -0.676746,-0.55257 -1.761761,-0.28024 -1.366928,0.34307 -1.678833,0.22614 -1.391748,-0.52215 0.264751,-0.68993 0.0025,-0.8682 -0.921316,-0.6266 -0.710236,0.18583 -1.291354,6.4e-4 -1.291354,-0.41131 0,-0.41197 -0.578532,-0.749 -1.28565,-0.749 -0.707093,0 -1.392332,-0.32007 -1.522717,-0.71125 -0.130309,-0.39121 -1.226529,-0.73939 -2.435844,-0.77377 -1.656803,-0.0472 -2.104368,-0.30851 -1.81576,-1.06054 0.329322,-0.85825 0.226393,-0.86806 -0.735284,-0.07 -1.002671,0.83213 -1.06704,0.76665 -0.62267,-0.63346 0.452533,-1.42578 0.372624,-1.49573 -0.918959,-0.80448 -1.087829,0.58218 -1.373647,0.56594 -1.237329,-0.0702 0.09761,-0.45505 -0.42642,-0.95004 -1.16429,-1.1 -1.841924,-0.37434 -2.93036,-1.48398 -1.45561,-1.48398 1.025792,0 0.986851,-0.23476 -0.335837,-2.02374 -1.267093,-1.71385 -1.587669,-1.86044 -2.093137,-0.95719 -0.4916,0.87841 -0.793263,0.67474 -1.710016,-1.15469 -1.0860036,-2.16716 -1.0722628,-2.26439 0.563827,-3.99329 0.922306,-0.97464 2.884321,-2.15619 4.36001,-2.6257 1.475688,-0.46952 3.890465,-1.25805 5.36618,-1.75226 1.475688,-0.49421 7.122539,-1.20118 12.548524,-1.57109 12.959809,-0.88344 16.464748,-0.17061 27.916262,5.67849 10.299405,5.26054 12.162565,6.68468 12.524596,9.57335 0.299026,2.38615 -0.658596,2.98536 -1.340008,0.83843 -0.492896,-1.55301 -1.050125,-1.67427 -2.311948,-0.50306 -0.689901,0.64038 -0.793494,0.64364 -0.438511,0.0153 0.255648,-0.45355 0.124221,-1.46117 -0.292232,-2.23917 -0.734224,-1.37192 -0.79327,-1.37737 -1.957554,-0.18152 -1.323096,1.35892 -1.100504,2.53586 0.372699,1.97056 0.516087,-0.198 0.938324,-0.0677 0.938324,0.28965 0,0.35733 -0.470603,0.64971 -1.045745,0.64971 -0.586363,0 -0.846503,0.32241 -0.592147,0.73395 0.249471,0.40365 1.19573,0.59207 2.102748,0.41869 1.176938,-0.22488 1.442525,-0.10876 0.927533,0.40636 -1.131669,1.13166 -0.853579,1.78902 0.787607,1.86173 1.437509,0.0636 1.429853,0.089 -0.160982,0.53172 -1.757199,0.4891 -1.645276,0.63852 1.839791,2.45654 1.098548,0.57305 1.405923,0.96289 0.761094,0.96538 -0.746718,0.003 -1.026175,0.50922 -0.902563,1.6354 0.239326,2.17992 -0.94012,1.62445 -3.046621,-1.43484 -2.91834,-4.23835 -10.996934,-11.75734 -11.812375,-10.99414 -0.235526,0.2203 -0.219297,-0.27842 0.03575,-1.10849 0.53153,-1.72911 -0.768515,-2.13885 -1.417808,-0.44683 -0.328235,0.85537 -0.518193,0.88805 -0.974832,0.16757 -0.380159,-0.59973 -0.570528,-0.2089 -0.577416,1.18521 -0.0047,1.14393 -0.340131,3.02612 -0.743275,4.18262 -0.625081,1.79305 -0.921393,2.00187 -2.012313,1.41804 -1.376236,-0.73653 -1.732398,-0.0178 -0.568057,1.14699 0.501131,0.50114 0.06439,1.25559 -1.478791,2.55402 -1.868813,1.57253 -2.644947,1.79905 -5.292375,1.54467 -1.706316,-0.16403 -5.014496,-1.25361 -7.351519,-2.42142 -2.337022,-1.16781 -4.301268,-2.04715 -4.364978,-1.95406 -0.06363,0.093 0.106732,0.92386 0.378758,1.84619 0.272052,0.9223 0.524736,1.32786 0.561496,0.90126 0.09482,-1.10065 2.749956,-0.27624 2.749956,0.85388 0,1.15521 1.333539,1.24276 1.362872,0.0895 0.01521,-0.58405 0.269263,-0.53315 0.838466,0.16758 0.449415,0.55338 1.194434,1.03634 1.655587,1.07325 3.217268,0.25737 3.22784,0.26191 2.180017,0.93906 -0.828453,0.53542 -0.838339,0.65206 -0.05578,0.66053 0.522631,0.005 0.756326,0.20433 0.519284,0.44122 -0.23704,0.23704 -0.898321,0.043 -1.469553,-0.43096 -0.571206,-0.47408 -1.232512,-0.66803 -1.469553,-0.43098 -0.237041,0.23704 -0.07631,0.43098 0.357286,0.43098 0.587304,0 0.574679,0.342 -0.04943,1.34153 -1.032865,1.65391 -1.524187,1.67401 -3.072432,0.12574 z m 10.596292,-10.65084 c 0.0047,-0.80831 -0.215994,-1.6067 -0.492792,-1.77423 -0.697938,-0.42251 -2.206609,1.31676 -1.63662,1.88675 0.446042,0.44604 0.519233,0.70166 0.724559,2.53096 0.153633,1.36825 1.393117,-0.96416 1.404853,-2.64348 z m -16.759005,-1.8842 c 0,-0.92233 -0.284044,-1.67693 -0.631188,-1.67693 -0.977497,0 -1.485044,1.19813 -0.710364,1.67693 0.380965,0.23551 0.519007,0.70906 0.306735,1.05249 -0.212197,0.34344 -0.06617,0.62441 0.324454,0.62441 0.3907,0 0.710363,-0.75459 0.710363,-1.6769 z m 20.123137,-0.29581 c 0,-0.79141 -1.308234,-1.63801 -1.788729,-1.15755 -0.480477,0.4805 0.36613,1.78874 1.157546,1.78874 0.347141,0 0.631183,-0.28404 0.631183,-0.63119 z m -3.353865,-1.9237 c 0,-0.66735 -0.433644,-1.79926 -0.963676,-2.51539 -0.949433,-1.28277 -0.960131,-1.28219 -0.722101,0.0396 0.132844,0.73785 0.264699,1.86976 0.292916,2.51537 0.0682,1.55776 1.392861,1.52022 1.392861,-0.0395 z m 18.61827,-0.1359 c 0.11941,-0.63613 -0.964968,-1.48526 -2.988391,-2.33998 -4.28063,-1.80824 -4.761425,-1.92341 -3.398712,-0.81428 0.639886,0.5208 0.981561,1.12876 0.759325,1.35103 -0.22234,0.22234 0.38611,0.60244 1.35194,0.84485 0.965866,0.24237 1.756085,0.88293 1.756085,1.42336 0,1.28025 2.270778,0.86121 2.519753,-0.46498 z m -36.058306,-0.64201 c 0,-0.35734 -0.452786,-0.47598 -1.006169,-0.26361 -0.553383,0.21245 -1.006144,0.50471 -1.006144,0.64972 0,0.14501 0.452761,0.26362 1.006144,0.26362 0.553383,0 1.006169,-0.29239 1.006169,-0.64973 z m 22.806215,-0.31685 c 0,-0.16276 -0.301834,-0.48234 -0.670762,-0.71036 -0.368919,-0.22792 -0.67079,-0.0948 -0.67079,0.29581 0,0.39069 0.301871,0.71035 0.67079,0.71035 0.368928,0 0.670762,-0.13309 0.670762,-0.2958 z M 199.9122,143.40663 c 0,-0.57516 0.30184,-0.85918 0.67076,-0.63118 0.36893,0.2279 0.67079,0.69859 0.67079,1.04573 0,0.34718 -0.30186,0.63119 -0.67079,0.63119 -0.36892,0 -0.67076,-0.47058 -0.67076,-1.04574 z m 2.16792,-3.64965 c 0,-1.29125 0.13817,-1.81949 0.30676,-1.17384 0.16884,0.64561 0.16884,1.70208 0,2.34769 -0.16859,0.64562 -0.30676,0.11738 -0.30676,-1.17385 z m -36.50304,-1.79976 c 0.48421,-0.19369 1.06276,-0.16986 1.28565,0.053 0.22285,0.22285 -0.17314,0.38142 -0.8804,0.35232 -0.78139,-0.0322 -0.94035,-0.19115 -0.40525,-0.40525 z m -6.03694,-1.34152 c 0.48421,-0.19369 1.06276,-0.16987 1.28565,0.053 0.22285,0.22284 -0.17315,0.38142 -0.8804,0.35229 -0.78139,-0.0322 -0.94035,-0.19115 -0.40525,-0.40525 z m 10.18735,0.1947 c 0,-0.14502 0.46845,-0.44339 1.041,-0.66311 0.59692,-0.22919 0.86617,-0.11662 0.63116,0.26364 -0.39389,0.63737 -1.67216,0.94274 -1.67216,0.39947 z m 2.68307,-0.40716 c 0,-0.36892 0.43496,-0.67079 0.96657,-0.67079 0.53161,0 1.15314,0.30187 1.38113,0.67079 0.22792,0.36893 -0.20687,0.67076 -0.96655,0.67076 -0.75962,0 -1.38115,-0.30183 -1.38115,-0.67076 z m -10.18734,-0.45821 c 0.48423,-0.19368 1.06276,-0.16986 1.28565,0.053 0.22284,0.22285 -0.1734,0.38142 -0.88037,0.35229 -0.78142,-0.0322 -0.94036,-0.19116 -0.40528,-0.40525 z m 37.22247,-4.17907 c 0.29394,-1.92591 1.13727,-2.57867 1.13727,-0.88027 0,0.77754 -0.30275,1.60085 -0.67279,1.82955 -0.3857,0.23831 -0.58391,-0.16682 -0.46448,-0.94928 z m 1.61087,-4.08276 c -0.20713,0.55338 0.20723,-0.55338 0,0 z m -6.14679,-0.67081 c -0.14045,0 0.38573,0 0,0 z m -95.613255,-9.42017 c 0,-0.3851 -0.458268,-0.61149 -1.018389,-0.50308 -0.560102,0.1085 -1.39018,-0.44635 -1.844611,-1.23277 -0.45444,-0.78642 -2.109084,-3.26011 -3.677028,-5.49705 -3.08562,-4.40221 -3.392779,-5.16311 -1.844611,-4.56901 0.553382,0.21245 1.006147,0.16073 1.006147,-0.11459 0,-0.68478 -2.542654,-2.8111 -3.36152,-2.8111 -0.364689,0 -0.663107,-0.26374 -0.663107,-0.58607 0,-0.32232 0.981019,-0.37234 2.180016,-0.11104 1.214205,0.26453 2.098228,0.84372 1.995449,1.30738 -0.120169,0.54223 0.269424,0.68841 1.117415,0.41925 0.716602,-0.22741 1.524696,-0.0527 1.797405,0.38849 0.312999,0.50643 0.210173,0.62543 -0.278923,0.32306 -0.425933,-0.26323 -0.774421,-0.22412 -0.774421,0.0872 0,0.31117 0.830069,1.05954 1.84463,1.66306 1.014542,0.60353 2.448326,2.23653 3.186163,3.62889 0.737846,1.39235 2.02068,3.21377 2.85079,4.04759 1.95362,1.96243 1.90443,2.80151 -0.21144,3.60594 -2.151527,0.81799 -2.30404,0.81495 -2.30404,-0.0461 z m -4.452824,-9.02602 c -0.420692,-1.09624 -1.584116,-1.38361 -1.584116,-0.39126 0,0.5091 0.470097,0.85572 1.823563,1.34447 0.08058,0.0291 -0.02714,-0.3998 -0.239316,-0.95321 z m -8.794934,-3.97476 c -1.581963,-0.73723 -1.978144,-2.02859 -0.838473,-2.73294 0.368928,-0.22792 0.670771,0.0101 0.670771,0.52869 0,0.51878 0.660822,1.23809 1.468458,1.59849 0.807664,0.36038 1.184977,0.80237 0.838464,0.98219 -0.346485,0.17975 -1.309151,0.0101 -2.13922,-0.37643 z M 83.19797,98.974711 c 0,-0.294843 1.131922,-0.423893 2.515401,-0.286757 3.894117,0.385952 4.177861,0.711604 0.670762,0.769892 -1.752379,0.02911 -3.186163,-0.188367 -3.186163,-0.483135 z m -2.347689,-2.146984 c -0.227918,-0.368919 -0.09481,-0.67079 0.295778,-0.67079 0.390697,0 0.71036,0.301871 0.71036,0.67079 0,0.368928 -0.133093,0.670758 -0.295779,0.670758 -0.162761,0 -0.482367,-0.30183 -0.710359,-0.670758 z m 3.018451,-0.03959 c 0,-0.390697 0.301871,-0.523818 0.67079,-0.295807 0.368928,0.227917 0.670762,0.547683 0.670762,0.710369 0,0.162756 -0.301834,0.295803 -0.670762,0.295803 -0.368919,0 -0.67079,-0.319659 -0.67079,-0.710365 z m -8.175019,-0.418633 c 0.484221,-0.193692 1.06275,-0.169864 1.285642,0.05297 0.222845,0.222845 -0.173402,0.38145 -0.880373,0.352316 -0.781422,-0.0322 -0.940354,-0.191146 -0.405269,-0.40525 z M 39.933209,90.120025 c 0.227914,-0.368928 0.716422,-0.670762 1.085344,-0.670762 0.368922,0 0.484223,0.301834 0.256207,0.670762 -0.227915,0.368918 -0.716396,0.67079 -1.085318,0.67079 -0.368923,0 -0.484223,-0.301872 -0.256233,-0.67079 z m 15.427749,-1.341524 c 0.227918,-0.368928 0.547683,-0.67079 0.71036,-0.67079 0.16276,0 0.295806,0.301862 0.295806,0.67079 0,0.368919 -0.319662,0.670762 -0.710359,0.670762 -0.390697,0 -0.523827,-0.301843 -0.295807,-0.670762 z m -0.854439,-1.72974 c 0.636845,-0.664884 1.302253,-1.064509 1.478734,-0.888038 0.176444,0.176453 -0.344585,0.720458 -1.157874,1.208889 -1.412847,0.84845 -1.427148,0.834178 -0.32086,-0.320851 z m -12.896378,0.124473 c 0,-0.145016 0.468455,-0.443377 1.041004,-0.663078 0.596938,-0.22918 0.866176,-0.116621 0.631188,0.263603 -0.393919,0.637379 -1.672192,0.942741 -1.672192,0.399475 z m 7.431454,-2.139987 c 0.03219,-0.781393 0.191155,-0.940354 0.405249,-0.40525 0.193692,0.48422 0.169864,1.062759 -0.05297,1.285651 -0.222845,0.222845 -0.381422,-0.173411 -0.352297,-0.880401 z"
       id="path847"
       sodipodi:nodetypes="ssssssssssscssscsssssssscsssscssscssscssssssssscssssssssssssssssssscsssssssssssssssssssssssssssssssssssssscssssscsssscsssssssccccssssscccssssssssssscssssssscsssscsccscsscssscsccssssssscssscscccsscssssscsscsssssssssscssssssscssssssssssssssssscsscsssssssscsssscsccssssssssssscssssssssssssssssscsssssssssssssccsssssccssscssscsscsscssssssscscsccsssccccssscssssssssssssscssssssssssssssssssssssssscsssssssssssssssssssssssssscssccccccssssssssssssssssssccscccsssscsssssssssssssssssssssssssssssssssssssssssss" />
  </g>
</svg>
