<?xml version="1.0" encoding="UTF-8" standalone="no"?>
<svg
   xmlns:dc="http://purl.org/dc/elements/1.1/"
   xmlns:cc="http://creativecommons.org/ns#"
   xmlns:rdf="http://www.w3.org/1999/02/22-rdf-syntax-ns#"
   xmlns:svg="http://www.w3.org/2000/svg"
   xmlns="http://www.w3.org/2000/svg"
   xmlns:sodipodi="http://sodipodi.sourceforge.net/DTD/sodipodi-0.dtd"
   xmlns:inkscape="http://www.inkscape.org/namespaces/inkscape"
   width="2000mm"
   height="555mm"
   viewBox="0 0 2000 555"
   version="1.1"
   id="svg108"
   inkscape:version="1.0.2 (e86c870879, 2021-01-15, custom)"
   sodipodi:docname="полоска 3.svg">
  <defs
     id="defs102">
    <path
       id="SVGID_1_"
       d="m 71.6,5 h 58.9 C 184.3,5 197,17.8 197,71.6 v 58.9 c 0,53.8 -12.8,66.5 -66.6,66.5 H 71.5 C 17.7,197 5,184.2 5,130.4 V 71.5 C 5,17.8 17.8,5 71.6,5 Z" />
    <path
       id="SVGID_1_-3"
       d="m 71.6,5 h 58.9 C 184.3,5 197,17.8 197,71.6 v 58.9 c 0,53.8 -12.8,66.5 -66.6,66.5 H 71.5 C 17.7,197 5,184.2 5,130.4 V 71.5 C 5,17.8 17.8,5 71.6,5 Z" />
    <radialGradient
       id="0"
       cx="332.14001"
       cy="2511.8101"
       r="3263.54"
       gradientUnits="userSpaceOnUse">
      <stop
         offset=".09"
         stop-color="#fa8f21"
         id="stop178" />
      <stop
         offset=".78"
         stop-color="#d82d7e"
         id="stop180" />
    </radialGradient>
    <radialGradient
       id="1"
       cx="1516.14"
       cy="2623.8101"
       r="2572.1201"
       gradientUnits="userSpaceOnUse">
      <stop
         offset=".64"
         stop-color="#8c3aaa"
         stop-opacity="0"
         id="stop183" />
      <stop
         offset="1"
         stop-color="#8c3aaa"
         id="stop185" />
    </radialGradient>
    <style
       id="style47">
      .cls-1 {
        fill: #fff;
        fill-rule: evenodd;
      }
    </style>
    <style
       id="style74">
      .cls-1 {
        fill: #fff;
        fill-rule: evenodd;
      }
    </style>
    <style
       id="style87">
      .cls-1 {
        fill: #fff;
        fill-rule: evenodd;
      }
    </style>
    <filter
       style="color-interpolation-filters:sRGB"
       inkscape:label="Drop Shadow"
       id="filter396"
       x="-0.026280046"
       y="-0.072640181"
       width="1.056545"
       height="1.7198356">
      <feFlood
         flood-opacity="0.560784"
         flood-color="rgb(124,124,69)"
         result="flood"
         id="feFlood386" />
      <feComposite
         in="flood"
         in2="SourceGraphic"
         operator="in"
         result="composite1"
         id="feComposite388" />
      <feGaussianBlur
         in="composite1"
         stdDeviation="1.82927"
         result="blur"
         id="feGaussianBlur390" />
      <feOffset
         dx="1.52439"
         dy="3.04878"
         result="offset"
         id="feOffset392" />
      <feComposite
         in="SourceGraphic"
         in2="offset"
         operator="over"
         result="composite2"
         id="feComposite394" />
    </filter>
  </defs>
  <sodipodi:namedview
     id="base"
     pagecolor="#ffffff"
     bordercolor="#666666"
     borderopacity="1.0"
     inkscape:pageopacity="0.0"
     inkscape:pageshadow="2"
     inkscape:zoom="0.071381579"
     inkscape:cx="4500.6684"
     inkscape:cy="-934.64027"
     inkscape:document-units="mm"
     inkscape:current-layer="layer1"
     inkscape:document-rotation="0"
     showgrid="false"
     inkscape:window-width="1379"
     inkscape:window-height="774"
     inkscape:window-x="138"
     inkscape:window-y="213"
     inkscape:window-maximized="0" />
  <metadata
     id="metadata105">
    <rdf:RDF>
      <cc:Work
         rdf:about="">
        <dc:format>image/svg+xml</dc:format>
        <dc:type
           rdf:resource="http://purl.org/dc/dcmitype/StillImage" />
        <dc:title></dc:title>
      </cc:Work>
    </rdf:RDF>
  </metadata>
  <g
     inkscape:label="Слой 1"
     inkscape:groupmode="layer"
     id="layer1">
    <path
       id="Прямоугольник_1-0"
       data-name="Прямоугольник 1"
       class="cls-1"
       d="m -278.76658,-123.39965 h 472.28124 a 3.9751,3.9751 0 0 1 0,7.94994 c 0,0 -56.65522,-10.24229 -55.5625,3.9751 1.09273,14.217384 -143.8856976,-18.21339 -132.9531176,5.29987 10.9325796,23.513253 -127.8691624,-19.11774 -143.1755724,-9.27497 -15.30641,9.84276 -63.05735,-3.84863 -59.23068,9.27497 3.82667,13.123595 -81.35937,-9.27497 -81.35937,-9.27497 a 3.9751,3.9751 0 0 1 0,-7.94994 z"
       style="stroke-width:0.264583" />
    <path
       id="Прямоугольник_1"
       data-name="Прямоугольник 1"
       class="cls-1"
       d="m 730.76425,248.54134 h 472.28125 a 3.9751,3.9751 0 0 1 0,7.94993 c 0,0 -56.6552,-10.24228 -55.5625,3.9751 1.0927,14.21739 -143.8857,-18.21338 -132.9531,5.29987 10.9326,23.51326 -127.86918,-19.11773 -143.17559,-9.27497 -15.30641,9.84277 -63.05735,-3.84863 -59.23068,9.27497 3.82667,13.1236 -81.35938,-9.27497 -81.35938,-9.27497 a 3.9751,3.9751 0 0 1 0,-7.94993 z"
       style="fill:#ffffff;stroke-width:0.0570493;filter:url(#filter396)"
       transform="matrix(3.8743738,0,0,5.551637,-2734.6897,-1223.2007)" />
  </g>
  <style
     id="style110">.st0{clip-path:url(#SVGID_2_);fill:#5181b8}.st1{fill-rule:evenodd;clip-rule:evenodd;fill:#fff}</style>
  <style
     id="style144">.st0{clip-path:url(#SVGID_2_);fill:#5181b8}.st1{fill-rule:evenodd;clip-rule:evenodd;fill:#fff}</style>
</svg>
