<?xml version="1.0" encoding="UTF-8" standalone="no"?>
<svg
   xmlns:dc="http://purl.org/dc/elements/1.1/"
   xmlns:cc="http://creativecommons.org/ns#"
   xmlns:rdf="http://www.w3.org/1999/02/22-rdf-syntax-ns#"
   xmlns:svg="http://www.w3.org/2000/svg"
   xmlns="http://www.w3.org/2000/svg"
   xmlns:sodipodi="http://sodipodi.sourceforge.net/DTD/sodipodi-0.dtd"
   xmlns:inkscape="http://www.inkscape.org/namespaces/inkscape"
   width="111mm"
   height="111mm"
   viewBox="0 0 111 111"
   version="1.1"
   id="svg94"
   inkscape:version="1.0.2 (e86c870879, 2021-01-15, custom)"
   sodipodi:docname="рисунок цветы A - 1.svg">
  <defs
     id="defs88" />
  <sodipodi:namedview
     id="base"
     pagecolor="#ffffff"
     bordercolor="#666666"
     borderopacity="1.0"
     inkscape:pageopacity="0.0"
     inkscape:pageshadow="2"
     inkscape:zoom="0.98994949"
     inkscape:cx="36.98449"
     inkscape:cy="212.56434"
     inkscape:document-units="mm"
     inkscape:current-layer="layer1"
     inkscape:document-rotation="0"
     showgrid="false"
     inkscape:window-width="1423"
     inkscape:window-height="914"
     inkscape:window-x="112"
     inkscape:window-y="194"
     inkscape:window-maximized="0" />
  <metadata
     id="metadata91">
    <rdf:RDF>
      <cc:Work
         rdf:about="">
        <dc:format>image/svg+xml</dc:format>
        <dc:type
           rdf:resource="http://purl.org/dc/dcmitype/StillImage" />
        <dc:title></dc:title>
      </cc:Work>
    </rdf:RDF>
  </metadata>
  <g
     inkscape:label="Слой 1"
     inkscape:groupmode="layer"
     id="layer1"
     style="opacity:1;mix-blend-mode:normal">
    <path
       style="fill:#000000;stroke-width:1"
       d="m 78.806835,106.46218 c 0.172074,-0.66752 1.122632,-4.16281 2.112353,-7.767359 3.313726,-12.068497 5.265662,-23.30203 4.048954,-23.30203 -0.330876,0 -0.606238,0.273071 -0.61191,0.606825 -0.0231,1.358541 -1.540072,10.967166 -2.088499,13.228759 -0.552565,2.278663 -4.220416,10.135726 -4.578192,9.807156 -0.09024,-0.0829 0.534434,-1.77726 1.388174,-3.76528 3.252709,-7.574267 1.125893,-15.980559 -4.35809,-17.225435 -1.250596,-0.283891 -1.453646,-0.182397 -1.453646,0.72662 v 1.056602 L 71.725115,78.82039 c -1.246939,-0.815435 -1.808077,-0.914348 -2.941704,-0.518519 -0.770459,0.269022 -1.482022,0.489134 -1.581239,0.489134 -0.442993,0 0.438118,-1.966925 1.11078,-2.479628 0.632242,-0.481891 0.582748,-0.675458 -0.321419,-1.257076 -1.509789,-0.971195 -1.325799,-1.695001 0.38491,-1.514226 1.011442,0.106881 1.614446,-0.130088 1.982244,-0.778972 0.89339,-1.576164 1.850096,-1.491388 1.850096,0.16394 0,1.263329 0.201284,1.49683 1.290298,1.49683 1.84345,0 2.177387,0.867832 0.589604,1.532235 -1.856116,0.776686 -1.694973,1.213255 0.593341,1.607511 3.407172,0.587022 6.498152,4.493773 6.509982,8.22809 0.007,2.230082 0.78544,-0.10012 1.390516,-4.162778 0.562884,-3.779358 0.547601,-4.526255 -0.104888,-5.125497 -0.420087,-0.385804 -0.638642,-0.887434 -0.485675,-1.11474 0.152965,-0.227307 -0.380052,-0.506557 -1.18449,-0.620558 -1.403191,-0.198858 -1.414497,-0.222169 -0.278328,-0.5739 0.962218,-0.297882 1.120829,-0.606557 0.845895,-1.646235 -0.328773,-1.243285 -0.308654,-1.255465 0.708713,-0.429 1.404128,1.140649 1.754202,0.675104 1.754202,-2.332801 0,-2.415669 -0.07046,-2.543515 -1.50873,-2.737377 -1.284574,-0.17315 -1.600339,0.01699 -2.12529,1.279912 -0.499403,1.201429 -0.713396,1.344906 -1.126168,0.755088 -0.773688,-1.105536 -0.624249,-2.908531 0.2671,-3.222657 0.951547,-0.335346 1.079737,-1.800655 0.13215,-1.510569 -0.363412,0.111252 -0.660748,0.446219 -0.660748,0.74437 0,1.055048 -1.232238,1.687392 -2.650938,1.360377 -1.160559,-0.267508 -1.294812,-0.448258 -0.76688,-1.032465 0.351989,-0.389504 1.112034,-0.708188 1.689,-0.708188 0.79175,0 0.955631,-0.208354 0.668206,-0.849553 -0.74783,-1.66827 -0.905807,-2.548427 -0.454685,-2.533222 0.764195,0.02578 2.308195,1.26898 2.308195,1.858551 0,0.304319 0.475739,0.116393 1.057196,-0.417612 1.924608,-1.767537 2.540948,-1.114366 1.375208,1.457377 -0.200825,0.443035 0.08679,0.96854 0.732929,1.339124 1.03599,0.594188 1.063455,0.496999 1.063455,-3.763308 0,-2.405285 -0.13457,-4.373243 -0.299049,-4.373243 -0.164479,0 -0.759153,0.226141 -1.321497,0.502537 -0.796233,0.391353 -1.022447,0.343992 -1.022447,-0.214077 0,-0.39414 0.242982,-0.854535 0.539963,-1.023096 0.318043,-0.180522 0.04646,-0.704473 -0.660747,-1.274859 l -1.200712,-0.968375 1.453646,0.207967 c 0.867563,0.124117 1.453647,-0.01501 1.453647,-0.345011 0,-0.30414 0.475737,-0.927076 1.057196,-1.384307 1.023308,-0.804677 1.057198,-0.784798 1.057198,0.620301 0,1.017595 0.257379,1.451625 0.860817,1.451625 0.75126,0 0.820702,-0.509714 0.545646,-4.005038 -0.173339,-2.20277 -0.443235,-5.950386 -0.599774,-8.328034 -0.156535,-2.377649 -0.540667,-4.606345 -0.853619,-4.95266 -0.312957,-0.346314 -0.410773,-1.087543 -0.21737,-1.647173 0.199197,-0.576397 0.061,-1.339137 -0.318786,-1.759402 -0.542834,-0.600694 -0.538421,-0.816822 0.02321,-1.13559 0.550245,-0.312314 0.441231,-0.857823 -0.527378,-2.638988 -0.671548,-1.234911 -1.355781,-2.056856 -1.520508,-1.826545 -0.313349,0.438076 -2.391264,1.535016 -2.907769,1.535016 -0.76854,0 -0.1671,-1.621688 0.998422,-2.692092 0.844765,-0.775821 1.039659,-1.191581 0.55857,-1.191581 -0.684069,0 -2.38464,-1.760011 -2.38464,-2.467994 0,-0.591644 2.910718,0.157182 3.568041,0.917933 0.573788,0.664075 0.660749,0.602683 0.660749,-0.46648 0,-0.677155 0.447183,-1.60286 0.993743,-2.057123 0.945759,-0.78605 1.010184,-0.765762 1.334288,0.420181 0.187299,0.685361 0.09141,1.673624 -0.213077,2.196142 -0.450366,0.772838 -0.403236,0.897032 0.252691,0.665872 0.981787,-0.346 3.446938,0.170922 3.446938,0.722794 0,0.521403 -2.602137,1.605542 -3.131893,1.304855 -0.389884,-0.221297 -0.190243,4.160342 0.247812,5.438882 0.318206,0.928747 1.142169,0.722056 1.451448,-0.364094 0.442394,-1.553655 1.585874,-1.178968 1.327924,0.435125 -0.157544,0.985819 -0.02707,1.3364 0.436495,1.173024 0.36366,-0.128161 1.086736,-0.01431 1.606834,0.252995 0.861891,0.442974 0.825211,0.536403 -0.414147,1.055006 -1.04727,0.438228 -1.303799,0.837926 -1.116203,1.739177 0.298858,1.435792 -0.605717,1.525782 -1.644603,0.16361 -1.135071,-1.488289 -1.413764,-0.5235 -0.861822,2.98349 0.270108,1.716222 0.495883,3.36318 0.501729,3.659907 0.0059,0.302667 0.554131,0.444088 1.248698,0.322148 0.705775,-0.123907 1.598594,0.113757 2.076637,0.55278 1.108148,1.01771 2.092986,0.980861 1.872614,-0.07006 -0.109278,-0.521134 -0.669085,-0.843752 -1.474145,-0.849554 -0.846864,-0.0061 -1.53124,-0.431148 -1.969178,-1.223 -0.753121,-1.361749 -0.899992,-2.912755 -0.275818,-2.912755 0.834229,0 2.850457,1.591969 3.293661,2.600604 0.357232,0.812986 0.464458,0.857404 0.490639,0.203253 0.03283,-0.820402 3.044005,-2.628169 3.571205,-2.143991 0.42802,0.393086 -0.89072,3.622856 -1.58518,3.882315 -0.37807,0.141254 -0.29715,0.251121 0.20189,0.274085 0.86175,0.03965 3.13158,1.983191 3.13158,2.681409 0,0.217767 -1.07041,0.285136 -2.37869,0.149709 -2.175541,-0.225202 -2.378698,-0.155596 -2.378698,0.814997 0,0.583677 -0.327271,1.472271 -0.727267,1.974655 -0.689156,0.865559 -0.773096,0.832031 -1.601838,-0.639786 -0.624999,-1.109975 -0.727241,-1.806035 -0.358296,-2.439161 0.472594,-0.81098 0.373313,-0.844873 -1.173303,-0.40055 l -1.689581,0.485396 0.181954,6.351808 c 0.199668,6.969935 0.783823,8.519724 2.831877,7.513095 0.869609,-0.427422 1.003772,-0.360773 0.858545,0.426501 -0.09467,0.513193 0.154325,1.294325 0.553315,1.735851 0.642523,0.711008 0.571426,0.802765 -0.622017,0.802765 -0.836793,0 -1.441081,0.321971 -1.594491,0.849553 -0.209204,0.71948 -0.305515,0.682318 -0.629006,-0.242729 -0.53649,-1.534109 -1.315877,-1.360213 -1.315877,0.293596 0,0.762233 -0.245048,4.157326 -0.544547,7.544646 -0.475126,5.373609 -0.439557,6.255188 0.279037,6.915131 0.696587,0.639738 0.957709,0.655364 1.693408,0.101338 0.768296,-0.578576 0.834647,-0.529618 0.568433,0.419398 -0.170763,0.60874 -0.0027,1.302171 0.387965,1.599864 0.542026,0.413126 0.805151,0.02786 1.231128,-1.802627 1.162197,-4.994126 2.259309,-13.331648 2.669899,-20.290034 0.23633,-4.005037 0.46821,-6.298832 0.51529,-5.09732 0.13926,3.553909 0.53884,4.369132 2.14149,4.369132 0.78014,0 1.70387,0.262148 2.05275,0.58255 0.49335,0.453094 0.63432,0.28748 0.63432,-0.745267 0,-0.7303 0.40297,-1.892655 0.895508,-2.583002 l 0.89551,-1.255183 0.68079,1.805932 c 0.80266,2.129228 0.18905,3.651347 -1.47198,3.651347 -0.721598,0 -1.020908,0.267249 -0.906438,0.809323 0.2813,1.33208 1.448968,1.300637 2.009818,-0.05412 0.64764,-1.564435 1.5984,-1.92501 3.98953,-1.51304 l 1.85601,0.319772 -1.53984,1.189948 c -0.84691,0.654472 -1.90767,1.189947 -2.35723,1.189947 -0.72314,0 -0.72995,0.153954 -0.0591,1.335012 0.89884,1.582447 0.9924,3.03412 0.19555,3.03412 -0.31309,0 -1.23704,-0.613275 -2.05321,-1.362839 l -1.483938,-1.362839 -1.17387,1.12011 c -1.32138,1.260868 -2.6487,1.473106 -2.6487,0.423524 0,-1.376316 1.01536,-3.109609 1.95223,-3.332599 0.87234,-0.207631 0.8671,-0.232196 -0.0605,-0.283635 -0.55856,-0.03097 -1.43545,-0.405285 -1.94863,-0.831805 -0.87164,-0.72445 -0.95106,-0.668535 -1.20661,0.849554 -0.15045,0.893773 -0.41537,3.26347 -0.58872,5.265988 -0.17335,2.002519 -0.45697,4.077527 -0.63027,4.611134 -0.23518,0.724095 0.24784,0.503105 1.90424,-0.87122 2.24599,-1.863517 4.14305,-2.772899 5.766518,-2.764253 0.48985,0.0024 -0.344,0.532665 -1.852998,1.177909 -3.02537,1.293631 -5.63531,4.111396 -6.508848,7.027122 -0.709553,2.36837 -3.170787,12.782143 -3.164624,13.389869 0.0027,0.268809 0.690292,-0.608528 1.527914,-1.949642 1.691379,-2.708046 5.333178,-6.263909 7.440098,-7.264522 0.75418,-0.358172 2.314488,-0.783273 3.467368,-0.944669 2.07192,-0.290057 2.0666,-0.28396 -0.46046,0.527966 -5.015298,1.611384 -8.499448,5.719126 -14.953795,17.630222 -4.954084,9.142459 -7.222844,12.386789 -3.574357,5.111319 2.625982,-5.236469 6.201835,-14.745768 6.800019,-18.083343 0.301148,-1.68028 0.218871,-2.063201 -0.443315,-2.063201 -0.447204,0 -1.058984,0.382299 -1.359512,0.849553 -0.49868,0.775337 -0.575628,0.754128 -0.880815,-0.242729 -0.183921,-0.600756 -0.503168,-1.092283 -0.709448,-1.092283 -0.206275,0 -0.900812,2.457637 -1.543418,5.461415 -1.255337,5.867925 -4.22642,15.557928 -5.619013,18.326078 -0.554231,1.10167 -0.74478,1.27237 -0.541925,0.48546 z m 9.259904,-25.162968 c 0,-0.222506 -0.346343,-0.404553 -0.769644,-0.404553 -0.423308,0 -0.647137,0.182047 -0.497401,0.404553 0.14973,0.222501 0.496073,0.404548 0.769645,0.404548 0.273571,0 0.4974,-0.182047 0.4974,-0.404548 z M 71.151585,75.635521 c 0,-0.400504 -0.237869,-0.728188 -0.528599,-0.728188 -0.290729,0 -0.528598,0.327684 -0.528598,0.728188 0,0.400504 0.237869,0.728189 0.528598,0.728189 0.29073,0 0.528599,-0.327685 0.528599,-0.728189 z m 15.27199,-13.2882 c 0.05201,-6.326892 -0.02098,-6.917505 -0.783389,-6.336415 -0.646011,0.492385 -0.774127,1.208943 -0.553114,3.093558 0.158204,1.349008 0.105507,5.183451 -0.117112,8.520982 -0.27263,4.087357 -0.221488,6.292312 0.156666,6.754668 0.776713,0.94965 1.224351,-3.203442 1.296954,-12.032793 z m -3.114223,11.860474 c 0,-0.117743 -0.237869,-0.349093 -0.528598,-0.514111 -0.29073,-0.165017 -0.528599,-0.06868 -0.528599,0.214078 0,0.282761 0.237869,0.514111 0.528599,0.514111 0.290729,0 0.528598,-0.09633 0.528598,-0.214078 z m 6.343183,-11.43694 c 0,-0.267003 -0.1049,-0.485459 -0.233101,-0.485459 -0.128206,0 -0.380116,0.218456 -0.559796,0.485459 -0.179681,0.267002 -0.07479,0.485459 0.2331,0.485459 0.307888,0 0.559797,-0.218457 0.559797,-0.485459 z m -5.814584,-6.796427 c 0,-0.267003 -0.237869,-0.48546 -0.528599,-0.48546 -0.290729,0 -0.528598,0.218457 -0.528598,0.48546 0,0.267002 0.237869,0.485458 0.528598,0.485458 0.29073,0 0.528599,-0.218456 0.528599,-0.485458 z m 3.70019,-20.874742 c 0,-0.267002 -0.23787,-0.485458 -0.528598,-0.485458 -0.29073,0 -0.528599,0.218456 -0.528599,0.485458 0,0.267004 0.237869,0.48546 0.528599,0.48546 0.290728,0 0.528598,-0.218456 0.528598,-0.48546 z m -3.70019,-8.766913 c 0,-0.251245 -0.356804,-0.456809 -0.792898,-0.456809 -0.81743,0 -1.050166,0.572824 -0.454869,1.11954 0.422312,0.387848 1.247767,-0.05058 1.247767,-0.662731 z m 13.743561,51.758695 c 0,-0.384746 0.24298,-0.837456 0.53997,-1.006017 0.31804,-0.180522 0.0464,-0.704473 -0.66075,-1.274859 l -1.20071,-0.968374 1.41318,0.200864 c 1.04255,0.148181 1.48014,-0.03428 1.66846,-0.69563 0.3424,-1.202487 1.411438,-1.14612 1.411438,0.07442 0,0.73317 0.3524,0.970918 1.43912,0.970918 h 1.43911 l -1.19617,0.769458 c -0.81879,0.526694 -1.09482,1.062757 -0.8749,1.699107 0.36174,1.046713 -0.27317,1.225876 -1.23004,0.347099 -0.493348,-0.453094 -0.775278,-0.453094 -1.268628,0 -0.85391,0.784215 -1.48008,0.734717 -1.48008,-0.116986 z M 73.794578,56.463538 c -0.436094,-0.256823 -1.22784,-0.342541 -1.75944,-0.19049 -0.738114,0.211122 -0.925507,0.05403 -0.792924,-0.66469 0.09549,-0.517635 -0.152839,-1.302395 -0.551831,-1.74392 -0.636602,-0.704455 -0.586015,-0.802765 0.413068,-0.802765 0.626183,0 1.275429,-0.327685 1.442773,-0.728188 0.439593,-1.052062 1.248354,-0.894805 1.248354,0.242729 0,0.727577 0.364326,0.979152 1.453646,1.003774 1.420826,0.03213 1.427,0.04467 0.273476,0.555884 -0.896313,0.397228 -1.105025,0.798003 -0.867742,1.666252 0.34825,1.27431 0.275907,1.329987 -0.85938,0.661414 z m 27.734712,-4.681497 c -0.18664,-0.570292 -0.85391,-1.255525 -1.48282,-1.522736 -1.128558,-0.479508 -1.125558,-0.490164 0.22978,-0.817669 1.14519,-0.276717 1.32994,-0.547883 1.11246,-1.632743 -0.25422,-1.268079 -0.2341,-1.279178 0.79685,-0.43966 0.60255,0.490664 1.43172,0.729428 1.92699,0.554886 0.9547,-0.336455 1.20877,0.518463 0.30631,1.030696 -0.36645,0.207994 -0.22802,0.66641 0.39645,1.31292 0.94209,0.975339 0.93393,0.989026 -0.44988,0.755089 -1.06173,-0.179489 -1.54345,0.01264 -1.95307,0.778933 l -0.54371,1.017187 z m -22.961213,-2.57639 c -0.344366,-0.59094 -0.490365,-1.399336 -0.324444,-1.796436 0.226341,-0.541691 0.03848,-0.645283 -0.75219,-0.414811 -0.57963,0.168953 -1.574077,0.155556 -2.209886,-0.02977 -1.116141,-0.325339 -1.121776,-0.359956 -0.163268,-1.003633 0.546011,-0.366668 1.470593,-0.66667 2.054631,-0.66667 0.825909,0 0.920924,-0.129456 0.427567,-0.582551 -0.750615,-0.689358 -0.853088,-2.815663 -0.135691,-2.815663 0.274243,0 0.85411,0.466112 1.288603,1.035804 0.730924,0.95838 0.85452,0.976524 1.653524,0.242729 1.170777,-1.07523 2.436375,-1.039683 2.010884,0.05649 -0.181372,0.467253 -0.546068,1.107389 -0.810436,1.422521 -0.320547,0.382095 -0.117112,0.751658 0.610652,1.109363 0.600235,0.295017 1.091329,0.883701 1.091329,1.308186 0,0.598633 -0.355784,0.70644 -1.585795,0.480515 -1.270069,-0.233284 -1.587409,-0.12455 -1.593889,0.546141 -0.0042,0.46058 -0.216757,1.140001 -0.471784,1.509826 -0.368862,0.534905 -0.591725,0.452692 -1.089807,-0.402028 z m 1.120376,-3.668594 c 0,-0.253652 -0.255711,-0.539467 -0.568244,-0.635142 -0.312534,-0.09568 -0.568244,0.190138 -0.568244,0.635142 0,0.445005 0.25571,0.730819 0.568244,0.635142 0.312533,-0.09568 0.568244,-0.381489 0.568244,-0.635142 z M 66.394198,40.50042 c 0,-1.162406 -0.265065,-1.444383 -1.585795,-1.686971 -0.872188,-0.160202 -1.585797,-0.500472 -1.585797,-0.756157 0,-0.561395 2.067983,-1.259311 3.171592,-1.070371 0.636571,0.10898 0.662625,0.0129 0.13215,-0.487377 -0.363412,-0.342717 -0.660749,-1.268659 -0.660749,-2.057648 0,-1.403775 0.02268,-1.41569 1.057198,-0.555857 0.581458,0.483268 1.057197,1.162335 1.057197,1.509039 0,0.474273 0.384238,0.427844 1.55167,-0.187491 1.929458,-1.016983 2.569903,-0.528106 1.419862,1.083836 -0.83001,1.163375 -0.814417,1.274796 0.324845,2.321081 l 1.19671,1.099044 -1.250314,0.162466 c -0.68767,0.08936 -1.506697,-0.073 -1.82006,-0.360786 -0.40727,-0.374031 -0.759471,-0.108864 -1.235013,0.929817 -0.844099,1.843682 -1.773496,1.873748 -1.773496,0.05738 z m 2.154039,-3.106939 c -0.06538,-0.580464 -0.790408,-0.468048 -1.017552,0.157775 -0.116287,0.320402 0.074,0.495167 0.422879,0.388367 0.348875,-0.1068 0.616478,-0.352565 0.594673,-0.546142 z m -21.450591,1.58586 c -0.198616,-0.295143 -0.21026,-1.088652 -0.02588,-1.763356 0.212066,-0.77598 0.137842,-1.114684 -0.202,-0.921791 -0.295488,0.167718 -1.152509,0.0089 -1.904491,-0.352963 l -1.367238,-0.657905 1.394314,-0.583446 c 0.766874,-0.320896 1.623895,-0.453138 1.904491,-0.293873 0.30697,0.174234 0.376643,-0.19904 0.174924,-0.93716 -0.184386,-0.674702 -0.172742,-1.468212 0.02588,-1.763356 0.516273,-0.767172 1.8528,0.343232 1.8528,1.539329 0,0.873386 0.0821,0.886195 1.174813,0.183288 2.282845,-1.468472 3.431373,-0.616856 1.526912,1.13218 -0.978885,0.898998 -0.97687,0.936809 0.10279,1.928351 1.404276,1.28967 0.78342,1.880989 -1.238888,1.17995 -1.231664,-0.42696 -1.565622,-0.409074 -1.565622,0.08385 0,0.95483 -1.408314,1.8874 -1.8528,1.226902 z m 2.260262,-3.78863 c 0.115087,-0.317066 -0.16739,-0.576483 -0.627711,-0.576483 -0.460322,0 -0.836947,0.34589 -0.836947,0.768643 0,0.857286 1.137945,0.707989 1.464658,-0.19216 z m 7.742702,2.836851 c -1.623632,-0.603224 -3.921377,-3.317727 -3.921377,-4.632626 0,-3.05806 2.703169,-6.26407 5.960848,-7.069683 1.125688,-0.278379 2.326368,-0.413774 2.668171,-0.300876 0.341802,0.112899 -0.389488,0.461794 -1.625088,0.775327 -1.235598,0.313534 -2.246543,0.743687 -2.246543,0.955898 0,0.773552 0.690434,0.987734 1.655295,0.513496 1.055105,-0.518589 1.449022,0.200475 0.427468,0.780304 -0.354045,0.200954 -0.208136,0.563153 0.396449,0.984129 0.90459,0.629875 0.894029,0.666986 -0.193911,0.681585 -0.639393,0.0086 -1.260338,0.392884 -1.397614,0.864992 -0.212175,0.729689 -0.299574,0.700182 -0.619444,-0.209137 -0.225596,-0.641321 -0.664465,-0.955766 -1.113229,-0.797615 -0.840948,0.296368 -1.020534,-0.597649 -0.212211,-1.056449 0.687681,-0.390324 0.68241,-1.213648 -0.0078,-1.213648 -0.982105,0 -2.631243,3.130139 -2.633246,4.998023 -0.0028,2.632396 1.84094,4.225701 4.889965,4.225701 1.26335,0 2.528007,-0.163843 2.810353,-0.364095 0.282341,-0.200251 0.06569,0.01821 -0.481442,0.485459 -1.063674,0.908378 -2.57768,1.040161 -4.356673,0.379215 z m 16.175529,-3.030114 c -2.647004,-4.191274 -6.924753,-8.14861 -8.818525,-8.157999 -0.971976,-0.0048 -1.261633,-0.145949 -0.823557,-0.401259 0.804004,-0.468574 -0.535507,-1.104295 -5.886596,-2.793725 -3.621988,-1.143522 -9.422482,-2.005482 -15.404497,-2.289123 -1.882588,-0.08927 -1.023253,-0.180806 2.114395,-0.22524 9.250695,-0.131001 16.90244,1.784724 22.332379,5.591232 1.236101,0.866531 2.247453,1.495193 2.247453,1.397024 0,-0.09817 -0.323534,-1.025165 -0.718968,-2.059993 -0.997133,-2.609466 -1.458848,-6.8914 -0.961907,-8.920664 0.328741,-1.342397 0.425406,-0.883771 0.460457,2.184566 0.0481,4.210127 1.336583,8.355471 3.553351,11.431854 1.514709,2.102086 4.144788,6.815046 3.913638,7.013042 -0.09223,0.079 -0.995658,-1.167371 -2.007623,-2.769715 z m 4.701441,2.044075 c -0.04366,-0.400503 -0.05123,-0.892031 -0.01681,-1.092283 0.03443,-0.200252 -0.413142,-0.364094 -0.994601,-0.364094 -0.581459,0 -1.057198,-0.218456 -1.057198,-0.48546 0,-0.428693 0.689357,-0.667039 1.639655,-0.566914 0.174988,0.01844 0.19611,-0.556448 0.04694,-1.277524 -0.252104,-1.218674 -0.203626,-1.259741 0.688098,-0.582886 0.527622,0.400489 1.398508,0.659828 1.9353,0.57631 1.115047,-0.173487 1.273051,0.413099 0.341676,1.268464 -0.42437,0.389736 -0.443087,0.58255 -0.05656,0.58255 0.317772,0 0.725686,0.354013 0.906472,0.786696 0.258723,0.61919 0.08227,0.727508 -0.828737,0.508718 -0.746597,-0.179307 -1.40013,0.01533 -1.84114,0.548317 -0.569977,0.688863 -0.696899,0.70518 -0.7631,0.0981 z m 1.631583,-2.155915 c 0,-0.117744 -0.23787,-0.349093 -0.528599,-0.51411 -0.290729,-0.165016 -0.528599,-0.06868 -0.528599,0.21408 0,0.28276 0.23787,0.514108 0.528599,0.514108 0.290729,0 0.528599,-0.09634 0.528599,-0.214078 z M 44.721658,30.47942 c 0,-0.470512 -0.416272,-1.145682 -0.925048,-1.500379 -0.8566,-0.597185 -0.837044,-0.646045 0.264299,-0.660342 0.757483,-0.0099 1.204501,-0.323921 1.231079,-0.864993 0.02493,-0.507517 0.149073,-0.605241 0.308349,-0.242729 0.14664,0.333752 0.751659,0.606824 1.344489,0.606824 0.853959,0 0.952723,0.138489 0.475429,0.666658 -0.331344,0.36666 -0.438981,1.057868 -0.239194,1.536014 0.255436,0.611333 0.172828,0.761274 -0.278335,0.505197 -0.352871,-0.200288 -0.987967,-0.100143 -1.411326,0.222533 -0.624398,0.475914 -0.769742,0.425162 -0.769742,-0.268783 z M 32.959015,30.374383 c -0.113583,-0.204608 -0.246951,-0.98005 -0.296362,-1.723207 -0.116542,-1.752795 -1.212929,-3.666048 -3.087254,-5.387408 -1.32704,-1.218739 -1.777224,-1.348312 -3.887165,-1.118815 -6.470109,0.703751 -10.731473,3.60054 -8.581245,5.833358 0.89415,0.928493 0.878588,0.946444 -0.544814,0.628448 -1.064205,-0.237749 -1.549896,-0.124772 -1.774499,0.412768 -0.443683,1.061859 -1.253335,0.912759 -1.253335,-0.230805 0,-0.678453 -0.358261,-0.975784 -1.189347,-0.987069 l -1.189347,-0.01615 1.201794,-0.920474 c 0.660986,-0.506262 1.168023,-1.099749 1.126749,-1.318862 -0.181451,-0.963275 0.104367,-1.204132 0.799869,-0.674028 0.592561,0.451647 1.340498,0.268606 3.56804,-0.8732 1.550077,-0.794547 3.888735,-1.721758 5.197016,-2.060468 l 2.378693,-0.615837 -2.378693,-0.298417 c -4.343056,-0.544854 -7.478638,-1.875537 -7.804374,-3.312036 -0.111061,-0.489767 0.105664,-0.496021 1.057196,-0.03051 0.658291,0.32205 1.434762,0.855488 1.725491,1.185418 0.29073,0.32993 1.123273,0.74917 1.850096,0.931645 L 21.19902,20.130508 19.755707,18.9982 C 17.885,17.530591 16.170192,13.87019 15.796794,10.547563 15.505574,7.9561869 15.523195,7.9139799 16.896279,7.9139799 c 0.767497,0 1.395449,0.218456 1.395449,0.485458 0,0.267004 0.478066,0.48546 1.06237,0.48546 0.584305,0 1.469712,0.436913 1.967572,0.970918 0.49786,0.5340051 1.304805,0.9709191 1.793211,0.9709191 0.511433,0 1.122441,0.617604 1.440822,1.456376 0.304046,0.801008 0.829528,1.456377 1.167736,1.456377 0.416482,0 0.502917,0.54832 0.267844,1.699108 -0.216833,1.061492 -0.139728,1.699107 0.205471,1.699107 0.303903,0 0.552552,-0.218457 0.552552,-0.48546 0,-0.676045 1.769148,-0.608346 2.537273,0.09709 0.348875,0.320403 0.634319,1.521913 0.634319,2.670024 0,1.826811 0.148514,2.093517 1.189346,2.135865 l 1.189347,0.04839 -1.23461,0.318754 -1.234609,0.318753 1.121369,1.309247 c 1.328168,1.550693 3.247179,6.609483 2.638343,6.955056 -0.233499,0.132534 -0.517481,0.07357 -0.631069,-0.131043 z m -17.838878,-3.5275 c 0,-0.267003 -0.104901,-0.48546 -0.233103,-0.48546 -0.128208,0 -0.380115,0.218457 -0.559795,0.48546 -0.179681,0.267002 -0.07479,0.485458 0.233103,0.485458 0.307886,0 0.559795,-0.218456 0.559795,-0.485458 z m 13.728814,-8.511857 c -0.731505,-0.809476 -2.099645,-0.957005 -2.099645,-0.226407 0,0.267003 0.364269,0.485459 0.809488,0.485459 0.445218,0 0.964611,0.371253 1.154205,0.825007 0.225697,0.540157 0.419734,0.61833 0.561984,0.226408 0.119489,-0.329231 -0.07222,-0.918941 -0.426032,-1.310467 z M 24.40779,14.748134 c -0.456541,-0.463303 -0.830077,-1.098237 -0.830077,-1.410967 0,-0.312729 -0.356804,-0.568598 -0.792898,-0.568598 -0.436093,0 -0.792897,-0.218457 -0.792897,-0.48546 0,-0.267002 -0.446613,-0.485458 -0.992473,-0.485458 -0.54586,0 -1.288594,-0.327685 -1.65052,-0.728189 -0.361925,-0.400504 -0.86679,-0.728189 -1.121922,-0.728189 -0.582063,0 -0.540327,2.347825 0.06472,3.640944 0.391474,0.836662 0.460549,0.769534 0.49954,-0.48546 0.02943,-0.947134 0.195817,-1.238444 0.475862,-0.83311 0.237386,0.343588 0.82675,0.483661 1.313403,0.312155 0.613044,-0.216049 0.882785,-0.05687 0.882785,0.520955 0,0.540168 0.278159,0.734038 0.792898,0.552634 0.539324,-0.190068 0.792899,0.0262 0.792899,0.67625 0,0.525625 0.208135,0.955682 0.462524,0.955682 0.254387,0 0.652931,0.709984 0.885652,1.577742 l 0.423129,1.577742 0.208723,-1.623151 c 0.131681,-1.024024 -0.09767,-1.934083 -0.621353,-2.465522 z m 48.346401,13.73311 c -0.01031,-0.636122 -0.445176,-1.138542 -1.127195,-1.302337 -1.152186,-0.276715 -0.935291,-1.302943 0.275385,-1.302943 0.453473,0 0.611117,-0.455581 0.461946,-1.335012 l -0.226446,-1.335013 1.054428,1.102718 c 0.621071,0.64951 1.191582,0.89891 1.388147,0.606824 0.18354,-0.272742 0.684847,-0.495895 1.114011,-0.495895 0.624556,0 0.663762,0.199987 0.196422,1.00195 -0.433398,0.74372 -0.42151,1.181627 0.04614,1.699107 0.515944,0.570962 0.413528,0.697158 -0.565812,0.697158 -0.657687,0 -1.511792,0.382299 -1.898007,0.849552 -0.653813,0.790999 -0.703374,0.778171 -0.719026,-0.186109 z m 1.568986,-2.119821 c 0,-0.267003 -0.23787,-0.485459 -0.528599,-0.485459 -0.290729,0 -0.528599,0.218456 -0.528599,0.485459 0,0.267002 0.23787,0.48546 0.528599,0.48546 0.290729,0 0.528599,-0.218458 0.528599,-0.48546 z M 36.26408,27.135342 c 0,-0.39414 0.242983,-0.854533 0.539961,-1.023098 0.318043,-0.180518 0.04648,-0.704473 -0.660748,-1.274856 l -1.200709,-0.968377 1.413186,0.200865 c 1.089,0.154787 1.483095,-0.03263 1.717932,-0.816995 0.249721,-0.834075 0.393895,-0.890563 0.79848,-0.31285 0.271553,0.387756 0.376456,0.879282 0.233116,1.092283 -0.14334,0.213 0.407562,0.394541 1.224226,0.403423 1.46676,0.01596 1.471809,0.0263 0.414503,0.849554 -0.588686,0.458371 -0.982858,1.237914 -0.875937,1.732319 0.160221,0.740862 0.02552,0.812117 -0.766106,0.405258 -0.617383,-0.317308 -1.295842,-0.328841 -1.899206,-0.03228 -0.702146,0.345109 -0.938698,0.280788 -0.938698,-0.255243 z m 2.378694,-1.744837 c 0.17968,-0.267003 0.07479,-0.485459 -0.233103,-0.485459 -0.307887,0 -0.559794,0.218456 -0.559794,0.485459 0,0.267002 0.1049,0.485459 0.233102,0.485459 0.128207,0 0.380114,-0.218457 0.559795,-0.485459 z m 14.552535,1.820472 c -0.01031,-0.548287 -0.437839,-0.855029 -1.205422,-0.864993 -1.159592,-0.01505 -1.163676,-0.03327 -0.163269,-0.728188 0.664142,-0.461338 0.772912,-0.71275 0.308349,-0.71275 -0.394748,0 -0.546037,-0.157681 -0.336189,-0.350401 0.209843,-0.19272 1.498301,-0.400552 2.863243,-0.46185 1.943779,-0.0873 2.223904,-0.01474 1.292355,0.334758 -1.310634,0.49171 -1.553514,1.23255 -0.528599,1.61236 0.40487,0.150036 0.312693,0.2597 -0.238032,0.283184 -0.49433,0.02108 -1.141239,0.420625 -1.437572,0.88788 -0.513137,0.809098 -0.539556,0.809098 -0.554864,0 z M 24.106312,26.118694 c 0,-0.400505 -0.416271,-0.734832 -0.925048,-0.742951 -0.880997,-0.01405 -0.880997,-0.03833 0,-0.509582 0.508777,-0.272151 0.925048,-0.85534 0.925048,-1.295977 0,-0.592119 0.154729,-0.659057 0.593011,-0.256543 0.326156,0.299538 0.962125,0.414531 1.413265,0.25554 0.619497,-0.21832 0.730876,-0.07515 0.455067,0.584927 -0.20156,0.482391 -0.06691,1.204082 0.300535,1.610684 0.570895,0.631746 0.496898,0.687472 -0.519479,0.391213 -0.722566,-0.210617 -1.185202,-0.143203 -1.185202,0.172704 0,0.284995 -0.23787,0.518174 -0.528598,0.518174 -0.290729,0 -0.528599,-0.327685 -0.528599,-0.728189 z m 24.579835,-0.24273 c 0.872188,-0.530486 1.823666,-0.965143 2.114394,-0.965905 0.290728,-7.77e-4 -0.250226,0.434713 -1.202123,0.96772 -2.244191,1.256617 -2.978891,1.255155 -0.912271,-0.0019 z m 2.203184,-6.874913 c -0.164346,-0.577171 -0.05274,-1.47167 0.248015,-1.987774 0.465923,-0.799536 0.39915,-0.895325 -0.451314,-0.647426 -0.54898,0.160019 -1.461406,-0.0227 -2.027614,-0.406064 -1.001919,-0.678356 -0.994104,-0.70937 0.292028,-1.158926 0.726824,-0.254053 1.540322,-0.342501 1.807775,-0.196549 0.267452,0.145952 0.334486,-0.09791 0.148966,-0.541918 -0.185522,-0.444006 -0.149409,-1.273785 0.08026,-1.843952 0.416582,-1.034221 0.419998,-1.033828 1.447831,0.166207 0.77021,0.899256 1.294331,1.10813 2.076456,0.827517 1.550538,-0.556303 1.8391,-0.515968 1.8391,0.257063 0,0.385364 -0.465595,1.000162 -1.034652,1.366218 -1.027136,0.66072 -1.027136,0.671464 0,1.479153 0.569057,0.447479 1.034652,1.034192 1.034652,1.303808 0,0.657203 -1.959124,0.628228 -2.405837,-0.03559 -0.209975,-0.312019 -0.756789,0.08274 -1.344924,0.970918 -1.178108,1.779146 -1.320872,1.816473 -1.710735,0.447307 z m 2.289902,-3.562457 c 0,-0.400505 -0.223829,-0.728189 -0.4974,-0.728189 -0.666552,0 -1.143939,0.758087 -0.721627,1.145936 0.595303,0.546717 1.219027,0.332972 1.219027,-0.417747 z m -13.347112,3.116599 c -0.508776,-0.27215 -0.925048,-0.824037 -0.925048,-1.226413 0,-0.644582 -0.139725,-0.641714 -1.174813,0.02412 -2.352282,1.513141 -3.07064,0.382158 -1.100713,-1.732963 0.630345,-0.676805 0.623809,-0.828889 -0.04577,-1.06486 -0.429626,-0.15141 -1.019724,-0.684706 -1.311327,-1.185105 -0.471587,-0.809254 -0.358557,-0.886682 1.022619,-0.700511 0.854044,0.115114 1.562117,0.45758 1.573497,0.761028 0.0114,0.303449 0.356698,-0.158259 0.767377,-1.026017 0.943784,-1.994197 1.854923,-2.031487 1.854923,-0.07592 0,1.093551 -0.287401,1.570848 -1.057197,1.755726 -0.581459,0.139645 -1.057198,0.594186 -1.057198,1.010092 0,0.58679 0.289486,0.50643 1.292232,-0.358722 0.951998,-0.821368 1.647876,-1.032938 2.642993,-0.803563 1.809775,0.417155 1.711227,1.221836 -0.192461,1.5715 -1.419078,0.260654 -1.519821,0.415888 -1.252332,1.929701 0.319882,1.810334 0.296837,1.835272 -1.036785,1.1219 z M 9.8341513,16.652241 c -0.436094,-0.258825 -0.555029,-0.470591 -0.264299,-0.470591 0.290729,0 0.8854017,0.211766 1.3214957,0.470591 0.436094,0.258826 0.555028,0.470591 0.264299,0.470591 -0.290729,0 -0.885403,-0.211765 -1.3214957,-0.470591 z m 3.6524267,-0.136804 c -2.267836,-1.59537 -4.7924507,-3.832621 -4.5628497,-4.043484 0.141788,-0.130216 1.4909037,0.866307 2.9980357,2.214495 2.724866,2.437499 3.1709,2.958833 1.564814,1.828989 z m 55.884449,-1.243924 c -0.259351,-0.369709 -1.003677,-0.556696 -1.717295,-0.431414 -1.362167,0.239145 -1.680753,-0.519584 -0.625215,-1.48898 0.424369,-0.389736 0.443086,-0.58255 0.05655,-0.58255 -0.317773,0 -0.724835,-0.351987 -0.904595,-0.782194 -0.264522,-0.633076 -0.07376,-0.723861 1.000647,-0.476209 0.981195,0.226166 1.327469,0.113617 1.327469,-0.431455 0,-0.405591 0.23787,-0.737438 0.528599,-0.737438 0.290729,0 0.528599,0.436913 0.528599,0.970918 0,0.678665 0.358003,0.975566 1.189346,0.986358 1.06676,0.01385 1.099295,0.07836 0.315669,0.625846 -0.480528,0.335724 -0.956557,1.147989 -1.057853,1.805033 -0.135453,0.878624 -0.305255,1.022015 -0.641925,0.542085 z M 4.6803153,14.117904 c -1.207986,-0.535043 -1.510607,-1.112655 -0.792898,-1.513396 0.218047,-0.121749 0.823825,0.302271 1.346174,0.942268 0.522349,0.639996 0.879153,1.148843 0.792898,1.130773 -0.08626,-0.01807 -0.692034,-0.269911 -1.346174,-0.559645 z"
       id="path690" />
  </g>
</svg>
