<?xml version="1.0" encoding="UTF-8" standalone="no"?>
<svg
   xmlns:dc="http://purl.org/dc/elements/1.1/"
   xmlns:cc="http://creativecommons.org/ns#"
   xmlns:rdf="http://www.w3.org/1999/02/22-rdf-syntax-ns#"
   xmlns:svg="http://www.w3.org/2000/svg"
   xmlns="http://www.w3.org/2000/svg"
   xmlns:sodipodi="http://sodipodi.sourceforge.net/DTD/sodipodi-0.dtd"
   xmlns:inkscape="http://www.inkscape.org/namespaces/inkscape"
   width="333mm"
   height="77mm"
   viewBox="0 0 333 77"
   version="1.1"
   id="svg94"
   inkscape:version="1.0.2 (e86c870879, 2021-01-15, custom)"
   sodipodi:docname="рисунок цветы B - 2.svg">
  <defs
     id="defs88" />
  <sodipodi:namedview
     id="base"
     pagecolor="#ffffff"
     bordercolor="#666666"
     borderopacity="1.0"
     inkscape:pageopacity="0.0"
     inkscape:pageshadow="2"
     inkscape:zoom="0.49562603"
     inkscape:cx="675.77218"
     inkscape:cy="275.92343"
     inkscape:document-units="mm"
     inkscape:current-layer="layer1"
     inkscape:document-rotation="0"
     showgrid="false"
     inkscape:window-width="1423"
     inkscape:window-height="915"
     inkscape:window-x="96"
     inkscape:window-y="196"
     inkscape:window-maximized="0" />
  <metadata
     id="metadata91">
    <rdf:RDF>
      <cc:Work
         rdf:about="">
        <dc:format>image/svg+xml</dc:format>
        <dc:type
           rdf:resource="http://purl.org/dc/dcmitype/StillImage" />
        <dc:title></dc:title>
      </cc:Work>
    </rdf:RDF>
  </metadata>
  <g
     inkscape:label="Слой 1"
     inkscape:groupmode="layer"
     id="layer1"
     style="opacity:1;mix-blend-mode:normal">
    <path
       style="fill:#000000;stroke-width:1"
       d="m 303.206,34.624531 c -1.61319,-1.406655 -3.72956,-1.826867 -8.28207,-1.64443 -6.0837,0.243782 -12.13736,1.756406 -25.19506,6.295464 -6.43752,2.237772 -11.95853,3.961032 -12.26893,3.829445 -0.31042,-0.131545 -0.41622,-0.07488 -0.23519,0.126116 0.5149,0.571408 -15.70151,5.498609 -18.09703,5.498609 -0.31258,0 0.49727,-0.558079 1.7997,-1.240186 1.30243,-0.682094 2.50841,-1.491099 2.67999,-1.797758 0.18485,-0.330345 0.94568,-0.557588 1.8669,-0.557588 2.43632,0 4.12363,-0.594796 5.00549,-1.764465 0.4463,-0.591941 0.81142,-1.165183 0.81142,-1.273885 0,-0.523262 -2.68331,-0.100569 -4.38263,0.690425 l -1.90792,0.88804 V 42.76842 c 0,-1.249425 -1.34783,-2.92254 -2.75753,-3.423012 -1.01425,-0.360093 -0.97213,-0.269125 0.30957,0.668327 2.96357,2.167596 2.25219,5.193579 -1.69104,7.193209 -2.0952,1.062475 -2.47027,1.015252 -1.14115,-0.143679 1.39374,-1.215316 1.37139,-1.942608 -0.0927,-3.02404 l -1.17948,-0.871028 -0.17871,0.861963 c -0.0983,0.474081 -0.68806,1.145005 -1.31054,1.490937 -0.84466,0.469419 -1.13181,1.024602 -1.13181,2.188469 v 1.559504 l -2.61033,0.441833 c -4.10375,0.694582 -14.27801,1.166665 -18.88235,0.876122 -3.89898,-0.246035 -4.34105,-0.360077 -6.29055,-1.622856 -4.76835,-3.088714 -9.91338,-4.987524 -16.74695,-6.180607 -2.61014,-0.455708 -4.27395,-0.842164 -3.69731,-0.858785 0.57662,-0.01658 1.992,-0.428854 3.14528,-0.916049 2.65646,-1.122241 4.66307,-1.160414 5.73658,-0.109115 0.6905,0.676169 0.81606,0.701309 0.81606,0.16344 0,-1.076365 -2.38203,-2.401633 -4.30092,-2.392867 -2.1805,0.0095 -5.51891,1.048289 -7.26468,2.259459 l -1.34345,0.932071 -4.03367,-0.480453 c -4.6816,-0.557616 -7.41274,-1.737273 -7.95697,-3.436876 -0.37716,-1.177767 -1.58964,-1.798968 -3.51135,-1.798968 -1.73969,0 -6.4862,-2.298514 -8.00457,-3.876232 -1.51509,-1.574268 -3.10748,-5.536644 -2.63524,-6.55721 0.76539,-1.654051 4.25903,-1.819271 3.80211,-0.179801 -0.25808,0.926023 0.11786,0.90466 1.83021,-0.103954 1.15127,-0.678139 1.18764,-2.349488 0.0679,-3.117535 -0.46722,-0.320466 -1.544,-0.677936 -2.39281,-0.794384 -1.46591,-0.201082 -1.52626,-0.280975 -1.2031,-1.592872 0.37955,-1.540808 -0.37656,-3.471309 -2.05885,-5.256823 -1.16786,-1.239531 -1.88313,-1.49345 -1.88313,-0.668544 0,0.277441 -0.85559,0.975231 -1.90129,1.55062 -1.40197,0.77143 -1.98894,1.417975 -2.23497,2.461874 -0.27536,1.168351 -0.56138,1.432625 -1.63713,1.512653 -3.52106,0.261936 -4.80082,0.53867 -5.76135,1.245824 -2.16021,1.590396 -0.58137,4.256071 2.49209,4.207489 1.42217,-0.02243 1.42511,-0.02732 0.2182,-0.359115 -1.45394,-0.399691 -1.2556,-1.189196 0.33925,-1.350285 1.46648,-0.148108 2.98223,0.979538 7.48579,5.56911 l 3.5886,3.657143 -4.57091,-1.448809 c -8.58695,-2.721758 -14.52938,-4.194687 -20.19874,-5.006615 -6.20443,-0.888559 -6.75807,-1.16278 -9.83531,-4.871767 l -1.2412,-1.496032 1.23401,-0.685384 c 1.0385,-0.576775 1.14046,-0.805282 0.64356,-1.442095 -0.81874,-1.049308 -4.48245,-3.06644 -4.71192,-2.594262 -0.30945,0.636732 0.93985,3.575378 1.95579,4.600413 1.18211,1.192716 4.77935,5.334883 4.7805,5.504682 4.7e-4,0.06902 -3.36103,0.07324 -7.47001,0.0095 -17.41784,-0.271354 -27.152993,1.629697 -50.456267,9.852957 -15.16497,5.35142 -19.683813,6.444445 -28.307453,6.847004 -4.331369,0.202197 -4.836017,0.15572 -6.159493,-0.567249 -1.702134,-0.92983 -1.924108,-2.481647 -0.482932,-3.376225 1.132008,-0.702682 2.25843,-0.76155 3.130204,-0.163603 0.489265,0.335577 0.629055,0.258498 0.629055,-0.346911 0,-0.934109 -1.425451,-1.522763 -3.687444,-1.522763 -2.095487,0 -5.224162,2.007593 -5.224162,3.352213 0,1.245851 2.262543,2.982823 4.563943,3.503775 2.629612,0.595256 8.819318,0.21425 14.307691,-0.880719 5.490493,-1.095374 9.77124,-2.36218 23.851652,-7.05844 10.608375,-3.538238 19.172903,-6.107903 20.357183,-6.107903 0.31211,0 -1.34425,0.80694 -3.680808,1.793206 -6.334079,2.673624 -10.715781,6.327357 -8.338415,6.953082 0.405289,0.106684 0.896256,0.691635 1.091038,1.299911 0.194779,0.608262 0.791252,1.266385 1.325495,1.462506 2.085354,0.765481 5.75819,0.174082 5.75819,-0.927177 0,-0.43349 -0.212353,-0.461389 -1.081934,-0.142167 -2.441188,0.896102 -3.524618,-1.964935 -1.72766,-4.562282 0.850276,-1.229 7.595414,-5.678407 9.796514,-6.462232 1.42264,-0.506601 9.612973,-1.794184 13.457363,-2.115588 l 2.88316,-0.241049 -3.14527,1.094519 c -1.72994,0.601984 -4.13876,1.749284 -5.35296,2.549567 -1.49366,0.984458 -2.68042,1.456622 -3.66948,1.459938 -2.604723,0.0081 -3.763263,0.408158 -4.850653,1.672247 -0.58686,0.682203 -1.06699,1.312032 -1.06699,1.399603 0,0.515719 3.20092,0.01984 4.858336,-0.752624 l 1.956437,-0.911837 v 0.935156 c 0,1.554522 2.26926,3.730801 3.91718,3.756633 0.28036,0.0041 -0.0158,-0.244529 -0.65829,-0.553157 -1.53407,-0.737008 -2.73469,-2.371558 -2.73469,-3.723121 0,-1.711861 4.0527,-4.463951 7.68096,-5.215989 0.93445,-0.193676 0.82184,-0.01091 -0.65524,1.063264 -1.88047,1.367572 -2.20732,2.450948 -1.05386,3.493134 0.86177,0.778674 1.89132,0.81822 1.89132,0.07269 0,-0.306116 0.6448,-0.937003 1.43292,-1.40198 1.34316,-0.792426 1.39765,-0.936067 0.86978,-2.292549 l -0.56316,-1.447137 3.12958,-0.782684 c 2.79843,-0.699854 3.72722,-0.755885 8.77776,-0.529593 l 5.64812,0.253075 2.27831,1.431633 c 5.09678,3.202687 10.09822,5.045754 16.92842,6.238239 2.61015,0.455708 4.27395,0.843292 3.69732,0.861284 -0.57665,0.01793 -2.07506,0.43527 -3.32985,0.927275 -2.82124,1.10622 -4.49053,1.134907 -5.55204,0.09539 l -0.81605,-0.799112 v 0.77302 c 0,1.013907 2.36344,2.263413 4.28124,2.263413 2.14102,0 5.13878,-0.93063 7.01994,-2.179294 1.55192,-1.030132 1.69264,-1.052568 4.39629,-0.700889 1.53619,0.19982 3.7262,0.363313 4.86673,0.363313 3.06944,0 4.86009,1.098299 4.86009,2.980977 0,1.226051 0.23836,1.570027 1.40038,2.020829 1.18705,0.460517 1.59945,0.470194 2.70742,0.06347 1.19397,-0.438272 1.5244,-0.37485 3.81915,0.733109 4.84028,2.337013 6.96786,4.613053 7.4053,7.922076 0.3125,2.363687 -0.29052,3.17855 -2.35224,3.17855 -1.11194,0 -1.26999,-0.1344 -1.05693,-0.898886 0.29741,-1.067137 -0.12351,-1.128223 -1.70839,-0.24794 -2.28771,1.270598 -1.03525,3.730066 2.14337,4.208903 1.43121,0.21561 1.48846,0.299199 1.19861,1.749625 -0.22524,1.127134 -0.001,2.005501 0.85905,3.378166 1.24138,1.979221 2.63986,3.085577 2.99258,2.367457 0.11048,-0.224987 1.13368,-1.06173 2.2737,-1.859429 1.47177,-1.029806 2.07279,-1.759164 2.07279,-2.51532 0,-1.163989 0.89813,-1.494415 4.08649,-1.50348 2.12235,-0.0055 4.30092,-1.374461 4.30092,-2.701564 0,-1.14904 -2.15919,-2.696644 -3.76231,-2.696644 h -1.1889 l 1.16508,0.559721 c 1.45709,0.700004 1.47698,1.121684 0.0673,1.428534 -1.49248,0.324909 -3.47294,-1.026558 -7.12881,-4.864683 -1.60109,-1.680916 -3.39495,-3.420255 -3.98634,-3.865199 -1.40503,-1.057082 -1.09959,-1.022144 2.30007,0.263146 4.66715,1.764504 4.15525,1.2248 -0.73474,-0.774626 -2.50168,-1.022902 -4.49093,-1.898754 -4.42055,-1.946344 0.34638,-0.234214 14.15604,1.682234 16.88011,2.342558 3.5794,0.867644 8.79706,3.097233 11.05813,4.725324 l 1.5456,1.112893 -2.09684,-0.257277 c -3.20203,-0.392897 -10.73095,-1.923414 -13.31737,-2.707239 -4.00309,-1.213155 -2.86557,-0.507414 1.38834,0.861354 4.18789,1.347507 11.25638,2.762276 13.80101,2.762276 1.68166,0 3.54601,1.35496 5.49602,3.994393 1.4934,2.021386 1.51855,2.11802 0.55127,2.11802 -1.00181,0 -1.47223,0.990601 -0.84943,1.788763 0.28236,0.361913 1.49917,1.193505 2.70396,1.847999 l 2.19053,1.189972 -0.36795,-1.578223 c -0.32315,-1.386134 -3.02573,-5.132819 -5.75256,-7.974995 l -0.91256,-0.951177 6.9702,0.0041 c 13.69067,0.0095 22.65091,-1.498331 36.57808,-6.153547 4.51798,-1.510139 5.99223,-1.836434 8.29743,-1.836434 2.57507,0 2.97235,0.117149 4.8793,1.438222 2.36502,1.638438 3.39605,1.791319 4.17479,0.619027 0.76968,-1.158661 -0.20182,-2.698737 -1.99886,-3.168714 -1.32197,-0.345743 -4.76012,-0.203162 -6.89117,0.285757 -2.08943,0.479367 2.07037,-1.20379 9.5498,-3.864069 9.16271,-3.259002 15.7441,-4.658604 21.90612,-4.658604 3.91617,0 5.69912,0.682297 5.69912,2.180953 0,1.626693 -2.05851,2.901518 -3.42716,2.122423 -1.11189,-0.632928 -1.51881,0.321118 -0.47454,1.112579 1.44543,1.095484 3.72704,0.888164 5.78884,-0.526033 2.07819,-1.425393 2.33411,-2.873606 0.75169,-4.253435 z M 187.62445,54.129549 c -1.23939,-0.323198 -1.46785,-0.27641 -1.70651,0.349493 -0.15152,0.397463 -0.58593,0.722657 -0.96537,0.722657 -0.93824,0 -1.42734,1.208657 -1.05811,2.614837 l 0.30472,1.160468 -0.87646,-1.156215 c -0.80122,-1.056957 -0.80668,-1.278018 -0.0636,-2.5754 l 0.81277,-1.419182 -2.42987,-0.348421 c -2.42867,-0.348229 -2.42893,-0.348433 -0.50695,-0.390913 2.93643,-0.06496 3.57818,-0.351042 3.60879,-1.60907 l 0.0277,-1.130082 0.88989,0.893477 c 0.48942,0.491421 1.51909,1.381201 2.28814,1.977302 1.64511,1.275164 1.59632,1.412037 -0.32487,0.911049 z M 154.83619,33.766902 c -8.56953,-1.028461 -13.53615,-2.016724 -17.08194,-3.399001 -2.75039,-1.072191 -7.76867,-3.904472 -7.38468,-4.167847 0.41008,-0.281276 9.53219,1.259711 14.2445,2.406305 6.03748,1.469029 18.08015,5.55041 17.45763,5.916564 -0.0872,0.05135 -3.34322,-0.288897 -7.23551,-0.756021 z m 1.19353,-9.617629 c -0.38084,0.357225 -0.55531,0.896848 -0.38772,1.199158 0.1904,0.343432 0.12684,0.414749 -0.16959,0.190102 -5.23966,-3.971986 -5.08831,-3.824892 -3.51335,-3.414192 1.75632,0.458017 2.87712,0.243427 2.87712,-0.550835 0,-0.3145 0.20916,-0.483157 0.4648,-0.374796 0.95124,0.403225 1.69747,-0.808217 1.3286,-2.156859 -0.24139,-0.882538 -0.18268,-1.259971 0.17275,-1.109318 1.01149,0.428774 1.2029,2.016888 0.40164,3.332234 -0.43737,0.717958 -0.79522,1.366513 -0.79522,1.441241 0,0.07474 0.88463,0.152429 1.96581,0.172667 l 1.9658,0.03682 -1.80914,0.292132 c -0.99502,0.160681 -2.12074,0.584413 -2.50158,0.941652 z m 114.91948,9.838771 c -0.43249,0 -0.78634,-0.235083 -0.78634,-0.52242 0,-2.011085 -2.87776,-3.192494 -5.5779,-2.289872 -2.11449,0.70684 -2.30591,1.513293 -0.28698,1.209148 2.0393,-0.307218 2.98524,0.698997 2.46055,2.617349 -0.55578,2.032012 -1.63902,3.175617 -5.41028,5.711702 l -3.50439,2.356624 2.62108,-0.99427 c 3.94586,-1.49682 8.1268,-3.784505 9.78796,-5.355674 1.62235,-1.53445 1.92765,-2.732587 0.6963,-2.732587 z m -38.17711,25.682103 c -0.91452,-0.240697 -2.56144,0.207891 -6.6708,1.816961 l -3.37961,1.323326 3.60608,-0.223601 c 3.86449,-0.239623 6.28991,-0.8903 6.81464,-1.828174 0.44879,-0.802196 0.42237,-0.879873 -0.37031,-1.088512 z m -1.42695,-2.670688 c -1.21408,0 -3.52778,1.126156 -6.2645,3.049153 -2.37728,1.670399 -2.63336,1.961553 -1.45945,1.659242 2.60414,-0.670625 5.90058,-1.903906 7.09472,-2.654326 1.21256,-0.762 1.60838,-2.054069 0.62923,-2.054069 z m -0.45181,6.311853 c -0.77137,-0.326988 -5.75117,0.04919 -6.85706,0.517948 -0.60397,0.256024 -0.3485,0.449483 1.16714,0.883856 2.59151,0.742675 3.23527,0.705331 4.91402,-0.285121 1.02658,-0.605639 1.24382,-0.918332 0.7759,-1.116683 z m -3.06059,-7.147304 c -1.0872,-0.439074 -2.85144,0.631378 -4.31255,2.616616 -0.87995,1.195666 -1.41556,2.173927 -1.19023,2.173927 0.22534,0 1.64412,-0.74065 3.15282,-1.645883 2.4818,-1.489074 3.4016,-2.71995 2.34996,-3.14466 z m -2.09685,9.704426 c -0.21626,-0.08927 -1.30294,-0.421394 -2.41494,-0.738028 l -2.02178,-0.575717 0.35259,0.98647 c 0.56434,1.578942 1.57114,2.089878 3.1474,1.597274 1.30872,-0.409 1.70872,-0.9513 0.93673,-1.269999 z m -3.08808,-9.737544 c -0.47309,-0.124479 -1.41668,0.02365 -2.09686,0.329367 -0.97941,0.440176 -1.23499,0.871925 -1.22864,2.075595 0.0159,2.843478 1.24133,2.846984 3.33616,0.0095 1.07785,-1.45998 1.07489,-2.128811 -0.009,-2.414528 z m -1.04154,6.329628 c -1.07404,-0.412261 -4.91305,0.215148 -4.91305,0.80296 0,0.686415 1.16542,1.286606 2.49826,1.286606 2.71253,0 4.29383,-1.368306 2.41479,-2.089566 z m -2.0608,1.730016 c -0.70378,0 -1.27961,-0.161797 -1.27961,-0.359548 0,-0.197768 0.72163,-0.359564 1.60358,-0.359564 0.93557,0 1.4686,0.149777 1.2796,0.359564 -0.17814,0.197751 -0.8998,0.359548 -1.60357,0.359548 z m 0.27557,1.07866 c -0.44402,-0.455599 -0.72765,-0.382691 -1.82672,0.469488 -1.48338,1.150155 -1.68532,2.22887 -0.4768,2.546958 2.14712,0.565129 3.74932,-1.532942 2.30352,-3.016446 z m -1.89047,-22.042843 c -0.41883,-0.287254 -1.23743,0.03751 -1.23743,0.490849 0,0.186094 0.35387,0.338337 0.78634,0.338337 0.81063,0 1.04146,-0.424262 0.45109,-0.829186 z m -3.30712,17.248412 c -2.40242,-1.48868 -4.39911,-1.962475 -5.53811,-1.314111 -1.12116,0.638214 -0.97091,0.990451 0.66207,1.552374 1.65391,0.569111 6.44451,1.424322 6.76134,1.207028 0.11671,-0.08004 -0.73168,-0.730432 -1.8853,-1.445291 z m 1.41451,4.442778 c -1.36098,0.01644 -5.11106,1.416371 -5.11106,1.908036 0,0.714587 1.34032,1.403462 2.44638,1.257348 0.88129,-0.116463 3.31994,-2.222279 3.31994,-2.866906 0,-0.168509 -0.29487,-0.302826 -0.65526,-0.298478 z m -2.35894,-1.121863 -2.49001,-0.03533 2.25771,-0.414437 2.25768,-0.414436 -1.51925,-0.61556 c -0.8356,-0.338553 -2.46885,-0.719698 -3.62944,-0.84699 -3.66452,-0.401921 -6.0028,1.184932 -2.46871,1.675374 l 1.52936,0.21224 -1.44159,0.408076 c -1.67871,0.475208 -1.71321,0.547747 -0.61782,1.299079 1.13623,0.779328 4.05355,0.707276 6.53611,-0.161402 1.14177,-0.399528 2.07594,-0.80403 2.07594,-0.898884 0,-0.09486 -1.12049,-0.188351 -2.48998,-0.20777 z M 211.4511,40.63978 c -0.70997,-0.300964 -1.57263,0.105185 -1.57263,0.740325 0,0.28497 0.47178,0.51811 1.04843,0.51811 1.08529,0 1.44661,-0.867426 0.5242,-1.258435 z m -6.51391,-3.27554 c -1.24283,-0.327111 -2.49805,0.135755 -2.29821,0.847463 0.11178,0.398036 0.65462,0.630305 1.47315,0.630305 1.49434,0 2.12794,-1.134853 0.82506,-1.477768 z m -7.2204,-3.663844 c -0.96425,-0.661343 -2.41494,-0.514007 -3.05839,0.310627 -0.73,0.935564 0.14982,1.774793 1.86081,1.774793 1.6508,0 2.3819,-1.273086 1.19758,-2.08542 z m -9.36616,-1.882585 c -0.84289,-0.309403 -1.36685,-0.270442 -2.35893,0.175412 -1.40935,0.633391 -1.53768,0.986852 -0.73275,2.01845 0.6066,0.777398 2.58319,0.924559 3.5462,0.264016 0.98886,-0.678259 0.74094,-2.01906 -0.45452,-2.457878 z m -9.13854,1.597831 c -1.21614,-0.546539 -1.40719,-0.545533 -2.65189,0.01388 -1.88474,0.847029 -1.64616,2.732004 0.40808,3.224403 2.9748,0.713037 4.88895,-2.049475 2.24381,-3.238251 z m -16.74311,6.702848 c -0.99987,-0.569166 -3.46156,-0.344573 -4.11867,0.375747 -1.44746,1.586729 1.30322,3.408283 3.77602,2.500563 1.29172,-0.474162 1.49941,-2.21782 0.34265,-2.87631 z m -9.5552,2.162539 c -1.34129,-1.313472 -3.84392,-0.72524 -3.84392,0.903506 0,1.055464 1.28197,1.718111 2.81373,1.454422 1.55391,-0.267508 2.03663,-1.372381 1.03019,-2.357928 z m -10.1596,-1.646725 c -2.13318,-0.464378 -3.62151,1.553612 -1.69207,2.294221 1.2824,0.492249 2.76563,-0.150512 2.76563,-1.198506 0,-0.552952 -0.38489,-0.945797 -1.07356,-1.095715 z m -7.57593,-3.280255 c -1.08219,-0.284836 -2.35895,0.10138 -2.35895,0.713552 0,0.719764 1.41406,1.432422 2.35228,1.185474 1.02414,-0.269561 1.02892,-1.62997 0.006,-1.899026 z m -3.53841,-24.023126 c -0.3604,-0.07705 -1.36296,-0.301847 -2.2279,-0.499669 l -1.57264,-0.359657 1.61632,-0.02839 c 2.01932,-0.03546 2.42096,-0.299755 1.75416,-1.154313 -0.65387,-0.838018 -3.74145,-0.904404 -6.41587,-0.137939 -2.93523,0.841171 -2.85062,1.259779 0.26234,1.2984 l 2.78305,0.03452 -2.62107,0.41918 -2.62104,0.419178 1.99257,0.650555 c 2.69835,0.880973 5.23349,1.121886 6.58501,0.625763 1.24736,-0.457868 1.46597,-1.053776 0.46507,-1.267633 z m -2.59688,2.280659 c -1.13233,-0.41566 -5.96341,-1.386298 -6.94176,-1.39471 -0.86418,-0.0069 2.92853,2.446273 4.44883,2.878198 1.07888,0.30651 1.74026,0.309473 2.55223,0.01092 1.40582,-0.516044 1.38804,-0.963612 -0.0592,-1.494905 z M 127.7864,34.4637 c -0.96644,-0.25438 -1.97379,0.61518 -1.27105,1.097182 0.57219,0.39245 2.11026,0.0322 2.11026,-0.494179 0,-0.210173 -0.37765,-0.481527 -0.83921,-0.603003 z M 126.94814,8.5316553 c -1.37078,-0.940211 -3.092,-0.314934 -4.58817,1.6667707 -0.34873,0.461878 -0.5128,0.922953 -0.3646,1.024602 0.41145,0.282212 3.91698,-0.594076 4.8003,-1.199947 0.94594,-0.6488127 0.97445,-0.9276397 0.15255,-1.4914257 z m -6.28422,-0.632683 c -1.76755,-0.384798 -3.15347,0.96258 -2.43803,2.3702417 0.29824,0.586831 0.62758,1.066959 0.73188,1.066959 0.10419,0 0.78888,-0.443286 1.52135,-0.985097 1.63517,-1.2095537 1.7039,-2.1214027 0.18486,-2.4521037 z m 0.52444,4.2327127 c -1.28131,-0.878842 -5.14382,-0.261245 -5.14382,0.822473 0,0.8665 1.66271,1.219024 3.63011,0.76965 2.00226,-0.457353 2.46246,-0.941381 1.51371,-1.592123 z m -2.5537,0.642697 c -0.93558,0 -1.46862,-0.149777 -1.2796,-0.359548 0.17812,-0.197755 0.89981,-0.359548 1.60358,-0.359548 0.70377,0 1.27958,0.161793 1.27958,0.359548 0,0.197752 -0.72159,0.359548 -1.60356,0.359548 z m 2.82672,19.655592 c -0.60318,-0.413716 -1.22316,-0.261841 -1.22316,0.299634 0,0.296631 0.35386,0.539323 0.78633,0.539323 0.81858,0 1.04001,-0.42524 0.43683,-0.838957 z m -2.63293,-16.509492 c -0.36428,-0.956083 -0.81377,-0.77495 -2.42922,0.978929 -1.58476,1.720556 -1.69504,3.166078 -0.25588,3.35414 2.1515,0.281152 3.57061,-2.008924 2.6851,-4.333069 z m -2.41161,-6.0225177 c -0.78579,-1.069149 -2.54806,-1.340597 -3.51502,-0.541444 -0.82867,0.6848407 -0.42728,1.0001547 2.22533,1.7481707 2.16966,0.611822 2.44022,0.358665 1.28969,-1.2067267 z m -0.21952,5.3933007 c -0.9076,0 -5.91911,3.3215 -5.91911,3.923035 0,1.857566 2.65274,0.837435 4.7114,-1.811795 0.90236,-1.16119 1.44582,-2.11124 1.20771,-2.11124 z m -2.38068,-0.531673 c -5.21434,1.730656 -7.20791,2.790046 -7.20791,3.830329 0,1.342921 2.24444,0.584725 6.42158,-2.169279 2.91226,-1.920077 3.16308,-2.449902 0.78633,-1.66105 z m -0.50738,-3.221561 c -2.54354,-0.732689 -3.13934,-0.709545 -4.80009,0.186487 -2.02265,1.091258 -1.23816,1.525018 2.22556,1.230577 4.30249,-0.365747 4.96269,-0.729141 2.57453,-1.417064 z m -1.34051,2.084372 c -4.66797,0.314323 -7.7141,1.589405 -6.64133,2.77996 0.50441,0.559804 1.52585,0.37087 5.26493,-0.973857 5.09517,-1.832412 5.27521,-2.06865 1.3764,-1.806103 z m -26.328543,14.15322 c -3.205095,-0.232093 -3.531862,-0.343348 -5.504224,-1.874063 -2.35548,-1.828033 -3.720346,-2.049379 -4.455805,-0.72259 -0.679058,1.225059 0.168983,2.621822 1.859469,3.062663 1.497198,0.390424 7.477851,0.405101 9.935304,0.02433 1.307876,-0.202633 0.99899,-0.285189 -1.834744,-0.490387 z"
       id="path112"
       sodipodi:nodetypes="cssscssssssscsssssscssscsssscssscscsssssssssssssssssssscssscssssscssssssssssssssscscssscsscssscscssscsssscsscsscsscssssssssssssssscssscsscssssssssscsssssssscssccssssssssssssccsssscsccscscsssssssscscscsssscssscsccsssssscssssscsssssssssssssssssssscssscccsccsssssssssssssssssssssssssssccccssscssssccsssssssssssssssssssssssssssssssssscssccsscsssscccssssscsssssssscsssccssssssssssscsssssssssssssssssssssssssssssssssssss" />
  </g>
</svg>
