<?xml version="1.0" encoding="UTF-8" standalone="no"?>
<svg
   xmlns:dc="http://purl.org/dc/elements/1.1/"
   xmlns:cc="http://creativecommons.org/ns#"
   xmlns:rdf="http://www.w3.org/1999/02/22-rdf-syntax-ns#"
   xmlns:svg="http://www.w3.org/2000/svg"
   xmlns="http://www.w3.org/2000/svg"
   xmlns:sodipodi="http://sodipodi.sourceforge.net/DTD/sodipodi-0.dtd"
   xmlns:inkscape="http://www.inkscape.org/namespaces/inkscape"
   width="333mm"
   height="55mm"
   viewBox="0 0 333 55"
   version="1.1"
   id="svg94"
   inkscape:version="1.0.2 (e86c870879, 2021-01-15, custom)"
   sodipodi:docname="рисунок цветы орнамент.svg">
  <defs
     id="defs88" />
  <sodipodi:namedview
     id="base"
     pagecolor="#ffffff"
     bordercolor="#666666"
     borderopacity="1.0"
     inkscape:pageopacity="0.0"
     inkscape:pageshadow="2"
     inkscape:zoom="0.49497475"
     inkscape:cx="397.05782"
     inkscape:cy="33.915618"
     inkscape:document-units="mm"
     inkscape:current-layer="layer1"
     inkscape:document-rotation="0"
     showgrid="false"
     inkscape:window-width="1423"
     inkscape:window-height="914"
     inkscape:window-x="44"
     inkscape:window-y="197"
     inkscape:window-maximized="0" />
  <metadata
     id="metadata91">
    <rdf:RDF>
      <cc:Work
         rdf:about="">
        <dc:format>image/svg+xml</dc:format>
        <dc:type
           rdf:resource="http://purl.org/dc/dcmitype/StillImage" />
        <dc:title></dc:title>
      </cc:Work>
    </rdf:RDF>
  </metadata>
  <g
     inkscape:label="Слой 1"
     inkscape:groupmode="layer"
     id="layer1"
     style="opacity:1;mix-blend-mode:normal">
    <path
       style="fill:#000000;stroke-width:1"
       d="m 304.80751,26.943429 c -1.61319,-0.901879 -3.72956,-1.171299 -8.28207,-1.054329 -6.0837,0.156301 -12.13736,1.126123 -25.19506,4.036349 -6.43752,1.434751 -11.95853,2.539623 -12.26893,2.455256 -0.31042,-0.08434 -0.41622,-0.04801 -0.23519,0.08086 0.5149,0.366359 -15.70151,3.525443 -18.09703,3.525443 -0.31258,0 0.49727,-0.357813 1.7997,-0.795147 1.30243,-0.437326 2.50841,-0.956021 2.67999,-1.152636 0.18485,-0.211802 0.94568,-0.357499 1.8669,-0.357499 2.43632,0 4.12363,-0.381354 5.00549,-1.13129 0.4463,-0.379524 0.81142,-0.74706 0.81142,-0.816754 0,-0.33549 -2.68331,-0.06448 -4.38263,0.442667 l -1.90792,0.569369 V 32.1649 c 0,-0.801071 -1.34783,-1.873793 -2.75753,-2.194671 -1.01425,-0.230874 -0.97213,-0.17255 0.30957,0.428499 2.96357,1.389758 2.25219,3.329873 -1.69104,4.61194 -2.0952,0.681208 -2.47027,0.650931 -1.14115,-0.09212 1.39374,-0.779202 1.37139,-1.245507 -0.0927,-1.938869 l -1.17948,-0.558461 -0.17871,0.552649 c -0.0983,0.303958 -0.68806,0.734122 -1.31054,0.955917 -0.84466,0.300969 -1.13181,0.656925 -1.13181,1.403141 v 0.999879 l -2.61033,0.283282 c -4.10375,0.445333 -14.27801,0.74801 -18.88235,0.561728 -3.89898,-0.157746 -4.34105,-0.230865 -6.29055,-1.040498 -4.76835,-1.980335 -9.91338,-3.19776 -16.74695,-3.962708 -2.61014,-0.292178 -4.27395,-0.539955 -3.69731,-0.550611 0.57662,-0.01063 1.992,-0.274961 3.14528,-0.587327 2.65646,-0.719527 4.66307,-0.744002 5.73658,-0.06996 0.6905,0.433527 0.81606,0.449646 0.81606,0.10479 0,-0.690113 -2.38203,-1.539811 -4.30092,-1.534191 -2.1805,0.0061 -5.51891,0.672112 -7.26468,1.448656 l -1.34345,0.5976 -4.03367,-0.308044 c -4.6816,-0.357516 -7.41274,-1.113856 -7.95697,-2.203559 -0.37716,-0.755128 -1.58964,-1.153412 -3.51135,-1.153412 -1.73969,0 -6.4862,-1.473697 -8.00457,-2.485254 -1.51509,-1.009345 -3.10748,-3.54983 -2.63524,-4.204168 0.76539,-1.060498 4.25903,-1.166429 3.80211,-0.11528 -0.25808,0.593722 0.11786,0.580025 1.83021,-0.06665 1.15127,-0.43479 1.18764,-1.506379 0.0679,-1.998814 -0.46722,-0.205467 -1.544,-0.43466 -2.39281,-0.50932 -1.46591,-0.128925 -1.52626,-0.180148 -1.2031,-1.021273 0.37955,-0.987893 -0.37656,-2.225637 -2.05885,-3.370423 -1.16786,-0.794728 -1.88313,-0.957528 -1.88313,-0.428638 0,0.177882 -0.85559,0.625271 -1.90129,0.994183 -1.40197,0.494604 -1.98894,0.909137 -2.23497,1.578435 -0.27536,0.749091 -0.56138,0.91853 -1.63713,0.96984 -3.52106,0.167941 -4.80082,0.34537 -5.76135,0.798763 -2.16021,1.019686 -0.58137,2.728788 2.49209,2.69764 1.42217,-0.01438 1.42511,-0.01751 0.2182,-0.230247 -1.45394,-0.256263 -1.2556,-0.762456 0.33925,-0.865738 1.46648,-0.09496 2.98223,0.628033 7.48579,3.570645 l 3.5886,2.344785 -4.57091,-0.928907 c -8.58695,-1.74506 -14.52938,-2.689432 -20.19874,-3.210001 -6.20443,-0.569701 -6.75807,-0.745518 -9.83531,-3.123543 l -1.2412,-0.959184 1.23401,-0.439435 c 1.0385,-0.369801 1.14046,-0.516308 0.64356,-0.924602 -0.81874,-0.672766 -4.48245,-1.966054 -4.71192,-1.663316 -0.30945,0.408242 0.93985,2.29236 1.95579,2.949564 1.18211,0.764712 4.77935,3.42047 4.7805,3.529337 4.7e-4,0.04426 -3.36103,0.04696 -7.47001,0.0061 -17.41784,-0.173979 -27.152993,1.044884 -50.456267,6.317243 -15.16497,3.431073 -19.683813,4.131868 -28.307453,4.38997 -4.331369,0.129639 -4.836017,0.09984 -6.159493,-0.363693 -1.702134,-0.596162 -1.924108,-1.591113 -0.482932,-2.164673 1.132008,-0.450526 2.25843,-0.48827 3.130204,-0.104895 0.489265,0.215156 0.629055,0.165737 0.629055,-0.222422 0,-0.598906 -1.425451,-0.976323 -3.687444,-0.976323 -2.095487,0 -5.224162,1.287172 -5.224162,2.149278 0,0.79878 2.262543,1.912443 4.563943,2.246452 2.629612,0.38165 8.819318,0.137367 14.307691,-0.564674 5.490493,-0.702302 9.77124,-1.514517 23.851652,-4.525533 10.608375,-2.268548 19.172903,-3.916094 20.357183,-3.916094 0.31211,0 -1.34425,0.517371 -3.680808,1.149718 -6.334079,1.714199 -10.715781,4.056797 -8.338415,4.457982 0.405289,0.0684 0.896256,0.443443 1.091038,0.83344 0.194779,0.389989 0.791252,0.811945 1.325495,0.937689 2.085354,0.490789 5.75819,0.111613 5.75819,-0.594462 0,-0.277933 -0.212353,-0.29582 -1.081934,-0.09115 -2.441188,0.574537 -3.524618,-1.259822 -1.72766,-2.925116 0.850276,-0.787976 7.595414,-3.640722 9.796514,-4.143273 1.42264,-0.324808 9.612973,-1.150345 13.457363,-1.356413 l 2.88316,-0.154549 -3.14527,0.701753 c -1.72994,0.385963 -4.13876,1.121557 -5.35296,1.634659 -1.49366,0.631188 -2.68042,0.933917 -3.66948,0.936043 -2.604723,0.0052 -3.763263,0.261691 -4.850653,1.072164 -0.58686,0.437396 -1.06699,0.841212 -1.06699,0.897358 0,0.330654 3.20092,0.01272 4.85834,-0.482546 L 101.92,25.366356 v 0.599577 c 0,0.996685 2.26926,2.39201 3.91718,2.408573 0.28036,0.0026 -0.0158,-0.15678 -0.65829,-0.354658 -1.53407,-0.472535 -2.73469,-1.520529 -2.73469,-2.387087 0,-1.097562 4.0527,-2.86207 7.68096,-3.344241 0.93445,-0.124176 0.82184,-0.007 -0.65524,0.681714 -1.88047,0.876821 -2.20732,1.57143 -1.05386,2.23963 0.86177,0.499248 1.89132,0.524603 1.89132,0.04661 0,-0.196267 0.6448,-0.600762 1.43292,-0.898883 1.34316,-0.508065 1.39765,-0.600161 0.86978,-1.469872 l -0.56316,-0.927835 3.12958,-0.501819 c 2.79843,-0.448713 3.72722,-0.484637 8.77776,-0.33955 l 5.64812,0.16226 2.27831,0.917894 c 5.09678,2.053409 10.09822,3.235095 16.92842,3.999659 2.61015,0.292178 4.27395,0.540678 3.69732,0.552214 -0.57665,0.0115 -2.07506,0.279074 -3.32985,0.594524 -2.82124,0.709255 -4.49053,0.727648 -5.55204,0.06116 l -0.81605,-0.512352 v 0.495623 c 0,0.650069 2.36344,1.451192 4.28124,1.451192 2.14102,0 5.13878,-0.596675 7.01994,-1.397259 1.55192,-0.660471 1.69264,-0.674856 4.39629,-0.449376 1.53619,0.128115 3.7262,0.232939 4.86673,0.232939 3.06944,0 4.86009,0.704176 4.86009,1.911259 0,0.786085 0.23836,1.006626 1.40038,1.295658 1.18705,0.295262 1.59945,0.301466 2.70742,0.04069 1.19397,-0.280999 1.5244,-0.240336 3.81915,0.470034 4.84028,1.498381 6.96786,2.957668 7.4053,5.079255 0.3125,1.515482 -0.29052,2.037933 -2.35224,2.037933 -1.11194,0 -1.26999,-0.08617 -1.05693,-0.576322 0.29741,-0.684197 -0.12351,-0.723362 -1.70839,-0.158967 -2.28771,0.814646 -1.03525,2.391539 2.14337,2.698546 1.43121,0.138239 1.48846,0.191832 1.19861,1.121775 -0.22524,0.722665 -10e-4,1.285831 0.85905,2.165919 1.24138,1.268981 2.63986,1.978323 2.99258,1.517899 0.11048,-0.144251 1.13368,-0.68073 2.2737,-1.192176 1.47177,-0.660263 2.07279,-1.127892 2.07279,-1.612703 0,-0.746294 0.89813,-0.958147 4.08649,-0.963959 2.12235,-0.0035 4.30092,-0.881239 4.30092,-1.732113 0,-0.736709 -2.15919,-1.728959 -3.76231,-1.728959 h -1.1889 l 1.16508,0.358867 c 1.45709,0.448809 1.47698,0.71917 0.0673,0.915907 -1.49248,0.208316 -3.47294,-0.65818 -7.12881,-3.119001 -1.60109,-1.077723 -3.39495,-2.192903 -3.98634,-2.47818 -1.40503,-0.67775 -1.09959,-0.655349 2.30007,0.168716 4.66715,1.131316 4.15525,0.785284 -0.73474,-0.496652 -2.50168,-0.655836 -4.49093,-1.21739 -4.42055,-1.247903 0.34638,-0.150167 14.15604,1.078568 16.88011,1.501936 3.5794,0.556292 8.79706,1.985797 11.05813,3.029651 l 1.5456,0.713533 -2.09684,-0.164953 c -3.20203,-0.251907 -10.73095,-1.233201 -13.31737,-1.735752 -4.00309,-0.777817 -2.86557,-0.32533 1.38834,0.552258 4.18789,0.863958 11.25638,1.771039 13.80101,1.771039 1.68166,0 3.54601,0.868736 5.49602,2.561013 1.4934,1.296016 1.51855,1.357973 0.55127,1.357973 -1.00181,0 -1.47223,0.635126 -0.84943,1.146869 0.28236,0.232041 1.49917,0.765218 2.70396,1.184848 l 2.19053,0.762953 -0.36795,-1.011881 c -0.32315,-0.888723 -3.02573,-3.290917 -5.75256,-5.113183 l -0.91256,-0.609849 6.9702,0.0026 c 13.69067,0.0061 22.65091,-0.960657 36.57808,-3.945358 4.51798,-0.968228 5.99223,-1.177433 8.29743,-1.177433 2.57507,0 2.97235,0.07511 4.8793,0.922119 2.36502,1.050487 3.39605,1.148507 4.17479,0.39689 0.76968,-0.742878 -0.20182,-1.730301 -1.99886,-2.031627 -1.32197,-0.221674 -4.76012,-0.130258 -6.89117,0.183214 -2.08943,0.307347 2.07037,-0.771813 9.5498,-2.477456 9.16271,-2.089516 15.7441,-2.986873 21.90612,-2.986873 3.91617,0 5.69912,0.437456 5.69912,1.398322 0,1.042958 -2.05851,1.860314 -3.42716,1.360796 -1.11189,-0.405803 -1.51881,0.205885 -0.47454,0.713332 1.44543,0.702372 3.72704,0.569448 5.78884,-0.337267 2.07819,-0.913894 2.33411,-1.842418 0.75169,-2.727098 z M 189.22596,39.44911 c -1.23939,-0.207219 -1.46785,-0.177221 -1.70651,0.224078 -0.15152,0.254834 -0.58593,0.463333 -0.96537,0.463333 -0.93824,0 -1.42734,0.774933 -1.05811,1.676508 l 0.30472,0.744036 -0.87646,-0.741309 c -0.80122,-0.677671 -0.80668,-0.819404 -0.0636,-1.651223 l 0.81277,-0.909912 -2.42987,-0.22339 c -2.42867,-0.223268 -2.42893,-0.223399 -0.50695,-0.250635 2.93643,-0.04165 3.57818,-0.225071 3.60879,-1.031658 l 0.0277,-0.724555 0.88989,0.572855 c 0.48942,0.315075 1.51909,0.88556 2.28814,1.267751 1.64511,0.817574 1.59632,0.90533 -0.32487,0.584121 z M 156.4377,26.393559 c -8.56953,-0.6594 -13.53615,-1.293027 -17.08194,-2.179276 -2.75039,-0.687438 -7.76867,-2.50336 -7.38468,-2.672224 0.41008,-0.18034 9.53219,0.807667 14.2445,1.542808 6.03748,0.941871 18.08015,3.558656 17.45763,3.793416 -0.0872,0.03293 -3.34322,-0.185227 -7.23551,-0.484724 z m 1.19353,-6.166362 c -0.38084,0.229036 -0.55531,0.575016 -0.38772,0.768843 0.1904,0.220192 0.12684,0.265917 -0.16959,0.121884 -5.23966,-2.546646 -5.08831,-2.452337 -3.51335,-2.189016 1.75632,0.293659 2.87712,0.156074 2.87712,-0.353169 0,-0.201642 0.20916,-0.309777 0.4648,-0.240301 0.95124,0.258529 1.69747,-0.51819 1.3286,-1.382874 -0.24139,-0.565841 -0.18268,-0.807833 0.17275,-0.711242 1.01149,0.274909 1.2029,1.293132 0.40164,2.136469 -0.43737,0.46032 -0.79522,0.876142 -0.79522,0.924054 0,0.04792 0.88463,0.09773 1.96581,0.110706 l 1.9658,0.02361 -1.80914,0.187301 c -0.99502,0.103021 -2.12074,0.374698 -2.50158,0.603742 z m 114.91948,6.308147 c -0.43249,0 -0.78634,-0.150724 -0.78634,-0.33495 0,-1.289411 -2.87776,-2.046874 -5.5779,-1.468156 -2.11449,0.453192 -2.30591,0.97025 -0.28698,0.775247 2.0393,-0.196973 2.98524,0.448164 2.46055,1.678119 -0.55578,1.302829 -1.63902,2.036053 -5.41028,3.662069 l -3.50439,1.510954 2.62108,-0.637478 c 3.94586,-0.95969 8.1268,-2.426443 9.78796,-3.433801 1.62235,-0.983815 1.92765,-1.752004 0.6963,-1.752004 z M 234.3736,43.001475 c -0.91452,-0.154323 -2.56144,0.13329 -6.6708,1.164948 l -3.37961,0.848453 3.60608,-0.143362 c 3.86449,-0.153635 6.28991,-0.570817 6.81464,-1.172137 0.44879,-0.51433 0.42237,-0.564133 -0.37031,-0.697902 z m -1.42695,-1.712317 c -1.21408,0 -3.52778,0.722037 -6.2645,1.954971 -2.37728,1.070979 -2.63336,1.257653 -1.45945,1.063826 2.60414,-0.429973 5.90058,-1.220693 7.09472,-1.701827 1.21256,-0.488558 1.60838,-1.31697 0.62923,-1.31697 z m -0.45181,4.046857 c -0.77137,-0.209649 -5.75117,0.03154 -6.85706,0.332083 -0.60397,0.164151 -0.3485,0.288187 1.16714,0.566686 2.59151,0.476168 3.23527,0.452225 4.91402,-0.182805 1.02658,-0.388307 1.24382,-0.588791 0.7759,-0.715964 z m -3.06059,-4.582508 c -1.0872,-0.281513 -2.85144,0.404809 -4.31255,1.677649 -0.87995,0.766603 -1.41556,1.393817 -1.19023,1.393817 0.22534,0 1.64412,-0.474869 3.15282,-1.055261 2.4818,-0.954723 3.4016,-1.743901 2.34996,-2.016205 z m -2.09685,6.222012 c -0.21626,-0.05724 -1.30294,-0.270178 -2.41494,-0.473188 l -2.02178,-0.369122 0.35259,0.632477 c 0.56434,1.012342 1.57114,1.339929 3.1474,1.024095 1.30872,-0.262231 1.70872,-0.609928 0.93673,-0.814262 z m -3.08808,-6.243245 c -0.47309,-0.07981 -1.41668,0.01516 -2.09686,0.211174 -0.97941,0.282219 -1.23499,0.559036 -1.22864,1.330771 0.0159,1.823102 1.24133,1.82535 3.33616,0.0061 1.07785,-0.936069 1.07489,-1.364891 -0.009,-1.548079 z m -1.04154,4.058253 c -1.07404,-0.264322 -4.91305,0.137943 -4.91305,0.514819 0,0.440096 1.16542,0.82491 2.49826,0.82491 2.71253,0 4.29383,-0.877292 2.41479,-1.339729 z m -2.0608,1.109203 c -0.70378,0 -1.27961,-0.103736 -1.27961,-0.230525 0,-0.126799 0.72163,-0.230535 1.60358,-0.230535 0.93557,0 1.4686,0.09603 1.2796,0.230535 -0.17814,0.126789 -0.8998,0.230525 -1.60357,0.230525 z m 0.27557,0.691585 c -0.44402,-0.292108 -0.72765,-0.245363 -1.82672,0.301013 -1.48338,0.737424 -1.68532,1.429044 -0.4768,1.632987 2.14712,0.362334 3.74932,-0.982849 2.30352,-1.934 z m -1.89047,-14.132812 c -0.41883,-0.184173 -1.23743,0.02405 -1.23743,0.314709 0,0.119314 0.35387,0.216925 0.78634,0.216925 0.81063,0 1.04146,-0.272016 0.45109,-0.531634 z m -3.30712,11.058853 c -2.40242,-0.95447 -4.39911,-1.258245 -5.53811,-0.842545 -1.12116,0.409192 -0.97091,0.63503 0.66207,0.995308 1.65391,0.364887 6.44451,0.913207 6.76134,0.773888 0.11671,-0.05132 -0.73168,-0.468318 -1.8853,-0.926651 z m 1.41451,2.848496 c -1.36098,0.01054 -5.11106,0.908109 -5.11106,1.223341 0,0.458159 1.34032,0.899832 2.44638,0.806151 0.88129,-0.07467 3.31994,-1.424818 3.31994,-1.838122 0,-0.10804 -0.29487,-0.194158 -0.65526,-0.19137 z m -2.35894,-0.719284 -2.49001,-0.02265 2.25771,-0.265717 2.25768,-0.265717 -1.51925,-0.394667 c -0.8356,-0.217064 -2.46885,-0.461436 -3.62944,-0.543049 -3.66452,-0.257693 -6.0028,0.759721 -2.46871,1.074169 l 1.52936,0.136078 -1.44159,0.261639 c -1.67871,0.30468 -1.71321,0.351189 -0.61782,0.832907 1.13623,0.499667 4.05355,0.453471 6.53611,-0.103483 1.14177,-0.256159 2.07594,-0.515506 2.07594,-0.576322 0,-0.06082 -1.12049,-0.120761 -2.48998,-0.133212 z m -2.22792,-14.84645 c -0.70997,-0.192964 -1.57263,0.06744 -1.57263,0.474661 0,0.182709 0.47178,0.332187 1.04843,0.332187 1.08529,0 1.44661,-0.556152 0.5242,-0.806848 z m -6.51391,-2.100119 c -1.24283,-0.209728 -2.49805,0.08704 -2.29821,0.543353 0.11178,0.255201 0.65462,0.404121 1.47315,0.404121 1.49434,0 2.12794,-0.727613 0.82506,-0.947474 z m -7.2204,-2.349081 c -0.96425,-0.424021 -2.41494,-0.329556 -3.05839,0.199159 -0.73,0.599839 0.14982,1.137912 1.86081,1.137912 1.6508,0 2.3819,-0.816241 1.19758,-1.337071 z m -9.36616,-1.207022 c -0.84289,-0.198375 -1.36685,-0.173395 -2.35893,0.112466 -1.40935,0.406099 -1.53768,0.632721 -0.73275,1.294133 0.6066,0.49843 2.58319,0.592782 3.5462,0.169274 0.98886,-0.434868 0.74094,-1.294525 -0.45452,-1.575873 z m -9.13854,1.024452 c -1.21614,-0.350415 -1.40719,-0.34977 -2.65189,0.0089 -1.88474,0.543075 -1.64616,1.75163 0.40808,2.067333 2.9748,0.457165 4.88895,-1.314025 2.24381,-2.076211 z m -16.74311,4.297544 c -0.99987,-0.364922 -3.46156,-0.220924 -4.11867,0.240911 -1.44746,1.017334 1.30322,2.185227 3.77602,1.603241 1.29172,-0.30401 1.49941,-1.42196 0.34265,-1.844152 z m -9.5552,1.386516 c -1.34129,-0.842135 -3.84392,-0.464989 -3.84392,0.579285 0,0.676713 1.28197,1.10157 2.81373,0.932505 1.55391,-0.171513 2.03663,-0.879905 1.03019,-1.51179 z m -10.1596,-1.055801 c -2.13318,-0.297737 -3.62151,0.996101 -1.69207,1.470944 1.2824,0.315607 2.76563,-0.0965 2.76563,-0.768424 0,-0.354527 -0.38489,-0.6064 -1.07356,-0.70252 z m -7.57593,-2.103142 c -1.08219,-0.182623 -2.35895,0.065 -2.35895,0.457496 0,0.461478 1.41406,0.918399 2.35228,0.760068 1.02414,-0.172829 1.02892,-1.045058 0.006,-1.217564 z m -3.53841,-15.402474 c -0.3604,-0.0494 -1.36296,-0.19353 -2.2279,-0.320364 l -1.57264,-0.230595 1.61632,-0.01821 c 2.01932,-0.02274 2.42096,-0.192189 1.75416,-0.74009 -0.65387,-0.537297 -3.74145,-0.57986 -6.41587,-0.08844 -2.93523,0.539319 -2.85062,0.80771 0.26234,0.832472 l 2.78305,0.02213 -2.62107,0.268758 -2.62104,0.268757 1.99257,0.417104 c 2.69835,0.564838 5.23349,0.7193 6.58501,0.40121 1.24736,-0.293563 1.46597,-0.675631 0.46507,-0.812746 z m -2.59688,1.462249 c -1.13233,-0.266501 -5.96341,-0.888828 -6.94176,-0.894221 -0.86418,-0.0044 2.92853,1.568433 4.44883,1.845363 1.07888,0.196519 1.74026,0.198418 2.55223,0.007 1.40582,-0.330863 1.38804,-0.617822 -0.0592,-0.958461 z m -1.25656,12.087072 c -0.96644,-0.163096 -1.97379,0.394424 -1.27105,0.703461 0.57219,0.25162 2.11026,0.02065 2.11026,-0.316844 0,-0.134753 -0.37765,-0.308732 -0.83921,-0.386617 z m -0.83826,-16.626381 c -1.37078,-0.6028181 -3.092,-0.201921 -4.58817,1.068653 -0.34873,0.296134 -0.5128,0.591753 -0.3646,0.656926 0.41145,0.18094 3.91698,-0.380893 4.8003,-0.769348 0.94594,-0.415988 0.97445,-0.594759 0.15255,-0.956231 z m -6.28422,-0.4056461 c -1.76755,-0.246714 -3.15347,0.6171601 -2.43803,1.5196851 0.29824,0.376248 0.62758,0.684083 0.73188,0.684083 0.10419,0 0.78888,-0.284214 1.52135,-0.631597 1.63517,-0.775508 1.7039,-1.360142 0.18486,-1.5721711 z m 0.52444,2.7138121 c -1.28131,-0.563471 -5.14382,-0.167497 -5.14382,0.52733 0,0.555559 1.66271,0.78158 3.63011,0.493463 2.00226,-0.293233 2.46246,-0.603568 1.51371,-1.020793 z m -2.5537,0.412067 c -0.93558,0 -1.46862,-0.09603 -1.2796,-0.230526 0.17812,-0.12679 0.89981,-0.230525 1.60358,-0.230525 0.70377,0 1.27958,0.103735 1.27958,0.230525 0,0.12679 -0.72159,0.230526 -1.60356,0.230526 z m 2.82672,12.602221 c -0.60318,-0.265255 -1.22316,-0.16788 -1.22316,0.192111 0,0.190185 0.35386,0.345788 0.78633,0.345788 0.81858,0 1.04001,-0.272644 0.43683,-0.537899 z m -2.63293,-10.585093 c -0.36428,-0.612995 -0.81377,-0.496861 -2.42922,0.627642 -1.58476,1.103138 -1.69504,2.029937 -0.25588,2.150514 2.1515,0.180261 3.57061,-1.288026 2.6851,-2.778156 z m -2.41161,-3.86135 c -0.78579,-0.685486 -2.54806,-0.859526 -3.51502,-0.347147 -0.82867,0.439086 -0.42728,0.641251 2.22533,1.120843 2.16966,0.392271 2.44022,0.229959 1.28969,-0.773696 z m -0.21952,3.457926 c -0.9076,0 -5.91911,2.129586 -5.91911,2.515262 0,1.190982 2.65274,0.536923 4.7114,-1.161636 0.90236,-0.744499 1.44582,-1.353626 1.20771,-1.353626 z m -2.38068,-0.340883 c -5.21434,1.109613 -7.20791,1.788843 -7.20791,2.455823 0,0.861016 2.24444,0.374898 6.42158,-1.390838 2.91226,-1.231061 3.16308,-1.570759 0.78633,-1.064985 z m -0.50738,-2.065511 c -2.54354,-0.469764 -3.13934,-0.454926 -4.80009,0.119567 -2.02265,0.699662 -1.23816,0.977769 2.22556,0.788987 4.30249,-0.234499 4.96269,-0.46749 2.57453,-0.908554 z m -1.34051,1.3364 c -4.66797,0.201529 -7.7141,1.01905 -6.64133,1.782377 0.50441,0.358919 1.52585,0.237784 5.26493,-0.624391 5.09517,-1.174854 5.27521,-1.326319 1.3764,-1.157986 z M 87.241717,22.552239 C 84.036622,22.403432 83.709855,22.3321 81.737493,21.35068 c -2.35548,-1.172048 -3.720346,-1.313964 -4.455805,-0.46329 -0.679058,0.785449 0.168983,1.680986 1.859469,1.963632 1.497198,0.250321 7.477851,0.259731 9.935304,0.0156 1.307876,-0.129918 0.99899,-0.182849 -1.834744,-0.314413 z"
       id="path112"
       sodipodi:nodetypes="cssscssssssscsssssscssscsssscssscscsssssssssssssssssssscssscssssscssssssssssssssscscssscsscssscscssscsssscsscsscsscssssssssssssssscssscsscssssssssscsssssssscssccssssssssssssccsssscsccscscsssssssscscscsssscssscsccsssssscssssscsssssssssssssssssssscssscccsccsssssssssssssssssssssssssssccccssscssssccsssssssssssssssssssssssssssssssssscssccsscsssscccssssscsssssssscsssccssssssssssscsssssssssssssssssssssssssssssssssssss" />
  </g>
</svg>
