<?xml version="1.0" encoding="UTF-8" standalone="no"?>
<svg
   xmlns:dc="http://purl.org/dc/elements/1.1/"
   xmlns:cc="http://creativecommons.org/ns#"
   xmlns:rdf="http://www.w3.org/1999/02/22-rdf-syntax-ns#"
   xmlns:svg="http://www.w3.org/2000/svg"
   xmlns="http://www.w3.org/2000/svg"
   xmlns:sodipodi="http://sodipodi.sourceforge.net/DTD/sodipodi-0.dtd"
   xmlns:inkscape="http://www.inkscape.org/namespaces/inkscape"
   width="188.5mm"
   height="16mm"
   viewBox="0 0 188.5 16"
   version="1.1"
   id="svg8"
   inkscape:version="1.0.2 (e86c870879, 2021-01-15, custom)"
   sodipodi:docname="спираль скоросшиватель - вариант 5 (только низ).svg">
  <defs
     id="defs2" />
  <sodipodi:namedview
     id="base"
     pagecolor="#ffffff"
     bordercolor="#666666"
     borderopacity="1.0"
     inkscape:pageopacity="0.0"
     inkscape:pageshadow="2"
     inkscape:zoom="1.1843678"
     inkscape:cx="-71.329008"
     inkscape:cy="-64.355858"
     inkscape:document-units="mm"
     inkscape:current-layer="layer1"
     inkscape:document-rotation="0"
     showgrid="false"
     inkscape:window-width="1692"
     inkscape:window-height="906"
     inkscape:window-x="149"
     inkscape:window-y="100"
     inkscape:window-maximized="0" />
  <metadata
     id="metadata5">
    <rdf:RDF>
      <cc:Work
         rdf:about="">
        <dc:format>image/svg+xml</dc:format>
        <dc:type
           rdf:resource="http://purl.org/dc/dcmitype/StillImage" />
        <dc:title></dc:title>
      </cc:Work>
    </rdf:RDF>
  </metadata>
  <g
     inkscape:label="Слой 1"
     inkscape:groupmode="layer"
     id="layer1">
    <path
       id="path925"
       style="fill:#ff0000;stroke:none;stroke-width:1"
       d="m -50.861616,0.29912124 c -0.878332,0.003645 -1.759232,0.23024194 -1.944434,0.63908135 -0.61537,1.35867521 -0.713687,3.52981931 0.204605,4.85629281 -1.153793,0.1268894 -2.511716,0.4049174 -3.266812,-0.1398349 -1.072641,-0.7739824 -0.568551,-2.8641473 -0.416076,-3.7744135 0.146101,-0.8720406 0.347063,-1.80110582 -2.29185,-1.49257076 -2.13526,0.24962053 -1.656898,2.14905906 -1.632034,2.93231676 0.02849,0.9033123 0.411994,2.2044867 0.267085,2.5760058 -0.07279,0.1546877 -0.376053,0.168646 -0.703758,0.1501812 -0.408965,-0.023039 -5.418598,0.033655 -5.418598,0.033655 v 3.1275628 h 5.772193 c 0.271581,0 0.397679,0.00692 0.475123,0.064744 0.240942,0.1733077 -0.431601,1.9367152 -0.346729,2.8748302 0.06227,0.689747 -0.382462,2.483439 1.18712,2.861366 1.633167,0.393216 2.997435,-0.06491 2.935188,-0.868508 -0.08789,-1.131462 -0.262219,-2.25855 -0.223829,-3.392208 0.01236,-0.360432 -0.135814,-0.9422419 0.328878,-1.2501963 0.07281,-0.048255 0.168237,-0.087394 0.272578,-0.1227372 h 0.129767 v -0.041436 c 1.183107,-0.3133505 1.378768,-0.035242 2.516366,-0.1097917 l 0.153797,0.078719 c -0.425948,1.4032212 -0.262488,2.8792032 -0.03158,4.2907522 0.08572,0.524754 0.13236,1.258568 1.44322,1.407119 3.166513,0.358795 2.477156,-1.289642 2.381108,-2.227982 -0.08519,-0.831859 -0.112802,-1.656341 -0.03914,-2.488998 0.02398,-0.270361 -0.09164,-0.7888943 0.445599,-0.970533 0.191313,-0.064711 0.510055,-0.1007794 0.879527,-0.1222316 v 0.017081 c 0.240624,0.00979 0.586677,0.016033 0.744955,0.023309 1.565276,0.071951 1.215816,0.8081376 1.176822,1.3786336 -0.0618,0.899903 -0.834506,4.031973 1.526983,4.332185 4.026825,0.512016 2.276158,-3.341997 2.312449,-4.42178 0.01673,-0.494368 -0.10661,-1.1719012 1.155536,-1.2999148 0.0015,-1.519e-4 0.006,-3.664e-4 0.0076,-5.181e-4 v -0.00777 c 0.240624,0.00979 0.586678,0.016035 0.744955,0.023309 1.565276,0.071951 1.215818,0.8081369 1.176822,1.3786339 -0.0618,0.899905 -0.834505,4.031972 1.526984,4.332185 4.026822,0.512016 2.276156,-3.341997 2.312449,-4.421781 0.01673,-0.494368 -0.10661,-1.1719005 1.155537,-1.2999141 0.0015,-1.52e-4 0.006,-3.662e-4 0.0076,-5.182e-4 v 0.00777 c 0.240627,0.00979 0.586678,0.016035 0.744954,0.023292 1.565277,0.071951 1.21582,0.8081363 1.176824,1.3786353 -0.06179,0.899903 -0.834505,4.03197 1.526984,4.332183 4.026824,0.512015 2.276156,-3.341998 2.312446,-4.421781 0.01673,-0.494368 -0.10661,-1.1718982 1.155538,-1.2999136 0.0015,-1.519e-4 0.006,-3.647e-4 0.0076,-5.181e-4 v -0.00777 c 0.240622,0.00979 0.586674,0.016035 0.744954,0.023309 1.565277,0.071951 1.215814,0.8081367 1.176819,1.3786347 -0.0618,0.899904 -0.834504,4.031971 1.526984,4.332183 4.026828,0.512017 2.276157,-3.341995 2.312451,-4.42178 0.01673,-0.494366 -0.106611,-1.1718986 1.155536,-1.2999139 0.0015,-1.519e-4 0.006,-3.645e-4 0.0076,-5.165e-4 0.240627,0.00979 0.586678,0.016035 0.744953,0.023309 1.565278,0.071951 1.21582,0.8081354 1.176823,1.3786344 -0.0618,0.899903 -0.834504,4.031972 1.526985,4.332184 4.026824,0.512016 2.276157,-3.341997 2.312446,-4.42178 0.01673,-0.494368 -0.10661,-1.171901 1.155538,-1.2999147 0.0015,-1.519e-4 0.006,-3.662e-4 0.0076,-5.181e-4 v -0.00777 c 0.240622,0.00979 0.586674,0.016035 0.744953,0.023292 1.565278,0.071951 1.215815,0.8081348 1.176819,1.3786338 -0.0618,0.899904 -0.834504,4.03197 1.5269851,4.332184 4.0268275,0.512016 2.2761609,-3.341997 2.3124487,-4.42178 0.016728,-0.494368 -0.10661,-1.1718987 1.1555382,-1.2999141 0.00146,-1.519e-4 0.00598,-3.645e-4 0.00757,-5.181e-4 0.2406274,0.00979 0.5866783,0.016035 0.7449539,0.023309 1.5652774,0.071951 1.2158198,0.8081372 1.1768229,1.3786342 -0.061795,0.899905 -0.8345042,4.031972 1.5269847,4.332185 4.0268235,0.512015 2.27616095,-3.341996 2.31244611,-4.421781 0.0167276,-0.494366 -0.10661007,-1.1719008 1.15553814,-1.2999144 0.001462,-1.52e-4 0.005979,-3.646e-4 0.007573,-5.165e-4 0.24062202,0.00979 0.58667835,0.016035 0.74495385,0.023292 1.5652775,0.071951 1.2158146,0.8081369 1.176823,1.3786359 -0.061795,0.899905 -0.8345042,4.031973 1.5269833,4.332185 4.0268249,0.512016 2.276157,-3.341997 2.3124461,-4.42178 0.016728,-0.494368 -0.10661,-1.1718992 1.1555382,-1.2999145 0.00146,-1.52e-4 0.00598,-3.646e-4 0.00757,-5.182e-4 v -0.00777 c 0.240626,0.00979 0.5866823,0.016035 0.7449539,0.023292 1.5652774,0.071951 1.2158198,0.8081377 1.1768229,1.3786357 -0.061795,0.899903 -0.8345042,4.031971 1.526984,4.332183 4.026824,0.512018 2.276157,-3.341995 2.31245,-4.421779 0.01673,-0.494368 -0.10661,-1.1719006 1.155537,-1.2999142 0.0015,-1.537e-4 0.006,-3.662e-4 0.0076,-5.182e-4 v 0.00777 c 0.240628,0.00979 0.58668,0.016035 0.744956,0.023292 1.565276,0.071951 1.215818,0.8081364 1.176823,1.3786354 -0.0618,0.899904 -0.834505,4.03197 1.526983,4.332184 4.026825,0.512017 2.276157,-3.341997 2.312446,-4.42178 0.01673,-0.494368 -0.10661,-1.1719003 1.155538,-1.2999139 0.0015,-1.536e-4 0.006,-3.662e-4 0.0076,-5.182e-4 v -0.00777 c 0.240622,0.00979 0.586675,0.016035 0.744954,0.023309 1.565278,0.071951 1.215815,0.8081371 1.176819,1.3786331 -0.0618,0.899905 -0.834504,4.031973 1.526985,4.332185 4.026827,0.512016 2.276157,-3.341995 2.31245,-4.42178 0.01673,-0.494367 -0.10661,-1.1719007 1.155537,-1.2999143 0.0015,-1.52e-4 0.006,-3.662e-4 0.0076,-5.165e-4 0.240627,0.00979 0.586678,0.016035 0.744954,0.023292 1.565277,0.071951 1.21582,0.8081368 1.176824,1.3786328 -0.0618,0.899905 -0.834505,4.031973 1.526984,4.332185 4.026824,0.512016 2.276156,-3.341997 2.312446,-4.42178 0.01673,-0.494368 -0.10661,-1.1718987 1.155538,-1.2999141 0.0015,-1.519e-4 0.006,-3.662e-4 0.0076,-5.181e-4 v -0.00777 c 0.240622,0.00979 0.586674,0.016035 0.744954,0.023292 1.565277,0.071951 1.215814,0.8081372 1.176819,1.3786352 -0.0618,0.899903 -0.834504,4.031969 1.526985,4.332183 4.026827,0.512016 2.276156,-3.341997 2.31245,-4.42178 0.01673,-0.494367 -0.10661,-1.1718991 1.155536,-1.2999144 0.0015,-1.52e-4 0.006,-3.646e-4 0.0076,-5.182e-4 0.240627,0.00979 0.586678,0.016035 0.744953,0.023309 1.565278,0.071951 1.21582,0.8081366 1.176823,1.3786336 -0.06179,0.899904 -0.834504,4.031972 1.526985,4.332186 4.026824,0.512017 2.276157,-3.341997 2.312446,-4.42178 0.01673,-0.494368 -0.10661,-1.1719005 1.155538,-1.2999141 0.0015,-1.536e-4 0.006,-3.662e-4 0.0076,-5.182e-4 v -0.00777 c 0.240622,0.00979 0.586674,0.016035 0.744953,0.023309 1.565278,0.071951 1.215812,0.8081353 1.176823,1.3786333 -0.06179,0.899903 -0.834504,4.031971 1.526981,4.332185 4.026828,0.512015 2.276161,-3.341997 2.312449,-4.421781 0.01673,-0.494368 -0.10661,-1.1718999 1.155538,-1.2999135 0.0015,-1.52e-4 0.006,-3.663e-4 0.0076,-5.182e-4 v -0.00777 c 0.240628,0.00979 0.586679,0.016035 0.744954,0.023309 1.565278,0.071951 1.21582,0.8081357 1.176823,1.3786337 -0.06179,0.899903 -0.834504,4.031972 1.526985,4.332185 4.026823,0.512015 2.27615,-3.341998 2.31245,-4.421781 0.01674,-0.494368 -0.106544,-1.1719003 1.155534,-1.299914 0.0012,-1.4e-4 0.0057,-3.695e-4 0.0076,-5.181e-4 v 0.00777 c 0.240629,0.00979 0.586685,0.016035 0.744954,0.023309 1.565284,0.071951 1.215819,0.8081351 1.176823,1.3786341 -0.06178,0.899904 -0.834501,4.031972 1.526985,4.332184 4.02683,0.512017 2.276159,-3.341997 2.312444,-4.42178 0.01674,-0.494368 -0.106556,-1.171899 1.155539,-1.2999144 0.0013,-1.518e-4 0.0069,-3.662e-4 0.0082,-5.181e-4 v -0.00777 c 0.240585,0.00979 0.586124,0.016035 0.744259,0.023309 1.565271,0.071952 1.215812,0.8081355 1.176816,1.3786355 -0.06178,0.899903 -0.834492,4.031971 1.526993,4.332183 4.026829,0.512017 2.276146,-3.341997 2.312445,-4.42178 0.01674,-0.494368 -0.106557,-1.1718994 1.155545,-1.2999147 0.0012,-1.383e-4 0.0053,-3.696e-4 0.008,-5.181e-4 h 6.9e-4 c 0.240591,0.00979 0.58613,0.016035 0.744265,0.023309 1.56527,0.071951 1.215812,0.8081348 1.176816,1.3786328 -0.06178,0.899904 -0.834506,4.031973 1.526993,4.332185 4.026815,0.512016 2.276159,-3.341997 2.312444,-4.42178 0.01674,-0.494368 -0.106557,-1.1719006 1.155532,-1.2999159 0.0013,-1.501e-4 0.0053,-3.645e-4 0.008,-5.165e-4 v -0.00777 c 0.240603,0.00979 0.586156,0.016035 0.744277,0.023309 1.565284,0.071951 1.215812,0.8081354 1.176817,1.3786334 -0.06178,0.899903 -0.834506,4.031971 1.526979,4.332185 4.026842,0.512016 2.276173,-3.341997 2.312458,-4.421781 0.01674,-0.494368 -0.106557,-1.1719 1.155532,-1.2999136 0.0012,-1.402e-4 0.0053,-3.698e-4 0.008,-5.182e-4 h 6.78e-4 c 0.24059,0.00979 0.58613,0.016033 0.744264,0.023309 1.565271,0.071951 1.215825,0.8081368 1.17683,1.3786328 -0.06178,0.899905 -0.834506,4.031971 1.526979,4.332185 4.026829,0.512017 2.27616,-3.341996 2.312445,-4.42178 0.01674,-0.494367 -0.106557,-1.1719004 1.155545,-1.299914 0.0012,-1.401e-4 0.0053,-3.697e-4 0.008,-5.182e-4 h 6.91e-4 c 0.240603,0.00979 0.586129,0.016035 0.744264,0.023309 1.565284,0.071951 1.215825,0.8081372 1.176829,1.3786342 -0.06178,0.899904 -0.834505,4.031972 1.526983,4.332184 4.02681,0.512019 2.27616,-3.341995 2.31244,-4.42178 0.0167,-0.494366 -0.10656,-1.1718991 1.15555,-1.2999145 0.001,-1.519e-4 0.005,-3.645e-4 0.008,-5.181e-4 v -0.00777 c 0.2406,0.00979 0.58614,0.016035 0.74426,0.023309 1.56529,0.071951 1.21583,0.8081376 1.17683,1.3786356 -0.0618,0.899903 -0.8345,4.031971 1.52698,4.332185 4.02683,0.512016 2.27616,-3.341997 2.31245,-4.421782 0.0167,-0.494367 -0.10656,-1.1718995 1.15553,-1.2999131 10e-4,-1.418e-4 0.005,-3.713e-4 0.008,-5.182e-4 v 0.00777 c 0.24062,0.00979 0.58667,0.016035 0.74495,0.023309 1.56528,0.071951 1.21582,0.8081393 1.17682,1.3786343 -0.0618,0.899906 -0.8345,4.031972 1.52699,4.332186 4.02682,0.512017 2.27616,-3.341997 2.31245,-4.42178 0.0167,-0.494368 -0.10656,-1.1719012 1.15553,-1.2999148 10e-4,-1.52e-4 0.005,-3.663e-4 0.008,-5.182e-4 v -0.00777 c 0.24059,0.00979 0.58613,0.016035 0.74427,0.023309 1.56527,0.071951 1.21581,0.808137 1.17681,1.378633 -0.0618,0.899905 -0.8345,4.031973 1.52699,4.332185 4.02683,0.512017 2.27616,-3.341997 2.31245,-4.42178 0.0167,-0.494368 -0.10656,-1.1719006 1.15553,-1.2999143 0.001,-1.4e-4 0.005,-3.695e-4 0.008,-5.181e-4 h 6.8e-4 c 0.24059,0.00979 0.58616,0.016035 0.74428,0.023292 1.56528,0.071951 1.21581,0.8081374 1.17681,1.3786344 -0.0618,0.899904 -0.8345,4.031972 1.52698,4.332187 4.02683,0.512016 2.27616,-3.341998 2.31246,-4.421781 0.0167,-0.494368 -0.10655,-1.1719013 1.15553,-1.299915 0.001,-1.536e-4 0.007,-3.662e-4 0.008,-5.181e-4 v -0.00777 c 0.24059,0.00979 0.58612,0.016035 0.74426,0.023309 1.56527,0.071951 1.21582,0.8081351 1.17683,1.3786331 -0.0618,0.899903 -0.83452,4.031969 1.52698,4.332186 4.02681,0.512013 2.27614,-3.341998 2.31244,-4.421782 0.0167,-0.494368 -0.10655,-1.1718997 1.15555,-1.2999133 0.001,-1.4e-4 0.005,-3.696e-4 0.008,-5.182e-4 h 6.9e-4 c 0.2406,0.00979 0.58614,0.016035 0.74427,0.023292 1.56528,0.071951 1.21582,0.8081375 1.17682,1.3786355 -0.0618,0.899903 -0.8345,4.031971 1.52698,4.332185 4.02683,0.512016 2.27616,-3.341997 2.31245,-4.42178 0.0167,-0.494368 -0.10656,-1.1719014 1.15554,-1.299915 10e-4,-1.537e-4 0.007,-3.663e-4 0.008,-5.182e-4 v -0.00777 c 0.2406,0.00979 0.58613,0.016035 0.74426,0.023292 1.56528,0.071951 1.21581,0.8081382 1.17682,1.3786352 -0.0618,0.899905 -0.8345,4.031972 1.52699,4.332185 4.02683,0.512016 2.27616,-3.341998 2.31244,-4.421781 0.0167,-0.494366 -0.10655,-1.1718984 1.15555,-1.2999137 0.001,-1.4e-4 0.005,-3.696e-4 0.008,-5.182e-4 h 6.9e-4 c 0.24059,0.00979 0.58614,0.016035 0.74427,0.023309 1.56528,0.071951 1.21581,0.8081369 1.17681,1.3786339 -0.0618,0.899905 -0.83449,4.031972 1.52699,4.332186 4.02683,0.512016 2.27615,-3.341998 2.31245,-4.421782 0.0167,-0.494368 -0.10656,-1.1719005 1.15553,-1.2999141 0.001,-1.518e-4 0.007,-3.662e-4 0.008,-5.182e-4 v -0.00777 c 0.24059,0.00979 0.58615,0.016035 0.74428,0.023292 1.56527,0.071951 1.21581,0.8081363 1.17682,1.3786353 -0.0618,0.899903 -0.83452,4.031969 1.52699,4.332184 4.0268,0.512013 2.27615,-3.341997 2.31244,-4.421782 0.0167,-0.494366 -0.10655,-1.1718982 1.15554,-1.2999136 0.001,-1.383e-4 0.005,-3.696e-4 0.008,-5.181e-4 h 6.9e-4 c 0.2406,0.00979 0.58614,0.016035 0.74426,0.023309 1.56529,0.071951 1.21583,0.8081357 1.17683,1.3786337 -0.0618,0.899903 -0.8345,4.031971 1.52698,4.332185 4.02683,0.512015 2.27617,-3.341997 2.31246,-4.42178 0.0167,-0.494368 -0.10656,-1.1719013 1.15553,-1.2999149 10e-4,-1.518e-4 0.007,-3.663e-4 0.008,-5.182e-4 v -0.098923 c 0.55678,0.02535 1.05877,0.073926 1.2853,0.193693 0.63026,0.3330825 0.2845,1.0983881 0.25954,1.5039641 -0.0638,1.035102 -0.28879,2.399154 0.31721,3.397904 0.37485,0.617585 2.67756,0.907307 3.39383,0.267751 0.86195,-0.769704 0.11918,-2.160991 0.0927,-3.002233 -0.0248,-0.785471 0.21159,-1.574195 -0.0106,-2.3543465 l 0.16477,-0.073538 c 1.20464,0.098012 1.63625,-0.2432253 2.31795,0.3324884 1.08575,0.9169231 0.178,2.8329971 0.26845,3.8614191 0.0694,0.789363 0.34049,1.505206 2.34953,1.411262 1.49342,-0.06984 1.41116,-0.782009 1.43704,-1.343417 0.0504,-1.08252 -0.86723,-3.019335 0.0858,-4.0012508 0.12693,-0.1307715 1.3413,0.043353 3.02659,-0.1966224 1.61206,-0.2295476 2.50111,-3.5748052 2.50111,-3.5748052 0,0 -195.1276101,-0.032101 -196.5499352,0.076375 -0.2228833,0.01698 -0.6438695,0.024473 -0.9742784,0.042465 V 5.937435 C -6.5613101,5.927315 -6.9775876,5.906586 -7.2210582,5.911549 L -7.374855,5.8328307 c 0.1280411,-0.7555988 -3.391387,-0.050472 -4.813716,0.058003 -0.222885,0.01698 -0.643869,0.02449 -0.974274,0.042465 -0.322767,-0.010124 -0.739046,-0.030854 -0.982516,-0.025891 l -0.153764,-0.078719 c 0.128041,-0.7555987 -3.391381,-0.050472 -4.813706,0.058005 -0.222883,0.01698 -0.64387,0.024473 -0.974278,0.042465 v -0.00777 c -0.322767,-0.010124 -0.739044,-0.030854 -0.982515,-0.025891 l -0.153797,-0.078719 c 0.128041,-0.7555971 -3.391388,-0.050472 -4.813713,0.058005 -0.222884,0.01698 -0.643869,0.024473 -0.974274,0.042465 -0.322767,-0.010124 -0.739045,-0.030854 -0.982519,-0.025891 l -0.153796,-0.078719 c 0.128041,-0.7555987 -3.391393,-0.050474 -4.813712,0.058001 -0.222883,0.01698 -0.643869,0.024473 -0.974278,0.042465 v -0.015528 c -0.322752,-0.010124 -0.739031,-0.030854 -0.982501,-0.025891 l -0.153797,-0.078719 c 0.128041,-0.7555971 -3.167376,-5.56471421 -3.677401,-5.05930687 -1.000732,0.99113907 -0.249302,2.76054567 -0.1895,3.83448837 0.0289,0.5211857 0.475513,1.1743462 -0.946813,1.2828234 -0.222883,0.01698 -0.64387,0.024473 -0.974277,0.042465 -0.322767,-0.010124 -0.739044,-0.030854 -0.982515,-0.025891 l -0.153798,-0.078719 c 0.128041,-0.7555988 -0.09552,-1.544931 -0.119471,-2.306182 -0.01527,-0.4871278 -0.0066,-0.9727156 -0.03227,-1.4599435 -0.02178,-0.4072897 0.302072,-1.03732911 -0.205291,-1.39572494 -0.333429,-0.23542554 -1.036249,-0.33567809 -1.719231,-0.31436172 -0.68298,0.021317 -1.346123,0.16420029 -1.601136,0.41690478 -1.000731,0.99113908 -0.249302,2.76054558 -0.1895,3.83448718 0.0289,0.5211874 0.475514,1.1743479 -0.946812,1.2828251 -0.222884,0.01698 -0.64387,0.024473 -0.974278,0.042465 -0.387291,-0.038786 -0.722223,-0.1008805 -0.928261,-0.2071586 -1.181357,-0.6094546 -0.490654,-2.7175366 -0.431867,-3.4937139 0.03291,-0.435371 0.470941,-1.30717736 -0.289742,-1.6463855 -0.374657,-0.16701555 -0.900431,-0.24507541 -1.427429,-0.2428924 z"
       sodipodi:nodetypes="scccccccsccsccccccccccccccccccsccccccccccsccccccsccccccscccccsccccccscccccscccccsccccccsccccccsccccccscccccsccccccscccccsccccccsccccccsccccccsccccccsccccccsccccccsccccccsccccccsccccccsccccccsccccccscsccccsccccccscsccccsccccccscsccccsccccccscsccccscccccccccscscsscccccccccccccccccccccccccccccccccscccccccss" />
  </g>
</svg>
