<?xml version="1.0" encoding="UTF-8" standalone="no"?>
<svg
   xmlns:dc="http://purl.org/dc/elements/1.1/"
   xmlns:cc="http://creativecommons.org/ns#"
   xmlns:rdf="http://www.w3.org/1999/02/22-rdf-syntax-ns#"
   xmlns:svg="http://www.w3.org/2000/svg"
   xmlns="http://www.w3.org/2000/svg"
   xmlns:sodipodi="http://sodipodi.sourceforge.net/DTD/sodipodi-0.dtd"
   xmlns:inkscape="http://www.inkscape.org/namespaces/inkscape"
   width="188.5mm"
   height="11mm"
   viewBox="0 0 188.5 11"
   version="1.1"
   id="svg8"
   inkscape:version="1.0.2 (e86c870879, 2021-01-15, custom)"
   sodipodi:docname="спираль скоросшиватель - вариант 4.svg">
  <defs
     id="defs2" />
  <sodipodi:namedview
     id="base"
     pagecolor="#ffffff"
     bordercolor="#666666"
     borderopacity="1.0"
     inkscape:pageopacity="0.0"
     inkscape:pageshadow="2"
     inkscape:zoom="1.4"
     inkscape:cx="269.37652"
     inkscape:cy="102.15207"
     inkscape:document-units="mm"
     inkscape:current-layer="layer1"
     inkscape:document-rotation="0"
     showgrid="false"
     inkscape:window-width="1692"
     inkscape:window-height="906"
     inkscape:window-x="125"
     inkscape:window-y="134"
     inkscape:window-maximized="0" />
  <metadata
     id="metadata5">
    <rdf:RDF>
      <cc:Work
         rdf:about="">
        <dc:format>image/svg+xml</dc:format>
        <dc:type
           rdf:resource="http://purl.org/dc/dcmitype/StillImage" />
        <dc:title></dc:title>
      </cc:Work>
    </rdf:RDF>
  </metadata>
  <g
     inkscape:label="Слой 1"
     inkscape:groupmode="layer"
     id="layer1">
    <path
       id="path925"
       style="fill:#ff0000;stroke:none;stroke-width:1"
       d="m -50.861616,1.203585 c -0.878332,0.00216 -1.759232,0.1364146 -1.944434,0.3786453 -0.61537,0.8049929 -0.713687,2.0913605 0.204605,2.8772745 -1.153793,0.07518 -2.511716,0.239907 -3.266812,-0.08285 -1.072641,-0.458572 -0.568551,-1.6969607 -0.416076,-2.2362786 0.146101,-0.5166699 0.347063,-1.0671259 -2.29185,-0.8843239 -2.13526,0.1478961 -1.656898,1.2732825 -1.632034,1.73735 0.02849,0.5351978 0.411994,1.3061225 0.267085,1.5262415 -0.07279,0.09165 -0.376053,0.09992 -0.703758,0.08898 -0.408965,-0.01365 -5.418598,0.01994 -5.418598,0.01994 v 1.85303 h 5.772193 c 0.271581,0 0.397679,0.0041 0.475123,0.03836 0.240942,0.102682 -0.431601,1.147472 -0.346729,1.70329 0.06227,0.408664 -0.382462,1.471397 1.18712,1.695313 1.633167,0.2329742 2.997435,-0.03846 2.935188,-0.514577 -0.08789,-0.670373 -0.262219,-1.338154 -0.223829,-2.009828 0.01236,-0.21355 -0.135814,-0.558263 0.328878,-0.740721 0.07281,-0.02859 0.168237,-0.05178 0.272578,-0.07272 h 0.129767 v -0.02455 c 1.183107,-0.185655 1.378768,-0.02088 2.516366,-0.06505 l 0.153797,0.04664 c -0.425948,0.831386 -0.262488,1.705881 -0.03158,2.542201 0.08572,0.310908 0.13236,0.745681 1.44322,0.833695 3.166513,0.2125812 2.477156,-0.764092 2.381108,-1.320043 -0.08519,-0.492863 -0.112802,-0.981355 -0.03914,-1.474691 0.02398,-0.160184 -0.09164,-0.467407 0.445599,-0.575025 0.191313,-0.03834 0.510055,-0.05971 0.879527,-0.07242 v 0.01012 c 0.240624,0.0058 0.586677,0.0095 0.744955,0.01381 1.565276,0.04263 1.215816,0.478808 1.176822,0.816818 -0.0618,0.533178 -0.834506,2.388878 1.526983,2.566749 4.026825,0.3033612 2.276158,-1.980079 2.312449,-2.619833 0.01673,-0.292905 -0.10661,-0.694332 1.155536,-0.770178 0.0015,-9e-5 0.006,-2.17e-4 0.0076,-3.07e-4 v -0.0046 c 0.240624,0.0058 0.586678,0.0095 0.744955,0.01381 1.565276,0.04263 1.215818,0.478808 1.176822,0.816818 -0.0618,0.533179 -0.834505,2.388878 1.526984,2.566749 4.026822,0.3033612 2.276156,-1.980079 2.312449,-2.619833 0.01673,-0.292905 -0.10661,-0.694332 1.155537,-0.770178 0.0015,-9e-5 0.006,-2.17e-4 0.0076,-3.07e-4 v 0.0046 c 0.240627,0.0058 0.586678,0.0095 0.744954,0.0138 1.565277,0.04263 1.21582,0.478808 1.176824,0.816819 -0.06179,0.533178 -0.834505,2.388877 1.526984,2.566748 4.026824,0.3033612 2.276156,-1.980079 2.312446,-2.619833 0.01673,-0.292905 -0.10661,-0.694331 1.155538,-0.770178 0.0015,-9e-5 0.006,-2.16e-4 0.0076,-3.07e-4 v -0.0046 c 0.240622,0.0058 0.586674,0.0095 0.744954,0.01381 1.565277,0.04263 1.215814,0.478808 1.176819,0.816819 -0.0618,0.533178 -0.834504,2.388877 1.526984,2.566748 4.026828,0.3033622 2.276157,-1.980078 2.312451,-2.619833 0.01673,-0.292904 -0.106611,-0.694331 1.155536,-0.770178 0.0015,-9e-5 0.006,-2.16e-4 0.0076,-3.06e-4 0.240627,0.0058 0.586678,0.0095 0.744953,0.01381 1.565278,0.04263 1.21582,0.478807 1.176823,0.816818 -0.0618,0.533178 -0.834504,2.388878 1.526985,2.566749 4.026824,0.3033612 2.276157,-1.980079 2.312446,-2.619833 0.01673,-0.292905 -0.10661,-0.694332 1.155538,-0.770178 0.0015,-9e-5 0.006,-2.17e-4 0.0076,-3.07e-4 v -0.0046 c 0.240622,0.0058 0.586674,0.0095 0.744953,0.0138 1.565278,0.04263 1.215815,0.478807 1.176819,0.816818 -0.0618,0.533179 -0.834504,2.388877 1.5269851,2.566749 4.0268275,0.3033612 2.2761609,-1.980079 2.3124487,-2.619833 0.016728,-0.292905 -0.10661,-0.694331 1.1555382,-0.770178 0.00146,-9e-5 0.00598,-2.16e-4 0.00757,-3.07e-4 0.2406274,0.0058 0.5866783,0.0095 0.7449539,0.01381 1.5652774,0.04263 1.2158198,0.478808 1.1768229,0.816818 -0.061795,0.533179 -0.8345042,2.388878 1.5269847,2.566749 4.0268235,0.3033612 2.27616095,-1.980078 2.31244611,-2.619833 0.0167276,-0.292904 -0.10661007,-0.694332 1.15553814,-0.770178 0.001462,-9e-5 0.005979,-2.16e-4 0.007573,-3.06e-4 0.24062202,0.0058 0.58667835,0.0095 0.74495385,0.0138 1.5652775,0.04263 1.2158146,0.478808 1.176823,0.816819 -0.061795,0.533178 -0.8345042,2.388877 1.5269833,2.566748 4.0268249,0.3033612 2.276157,-1.980079 2.3124461,-2.619833 0.016728,-0.292905 -0.10661,-0.694331 1.1555382,-0.770178 0.00146,-9e-5 0.00598,-2.16e-4 0.00757,-3.07e-4 v -0.0046 c 0.240626,0.0058 0.5866823,0.0095 0.7449539,0.0138 1.5652774,0.04263 1.2158198,0.478808 1.1768229,0.816819 -0.061795,0.533178 -0.8345042,2.388877 1.526984,2.566748 4.026824,0.3033622 2.276157,-1.980078 2.31245,-2.619832 0.01673,-0.292905 -0.10661,-0.694332 1.155537,-0.770178 0.0015,-9.1e-5 0.006,-2.17e-4 0.0076,-3.07e-4 v 0.0046 c 0.240628,0.0058 0.58668,0.0095 0.744956,0.0138 1.565276,0.04263 1.215818,0.478808 1.176823,0.816819 -0.0618,0.533179 -0.834505,2.388877 1.526983,2.566749 4.026825,0.3033612 2.276157,-1.980079 2.312446,-2.619833 0.01673,-0.292905 -0.10661,-0.694332 1.155538,-0.770178 0.0015,-9.1e-5 0.006,-2.17e-4 0.0076,-3.07e-4 v -0.0046 c 0.240622,0.0058 0.586675,0.0095 0.744954,0.01381 1.565278,0.04263 1.215815,0.478808 1.176819,0.816818 -0.0618,0.533179 -0.834504,2.388878 1.526985,2.566749 4.026827,0.3033612 2.276157,-1.980078 2.31245,-2.619833 0.01673,-0.292904 -0.10661,-0.694332 1.155537,-0.770178 0.0015,-9e-5 0.006,-2.17e-4 0.0076,-3.06e-4 0.240627,0.0058 0.586678,0.0095 0.744954,0.0138 1.565277,0.04263 1.21582,0.478808 1.176824,0.816818 -0.0618,0.533179 -0.834505,2.388878 1.526984,2.566749 4.026824,0.3033612 2.276156,-1.980079 2.312446,-2.619833 0.01673,-0.292905 -0.10661,-0.694331 1.155538,-0.770178 0.0015,-9e-5 0.006,-2.17e-4 0.0076,-3.07e-4 v -0.0046 c 0.240622,0.0058 0.586674,0.0095 0.744954,0.0138 1.565277,0.04263 1.215814,0.478808 1.176819,0.816819 -0.0618,0.533178 -0.834504,2.388876 1.526985,2.566748 4.026827,0.3033612 2.276156,-1.980079 2.31245,-2.619833 0.01673,-0.292904 -0.10661,-0.694331 1.155536,-0.770178 0.0015,-9e-5 0.006,-2.16e-4 0.0076,-3.07e-4 0.240627,0.0058 0.586678,0.0095 0.744953,0.01381 1.565278,0.04263 1.21582,0.478808 1.176823,0.816818 -0.06179,0.533179 -0.834504,2.388878 1.526985,2.56675 4.026824,0.3033612 2.276157,-1.980079 2.312446,-2.619833 0.01673,-0.292905 -0.10661,-0.694332 1.155538,-0.770178 0.0015,-9.1e-5 0.006,-2.17e-4 0.0076,-3.07e-4 v -0.0046 c 0.240622,0.0058 0.586674,0.0095 0.744953,0.01381 1.565278,0.04263 1.215812,0.478807 1.176823,0.816818 -0.06179,0.533178 -0.834504,2.388877 1.526981,2.566749 4.026828,0.3033612 2.276161,-1.980079 2.312449,-2.619833 0.01673,-0.292905 -0.10661,-0.694332 1.155538,-0.770178 0.0015,-9e-5 0.006,-2.17e-4 0.0076,-3.07e-4 v -0.0046 c 0.240628,0.0058 0.586679,0.0095 0.744954,0.01381 1.565278,0.04263 1.21582,0.478807 1.176823,0.816818 -0.06179,0.533178 -0.834504,2.388878 1.526985,2.566749 4.026823,0.3033612 2.27615,-1.980079 2.31245,-2.619833 0.01674,-0.292905 -0.106544,-0.694332 1.155534,-0.770178 0.0012,-8.3e-5 0.0057,-2.19e-4 0.0076,-3.07e-4 v 0.0046 c 0.240629,0.0058 0.586685,0.0095 0.744954,0.01381 1.565284,0.04263 1.215819,0.478807 1.176823,0.816818 -0.06178,0.533179 -0.834501,2.388878 1.526985,2.566749 4.02683,0.3033612 2.276159,-1.980079 2.312444,-2.619833 0.01674,-0.292905 -0.106556,-0.694331 1.155539,-0.770178 0.0013,-9e-5 0.0069,-2.17e-4 0.0082,-3.07e-4 v -0.0046 c 0.240585,0.0058 0.586124,0.0095 0.744259,0.01381 1.565271,0.04263 1.215812,0.478807 1.176816,0.816819 -0.06178,0.533178 -0.834492,2.388877 1.526993,2.566748 4.026829,0.3033612 2.276146,-1.980079 2.312445,-2.619833 0.01674,-0.292905 -0.106557,-0.694331 1.155545,-0.770178 0.0012,-8.2e-5 0.0053,-2.19e-4 0.008,-3.07e-4 h 6.9e-4 c 0.240591,0.0058 0.58613,0.0095 0.744265,0.01381 1.56527,0.04263 1.215812,0.478807 1.176816,0.816818 -0.06178,0.533178 -0.834506,2.388878 1.526993,2.566749 4.026815,0.3033612 2.276159,-1.980079 2.312444,-2.619833 0.01674,-0.292905 -0.106557,-0.694332 1.155532,-0.770179 0.0013,-8.9e-5 0.0053,-2.16e-4 0.008,-3.06e-4 v -0.0046 c 0.240603,0.0058 0.586156,0.0095 0.744277,0.01381 1.565284,0.04263 1.215812,0.478807 1.176817,0.816818 -0.06178,0.533178 -0.834506,2.388877 1.526979,2.566749 4.026842,0.3033612 2.276173,-1.980079 2.312458,-2.619833 0.01674,-0.292905 -0.106557,-0.694332 1.155532,-0.770178 0.0012,-8.3e-5 0.0053,-2.19e-4 0.008,-3.07e-4 h 6.78e-4 c 0.24059,0.0058 0.58613,0.0095 0.744264,0.01381 1.565271,0.04263 1.215825,0.478808 1.17683,0.816818 -0.06178,0.533179 -0.834506,2.388877 1.526979,2.566749 4.026829,0.3033612 2.27616,-1.980078 2.312445,-2.619833 0.01674,-0.292904 -0.106557,-0.694332 1.155545,-0.770178 0.0012,-8.3e-5 0.0053,-2.19e-4 0.008,-3.07e-4 h 6.91e-4 c 0.240603,0.0058 0.586129,0.0095 0.744264,0.01381 1.565284,0.04263 1.215825,0.478808 1.176829,0.816818 -0.06178,0.533179 -0.834505,2.388878 1.526983,2.566749 4.02681,0.3033622 2.27616,-1.980078 2.31244,-2.619833 0.0167,-0.292904 -0.10656,-0.694331 1.15555,-0.770178 0.001,-9e-5 0.005,-2.16e-4 0.008,-3.07e-4 v -0.0046 c 0.2406,0.0058 0.58614,0.0095 0.74426,0.01381 1.56529,0.04263 1.21583,0.478808 1.17683,0.816819 -0.0618,0.533178 -0.8345,2.388877 1.52698,2.566749 4.02683,0.3033612 2.27616,-1.980079 2.31245,-2.619834 0.0167,-0.292904 -0.10656,-0.694331 1.15553,-0.770177 10e-4,-8.4e-5 0.005,-2.2e-4 0.008,-3.07e-4 v 0.0046 c 0.24062,0.0058 0.58667,0.0095 0.74495,0.01381 1.56528,0.04263 1.21582,0.478809 1.17682,0.816818 -0.0618,0.53318 -0.8345,2.388878 1.52699,2.5667502 4.02682,0.303361 2.27616,-1.9800792 2.31245,-2.6198332 0.0167,-0.292905 -0.10656,-0.694332 1.15553,-0.770178 10e-4,-9e-5 0.005,-2.17e-4 0.008,-3.07e-4 v -0.0046 c 0.24059,0.0058 0.58613,0.0095 0.74427,0.01381 1.56527,0.04263 1.21581,0.478808 1.17681,0.816818 -0.0618,0.533179 -0.8345,2.388878 1.52699,2.5667492 4.02683,0.303361 2.27616,-1.9800792 2.31245,-2.6198332 0.0167,-0.292905 -0.10656,-0.694332 1.15553,-0.770178 0.001,-8.3e-5 0.005,-2.19e-4 0.008,-3.07e-4 h 6.8e-4 c 0.24059,0.0058 0.58616,0.0095 0.74428,0.0138 1.56528,0.04263 1.21581,0.478808 1.17681,0.816818 -0.0618,0.533179 -0.8345,2.388878 1.52698,2.5667502 4.02683,0.303361 2.27616,-1.9800792 2.31246,-2.6198332 0.0167,-0.292905 -0.10655,-0.694332 1.15553,-0.770178 0.001,-9.1e-5 0.007,-2.17e-4 0.008,-3.07e-4 v -0.0046 c 0.24059,0.0058 0.58612,0.0095 0.74426,0.01381 1.56527,0.04263 1.21582,0.478807 1.17683,0.816818 -0.0618,0.533178 -0.83452,2.388876 1.52698,2.5667492 4.02681,0.30336 2.27614,-1.9800792 2.31244,-2.6198332 0.0167,-0.292905 -0.10655,-0.694332 1.15555,-0.770178 0.001,-8.3e-5 0.005,-2.19e-4 0.008,-3.07e-4 h 6.9e-4 c 0.2406,0.0058 0.58614,0.0095 0.74427,0.0138 1.56528,0.04263 1.21582,0.478808 1.17682,0.816819 -0.0618,0.533178 -0.8345,2.388877 1.52698,2.5667492 4.02683,0.303361 2.27616,-1.9800792 2.31245,-2.6198332 0.0167,-0.292905 -0.10656,-0.694332 1.15554,-0.770178 10e-4,-9.1e-5 0.007,-2.17e-4 0.008,-3.07e-4 v -0.0046 c 0.2406,0.0058 0.58613,0.0095 0.74426,0.0138 1.56528,0.04263 1.21581,0.478809 1.17682,0.816819 -0.0618,0.533179 -0.8345,2.388878 1.52699,2.5667492 4.02683,0.303361 2.27616,-1.9800792 2.31244,-2.6198332 0.0167,-0.292904 -0.10655,-0.694331 1.15555,-0.770178 0.001,-8.3e-5 0.005,-2.19e-4 0.008,-3.07e-4 h 6.9e-4 c 0.24059,0.0058 0.58614,0.0095 0.74427,0.01381 1.56528,0.04263 1.21581,0.478808 1.17681,0.816818 -0.0618,0.533179 -0.83449,2.388878 1.52699,2.5667492 4.02683,0.303361 2.27615,-1.9800792 2.31245,-2.6198332 0.0167,-0.292905 -0.10656,-0.694332 1.15553,-0.770178 0.001,-9e-5 0.007,-2.17e-4 0.008,-3.07e-4 v -0.0046 c 0.24059,0.0058 0.58615,0.0095 0.74428,0.0138 1.56527,0.04263 1.21581,0.478808 1.17682,0.816819 -0.0618,0.533178 -0.83452,2.388876 1.52699,2.5667482 4.0268,0.30336 2.27615,-1.9800782 2.31244,-2.6198332 0.0167,-0.292904 -0.10655,-0.694331 1.15554,-0.770178 0.001,-8.2e-5 0.005,-2.19e-4 0.008,-3.07e-4 h 6.9e-4 c 0.2406,0.0058 0.58614,0.0095 0.74426,0.01381 1.56529,0.04263 1.21583,0.478807 1.17683,0.816818 -0.0618,0.533178 -0.8345,2.388877 1.52698,2.5667492 4.02683,0.30336 2.27617,-1.9800792 2.31246,-2.6198332 0.0167,-0.292905 -0.10656,-0.694332 1.15553,-0.770178 10e-4,-9e-5 0.007,-2.17e-4 0.008,-3.07e-4 v -0.05861 c 0.55678,0.01502 1.05877,0.0438 1.2853,0.11476 0.63026,0.197346 0.2845,0.650777 0.25954,0.891074 -0.0638,0.613281 -0.28879,1.42146 0.31721,2.013203 0.37485,0.365909 2.67756,0.5375652 3.39383,0.158638 0.86195,-0.456037 0.11918,-1.280352 0.0927,-1.778774 -0.0248,-0.465379 0.21159,-0.932685 -0.0106,-1.394912 l 0.16477,-0.04357 c 1.20464,0.05807 1.63625,-0.144107 2.31795,0.196994 1.08575,0.543262 0.178,1.678505 0.26845,2.287828 0.0694,0.467685 0.34049,0.89181 2.34953,0.83615 1.49342,-0.04138 1.41116,-0.463328 1.43704,-0.795953 0.0504,-0.641375 -0.8672,-1.788887 0.0858,-2.370676 0.25385,-0.15496 5.5277,-0.06665 5.5277,-0.06665 l 0.0381,-1.969082 c 0,0 -4.39325,-0.06823 -4.62451,-0.07566 -1.43934,-0.04638 -1.20096,-0.468144 -1.24275,-0.782452 -0.0862,-0.6488676 1.14487,-2.4885587 -2.30145,-2.4283625 -1.61709,0.028276 -1.55916,0.453494 -1.52767,0.8192732 0.0449,0.5275188 0.92913,1.8172823 -0.0474,2.2657353 -0.69541,0.31942 -1.19229,0.136297 -2.36051,0.181651 l -0.15379,-0.04664 c 0.24903,-0.870456 0.38821,-2.0567647 -0.20804,-2.9150166 -0.26078,-0.3754298 -2.31158,-0.4481691 -3.13773,-0.169071 -1.29118,0.4363076 -0.55615,1.7172364 -0.49023,2.2629736 0.0248,0.204426 0.45687,0.656223 -0.25336,0.798101 -0.29022,0.05797 -0.71009,0.08511 -1.17956,0.0985 -0.32277,-0.006 -0.73904,-0.01828 -0.98252,-0.01534 l -0.15379,-0.04664 c 0.12808,-0.44768 -0.0955,-0.915347 -0.11944,-1.366376 -0.0153,-0.2886153 -0.007,-0.5763184 -0.0323,-0.864993 -0.0218,-0.2413124 0.30208,-0.6146005 -0.20529,-0.8269443 -0.66685,-0.2789715 -2.81034,-0.2386906 -3.32037,0.060755 -1.00074,0.5872339 -0.2493,1.6355783 -0.1895,2.2718723 0.0288,0.308794 0.47553,0.695781 -0.94681,0.760052 -0.22288,0.01006 -0.64386,0.01451 -0.97428,0.02516 v -0.0046 c -0.32277,-0.006 -0.73904,-0.01828 -0.98252,-0.01534 l -0.15379,-0.04664 c 0.12809,-0.447679 -0.0955,-0.915347 -0.11944,-1.3663754 -0.0153,-0.2886152 -0.007,-0.5763183 -0.0323,-0.8649929 -0.0218,-0.2413123 0.30207,-0.6146007 -0.20528,-0.8269441 -0.66687,-0.2789719 -2.81034,-0.2386907 -3.32037,0.060755 -1.00073,0.587234 -0.2493,1.6355784 -0.1895,2.2718724 0.0288,0.308794 0.4755,0.695781 -0.94682,0.760052 -0.22288,0.01006 -0.64387,0.01451 -0.97428,0.02516 -0.32276,-0.006 -0.73904,-0.01827 -0.98251,-0.01534 l -0.15379,-0.04664 c 0.12808,-0.44768 -0.0955,-0.915347 -0.11945,-1.3663756 -0.0153,-0.2886152 -0.007,-0.5763183 -0.0323,-0.864993 -0.0218,-0.2413123 0.30208,-0.6146005 -0.20529,-0.8269442 -0.66686,-0.2789715 -2.81034,-0.2386906 -3.32037,0.060755 -1.00073,0.5872339 -0.2493,1.6355783 -0.1895,2.2718718 0.0288,0.308795 0.47551,0.695782 -0.94681,0.760053 -0.22288,0.01006 -0.64386,0.01451 -0.97427,0.02516 v -0.0046 c -0.32278,-0.006 -0.73907,-0.01827 -0.98252,-0.01534 l -0.1538,-0.04664 c 0.12808,-0.44768 -0.0955,-0.915347 -0.11944,-1.366376 -0.0153,-0.2886152 -0.007,-0.5763181 -0.0323,-0.8649929 -0.0218,-0.2413128 0.30207,-0.6146003 -0.2053,-0.8269441 -0.66686,-0.2789718 -2.81034,-0.2386907 -3.32037,0.060755 -1.00073,0.5872339 -0.2493,1.6355783 -0.1895,2.271872 0.0288,0.308794 0.47552,0.695782 -0.9468,0.760053 -0.22288,0.01006 -0.64387,0.01451 -0.97428,0.02516 -0.32277,-0.006 -0.73904,-0.01828 -0.98252,-0.01534 l -0.1538,-0.04664 c 0.12808,-0.44768 -0.0955,-0.915347 -0.11944,-1.3663762 -0.0153,-0.2886152 -0.007,-0.5763183 -0.0323,-0.8649928 -0.0218,-0.2413126 0.30207,-0.6146004 -0.2053,-0.8269442 -0.66685,-0.2789718 -2.81034,-0.2386907 -3.32037,0.060755 -1.00073,0.5872339 -0.24929,1.6355784 -0.18949,2.2718722 0.0288,0.308794 0.47552,0.695782 -0.94681,0.760052 -0.22288,0.01006 -0.64386,0.0145 -0.97428,0.02516 v -0.0046 c -0.32277,-0.006 -0.73904,-0.01828 -0.98252,-0.01534 l -0.1538,-0.04664 c 0.12808,-0.44768 -0.0955,-0.915347 -0.11944,-1.3663764 -0.0153,-0.2886153 -0.007,-0.5763182 -0.0323,-0.8649928 -0.0218,-0.2413126 0.30207,-0.6146005 -0.20529,-0.8269443 -0.66687,-0.2789717 -2.81035,-0.2386906 -3.32038,0.060755 -1.00071,0.5872339 -0.24929,1.6355785 -0.18949,2.2718725 0.0288,0.308794 0.47551,0.695781 -0.94681,0.760052 -0.22288,0.01006 -0.64387,0.0145 -0.97428,0.02516 -0.32277,-0.006 -0.73904,-0.01828 -0.98252,-0.01534 l -0.15379,-0.04664 c 0.12808,-0.44768 -0.0955,-0.915347 -0.11944,-1.3663757 -0.0153,-0.2886153 -0.007,-0.5763182 -0.0323,-0.8649928 -0.0218,-0.2413126 0.30208,-0.6146006 -0.20529,-0.8269443 -0.66685,-0.2789717 -2.81034,-0.2386908 -3.32036,0.060755 -1.00073,0.5872336 -0.24931,1.6355784 -0.1895,2.2718718 0.0288,0.308795 0.4755,0.695782 -0.94682,0.760053 -0.22289,0.01006 -0.64387,0.0145 -0.97428,0.02516 v -0.0046 c -0.32276,-0.006 -0.73905,-0.01828 -0.98251,-0.01534 l -0.15379,-0.04664 c 0.12808,-0.44768 -0.0955,-0.915347 -0.11945,-1.366376 -0.0153,-0.2886152 -0.007,-0.5763181 -0.0323,-0.8649927 -0.0218,-0.2413125 0.30207,-0.6146006 -0.20529,-0.8269443 -0.66686,-0.2789716 -2.81034,-0.2386908 -3.32037,0.060755 -1.00073,0.5872338 -0.2493,1.6355783 -0.1895,2.271872 0.0288,0.308795 0.47551,0.695782 -0.94682,0.760053 -0.22288,0.01006 -0.64386,0.0145 -0.97426,0.02516 -0.32277,-0.006 -0.73906,-0.01828 -0.98252,-0.01534 l -0.1538,-0.04664 c 0.12808,-0.44768 -0.0955,-0.915347 -0.11945,-1.3663764 -0.0153,-0.2886152 -0.007,-0.5763181 -0.0323,-0.8649928 -0.0218,-0.2413125 0.30206,-0.6146005 -0.20529,-0.8269442 -0.66686,-0.2789717 -2.81034,-0.2386908 -3.32036,0.060755 -1.00074,0.5872338 -0.24931,1.6355783 -0.18951,2.2718724 0.0288,0.308794 0.47552,0.695782 -0.9468,0.760052 -0.22288,0.01006 -0.64387,0.0145 -0.97428,0.02516 v -0.0092 c -0.32277,-0.006 -0.73904,-0.01828 -0.98251,-0.01534 l -0.15381,-0.04664 c 0.12808,-0.44768 -0.0955,-0.915347 -0.11944,-1.3663762 -0.0153,-0.2886152 -0.007,-0.5763182 -0.0323,-0.8649928 -0.0218,-0.2413125 0.30207,-0.6146005 -0.20529,-0.8269442 -0.66687,-0.2789716 -2.81035,-0.2386907 -3.32037,0.060755 -1.00074,0.5872339 -0.24931,1.6355783 -0.1895,2.2718712 0.0288,0.308795 0.47552,0.695782 -0.94681,0.760053 -0.22288,0.01006 -0.64387,0.0145 -0.97428,0.02516 -0.32277,-0.006 -0.73906,-0.01828 -0.98252,-0.01534 l -0.1538,-0.04664 c 0.12808,-0.44768 -0.0955,-0.915347 -0.11944,-1.3663756 -0.0153,-0.2886152 -0.007,-0.5763182 -0.0323,-0.8649928 -0.0218,-0.2413124 0.30207,-0.6146005 -0.20529,-0.8269442 -0.66686,-0.2789716 -2.81035,-0.2386907 -3.320362,0.060755 -1.000732,0.5872339 -0.249306,1.6355783 -0.189504,2.2718716 0.02883,0.308794 0.475506,0.695782 -0.946815,0.760052 -0.22288,0.01006 -0.643873,0.0145 -0.974279,0.02516 v -0.0046 c -0.322766,-0.006 -0.739042,-0.01828 -0.982516,-0.01534 l -0.15379,-0.04664 c 0.128081,-0.44768 -0.09553,-0.915347 -0.119445,-1.3663756 -0.01528,-0.2886153 -0.0066,-0.5763183 -0.03229,-0.8649929 C 96.319599,2.0920295 96.643468,1.7187415 96.1361,1.5063978 95.469243,1.2274262 93.325761,1.2677071 92.815736,1.5671529 91.815004,2.1543868 92.56643,3.2027315 92.626232,3.8390248 c 0.02896,0.308794 0.475507,0.695782 -0.946815,0.760052 -0.222893,0.01006 -0.643873,0.0145 -0.974279,0.02516 v -0.0046 c -0.322766,-0.006 -0.739043,-0.01828 -0.982516,-0.01534 l -0.15379,-0.04664 c 0.128081,-0.44768 -0.09553,-0.915347 -0.119445,-1.366376 -0.01528,-0.2886152 -0.0066,-0.5763183 -0.03229,-0.864993 -0.02179,-0.2413124 0.30208,-0.6146004 -0.205288,-0.8269441 -0.667408,-0.2789716 -2.81089,-0.2386907 -3.320915,0.060755 -1.000732,0.587234 -0.249306,1.6355785 -0.189504,2.2718721 0.02883,0.308794 0.47552,0.695781 -0.946815,0.760052 -0.22288,0.01006 -0.643859,0.0145 -0.974279,0.02516 -0.322766,-0.006 -0.739043,-0.01828 -0.982503,-0.01534 L 82.64399,4.5552028 C 82.772071,4.1075238 82.54846,3.6398558 82.524545,3.1888275 82.509265,2.9002122 82.517945,2.6125091 82.492255,2.3238345 82.47047,2.082519 82.794312,1.709231 82.286958,1.4968873 81.6201,1.2179157 79.476619,1.2581967 78.966594,1.5576424 77.965862,2.1448763 78.717288,3.1932209 78.77709,3.8295148 c 0.02883,0.308794 0.475507,0.695781 -0.946803,0.760052 -0.222892,0.01006 -0.643872,0.0145 -0.974278,0.02516 v -0.0046 c -0.322766,-0.006 -0.739043,-0.01828 -0.982516,-0.01534 L 75.71969,4.5481468 C 75.847771,4.1004668 75.62416,3.6327998 75.600245,3.1817714 75.584965,2.8931561 75.593645,2.605453 75.567955,2.3167784 75.546169,2.0754629 75.870039,1.7021749 75.362658,1.4898313 74.6958,1.2108596 72.552318,1.2511406 72.042293,1.5505863 71.041562,2.1378202 71.793,3.1861648 71.852789,3.8224588 c 0.02883,0.308794 0.475521,0.695781 -0.946802,0.760052 -0.222893,0.01006 -0.643872,0.0145 -0.974273,0.02516 -0.322767,-0.006 -0.739045,-0.01828 -0.982515,-0.01534 l -0.153798,-0.04664 C 68.923482,4.0980108 68.699841,3.6303438 68.67593,3.179315 68.66065,2.8906998 68.66933,2.6029967 68.64366,2.3143221 68.62187,2.0730096 68.945735,1.6997215 68.438367,1.4873779 67.771509,1.2084062 65.628026,1.2486873 65.118,1.5481329 c -1.000732,0.5872339 -0.249302,1.6355784 -0.189499,2.2718719 0.02883,0.308795 0.475523,0.695782 -0.946813,0.760052 -0.222882,0.01006 -0.64386,0.0145 -0.974279,0.02516 v -0.0089 c -0.325023,-0.006 -0.741298,-0.01828 -0.984772,-0.01534 l -0.153797,-0.04664 c 0.128081,-0.44768 -0.09556,-0.915347 -0.119471,-1.3663763 -0.01528,-0.2886152 -0.0066,-0.5763181 -0.03227,-0.8649928 -0.02179,-0.2413126 0.302065,-0.6146004 -0.20529,-0.8269442 -0.666871,-0.2789717 -2.810344,-0.2386906 -3.320369,0.060755 -1.000732,0.5872339 -0.249304,1.6355784 -0.1895,2.2718723 0.02849,0.308794 0.474827,0.695781 -0.947499,0.760052 -0.222883,0.01006 -0.643869,0.0145 -0.974278,0.02516 -0.322766,-0.006 -0.739044,-0.01828 -0.982515,-0.01534 l -0.15379,-0.04664 c 0.128041,-0.44768 -0.09552,-0.915347 -0.119471,-1.3663761 -0.01527,-0.2886153 -0.0066,-0.5763182 -0.03227,-0.8649928 C 54.770332,2.0592393 55.09418,1.6859514 54.586819,1.4736076 53.919958,1.194636 51.776474,1.2349168 51.266448,1.5343627 50.265716,2.1215964 51.01715,3.1699411 51.076949,3.8062348 c 0.0289,0.308794 0.475516,0.695782 -0.946813,0.760052 -0.22288,0.01006 -0.643869,0.0145 -0.974274,0.02516 -0.322767,-0.006 -0.739045,-0.01828 -0.982516,-0.01534 l -0.15379,-0.04664 c 0.128041,-0.44768 -0.09552,-0.915347 -0.119471,-1.3663761 -0.01527,-0.2886152 -0.0066,-0.5763181 -0.03227,-0.8649927 -0.02178,-0.2413127 0.302069,-0.6146006 -0.205294,-0.8269443 -0.66686,-0.2789716 -2.810339,-0.2386906 -3.320365,0.060755 -1.000732,0.5872339 -0.249302,1.6355784 -0.189499,2.2718721 0.0289,0.308794 0.475511,0.695782 -0.946814,0.760052 -0.222883,0.01006 -0.64387,0.0145 -0.974278,0.02516 v -0.0046 c -0.322767,-0.006 -0.739044,-0.01828 -0.982515,-0.01534 l -0.1538,-0.04664 c 0.128041,-0.44768 -0.09552,-0.915347 -0.119471,-1.3663762 -0.01527,-0.2886152 -0.0066,-0.5763181 -0.03227,-0.8649928 -0.02178,-0.2413125 0.302072,-0.6146005 -0.205289,-0.8269442 -0.666861,-0.2789717 -2.810345,-0.2386907 -3.32037,0.060755 -1.000732,0.5872339 -0.249303,1.6355784 -0.1895,2.2718722 0.0289,0.308794 0.475512,0.695781 -0.946813,0.760052 -0.222884,0.01006 -0.643869,0.0145 -0.974274,0.02516 -0.322767,-0.006 -0.739045,-0.01828 -0.982519,-0.01534 l -0.153799,-0.04664 c 0.128041,-0.44768 -0.0955,-0.915347 -0.119472,-1.3663755 -0.01527,-0.2886152 -0.0066,-0.5763182 -0.03227,-0.8649928 -0.02178,-0.2413123 0.302071,-0.6146003 -0.205291,-0.8269441 -0.666859,-0.2789716 -2.810344,-0.2386907 -3.320366,0.060755 -1.000732,0.5872338 -0.249299,1.6355784 -0.189503,2.2718724 0.0289,0.308794 0.475517,0.695781 -0.94681,0.760052 -0.222883,0.01006 -0.643869,0.0145 -0.974278,0.02516 v -0.0046 c -0.322765,-0.006 -0.739044,-0.01828 -0.982515,-0.01534 l -0.153796,-0.04664 C 27.374685,4.0652268 27.151124,3.5975588 27.127172,3.1465303 27.111902,2.857915 27.120572,2.570212 27.094902,2.2815375 27.073152,2.040222 27.397,1.6669339 26.889635,1.4545902 26.222778,1.1756186 24.079294,1.2158995 23.569269,1.5153452 c -1.000732,0.587234 -0.249303,1.6355784 -0.1895,2.2718726 0.0289,0.308794 0.475512,0.695781 -0.946813,0.760052 -0.222884,0.01006 -0.643869,0.0145 -0.974274,0.02516 -0.322771,-0.006 -0.739048,-0.01828 -0.982519,-0.01534 l -0.153797,-0.04664 C 20.450403,4.0627618 20.226847,3.5950948 20.202891,3.144066 20.187625,2.8554508 20.196248,2.5677478 20.170618,2.2790732 20.148842,2.0377607 20.47269,1.6644727 19.965329,1.452129 19.298469,1.1731573 17.154984,1.2134382 16.644962,1.512884 15.64423,2.100118 16.39566,3.1484624 16.455459,3.7847558 c 0.0289,0.308795 0.475517,0.695782 -0.946812,0.760053 -0.222881,0.01006 -0.643867,0.0145 -0.974276,0.02516 v -0.0092 c -0.322765,-0.006 -0.739044,-0.01828 -0.982515,-0.01534 l -0.153797,-0.04664 c 0.128041,-0.447686 -0.09552,-0.915353 -0.119471,-1.3663825 -0.01527,-0.288615 -0.0066,-0.5763181 -0.03227,-0.8649928 -0.02178,-0.2413124 0.302072,-0.6146004 -0.205293,-0.8269442 -0.666856,-0.2789715 -2.810341,-0.2386906 -3.3203657,0.060755 -1.0007317,0.5872339 -0.2493034,1.6355784 -0.1895,2.2718723 0.028898,0.308794 0.4755127,0.695781 -0.9468127,0.760052 -0.2228847,0.01006 -0.6438696,0.0145 -0.9742785,0.02516 -0.3227665,-0.006 -0.739044,-0.01828 -0.9825146,-0.01534 L 6.4737537,4.4963278 C 6.6017948,4.0486478 6.3782378,3.5809808 6.3542824,3.1299522 6.3390164,2.8413368 6.3476392,2.5536338 6.3220098,2.2649592 6.3002334,2.0236468 6.6240814,1.6503587 6.1167203,1.438015 5.4498599,1.1590434 3.3063756,1.1993243 2.7963493,1.4987701 1.7956216,2.086004 2.5470512,3.1343488 2.6068507,3.7706418 c 0.028898,0.308794 0.4755162,0.695782 -0.9468128,0.760053 -0.2228807,0.01006 -0.6438669,0.0145 -0.97427447,0.02516 v -0.0046 c -0.32276651,-0.006 -0.73904537,-0.01828 -0.98251599,-0.01534 l -0.15379673,-0.04664 c 0.12804104,-0.447683 -0.0955159,-0.91535 -0.1194713,-1.3663787 -0.0152661,-0.2886153 -0.006643,-0.5763184 -0.0322727,-0.864993 C -0.62406967,2.0165907 -0.30022563,1.6433026 -0.80758674,1.4309589 -1.4744431,1.1519873 -3.6179274,1.1922682 -4.1279524,1.491714 c -1.0007317,0.5872339 -0.2493021,1.6355785 -0.1895,2.2718718 0.028898,0.308795 0.4755123,0.695782 -0.9468128,0.760052 -0.2228833,0.01006 -0.6438695,0.0145 -0.9742784,0.02516 v -0.0046 c -0.3227665,-0.006 -0.739044,-0.01828 -0.9825146,-0.01534 l -0.1537968,-0.04664 c 0.1280411,-0.44768 -0.095516,-0.9153471 -0.1194713,-1.3663759 -0.015266,-0.2886152 -0.00664,-0.5763183 -0.032273,-0.8649929 -0.021776,-0.2413125 0.3020716,-0.6146006 -0.2052895,-0.8269442 -0.6668604,-0.2789716 -2.8103442,-0.2386907 -3.3203702,0.060755 -1.000732,0.5872339 -0.249302,1.6355784 -0.189499,2.271872 0.0289,0.308794 0.475516,0.695782 -0.946813,0.760052 -0.222885,0.01006 -0.643869,0.01451 -0.974274,0.02516 -0.322767,-0.006 -0.739046,-0.01828 -0.982516,-0.01534 l -0.153764,-0.04664 c 0.128041,-0.44768 -0.09552,-0.9153467 -0.119471,-1.3663754 -0.01527,-0.2886153 -0.0066,-0.5763184 -0.03227,-0.864993 -0.02176,-0.2413125 0.302076,-0.6146005 -0.205287,-0.8269442 -0.66686,-0.2789716 -2.810339,-0.2386907 -3.320365,0.060755 -1.000732,0.5872339 -0.249302,1.6355785 -0.1895,2.2718726 0.0289,0.308794 0.475512,0.695781 -0.946813,0.760052 -0.222883,0.01006 -0.64387,0.0145 -0.974278,0.02516 v -0.0046 c -0.322767,-0.006 -0.739044,-0.01828 -0.982515,-0.01534 l -0.153797,-0.04664 c 0.128041,-0.447679 -0.09552,-0.9153469 -0.119471,-1.3663757 -0.01527,-0.2886152 -0.0066,-0.5763185 -0.03227,-0.8649928 -0.02178,-0.2413126 0.302065,-0.6146005 -0.205289,-0.8269443 -0.666861,-0.2789716 -2.810345,-0.2386907 -3.32037,0.060755 -1.000732,0.5872338 -0.249303,1.6355784 -0.1895,2.2718718 0.0289,0.308795 0.475512,0.695782 -0.946813,0.760053 -0.222884,0.01006 -0.643869,0.0145 -0.974274,0.02516 -0.322767,-0.006 -0.739045,-0.01828 -0.982519,-0.01534 l -0.153796,-0.04664 c 0.128041,-0.44768 -0.09552,-0.9153474 -0.119472,-1.3663763 -0.01527,-0.2886151 -0.0066,-0.5763181 -0.03227,-0.8649929 -0.02178,-0.2413122 0.302071,-0.6146003 -0.205291,-0.8269442 -0.666859,-0.2789716 -2.810344,-0.2386906 -3.320366,0.060755 -1.000732,0.5872338 -0.249302,1.6355783 -0.189503,2.2718714 0.0289,0.308794 0.475509,0.695782 -0.94681,0.760052 -0.222883,0.01006 -0.643869,0.0145 -0.974278,0.02516 v -0.0092 c -0.322752,-0.006 -0.739031,-0.01828 -0.982501,-0.01534 l -0.153797,-0.04664 c 0.128041,-0.447679 -0.09552,-0.9153461 -0.119472,-1.3663749 -0.01525,-0.2886153 -0.0066,-0.5763182 -0.03227,-0.8649928 -0.02178,-0.2413124 0.302071,-0.6146005 -0.205294,-0.8269443 -0.666856,-0.2789716 -2.81034,-0.2386906 -3.320365,0.060755 -1.000732,0.5872338 -0.249302,1.6355784 -0.1895,2.271872 0.0289,0.308794 0.475513,0.695781 -0.946813,0.760052 -0.222883,0.01006 -0.64387,0.0145 -0.974277,0.02516 -0.322767,-0.006 -0.739044,-0.01828 -0.982515,-0.01534 l -0.153798,-0.04664 c 0.128041,-0.44768 -0.09552,-0.9153465 -0.119471,-1.3663753 -0.01527,-0.2886153 -0.0066,-0.5763182 -0.03227,-0.8649928 -0.02178,-0.2413125 0.302072,-0.6146006 -0.205291,-0.8269443 -0.333429,-0.1394858 -1.036249,-0.1988838 -1.719231,-0.1862542 -0.68298,0.01263 -1.346123,0.097286 -1.601136,0.2470093 -1.000731,0.5872338 -0.249302,1.6355784 -0.1895,2.2718713 0.0289,0.308795 0.475514,0.695782 -0.946812,0.760053 -0.222884,0.01006 -0.64387,0.0145 -0.974278,0.02516 -0.387291,-0.02298 -0.722223,-0.05977 -0.928261,-0.122738 -1.181357,-0.361092 -0.490654,-1.6100963 -0.431867,-2.0699686 0.03291,-0.2579503 0.470941,-0.7744814 -0.289742,-0.9754567 -0.374657,-0.098954 -0.900431,-0.1452032 -1.427429,-0.1439098 z"
       sodipodi:nodetypes="scccccccsccsccccccccccccccccccsccccccccccsccccccsccccccscccccsccccccscccccscccccsccccccsccccccsccccccscccccsccccccscccccsccccccsccccccsccccccsccccccsccccccsccccccsccccccsccccccsccccccsccccccsccccccscsccccsccccccscsccccsccccccscsccccsccccccscsccccscccccccccscscscccscccccsccscccsccccsccccsccccscccsccccsccccsccccscccsccccsccccsccccscccsccccsccccsccccscccsccccsccccsccccscccscccccccccscccccccccsccccccccscccccccccsccccccccscccccccccsccccccccccccccccccccccccccccccccccccccccccccccccccccccccccccccccccccccccccccccccccccccccccccccccccccccccccccccccccccccccccccccccccccccccccccccccscccccccs" />
  </g>
</svg>
