<?xml version="1.0" encoding="UTF-8" standalone="no"?>
<svg
   xmlns:dc="http://purl.org/dc/elements/1.1/"
   xmlns:cc="http://creativecommons.org/ns#"
   xmlns:rdf="http://www.w3.org/1999/02/22-rdf-syntax-ns#"
   xmlns:svg="http://www.w3.org/2000/svg"
   xmlns="http://www.w3.org/2000/svg"
   xmlns:sodipodi="http://sodipodi.sourceforge.net/DTD/sodipodi-0.dtd"
   xmlns:inkscape="http://www.inkscape.org/namespaces/inkscape"
   width="200mm"
   height="18mm"
   viewBox="0 0 200 18"
   version="1.1"
   id="svg8"
   inkscape:version="1.0.2 (e86c870879, 2021-01-15, custom)"
   sodipodi:docname="спираль скоросшиватель - вариант 2.svg">
  <defs
     id="defs2" />
  <sodipodi:namedview
     id="base"
     pagecolor="#ffffff"
     bordercolor="#666666"
     borderopacity="1.0"
     inkscape:pageopacity="0.0"
     inkscape:pageshadow="2"
     inkscape:zoom="7.9195959"
     inkscape:cx="689.31896"
     inkscape:cy="59.407025"
     inkscape:document-units="mm"
     inkscape:current-layer="layer1"
     inkscape:document-rotation="0"
     showgrid="false"
     inkscape:window-width="1692"
     inkscape:window-height="906"
     inkscape:window-x="125"
     inkscape:window-y="134"
     inkscape:window-maximized="0" />
  <metadata
     id="metadata5">
    <rdf:RDF>
      <cc:Work
         rdf:about="">
        <dc:format>image/svg+xml</dc:format>
        <dc:type
           rdf:resource="http://purl.org/dc/dcmitype/StillImage" />
        <dc:title></dc:title>
      </cc:Work>
    </rdf:RDF>
  </metadata>
  <g
     inkscape:label="Слой 1"
     inkscape:groupmode="layer"
     id="layer1">
    <path
       style="fill:#ff0000;stroke:none;stroke-width:0.999997"
       d="m 3.7695546,16.631321 2.589651,-0.181203 0.3981951,0.0028 1.3936873,0.0096 0.2321371,-4.776975 C 6.9109449,11.227559 7.4052315,9.1481129 7.4138906,7.8957852 8.8999977,7.4138673 7.8412327,4.1901629 7.8465038,2.921087 l 0.398196,0.00275 0.5642549,4.782484 1.1945883,0.00826 C 9.6084255,6.0025132 9.6841047,4.2343651 9.1547411,2.5321192 8.8349189,1.5035061 8.1415347,0.84583698 7.2574694,1.722369 L 7.0583719,1.7209924 C 5.7582819,0.41879867 5.1926518,2.43543 5.0061429,3.4987711 4.5315154,6.2047458 4.6192985,8.9207815 4.6003627,11.659376 l -0.9954904,-0.0069 0.1646822,4.978828 m 1.8524549,-8.7478996 0.7963919,0.00551 -0.026156,3.7828639 -0.5972945,-0.0041 -0.172941,-3.7842395 m 0.6330862,-5.1724163 0.1990985,0.00137 C 6.6667409,3.9074727 6.8983033,6.9367034 5.8224835,7.6856746 L 6.2550958,2.7109791 m 5.4797572,13.7763079 2.787373,0.01927 0.199098,0.0014 1.393686,0.0096 c 0.37723,-1.198207 0.973975,-4.714105 -0.562877,-4.981581 l 0.02615,-3.7828617 0.597294,0.00413 -0.166061,-4.7797307 0.199098,0.00137 0.564255,4.7824841 0.995488,0.00689 C 17.780618,5.9967036 17.714825,4.0820285 17.13596,2.3889946 16.836196,1.5118473 16.071011,0.79395272 15.420487,1.7788167 c -1.521985,-1.09326744 -2.099014,0.377526 -2.344624,1.7757569 -0.459081,2.6117053 -0.292827,5.3185272 -0.311106,7.9621504 -1.667098,0.26643 -1.02074,3.644777 -1.029906,4.970568 m 2.482789,-13.5221473 0.398195,0.00275 -0.05919,8.5612161 -0.597296,-0.0041 0.258295,-8.5598405 m 5.680231,13.5785905 2.588274,0.0179 0.199099,0.0014 c 0.699033,0.0048 1.421396,0.206348 1.596914,-0.586282 l 0.416092,-2.585518 c 0.0033,-0.926825 0.05599,-1.617959 -0.983101,-1.798767 l 0.411398,-4.5843944 0.04462,-3.7749729 0.199099,0.00137 0.366532,4.5820116 0.99549,0.00689 C 25.744633,6.0384251 25.678868,4.1745228 25.187293,2.4444639 24.890671,1.4010815 24.107914,0.74816762 23.384415,1.8338777 22.065562,0.47520395 21.408617,2.1585018 21.210007,3.4117034 20.782985,6.1088489 20.946604,8.8512931 20.927783,11.573162 l -0.995488,-0.0069 -0.03442,4.977453 m 2.48279,-13.5221486 0.199097,0.00137 0.139894,8.562592 -0.796394,-0.0056 0.457395,-8.5584635 m 0.57802,2.7915034 0.199098,0.00137 L 23.144,7.805348 22.958669,5.8129908 m 5.102209,10.7870862 4.779728,-0.16606 c 0,0 0.02443,-3.951917 0.03304,-4.778354 l -0.995487,-0.0069 0.255539,-8.1616442 0.199097,0.00137 0.367912,4.3829109 1.195965,-0.190839 C 33.505613,5.9861618 33.713334,4.1930426 33.236832,2.4995198 32.906082,1.3236957 32.20653,0.96166194 31.348339,1.8889435 30.219988,0.13357337 29.542794,2.4415287 29.362471,3.468073 28.888868,6.1641002 29.109636,8.9057448 29.090802,11.629604 l -0.995489,-0.0069 -0.03441,4.977451 m 2.280935,-13.1253274 0.398195,0.00275 c -0.0082,1.9906207 -0.0504,3.9784183 -0.04047,5.9729482 0.0043,0.883867 0.397137,1.855044 -0.613233,2.185941 l 0.255542,-8.1616424 m 5.883457,12.9826734 c 0.901119,0.0063 4.004508,0.510127 4.558165,-0.287653 0.539787,-0.778363 0.04729,-3.468127 0.05413,-4.459039 l -0.796391,-0.0056 0.252787,-7.7634457 0.1991,0.00137 0.172942,3.7842383 1.19459,0.00826 C 41.738197,6.0351216 41.714986,4.2091456 41.267277,2.5550458 40.978584,1.4882237 40.236597,0.78462294 39.511384,1.9453863 38.241179,0.23184659 37.628122,2.3058915 37.427761,3.5238399 36.995028,6.1544444 37.272266,9.0223148 37.253848,11.686047 l -0.99549,-0.0069 -0.03304,4.778353 m 2.278182,-12.727131 0.199099,0.00137 0.14405,7.9652984 c -0.758931,-0.499435 -0.587944,-1.356805 -0.582154,-2.1942103 0.01318,-1.935036 0.225491,-3.8444039 0.239021,-5.7724674 m 5.884837,12.7835747 c 1.038096,0.0071 3.629868,0.498375 4.457628,-0.173858 0.812539,-0.659798 0.269149,-3.823591 0.156042,-4.771928 l -0.796423,-0.0056 0.04681,-6.7693329 0.199099,0.00137 0.178448,2.9878466 1.194588,0.00826 C 49.801431,6.0994295 49.699598,4.2649456 49.329543,2.6105897 49.034433,1.2906544 48.337579,0.76895201 47.475291,2.0004462 46.37161,0.01766577 45.722951,2.4892832 45.558513,3.5800533 45.161168,6.2182692 45.436587,8.8880156 45.418227,11.543386 l -0.995488,-0.0069 -0.03442,4.977451 m 2.274056,-12.1298374 0.199098,0.00137 0.348637,7.1702818 -0.796392,-0.0056 0.248657,-7.1661524 m 0.782625,1.9964872 0.199099,0.00137 -0.0069,0.9954894 -0.192216,-0.9968661 m 5.10634,10.1898183 c 1.055222,0.0073 3.60918,0.496044 4.460417,-0.173845 0.859645,-0.676397 0.556636,-4.568656 -0.643136,-4.777455 l 0.04268,-6.1720381 0.199099,0.00137 -0.01652,2.3891759 1.194587,0.00826 C 57.800648,6.083644 57.747214,4.1943413 57.369699,2.4672585 57.1655,1.5332255 56.358034,0.59542069 55.838784,1.8591546 l -0.398196,-0.00275 c -0.976294,-1.77739667 -1.594446,0.7165269 -1.718297,1.5809924 -0.384936,2.6872841 -0.12236,5.4564962 -0.14107,8.1624371 l -0.995486,-0.0069 -0.03442,4.977451 m 2.068082,-11.1357245 0.199098,0.00137 0.35552,6.1747929 -0.597295,-0.0041 0.04268,-6.1720386 m 6.094943,11.1922216 c 1.068926,-0.01694 3.949046,0.885213 4.391172,-1.562498 l 0.421598,-3.381915 -0.995491,-0.0069 0.02615,-3.7828623 1.194588,0.00826 C 65.76437,6.1654095 65.818427,4.2236879 65.457043,2.5231987 65.199418,1.3110443 64.32338,0.67242332 63.801314,2.113337 l -0.199099,-0.00137 c -0.790408,-2.19545259 -1.618203,0.3822454 -1.744576,1.3816827 -0.338021,2.6686938 -0.0948,5.4759994 -0.113381,8.1626288 l -0.995493,-0.0069 -0.03442,4.977452 m 2.058431,-9.7420391 0.199098,0.00137 0.564254,4.7824825 -0.796392,-0.0056 0.03304,-4.7783521 m 1.000995,-0.7895083 0.199097,0.00137 -0.0083,1.1945879 -0.190836,-1.1959644 m 5.104962,10.3888913 4.778352,0.03304 0.03304,-4.778355 -0.995486,-0.0069 C 72.703476,10.4541 72.207734,8.2037422 73.71767,7.7568316 73.730025,5.970723 73.797206,4.1437791 73.462562,2.3793643 73.185355,0.91779025 72.387105,0.97936651 71.765236,2.1683194 70.882952,-0.04329553 70.114991,2.404801 69.997564,3.5498475 c -0.27435,2.6749076 -0.07171,5.4737706 -0.09029,8.1627875 l -0.995491,-0.0069 -0.03304,4.778355 m 2.64885,-8.7424186 -0.02753,3.9819606 -0.398195,-0.0028 C 70.79154,10.643437 70.521935,8.4565654 71.527592,7.7417541 m 5.514174,8.7988609 c 0,0 4.188041,0.545045 4.659293,-0.429316 0.534884,-1.105727 0.145002,-3.289449 0.153476,-4.515096 l -0.995492,-0.0069 0.02615,-3.7828635 0.995494,0.00689 c 0.0074,-1.8328948 0.01362,-3.9822181 -0.395923,-5.7730384 -0.33725,-1.47453424 -1.290473,-0.7119689 -1.358788,0.3850369 l -0.199093,-0.00137 C 79.235798,0.03107065 78.31484,1.9148303 78.161961,3.4072792 77.970446,5.2751784 79.098396,11.034 77.074804,11.762279 l -0.03304,4.778356 m 2.846572,-8.5419446 -0.02478,3.5837666 -0.597294,-0.0041 c 0.0063,-0.939346 -0.683856,-3.6117619 0.622073,-3.5796356 m 5.31645,8.5983866 1.194588,0.0083 c 0.815308,0.0056 2.388083,0.318359 3.074695,-0.183422 0.87532,-0.639656 0.528151,-3.760478 0.543487,-4.76925 l -0.994116,-0.205979 0.02478,-3.5837674 0.796395,0.00551 C 89.857534,6.000087 89.984758,3.9268627 89.589269,2.0935335 89.140529,0.01313986 88.139483,2.0186393 88.085774,3.077677 l -0.199103,-0.00137 c -0.0059,-2.74055552 -1.343222,-1.7504838 -1.561693,0.3874174 -0.273553,2.6753098 -0.07171,5.4735691 -0.0903,8.1627862 l -0.995485,-0.0069 -0.03442,4.977452 m 2.05155,-8.7465484 0.79639,0.00551 -0.02615,3.782864 -0.597298,-0.0041 -0.17294,-3.7842396 m 6.111466,8.8029916 0.597294,0.0041 0.597295,0.0041 c 1.888795,-0.0093 1.791876,0.0124 1.791876,0.0124 2.275221,-0.05893 1.795349,-3.252553 1.826309,-4.965061 -1.472221,-0.457973 -0.977992,-2.5374203 -0.969333,-3.7897468 l 0.597291,0.00413 C 97.820064,6.253654 98.641366,1.562587 96.662111,0.9468002 L 96.239133,4.5278099 96.040039,4.5264334 95.66662,0.93991698 C 94.485089,1.2897421 94.643237,2.4623859 94.511077,3.5203225 94.17871,6.1777038 94.416181,9.0050808 94.397663,11.682949 l -0.995481,-0.0069 -0.03442,4.977452 m 2.250644,-8.7451718 0.597298,0.00413 -0.02615,3.7828631 -0.597296,-0.0041 0.02615,-3.782862 m 5.913763,8.602514 0.59728,0.0041 1.99099,0.01377 c 0,0 0.18969,-0.01781 1.79187,0.0124 l 0.43124,-4.7756 -0.7964,-0.0056 c 0.0191,-2.7700514 0.24084,-5.3993266 0.25554,-8.1616436 0.003,-0.5304013 0.28443,-2.4598002 -0.59917,-2.4659096 -0.96821,-0.0067 -0.79022,1.8677401 -0.7945,2.4562733 l -0.0564,8.1630199 -0.5973,-0.0041 c 0.0191,-2.7592992 0.50039,-5.3921557 0.45165,-8.1602874 -0.009,-0.5273038 0.04,-2.4614904 -0.76046,-2.4670249 -0.78405,-0.00543 -0.74188,1.9307983 -0.79549,2.4562663 -0.27336,2.6753113 -0.0718,5.4733702 -0.0904,8.162787 l -0.99548,-0.0069 -0.033,4.778353 m 1.4666,-10.5425594 0.19911,0.00137 -0.01,1.3936858 -0.18948,-1.3950634 m 1.77949,1.8042719 0.19774,0.2004752 -0.19774,-0.2004752 m 0.008,-1.1945891 0.19911,0.00137 -0.007,0.9954916 -0.19221,-0.9968671 m 5.5059,9.9934465 0.5973,0.0041 c 1.36115,-0.03579 1.79188,0.01239 1.79188,0.01239 l 1.82935,0.01266 -0.003,-4.977707 -0.79638,-0.0056 c 0.0184,-2.6639323 0.23593,-5.2966227 0.25417,-7.9625471 0.004,-0.5911218 0.25087,-2.449083 -0.60815,-2.6083363 -0.93542,-0.17331881 -0.78058,1.9098215 -0.78418,2.3996052 l -0.0564,8.1630182 -0.5973,-0.0041 c 0.0185,-2.6639336 0.23575,-5.2966249 0.25419,-7.962548 0.004,-0.523626 0.29413,-2.5451452 -0.57969,-2.5511872 -0.84617,-0.00585 -0.61004,1.8383204 -0.61354,2.3438327 l -0.0564,8.1630195 c -1.68188,0.119376 -1.76993,4.21561 -0.63171,4.973317 m 7.76484,0.05369 0.1991,0.0014 0.79638,0.0056 1.19459,0.0083 0.59729,0.0041 1.19459,0.0083 0.59731,0.0041 0.19908,0.0014 0.0344,-4.97745 -0.99548,-0.0069 c 0.0188,-2.7091299 0.40502,-5.4194973 0.22443,-8.1280091 -0.0298,-0.4474061 0.004,-2.58140604 -0.71482,-2.4438181 -0.71853,0.1375998 -0.4465,2.088141 -0.45003,2.6010194 l -0.0551,7.9639248 -0.59729,-0.0041 0.0564,-8.1630192 c 0.003,-0.5114854 0.25814,-2.57864976 -0.7282,-2.4100622 -0.71904,0.1230572 -0.46295,1.9008727 -0.46642,2.4018022 l -0.0564,8.1630182 -0.99548,-0.0069 -0.0344,4.977449 m 8.16302,0.05645 0.19908,0.0014 0.7964,0.0056 1.1946,0.0083 0.59728,0.0041 1.19459,0.0083 0.3982,0.0028 0.39821,0.0028 0.0344,-4.97745 -0.99411,-0.205983 c 0.57425,-2.6815918 0.0385,-5.4624479 0.0564,-8.1630219 0.003,-0.4133313 0.25937,-2.78451869 -0.70577,-2.3131308 -0.75898,0.3708677 -0.48691,2.0267335 -0.49159,2.7030689 -0.0183,2.665325 0.16245,5.3005712 0.14366,7.9653088 l -0.5973,-0.0041 0.0564,-8.1630198 c 0.004,-0.5270205 0.28283,-2.4598123 -0.59621,-2.4658903 -0.86487,-0.00598 -0.59477,1.9363908 -0.59838,2.4576305 l -0.0564,8.1630196 -0.99548,-0.0069 -0.0344,4.977448 m 1.4625,-9.9452648 0.19775,0.2004754 -0.19775,-0.2004754 m 0.003,-0.3982034 0.19774,0.2004747 -0.19774,-0.2004747 m 7.09732,10.2035592 0.59731,0.0041 1.19459,0.0083 0.39821,0.0028 2.19008,0.01515 0.0344,-4.977451 -0.79646,-0.0056 0.0564,-8.1630221 c 0.002,-0.4856037 0.14416,-2.56251216 -0.76303,-2.4102941 -0.88108,0.1480184 -0.62786,1.9954984 -0.63203,2.5997612 -0.0189,2.7320213 0.16153,5.4337636 0.14306,8.164389 -1.46196,-1.451651 -0.55313,-6.3613313 -0.53948,-8.3662528 0.003,-0.5011245 0.22628,-2.57567838 -0.74113,-2.4101428 -0.94189,0.1611365 -0.56569,2.1948375 -0.56988,2.799295 -0.0122,1.7259805 1.12945,7.6429866 -0.93687,7.9578266 -0.008,1.140033 -0.51866,3.99947 0.36514,4.781105 m 7.96394,0.05506 0.19911,0.0014 0.39816,0.0028 1.3937,0.0096 0.3982,0.0028 1.59278,0.01101 0.7964,0.0056 c -0.0177,-1.319615 0.66287,-4.701721 -0.96108,-4.984335 l 0.0523,-7.5657285 c 0.005,-0.784641 0.28316,-2.2477525 -0.32405,-2.8648066 -0.56251,-0.57194614 -0.96913,0.1541762 -1.03281,0.6690249 -0.1841,1.4872584 -0.0429,3.0767144 -0.0532,4.5753258 l -0.19911,-0.00137 c 0.005,-1.4341297 0.0447,-3.171671 -0.21284,-4.5771659 -0.099,-0.5390698 -0.63788,-1.21836615 -1.11066,-0.5416847 -0.4945,0.707792 -0.24846,2.0976745 -0.25413,2.9177581 -0.0173,2.5018659 0.36455,4.8673163 0.34727,7.3693805 l -1.19597,0.190841 0.1661,4.779727 m 1.45425,-8.7506777 0.19771,0.2004743 -0.19771,-0.2004743 m 0.0705,-0.5968365 c 0.002,-0.1539082 0.0993,-0.031161 0.0661,0.066759 l -0.0661,-0.066759 m 0.72734,0.4032446 c 1.02995,0.7537749 0.57783,2.8193756 0.56976,3.9860896 l -0.59728,-0.0041 0.0274,-3.9819597 m 5.91101,9.0007117 0.1991,0.0014 0.39819,0.0028 c 1.94554,-0.0097 1.79188,0.01239 1.79188,0.01239 l 2.38918,0.01652 0.0344,-4.977451 -0.79638,-0.0056 c 0.0187,-2.7049462 0.21268,-5.4751828 -0.0857,-8.1640061 -0.12278,-1.1043021 0.18517,-2.3067743 -1.03316,-2.79464451 l -0.42024,3.18281231 -0.1991,-0.00137 c -0.13686,-0.5932938 0.0446,-3.10815434 -0.94123,-2.95807562 -0.87142,0.13255402 -0.64471,1.95734942 -0.6488,2.54886432 -0.0197,2.8222161 0.36118,5.3580954 0.34176,8.1657762 l -0.99548,-0.0069 -0.0344,4.977452 m 2.25064,-8.7451714 0.5973,0.00413 -0.0262,3.7828637 -0.59729,-0.0041 0.0262,-3.7828626 m 5.91374,8.6025176 0.19911,0.0014 0.39681,0.20185 4.18106,0.02891 0.0344,-4.977451 -0.79635,-0.0056 c 0.0199,-2.8841353 0.28481,-5.8882304 0.0267,-8.760552 C 162.9747,1.4199751 161.7069,0.04712392 161.5619,2.3914036 l -0.19911,-0.00137 c -0.1302,-0.4926951 -0.63426,-2.1471769 -1.35046,-1.1368792 -0.73651,1.0392263 -0.97892,6.2649195 0.31642,6.7047438 l -0.0262,3.7828624 -1.19459,-0.0083 -0.033,4.778354 m 2.64885,-8.7424183 0.19909,0.00137 c 0.301,1.0450067 0.59463,3.3278137 -0.42572,3.9792077 l 0.22663,-3.9805844 m 5.91238,8.8016144 4.57924,0.03167 c -0.001,-1.248407 0.61698,-4.514682 -0.76196,-4.98296 0.0207,-2.9922441 0.10866,-5.9816344 -0.17123,-8.9610214 -0.14446,-1.539905 -1.42969,-2.43501885 -1.556,-0.408976 l -0.19911,-0.00137 c -0.28586,-1.2117554 -1.28288,-1.80621147 -1.5876,-0.209089 -0.36011,1.8876387 -0.22955,3.8579138 -0.24279,5.7714449 l 0.79639,0.00551 c -0.009,1.2778124 0.48691,3.5279696 -1.02303,3.9750776 l 0.16611,4.779731 m 1.26889,-10.7430369 0.19909,0.00137 -0.007,0.9954917 -0.1922,-0.9968671 m 0.78259,1.9964871 c 1.01564,0.6684583 0.57876,2.6857836 0.57115,3.7869946 l -0.59732,-0.0041 0.0262,-3.7828632 m 1.00652,-1.5859013 0.19909,0.00137 -0.006,0.7963932 -0.19359,-0.7977686 m 5.10496,10.3888923 4.57924,0.03167 0.0344,-4.977451 -0.7964,-0.0056 c 0.019,-2.7385943 0.31541,-5.6447088 -0.0271,-8.3626977 -0.15062,-1.1960857 -1.38227,-3.8226704 -1.69922,-1.2063952 l -0.19909,-0.00137 c -0.12588,-0.6400992 -0.71844,-1.76178968 -1.35344,-0.7728309 -0.81557,1.2704384 -1.17498,6.3971656 0.51745,6.5408763 l -0.0262,3.7828631 -1.19461,-0.0083 0.16473,4.978829 m 2.25067,-8.7451719 0.59729,0.00413 -0.0262,3.7828632 -0.59729,-0.0041 0.0262,-3.7828628 m 5.77384,0.039923 1.19459,0.00826 -0.0262,3.782863 -0.9955,-0.0069 -0.0344,4.977452 4.77837,0.03304 0.0344,-4.977452 -0.7964,-0.0056 c 0.0202,-2.9287323 0.11312,-5.8462103 -0.17241,-8.7619247 -0.10543,-1.0784982 -0.9952,-3.21490479 -1.74978,-1.2067436 -0.87571,-1.29229145 -1.63489,-0.82884143 -1.90272,0.584166 -0.33767,1.7824689 -0.3175,3.7595444 -0.33003,5.5727301 m 1.60654,-1.9799672 0.1991,0.00137 -0.004,0.597293 -0.19499,-0.5986706 m 1.19048,0.6055539 0.19907,0.00137 -0.0358,5.1765499 -0.59728,-0.0041 0.434,-5.1737976 m 0.60142,-0.5931639 0.19907,0.00137 -0.007,0.9954918 -0.1922,-0.9968668 m 4.90311,10.7857118 4.4612,-0.173838 0.35158,-4.770575 c -1.07104,-0.600547 -0.58862,-1.551933 -0.58936,-2.5924738 -9.1e-4,-2.1718704 -0.0969,-4.4184675 -0.35278,-6.5729908 -0.14686,-1.2213447 -1.13114,-2.5603744 -1.77641,-0.8087106 l -0.19911,-0.00137 c -0.28341,-1.34255173 -1.3096,-0.93948606 -1.61406,0.188945 -0.48436,1.8031505 -0.40538,3.9122467 -0.41822,5.7702295 l 0.9941,0.2059818 0.21702,-2.5868979 0.19912,0.00137 -0.0441,6.3711388 -1.3951,0.18946 0.16611,4.779731 m 1.66299,-10.1429888 0.19909,0.00137 -0.004,0.5972932 -0.19496,-0.5986707 m 1.00512,-1.3868027 0.1991,0.00137 c 0.10717,1.4840931 0.95832,5.6718328 -0.44364,6.5674818 l 0.24454,-6.5688587"
       id="path881"
       sodipodi:nodetypes="cccccccccccccsccccccccccccccccccccccccccccccccccccccccccccccccccccccccccccccccccccccccccccccccccccccccccccccccccccccccccccccccccccccccccccccccccccccccccccccccccccccccccccccccccccccscccccccccccccccccccccccccccccccccccccccccccccccccccccccccccccccccccccccscccssccccccccccccccccccccccccccsssccccccccccccccsccscscccccccccccccccsccsssccccccccccccccccccsccccccccccccccscccccsscccccccccccccccccccccccccccccccccccccccccccccccccccccccccccccccccccccccccccccccccccccccccccccccccccccccccccccccccccccccccccccccccccccccccccc" />
  </g>
</svg>
