<?xml version="1.0" encoding="UTF-8" standalone="no"?>
<svg
   xmlns:dc="http://purl.org/dc/elements/1.1/"
   xmlns:cc="http://creativecommons.org/ns#"
   xmlns:rdf="http://www.w3.org/1999/02/22-rdf-syntax-ns#"
   xmlns:svg="http://www.w3.org/2000/svg"
   xmlns="http://www.w3.org/2000/svg"
   xmlns:sodipodi="http://sodipodi.sourceforge.net/DTD/sodipodi-0.dtd"
   xmlns:inkscape="http://www.inkscape.org/namespaces/inkscape"
   width="188.5mm"
   height="16mm"
   viewBox="0 0 188.5 16"
   version="1.1"
   id="svg8"
   inkscape:version="1.0.2 (e86c870879, 2021-01-15, custom)"
   sodipodi:docname="спираль скоросшиватель - вариант 5.svg">
  <defs
     id="defs2" />
  <sodipodi:namedview
     id="base"
     pagecolor="#ffffff"
     bordercolor="#666666"
     borderopacity="1.0"
     inkscape:pageopacity="0.0"
     inkscape:pageshadow="2"
     inkscape:zoom="1.4"
     inkscape:cx="341.50881"
     inkscape:cy="111.76127"
     inkscape:document-units="mm"
     inkscape:current-layer="layer1"
     inkscape:document-rotation="0"
     showgrid="false"
     inkscape:window-width="1692"
     inkscape:window-height="906"
     inkscape:window-x="125"
     inkscape:window-y="134"
     inkscape:window-maximized="0" />
  <metadata
     id="metadata5">
    <rdf:RDF>
      <cc:Work
         rdf:about="">
        <dc:format>image/svg+xml</dc:format>
        <dc:type
           rdf:resource="http://purl.org/dc/dcmitype/StillImage" />
        <dc:title></dc:title>
      </cc:Work>
    </rdf:RDF>
  </metadata>
  <g
     inkscape:label="Слой 1"
     inkscape:groupmode="layer"
     id="layer1">
    <path
       id="path925"
       style="fill:#ff0000;stroke:none;stroke-width:1"
       d="m -50.861616,0.29912124 c -0.878332,0.003645 -1.759232,0.23024194 -1.944434,0.63908135 -0.61537,1.35867521 -0.713687,3.52981931 0.204605,4.85629281 -1.153793,0.1268894 -2.511716,0.4049174 -3.266812,-0.1398349 -1.072641,-0.7739824 -0.568551,-2.8641473 -0.416076,-3.7744135 0.146101,-0.8720406 0.347063,-1.80110582 -2.29185,-1.49257076 -2.13526,0.24962053 -1.656898,2.14905906 -1.632034,2.93231676 0.02849,0.9033123 0.411994,2.2044867 0.267085,2.5760058 -0.07279,0.1546877 -0.376053,0.168646 -0.703758,0.1501812 -0.408965,-0.023039 -5.418598,0.033655 -5.418598,0.033655 v 3.1275628 h 5.772193 c 0.271581,0 0.397679,0.00692 0.475123,0.064744 0.240942,0.1733077 -0.431601,1.9367152 -0.346729,2.8748302 0.06227,0.689747 -0.382462,2.483439 1.18712,2.861366 1.633167,0.393216 2.997435,-0.06491 2.935188,-0.868508 -0.08789,-1.131462 -0.262219,-2.25855 -0.223829,-3.392208 0.01236,-0.360432 -0.135814,-0.9422419 0.328878,-1.2501963 0.07281,-0.048255 0.168237,-0.087394 0.272578,-0.1227372 h 0.129767 v -0.041436 c 1.183107,-0.3133505 1.378768,-0.035242 2.516366,-0.1097917 l 0.153797,0.078719 c -0.425948,1.4032212 -0.262488,2.8792032 -0.03158,4.2907522 0.08572,0.524754 0.13236,1.258568 1.44322,1.407119 3.166513,0.358795 2.477156,-1.289642 2.381108,-2.227982 -0.08519,-0.831859 -0.112802,-1.656341 -0.03914,-2.488998 0.02398,-0.270361 -0.09164,-0.7888943 0.445599,-0.970533 0.191313,-0.064711 0.510055,-0.1007794 0.879527,-0.1222316 v 0.017081 c 0.240624,0.00979 0.586677,0.016033 0.744955,0.023309 1.565276,0.071951 1.215816,0.8081376 1.176822,1.3786336 -0.0618,0.899903 -0.834506,4.031973 1.526983,4.332185 4.026825,0.512016 2.276158,-3.341997 2.312449,-4.42178 0.01673,-0.494368 -0.10661,-1.1719012 1.155536,-1.2999148 0.0015,-1.519e-4 0.006,-3.664e-4 0.0076,-5.181e-4 v -0.00777 c 0.240624,0.00979 0.586678,0.016035 0.744955,0.023309 1.565276,0.071951 1.215818,0.8081369 1.176822,1.3786339 -0.0618,0.899905 -0.834505,4.031972 1.526984,4.332185 4.026822,0.512016 2.276156,-3.341997 2.312449,-4.421781 0.01673,-0.494368 -0.10661,-1.1719005 1.155537,-1.2999141 0.0015,-1.52e-4 0.006,-3.662e-4 0.0076,-5.182e-4 v 0.00777 c 0.240627,0.00979 0.586678,0.016035 0.744954,0.023292 1.565277,0.071951 1.21582,0.8081363 1.176824,1.3786353 -0.06179,0.899903 -0.834505,4.03197 1.526984,4.332183 4.026824,0.512015 2.276156,-3.341998 2.312446,-4.421781 0.01673,-0.494368 -0.10661,-1.1718982 1.155538,-1.2999136 0.0015,-1.519e-4 0.006,-3.647e-4 0.0076,-5.181e-4 v -0.00777 c 0.240622,0.00979 0.586674,0.016035 0.744954,0.023309 1.565277,0.071951 1.215814,0.8081367 1.176819,1.3786347 -0.0618,0.899904 -0.834504,4.031971 1.526984,4.332183 4.026828,0.512017 2.276157,-3.341995 2.312451,-4.42178 0.01673,-0.494366 -0.106611,-1.1718986 1.155536,-1.2999139 0.0015,-1.519e-4 0.006,-3.645e-4 0.0076,-5.165e-4 0.240627,0.00979 0.586678,0.016035 0.744953,0.023309 1.565278,0.071951 1.21582,0.8081354 1.176823,1.3786344 -0.0618,0.899903 -0.834504,4.031972 1.526985,4.332184 4.026824,0.512016 2.276157,-3.341997 2.312446,-4.42178 0.01673,-0.494368 -0.10661,-1.171901 1.155538,-1.2999147 0.0015,-1.519e-4 0.006,-3.662e-4 0.0076,-5.181e-4 v -0.00777 c 0.240622,0.00979 0.586674,0.016035 0.744953,0.023292 1.565278,0.071951 1.215815,0.8081348 1.176819,1.3786338 -0.0618,0.899904 -0.834504,4.03197 1.5269851,4.332184 4.0268275,0.512016 2.2761609,-3.341997 2.3124487,-4.42178 0.016728,-0.494368 -0.10661,-1.1718987 1.1555382,-1.2999141 0.00146,-1.519e-4 0.00598,-3.645e-4 0.00757,-5.181e-4 0.2406274,0.00979 0.5866783,0.016035 0.7449539,0.023309 1.5652774,0.071951 1.2158198,0.8081372 1.1768229,1.3786342 -0.061795,0.899905 -0.8345042,4.031972 1.5269847,4.332185 4.0268235,0.512015 2.27616095,-3.341996 2.31244611,-4.421781 0.0167276,-0.494366 -0.10661007,-1.1719008 1.15553814,-1.2999144 0.001462,-1.52e-4 0.005979,-3.646e-4 0.007573,-5.165e-4 0.24062202,0.00979 0.58667835,0.016035 0.74495385,0.023292 1.5652775,0.071951 1.2158146,0.8081369 1.176823,1.3786359 -0.061795,0.899905 -0.8345042,4.031973 1.5269833,4.332185 4.0268249,0.512016 2.276157,-3.341997 2.3124461,-4.42178 0.016728,-0.494368 -0.10661,-1.1718992 1.1555382,-1.2999145 0.00146,-1.52e-4 0.00598,-3.646e-4 0.00757,-5.182e-4 v -0.00777 c 0.240626,0.00979 0.5866823,0.016035 0.7449539,0.023292 1.5652774,0.071951 1.2158198,0.8081377 1.1768229,1.3786357 -0.061795,0.899903 -0.8345042,4.031971 1.526984,4.332183 4.026824,0.512018 2.276157,-3.341995 2.31245,-4.421779 0.01673,-0.494368 -0.10661,-1.1719006 1.155537,-1.2999142 0.0015,-1.537e-4 0.006,-3.662e-4 0.0076,-5.182e-4 v 0.00777 c 0.240628,0.00979 0.58668,0.016035 0.744956,0.023292 1.565276,0.071951 1.215818,0.8081364 1.176823,1.3786354 -0.0618,0.899904 -0.834505,4.03197 1.526983,4.332184 4.026825,0.512017 2.276157,-3.341997 2.312446,-4.42178 0.01673,-0.494368 -0.10661,-1.1719003 1.155538,-1.2999139 0.0015,-1.536e-4 0.006,-3.662e-4 0.0076,-5.182e-4 v -0.00777 c 0.240622,0.00979 0.586675,0.016035 0.744954,0.023309 1.565278,0.071951 1.215815,0.8081371 1.176819,1.3786331 -0.0618,0.899905 -0.834504,4.031973 1.526985,4.332185 4.026827,0.512016 2.276157,-3.341995 2.31245,-4.42178 0.01673,-0.494367 -0.10661,-1.1719007 1.155537,-1.2999143 0.0015,-1.52e-4 0.006,-3.662e-4 0.0076,-5.165e-4 0.240627,0.00979 0.586678,0.016035 0.744954,0.023292 1.565277,0.071951 1.21582,0.8081368 1.176824,1.3786328 -0.0618,0.899905 -0.834505,4.031973 1.526984,4.332185 4.026824,0.512016 2.276156,-3.341997 2.312446,-4.42178 0.01673,-0.494368 -0.10661,-1.1718987 1.155538,-1.2999141 0.0015,-1.519e-4 0.006,-3.662e-4 0.0076,-5.181e-4 v -0.00777 c 0.240622,0.00979 0.586674,0.016035 0.744954,0.023292 1.565277,0.071951 1.215814,0.8081372 1.176819,1.3786352 -0.0618,0.899903 -0.834504,4.031969 1.526985,4.332183 4.026827,0.512016 2.276156,-3.341997 2.31245,-4.42178 0.01673,-0.494367 -0.10661,-1.1718991 1.155536,-1.2999144 0.0015,-1.52e-4 0.006,-3.646e-4 0.0076,-5.182e-4 0.240627,0.00979 0.586678,0.016035 0.744953,0.023309 1.565278,0.071951 1.21582,0.8081366 1.176823,1.3786336 -0.06179,0.899904 -0.834504,4.031972 1.526985,4.332186 4.026824,0.512017 2.276157,-3.341997 2.312446,-4.42178 0.01673,-0.494368 -0.10661,-1.1719005 1.155538,-1.2999141 0.0015,-1.536e-4 0.006,-3.662e-4 0.0076,-5.182e-4 v -0.00777 c 0.240622,0.00979 0.586674,0.016035 0.744953,0.023309 1.565278,0.071951 1.215812,0.8081353 1.176823,1.3786333 -0.06179,0.899903 -0.834504,4.031971 1.526981,4.332185 4.026828,0.512015 2.276161,-3.341997 2.312449,-4.421781 0.01673,-0.494368 -0.10661,-1.1718999 1.155538,-1.2999135 0.0015,-1.52e-4 0.006,-3.663e-4 0.0076,-5.182e-4 v -0.00777 c 0.240628,0.00979 0.586679,0.016035 0.744954,0.023309 1.565278,0.071951 1.21582,0.8081357 1.176823,1.3786337 -0.06179,0.899903 -0.834504,4.031972 1.526985,4.332185 4.026823,0.512015 2.27615,-3.341998 2.31245,-4.421781 0.01674,-0.494368 -0.106544,-1.1719003 1.155534,-1.299914 0.0012,-1.4e-4 0.0057,-3.695e-4 0.0076,-5.181e-4 v 0.00777 c 0.240629,0.00979 0.586685,0.016035 0.744954,0.023309 1.565284,0.071951 1.215819,0.8081351 1.176823,1.3786341 -0.06178,0.899904 -0.834501,4.031972 1.526985,4.332184 4.02683,0.512017 2.276159,-3.341997 2.312444,-4.42178 0.01674,-0.494368 -0.106556,-1.171899 1.155539,-1.2999144 0.0013,-1.518e-4 0.0069,-3.662e-4 0.0082,-5.181e-4 v -0.00777 c 0.240585,0.00979 0.586124,0.016035 0.744259,0.023309 1.565271,0.071952 1.215812,0.8081355 1.176816,1.3786355 -0.06178,0.899903 -0.834492,4.031971 1.526993,4.332183 4.026829,0.512017 2.276146,-3.341997 2.312445,-4.42178 0.01674,-0.494368 -0.106557,-1.1718994 1.155545,-1.2999147 0.0012,-1.383e-4 0.0053,-3.696e-4 0.008,-5.181e-4 h 6.9e-4 c 0.240591,0.00979 0.58613,0.016035 0.744265,0.023309 1.56527,0.071951 1.215812,0.8081348 1.176816,1.3786328 -0.06178,0.899904 -0.834506,4.031973 1.526993,4.332185 4.026815,0.512016 2.276159,-3.341997 2.312444,-4.42178 0.01674,-0.494368 -0.106557,-1.1719006 1.155532,-1.2999159 0.0013,-1.501e-4 0.0053,-3.645e-4 0.008,-5.165e-4 v -0.00777 c 0.240603,0.00979 0.586156,0.016035 0.744277,0.023309 1.565284,0.071951 1.215812,0.8081354 1.176817,1.3786334 -0.06178,0.899903 -0.834506,4.031971 1.526979,4.332185 4.026842,0.512016 2.276173,-3.341997 2.312458,-4.421781 0.01674,-0.494368 -0.106557,-1.1719 1.155532,-1.2999136 0.0012,-1.402e-4 0.0053,-3.698e-4 0.008,-5.182e-4 h 6.78e-4 c 0.24059,0.00979 0.58613,0.016033 0.744264,0.023309 1.565271,0.071951 1.215825,0.8081368 1.17683,1.3786328 -0.06178,0.899905 -0.834506,4.031971 1.526979,4.332185 4.026829,0.512017 2.27616,-3.341996 2.312445,-4.42178 0.01674,-0.494367 -0.106557,-1.1719004 1.155545,-1.299914 0.0012,-1.401e-4 0.0053,-3.697e-4 0.008,-5.182e-4 h 6.91e-4 c 0.240603,0.00979 0.586129,0.016035 0.744264,0.023309 1.565284,0.071951 1.215825,0.8081372 1.176829,1.3786342 -0.06178,0.899904 -0.834505,4.031972 1.526983,4.332184 4.02681,0.512019 2.27616,-3.341995 2.31244,-4.42178 0.0167,-0.494366 -0.10656,-1.1718991 1.15555,-1.2999145 0.001,-1.519e-4 0.005,-3.645e-4 0.008,-5.181e-4 v -0.00777 c 0.2406,0.00979 0.58614,0.016035 0.74426,0.023309 1.56529,0.071951 1.21583,0.8081376 1.17683,1.3786356 -0.0618,0.899903 -0.8345,4.031971 1.52698,4.332185 4.02683,0.512016 2.27616,-3.341997 2.31245,-4.421782 0.0167,-0.494367 -0.10656,-1.1718995 1.15553,-1.2999131 10e-4,-1.418e-4 0.005,-3.713e-4 0.008,-5.182e-4 v 0.00777 c 0.24062,0.00979 0.58667,0.016035 0.74495,0.023309 1.56528,0.071951 1.21582,0.8081393 1.17682,1.3786343 -0.0618,0.899906 -0.8345,4.031972 1.52699,4.332186 4.02682,0.512017 2.27616,-3.341997 2.31245,-4.42178 0.0167,-0.494368 -0.10656,-1.1719012 1.15553,-1.2999148 10e-4,-1.52e-4 0.005,-3.663e-4 0.008,-5.182e-4 v -0.00777 c 0.24059,0.00979 0.58613,0.016035 0.74427,0.023309 1.56527,0.071951 1.21581,0.808137 1.17681,1.378633 -0.0618,0.899905 -0.8345,4.031973 1.52699,4.332185 4.02683,0.512017 2.27616,-3.341997 2.31245,-4.42178 0.0167,-0.494368 -0.10656,-1.1719006 1.15553,-1.2999143 0.001,-1.4e-4 0.005,-3.695e-4 0.008,-5.181e-4 h 6.8e-4 c 0.24059,0.00979 0.58616,0.016035 0.74428,0.023292 1.56528,0.071951 1.21581,0.8081374 1.17681,1.3786344 -0.0618,0.899904 -0.8345,4.031972 1.52698,4.332187 4.02683,0.512016 2.27616,-3.341998 2.31246,-4.421781 0.0167,-0.494368 -0.10655,-1.1719013 1.15553,-1.299915 0.001,-1.536e-4 0.007,-3.662e-4 0.008,-5.181e-4 v -0.00777 c 0.24059,0.00979 0.58612,0.016035 0.74426,0.023309 1.56527,0.071951 1.21582,0.8081351 1.17683,1.3786331 -0.0618,0.899903 -0.83452,4.031969 1.52698,4.332186 4.02681,0.512013 2.27614,-3.341998 2.31244,-4.421782 0.0167,-0.494368 -0.10655,-1.1718997 1.15555,-1.2999133 0.001,-1.4e-4 0.005,-3.696e-4 0.008,-5.182e-4 h 6.9e-4 c 0.2406,0.00979 0.58614,0.016035 0.74427,0.023292 1.56528,0.071951 1.21582,0.8081375 1.17682,1.3786355 -0.0618,0.899903 -0.8345,4.031971 1.52698,4.332185 4.02683,0.512016 2.27616,-3.341997 2.31245,-4.42178 0.0167,-0.494368 -0.10656,-1.1719014 1.15554,-1.299915 10e-4,-1.537e-4 0.007,-3.663e-4 0.008,-5.182e-4 v -0.00777 c 0.2406,0.00979 0.58613,0.016035 0.74426,0.023292 1.56528,0.071951 1.21581,0.8081382 1.17682,1.3786352 -0.0618,0.899905 -0.8345,4.031972 1.52699,4.332185 4.02683,0.512016 2.27616,-3.341998 2.31244,-4.421781 0.0167,-0.494366 -0.10655,-1.1718984 1.15555,-1.2999137 0.001,-1.4e-4 0.005,-3.696e-4 0.008,-5.182e-4 h 6.9e-4 c 0.24059,0.00979 0.58614,0.016035 0.74427,0.023309 1.56528,0.071951 1.21581,0.8081369 1.17681,1.3786339 -0.0618,0.899905 -0.83449,4.031972 1.52699,4.332186 4.02683,0.512016 2.27615,-3.341998 2.31245,-4.421782 0.0167,-0.494368 -0.10656,-1.1719005 1.15553,-1.2999141 0.001,-1.518e-4 0.007,-3.662e-4 0.008,-5.182e-4 v -0.00777 c 0.24059,0.00979 0.58615,0.016035 0.74428,0.023292 1.56527,0.071951 1.21581,0.8081363 1.17682,1.3786353 -0.0618,0.899903 -0.83452,4.031969 1.52699,4.332184 4.0268,0.512013 2.27615,-3.341997 2.31244,-4.421782 0.0167,-0.494366 -0.10655,-1.1718982 1.15554,-1.2999136 0.001,-1.383e-4 0.005,-3.696e-4 0.008,-5.181e-4 h 6.9e-4 c 0.2406,0.00979 0.58614,0.016035 0.74426,0.023309 1.56529,0.071951 1.21583,0.8081357 1.17683,1.3786337 -0.0618,0.899903 -0.8345,4.031971 1.52698,4.332185 4.02683,0.512015 2.27617,-3.341997 2.31246,-4.42178 0.0167,-0.494368 -0.10656,-1.1719013 1.15553,-1.2999149 10e-4,-1.518e-4 0.007,-3.663e-4 0.008,-5.182e-4 v -0.098923 c 0.55678,0.02535 1.05877,0.073926 1.2853,0.193693 0.63026,0.3330825 0.2845,1.0983881 0.25954,1.5039641 -0.0638,1.035102 -0.28879,2.399154 0.31721,3.397904 0.37485,0.617585 2.67756,0.907307 3.39383,0.267751 0.86195,-0.769704 0.11918,-2.160991 0.0927,-3.002233 -0.0248,-0.785471 0.21159,-1.574195 -0.0106,-2.3543465 l 0.16477,-0.073538 c 1.20464,0.098012 1.63625,-0.2432253 2.31795,0.3324884 1.08575,0.9169231 0.178,2.8329971 0.26845,3.8614191 0.0694,0.789363 0.34049,1.505206 2.34953,1.411262 1.49342,-0.06984 1.41116,-0.782009 1.43704,-1.343417 0.0504,-1.08252 -0.8672,-3.019302 0.0858,-4.0012508 0.25385,-0.261543 5.5277,-0.1124919 5.5277,-0.1124919 l 0.0381,-3.3234364 c 0,0 -4.39325,-0.1151585 -4.62451,-0.1276997 -1.43934,-0.078281 -1.20096,-0.790138 -1.24275,-1.3206302 -0.0862,-1.0951653 1.14487,-4.20021446 -2.30145,-4.09861471 -1.61709,0.0477245 -1.55916,0.76541171 -1.52767,1.38277751 0.0449,0.8903517 0.92913,3.0672275 -0.0474,3.8241309 -0.69541,0.5391203 -1.19229,0.2300435 -2.36051,0.3065923 l -0.15379,-0.078719 c 0.24903,-1.4691645 0.38821,-3.4714283 -0.20804,-4.9199944 -0.26078,-0.63365424 -2.31158,-0.75642436 -3.13773,-0.28535978 -1.29118,0.73640438 -0.55615,2.89836898 -0.49023,3.81946968 0.0248,0.3450321 0.45687,1.1075797 -0.25336,1.3470428 -0.29022,0.097842 -0.71009,0.1436502 -1.17956,0.1662494 -0.32277,-0.010124 -0.73904,-0.030854 -0.98252,-0.025891 l -0.15379,-0.078719 c 0.12808,-0.7555987 -0.0955,-1.5449319 -0.11944,-2.3061832 -0.0153,-0.4871277 -0.007,-0.9727159 -0.0323,-1.4599438 -0.0218,-0.4072895 0.30208,-1.0373289 -0.20529,-1.39572494 -0.66685,-0.47085091 -2.81034,-0.4028644 -3.32037,0.10254294 -1.00074,0.9911392 -0.2493,2.7605454 -0.1895,3.8344889 0.0288,0.5211856 0.47553,1.1743462 -0.94681,1.2828234 -0.22288,0.01698 -0.64386,0.024489 -0.97428,0.042465 V 6.165197 C 166.5497,6.155073 166.13343,6.134343 165.88995,6.139306 l -0.15379,-0.078719 c 0.12809,-0.7555971 -0.0955,-1.5449319 -0.11944,-2.3061822 -0.0153,-0.4871276 -0.007,-0.9727159 -0.0323,-1.4599436 -0.0218,-0.4072894 0.30207,-1.0373293 -0.20528,-1.39572462 -0.66687,-0.47085159 -2.81034,-0.40286456 -3.32037,0.10254292 -1.00073,0.9911395 -0.2493,2.7605457 -0.1895,3.8344892 0.0288,0.5211856 0.4755,1.1743462 -0.94682,1.2828234 -0.22288,0.01698 -0.64387,0.02449 -0.97428,0.042465 -0.32276,-0.010124 -0.73904,-0.030837 -0.98251,-0.025891 l -0.15379,-0.078719 c 0.12808,-0.7555988 -0.0955,-1.544932 -0.11945,-2.3061825 -0.0153,-0.4871278 -0.007,-0.9727159 -0.0323,-1.459944 -0.0218,-0.4072893 0.30208,-1.0373289 -0.20529,-1.39572475 -0.66686,-0.47085091 -2.81034,-0.40286439 -3.32037,0.10254294 -1.00073,0.99113941 -0.2493,2.76054551 -0.1895,3.83448811 0.0288,0.5211873 0.47551,1.1743479 -0.94681,1.2828251 -0.22288,0.01698 -0.64386,0.02449 -0.97427,0.042465 V 6.149147 C 152.7011,6.139023 152.28481,6.11831 152.04136,6.123256 l -0.1538,-0.078719 c 0.12808,-0.7555988 -0.0955,-1.5449319 -0.11944,-2.3061832 -0.0153,-0.4871276 -0.007,-0.9727155 -0.0323,-1.4599437 -0.0218,-0.4072901 0.30207,-1.0373286 -0.2053,-1.3957246 -0.66686,-0.47085141 -2.81034,-0.40286456 -3.32037,0.10254295 -1.00073,0.99113925 -0.2493,2.76054555 -0.1895,3.83448835 0.0288,0.5211857 0.47552,1.1743479 -0.9468,1.2828251 -0.22288,0.01698 -0.64387,0.024489 -0.97428,0.042465 -0.32277,-0.010124 -0.73904,-0.030854 -0.98252,-0.025891 l -0.1538,-0.078719 c 0.12808,-0.7555988 -0.0955,-1.5449319 -0.11944,-2.3061835 -0.0153,-0.4871276 -0.007,-0.9727158 -0.0323,-1.4599436 -0.0218,-0.4072898 0.30207,-1.0373287 -0.2053,-1.39572469 -0.66685,-0.47085141 -2.81034,-0.40286456 -3.32037,0.10254295 -1.00073,0.99113914 -0.24929,2.76054564 -0.18949,3.83448864 0.0288,0.5211857 0.47552,1.1743479 -0.94681,1.2828234 -0.22288,0.01698 -0.64386,0.024473 -0.97428,0.042465 v -0.00777 c -0.32277,-0.010124 -0.73904,-0.030854 -0.98252,-0.025891 l -0.1538,-0.078719 c 0.12808,-0.7555988 -0.0955,-1.544932 -0.11944,-2.3061839 -0.0153,-0.4871277 -0.007,-0.9727157 -0.0323,-1.4599435 -0.0218,-0.4072898 0.30207,-1.0373289 -0.20529,-1.39572489 -0.66687,-0.47085124 -2.81035,-0.4028644 -3.32038,0.10254295 -1.00071,0.99113934 -0.24929,2.76054584 -0.18949,3.83448924 0.0288,0.5211857 0.47551,1.1743463 -0.94681,1.2828234 -0.22288,0.01698 -0.64387,0.024473 -0.97428,0.042465 -0.32277,-0.010124 -0.73904,-0.030854 -0.98252,-0.025891 l -0.15379,-0.078719 c 0.12808,-0.7555987 -0.0955,-1.5449319 -0.11944,-2.3061826 -0.0153,-0.4871279 -0.007,-0.9727157 -0.0323,-1.4599437 -0.0218,-0.4072898 0.30208,-1.037329 -0.20529,-1.39572484 -0.66685,-0.47085125 -2.81034,-0.40286475 -3.32036,0.10254294 -1.00073,0.9911387 -0.24931,2.7605457 -0.1895,3.8344881 0.0288,0.5211873 0.4755,1.1743479 -0.94682,1.282825 -0.22289,0.01698 -0.64387,0.024473 -0.97428,0.042465 v -0.00777 c -0.32276,-0.010124 -0.73905,-0.030854 -0.98251,-0.025891 l -0.15379,-0.078719 c 0.12808,-0.7555988 -0.0955,-1.544932 -0.11945,-2.3061833 -0.0153,-0.4871276 -0.007,-0.9727154 -0.0323,-1.4599433 -0.0218,-0.4072897 0.30207,-1.0373291 -0.20529,-1.39572489 -0.66686,-0.47085108 -2.81034,-0.40286475 -3.32037,0.10254294 -1.00073,0.99113905 -0.2493,2.76054555 -0.1895,3.83448835 0.0288,0.5211873 0.47551,1.1743479 -0.94682,1.2828251 -0.22288,0.01698 -0.64386,0.024473 -0.97426,0.042465 -0.32277,-0.010124 -0.73906,-0.030854 -0.98252,-0.025891 l -0.1538,-0.078719 c 0.12808,-0.7555988 -0.0955,-1.544932 -0.11945,-2.3061839 -0.0153,-0.4871276 -0.007,-0.9727154 -0.0323,-1.4599435 -0.0218,-0.4072897 0.30206,-1.0373289 -0.20529,-1.39572472 -0.66686,-0.47085125 -2.81034,-0.40286474 -3.32036,0.10254294 -1.00074,0.99113918 -0.24931,2.76054548 -0.18951,3.83448918 0.0288,0.5211856 0.47552,1.1743479 -0.9468,1.2828233 -0.22288,0.01698 -0.64387,0.024473 -0.97428,0.042465 v -0.015528 c -0.32277,-0.010124 -0.73904,-0.030854 -0.98251,-0.025891 l -0.15381,-0.078719 c 0.12808,-0.7555989 -0.0955,-1.5449319 -0.11944,-2.3061836 -0.0153,-0.4871276 -0.007,-0.9727155 -0.0323,-1.4599435 -0.0218,-0.4072896 0.30207,-1.0373289 -0.20529,-1.39572479 -0.66687,-0.47085106 -2.81035,-0.40286456 -3.32037,0.10254295 -1.00074,0.99113924 -0.24931,2.76054544 -0.1895,3.83448704 0.0288,0.5211874 0.47552,1.174348 -0.94681,1.2828251 -0.22288,0.01698 -0.64387,0.024473 -0.97428,0.042465 -0.32277,-0.010124 -0.73906,-0.030854 -0.98252,-0.025891 l -0.1538,-0.078719 c 0.12808,-0.7555989 -0.0955,-1.5449319 -0.11944,-2.3061825 -0.0153,-0.4871277 -0.007,-0.9727157 -0.0323,-1.4599436 -0.0218,-0.4072894 0.30207,-1.0373289 -0.20529,-1.39572473 -0.66686,-0.47085106 -2.81035,-0.40286456 -3.320362,0.10254294 -1.000732,0.99113929 -0.249306,2.76054549 -0.189504,3.83448769 0.02883,0.5211857 0.475506,1.174348 -0.946815,1.2828234 -0.22288,0.01698 -0.643873,0.024473 -0.974279,0.042465 v -0.00777 c -0.322766,-0.010109 -0.739042,-0.030832 -0.982516,-0.025871 l -0.15379,-0.078719 C 96.621205,5.2170534 96.397594,4.4277204 96.373679,3.6664698 96.358399,3.1793419 96.367079,2.6937539 96.341389,2.206526 96.319599,1.7986468 96.643468,1.1686076 96.1361,0.81021174 95.469243,0.33936066 93.325761,0.40734718 92.815736,0.91275481 91.815004,1.9038942 92.56643,3.6733008 92.626232,4.747243 c 0.02896,0.5211857 0.475507,1.174348 -0.946815,1.2828234 -0.222893,0.01698 -0.643873,0.024473 -0.974279,0.042465 v -0.00777 c -0.322766,-0.010124 -0.739043,-0.030854 -0.982516,-0.025891 l -0.15379,-0.078719 C 89.696913,5.2045586 89.473302,4.4152255 89.449387,3.6539742 89.434107,3.1668466 89.442787,2.6812584 89.417097,2.1940303 89.395307,1.7867408 89.719177,1.1567016 89.211809,0.79830577 88.544401,0.32745468 86.400919,0.39544119 85.890894,0.90084866 84.890162,1.8919881 85.641588,3.6613945 85.70139,4.7353372 c 0.02883,0.5211857 0.47552,1.1743463 -0.946815,1.2828234 -0.22288,0.01698 -0.643859,0.024473 -0.974279,0.042465 -0.322766,-0.010127 -0.739043,-0.030853 -0.982503,-0.025891 L 82.64399,5.9560155 C 82.772071,5.2004184 82.54846,4.4110836 82.524545,3.6498335 82.509265,3.1627057 82.517945,2.6771175 82.492255,2.1898897 82.47047,1.782595 82.794312,1.1525557 82.286958,0.79415982 81.6201,0.32330874 79.476619,0.39129543 78.966594,0.89670289 77.965862,1.8878422 78.717288,3.6572487 78.77709,4.731192 c 0.02883,0.5211856 0.475507,1.1743462 -0.946803,1.2828234 -0.222892,0.01698 -0.643872,0.024473 -0.974278,0.042465 v -0.00777 c -0.322766,-0.01012 -0.739043,-0.030849 -0.982516,-0.025887 L 75.71969,5.9441063 C 75.847771,5.1885076 75.62416,4.3991744 75.600245,3.6379242 75.584965,3.1507964 75.593645,2.6652081 75.567955,2.1779802 75.546169,1.7706855 75.870039,1.1406463 75.362658,0.78225063 74.6958,0.31139939 72.552318,0.37938607 72.042293,0.88479354 71.041562,1.8759329 71.793,3.6453393 71.852789,4.7192828 c 0.02883,0.5211856 0.475521,1.1743462 -0.946802,1.2828234 -0.222893,0.01698 -0.643872,0.024473 -0.974273,0.042465 -0.322767,-0.010124 -0.739045,-0.030854 -0.982515,-0.025891 L 68.795401,5.9399611 C 68.923482,5.1843622 68.699841,4.3950292 68.67593,3.6337782 68.66065,3.1466506 68.66933,2.6610624 68.64366,2.1738345 68.62187,1.7665448 68.945735,1.1365054 68.438367,0.77810976 67.771509,0.30725852 65.628026,0.37524536 65.118,0.88065267 64.117268,1.8717919 64.868698,3.6411984 64.928501,4.7151409 c 0.02883,0.5211873 0.475523,1.1743479 -0.946813,1.2828234 -0.222882,0.01698 -0.64386,0.024473 -0.974279,0.042465 V 6.0254038 C 62.682386,6.0152796 62.266111,5.9945503 62.022637,5.9995128 L 61.86884,5.9207977 C 61.996921,5.1651988 61.77328,4.3758658 61.749369,3.614614 61.734089,3.1274864 61.742769,2.6418984 61.717099,2.1546705 61.695309,1.7473805 62.019164,1.1173417 61.511809,0.75894569 60.844938,0.28809445 58.701465,0.3560813 58.19144,0.86148859 57.190708,1.8526279 57.942136,3.6220342 58.00194,4.6959775 c 0.02849,0.5211857 0.474827,1.1743463 -0.947499,1.2828234 -0.222883,0.01698 -0.643869,0.024473 -0.974278,0.042465 -0.322766,-0.010124 -0.739044,-0.030854 -0.982515,-0.025891 l -0.15379,-0.078719 C 55.071899,5.1610569 54.848338,4.3717239 54.824387,3.6104724 54.809117,3.1233447 54.817787,2.6377568 54.792117,2.1505289 54.770332,1.7433031 55.09418,1.1132641 54.586819,0.75486811 53.919958,0.28401703 51.776474,0.35200338 51.266448,0.85741117 50.265716,1.8485502 51.01715,3.6179568 51.076949,4.6918998 c 0.0289,0.5211855 0.475516,1.1743478 -0.946813,1.2828234 -0.22288,0.01698 -0.643869,0.024473 -0.974274,0.042465 -0.322767,-0.010124 -0.739045,-0.030854 -0.982516,-0.025891 l -0.15379,-0.078719 C 48.147597,5.1569792 47.924036,4.3676462 47.900085,3.6063947 47.884815,3.119267 47.893485,2.6336791 47.867815,2.1464514 47.846035,1.7391612 48.169884,1.1091222 47.662521,0.75072639 46.995661,0.27987531 44.852182,0.347862 44.342156,0.85326934 43.341424,1.8444086 44.092854,3.613815 44.152657,4.687758 c 0.0289,0.5211854 0.475511,1.1743477 -0.946814,1.2828233 -0.222883,0.01698 -0.64387,0.024473 -0.974278,0.042465 v -0.00777 c -0.322767,-0.01012 -0.739044,-0.030849 -0.982515,-0.025887 l -0.1538,-0.078719 C 41.223291,5.1450734 40.99973,4.3557404 40.975779,3.5944888 40.960509,3.107361 40.969179,2.6217732 40.943509,2.1345451 40.921729,1.7272554 41.245581,1.0972162 40.73822,0.73882042 40.071359,0.26796917 37.927875,0.33595585 37.41785,0.84136331 36.417118,1.8325027 37.168547,3.601909 37.22835,4.6758521 c 0.0289,0.5211855 0.475512,1.1743461 -0.946813,1.2828234 -0.222884,0.01698 -0.643869,0.024473 -0.974274,0.042465 -0.322767,-0.010124 -0.739045,-0.030854 -0.982519,-0.025891 L 34.170945,5.8965303 C 34.298986,5.1409315 34.075445,4.3515985 34.051473,3.590348 34.036203,3.1032204 34.044873,2.6176324 34.019203,2.1304044 33.997423,1.7231151 34.321274,1.0930759 33.813912,0.73467988 33.147053,0.2638288 31.003568,0.33181532 30.493546,0.83722278 29.492814,1.8283618 30.244247,3.5977685 30.304043,4.6717119 c 0.0289,0.5211855 0.475517,1.1743461 -0.94681,1.2828234 -0.222883,0.01698 -0.643869,0.024473 -0.974278,0.042465 v -0.00777 C 28.06019,5.9791099 27.643911,5.9583834 27.40044,5.9633457 l -0.153796,-0.07872 C 27.374685,5.1290291 27.151124,4.3396944 27.127172,3.5784438 27.111902,3.0913161 27.120572,2.6057281 27.094902,2.1185003 27.073152,1.7112056 27.397,1.0811662 26.889635,0.72277035 26.222778,0.25191928 24.079294,0.31990579 23.569269,0.82531324 22.568537,1.8164527 23.319966,3.585859 23.379769,4.6598028 c 0.0289,0.5211855 0.475512,1.174346 -0.946813,1.2828234 -0.222884,0.01698 -0.643869,0.024473 -0.974274,0.042465 -0.322771,-0.010124 -0.739048,-0.030854 -0.982519,-0.025891 L 20.322366,5.8804809 C 20.450403,5.1248687 20.226847,4.3355355 20.202891,3.5742846 20.187625,3.087157 20.196248,2.6015689 20.170618,2.1143411 20.148842,1.7070515 20.47269,1.0770122 19.965329,0.71861632 19.298469,0.24776507 17.154984,0.31575157 16.644962,0.82115922 15.64423,1.8122987 16.39566,3.5817049 16.455459,4.6556472 c 0.0289,0.5211874 0.475517,1.174348 -0.946812,1.2828253 -0.222881,0.01698 -0.643867,0.024473 -0.974276,0.042465 v -0.015528 c -0.322765,-0.010127 -0.739044,-0.030853 -0.982515,-0.025891 l -0.153797,-0.07872 C 13.5261,5.1051905 13.302539,4.3158573 13.278588,3.5546053 13.263318,3.067478 13.271988,2.5818898 13.246318,2.0946617 13.224538,1.6873722 13.54839,1.057333 13.041025,0.69893695 12.374169,0.22808605 10.230684,0.29607256 9.7206593,0.80147986 8.7199276,1.7926191 9.4713559,3.5620255 9.5311593,4.6359688 9.5600573,5.1571544 10.006672,5.810315 8.5843466,5.9187922 8.3614619,5.9357716 7.940477,5.9432655 7.6100681,5.9612574 7.2873016,5.9511306 6.8710241,5.9304044 6.6275535,5.9353664 L 6.4737537,5.8566457 C 6.6017948,5.1010469 6.3782378,4.3117138 6.3542824,3.5504632 6.3390164,3.0633352 6.3476392,2.5777472 6.3220098,2.0905192 6.3002334,1.6832297 6.6240814,1.0531904 6.1167203,0.69479456 5.4498599,0.22394348 3.3063756,0.29193 2.7963493,0.79733763 1.7956216,1.788477 2.5470512,3.5578837 2.6068507,4.6318255 2.6357487,5.1530112 3.0823669,5.8061734 1.6600379,5.9146506 1.4371572,5.93163 1.016171,5.9391239 0.68576343,5.957116 V 5.949356 C 0.36299692,5.9392251 -0.05328194,5.9184989 -0.29675256,5.9234611 L -0.45054929,5.844742 C -0.32250825,5.0891382 -0.54606519,4.299805 -0.57002059,3.5385543 -0.58528669,3.0514264 -0.57666359,2.5658383 -0.60229329,2.0786104 -0.62406967,1.6713204 -0.30022563,1.041281 -0.80758674,0.6828852 -1.4744431,0.21203413 -3.6179274,0.28002064 -4.1279524,0.78542828 c -1.0007317,0.99113932 -0.2493021,2.76054582 -0.1895,3.83448802 0.028898,0.5211874 0.4755123,1.174348 -0.9468128,1.2828234 -0.2228833,0.01698 -0.6438695,0.024473 -0.9742784,0.042465 v -0.00777 c -0.3227665,-0.01012 -0.739044,-0.030849 -0.9825146,-0.025886 L -7.374855,5.8328307 C -7.2468139,5.0772319 -7.470371,4.2878986 -7.4943263,3.5266476 -7.5095923,3.03952 -7.5009663,2.5539319 -7.5265993,2.0667039 -7.5483753,1.6594143 -7.2245277,1.0293749 -7.7318888,0.67097922 -8.3987492,0.20012816 -10.542233,0.26811466 -11.052259,0.77352213 c -1.000732,0.99113927 -0.249302,2.76054567 -0.189499,3.83448837 0.0289,0.5211857 0.475516,1.1743479 -0.946813,1.2828234 -0.222885,0.01698 -0.643869,0.02449 -0.974274,0.042465 -0.322767,-0.010124 -0.739046,-0.030854 -0.982516,-0.025891 l -0.153764,-0.078719 c 0.128041,-0.7555987 -0.09552,-1.5449314 -0.119471,-2.3061821 -0.01527,-0.4871278 -0.0066,-0.9727161 -0.03227,-1.4599439 -0.02176,-0.4072898 0.302076,-1.037329 -0.205287,-1.39572479 -0.66686,-0.47085106 -2.810339,-0.40286456 -3.320365,0.10254294 -1.000732,0.99113925 -0.249302,2.76054575 -0.1895,3.83448935 0.0289,0.5211857 0.475512,1.1743463 -0.946813,1.2828234 -0.222883,0.01698 -0.64387,0.024473 -0.974278,0.042465 v -0.00777 c -0.322767,-0.010124 -0.739044,-0.030854 -0.982515,-0.025891 l -0.153797,-0.078719 c 0.128041,-0.7555971 -0.09552,-1.5449318 -0.119471,-2.3061827 -0.01527,-0.4871277 -0.0066,-0.9727162 -0.03227,-1.4599436 -0.02178,-0.4072898 0.302065,-1.0373288 -0.205289,-1.39572484 -0.666861,-0.47085106 -2.810345,-0.40286456 -3.32037,0.10254295 -1.000732,0.99113909 -0.249303,2.76054579 -0.1895,3.83448809 0.0289,0.5211874 0.475512,1.174348 -0.946813,1.2828251 -0.222884,0.01698 -0.643869,0.024473 -0.974274,0.042465 -0.322767,-0.010124 -0.739045,-0.030854 -0.982519,-0.025891 l -0.153796,-0.078719 c 0.128041,-0.7555987 -0.09552,-1.5449325 -0.119472,-2.3061837 -0.01527,-0.4871274 -0.0066,-0.9727154 -0.03227,-1.4599436 -0.02178,-0.4072893 0.302071,-1.0373287 -0.205291,-1.3957249 -0.666859,-0.47085108 -2.810344,-0.40286439 -3.320366,0.10254294 -1.000732,0.99113916 -0.249302,2.76054546 -0.189503,3.83448746 0.0289,0.5211856 0.475509,1.1743479 -0.94681,1.2828233 -0.222883,0.01698 -0.643869,0.024473 -0.974278,0.042465 v -0.015528 c -0.322752,-0.010124 -0.739031,-0.030854 -0.982501,-0.025891 l -0.153797,-0.078719 c 0.128041,-0.7555971 -0.09552,-1.5449304 -0.119472,-2.3061814 -0.01525,-0.4871278 -0.0066,-0.9727156 -0.03227,-1.4599435 -0.02178,-0.4072895 0.302071,-1.03732892 -0.205294,-1.39572491 -0.666856,-0.47085109 -2.81034,-0.4028644 -3.320365,0.10254294 -1.000732,0.99113907 -0.249302,2.76054567 -0.1895,3.83448837 0.0289,0.5211857 0.475513,1.1743462 -0.946813,1.2828234 -0.222883,0.01698 -0.64387,0.024473 -0.974277,0.042465 -0.322767,-0.010124 -0.739044,-0.030854 -0.982515,-0.025891 l -0.153798,-0.078719 c 0.128041,-0.7555988 -0.09552,-1.544931 -0.119471,-2.306182 -0.01527,-0.4871278 -0.0066,-0.9727156 -0.03227,-1.4599435 -0.02178,-0.4072897 0.302072,-1.03732911 -0.205291,-1.39572494 -0.333429,-0.23542554 -1.036249,-0.33567809 -1.719231,-0.31436172 -0.68298,0.021317 -1.346123,0.16420029 -1.601136,0.41690478 -1.000731,0.99113908 -0.249302,2.76054558 -0.1895,3.83448718 0.0289,0.5211874 0.475514,1.1743479 -0.946812,1.2828251 -0.222884,0.01698 -0.64387,0.024473 -0.974278,0.042465 -0.387291,-0.038786 -0.722223,-0.1008805 -0.928261,-0.2071586 -1.181357,-0.6094546 -0.490654,-2.7175366 -0.431867,-3.4937139 0.03291,-0.435371 0.470941,-1.30717736 -0.289742,-1.6463855 -0.374657,-0.16701555 -0.900431,-0.24507541 -1.427429,-0.2428924 z"
       sodipodi:nodetypes="scccccccsccsccccccccccccccccccsccccccccccsccccccsccccccscccccsccccccscccccscccccsccccccsccccccsccccccscccccsccccccscccccsccccccsccccccsccccccsccccccsccccccsccccccsccccccsccccccsccccccsccccccsccccccscsccccsccccccscsccccsccccccscsccccsccccccscsccccscccccccccscscscccscccccsccscccsccccsccccsccccscccsccccsccccsccccscccsccccsccccsccccscccsccccsccccsccccscccsccccsccccsccccscccscccccccccscccccccccsccccccccscccccccccsccccccccscccccccccsccccccccccccccccccccccccccccccccccccccccccccccccccccccccccccccccccccccccccccccccccccccccccccccccccccccccccccccccccccccccccccccccccccccccccccccccscccccccs" />
  </g>
</svg>
