<?xml version="1.0" encoding="UTF-8" standalone="no"?>
<svg
   xmlns:dc="http://purl.org/dc/elements/1.1/"
   xmlns:cc="http://creativecommons.org/ns#"
   xmlns:rdf="http://www.w3.org/1999/02/22-rdf-syntax-ns#"
   xmlns:svg="http://www.w3.org/2000/svg"
   xmlns="http://www.w3.org/2000/svg"
   xmlns:sodipodi="http://sodipodi.sourceforge.net/DTD/sodipodi-0.dtd"
   xmlns:inkscape="http://www.inkscape.org/namespaces/inkscape"
   width="307mm"
   height="111mm"
   viewBox="0 0 307 111"
   version="1.1"
   id="svg8"
   inkscape:version="1.0.2 (e86c870879, 2021-01-15, custom)"
   sodipodi:docname="текст Story.svg">
  <defs
     id="defs2">
    <rect
       x="175.4903"
       y="33.621971"
       width="238.634"
       height="82.004807"
       id="rect892" />
    <rect
       x="-76.264473"
       y="59.043465"
       width="467.4274"
       height="173.03015"
       id="rect841" />
    <rect
       x="-22.961348"
       y="98.405769"
       width="351.80063"
       height="98.405769"
       id="rect835" />
    <rect
       x="-76.264473"
       y="59.043465"
       width="467.4274"
       height="173.03015"
       id="rect841-8" />
    <rect
       x="-76.264473"
       y="59.043465"
       width="467.4274"
       height="173.03015"
       id="rect854" />
    <rect
       x="175.4903"
       y="33.621971"
       width="238.634"
       height="82.004807"
       id="rect892-2" />
    <rect
       x="175.4903"
       y="33.621971"
       width="238.634"
       height="82.004807"
       id="rect905" />
  </defs>
  <sodipodi:namedview
     id="base"
     pagecolor="#ffffff"
     bordercolor="#666666"
     borderopacity="1.0"
     inkscape:pageopacity="0.0"
     inkscape:pageshadow="2"
     inkscape:zoom="0.32264368"
     inkscape:cx="564.95793"
     inkscape:cy="-85.671756"
     inkscape:document-units="mm"
     inkscape:current-layer="layer1"
     inkscape:document-rotation="0"
     showgrid="false"
     inkscape:window-width="1609"
     inkscape:window-height="972"
     inkscape:window-x="126"
     inkscape:window-y="44"
     inkscape:window-maximized="0" />
  <metadata
     id="metadata5">
    <rdf:RDF>
      <cc:Work
         rdf:about="">
        <dc:format>image/svg+xml</dc:format>
        <dc:type
           rdf:resource="http://purl.org/dc/dcmitype/StillImage" />
        <dc:title></dc:title>
      </cc:Work>
    </rdf:RDF>
  </metadata>
  <g
     inkscape:label="Слой 1"
     inkscape:groupmode="layer"
     id="layer1">
    <text
       xml:space="preserve"
       id="text833"
       style="font-style:normal;font-weight:normal;font-size:10.5833px;line-height:1.25;font-family:sans-serif;white-space:pre;shape-inside:url(#rect835);fill:#000000;fill-opacity:1;stroke:none;" />
    <g
       aria-label="S"
       transform="matrix(8.9840097,0,0,8.9840097,698.93678,-519.31688)"
       id="text839-2"
       style="font-style:normal;font-variant:normal;font-weight:normal;font-stretch:normal;font-size:10.5833px;line-height:1.25;font-family:Angelin;-inkscape-font-specification:'Angelin, Normal';font-variant-ligatures:normal;font-variant-caps:normal;font-variant-numeric:normal;font-variant-east-asian:normal;white-space:pre;shape-inside:url(#rect841-8);fill:#ffffff;fill-opacity:1;stroke:none;stroke-width:0.111308">
      <path
         d="m -68.052313,68.99533 q -0.09302,0 -0.620115,-0.02584 -0.527098,-0.02067 -1.32808,-0.408243 -0.800982,-0.387572 -1.260901,-1.095536 h -0.118856 q -0.454751,0 -0.862993,-0.108521 -1.255734,-0.346231 -2.04638,-1.431432 -0.516763,-0.713133 -0.707965,-1.498612 -0.10852,-0.434081 -0.10852,-0.831988 0,-0.32556 0.07235,-0.625283 0.222208,-0.795814 0.764809,-1.100704 0.330728,-0.186035 0.687294,-0.186035 0.227376,0 0.645954,0.134359 0.423745,0.134358 0.811317,0.831987 0.315225,0.558104 0.315225,1.446936 0,0.211873 -0.0155,0.439248 -0.02067,0.118856 -0.07752,0.118856 -0.05684,0 -0.05684,-0.113688 l 0.0052,-0.02067 q 0.0155,-0.206705 0.0155,-0.392739 0,-0.800982 -0.315225,-1.369421 -0.315226,-0.568439 -0.852659,-0.749306 -0.227375,-0.07751 -0.439248,-0.07751 -0.956011,0 -1.255733,1.100705 -0.06718,0.268716 -0.06718,0.563271 0,0.366902 0.103353,0.769977 0.180867,0.733803 0.661456,1.405594 0.744138,1.018022 1.91719,1.343583 0.372069,0.103352 0.785479,0.103352 -0.237711,-0.485756 -0.263549,-1.090369 l -0.0052,-0.09819 q 0,-0.84749 0.263549,-1.736322 0.28422,-0.961179 0.80615,-1.793167 0.723468,-1.11104 1.565791,-1.550288 0.692462,-0.361734 1.343583,-0.361734 0.139526,0 0.279052,0.0155 0.749306,0.09302 1.286739,0.552936 0.532265,0.470254 0.692462,1.204057 0.04134,0.211873 0.04134,0.439249 0,0.496092 -0.268717,1.183386 -0.268716,0.687294 -1.188554,1.529618 -1.214392,1.085201 -2.769848,1.627802 -0.697629,0.242879 -1.369421,0.310058 0.599445,0.780311 1.658808,0.992184 0.377237,0.07751 0.769977,0.07751 2.041212,0 3.431304,-1.617467 0.63045,-0.744138 0.919837,-1.844843 0.160197,-0.635618 0.160197,-1.390091 0,-0.558104 -0.08785,-1.188554 -0.165364,-0.91467 -0.175699,-1.705317 -0.728636,-0.08268 -1.52445,-0.191202 -1.431433,-0.206705 -2.945547,-0.325561 -0.537433,-0.04134 -1.064531,-0.04134 -0.956011,0 -2.118727,0.170532 -1.157549,0.170532 -2.284091,0.930173 -1.126543,0.759641 -1.782832,2.299594 -0.031,0.07751 -0.113687,0.07751 -0.02067,0 -0.04134,-0.01033 -0.07752,-0.03101 -0.07752,-0.113688 l 0.01033,-0.05168 q 0.69763,-1.638138 1.860346,-2.433952 1.162716,-0.795815 2.609652,-0.997352 0.82682,-0.113688 1.694981,-0.113688 1.596797,0 4.309801,0.449583 0.764809,0.118856 1.472773,0.211873 0.02067,-0.52193 0.227376,-0.945676 0.211873,-0.428913 0.702797,-0.728635 0.361734,-0.201538 0.888832,-0.201538 0.124023,0 0.532266,0.03617 0.408242,0.03617 1.064531,0.299722 0.661456,0.258382 1.018022,0.60978 0.217041,0.222208 0.217041,0.428913 0,0.134358 -0.155029,0.372069 -0.149861,0.232544 -1.214393,0.449584 l -0.01033,0.0052 q -0.366901,0.05168 -0.769976,0.05168 -0.594277,0 -1.694982,-0.139526 0.01034,0.661456 0.155029,1.472773 0.10852,0.769977 0.10852,1.446936 0,0.93534 -0.294554,1.963698 -0.289388,1.028358 -1.085202,1.824172 -0.749306,0.759641 -1.700149,1.105872 -0.862994,0.310058 -1.736323,0.310058 z m -3.090241,-1.787999 q 0.707965,-0.04651 1.452103,-0.30489 1.50378,-0.532265 2.687166,-1.581294 1.374589,-1.2609 1.374589,-2.526969 0,-0.19637 -0.03617,-0.382404 -0.144694,-0.645954 -0.614948,-1.059364 -0.599445,-0.511595 -1.410762,-0.511595 -1.539953,0 -2.707836,1.793167 -0.506428,0.806149 -0.775145,1.731155 -0.253213,0.837155 -0.253213,1.627802 0,0.707965 0.284219,1.214392 z m 8.86248,-6.402689 q 0.651121,0 1.209225,-0.09819 0.945676,-0.191202 1.152381,-0.41341 0.08268,-0.09302 0.08268,-0.180867 0,-0.124023 -0.232544,-0.279052 -0.232543,-0.155029 -0.790646,-0.273884 -0.50126,-0.103353 -1.018023,-0.103353 -0.06718,0 -0.39274,0.01033 -0.32556,0.01034 -0.707964,0.222208 -0.48059,0.299723 -0.521931,1.038693 0.645954,0.07751 1.21956,0.07751 z"
         style="font-style:normal;font-variant:normal;font-weight:normal;font-stretch:normal;font-size:10.5833px;font-family:Angelin;-inkscape-font-specification:'Angelin, Normal';font-variant-ligatures:normal;font-variant-caps:normal;font-variant-numeric:normal;font-variant-east-asian:normal;stroke-width:0.111308;fill:#ffffff"
         id="path932" />
    </g>
    <g
       aria-label="tory"
       transform="matrix(8.2696712,0,0,7.1094933,-1293.5198,-206.71005)"
       id="text890-7"
       style="font-style:normal;font-variant:normal;font-weight:normal;font-stretch:normal;font-size:10.5833px;line-height:1.25;font-family:'Guild of Professional Actors';-inkscape-font-specification:'Guild of Professional Actors, Normal';font-variant-ligatures:normal;font-variant-caps:normal;font-variant-numeric:normal;font-variant-east-asian:normal;white-space:pre;shape-inside:url(#rect892-2);fill:#ffffff;fill-opacity:1;stroke:none;stroke-width:0.130418">
      <path
         d="m 177.20473,41.888032 h -0.40217 v -3.587739 h -0.79374 v -0.402165 h 0.79374 V 34.11989 h 0.40217 z"
         style="font-style:normal;font-variant:normal;font-weight:normal;font-stretch:normal;font-size:10.5833px;font-family:'Guild of Professional Actors';-inkscape-font-specification:'Guild of Professional Actors, Normal';font-variant-ligatures:normal;font-variant-caps:normal;font-variant-numeric:normal;font-variant-east-asian:normal;stroke-width:0.130418;fill:#ffffff"
         id="path935" />
      <path
         d="m 182.82445,39.898372 q 0,0.857247 -0.60325,1.460495 -0.59266,0.592665 -1.43933,0.592665 -0.84666,0 -1.44991,-0.592665 -0.60325,-0.603248 -0.60325,-1.460495 0,-0.846664 0.60325,-1.439329 0.60325,-0.603248 1.44991,-0.603248 0.84667,0 1.43933,0.603248 0.60325,0.592665 0.60325,1.439329 z m -0.40216,0 q 0,-0.677332 -0.48684,-1.15358 -0.47624,-0.486832 -1.15358,-0.486832 -0.68791,0 -1.17474,0.486832 -0.47625,0.476248 -0.47625,1.15358 0,0.687914 0.47625,1.174746 0.48683,0.476248 1.17474,0.476248 0.67734,0 1.15358,-0.476248 0.48684,-0.486832 0.48684,-1.174746 z"
         style="font-style:normal;font-variant:normal;font-weight:normal;font-stretch:normal;font-size:10.5833px;font-family:'Guild of Professional Actors';-inkscape-font-specification:'Guild of Professional Actors, Normal';font-variant-ligatures:normal;font-variant-caps:normal;font-variant-numeric:normal;font-variant-east-asian:normal;stroke-width:0.130418;fill:#ffffff"
         id="path937" />
      <path
         d="m 186.81435,38.205044 q -0.31749,0 -0.45508,0.04233 -0.22225,0.07408 -0.4445,0.148166 -0.97366,0.296333 -0.97366,1.21708 v 2.275409 h -0.40216 V 39.61262 q 0,-0.677332 0.30691,-1.037164 0.27517,-0.328082 0.94191,-0.550331 0.48684,-0.15875 0.49742,-0.169333 0.14817,-0.03175 0.52916,-0.03175 z"
         style="font-style:normal;font-variant:normal;font-weight:normal;font-stretch:normal;font-size:10.5833px;font-family:'Guild of Professional Actors';-inkscape-font-specification:'Guild of Professional Actors, Normal';font-variant-ligatures:normal;font-variant-caps:normal;font-variant-numeric:normal;font-variant-east-asian:normal;stroke-width:0.130418;fill:#ffffff"
         id="path939" />
      <path
         d="m 191.59799,37.845212 -2.14841,4.053403 h -0.48684 l 1.18533,-2.190743 -1.49224,-1.767411 0.30691,-0.264582 1.38642,1.650994 0.88899,-1.672161 z"
         style="font-style:normal;font-variant:normal;font-weight:normal;font-stretch:normal;font-size:10.5833px;font-family:'Guild of Professional Actors';-inkscape-font-specification:'Guild of Professional Actors, Normal';font-variant-ligatures:normal;font-variant-caps:normal;font-variant-numeric:normal;font-variant-east-asian:normal;stroke-width:0.130418;fill:#ffffff"
         id="path941" />
    </g>
  </g>
</svg>
