<?xml version="1.0" encoding="UTF-8" standalone="no"?>
<svg
   xmlns:dc="http://purl.org/dc/elements/1.1/"
   xmlns:cc="http://creativecommons.org/ns#"
   xmlns:rdf="http://www.w3.org/1999/02/22-rdf-syntax-ns#"
   xmlns:svg="http://www.w3.org/2000/svg"
   xmlns="http://www.w3.org/2000/svg"
   xmlns:sodipodi="http://sodipodi.sourceforge.net/DTD/sodipodi-0.dtd"
   xmlns:inkscape="http://www.inkscape.org/namespaces/inkscape"
   width="222mm"
   height="55mm"
   viewBox="0 0 222 55"
   version="1.1"
   id="svg94"
   inkscape:version="1.0.2 (e86c870879, 2021-01-15, custom)"
   sodipodi:docname="текст 2.svg">
  <defs
     id="defs88">
    <rect
       x="-16.252976"
       y="-105.83333"
       width="169.71131"
       height="37.041667"
       id="rect488" />
    <rect
       x="87.3125"
       y="-43.845238"
       width="124.73214"
       height="17.764881"
       id="rect482" />
    <rect
       x="-21.922619"
       y="-62.744048"
       width="209.39881"
       height="44.60119"
       id="rect476" />
  </defs>
  <sodipodi:namedview
     id="base"
     pagecolor="#ffffff"
     bordercolor="#666666"
     borderopacity="1.0"
     inkscape:pageopacity="0.0"
     inkscape:pageshadow="2"
     inkscape:zoom="0.7"
     inkscape:cx="343.16207"
     inkscape:cy="54.095805"
     inkscape:document-units="mm"
     inkscape:current-layer="layer1"
     inkscape:document-rotation="0"
     showgrid="false"
     inkscape:window-width="1423"
     inkscape:window-height="914"
     inkscape:window-x="248"
     inkscape:window-y="141"
     inkscape:window-maximized="0" />
  <metadata
     id="metadata91">
    <rdf:RDF>
      <cc:Work
         rdf:about="">
        <dc:format>image/svg+xml</dc:format>
        <dc:type
           rdf:resource="http://purl.org/dc/dcmitype/StillImage" />
        <dc:title></dc:title>
      </cc:Work>
    </rdf:RDF>
  </metadata>
  <g
     inkscape:label="Слой 1"
     inkscape:groupmode="layer"
     id="layer1"
     style="opacity:1;mix-blend-mode:normal">
    <g
       aria-label="Happiness is not a destination
It is a method of life"
       transform="matrix(1.3654615,0,0,1.5693935,-1.9307937,110.31039)"
       id="text474"
       style="font-style:normal;font-weight:normal;font-size:10.5833px;line-height:1.25;font-family:sans-serif;white-space:pre;shape-inside:url(#rect476);fill:#000000;fill-opacity:1;stroke:none;stroke-width:0.683116">
      <path
         d="M 7.2710038,-56.005059 H 3.4821825 v 2.624658 H 2.1804367 v -7.40831 h 1.3017458 v 3.587739 h 3.7888213 v -3.587739 h 1.3017459 v 7.40831 H 7.2710038 Z"
         style="font-style:normal;font-variant:normal;font-weight:normal;font-stretch:normal;font-size:10.5833px;font-family:Zeronero;-inkscape-font-specification:'Zeronero, Normal';font-variant-ligatures:normal;font-variant-caps:normal;font-variant-numeric:normal;font-variant-east-asian:normal;text-align:center;text-anchor:middle;fill:#ffffff;stroke-width:0.683116"
         id="path583" />
      <path
         d="m 9.451155,-56.047392 q 0,-0.613832 0.2328326,-1.15358 0.2328326,-0.550332 0.6349984,-0.952497 0.412748,-0.412749 0.952497,-0.645581 0.539748,-0.232833 1.164162,-0.232833 0.613832,0 1.15358,0.232833 0.539748,0.232832 0.941914,0.645581 0.412748,0.402165 0.645581,0.952497 0.232833,0.539748 0.232833,1.164163 l 0.222249,2.656408 h -1.142996 l -0.105833,-0.582081 q -0.370416,0.370415 -0.857248,0.613831 -0.476248,0.253999 -1.09008,0.275166 -0.624414,0.02117 -1.164162,-0.211666 -0.539749,-0.232833 -0.952497,-0.634998 -0.4021658,-0.412749 -0.6349984,-0.96308 -0.2328326,-0.550332 -0.2328326,-1.164163 z m 1.333496,0 q 0,0.338665 0.126999,0.645581 0.137583,0.296332 0.359833,0.518582 0.222249,0.222249 0.518581,0.349248 0.306916,0.127 0.645581,0.127 0.338666,0 0.634998,-0.127 0.296333,-0.126999 0.518582,-0.349248 0.222249,-0.22225 0.349249,-0.518582 0.127,-0.306916 0.127,-0.645581 0,-0.338666 -0.127,-0.634998 -0.127,-0.306916 -0.349249,-0.529165 -0.222249,-0.22225 -0.518582,-0.349249 -0.296332,-0.127 -0.634998,-0.127 -0.338665,0 -0.645581,0.127 -0.296332,0.126999 -0.518581,0.349249 -0.22225,0.222249 -0.359833,0.529165 -0.126999,0.296332 -0.126999,0.634998 z"
         style="font-style:normal;font-variant:normal;font-weight:normal;font-stretch:normal;font-size:10.5833px;font-family:Zeronero;-inkscape-font-specification:'Zeronero, Normal';font-variant-ligatures:normal;font-variant-caps:normal;font-variant-numeric:normal;font-variant-east-asian:normal;text-align:center;text-anchor:middle;fill:#ffffff;stroke-width:0.683116"
         id="path585" />
      <path
         d="m 16.351442,-58.672051 h 1.142996 l 0.105833,0.476249 q 0.169333,-0.179916 0.412749,-0.328083 0.253999,-0.158749 0.518582,-0.264582 0.275165,-0.116416 0.529165,-0.179916 0.264582,-0.0635 0.476248,-0.0635 0.613831,0 1.15358,0.243416 0.550331,0.232833 0.952497,0.634998 0.412748,0.402165 0.645581,0.952497 0.232833,0.550332 0.232833,1.164163 0,0.613831 -0.232833,1.15358 -0.232833,0.539748 -0.645581,0.952497 -0.402166,0.402165 -0.952497,0.634997 -0.539749,0.232833 -1.15358,0.232833 -0.169333,0 -0.391582,-0.04233 -0.222249,-0.04233 -0.444499,-0.127 -0.222249,-0.07408 -0.433915,-0.190499 -0.211666,-0.116416 -0.359832,-0.264583 v 2.571742 h -1.344079 v -4.921234 z m 4.836568,2.635242 q 0,-0.338666 -0.137583,-0.634998 -0.127,-0.306916 -0.349249,-0.529165 -0.222249,-0.232833 -0.529165,-0.359832 -0.296332,-0.137583 -0.634998,-0.137583 -0.338665,0 -0.634998,0.137583 -0.296332,0.126999 -0.518582,0.359832 -0.222249,0.222249 -0.349248,0.529165 -0.127,0.296332 -0.127,0.645581 0.01058,0.349249 0.137583,0.645581 0.126999,0.296333 0.349249,0.518582 0.222249,0.211666 0.507998,0.338666 0.296333,0.116416 0.634998,0.116416 0.338666,0 0.634998,-0.127 0.306916,-0.126999 0.529165,-0.349248 0.222249,-0.22225 0.349249,-0.518582 0.137583,-0.296333 0.137583,-0.634998 z"
         style="font-style:normal;font-variant:normal;font-weight:normal;font-stretch:normal;font-size:10.5833px;font-family:Zeronero;-inkscape-font-specification:'Zeronero, Normal';font-variant-ligatures:normal;font-variant-caps:normal;font-variant-numeric:normal;font-variant-east-asian:normal;text-align:center;text-anchor:middle;fill:#ffffff;stroke-width:0.683116"
         id="path587" />
      <path
         d="m 23.421079,-58.672051 h 1.142997 l 0.105833,0.476249 q 0.169332,-0.179916 0.412748,-0.328083 0.253999,-0.158749 0.518582,-0.264582 0.275166,-0.116416 0.529165,-0.179916 0.264582,-0.0635 0.476248,-0.0635 0.613832,0 1.15358,0.243416 0.550332,0.232833 0.952497,0.634998 0.412749,0.402165 0.645581,0.952497 0.232833,0.550332 0.232833,1.164163 0,0.613831 -0.232833,1.15358 -0.232832,0.539748 -0.645581,0.952497 -0.402165,0.402165 -0.952497,0.634997 -0.539748,0.232833 -1.15358,0.232833 -0.169332,0 -0.391582,-0.04233 -0.222249,-0.04233 -0.444498,-0.127 -0.22225,-0.07408 -0.433916,-0.190499 -0.211666,-0.116416 -0.359832,-0.264583 v 2.571742 h -1.344079 v -4.921234 z m 4.836568,2.635242 q 0,-0.338666 -0.137583,-0.634998 -0.126999,-0.306916 -0.349249,-0.529165 -0.222249,-0.232833 -0.529165,-0.359832 -0.296332,-0.137583 -0.634998,-0.137583 -0.338665,0 -0.634998,0.137583 -0.296332,0.126999 -0.518581,0.359832 -0.22225,0.222249 -0.349249,0.529165 -0.127,0.296332 -0.127,0.645581 0.01058,0.349249 0.137583,0.645581 0.127,0.296333 0.349249,0.518582 0.222249,0.211666 0.507998,0.338666 0.296333,0.116416 0.634998,0.116416 0.338666,0 0.634998,-0.127 0.306916,-0.126999 0.529165,-0.349248 0.22225,-0.22225 0.349249,-0.518582 0.137583,-0.296333 0.137583,-0.634998 z"
         style="font-style:normal;font-variant:normal;font-weight:normal;font-stretch:normal;font-size:10.5833px;font-family:Zeronero;-inkscape-font-specification:'Zeronero, Normal';font-variant-ligatures:normal;font-variant-caps:normal;font-variant-numeric:normal;font-variant-east-asian:normal;text-align:center;text-anchor:middle;fill:#ffffff;stroke-width:0.683116"
         id="path589" />
      <path
         d="m 30.564798,-58.672051 h 1.333495 v 5.29165 h -1.333495 z m 0.01058,-2.296576 h 1.322912 v 0.963081 h -1.322912 z"
         style="font-style:normal;font-variant:normal;font-weight:normal;font-stretch:normal;font-size:10.5833px;font-family:Zeronero;-inkscape-font-specification:'Zeronero, Normal';font-variant-ligatures:normal;font-variant-caps:normal;font-variant-numeric:normal;font-variant-east-asian:normal;text-align:center;text-anchor:middle;fill:#ffffff;stroke-width:0.683116"
         id="path591" />
      <path
         d="m 39.295987,-53.274568 -4.857735,-3.196156 v 3.090323 h -1.333496 v -5.619732 l 4.857735,3.386656 v -3.058574 h 1.333496 z"
         style="font-style:normal;font-variant:normal;font-weight:normal;font-stretch:normal;font-size:10.5833px;font-family:Zeronero;-inkscape-font-specification:'Zeronero, Normal';font-variant-ligatures:normal;font-variant-caps:normal;font-variant-numeric:normal;font-variant-east-asian:normal;text-align:center;text-anchor:middle;fill:#ffffff;stroke-width:0.683116"
         id="path593" />
      <path
         d="m 41.730137,-55.729893 q 0.0635,0.253999 0.232832,0.497415 0.169333,0.232832 0.412749,0.423332 0.253999,0.179916 0.582082,0.296332 0.328082,0.105833 0.730247,0.105833 0.529165,0 0.846664,-0.09525 0.328083,-0.09525 0.486832,-0.179916 l 0.857247,0.857248 q -0.423332,0.359832 -1.02658,0.550331 -0.592665,0.201083 -1.164163,0.201083 -0.740831,0 -1.354662,-0.232833 -0.613831,-0.232832 -1.047747,-0.634998 -0.433915,-0.412748 -0.677331,-0.952497 -0.243416,-0.539748 -0.243416,-1.153579 0,-0.613832 0.232833,-1.15358 0.232832,-0.550332 0.634998,-0.952497 0.412748,-0.412749 0.952497,-0.645581 0.539748,-0.232833 1.153579,-0.232833 0.613832,0 1.15358,0.232833 0.550332,0.232832 0.952497,0.645581 0.412749,0.402165 0.645581,0.952497 0.232833,0.539748 0.232833,1.15358 v 0.317499 z m 1.608661,-2.24366 q -0.08467,0 -0.306915,0.01058 -0.22225,0.01058 -0.476249,0.116417 -0.253999,0.105833 -0.497415,0.349249 -0.232832,0.243415 -0.359832,0.698497 h 3.259656 q -0.126999,-0.412748 -0.370415,-0.645581 -0.232833,-0.243416 -0.486832,-0.359832 -0.253999,-0.116416 -0.465665,-0.137583 -0.211666,-0.03175 -0.296333,-0.03175 z"
         style="font-style:normal;font-variant:normal;font-weight:normal;font-stretch:normal;font-size:10.5833px;font-family:Zeronero;-inkscape-font-specification:'Zeronero, Normal';font-variant-ligatures:normal;font-variant-caps:normal;font-variant-numeric:normal;font-variant-east-asian:normal;text-align:center;text-anchor:middle;fill:#ffffff;stroke-width:0.683116"
         id="path595" />
      <path
         d="m 47.593268,-54.735063 q 0.264583,0.116416 0.539748,0.211666 0.232833,0.08467 0.476249,0.169333 0.253999,0.07408 0.444499,0.116416 0.222249,0.05292 0.391582,0.01058 0.169332,-0.05292 0.285749,-0.148166 0.116416,-0.09525 0.169333,-0.222249 0.0635,-0.127 0.0635,-0.232833 0,-0.179916 -0.264582,-0.402165 -0.264583,-0.232833 -0.941914,-0.465666 -0.825497,-0.285749 -1.312329,-0.698497 -0.486832,-0.412749 -0.486832,-1.037164 0,-0.328082 0.116417,-0.634998 0.126999,-0.317499 0.391582,-0.550331 0.264582,-0.232833 0.666747,-0.349249 0.412749,-0.116416 0.984247,-0.0635 0.613832,0.05292 1.100663,0.222249 0.497416,0.169333 0.899581,0.380999 -0.169333,0.306916 -0.296332,0.560915 -0.116417,0.243416 -0.264583,0.518582 -0.158749,-0.05292 -0.370415,-0.137583 -0.211666,-0.09525 -0.433916,-0.179916 -0.222249,-0.08467 -0.455082,-0.137583 -0.232832,-0.0635 -0.444498,-0.0635 -0.243416,0 -0.380999,0.116416 -0.137583,0.116417 -0.137583,0.328083 0,0.211666 0.179916,0.349249 0.1905,0.137582 0.656165,0.306915 0.433915,0.148166 0.825497,0.328082 0.402166,0.179917 0.698498,0.412749 0.306916,0.222249 0.476248,0.529165 0.179917,0.306916 0.179917,0.709081 0,0.359832 -0.148167,0.687915 -0.148166,0.328082 -0.444498,0.571498 -0.296333,0.243416 -0.740831,0.370415 -0.444499,0.137583 -1.037164,0.08467 -0.634998,-0.05292 -1.142996,-0.243416 -0.497415,-0.1905 -0.836081,-0.402165 z"
         style="font-style:normal;font-variant:normal;font-weight:normal;font-stretch:normal;font-size:10.5833px;font-family:Zeronero;-inkscape-font-specification:'Zeronero, Normal';font-variant-ligatures:normal;font-variant-caps:normal;font-variant-numeric:normal;font-variant-east-asian:normal;text-align:center;text-anchor:middle;fill:#ffffff;stroke-width:0.683116"
         id="path597" />
      <path
         d="m 53.033084,-54.735063 q 0.264582,0.116416 0.539748,0.211666 0.232833,0.08467 0.476248,0.169333 0.254,0.07408 0.444499,0.116416 0.222249,0.05292 0.391582,0.01058 0.169333,-0.05292 0.285749,-0.148166 0.116417,-0.09525 0.169333,-0.222249 0.0635,-0.127 0.0635,-0.232833 0,-0.179916 -0.264583,-0.402165 -0.264582,-0.232833 -0.941913,-0.465666 -0.825498,-0.285749 -1.312329,-0.698497 -0.486832,-0.412749 -0.486832,-1.037164 0,-0.328082 0.116416,-0.634998 0.127,-0.317499 0.391582,-0.550331 0.264583,-0.232833 0.666748,-0.349249 0.412749,-0.116416 0.984247,-0.0635 0.613831,0.05292 1.100663,0.222249 0.497415,0.169333 0.89958,0.380999 -0.169332,0.306916 -0.296332,0.560915 -0.116416,0.243416 -0.264582,0.518582 -0.15875,-0.05292 -0.370416,-0.137583 -0.211666,-0.09525 -0.433915,-0.179916 -0.222249,-0.08467 -0.455082,-0.137583 -0.232833,-0.0635 -0.444499,-0.0635 -0.243416,0 -0.380998,0.116416 -0.137583,0.116417 -0.137583,0.328083 0,0.211666 0.179916,0.349249 0.190499,0.137582 0.656164,0.306915 0.433916,0.148166 0.825498,0.328082 0.402165,0.179917 0.698498,0.412749 0.306915,0.222249 0.476248,0.529165 0.179916,0.306916 0.179916,0.709081 0,0.359832 -0.148166,0.687915 -0.148166,0.328082 -0.444499,0.571498 -0.296332,0.243416 -0.740831,0.370415 -0.444498,0.137583 -1.037163,0.08467 -0.634998,-0.05292 -1.142996,-0.243416 -0.497415,-0.1905 -0.836081,-0.402165 z"
         style="font-style:normal;font-variant:normal;font-weight:normal;font-stretch:normal;font-size:10.5833px;font-family:Zeronero;-inkscape-font-specification:'Zeronero, Normal';font-variant-ligatures:normal;font-variant-caps:normal;font-variant-numeric:normal;font-variant-east-asian:normal;text-align:center;text-anchor:middle;fill:#ffffff;stroke-width:0.683116"
         id="path599" />
      <path
         d="m 61.203372,-58.672051 h 1.333496 v 5.29165 h -1.333496 z m 0.01058,-2.296576 h 1.322912 v 0.963081 h -1.322912 z"
         style="font-style:normal;font-variant:normal;font-weight:normal;font-stretch:normal;font-size:10.5833px;font-family:Zeronero;-inkscape-font-specification:'Zeronero, Normal';font-variant-ligatures:normal;font-variant-caps:normal;font-variant-numeric:normal;font-variant-east-asian:normal;text-align:center;text-anchor:middle;fill:#ffffff;stroke-width:0.683116"
         id="path601" />
      <path
         d="m 64.410098,-54.735063 q 0.264582,0.116416 0.539748,0.211666 0.232833,0.08467 0.476249,0.169333 0.253999,0.07408 0.444498,0.116416 0.22225,0.05292 0.391582,0.01058 0.169333,-0.05292 0.285749,-0.148166 0.116417,-0.09525 0.169333,-0.222249 0.0635,-0.127 0.0635,-0.232833 0,-0.179916 -0.264583,-0.402165 -0.264582,-0.232833 -0.941913,-0.465666 -0.825498,-0.285749 -1.312329,-0.698497 -0.486832,-0.412749 -0.486832,-1.037164 0,-0.328082 0.116416,-0.634998 0.127,-0.317499 0.391582,-0.550331 0.264583,-0.232833 0.666748,-0.349249 0.412749,-0.116416 0.984247,-0.0635 0.613831,0.05292 1.100663,0.222249 0.497415,0.169333 0.899581,0.380999 -0.169333,0.306916 -0.296333,0.560915 -0.116416,0.243416 -0.264582,0.518582 -0.15875,-0.05292 -0.370416,-0.137583 -0.211666,-0.09525 -0.433915,-0.179916 -0.222249,-0.08467 -0.455082,-0.137583 -0.232832,-0.0635 -0.444498,-0.0635 -0.243416,0 -0.380999,0.116416 -0.137583,0.116417 -0.137583,0.328083 0,0.211666 0.179916,0.349249 0.190499,0.137582 0.656165,0.306915 0.433915,0.148166 0.825497,0.328082 0.402165,0.179917 0.698498,0.412749 0.306915,0.222249 0.476248,0.529165 0.179916,0.306916 0.179916,0.709081 0,0.359832 -0.148166,0.687915 -0.148166,0.328082 -0.444499,0.571498 -0.296332,0.243416 -0.740831,0.370415 -0.444498,0.137583 -1.037163,0.08467 -0.634998,-0.05292 -1.142996,-0.243416 -0.497415,-0.1905 -0.836081,-0.402165 z"
         style="font-style:normal;font-variant:normal;font-weight:normal;font-stretch:normal;font-size:10.5833px;font-family:Zeronero;-inkscape-font-specification:'Zeronero, Normal';font-variant-ligatures:normal;font-variant-caps:normal;font-variant-numeric:normal;font-variant-east-asian:normal;text-align:center;text-anchor:middle;fill:#ffffff;stroke-width:0.683116"
         id="path603" />
      <path
         d="m 78.496451,-53.274568 -4.857735,-3.196156 v 3.090323 h -1.333495 v -5.619732 l 4.857734,3.386656 v -3.058574 h 1.333496 z"
         style="font-style:normal;font-variant:normal;font-weight:normal;font-stretch:normal;font-size:10.5833px;font-family:Zeronero;-inkscape-font-specification:'Zeronero, Normal';font-variant-ligatures:normal;font-variant-caps:normal;font-variant-numeric:normal;font-variant-east-asian:normal;text-align:center;text-anchor:middle;fill:#ffffff;stroke-width:0.683116"
         id="path605" />
      <path
         d="m 79.438347,-56.047392 q 0,-0.613832 0.232833,-1.15358 0.232832,-0.550332 0.634998,-0.952497 0.412748,-0.412749 0.952497,-0.645581 0.539748,-0.232833 1.153579,-0.232833 0.613832,0 1.15358,0.232833 0.550331,0.232832 0.952497,0.645581 0.412749,0.402165 0.645581,0.952497 0.232833,0.539748 0.232833,1.15358 0,0.613831 -0.232833,1.153579 -0.232832,0.539749 -0.645581,0.952497 -0.402166,0.402166 -0.952497,0.634998 -0.539748,0.232833 -1.15358,0.232833 -0.613831,0 -1.153579,-0.232833 -0.539749,-0.232832 -0.952497,-0.634998 -0.402166,-0.412748 -0.634998,-0.952497 -0.232833,-0.539748 -0.232833,-1.153579 z m 1.333496,0 q 0,0.338665 0.126999,0.645581 0.127,0.296332 0.349249,0.518582 0.22225,0.222249 0.518582,0.349248 0.306916,0.127 0.645581,0.127 0.338666,0 0.634998,-0.127 0.296333,-0.126999 0.518582,-0.349248 0.222249,-0.22225 0.349249,-0.518582 0.126999,-0.306916 0.126999,-0.645581 0,-0.338666 -0.126999,-0.634998 -0.127,-0.306916 -0.349249,-0.529165 -0.222249,-0.22225 -0.518582,-0.349249 -0.296332,-0.127 -0.634998,-0.127 -0.338665,0 -0.645581,0.127 -0.296332,0.126999 -0.518582,0.349249 -0.222249,0.222249 -0.349249,0.529165 -0.126999,0.296332 -0.126999,0.634998 z"
         style="font-style:normal;font-variant:normal;font-weight:normal;font-stretch:normal;font-size:10.5833px;font-family:Zeronero;-inkscape-font-specification:'Zeronero, Normal';font-variant-ligatures:normal;font-variant-caps:normal;font-variant-numeric:normal;font-variant-east-asian:normal;text-align:center;text-anchor:middle;fill:#ffffff;stroke-width:0.683116"
         id="path607" />
      <path
         d="m 87.693306,-58.672051 h 1.301746 q -0.02117,0.338666 -0.05292,0.592665 -0.03175,0.243416 -0.05292,0.550332 l -1.195913,0.137583 v 1.471078 q 0,0.571498 0.1905,1.068913 0.201082,0.486832 0.560914,0.857248 l -0.93133,0.93133 q -0.539748,-0.560915 -0.846664,-1.291162 -0.306916,-0.730248 -0.306916,-1.555746 v -4.889484 h 1.333496 z"
         style="font-style:normal;font-variant:normal;font-weight:normal;font-stretch:normal;font-size:10.5833px;font-family:Zeronero;-inkscape-font-specification:'Zeronero, Normal';font-variant-ligatures:normal;font-variant-caps:normal;font-variant-numeric:normal;font-variant-east-asian:normal;text-align:center;text-anchor:middle;fill:#ffffff;stroke-width:0.683116"
         id="path609" />
      <path
         d="m 93.429427,-56.047392 q 0,-0.613832 0.232833,-1.15358 0.232832,-0.550332 0.634998,-0.952497 0.412748,-0.412749 0.952496,-0.645581 0.539749,-0.232833 1.164163,-0.232833 0.613832,0 1.15358,0.232833 0.539748,0.232832 0.941914,0.645581 0.412748,0.402165 0.645581,0.952497 0.232833,0.539748 0.232833,1.164163 l 0.222249,2.656408 h -1.142996 l -0.105833,-0.582081 q -0.370416,0.370415 -0.857248,0.613831 -0.476248,0.253999 -1.09008,0.275166 -0.624414,0.02117 -1.164163,-0.211666 -0.539748,-0.232833 -0.952496,-0.634998 -0.402166,-0.412749 -0.634998,-0.96308 -0.232833,-0.550332 -0.232833,-1.164163 z m 1.333496,0 q 0,0.338665 0.126999,0.645581 0.137583,0.296332 0.359832,0.518582 0.22225,0.222249 0.518582,0.349248 0.306916,0.127 0.645581,0.127 0.338666,0 0.634998,-0.127 0.296333,-0.126999 0.518582,-0.349248 0.222249,-0.22225 0.349249,-0.518582 0.127,-0.306916 0.127,-0.645581 0,-0.338666 -0.127,-0.634998 -0.127,-0.306916 -0.349249,-0.529165 -0.222249,-0.22225 -0.518582,-0.349249 -0.296332,-0.127 -0.634998,-0.127 -0.338665,0 -0.645581,0.127 -0.296332,0.126999 -0.518582,0.349249 -0.222249,0.222249 -0.359832,0.529165 -0.126999,0.296332 -0.126999,0.634998 z"
         style="font-style:normal;font-variant:normal;font-weight:normal;font-stretch:normal;font-size:10.5833px;font-family:Zeronero;-inkscape-font-specification:'Zeronero, Normal';font-variant-ligatures:normal;font-variant-caps:normal;font-variant-numeric:normal;font-variant-east-asian:normal;text-align:center;text-anchor:middle;fill:#ffffff;stroke-width:0.683116"
         id="path611" />
      <path
         d="m 110.00286,-53.380401 h -1.13242 l -0.10583,-0.518582 q -0.21167,0.1905 -0.41275,0.349249 -0.1905,0.148166 -0.41275,0.243416 -0.22225,0.105833 -0.49741,0.15875 -0.26458,0.0635 -0.62442,0.07408 -0.62441,0.01058 -1.16416,-0.22225 -0.53975,-0.232832 -0.9525,-0.634997 -0.40216,-0.412749 -0.63499,-0.952497 -0.23284,-0.550332 -0.23284,-1.164163 0,-0.613832 0.23284,-1.15358 0.23283,-0.550332 0.63499,-0.952497 0.41275,-0.412749 0.9525,-0.645581 0.53975,-0.232833 1.16416,-0.232833 0.33867,0 0.78317,0.15875 0.4445,0.158749 0.84666,0.476248 v -2.571742 h 1.34408 v 4.931818 z m -4.83657,-2.666991 q 0,0.338665 0.127,0.645581 0.13758,0.296332 0.35983,0.518582 0.22225,0.222249 0.51858,0.349248 0.30692,0.127 0.64558,0.127 0.33867,0 0.635,-0.127 0.29633,-0.126999 0.51858,-0.349248 0.22225,-0.22225 0.34925,-0.518582 0.127,-0.306916 0.127,-0.645581 -0.0106,-0.349249 -0.13758,-0.645582 -0.127,-0.306915 -0.34925,-0.518581 -0.22225,-0.22225 -0.51858,-0.349249 -0.29633,-0.127 -0.62442,-0.127 -0.33866,0 -0.64558,0.127 -0.29633,0.126999 -0.51858,0.349249 -0.22225,0.222249 -0.35983,0.529165 -0.127,0.296332 -0.127,0.634998 z"
         style="font-style:normal;font-variant:normal;font-weight:normal;font-stretch:normal;font-size:10.5833px;font-family:Zeronero;-inkscape-font-specification:'Zeronero, Normal';font-variant-ligatures:normal;font-variant-caps:normal;font-variant-numeric:normal;font-variant-east-asian:normal;text-align:center;text-anchor:middle;fill:#ffffff;stroke-width:0.683116"
         id="path613" />
      <path
         d="m 112.27826,-55.729893 q 0.0635,0.253999 0.23283,0.497415 0.16933,0.232832 0.41275,0.423332 0.254,0.179916 0.58208,0.296332 0.32808,0.105833 0.73025,0.105833 0.52916,0 0.84666,-0.09525 0.32808,-0.09525 0.48683,-0.179916 l 0.85725,0.857248 q -0.42333,0.359832 -1.02658,0.550331 -0.59267,0.201083 -1.16416,0.201083 -0.74084,0 -1.35467,-0.232833 -0.61383,-0.232832 -1.04774,-0.634998 -0.43392,-0.412748 -0.67733,-0.952497 -0.24342,-0.539748 -0.24342,-1.153579 0,-0.613832 0.23283,-1.15358 0.23283,-0.550332 0.635,-0.952497 0.41275,-0.412749 0.9525,-0.645581 0.53975,-0.232833 1.15358,-0.232833 0.61383,0 1.15358,0.232833 0.55033,0.232832 0.95249,0.645581 0.41275,0.402165 0.64558,0.952497 0.23284,0.539748 0.23284,1.15358 v 0.317499 z m 1.60866,-2.24366 q -0.0847,0 -0.30692,0.01058 -0.22225,0.01058 -0.47625,0.116417 -0.254,0.105833 -0.49741,0.349249 -0.23283,0.243415 -0.35983,0.698497 h 3.25965 q -0.127,-0.412748 -0.37041,-0.645581 -0.23284,-0.243416 -0.48684,-0.359832 -0.25399,-0.116416 -0.46566,-0.137583 -0.21167,-0.03175 -0.29633,-0.03175 z"
         style="font-style:normal;font-variant:normal;font-weight:normal;font-stretch:normal;font-size:10.5833px;font-family:Zeronero;-inkscape-font-specification:'Zeronero, Normal';font-variant-ligatures:normal;font-variant-caps:normal;font-variant-numeric:normal;font-variant-east-asian:normal;text-align:center;text-anchor:middle;fill:#ffffff;stroke-width:0.683116"
         id="path615" />
      <path
         d="m 118.14138,-54.735063 q 0.26459,0.116416 0.53975,0.211666 0.23283,0.08467 0.47625,0.169333 0.254,0.07408 0.4445,0.116416 0.22225,0.05292 0.39158,0.01058 0.16933,-0.05292 0.28575,-0.148166 0.11642,-0.09525 0.16933,-0.222249 0.0635,-0.127 0.0635,-0.232833 0,-0.179916 -0.26458,-0.402165 -0.26458,-0.232833 -0.94191,-0.465666 -0.8255,-0.285749 -1.31233,-0.698497 -0.48684,-0.412749 -0.48684,-1.037164 0,-0.328082 0.11642,-0.634998 0.127,-0.317499 0.39158,-0.550331 0.26459,-0.232833 0.66675,-0.349249 0.41275,-0.116416 0.98425,-0.0635 0.61383,0.05292 1.10066,0.222249 0.49742,0.169333 0.89958,0.380999 -0.16933,0.306916 -0.29633,0.560915 -0.11642,0.243416 -0.26458,0.518582 -0.15875,-0.05292 -0.37042,-0.137583 -0.21166,-0.09525 -0.43391,-0.179916 -0.22225,-0.08467 -0.45509,-0.137583 -0.23283,-0.0635 -0.44449,-0.0635 -0.24342,0 -0.381,0.116416 -0.13759,0.116417 -0.13759,0.328083 0,0.211666 0.17992,0.349249 0.1905,0.137582 0.65616,0.306915 0.43392,0.148166 0.8255,0.328082 0.40217,0.179917 0.6985,0.412749 0.30692,0.222249 0.47625,0.529165 0.17991,0.306916 0.17991,0.709081 0,0.359832 -0.14816,0.687915 -0.14817,0.328082 -0.4445,0.571498 -0.29633,0.243416 -0.74083,0.370415 -0.4445,0.137583 -1.03716,0.08467 -0.635,-0.05292 -1.143,-0.243416 -0.49742,-0.1905 -0.83608,-0.402165 z"
         style="font-style:normal;font-variant:normal;font-weight:normal;font-stretch:normal;font-size:10.5833px;font-family:Zeronero;-inkscape-font-specification:'Zeronero, Normal';font-variant-ligatures:normal;font-variant-caps:normal;font-variant-numeric:normal;font-variant-east-asian:normal;text-align:center;text-anchor:middle;fill:#ffffff;stroke-width:0.683116"
         id="path617" />
      <path
         d="m 124.29028,-58.672051 h 1.30175 q -0.0212,0.338666 -0.0529,0.592665 -0.0317,0.243416 -0.0529,0.550332 l -1.19592,0.137583 v 1.471078 q 0,0.571498 0.1905,1.068913 0.20109,0.486832 0.56092,0.857248 l -0.93133,0.93133 q -0.53975,-0.560915 -0.84667,-1.291162 -0.30691,-0.730248 -0.30691,-1.555746 v -4.889484 h 1.33349 z"
         style="font-style:normal;font-variant:normal;font-weight:normal;font-stretch:normal;font-size:10.5833px;font-family:Zeronero;-inkscape-font-specification:'Zeronero, Normal';font-variant-ligatures:normal;font-variant-caps:normal;font-variant-numeric:normal;font-variant-east-asian:normal;text-align:center;text-anchor:middle;fill:#ffffff;stroke-width:0.683116"
         id="path619" />
      <path
         d="m 127.10541,-58.672051 h 1.3335 v 5.29165 h -1.3335 z m 0.0106,-2.296576 h 1.32292 v 0.963081 h -1.32292 z"
         style="font-style:normal;font-variant:normal;font-weight:normal;font-stretch:normal;font-size:10.5833px;font-family:Zeronero;-inkscape-font-specification:'Zeronero, Normal';font-variant-ligatures:normal;font-variant-caps:normal;font-variant-numeric:normal;font-variant-east-asian:normal;text-align:center;text-anchor:middle;fill:#ffffff;stroke-width:0.683116"
         id="path621" />
      <path
         d="m 135.8366,-53.274568 -4.85773,-3.196156 v 3.090323 h -1.3335 v -5.619732 l 4.85773,3.386656 v -3.058574 h 1.3335 z"
         style="font-style:normal;font-variant:normal;font-weight:normal;font-stretch:normal;font-size:10.5833px;font-family:Zeronero;-inkscape-font-specification:'Zeronero, Normal';font-variant-ligatures:normal;font-variant-caps:normal;font-variant-numeric:normal;font-variant-east-asian:normal;text-align:center;text-anchor:middle;fill:#ffffff;stroke-width:0.683116"
         id="path623" />
      <path
         d="m 136.89493,-56.047392 q 0,-0.613832 0.23283,-1.15358 0.23283,-0.550332 0.635,-0.952497 0.41275,-0.412749 0.95249,-0.645581 0.53975,-0.232833 1.16417,-0.232833 0.61383,0 1.15358,0.232833 0.53975,0.232832 0.94191,0.645581 0.41275,0.402165 0.64558,0.952497 0.23283,0.539748 0.23283,1.164163 l 0.22225,2.656408 h -1.14299 l -0.10584,-0.582081 q -0.37041,0.370415 -0.85724,0.613831 -0.47625,0.253999 -1.09008,0.275166 -0.62442,0.02117 -1.16417,-0.211666 -0.53974,-0.232833 -0.95249,-0.634998 -0.40217,-0.412749 -0.635,-0.96308 -0.23283,-0.550332 -0.23283,-1.164163 z m 1.33349,0 q 0,0.338665 0.127,0.645581 0.13759,0.296332 0.35983,0.518582 0.22225,0.222249 0.51859,0.349248 0.30691,0.127 0.64558,0.127 0.33866,0 0.635,-0.127 0.29633,-0.126999 0.51858,-0.349248 0.22225,-0.22225 0.34925,-0.518582 0.127,-0.306916 0.127,-0.645581 0,-0.338666 -0.127,-0.634998 -0.127,-0.306916 -0.34925,-0.529165 -0.22225,-0.22225 -0.51858,-0.349249 -0.29634,-0.127 -0.635,-0.127 -0.33867,0 -0.64558,0.127 -0.29634,0.126999 -0.51859,0.349249 -0.22224,0.222249 -0.35983,0.529165 -0.127,0.296332 -0.127,0.634998 z"
         style="font-style:normal;font-variant:normal;font-weight:normal;font-stretch:normal;font-size:10.5833px;font-family:Zeronero;-inkscape-font-specification:'Zeronero, Normal';font-variant-ligatures:normal;font-variant-caps:normal;font-variant-numeric:normal;font-variant-east-asian:normal;text-align:center;text-anchor:middle;fill:#ffffff;stroke-width:0.683116"
         id="path625" />
      <path
         d="m 145.32979,-58.672051 h 1.30174 q -0.0212,0.338666 -0.0529,0.592665 -0.0317,0.243416 -0.0529,0.550332 l -1.19591,0.137583 v 1.471078 q 0,0.571498 0.1905,1.068913 0.20108,0.486832 0.56091,0.857248 l -0.93133,0.93133 q -0.53975,-0.560915 -0.84666,-1.291162 -0.30692,-0.730248 -0.30692,-1.555746 v -4.889484 h 1.3335 z"
         style="font-style:normal;font-variant:normal;font-weight:normal;font-stretch:normal;font-size:10.5833px;font-family:Zeronero;-inkscape-font-specification:'Zeronero, Normal';font-variant-ligatures:normal;font-variant-caps:normal;font-variant-numeric:normal;font-variant-east-asian:normal;text-align:center;text-anchor:middle;fill:#ffffff;stroke-width:0.683116"
         id="path627" />
      <path
         d="m 148.14492,-58.672051 h 1.33349 v 5.29165 h -1.33349 z m 0.0106,-2.296576 h 1.32291 v 0.963081 h -1.32291 z"
         style="font-style:normal;font-variant:normal;font-weight:normal;font-stretch:normal;font-size:10.5833px;font-family:Zeronero;-inkscape-font-specification:'Zeronero, Normal';font-variant-ligatures:normal;font-variant-caps:normal;font-variant-numeric:normal;font-variant-east-asian:normal;text-align:center;text-anchor:middle;fill:#ffffff;stroke-width:0.683116"
         id="path629" />
      <path
         d="m 150.66373,-56.047392 q 0,-0.613832 0.23284,-1.15358 0.23283,-0.550332 0.635,-0.952497 0.41274,-0.412749 0.95249,-0.645581 0.53975,-0.232833 1.15358,-0.232833 0.61383,0 1.15358,0.232833 0.55033,0.232832 0.9525,0.645581 0.41275,0.402165 0.64558,0.952497 0.23283,0.539748 0.23283,1.15358 0,0.613831 -0.23283,1.153579 -0.23283,0.539749 -0.64558,0.952497 -0.40217,0.402166 -0.9525,0.634998 -0.53975,0.232833 -1.15358,0.232833 -0.61383,0 -1.15358,-0.232833 -0.53975,-0.232832 -0.95249,-0.634998 -0.40217,-0.412748 -0.635,-0.952497 -0.23284,-0.539748 -0.23284,-1.153579 z m 1.3335,0 q 0,0.338665 0.127,0.645581 0.127,0.296332 0.34925,0.518582 0.22225,0.222249 0.51858,0.349248 0.30692,0.127 0.64558,0.127 0.33867,0 0.635,-0.127 0.29633,-0.126999 0.51858,-0.349248 0.22225,-0.22225 0.34925,-0.518582 0.127,-0.306916 0.127,-0.645581 0,-0.338666 -0.127,-0.634998 -0.127,-0.306916 -0.34925,-0.529165 -0.22225,-0.22225 -0.51858,-0.349249 -0.29633,-0.127 -0.635,-0.127 -0.33866,0 -0.64558,0.127 -0.29633,0.126999 -0.51858,0.349249 -0.22225,0.222249 -0.34925,0.529165 -0.127,0.296332 -0.127,0.634998 z"
         style="font-style:normal;font-variant:normal;font-weight:normal;font-stretch:normal;font-size:10.5833px;font-family:Zeronero;-inkscape-font-specification:'Zeronero, Normal';font-variant-ligatures:normal;font-variant-caps:normal;font-variant-numeric:normal;font-variant-east-asian:normal;text-align:center;text-anchor:middle;fill:#ffffff;stroke-width:0.683116"
         id="path631" />
      <path
         d="m 163.52242,-53.274568 -4.85773,-3.196156 v 3.090323 h -1.3335 v -5.619732 l 4.85774,3.386656 v -3.058574 h 1.33349 z"
         style="font-style:normal;font-variant:normal;font-weight:normal;font-stretch:normal;font-size:10.5833px;font-family:Zeronero;-inkscape-font-specification:'Zeronero, Normal';font-variant-ligatures:normal;font-variant-caps:normal;font-variant-numeric:normal;font-variant-east-asian:normal;text-align:center;text-anchor:middle;fill:#ffffff;stroke-width:0.683116"
         id="path633" />
      <path
         d="m 30.702386,-47.456233 h 1.301746 v 7.40831 h -1.301746 z"
         style="font-style:normal;font-variant:normal;font-weight:normal;font-stretch:normal;font-size:10.5833px;font-family:Zeronero;-inkscape-font-specification:'Zeronero, Normal';font-variant-ligatures:normal;font-variant-caps:normal;font-variant-numeric:normal;font-variant-east-asian:normal;text-align:center;text-anchor:middle;fill:#ffffff;stroke-width:0.683116"
         id="path635" />
      <path
         d="m 34.82984,-45.339573 h 1.301746 q -0.02117,0.338665 -0.05292,0.592665 -0.03175,0.243416 -0.05292,0.550331 l -1.195913,0.137583 v 1.471079 q 0,0.571498 0.1905,1.068913 0.201082,0.486832 0.560915,0.857247 l -0.931331,0.931331 q -0.539748,-0.560915 -0.846664,-1.291163 -0.306915,-0.730248 -0.306915,-1.555745 v -4.889484 h 1.333495 z"
         style="font-style:normal;font-variant:normal;font-weight:normal;font-stretch:normal;font-size:10.5833px;font-family:Zeronero;-inkscape-font-specification:'Zeronero, Normal';font-variant-ligatures:normal;font-variant-caps:normal;font-variant-numeric:normal;font-variant-east-asian:normal;text-align:center;text-anchor:middle;fill:#ffffff;stroke-width:0.683116"
         id="path637" />
      <path
         d="m 40.66121,-45.339573 h 1.333496 v 5.29165 H 40.66121 Z m 0.01058,-2.296576 h 1.322913 v 0.96308 h -1.322913 z"
         style="font-style:normal;font-variant:normal;font-weight:normal;font-stretch:normal;font-size:10.5833px;font-family:Zeronero;-inkscape-font-specification:'Zeronero, Normal';font-variant-ligatures:normal;font-variant-caps:normal;font-variant-numeric:normal;font-variant-east-asian:normal;text-align:center;text-anchor:middle;fill:#ffffff;stroke-width:0.683116"
         id="path639" />
      <path
         d="m 43.867933,-41.402586 q 0.264582,0.116417 0.539748,0.211666 0.232833,0.08467 0.476249,0.169333 0.253999,0.07408 0.444498,0.116416 0.222249,0.05292 0.391582,0.01058 0.169333,-0.05292 0.285749,-0.148167 0.116417,-0.09525 0.169333,-0.222249 0.0635,-0.126999 0.0635,-0.232832 0,-0.179916 -0.264583,-0.402166 -0.264582,-0.232832 -0.941913,-0.465665 -0.825498,-0.285749 -1.312329,-0.698498 -0.486832,-0.412748 -0.486832,-1.037163 0,-0.328082 0.116416,-0.634998 0.127,-0.317499 0.391582,-0.550332 0.264583,-0.232832 0.666748,-0.349249 0.412749,-0.116416 0.984247,-0.0635 0.613831,0.05292 1.100663,0.222249 0.497415,0.169333 0.899581,0.380999 -0.169333,0.306915 -0.296333,0.560915 -0.116416,0.243416 -0.264582,0.518581 -0.15875,-0.05292 -0.370416,-0.137583 -0.211666,-0.09525 -0.433915,-0.179916 -0.222249,-0.08467 -0.455082,-0.137583 -0.232833,-0.0635 -0.444499,-0.0635 -0.243415,0 -0.380998,0.116416 -0.137583,0.116416 -0.137583,0.328082 0,0.211666 0.179916,0.349249 0.190499,0.137583 0.656164,0.306916 0.433916,0.148166 0.825498,0.328082 0.402165,0.179916 0.698498,0.412749 0.306915,0.222249 0.476248,0.529165 0.179916,0.306915 0.179916,0.709081 0,0.359832 -0.148166,0.687914 -0.148166,0.328083 -0.444499,0.571498 -0.296332,0.243416 -0.740831,0.370416 -0.444498,0.137583 -1.037163,0.08467 -0.634998,-0.05292 -1.142996,-0.243416 -0.497415,-0.190499 -0.836081,-0.402165 z"
         style="font-style:normal;font-variant:normal;font-weight:normal;font-stretch:normal;font-size:10.5833px;font-family:Zeronero;-inkscape-font-specification:'Zeronero, Normal';font-variant-ligatures:normal;font-variant-caps:normal;font-variant-numeric:normal;font-variant-east-asian:normal;text-align:center;text-anchor:middle;fill:#ffffff;stroke-width:0.683116"
         id="path641" />
      <path
         d="m 51.942975,-42.714915 q 0,-0.613831 0.232832,-1.15358 0.232833,-0.550331 0.634998,-0.952496 0.412749,-0.412749 0.952497,-0.645582 0.539748,-0.232832 1.164163,-0.232832 0.613831,0 1.15358,0.232832 0.539748,0.232833 0.941913,0.645582 0.412749,0.402165 0.645582,0.952496 0.232832,0.539749 0.232832,1.164163 l 0.22225,2.656409 h -1.142997 l -0.105833,-0.582082 q -0.370415,0.370416 -0.857247,0.613832 -0.476249,0.253999 -1.09008,0.275165 -0.624415,0.02117 -1.164163,-0.211666 -0.539748,-0.232832 -0.952497,-0.634998 -0.402165,-0.412748 -0.634998,-0.96308 -0.232832,-0.550331 -0.232832,-1.164163 z m 1.333495,0 q 0,0.338666 0.127,0.645581 0.137583,0.296333 0.359832,0.518582 0.222249,0.222249 0.518582,0.349249 0.306915,0.127 0.645581,0.127 0.338666,0 0.634998,-0.127 0.296332,-0.127 0.518582,-0.349249 0.222249,-0.222249 0.349249,-0.518582 0.126999,-0.306915 0.126999,-0.645581 0,-0.338665 -0.126999,-0.634998 -0.127,-0.306916 -0.349249,-0.529165 -0.22225,-0.222249 -0.518582,-0.349249 -0.296332,-0.126999 -0.634998,-0.126999 -0.338666,0 -0.645581,0.126999 -0.296333,0.127 -0.518582,0.349249 -0.222249,0.222249 -0.359832,0.529165 -0.127,0.296333 -0.127,0.634998 z"
         style="font-style:normal;font-variant:normal;font-weight:normal;font-stretch:normal;font-size:10.5833px;font-family:Zeronero;-inkscape-font-specification:'Zeronero, Normal';font-variant-ligatures:normal;font-variant-caps:normal;font-variant-numeric:normal;font-variant-east-asian:normal;text-align:center;text-anchor:middle;fill:#ffffff;stroke-width:0.683116"
         id="path643" />
      <path
         d="m 71.003476,-40.047923 h -1.354662 l -0.603249,-2.709325 q -0.253999,0.285749 -0.560914,0.666748 -0.296333,0.370415 -0.603248,0.772581 -0.306916,0.391582 -0.624415,0.783164 -0.306916,0.380999 -0.582082,0.677331 l -2.370659,-2.899824 q -0.0635,0.253999 -0.137583,0.613831 -0.07408,0.349249 -0.158749,0.730248 -0.07408,0.370415 -0.15875,0.740831 -0.07408,0.359832 -0.137583,0.624415 H 62.35692 q 0.296333,-1.418162 0.560915,-2.836325 0.275166,-1.428745 0.571498,-2.815157 l 3.185573,3.852321 3.185574,-3.852321 z"
         style="font-style:normal;font-variant:normal;font-weight:normal;font-stretch:normal;font-size:10.5833px;font-family:Zeronero;-inkscape-font-specification:'Zeronero, Normal';font-variant-ligatures:normal;font-variant-caps:normal;font-variant-numeric:normal;font-variant-east-asian:normal;text-align:center;text-anchor:middle;fill:#ffffff;stroke-width:0.683116"
         id="path645" />
      <path
         d="m 72.739111,-42.397416 q 0.0635,0.253999 0.232832,0.497415 0.169333,0.232833 0.412749,0.423332 0.253999,0.179916 0.582081,0.296333 0.328083,0.105833 0.730248,0.105833 0.529165,0 0.846664,-0.09525 0.328082,-0.09525 0.486832,-0.179916 l 0.857247,0.857247 q -0.423332,0.359832 -1.02658,0.550332 -0.592665,0.201082 -1.164163,0.201082 -0.740831,0 -1.354662,-0.232832 -0.613832,-0.232833 -1.047747,-0.634998 -0.433915,-0.412749 -0.677331,-0.952497 -0.243416,-0.539748 -0.243416,-1.15358 0,-0.613831 0.232833,-1.15358 0.232832,-0.550331 0.634998,-0.952496 0.412748,-0.412749 0.952497,-0.645582 0.539748,-0.232832 1.153579,-0.232832 0.613832,0 1.15358,0.232832 0.550331,0.232833 0.952497,0.645582 0.412749,0.402165 0.645581,0.952496 0.232833,0.539749 0.232833,1.15358 v 0.317499 z m 1.608661,-2.243659 q -0.08467,0 -0.306915,0.01058 -0.22225,0.01058 -0.476249,0.116416 -0.253999,0.105833 -0.497415,0.349249 -0.232833,0.243416 -0.359832,0.698498 h 3.259656 q -0.127,-0.412749 -0.370415,-0.645581 -0.232833,-0.243416 -0.486832,-0.359833 -0.253999,-0.116416 -0.465665,-0.137582 -0.211666,-0.03175 -0.296333,-0.03175 z"
         style="font-style:normal;font-variant:normal;font-weight:normal;font-stretch:normal;font-size:10.5833px;font-family:Zeronero;-inkscape-font-specification:'Zeronero, Normal';font-variant-ligatures:normal;font-variant-caps:normal;font-variant-numeric:normal;font-variant-east-asian:normal;text-align:center;text-anchor:middle;fill:#ffffff;stroke-width:0.683116"
         id="path647" />
      <path
         d="m 79.628824,-45.339573 h 1.301746 q -0.02117,0.338665 -0.05292,0.592665 -0.03175,0.243416 -0.05292,0.550331 l -1.195913,0.137583 v 1.471079 q 0,0.571498 0.1905,1.068913 0.201082,0.486832 0.560914,0.857247 l -0.93133,0.931331 q -0.539748,-0.560915 -0.846664,-1.291163 -0.306916,-0.730248 -0.306916,-1.555745 v -4.889484 h 1.333496 z"
         style="font-style:normal;font-variant:normal;font-weight:normal;font-stretch:normal;font-size:10.5833px;font-family:Zeronero;-inkscape-font-specification:'Zeronero, Normal';font-variant-ligatures:normal;font-variant-caps:normal;font-variant-numeric:normal;font-variant-east-asian:normal;text-align:center;text-anchor:middle;fill:#ffffff;stroke-width:0.683116"
         id="path649" />
      <path
         d="m 86.645539,-42.714915 q 0,-0.338665 -0.127,-0.634998 -0.127,-0.306916 -0.349249,-0.529165 -0.222249,-0.222249 -0.518582,-0.349249 -0.296332,-0.126999 -0.634998,-0.126999 -0.338665,0 -0.634998,0.126999 -0.285749,0.127 -0.507998,0.338666 -0.222249,0.211666 -0.349249,0.497415 -0.126999,0.285749 -0.137583,0.613831 v 2.730492 h -1.344079 v -7.588226 h 1.344079 v 2.571742 q 0.264583,-0.232833 0.645582,-0.423332 0.380998,-0.1905 0.984246,-0.211666 0.613832,-0.02117 1.15358,0.211666 0.550332,0.222249 0.952497,0.634998 0.412749,0.412748 0.645581,0.973663 0.232833,0.550332 0.232833,1.164163 v 2.666992 h -1.354662 v -2.666992 z"
         style="font-style:normal;font-variant:normal;font-weight:normal;font-stretch:normal;font-size:10.5833px;font-family:Zeronero;-inkscape-font-specification:'Zeronero, Normal';font-variant-ligatures:normal;font-variant-caps:normal;font-variant-numeric:normal;font-variant-east-asian:normal;text-align:center;text-anchor:middle;fill:#ffffff;stroke-width:0.683116"
         id="path651" />
      <path
         d="m 88.878595,-42.714915 q 0,-0.613831 0.232833,-1.15358 0.232832,-0.550331 0.634998,-0.952496 0.412748,-0.412749 0.952497,-0.645582 0.539748,-0.232832 1.153579,-0.232832 0.613832,0 1.15358,0.232832 0.550332,0.232833 0.952497,0.645582 0.412749,0.402165 0.645581,0.952496 0.232833,0.539749 0.232833,1.15358 0,0.613832 -0.232833,1.15358 -0.232832,0.539748 -0.645581,0.952497 -0.402165,0.402165 -0.952497,0.634998 -0.539748,0.232832 -1.15358,0.232832 -0.613831,0 -1.153579,-0.232832 -0.539749,-0.232833 -0.952497,-0.634998 -0.402166,-0.412749 -0.634998,-0.952497 -0.232833,-0.539748 -0.232833,-1.15358 z m 1.333496,0 q 0,0.338666 0.127,0.645581 0.126999,0.296333 0.349248,0.518582 0.22225,0.222249 0.518582,0.349249 0.306916,0.127 0.645581,0.127 0.338666,0 0.634998,-0.127 0.296333,-0.127 0.518582,-0.349249 0.222249,-0.222249 0.349249,-0.518582 0.127,-0.306915 0.127,-0.645581 0,-0.338665 -0.127,-0.634998 -0.127,-0.306916 -0.349249,-0.529165 -0.222249,-0.222249 -0.518582,-0.349249 -0.296332,-0.126999 -0.634998,-0.126999 -0.338665,0 -0.645581,0.126999 -0.296332,0.127 -0.518582,0.349249 -0.222249,0.222249 -0.349248,0.529165 -0.127,0.296333 -0.127,0.634998 z"
         style="font-style:normal;font-variant:normal;font-weight:normal;font-stretch:normal;font-size:10.5833px;font-family:Zeronero;-inkscape-font-specification:'Zeronero, Normal';font-variant-ligatures:normal;font-variant-caps:normal;font-variant-numeric:normal;font-variant-east-asian:normal;text-align:center;text-anchor:middle;fill:#ffffff;stroke-width:0.683116"
         id="path653" />
      <path
         d="m 101.89604,-40.047923 h -1.13241 l -0.10583,-0.518582 q -0.21167,0.190499 -0.41275,0.349249 -0.1905,0.148166 -0.41275,0.243416 -0.22225,0.105833 -0.497416,0.158749 -0.264582,0.0635 -0.624414,0.07408 -0.624415,0.01058 -1.164163,-0.222249 -0.539748,-0.232833 -0.952497,-0.634998 -0.402166,-0.412749 -0.634998,-0.952497 -0.232833,-0.550331 -0.232833,-1.164163 0,-0.613831 0.232833,-1.15358 0.232832,-0.550331 0.634998,-0.952496 0.412749,-0.412749 0.952497,-0.645582 0.539748,-0.232832 1.164163,-0.232832 0.338665,0 0.783164,0.158749 0.444499,0.15875 0.846666,0.476249 v -2.571742 h 1.34408 v 4.931817 z m -4.836565,-2.666992 q 0,0.338666 0.127,0.645581 0.137583,0.296333 0.359832,0.518582 0.222249,0.222249 0.518582,0.349249 0.306915,0.127 0.645581,0.127 0.338665,0 0.634998,-0.127 0.296332,-0.127 0.518581,-0.349249 0.222251,-0.222249 0.349251,-0.518582 0.127,-0.306915 0.127,-0.645581 -0.0106,-0.349249 -0.13758,-0.645581 -0.127,-0.306916 -0.349254,-0.518582 -0.222249,-0.222249 -0.518582,-0.349249 -0.296332,-0.126999 -0.624414,-0.126999 -0.338666,0 -0.645581,0.126999 -0.296333,0.127 -0.518582,0.349249 -0.222249,0.222249 -0.359832,0.529165 -0.127,0.296333 -0.127,0.634998 z"
         style="font-style:normal;font-variant:normal;font-weight:normal;font-stretch:normal;font-size:10.5833px;font-family:Zeronero;-inkscape-font-specification:'Zeronero, Normal';font-variant-ligatures:normal;font-variant-caps:normal;font-variant-numeric:normal;font-variant-east-asian:normal;text-align:center;text-anchor:middle;fill:#ffffff;stroke-width:0.683116"
         id="path655" />
      <path
         d="m 106.13992,-42.714915 q 0,-0.613831 0.23283,-1.15358 0.23284,-0.550331 0.635,-0.952496 0.41275,-0.412749 0.9525,-0.645582 0.53975,-0.232832 1.15358,-0.232832 0.61383,0 1.15358,0.232832 0.55033,0.232833 0.95249,0.645582 0.41275,0.402165 0.64559,0.952496 0.23283,0.539749 0.23283,1.15358 0,0.613832 -0.23283,1.15358 -0.23284,0.539748 -0.64559,0.952497 -0.40216,0.402165 -0.95249,0.634998 -0.53975,0.232832 -1.15358,0.232832 -0.61383,0 -1.15358,-0.232832 -0.53975,-0.232833 -0.9525,-0.634998 -0.40216,-0.412749 -0.635,-0.952497 -0.23283,-0.539748 -0.23283,-1.15358 z m 1.3335,0 q 0,0.338666 0.127,0.645581 0.127,0.296333 0.34925,0.518582 0.22224,0.222249 0.51858,0.349249 0.30691,0.127 0.64558,0.127 0.33866,0 0.635,-0.127 0.29633,-0.127 0.51858,-0.349249 0.22225,-0.222249 0.34925,-0.518582 0.127,-0.306915 0.127,-0.645581 0,-0.338665 -0.127,-0.634998 -0.127,-0.306916 -0.34925,-0.529165 -0.22225,-0.222249 -0.51858,-0.349249 -0.29634,-0.126999 -0.635,-0.126999 -0.33867,0 -0.64558,0.126999 -0.29634,0.127 -0.51858,0.349249 -0.22225,0.222249 -0.34925,0.529165 -0.127,0.296333 -0.127,0.634998 z"
         style="font-style:normal;font-variant:normal;font-weight:normal;font-stretch:normal;font-size:10.5833px;font-family:Zeronero;-inkscape-font-specification:'Zeronero, Normal';font-variant-ligatures:normal;font-variant-caps:normal;font-variant-numeric:normal;font-variant-east-asian:normal;text-align:center;text-anchor:middle;fill:#ffffff;stroke-width:0.683116"
         id="path657" />
      <path
         d="m 114.39488,-44.524659 h 1.32291 q -0.0212,0.338666 -0.0529,0.592665 -0.0318,0.243416 -0.0529,0.550331 l -1.21708,0.137583 v 3.196157 h -1.3335 v -4.952985 q 0,-0.83608 0.29634,-1.555745 0.30691,-0.719664 0.85724,-1.280579 0.26459,0.275166 0.46567,0.486832 0.21167,0.201083 0.46566,0.444498 -0.34924,0.370416 -0.55033,0.857248 -0.20108,0.486832 -0.20108,1.047746 z"
         style="font-style:normal;font-variant:normal;font-weight:normal;font-stretch:normal;font-size:10.5833px;font-family:Zeronero;-inkscape-font-specification:'Zeronero, Normal';font-variant-ligatures:normal;font-variant-caps:normal;font-variant-numeric:normal;font-variant-east-asian:normal;text-align:center;text-anchor:middle;fill:#ffffff;stroke-width:0.683116"
         id="path659" />
      <path
         d="m 120.24743,-47.636149 h 1.3335 v 7.588226 h -1.3335 z"
         style="font-style:normal;font-variant:normal;font-weight:normal;font-stretch:normal;font-size:10.5833px;font-family:Zeronero;-inkscape-font-specification:'Zeronero, Normal';font-variant-ligatures:normal;font-variant-caps:normal;font-variant-numeric:normal;font-variant-east-asian:normal;text-align:center;text-anchor:middle;fill:#ffffff;stroke-width:0.683116"
         id="path661" />
      <path
         d="m 123.27422,-45.339573 h 1.3335 v 5.29165 h -1.3335 z m 0.0106,-2.296576 h 1.32291 v 0.96308 h -1.32291 z"
         style="font-style:normal;font-variant:normal;font-weight:normal;font-stretch:normal;font-size:10.5833px;font-family:Zeronero;-inkscape-font-specification:'Zeronero, Normal';font-variant-ligatures:normal;font-variant-caps:normal;font-variant-numeric:normal;font-variant-east-asian:normal;text-align:center;text-anchor:middle;fill:#ffffff;stroke-width:0.683116"
         id="path663" />
      <path
         d="m 127.19002,-44.524659 h 1.32292 q -0.0212,0.338666 -0.0529,0.592665 -0.0317,0.243416 -0.0529,0.550331 l -1.21708,0.137583 v 3.196157 h -1.33349 v -4.952985 q 0,-0.83608 0.29633,-1.555745 0.30692,-0.719664 0.85725,-1.280579 0.26458,0.275166 0.46566,0.486832 0.21167,0.201083 0.46567,0.444498 -0.34925,0.370416 -0.55033,0.857248 -0.20109,0.486832 -0.20109,1.047746 z"
         style="font-style:normal;font-variant:normal;font-weight:normal;font-stretch:normal;font-size:10.5833px;font-family:Zeronero;-inkscape-font-specification:'Zeronero, Normal';font-variant-ligatures:normal;font-variant-caps:normal;font-variant-numeric:normal;font-variant-east-asian:normal;text-align:center;text-anchor:middle;fill:#ffffff;stroke-width:0.683116"
         id="path665" />
      <path
         d="m 130.65074,-42.397416 q 0.0635,0.253999 0.23284,0.497415 0.16933,0.232833 0.41274,0.423332 0.254,0.179916 0.58209,0.296333 0.32808,0.105833 0.73024,0.105833 0.52917,0 0.84667,-0.09525 0.32808,-0.09525 0.48683,-0.179916 l 0.85725,0.857247 q -0.42334,0.359832 -1.02658,0.550332 -0.59267,0.201082 -1.16417,0.201082 -0.74083,0 -1.35466,-0.232832 -0.61383,-0.232833 -1.04775,-0.634998 -0.43391,-0.412749 -0.67733,-0.952497 -0.24341,-0.539748 -0.24341,-1.15358 0,-0.613831 0.23283,-1.15358 0.23283,-0.550331 0.635,-0.952496 0.41275,-0.412749 0.9525,-0.645582 0.53974,-0.232832 1.15357,-0.232832 0.61384,0 1.15358,0.232832 0.55034,0.232833 0.9525,0.645582 0.41275,0.402165 0.64558,0.952496 0.23284,0.539749 0.23284,1.15358 v 0.317499 z m 1.60866,-2.243659 q -0.0847,0 -0.30691,0.01058 -0.22225,0.01058 -0.47625,0.116416 -0.254,0.105833 -0.49741,0.349249 -0.23284,0.243416 -0.35984,0.698498 h 3.25966 q -0.127,-0.412749 -0.37042,-0.645581 -0.23283,-0.243416 -0.48683,-0.359833 -0.254,-0.116416 -0.46566,-0.137582 -0.21167,-0.03175 -0.29634,-0.03175 z"
         style="font-style:normal;font-variant:normal;font-weight:normal;font-stretch:normal;font-size:10.5833px;font-family:Zeronero;-inkscape-font-specification:'Zeronero, Normal';font-variant-ligatures:normal;font-variant-caps:normal;font-variant-numeric:normal;font-variant-east-asian:normal;text-align:center;text-anchor:middle;fill:#ffffff;stroke-width:0.683116"
         id="path667" />
    </g>
    <text
       xml:space="preserve"
       id="text480"
       style="fill:black;fill-opacity:1;line-height:1.25;stroke:none;font-family:sans-serif;font-style:normal;font-weight:normal;font-size:10.58333333px;white-space:pre;shape-inside:url(#rect482);" />
    <text
       xml:space="preserve"
       id="text486"
       style="fill:black;fill-opacity:1;line-height:1.25;stroke:none;font-family:sans-serif;font-style:normal;font-weight:normal;font-size:10.58333333px;white-space:pre;shape-inside:url(#rect488);" />
  </g>
</svg>
