<?xml version="1.0" encoding="UTF-8" standalone="no"?>
<svg
   xmlns:dc="http://purl.org/dc/elements/1.1/"
   xmlns:cc="http://creativecommons.org/ns#"
   xmlns:rdf="http://www.w3.org/1999/02/22-rdf-syntax-ns#"
   xmlns:svg="http://www.w3.org/2000/svg"
   xmlns="http://www.w3.org/2000/svg"
   xmlns:sodipodi="http://sodipodi.sourceforge.net/DTD/sodipodi-0.dtd"
   xmlns:inkscape="http://www.inkscape.org/namespaces/inkscape"
   id="Слой_1"
   data-name="Слой 1"
   viewBox="0 0 923.95 600"
   version="1.1"
   sodipodi:docname="ТЕКСТ для траницы NASTIE - PHOTOS - 2.svg"
   width="923.95001"
   height="600"
   inkscape:version="1.0.2 (e86c870879, 2021-01-15, custom)">
  <metadata
     id="metadata651">
    <rdf:RDF>
      <cc:Work
         rdf:about="">
        <dc:format>image/svg+xml</dc:format>
        <dc:type
           rdf:resource="http://purl.org/dc/dcmitype/StillImage" />
        <dc:title>Монтажная область 3</dc:title>
      </cc:Work>
    </rdf:RDF>
  </metadata>
  <sodipodi:namedview
     pagecolor="#ffffff"
     bordercolor="#666666"
     borderopacity="1"
     objecttolerance="10"
     gridtolerance="10"
     guidetolerance="10"
     inkscape:pageopacity="0"
     inkscape:pageshadow="2"
     inkscape:window-width="1482"
     inkscape:window-height="772"
     id="namedview649"
     showgrid="false"
     inkscape:zoom="0.299413"
     inkscape:cx="291.03858"
     inkscape:cy="422.64543"
     inkscape:window-x="333"
     inkscape:window-y="75"
     inkscape:window-maximized="0"
     inkscape:current-layer="Слой_1" />
  <defs
     id="defs4">
    <style
       id="style2">.cls-1{fill:#fff;}</style>
  </defs>
  <title
     id="title6">Монтажная область 3</title>
  <path
     class="cls-1"
     d="m 140.74,7.1 h 12.58 a 2.06,2.06 0 1 1 0,4.12 H 142.79 V 38.7 a 2.06,2.06 0 0 1 -4.12,0 V 11.22 h -10.54 a 2.06,2.06 0 0 1 0,-4.12 z"
     id="path8"
     style="fill:#ffffff" />
  <path
     class="cls-1"
     d="m 169.82,29.54 a 2.06,2.06 0 0 1 -2.06,2.06 h -16 a 7.07,7.07 0 0 0 1.79,3 7.15,7.15 0 0 0 10.11,0 2.06,2.06 0 0 1 2.91,2.91 11.27,11.27 0 0 1 -19.23,-7.8 v -0.33 a 11.27,11.27 0 0 1 22.53,0.17 z m -4.42,-2.06 a 7.06,7.06 0 0 0 -1.79,-3 7.15,7.15 0 0 0 -11.9,3 z"
     id="path10"
     style="fill:#ffffff" />
  <path
     class="cls-1"
     d="m 186.38,20.33 a 2.06,2.06 0 0 1 -2.06,2.06 5.81,5.81 0 0 0 -5.8,5.79 v 10.56 a 2.06,2.06 0 1 1 -4.11,0 V 20.33 a 2.0515604,2.0515604 0 0 1 4.1,-0.16 9.83,9.83 0 0 1 5.81,-1.9 2.06,2.06 0 0 1 2.06,2.06 z"
     id="path12"
     style="fill:#ffffff" />
  <path
     class="cls-1"
     d="m 204.14,20.33 a 2.06,2.06 0 0 1 -2.06,2.06 5.81,5.81 0 0 0 -5.8,5.79 v 10.56 a 2.06,2.06 0 1 1 -4.11,0 V 20.33 a 2.0515604,2.0515604 0 0 1 4.1,-0.16 9.83,9.83 0 0 1 5.81,-1.9 2.06,2.06 0 0 1 2.06,2.06 z"
     id="path14"
     style="fill:#ffffff" />
  <path
     class="cls-1"
     d="m 227.9,29.54 v 0 9.19 a 2.06,2.06 0 0 1 -4.12,0 v -0.5 a 11.27,11.27 0 1 1 0,-17.41 v -0.5 a 2.06,2.06 0 0 1 4.12,0 v 9.21 z m -4.12,0 a 7.15,7.15 0 1 0 -7.15,7.16 7.16,7.16 0 0 0 7.15,-7.16 z"
     id="path16"
     style="fill:#ffffff" />
  <path
     class="cls-1"
     d="m 237.8,14.41 v 0 a 2.06,2.06 0 1 1 -2.05,-2.06 2.05,2.05 0 0 1 2.05,2.06 z m 0,5.92 v 18.41 a 2.06,2.06 0 1 1 -4.11,0 V 20.33 a 2.06,2.06 0 1 1 4.11,0 z"
     id="path18"
     style="fill:#ffffff" />
  <path
     class="cls-1"
     d="m 263.45,28.18 v 10.56 a 2.06,2.06 0 1 1 -4.12,0 V 28.18 a 5.8,5.8 0 0 0 -11.59,0 v 10.56 a 2.06,2.06 0 0 1 -4.12,0 V 20.33 a 2.0515604,2.0515604 0 0 1 4.1,-0.16 9.9,9.9 0 0 1 15.73,8 z"
     id="path20"
     style="fill:#ffffff" />
  <path
     class="cls-1"
     d="m 306.69,14.41 v 0 a 2.06,2.06 0 1 1 -2.06,-2.06 2.06,2.06 0 0 1 2.06,2.06 z m 0,5.92 v 18.41 a 2.06,2.06 0 1 1 -4.12,0 V 20.33 a 2.06,2.06 0 0 1 4.12,0 z"
     id="path22"
     style="fill:#ffffff" />
  <path
     class="cls-1"
     d="m 332.34,28.18 v 10.56 a 2.06,2.06 0 0 1 -4.12,0 V 28.18 a 5.8,5.8 0 0 0 -11.59,0 v 10.56 a 2.06,2.06 0 0 1 -4.12,0 V 20.33 a 2.0515604,2.0515604 0 0 1 4.1,-0.16 9.9,9.9 0 0 1 15.73,8 z"
     id="path24"
     style="fill:#ffffff" />
  <path
     class="cls-1"
     d="m 375.08,7.82 14.18,16.63 14.18,-16.63 a 2.06,2.06 0 0 1 3.62,1.34 V 38.7 a 2.06,2.06 0 1 1 -4.12,0 v -24 l -12.11,14.3 -0.12,0.12 -0.11,0.11 v 0 l -0.18,0.13 -0.16,0.09 a 1.63,1.63 0 0 1 -0.19,0.09 l -0.18,0.07 h -0.19 a 1.38,1.38 0 0 1 -0.2,0 h -0.39 a 1.52,1.52 0 0 1 -0.21,0 h -0.18 l -0.19,-0.07 -0.18,-0.08 A 0.91,0.91 0 0 1 388.19,29.35 1.22,1.22 0 0 1 388,29.23 v 0 a 0.68,0.68 0 0 1 -0.12,-0.12 L 387.7,29 375.58,14.75 v 24 a 2.06,2.06 0 1 1 -4.12,0 V 9.16 a 2.06,2.06 0 0 1 3.62,-1.34 z"
     id="path26"
     style="fill:#ffffff" />
  <path
     class="cls-1"
     d="M 435.37,29.54 A 11.27,11.27 0 1 1 424.1,18.27 11.28,11.28 0 0 1 435.37,29.54 Z m -4.12,0 a 7.15,7.15 0 1 0 -7.15,7.14 7.15,7.15 0 0 0 7.15,-7.14 z"
     id="path28"
     style="fill:#ffffff" />
  <path
     class="cls-1"
     d="m 459.79,28.18 v 10.56 a 2.06,2.06 0 1 1 -4.12,0 V 28.18 a 5.8,5.8 0 0 0 -11.6,0 v 10.56 a 2.06,2.06 0 1 1 -4.12,0 V 20.33 a 2.06,2.06 0 0 1 4.11,-0.16 9.83,9.83 0 0 1 5.81,-1.9 9.93,9.93 0 0 1 9.92,9.91 z"
     id="path30"
     style="fill:#ffffff" />
  <path
     class="cls-1"
     d="m 475.59,39 a 6,6 0 0 1 -4.26,1.76 6,6 0 0 1 -6,-6 V 22.25 a 2,2 0 0 1 0,-3.85 v -5.78 a 2.06,2.06 0 1 1 4.12,0 v 5.65 h 1.33 a 2.06,2.06 0 1 1 0,4.12 h -1.33 v 12.38 a 1.91,1.91 0 0 0 3.26,1.35 2.06,2.06 0 0 1 2.88,2.88 z"
     id="path32"
     style="fill:#ffffff" />
  <path
     class="cls-1"
     d="m 500.21,29.54 a 2.06,2.06 0 0 1 -2,2.06 h -16.1 a 7,7 0 0 0 1.78,3 7.15,7.15 0 0 0 10.11,0 2.0612193,2.0612193 0 1 1 2.92,2.91 11.26,11.26 0 0 1 -19.23,-7.8 0.92,0.92 0 0 1 0,-0.16 1,1 0 0 1 0,-0.17 11.260321,11.260321 0 0 1 22.52,0.17 z m -4.41,-2.06 a 7.16,7.16 0 0 0 -11.91,-3 7.08,7.08 0 0 0 -1.78,3 z"
     id="path34"
     style="fill:#ffffff" />
  <path
     class="cls-1"
     d="m 524.63,28.18 v 10.56 a 2.06,2.06 0 1 1 -4.11,0 V 28.18 a 5.8,5.8 0 0 0 -11.6,0 v 10.56 a 2.06,2.06 0 1 1 -4.12,0 V 20.33 a 2.06,2.06 0 0 1 4.11,-0.16 9.89,9.89 0 0 1 15.72,8 z"
     id="path36"
     style="fill:#ffffff" />
  <path
     class="cls-1"
     d="m 551.33,29.54 a 2.06,2.06 0 0 1 -2.05,2.06 h -16 a 7,7 0 0 0 1.78,3 7.15,7.15 0 0 0 10.11,0 2.06,2.06 0 0 1 2.83,2.9 11.26,11.26 0 0 1 -19.23,-7.8 0.92,0.92 0 0 1 0,-0.16 1,1 0 0 1 0,-0.17 11.260321,11.260321 0 0 1 22.52,0.17 z m -4.41,-2.06 a 7.16,7.16 0 0 0 -11.91,-3 7.08,7.08 0 0 0 -1.78,3 z"
     id="path38"
     style="fill:#ffffff" />
  <path
     class="cls-1"
     d="m 578,20.33 v 20.39 a 11.26,11.26 0 0 1 -19.23,8 2.06,2.06 0 1 1 2.91,-2.91 7.16,7.16 0 0 0 12.21,-5.06 v -2.51 a 11.27,11.27 0 1 1 0,-17.41 v -0.5 a 2.06,2.06 0 1 1 4.11,0 z m -4.11,9.21 a 7.15,7.15 0 1 0 -7.15,7.14 7.15,7.15 0 0 0 7.12,-7.14 z"
     id="path40"
     style="fill:#ffffff" />
  <path
     class="cls-1"
     d="m 595.74,20.33 a 2.06,2.06 0 0 1 -2.06,2.06 5.8,5.8 0 0 0 -5.8,5.79 v 10.56 a 2.06,2.06 0 1 1 -4.12,0 V 20.33 a 2.06,2.06 0 0 1 4.11,-0.16 9.83,9.83 0 0 1 5.81,-1.9 2.06,2.06 0 0 1 2.06,2.06 z"
     id="path42"
     style="fill:#ffffff" />
  <path
     class="cls-1"
     d="M 619.5,29.54 A 11.27,11.27 0 1 1 608.23,18.27 11.28,11.28 0 0 1 619.5,29.54 Z m -4.12,0 a 7.15,7.15 0 1 0 -7.15,7.14 7.15,7.15 0 0 0 7.15,-7.14 z"
     id="path44"
     style="fill:#ffffff" />
  <path
     class="cls-1"
     d="m 670.53,20.33 a 2.06,2.06 0 0 1 -2.06,2.06 5.8,5.8 0 0 0 -5.8,5.79 v 10.56 a 2.06,2.06 0 1 1 -4.12,0 V 20.33 a 2.06,2.06 0 0 1 4.11,-0.16 9.83,9.83 0 0 1 5.81,-1.9 2.06,2.06 0 0 1 2.06,2.06 z"
     id="path46"
     style="fill:#ffffff" />
  <path
     class="cls-1"
     d="m 694.29,29.54 v 0 9.19 a 2.06,2.06 0 1 1 -4.12,0 v -0.5 a 11.27,11.27 0 1 1 0,-17.41 v -0.5 a 2.06,2.06 0 1 1 4.12,0 v 9.21 z m -4.12,0 a 7.15,7.15 0 1 0 -7.17,7.14 7.16,7.16 0 0 0 7.15,-7.16 z"
     id="path48"
     style="fill:#ffffff" />
  <path
     class="cls-1"
     d="m 719.91,28.18 v 10.56 a 2.06,2.06 0 1 1 -4.12,0 V 28.18 a 5.8,5.8 0 0 0 -11.6,0 v 10.56 a 2.06,2.06 0 0 1 -4.12,0 V 20.33 a 2.06,2.06 0 0 1 4.11,-0.16 9.83,9.83 0 0 1 5.81,-1.9 9.93,9.93 0 0 1 9.92,9.91 z"
     id="path50"
     style="fill:#ffffff" />
  <path
     class="cls-1"
     d="m 746.61,20.33 v 20.39 a 11.27,11.27 0 0 1 -19.24,8 2.0612193,2.0612193 0 1 1 2.92,-2.91 7.15,7.15 0 0 0 12.2,-5.06 v -2.51 a 11.27,11.27 0 1 1 0,-17.41 v -0.5 a 2.06,2.06 0 0 1 4.12,0 z m -4.12,9.21 a 7.15,7.15 0 1 0 -7.15,7.14 7.15,7.15 0 0 0 7.15,-7.14 z"
     id="path52"
     style="fill:#ffffff" />
  <path
     class="cls-1"
     d="m 774.45,29.54 a 2.06,2.06 0 0 1 -2.06,2.06 h -16 a 7.07,7.07 0 0 0 1.79,3 7.15,7.15 0 0 0 10.11,0 2.06,2.06 0 0 1 2.91,2.91 11.26,11.26 0 0 1 -19.23,-7.8 c 0,-0.06 0,-0.11 0,-0.16 0,-0.05 0,-0.11 0,-0.17 a 11.27,11.27 0 0 1 22.53,0.17 z M 770,27.48 a 7.27,7.27 0 0 0 -1.79,-3 7.15,7.15 0 0 0 -11.9,3 z"
     id="path54"
     style="fill:#ffffff" />
  <path
     class="cls-1"
     d="m 789.72,34.18 a 2.58,2.58 0 0 0 -1.84,-1.81 l -4.79,-1.82 a 6.59,6.59 0 0 1 -4.47,-5 A 5.89,5.89 0 0 1 781,20 v 0 a 8.82,8.82 0 0 1 10.44,0 v 0 a 6,6 0 0 1 2.43,4.71 2.06,2.06 0 0 1 -4.12,0 1.93,1.93 0 0 0 -0.85,-1.47 v 0 a 4.75,4.75 0 0 0 -5.37,0 v 0 a 1.81,1.81 0 0 0 -0.83,1.68 2.62,2.62 0 0 0 1.84,1.81 l 4.8,1.82 a 6.58,6.58 0 0 1 4.46,5 5.88,5.88 0 0 1 -2.36,5.55 v 0 a 8.78,8.78 0 0 1 -10.44,0 v 0 a 6,6 0 0 1 -2.43,-4.71 2.06,2.06 0 1 1 4.12,0 1.93,1.93 0 0 0 0.85,1.47 4.75,4.75 0 0 0 5.37,0 v 0 a 1.78,1.78 0 0 0 0.81,-1.68 z"
     id="path56"
     style="fill:#ffffff" />
  <path
     class="cls-1"
     d="m 848,12.32 a 2.06,2.06 0 0 1 -2.92,0 3.74,3.74 0 0 0 -2.68,-1.11 3.8,3.8 0 0 0 -3.8,3.79 v 3.27 h 3.4 a 2.06,2.06 0 0 1 0,4.12 h -3.41 v 16.35 a 2.06,2.06 0 0 1 -4.12,0 V 22.32 a 2.05,2.05 0 0 1 0,-4 V 15 A 7.92,7.92 0 0 1 848,9.41 a 2.06,2.06 0 0 1 0,2.91 z"
     id="path58"
     style="fill:#ffffff" />
  <path
     class="cls-1"
     d="m 857.11,20.33 a 2.06,2.06 0 0 1 -2.06,2.06 5.8,5.8 0 0 0 -5.79,5.79 v 10.56 a 2.06,2.06 0 1 1 -4.12,0 V 20.33 a 2.0515604,2.0515604 0 0 1 4.1,-0.16 9.85,9.85 0 0 1 5.81,-1.9 2.06,2.06 0 0 1 2.06,2.06 z"
     id="path60"
     style="fill:#ffffff" />
  <path
     class="cls-1"
     d="M 880.87,29.54 A 11.27,11.27 0 1 1 869.6,18.27 11.27,11.27 0 0 1 880.87,29.54 Z m -4.12,0 a 7.15,7.15 0 1 0 -7.15,7.14 7.15,7.15 0 0 0 7.15,-7.14 z"
     id="path62"
     style="fill:#ffffff" />
  <path
     class="cls-1"
     d="m 921,28.18 v 10.56 a 2.06,2.06 0 1 1 -4.11,0 V 28.18 a 5.8,5.8 0 0 0 -11.6,0 v 10.56 a 2.06,2.06 0 1 1 -4.12,0 V 28.18 a 5.8,5.8 0 0 0 -11.59,0 v 10.56 a 2.06,2.06 0 0 1 -4.12,0 V 20.33 a 2.0515604,2.0515604 0 0 1 4.1,-0.16 9.86,9.86 0 0 1 13.67,2 9.9,9.9 0 0 1 17.77,6 z"
     id="path64"
     style="fill:#ffffff" />
  <path
     class="cls-1"
     d="m 22.71,85.78 v 10.56 a 2.06,2.06 0 0 1 -4.12,0 V 85.78 A 5.8,5.8 0 0 0 7,85.78 v 10.56 a 2.06,2.06 0 0 1 -4.12,0 V 66.79 a 2.06,2.06 0 0 1 4.12,0 v 11 a 9.79,9.79 0 0 1 5.8,-1.89 9.93,9.93 0 0 1 9.91,9.88 z"
     id="path66"
     style="fill:#ffffff" />
  <path
     class="cls-1"
     d="m 32.68,72 v 0 a 2.06,2.06 0 1 1 -2.06,-2 2.06,2.06 0 0 1 2.06,2 z m 0,5.92 v 18.42 a 2.06,2.06 0 1 1 -4.12,0 V 77.93 a 2.06,2.06 0 1 1 4.12,0 z"
     id="path68"
     style="fill:#ffffff" />
  <path
     class="cls-1"
     d="m 61,77.93 v 20.39 a 11.27,11.27 0 0 1 -19.24,8 2.0612193,2.0612193 0 0 1 2.92,-2.91 7.15,7.15 0 0 0 12.2,-5.06 v -2.51 a 11.27,11.27 0 1 1 0,-17.41 v -0.5 a 2.06,2.06 0 0 1 4.12,0 z m -4.12,9.21 a 7.15,7.15 0 1 0 -7.15,7.14 7.16,7.16 0 0 0 7.18,-7.14 z"
     id="path70"
     style="fill:#ffffff" />
  <path
     class="cls-1"
     d="m 86.65,85.78 v 10.56 a 2.06,2.06 0 0 1 -4.12,0 V 85.78 a 5.8,5.8 0 0 0 -11.6,0 v 10.56 a 2.06,2.06 0 0 1 -4.12,0 V 66.79 a 2.06,2.06 0 0 1 4.12,0 v 11 a 9.9,9.9 0 0 1 15.72,8 z"
     id="path72"
     style="fill:#ffffff" />
  <path
     class="cls-1"
     d="m 147.22,85.78 v 10.56 a 2.06,2.06 0 0 1 -4.12,0 V 85.78 a 5.8,5.8 0 0 0 -11.59,0 v 10.56 a 2.06,2.06 0 0 1 -4.12,0 V 85.78 a 5.8,5.8 0 0 0 -11.6,0 v 10.56 a 2.06,2.06 0 1 1 -4.11,0 V 77.93 a 2.0515604,2.0515604 0 0 1 4.1,-0.16 9.86,9.86 0 0 1 13.67,2 9.9,9.9 0 0 1 17.77,6 z"
     id="path74"
     style="fill:#ffffff" />
  <path
     class="cls-1"
     d="M 173.9,87.14 A 11.27,11.27 0 1 1 162.64,75.87 11.27,11.27 0 0 1 173.9,87.14 Z m -4.12,0 a 7.15,7.15 0 1 0 -7.14,7.14 7.15,7.15 0 0 0 7.14,-7.14 z"
     id="path76"
     style="fill:#ffffff" />
  <path
     class="cls-1"
     d="m 199,77.93 v 18.41 a 2.0515604,2.0515604 0 0 1 -4.1,0.16 9.83,9.83 0 0 1 -5.81,1.9 9.93,9.93 0 0 1 -9.92,-9.91 V 77.93 a 2.06,2.06 0 0 1 4.12,0 v 10.56 a 5.8,5.8 0 0 0 11.6,0 V 77.93 a 2.06,2.06 0 1 1 4.11,0 z"
     id="path78"
     style="fill:#ffffff" />
  <path
     class="cls-1"
     d="m 224.72,85.78 v 10.56 a 2.06,2.06 0 0 1 -4.12,0 V 85.78 a 5.8,5.8 0 0 0 -11.59,0 v 10.56 a 2.06,2.06 0 0 1 -4.12,0 V 77.93 a 2.0515604,2.0515604 0 0 1 4.1,-0.16 9.9,9.9 0 0 1 15.73,8 z"
     id="path80"
     style="fill:#ffffff" />
  <path
     class="cls-1"
     d="M 240.53,96.64 A 6,6 0 0 1 230.24,92.37 V 79.85 a 2,2 0 0 1 0,-3.85 v -5.78 a 2.06,2.06 0 1 1 4.12,0 v 5.65 h 1.33 a 2.06,2.06 0 1 1 0,4.12 h -1.33 v 12.38 a 1.91,1.91 0 0 0 3.26,1.35 2.0612193,2.0612193 0 0 1 2.91,2.92 z"
     id="path82"
     style="fill:#ffffff" />
  <path
     class="cls-1"
     d="m 265.15,87.14 v 0 9.19 a 2.06,2.06 0 0 1 -4.12,0 v -0.5 a 11.27,11.27 0 1 1 0,-17.41 v -0.5 a 2.06,2.06 0 0 1 4.12,0 v 9.21 z m -4.12,0 a 7.15,7.15 0 1 0 -7.14,7.16 7.15,7.15 0 0 0 7.11,-7.18 z"
     id="path84"
     style="fill:#ffffff" />
  <path
     class="cls-1"
     d="m 275.06,72 v 0 a 2.06,2.06 0 1 1 -2.06,-2 2.06,2.06 0 0 1 2.06,2 z m 0,5.92 v 18.42 a 2.06,2.06 0 1 1 -4.12,0 V 77.93 a 2.06,2.06 0 1 1 4.12,0 z"
     id="path86"
     style="fill:#ffffff" />
  <path
     class="cls-1"
     d="m 300.71,85.78 v 10.56 a 2.06,2.06 0 1 1 -4.12,0 V 85.78 a 5.8,5.8 0 0 0 -11.6,0 v 10.56 a 2.06,2.06 0 0 1 -4.12,0 V 77.93 a 2.06,2.06 0 0 1 4.11,-0.16 9.83,9.83 0 0 1 5.81,-1.9 9.93,9.93 0 0 1 9.92,9.91 z"
     id="path88"
     style="fill:#ffffff" />
  <path
     class="cls-1"
     d="M 316.52,91.78 A 2.58,2.58 0 0 0 314.68,90 l -4.79,-1.82 a 6.59,6.59 0 0 1 -4.47,-5 5.9,5.9 0 0 1 2.36,-5.55 v 0 a 8.82,8.82 0 0 1 10.44,0 v 0 a 6,6 0 0 1 2.43,4.71 2.06,2.06 0 1 1 -4.12,0 1.93,1.93 0 0 0 -0.85,-1.47 v 0 a 4.75,4.75 0 0 0 -5.37,0 v 0 a 1.81,1.81 0 0 0 -0.83,1.68 2.6,2.6 0 0 0 1.84,1.81 l 4.8,1.82 a 6.58,6.58 0 0 1 4.46,5 5.88,5.88 0 0 1 -2.36,5.55 v 0 a 8.8,8.8 0 0 1 -10.45,0 v 0 a 6,6 0 0 1 -2.42,-4.73 2.06,2.06 0 0 1 4.12,0 1.93,1.93 0 0 0 0.85,1.47 4.75,4.75 0 0 0 5.37,0 v 0 a 1.81,1.81 0 0 0 0.83,-1.69 z"
     id="path90"
     style="fill:#ffffff" />
  <path
     class="cls-1"
     d="m 349.73,72 v 0 a 2.06,2.06 0 1 1 -2.06,-2 2.06,2.06 0 0 1 2.06,2 z m 0,5.92 v 18.42 a 2.06,2.06 0 0 1 -4.12,0 V 77.93 a 2.06,2.06 0 0 1 4.12,0 z"
     id="path92"
     style="fill:#ffffff" />
  <path
     class="cls-1"
     d="m 375.38,85.78 v 10.56 a 2.06,2.06 0 1 1 -4.12,0 V 85.78 a 5.8,5.8 0 0 0 -11.6,0 v 10.56 a 2.06,2.06 0 1 1 -4.12,0 V 77.93 a 2.06,2.06 0 0 1 4.11,-0.16 9.83,9.83 0 0 1 5.81,-1.9 9.93,9.93 0 0 1 9.92,9.91 z"
     id="path94"
     style="fill:#ffffff" />
  <path
     class="cls-1"
     d="M 412,96.64 A 6,6 0 0 1 401.71,92.37 V 79.85 a 2,2 0 0 1 0,-3.85 v -5.78 a 2.06,2.06 0 0 1 4.12,0 v 5.65 h 1.33 a 2.06,2.06 0 1 1 0,4.12 h -1.33 v 12.38 a 1.91,1.91 0 0 0 3.26,1.35 2.0612193,2.0612193 0 1 1 2.91,2.92 z"
     id="path96"
     style="fill:#ffffff" />
  <path
     class="cls-1"
     d="m 437.56,85.78 v 10.56 a 2.06,2.06 0 1 1 -4.12,0 V 85.78 a 5.8,5.8 0 0 0 -11.59,0 v 10.56 a 2.06,2.06 0 0 1 -4.12,0 V 66.79 a 2.06,2.06 0 0 1 4.12,0 v 11 a 9.79,9.79 0 0 1 5.8,-1.89 9.93,9.93 0 0 1 9.91,9.88 z"
     id="path98"
     style="fill:#ffffff" />
  <path
     class="cls-1"
     d="m 464.26,87.14 a 2.06,2.06 0 0 1 -2.06,2.06 h -16.05 a 7.15,7.15 0 0 0 11.9,3 2.0683629,2.0683629 0 0 1 2.95,2.9 11.26,11.26 0 0 1 -19.22,-7.8 0.92,0.92 0 0 1 0,-0.16 1,1 0 0 1 0,-0.17 11.260321,11.260321 0 0 1 22.52,0.17 z m -4.42,-2.06 a 7.06,7.06 0 0 0 -1.79,-3 7.15,7.15 0 0 0 -11.9,3 z"
     id="path100"
     style="fill:#ffffff" />
  <path
     class="cls-1"
     d="m 509.06,85.78 v 10.56 a 2.06,2.06 0 1 1 -4.12,0 V 85.78 a 5.8,5.8 0 0 0 -11.59,0 v 10.56 a 2.06,2.06 0 0 1 -4.12,0 V 77.93 a 2.0515604,2.0515604 0 0 1 4.1,-0.16 9.9,9.9 0 0 1 15.73,8 z"
     id="path102"
     style="fill:#ffffff" />
  <path
     class="cls-1"
     d="M 535.76,87.14 A 11.27,11.27 0 1 1 524.5,75.87 11.27,11.27 0 0 1 535.76,87.14 Z m -4.12,0 a 7.15,7.15 0 1 0 -7.14,7.14 7.15,7.15 0 0 0 7.14,-7.14 z"
     id="path104"
     style="fill:#ffffff" />
  <path
     class="cls-1"
     d="m 552.33,77.93 a 2.06,2.06 0 0 1 -2.06,2.07 5.8,5.8 0 0 0 -5.8,5.79 v 10.55 a 2.06,2.06 0 0 1 -4.12,0 V 77.93 a 2.0515604,2.0515604 0 0 1 4.1,-0.16 9.86,9.86 0 0 1 5.82,-1.9 2.06,2.06 0 0 1 2.06,2.06 z"
     id="path106"
     style="fill:#ffffff" />
  <path
     class="cls-1"
     d="M 569.75,96.64 A 6,6 0 0 1 559.46,92.37 V 79.85 a 2,2 0 0 1 0,-3.85 v -5.78 a 2.06,2.06 0 0 1 4.12,0 v 5.65 h 1.32 a 2.06,2.06 0 1 1 0,4.12 h -1.32 v 12.38 a 1.91,1.91 0 0 0 3.26,1.35 2.0612193,2.0612193 0 1 1 2.91,2.92 z"
     id="path108"
     style="fill:#ffffff" />
  <path
     class="cls-1"
     d="m 595.27,85.78 v 10.56 a 2.06,2.06 0 1 1 -4.12,0 V 85.78 a 5.8,5.8 0 0 0 -11.59,0 v 10.56 a 2.06,2.06 0 1 1 -4.12,0 V 66.79 a 2.06,2.06 0 1 1 4.12,0 v 11 a 9.78,9.78 0 0 1 5.79,-1.89 9.93,9.93 0 0 1 9.92,9.88 z"
     id="path110"
     style="fill:#ffffff" />
  <path
     class="cls-1"
     d="m 622,87.14 a 2.06,2.06 0 0 1 -2.06,2.06 h -16 a 7.15,7.15 0 0 0 11.9,3 2.06,2.06 0 0 1 2.91,2.91 11.27,11.27 0 0 1 -19.23,-7.8 V 87 a 11.27,11.27 0 0 1 22.53,0.17 z m -4.42,-2.06 a 7.06,7.06 0 0 0 -1.79,-3 7.15,7.15 0 0 0 -11.9,3 z"
     id="path112"
     style="fill:#ffffff" />
  <path
     class="cls-1"
     d="m 638.53,77.93 a 2.06,2.06 0 0 1 -2.06,2.07 5.8,5.8 0 0 0 -5.79,5.79 v 10.55 a 2.06,2.06 0 1 1 -4.12,0 V 77.93 a 2.0515604,2.0515604 0 0 1 4.1,-0.16 9.85,9.85 0 0 1 5.81,-1.9 2.06,2.06 0 0 1 2.06,2.06 z"
     id="path114"
     style="fill:#ffffff" />
  <path
     class="cls-1"
     d="m 664.15,85.78 v 10.56 a 2.06,2.06 0 1 1 -4.12,0 V 85.78 a 5.8,5.8 0 0 0 -11.59,0 v 10.56 a 2.06,2.06 0 0 1 -4.12,0 V 77.93 a 2.0515604,2.0515604 0 0 1 4.1,-0.16 9.9,9.9 0 0 1 15.73,8 z"
     id="path116"
     style="fill:#ffffff" />
  <path
     class="cls-1"
     d="m 711.71,87.14 a 11.26,11.26 0 0 1 -18.41,8.7 v 11.64 a 2.06,2.06 0 1 1 -4.12,0 v -20.33 0 -9.22 a 2.06,2.06 0 1 1 4.12,0 v 0.5 a 11.26,11.26 0 0 1 18.41,8.71 z m -4.12,0 a 7.15,7.15 0 0 0 -14.29,0 v 0 a 7.15,7.15 0 0 0 14.29,0 z"
     id="path118"
     style="fill:#ffffff" />
  <path
     class="cls-1"
     d="m 738.35,87.14 v 0 9.19 a 2.06,2.06 0 0 1 -4.12,0 v -0.5 a 11.27,11.27 0 1 1 0,-17.41 v -0.5 a 2.06,2.06 0 0 1 4.12,0 v 9.21 z m -4.12,0 a 7.15,7.15 0 1 0 -7.15,7.16 7.16,7.16 0 0 0 7.15,-7.16 z"
     id="path120"
     style="fill:#ffffff" />
  <path
     class="cls-1"
     d="m 756.11,77.93 a 2.06,2.06 0 0 1 -2.06,2.07 5.8,5.8 0 0 0 -5.79,5.79 v 10.55 a 2.06,2.06 0 1 1 -4.12,0 V 77.93 a 2.0515604,2.0515604 0 0 1 4.1,-0.16 9.85,9.85 0 0 1 5.81,-1.9 2.06,2.06 0 0 1 2.06,2.06 z"
     id="path122"
     style="fill:#ffffff" />
  <path
     class="cls-1"
     d="M 773.54,96.64 A 6,6 0 0 1 763.25,92.37 V 79.85 a 2,2 0 0 1 0,-3.85 v -5.78 a 2.06,2.06 0 1 1 4.11,0 v 5.65 h 1.33 a 2.06,2.06 0 0 1 0,4.12 h -1.33 v 12.38 a 1.91,1.91 0 0 0 1.91,1.91 1.94,1.94 0 0 0 1.36,-0.56 2.0612193,2.0612193 0 1 1 2.91,2.92 z"
     id="path124"
     style="fill:#ffffff" />
  <path
     class="cls-1"
     d="m 821.66,87.14 a 11.27,11.27 0 1 1 -11.27,-11.27 11.28,11.28 0 0 1 11.27,11.27 z m -4.12,0 a 7.15,7.15 0 1 0 -7.15,7.14 7.16,7.16 0 0 0 7.15,-7.14 z"
     id="path126"
     style="fill:#ffffff" />
  <path
     class="cls-1"
     d="m 840.85,69.92 a 2,2 0 0 1 -2.91,0 3.8,3.8 0 0 0 -6.48,2.68 v 3.27 h 3.41 a 2.06,2.06 0 0 1 0,4.12 h -3.41 v 16.35 a 2.06,2.06 0 0 1 -4.12,0 V 79.92 a 2.05,2.05 0 0 1 0,-4 V 72.6 a 7.92,7.92 0 0 1 7.92,-7.91 7.83,7.83 0 0 1 5.59,2.31 2,2 0 0 1 0,2.92 z"
     id="path128"
     style="fill:#ffffff" />
  <path
     class="cls-1"
     d="m 868.83,96.64 a 6,6 0 0 1 -10.3,-4.27 V 79.85 a 2.05,2.05 0 0 1 0,-3.85 v -5.78 a 2.06,2.06 0 1 1 4.12,0 v 5.65 H 864 a 2.065,2.065 0 0 1 0,4.13 h -1.33 v 12.37 a 1.91,1.91 0 0 0 3.26,1.35 2.0647518,2.0647518 0 0 1 2.92,2.92 z"
     id="path130"
     style="fill:#ffffff" />
  <path
     class="cls-1"
     d="m 894.35,85.78 v 10.56 a 2.06,2.06 0 0 1 -4.12,0 V 85.78 a 5.8,5.8 0 0 0 -11.6,0 v 10.56 a 2.06,2.06 0 1 1 -4.12,0 V 66.79 a 2.06,2.06 0 1 1 4.12,0 v 11 a 9.9,9.9 0 0 1 15.72,8 z"
     id="path132"
     style="fill:#ffffff" />
  <path
     class="cls-1"
     d="M 921.05,87.14 A 2.06,2.06 0 0 1 919,89.2 h -16 a 7.07,7.07 0 0 0 1.79,3 7.14,7.14 0 0 0 10.1,0 2.0612193,2.0612193 0 0 1 2.92,2.91 11.26,11.26 0 0 1 -19.23,-7.8 c 0,-0.06 0,-0.11 0,-0.16 0,-0.05 0,-0.11 0,-0.17 a 11.27,11.27 0 0 1 22.53,0.17 z m -4.42,-2.06 a 7.16,7.16 0 0 0 -11.9,-3 7.1,7.1 0 0 0 -1.79,3 z"
     id="path134"
     style="fill:#ffffff" />
  <path
     class="cls-1"
     d="m 22.11,152.7 a 11.27,11.27 0 1 1 0,-15.93 2.0612193,2.0612193 0 1 1 -2.92,2.91 7.15,7.15 0 1 0 0,10.11 2.0612193,2.0612193 0 0 1 2.92,2.91 z"
     id="path136"
     style="fill:#ffffff" />
  <path
     class="cls-1"
     d="M 49.36,144.74 A 11.27,11.27 0 1 1 38.1,133.47 11.27,11.27 0 0 1 49.36,144.74 Z m -4.11,0 a 7.15,7.15 0 1 0 -7.15,7.14 7.15,7.15 0 0 0 7.15,-7.14 z"
     id="path138"
     style="fill:#ffffff" />
  <path
     class="cls-1"
     d="m 74.51,135.53 v 18.41 a 2.06,2.06 0 0 1 -4.11,0.16 9.83,9.83 0 0 1 -5.81,1.9 9.93,9.93 0 0 1 -9.92,-9.91 v -10.56 a 2.06,2.06 0 0 1 4.12,0 v 10.56 a 5.8,5.8 0 0 0 11.6,0 v -10.56 a 2.06,2.06 0 0 1 4.12,0 z"
     id="path140"
     style="fill:#ffffff" />
  <path
     class="cls-1"
     d="m 100.19,143.38 v 10.56 a 2.06,2.06 0 0 1 -4.12,0 v -10.56 a 5.8,5.8 0 0 0 -11.6,0 v 10.56 a 2.06,2.06 0 0 1 -4.12,0 v -18.41 a 2.06,2.06 0 0 1 4.11,-0.16 9.83,9.83 0 0 1 5.81,-1.9 9.93,9.93 0 0 1 9.92,9.91 z"
     id="path142"
     style="fill:#ffffff" />
  <path
     class="cls-1"
     d="M 116,154.24 A 6,6 0 0 1 105.7,150 v -12.55 a 2,2 0 0 1 0,-3.85 v -5.78 a 2.06,2.06 0 0 1 4.12,0 v 5.65 h 1.33 a 2.06,2.06 0 0 1 0,4.12 h -1.33 V 150 a 1.91,1.91 0 0 0 1.91,1.91 1.86,1.86 0 0 0 1.35,-0.56 2.0612193,2.0612193 0 0 1 2.91,2.92 z"
     id="path144"
     style="fill:#ffffff" />
  <path
     class="cls-1"
     d="m 134.38,135.53 a 2.06,2.06 0 0 1 -2.06,2.06 5.8,5.8 0 0 0 -5.8,5.79 v 10.56 a 2.06,2.06 0 0 1 -4.12,0 v -18.41 a 2.0515604,2.0515604 0 0 1 4.1,-0.16 9.86,9.86 0 0 1 5.82,-1.9 2.06,2.06 0 0 1 2.06,2.06 z"
     id="path146"
     style="fill:#ffffff" />
  <path
     class="cls-1"
     d="m 159.11,136.34 -3.26,7.66 v 0 l -9.3,21.91 a 2.08,2.08 0 0 1 -1.9,1.25 2.13,2.13 0 0 1 -0.81,-0.16 2.07,2.07 0 0 1 -1.09,-2.7 l 4.38,-10.3 -7.52,-17.63 a 2.06,2.06 0 1 1 3.78,-1.62 l 6,14 2.67,-6.26 v -0.06 0 l 3.26,-7.64 a 2.0608554,2.0608554 0 1 1 3.79,1.62 z"
     id="path148"
     style="fill:#ffffff" />
  <path
     class="cls-1"
     d="m 167.13,154.92 -1.64,2.75 a 2,2 0 0 1 -1.77,1 2,2 0 0 1 -1.05,-0.29 2.06,2.06 0 0 1 -0.72,-2.82 l 1.64,-2.75 a 2.0605642,2.0605642 0 0 1 3.54,2.11 z"
     id="path150"
     style="fill:#ffffff" />
  <path
     class="cls-1"
     d="M 206.71,154.24 A 6,6 0 0 1 196.42,150 v -12.55 a 2,2 0 0 1 0,-3.85 v -5.78 a 2.06,2.06 0 1 1 4.12,0 v 5.65 h 1.33 a 2.06,2.06 0 0 1 0,4.12 h -1.33 V 150 a 1.91,1.91 0 0 0 1.91,1.91 1.86,1.86 0 0 0 1.35,-0.56 2.0612193,2.0612193 0 0 1 2.91,2.92 z"
     id="path152"
     style="fill:#ffffff" />
  <path
     class="cls-1"
     d="m 232.23,143.38 v 10.56 a 2.06,2.06 0 0 1 -4.12,0 v -10.56 a 5.8,5.8 0 0 0 -11.59,0 v 10.56 a 2.06,2.06 0 0 1 -4.12,0 v -29.55 a 2.06,2.06 0 0 1 4.12,0 v 11 a 9.79,9.79 0 0 1 5.8,-1.89 9.93,9.93 0 0 1 9.91,9.88 z"
     id="path154"
     style="fill:#ffffff" />
  <path
     class="cls-1"
     d="m 250.05,135.53 a 2.05,2.05 0 0 1 -2.05,2.06 5.8,5.8 0 0 0 -5.8,5.79 v 10.56 a 2.06,2.06 0 0 1 -4.12,0 v -18.41 a 2.0515604,2.0515604 0 0 1 4.1,-0.16 9.86,9.86 0 0 1 5.82,-1.9 2.05,2.05 0 0 1 2.05,2.06 z"
     id="path156"
     style="fill:#ffffff" />
  <path
     class="cls-1"
     d="m 273.81,144.74 a 11.27,11.27 0 1 1 -11.26,-11.27 11.27,11.27 0 0 1 11.26,11.27 z m -4.12,0 a 7.15,7.15 0 1 0 -7.14,7.14 7.15,7.15 0 0 0 7.14,-7.14 z"
     id="path158"
     style="fill:#ffffff" />
  <path
     class="cls-1"
     d="m 299,135.53 v 18.41 a 2.0515604,2.0515604 0 0 1 -4.1,0.16 9.9,9.9 0 0 1 -15.73,-8 v -10.57 a 2.06,2.06 0 0 1 4.12,0 v 10.56 a 5.8,5.8 0 0 0 11.59,0 v -10.56 a 2.06,2.06 0 1 1 4.12,0 z"
     id="path160"
     style="fill:#ffffff" />
  <path
     class="cls-1"
     d="m 326.85,135.53 v 20.39 a 11.26,11.26 0 0 1 -19.23,8 2.06,2.06 0 0 1 2.91,-2.91 7.15,7.15 0 0 0 12.2,-5.05 v -2.48 a 11.27,11.27 0 1 1 0,-17.41 v -0.5 a 2.06,2.06 0 0 1 4.12,0 z m -4.12,9.21 a 7.15,7.15 0 1 0 -7.14,7.14 7.15,7.15 0 0 0 7.14,-7.14 z"
     id="path162"
     style="fill:#ffffff" />
  <path
     class="cls-1"
     d="m 352.47,143.38 v 10.56 a 2.06,2.06 0 0 1 -4.12,0 v -10.56 a 5.8,5.8 0 0 0 -11.59,0 v 10.56 a 2.06,2.06 0 0 1 -4.12,0 v -29.55 a 2.06,2.06 0 0 1 4.12,0 v 11 a 9.79,9.79 0 0 1 5.8,-1.89 9.93,9.93 0 0 1 9.91,9.88 z"
     id="path164"
     style="fill:#ffffff" />
  <path
     class="cls-1"
     d="m 403,152.61 a 2.0608554,2.0608554 0 0 1 -3.14,2.67 l -8.3,-9.73 -3.79,2.86 v 5.53 a 2.06,2.06 0 1 1 -4.11,0 v -29.55 a 2.06,2.06 0 1 1 4.11,0 v 18.86 l 12.42,-9.37 a 2.0600061,2.0600061 0 0 1 2.48,3.29 l -7.82,5.9 z"
     id="path166"
     style="fill:#ffffff" />
  <path
     class="cls-1"
     d="m 427,144.74 v 0 9.19 a 2.06,2.06 0 1 1 -4.12,0 v -0.5 a 11.27,11.27 0 1 1 0,-17.41 v -0.5 a 2.06,2.06 0 1 1 4.12,0 v 9.21 z m -4.12,0 a 7.15,7.15 0 1 0 -7.15,7.16 7.16,7.16 0 0 0 7.15,-7.16 z"
     id="path168"
     style="fill:#ffffff" />
  <path
     class="cls-1"
     d="m 444.79,135.53 a 2.06,2.06 0 0 1 -2.06,2.06 5.81,5.81 0 0 0 -5.8,5.79 v 10.56 a 2.06,2.06 0 1 1 -4.11,0 v -18.41 a 2.0515604,2.0515604 0 0 1 4.1,-0.16 9.83,9.83 0 0 1 5.81,-1.9 2.06,2.06 0 0 1 2.06,2.06 z"
     id="path170"
     style="fill:#ffffff" />
  <path
     class="cls-1"
     d="m 459.58,149.38 a 2.58,2.58 0 0 0 -1.84,-1.81 L 453,145.75 a 6.59,6.59 0 0 1 -4.47,-5 5.89,5.89 0 0 1 2.37,-5.55 v 0 a 8.79,8.79 0 0 1 10.44,0 v 0 a 6,6 0 0 1 2.43,4.71 2.06,2.06 0 0 1 -4.12,0 1.93,1.93 0 0 0 -0.85,-1.47 v 0 a 4.75,4.75 0 0 0 -5.37,0 v 0 a 1.81,1.81 0 0 0 -0.83,1.68 2.62,2.62 0 0 0 1.84,1.81 l 4.8,1.82 a 6.58,6.58 0 0 1 4.46,5 5.88,5.88 0 0 1 -2.36,5.55 v 0 a 8.78,8.78 0 0 1 -10.44,0 v 0 a 6,6 0 0 1 -2.42,-4.71 2.06,2.06 0 1 1 4.11,0 1.93,1.93 0 0 0 0.85,1.47 4.75,4.75 0 0 0 5.37,0 v 0 a 1.8,1.8 0 0 0 0.77,-1.68 z"
     id="path172"
     style="fill:#ffffff" />
  <path
     class="cls-1"
     d="m 481.13,154.24 a 6,6 0 0 1 -10.3,-4.27 v -12.52 a 2.05,2.05 0 0 1 0,-3.85 v -5.78 a 2.06,2.06 0 0 1 4.12,0 v 5.65 h 1.33 a 2.06,2.06 0 0 1 0,4.12 H 475 V 150 a 1.91,1.91 0 0 0 1.91,1.91 1.86,1.86 0 0 0 1.35,-0.56 2.0647518,2.0647518 0 0 1 2.92,2.92 z"
     id="path174"
     style="fill:#ffffff" />
  <path
     class="cls-1"
     d="m 524,149.38 a 2.6,2.6 0 0 0 -1.84,-1.81 l -4.8,-1.82 a 6.58,6.58 0 0 1 -4.46,-5 5.9,5.9 0 0 1 2.36,-5.55 v 0 a 8.78,8.78 0 0 1 10.43,0 v 0 a 6,6 0 0 1 2.43,4.71 2.06,2.06 0 1 1 -4.12,0 1.93,1.93 0 0 0 -0.85,-1.47 v 0 a 4.75,4.75 0 0 0 -5.37,0 v 0 a 1.81,1.81 0 0 0 -0.83,1.68 2.58,2.58 0 0 0 1.84,1.81 l 4.8,1.82 a 6.59,6.59 0 0 1 4.46,5 5.9,5.9 0 0 1 -2.36,5.55 v 0 a 8.8,8.8 0 0 1 -10.45,0 v 0 a 6,6 0 0 1 -2.43,-4.71 2.06,2.06 0 0 1 4.12,0 1.93,1.93 0 0 0 0.85,1.47 4.75,4.75 0 0 0 5.37,0 v 0 a 1.81,1.81 0 0 0 0.85,-1.68 z"
     id="path176"
     style="fill:#ffffff" />
  <path
     class="cls-1"
     d="m 554.76,144.74 a 2.06,2.06 0 0 1 -2.06,2.06 h -16.05 a 7.07,7.07 0 0 0 1.79,3 7.15,7.15 0 0 0 10.11,0 2.06,2.06 0 0 1 2.91,2.91 11.27,11.27 0 0 1 -19.23,-7.8 c 0,-0.06 0,-0.11 0,-0.16 0,-0.05 0,-0.11 0,-0.17 a 11.27,11.27 0 0 1 22.53,0.17 z m -4.42,-2.06 a 7.15,7.15 0 0 0 -13.69,0 z"
     id="path178"
     style="fill:#ffffff" />
  <path
     class="cls-1"
     d="m 581.4,135.53 v 20.39 a 11.27,11.27 0 0 1 -19.24,8 2.0612193,2.0612193 0 0 1 2.92,-2.91 7.15,7.15 0 0 0 12.2,-5.05 v -2.48 a 11.27,11.27 0 1 1 0,-17.41 v -0.5 a 2.06,2.06 0 1 1 4.12,0 z m -4.12,9.21 a 7.15,7.15 0 1 0 -7.15,7.14 7.15,7.15 0 0 0 7.15,-7.14 z"
     id="path180"
     style="fill:#ffffff" />
  <path
     class="cls-1"
     d="m 622.73,143.38 v 10.56 a 2.06,2.06 0 0 1 -4.12,0 v -10.56 a 5.8,5.8 0 0 0 -11.59,0 v 10.56 a 2.06,2.06 0 1 1 -4.12,0 v -10.56 a 5.8,5.8 0 0 0 -11.6,0 v 10.56 a 2.06,2.06 0 1 1 -4.12,0 v -18.41 a 2.06,2.06 0 0 1 4.11,-0.16 9.86,9.86 0 0 1 13.67,2 9.9,9.9 0 0 1 17.77,6 z"
     id="path182"
     style="fill:#ffffff" />
  <path
     class="cls-1"
     d="m 649.41,144.74 a 2.06,2.06 0 0 1 -2.06,2.06 H 631.3 a 7.15,7.15 0 0 0 11.9,3 2.06,2.06 0 0 1 2.91,2.91 11.26,11.26 0 0 1 -19.22,-7.8 0.92,0.92 0 0 1 0,-0.16 1,1 0 0 1 0,-0.17 11.260321,11.260321 0 0 1 22.52,0.17 z M 645,142.68 a 7.15,7.15 0 0 0 -13.7,0 z"
     id="path184"
     style="fill:#ffffff" />
  <path
     class="cls-1"
     d="m 673.83,143.38 v 10.56 a 2.06,2.06 0 0 1 -4.12,0 v -10.56 a 5.8,5.8 0 0 0 -11.59,0 v 10.56 a 2.06,2.06 0 0 1 -4.12,0 v -18.41 a 2.0515604,2.0515604 0 0 1 4.1,-0.16 9.9,9.9 0 0 1 15.73,8 z"
     id="path186"
     style="fill:#ffffff" />
  <path
     class="cls-1"
     d="M 689.64,154.24 A 6,6 0 0 1 679.35,150 v -12.55 a 2,2 0 0 1 0,-3.85 v -5.78 a 2.06,2.06 0 0 1 4.12,0 v 5.65 h 1.32 a 2.06,2.06 0 1 1 0,4.12 h -1.32 V 150 a 1.91,1.91 0 0 0 1.91,1.91 1.86,1.86 0 0 0 1.35,-0.56 2.0612193,2.0612193 0 0 1 2.91,2.92 z"
     id="path188"
     style="fill:#ffffff" />
  <path
     class="cls-1"
     d="m 725.46,129.61 v 0 a 2.06,2.06 0 1 1 -2.05,-2.06 2.05,2.05 0 0 1 2.05,2.06 z m 0,5.92 v 18.41 a 2.06,2.06 0 1 1 -4.11,0 v -18.41 a 2.06,2.06 0 1 1 4.11,0 z"
     id="path190"
     style="fill:#ffffff" />
  <path
     class="cls-1"
     d="m 751.11,143.38 v 10.56 a 2.06,2.06 0 1 1 -4.11,0 v -10.56 a 5.8,5.8 0 0 0 -11.6,0 v 10.56 a 2.06,2.06 0 1 1 -4.12,0 v -18.41 a 2.0515604,2.0515604 0 0 1 4.1,-0.16 9.9,9.9 0 0 1 15.73,8 z"
     id="path192"
     style="fill:#ffffff" />
  <path
     class="cls-1"
     d="m 801.48,152.7 a 11.26,11.26 0 1 1 0,-15.93 2.0612193,2.0612193 0 1 1 -2.92,2.91 7.15,7.15 0 0 0 -10.1,0 7.15,7.15 0 1 0 10.1,10.11 2.08,2.08 0 0 1 2.92,0 2.06,2.06 0 0 1 0,2.91 z"
     id="path194"
     style="fill:#ffffff" />
  <path
     class="cls-1"
     d="m 828.74,144.74 a 2.06,2.06 0 0 1 -2.06,2.06 h -16 a 7.15,7.15 0 0 0 11.9,3 2.06,2.06 0 0 1 2.91,2.91 11.26,11.26 0 0 1 -19.22,-7.8 0.92,0.92 0 0 1 0,-0.16 1,1 0 0 1 0,-0.17 11.260321,11.260321 0 0 1 22.52,0.17 z m -4.41,-2.06 a 7.15,7.15 0 0 0 -13.7,0 z"
     id="path196"
     style="fill:#ffffff" />
  <path
     class="cls-1"
     d="m 853.16,143.38 v 10.56 a 2.06,2.06 0 1 1 -4.12,0 v -10.56 a 5.8,5.8 0 0 0 -11.59,0 v 10.56 a 2.06,2.06 0 0 1 -4.12,0 v -18.41 a 2.0515604,2.0515604 0 0 1 4.1,-0.16 9.9,9.9 0 0 1 15.73,8 z"
     id="path198"
     style="fill:#ffffff" />
  <path
     class="cls-1"
     d="M 869,154.24 A 6,6 0 0 1 858.68,150 v -12.55 a 2,2 0 0 1 0,-3.85 v -5.78 a 2.06,2.06 0 1 1 4.12,0 v 5.65 h 1.33 a 2.06,2.06 0 1 1 0,4.12 H 862.8 V 150 a 1.91,1.91 0 0 0 1.91,1.91 1.86,1.86 0 0 0 1.35,-0.56 2.0612193,2.0612193 0 0 1 2.91,2.92 z"
     id="path200"
     style="fill:#ffffff" />
  <path
     class="cls-1"
     d="m 887.35,135.53 a 2.05,2.05 0 0 1 -2.05,2.06 5.8,5.8 0 0 0 -5.8,5.79 v 10.56 a 2.06,2.06 0 1 1 -4.12,0 v -18.41 a 2.0515604,2.0515604 0 0 1 4.1,-0.16 9.86,9.86 0 0 1 5.82,-1.9 2.05,2.05 0 0 1 2.05,2.06 z"
     id="path202"
     style="fill:#ffffff" />
  <path
     class="cls-1"
     d="m 911.11,144.74 v 0 9.19 a 2.06,2.06 0 0 1 -4.12,0 v -0.5 A 11.27,11.27 0 1 1 907,136 v -0.5 a 2.06,2.06 0 0 1 4.12,0 v 9.21 z m -4.12,0 a 7.15,7.15 0 1 0 -7.14,7.16 7.15,7.15 0 0 0 7.14,-7.16 z"
     id="path204"
     style="fill:#ffffff" />
  <path
     class="cls-1"
     d="m 921,124.39 v 29.55 a 2.06,2.06 0 1 1 -4.12,0 v -29.55 a 2.06,2.06 0 1 1 4.12,0 z"
     id="path206"
     style="fill:#ffffff" />
  <path
     class="cls-1"
     d="m 25.41,202.34 v 0 9.19 a 2.06,2.06 0 1 1 -4.12,0 V 211 a 11.27,11.27 0 1 1 0,-17.41 v -0.5 a 2.06,2.06 0 0 1 4.12,0 v 9.21 z m -4.12,0 a 7.15,7.15 0 1 0 -7.14,7.16 7.15,7.15 0 0 0 7.14,-7.16 z"
     id="path208"
     style="fill:#ffffff" />
  <path
     class="cls-1"
     d="m 51,201 v 10.56 a 2.06,2.06 0 0 1 -4.12,0 V 201 a 5.8,5.8 0 0 0 -11.59,0 v 10.56 a 2.06,2.06 0 0 1 -4.12,0 v -18.43 a 2.0515604,2.0515604 0 0 1 4.1,-0.16 A 9.9,9.9 0 0 1 51,201 Z"
     id="path210"
     style="fill:#ffffff" />
  <path
     class="cls-1"
     d="m 77.73,202.34 v 0 9.19 a 2.06,2.06 0 0 1 -4.12,0 V 211 a 11.27,11.27 0 1 1 0,-17.41 V 182 a 2.06,2.06 0 0 1 4.12,0 v 20.35 z m -4.12,0 a 7.15,7.15 0 1 0 -7.14,7.16 7.15,7.15 0 0 0 7.14,-7.16 z"
     id="path212"
     style="fill:#ffffff" />
  <path
     class="cls-1"
     d="m 138.5,193.94 -7.86,18.41 a 2.06,2.06 0 0 1 -3.79,0 l -6,-14 -6,14 a 2.06,2.06 0 0 1 -3.79,0 l -7.86,-18.41 a 2.0608554,2.0608554 0 0 1 3.79,-1.62 l 6,14 6,-14 0.06,-0.12 0.12,-0.21 0.12,-0.16 0.14,-0.15 a 1.07,1.07 0 0 1 0.16,-0.14 l 0.15,-0.12 0.21,-0.12 0.12,-0.06 v 0 l 0.26,-0.08 h 0.13 0.22 0.18 0.14 a 1.9,1.9 0 0 1 0.25,0 h 0.12 a 1.38,1.38 0 0 1 0.27,0.08 v 0 a 0.6,0.6 0 0 1 0.11,0.06 1.67,1.67 0 0 1 0.23,0.12 l 0.14,0.11 0.17,0.15 0.13,0.15 0.12,0.15 0.12,0.22 0.07,0.12 6,14 6,-14 a 2.0608554,2.0608554 0 1 1 3.79,1.62 z"
     id="path214"
     style="fill:#ffffff" />
  <path
     class="cls-1"
     d="m 163.67,202.34 a 2.07,2.07 0 0 1 -2.06,2.06 h -16.05 a 7,7 0 0 0 1.79,3 7.14,7.14 0 0 0 10.1,0 2.0612193,2.0612193 0 0 1 2.92,2.91 11.26,11.26 0 0 1 -19.23,-7.8 c 0,-0.06 0,-0.11 0,-0.16 0,-0.05 0,-0.11 0,-0.17 a 11.27,11.27 0 0 1 22.53,0.17 z m -4.42,-2.06 a 7.16,7.16 0 0 0 -11.9,-3 7,7 0 0 0 -1.79,3 z"
     id="path216"
     style="fill:#ffffff" />
  <path
     class="cls-1"
     d="m 178.94,207 a 2.58,2.58 0 0 0 -1.84,-1.81 l -4.79,-1.82 a 6.59,6.59 0 0 1 -4.47,-5 5.9,5.9 0 0 1 2.36,-5.55 v 0 a 8.81,8.81 0 0 1 10.43,0 v 0 a 6,6 0 0 1 2.43,4.71 2.06,2.06 0 0 1 -4.12,0 1.93,1.93 0 0 0 -0.85,-1.47 v 0 a 4.75,4.75 0 0 0 -5.37,0 v 0 a 1.81,1.81 0 0 0 -0.83,1.68 2.6,2.6 0 0 0 1.84,1.81 l 4.8,1.82 a 6.58,6.58 0 0 1 4.46,5 5.9,5.9 0 0 1 -2.36,5.55 v 0 a 8.8,8.8 0 0 1 -10.45,0 v 0 a 6,6 0 0 1 -2.43,-4.71 2.06,2.06 0 1 1 4.12,0 1.93,1.93 0 0 0 0.85,1.47 4.75,4.75 0 0 0 5.37,0 v 0 a 1.79,1.79 0 0 0 0.85,-1.68 z"
     id="path218"
     style="fill:#ffffff" />
  <path
     class="cls-1"
     d="m 200.48,211.84 a 6,6 0 0 1 -4.26,1.76 6,6 0 0 1 -6,-6 v -12.55 a 2.05,2.05 0 0 1 0,-3.85 v -5.78 a 2.06,2.06 0 0 1 4.12,0 v 5.65 h 1.33 a 2.06,2.06 0 0 1 0,4.12 h -1.33 v 12.38 a 1.91,1.91 0 0 0 3.26,1.35 2.0612193,2.0612193 0 0 1 2.91,2.92 z"
     id="path220"
     style="fill:#ffffff" />
  <path
     class="cls-1"
     d="m 225.11,202.34 a 2.07,2.07 0 0 1 -2.06,2.06 H 207 a 7,7 0 0 0 1.79,3 7.14,7.14 0 0 0 10.1,0 2.0612193,2.0612193 0 0 1 2.92,2.91 11.26,11.26 0 0 1 -19.23,-7.8 c 0,-0.06 0,-0.11 0,-0.16 0,-0.05 0,-0.11 0,-0.17 a 11.27,11.27 0 0 1 22.53,0.17 z m -4.42,-2.06 a 7.16,7.16 0 0 0 -11.9,-3 7,7 0 0 0 -1.79,3 z"
     id="path222"
     style="fill:#ffffff" />
  <path
     class="cls-1"
     d="m 241.67,193.13 a 2.06,2.06 0 0 1 -2.06,2.06 5.8,5.8 0 0 0 -5.8,5.79 v 10.56 a 2.06,2.06 0 0 1 -4.12,0 v -18.41 a 2.06,2.06 0 0 1 4.11,-0.16 9.83,9.83 0 0 1 5.81,-1.9 2.06,2.06 0 0 1 2.06,2.06 z"
     id="path224"
     style="fill:#ffffff" />
  <path
     class="cls-1"
     d="m 267.29,201 v 10.56 a 2.06,2.06 0 1 1 -4.12,0 V 201 a 5.8,5.8 0 0 0 -11.6,0 v 10.56 a 2.06,2.06 0 0 1 -4.12,0 v -18.43 a 2.06,2.06 0 0 1 4.11,-0.16 9.83,9.83 0 0 1 5.81,-1.9 9.93,9.93 0 0 1 9.92,9.93 z"
     id="path226"
     style="fill:#ffffff" />
  <path
     class="cls-1"
     d="M 315.26,202.33 A 11.26,11.26 0 0 1 296.85,211 v 11.64 a 2.06,2.06 0 0 1 -4.12,0 v -20.31 0 -9.19 a 2.06,2.06 0 0 1 4.12,0 v 0.5 a 11.26,11.26 0 0 1 18.41,8.7 z m -4.12,0 a 7.15,7.15 0 0 0 -14.29,0 v 0 a 7.15,7.15 0 0 0 14.29,0 z"
     id="path228"
     style="fill:#ffffff" />
  <path
     class="cls-1"
     d="m 341.9,202.34 v 0 9.19 a 2.06,2.06 0 0 1 -4.12,0 V 211 a 11.27,11.27 0 1 1 0,-17.41 v -0.5 a 2.06,2.06 0 0 1 4.12,0 v 9.21 z m -4.12,0 a 7.15,7.15 0 1 0 -7.14,7.16 7.15,7.15 0 0 0 7.14,-7.16 z"
     id="path230"
     style="fill:#ffffff" />
  <path
     class="cls-1"
     d="m 359.67,193.13 a 2.06,2.06 0 0 1 -2.06,2.06 5.8,5.8 0 0 0 -5.8,5.79 v 10.56 a 2.06,2.06 0 0 1 -4.12,0 v -18.41 a 2.0515604,2.0515604 0 0 1 4.1,-0.16 9.86,9.86 0 0 1 5.82,-1.9 2.06,2.06 0 0 1 2.06,2.06 z"
     id="path232"
     style="fill:#ffffff" />
  <path
     class="cls-1"
     d="m 377.09,211.84 a 6,6 0 0 1 -10.29,-4.27 v -12.52 a 2,2 0 0 1 0,-3.85 v -5.78 a 2.06,2.06 0 0 1 4.12,0 v 5.65 h 1.32 a 2.06,2.06 0 0 1 0,4.12 h -1.32 v 12.38 a 1.91,1.91 0 0 0 3.26,1.35 2.0612193,2.0612193 0 0 1 2.91,2.92 z"
     id="path234"
     style="fill:#ffffff" />
  <path
     class="cls-1"
     d="m 385.5,212.52 -1.63,2.75 a 2.05,2.05 0 0 1 -1.77,1 2,2 0 0 1 -1.05,-0.29 2.06,2.06 0 0 1 -0.72,-2.82 l 1.63,-2.75 a 2.08,2.08 0 0 1 2.83,-0.71 2,2 0 0 1 0.71,2.82 z"
     id="path236"
     style="fill:#ffffff" />
  <path
     class="cls-1"
     d="m 419.39,211.84 a 6,6 0 0 1 -10.29,-4.27 v -12.52 a 2,2 0 0 1 0,-3.85 v -5.78 a 2.06,2.06 0 0 1 4.12,0 v 5.65 h 1.32 a 2.06,2.06 0 1 1 0,4.12 h -1.32 v 12.38 a 1.91,1.91 0 0 0 3.26,1.35 2.0612193,2.0612193 0 0 1 2.91,2.92 z"
     id="path238"
     style="fill:#ffffff" />
  <path
     class="cls-1"
     d="M 444,202.33 A 11.27,11.27 0 1 1 432.73,191.07 11.28,11.28 0 0 1 444,202.33 Z m -4.12,0 a 7.15,7.15 0 1 0 -7.15,7.14 7.15,7.15 0 0 0 7.16,-7.13 z"
     id="path240"
     style="fill:#ffffff" />
  <path
     class="cls-1"
     d="m 491.92,202.34 v 0 9.19 a 2.06,2.06 0 1 1 -4.11,0 V 211 a 11.27,11.27 0 1 1 0,-17.41 v -0.5 a 2.06,2.06 0 1 1 4.11,0 v 9.21 z m -4.11,0 a 7.15,7.15 0 1 0 -7.15,7.16 7.16,7.16 0 0 0 7.15,-7.16 z"
     id="path242"
     style="fill:#ffffff" />
  <path
     class="cls-1"
     d="m 501.83,182 v 29.55 a 2.06,2.06 0 0 1 -4.12,0 V 182 a 2.06,2.06 0 0 1 4.12,0 z"
     id="path244"
     style="fill:#ffffff" />
  <path
     class="cls-1"
     d="m 543.2,201 v 10.56 a 2.06,2.06 0 0 1 -4.12,0 V 201 a 5.8,5.8 0 0 0 -11.6,0 v 10.56 a 2.06,2.06 0 0 1 -4.12,0 V 201 a 5.8,5.8 0 0 0 -11.59,0 v 10.56 a 2.06,2.06 0 0 1 -4.12,0 v -18.43 a 2.0515604,2.0515604 0 0 1 4.1,-0.16 9.86,9.86 0 0 1 13.67,2 9.91,9.91 0 0 1 17.78,6 z"
     id="path246"
     style="fill:#ffffff" />
  <path
     class="cls-1"
     d="m 569.88,202.33 a 11.27,11.27 0 1 1 -11.27,-11.26 11.28,11.28 0 0 1 11.27,11.26 z m -4.12,0 a 7.15,7.15 0 1 0 -7.15,7.14 7.15,7.15 0 0 0 7.15,-7.13 z"
     id="path248"
     style="fill:#ffffff" />
  <path
     class="cls-1"
     d="m 585.15,207 a 2.58,2.58 0 0 0 -1.84,-1.81 l -4.79,-1.82 a 6.59,6.59 0 0 1 -4.47,-5 5.89,5.89 0 0 1 2.37,-5.55 v 0 a 8.82,8.82 0 0 1 10.44,0 v 0 a 6,6 0 0 1 2.43,4.71 2.06,2.06 0 1 1 -4.12,0 1.93,1.93 0 0 0 -0.85,-1.47 v 0 a 4.75,4.75 0 0 0 -5.37,0 v 0 a 1.81,1.81 0 0 0 -0.83,1.68 2.62,2.62 0 0 0 1.88,1.76 l 4.8,1.82 a 6.58,6.58 0 0 1 4.46,5 5.88,5.88 0 0 1 -2.36,5.55 v 0 a 8.78,8.78 0 0 1 -10.44,0 v 0 a 6,6 0 0 1 -2.43,-4.71 2.06,2.06 0 0 1 4.12,0 1.93,1.93 0 0 0 0.85,1.47 4.75,4.75 0 0 0 5.37,0 v 0 a 1.78,1.78 0 0 0 0.78,-1.63 z"
     id="path250"
     style="fill:#ffffff" />
  <path
     class="cls-1"
     d="m 606.7,211.84 a 6,6 0 0 1 -10.3,-4.27 v -12.52 a 2.05,2.05 0 0 1 0,-3.85 v -5.78 a 2.06,2.06 0 0 1 4.12,0 v 5.65 h 1.33 a 2.06,2.06 0 0 1 0,4.12 h -1.33 v 12.38 a 1.91,1.91 0 0 0 3.26,1.35 2.0647518,2.0647518 0 0 1 2.92,2.92 z"
     id="path252"
     style="fill:#ffffff" />
  <path
     class="cls-1"
     d="m 651,204.1 a 5.31,5.31 0 0 0 -5.31,-5.31 2.06,2.06 0 1 1 0,-4.12 5.31,5.31 0 1 0 0,-10.62 H 641 a 5.31,5.31 0 0 0 -5.31,5.31 2.06,2.06 0 1 1 -4.12,0 9.44,9.44 0 0 1 9.43,-9.43 h 4.64 a 9.42,9.42 0 0 1 5.86,16.8 9.42,9.42 0 0 1 -5.86,16.8 H 641 a 9.44,9.44 0 0 1 -9.43,-9.43 2.06,2.06 0 0 1 4.12,0 5.31,5.31 0 0 0 5.31,5.31 h 4.64 A 5.31,5.31 0 0 0 651,204.1 Z"
     id="path254"
     style="fill:#ffffff" />
  <path
     class="cls-1"
     d="m 674.94,179.93 a 16.8,16.8 0 1 1 -16.8,16.8 16.81,16.81 0 0 1 16.8,-16.8 z m 0,4.12 a 12.68,12.68 0 1 0 12.69,12.68 12.69,12.69 0 0 0 -12.69,-12.68 z"
     id="path256"
     style="fill:#ffffff" />
  <path
     class="cls-1"
     d="m 712.24,179.93 a 16.8,16.8 0 1 1 -16.8,16.8 16.82,16.82 0 0 1 16.8,-16.8 z m 0,4.12 a 12.68,12.68 0 1 0 12.68,12.68 12.69,12.69 0 0 0 -12.68,-12.68 z"
     id="path258"
     style="fill:#ffffff" />
  <path
     class="cls-1"
     d="m 772.72,210.21 a 2.06,2.06 0 0 1 -3.13,2.67 l -8.3,-9.73 -3.79,2.85 v 5.53 a 2.06,2.06 0 1 1 -4.12,0 V 182 a 2.06,2.06 0 1 1 4.12,0 v 18.86 l 12.42,-9.37 a 2.0600061,2.0600061 0 0 1 2.48,3.29 l -7.82,5.9 z"
     id="path260"
     style="fill:#ffffff" />
  <path
     class="cls-1"
     d="m 814.61,201 v 10.56 a 2.06,2.06 0 0 1 -4.12,0 V 201 a 5.8,5.8 0 0 0 -11.59,0 v 10.56 a 2.06,2.06 0 1 1 -4.12,0 V 201 a 5.8,5.8 0 0 0 -11.6,0 v 10.56 a 2.06,2.06 0 1 1 -4.12,0 v -18.43 a 2.06,2.06 0 0 1 4.11,-0.16 9.86,9.86 0 0 1 13.67,2 9.9,9.9 0 0 1 17.77,6 z"
     id="path262"
     style="fill:#ffffff" />
  <path
     class="cls-1"
     d="m 862.57,202.33 a 11.27,11.27 0 1 1 -11.27,-11.26 11.28,11.28 0 0 1 11.27,11.26 z m -4.12,0 a 7.15,7.15 0 1 0 -7.15,7.14 7.15,7.15 0 0 0 7.15,-7.13 z"
     id="path264"
     style="fill:#ffffff" />
  <path
     class="cls-1"
     d="m 881.77,185.12 a 2.07,2.07 0 0 1 -2.92,0 3.74,3.74 0 0 0 -2.68,-1.11 3.8,3.8 0 0 0 -3.8,3.79 v 3.27 h 3.41 a 2.06,2.06 0 1 1 0,4.12 h -3.41 v 16.35 a 2.06,2.06 0 0 1 -4.12,0 v -16.42 a 2.05,2.05 0 0 1 0,-4 v -3.32 a 7.92,7.92 0 0 1 13.52,-5.59 2.06,2.06 0 0 1 0,2.91 z"
     id="path266"
     style="fill:#ffffff" />
  <path
     class="cls-1"
     d="m 921.05,202.34 v 0 9.19 a 2.06,2.06 0 1 1 -4.11,0 V 211 a 11.27,11.27 0 1 1 0,-17.41 v -0.5 a 2.06,2.06 0 1 1 4.12,0 v 9.21 z m -4.12,0 a 7.15,7.15 0 1 0 -7.15,7.16 7.16,7.16 0 0 0 7.15,-7.16 z"
     id="path268"
     style="fill:#ffffff" />
  <path
     class="cls-1"
     d="m 22.71,258.58 v 10.56 a 2.06,2.06 0 0 1 -4.12,0 v -10.56 a 5.8,5.8 0 0 0 -11.59,0 v 10.56 a 2.06,2.06 0 0 1 -4.12,0 v -18.41 a 2.0515604,2.0515604 0 0 1 4.1,-0.16 9.9,9.9 0 0 1 15.73,8 z"
     id="path270"
     style="fill:#ffffff" />
  <path
     class="cls-1"
     d="m 49.41,259.94 v 0 9.19 a 2.06,2.06 0 1 1 -4.12,0 v -0.5 a 11.27,11.27 0 1 1 0,-17.41 v -0.5 a 2.06,2.06 0 1 1 4.12,0 v 9.21 z m -4.12,0 a 7.15,7.15 0 1 0 -7.14,7.16 7.15,7.15 0 0 0 7.14,-7.16 z"
     id="path272"
     style="fill:#ffffff" />
  <path
     class="cls-1"
     d="m 67.18,250.73 a 2.06,2.06 0 0 1 -2.06,2.06 5.8,5.8 0 0 0 -5.8,5.79 v 10.56 a 2.06,2.06 0 0 1 -4.12,0 v -18.41 a 2.0515604,2.0515604 0 0 1 4.1,-0.16 9.86,9.86 0 0 1 5.82,-1.9 2.06,2.06 0 0 1 2.06,2.06 z"
     id="path274"
     style="fill:#ffffff" />
  <path
     class="cls-1"
     d="m 84.94,250.73 a 2.06,2.06 0 0 1 -2.06,2.06 5.8,5.8 0 0 0 -5.8,5.79 v 10.56 a 2.06,2.06 0 0 1 -4.12,0 v -18.41 a 2.0515604,2.0515604 0 0 1 4.1,-0.16 9.86,9.86 0 0 1 5.82,-1.9 2.06,2.06 0 0 1 2.06,2.06 z"
     id="path276"
     style="fill:#ffffff" />
  <path
     class="cls-1"
     d="m 108.69,259.94 a 11.27,11.27 0 1 1 -11.26,-11.27 11.27,11.27 0 0 1 11.26,11.27 z m -4.12,0 a 7.15,7.15 0 1 0 -7.14,7.14 7.15,7.15 0 0 0 7.14,-7.14 z"
     id="path278"
     style="fill:#ffffff" />
  <path
     class="cls-1"
     d="M 146.5,251.54 138.65,270 a 2.06,2.06 0 0 1 -3.79,0 l -6,-14 -6,14 a 2.06,2.06 0 0 1 -3.79,0 l -7.85,-18.41 a 2.0608554,2.0608554 0 0 1 3.79,-1.62 l 6,14 6,-14 0.07,-0.12 a 1.43,1.43 0 0 1 0.12,-0.21 1,1 0 0 1 0.12,-0.16 l 0.13,-0.15 0.16,-0.14 0.15,-0.12 0.21,-0.12 a 0.75,0.75 0 0 1 0.13,-0.06 v 0 l 0.25,-0.08 h 0.14 0.22 0.18 0.15 a 2,2 0 0 1 0.24,0 h 0.13 a 1.12,1.12 0 0 1 0.26,0.08 v 0 a 0.39,0.39 0 0 1 0.11,0.06 1.67,1.67 0 0 1 0.23,0.12 l 0.14,0.11 a 1.22,1.22 0 0 1 0.17,0.15 0.93,0.93 0 0 1 0.13,0.15 1.58,1.58 0 0 1 0.12,0.15 1.55,1.55 0 0 1 0.12,0.22 l 0.07,0.12 6,14 6,-14 a 2.0608554,2.0608554 0 1 1 3.79,1.62 z"
     id="path280"
     style="fill:#ffffff" />
  <path
     class="cls-1"
     d="m 207,267.9 a 11.26,11.26 0 1 1 0,-15.9 2.0612193,2.0612193 0 0 1 -2.92,2.91 7.15,7.15 0 1 0 0,10.11 2.08,2.08 0 0 1 2.92,0 2.06,2.06 0 0 1 0,2.88 z"
     id="path282"
     style="fill:#ffffff" />
  <path
     class="cls-1"
     d="M 234.25,259.94 A 11.27,11.27 0 1 1 223,248.67 a 11.27,11.27 0 0 1 11.25,11.27 z m -4.12,0 a 7.15,7.15 0 1 0 -7.14,7.14 7.15,7.15 0 0 0 7.14,-7.14 z"
     id="path284"
     style="fill:#ffffff" />
  <path
     class="cls-1"
     d="m 260.89,259.94 v 0 9.19 a 2.06,2.06 0 0 1 -4.12,0 v -0.5 a 11.27,11.27 0 1 1 0,-17.41 v -0.5 a 2.06,2.06 0 0 1 4.12,0 v 9.21 z m -4.12,0 a 7.15,7.15 0 1 0 -7.14,7.16 7.15,7.15 0 0 0 7.14,-7.16 z"
     id="path286"
     style="fill:#ffffff" />
  <path
     class="cls-1"
     d="m 277.85,264.58 a 2.62,2.62 0 0 0 -1.84,-1.81 l -4.8,-1.82 a 6.58,6.58 0 0 1 -4.46,-5 5.88,5.88 0 0 1 2.36,-5.55 v 0 a 8.81,8.81 0 0 1 10.43,0 v 0 a 6,6 0 0 1 2.43,4.71 2.06,2.06 0 1 1 -4.12,0 1.93,1.93 0 0 0 -0.85,-1.47 v 0 a 4.75,4.75 0 0 0 -5.37,0 v 0 a 1.81,1.81 0 0 0 -0.83,1.68 2.58,2.58 0 0 0 1.84,1.81 l 4.79,1.82 a 6.59,6.59 0 0 1 4.47,5 5.9,5.9 0 0 1 -2.36,5.55 v 0 a 8.8,8.8 0 0 1 -10.45,0 v 0 a 6,6 0 0 1 -2.43,-4.71 2.06,2.06 0 1 1 4.12,0 1.93,1.93 0 0 0 0.85,1.47 4.75,4.75 0 0 0 5.37,0 v 0 a 1.79,1.79 0 0 0 0.85,-1.68 z"
     id="path288"
     style="fill:#ffffff" />
  <path
     class="cls-1"
     d="m 299.39,269.44 a 6,6 0 0 1 -10.29,-4.27 v -12.52 a 2,2 0 0 1 0,-3.85 V 243 a 2.06,2.06 0 0 1 4.12,0 v 5.65 h 1.33 a 2.06,2.06 0 0 1 0,4.12 h -1.33 v 12.38 a 1.91,1.91 0 0 0 3.26,1.35 2.0612193,2.0612193 0 0 1 2.91,2.92 z"
     id="path290"
     style="fill:#ffffff" />
  <path
     class="cls-1"
     d="m 324,259.94 v 0 9.19 a 2.06,2.06 0 0 1 -4.12,0 v -0.5 a 11.27,11.27 0 1 1 0,-17.41 v -0.5 a 2.06,2.06 0 0 1 4.12,0 v 9.21 z m -4.12,0 a 7.15,7.15 0 1 0 -7.14,7.16 7.15,7.15 0 0 0 7.14,-7.16 z"
     id="path292"
     style="fill:#ffffff" />
  <path
     class="cls-1"
     d="m 333.92,239.59 v 29.55 a 2.06,2.06 0 0 1 -4.12,0 v -29.55 a 2.06,2.06 0 0 1 4.12,0 z"
     id="path294"
     style="fill:#ffffff" />
  <path
     class="cls-1"
     d="m 397.54,259.94 a 11.26,11.26 0 0 1 -18.41,8.7 v 11.64 a 2.06,2.06 0 0 1 -4.12,0 V 260 v 0 -9.21 a 2.06,2.06 0 0 1 4.12,0 v 0.5 a 11.26,11.26 0 0 1 18.41,8.71 z m -4.12,0 a 7.15,7.15 0 0 0 -14.29,0 v 0 a 7.15,7.15 0 0 0 14.29,0 z"
     id="path296"
     style="fill:#ffffff" />
  <path
     class="cls-1"
     d="m 407.45,239.59 v 29.55 a 2.06,2.06 0 0 1 -4.12,0 v -29.55 a 2.06,2.06 0 0 1 4.12,0 z"
     id="path298"
     style="fill:#ffffff" />
  <path
     class="cls-1"
     d="m 435.32,259.94 v 0 9.19 a 2.06,2.06 0 1 1 -4.11,0 v -0.5 a 11.27,11.27 0 1 1 0,-17.41 v -0.5 a 2.06,2.06 0 0 1 4.12,0 v 9.21 z m -4.12,0 a 7.15,7.15 0 1 0 -7.15,7.16 7.16,7.16 0 0 0 7.15,-7.16 z"
     id="path300"
     style="fill:#ffffff" />
  <path
     class="cls-1"
     d="m 445.22,244.81 v 0 a 2.06,2.06 0 1 1 -2.06,-2.06 2.06,2.06 0 0 1 2.06,2.06 z m 0,5.92 v 18.41 a 2.06,2.06 0 0 1 -4.12,0 v -18.41 a 2.06,2.06 0 0 1 4.12,0 z"
     id="path302"
     style="fill:#ffffff" />
  <path
     class="cls-1"
     d="m 470.87,258.58 v 10.56 a 2.06,2.06 0 0 1 -4.12,0 v -10.56 a 5.8,5.8 0 0 0 -11.59,0 v 10.56 a 2.06,2.06 0 0 1 -4.12,0 v -18.41 a 2.0515604,2.0515604 0 0 1 4.1,-0.16 9.9,9.9 0 0 1 15.73,8 z"
     id="path304"
     style="fill:#ffffff" />
  <path
     class="cls-1"
     d="m 473.17,268.9 a 2.23,2.23 0 1 1 2.22,2.23 2.22,2.22 0 0 1 -2.22,-2.23 z"
     id="path306"
     style="fill:#ffffff" />
  <path
     class="cls-1"
     d="m 529.82,237.5 h 12.59 a 2.06,2.06 0 1 1 0,4.12 h -10.54 v 27.48 a 2.06,2.06 0 0 1 -4.12,0 v -27.48 h -10.53 a 2.06,2.06 0 0 1 0,-4.12 z"
     id="path308"
     style="fill:#ffffff" />
  <path
     class="cls-1"
     d="m 570.13,258.58 v 10.56 a 2.06,2.06 0 1 1 -4.12,0 v -10.56 a 5.8,5.8 0 0 0 -11.6,0 v 10.56 a 2.06,2.06 0 1 1 -4.12,0 v -29.55 a 2.06,2.06 0 1 1 4.12,0 v 11 a 9.79,9.79 0 0 1 5.8,-1.89 9.93,9.93 0 0 1 9.92,9.88 z"
     id="path310"
     style="fill:#ffffff" />
  <path
     class="cls-1"
     d="m 596.83,259.94 a 2.07,2.07 0 0 1 -2.06,2.06 h -16 a 7,7 0 0 0 1.79,3 7.14,7.14 0 0 0 10.1,0 2.0612193,2.0612193 0 0 1 2.92,2.91 11.26,11.26 0 0 1 -19.23,-7.8 0.92,0.92 0 0 1 0,-0.16 c 0,-0.06 0,-0.11 0,-0.17 a 11.27,11.27 0 0 1 22.53,0.17 z m -4.42,-2.06 a 7.16,7.16 0 0 0 -11.9,-3 7,7 0 0 0 -1.79,3 z"
     id="path312"
     style="fill:#ffffff" />
  <path
     class="cls-1"
     d="m 657.11,267.9 a 11.27,11.27 0 1 1 0,-15.93 2.06,2.06 0 0 1 -2.91,2.91 7.15,7.15 0 1 0 0,10.11 2.06,2.06 0 0 1 2.91,2.91 z"
     id="path314"
     style="fill:#ffffff" />
  <path
     class="cls-1"
     d="m 684.37,259.94 a 11.27,11.27 0 1 1 -11.27,-11.27 11.27,11.27 0 0 1 11.27,11.27 z m -4.12,0 a 7.15,7.15 0 1 0 -7.15,7.14 7.16,7.16 0 0 0 7.15,-7.14 z"
     id="path316"
     style="fill:#ffffff" />
  <path
     class="cls-1"
     d="m 711,259.94 v 0 9.19 a 2.06,2.06 0 1 1 -4.12,0 v -0.5 a 11.27,11.27 0 1 1 0,-17.41 v -0.5 a 2.06,2.06 0 1 1 4.12,0 v 9.21 z m -4.12,0 a 7.15,7.15 0 1 0 -7.15,7.16 7.16,7.16 0 0 0 7.15,-7.16 z"
     id="path318"
     style="fill:#ffffff" />
  <path
     class="cls-1"
     d="m 728,264.58 a 2.62,2.62 0 0 0 -1.84,-1.81 l -4.8,-1.82 a 6.59,6.59 0 0 1 -4.47,-5 5.89,5.89 0 0 1 2.37,-5.55 v 0 a 8.82,8.82 0 0 1 10.44,0 v 0 a 6,6 0 0 1 2.43,4.71 2.06,2.06 0 1 1 -4.12,0 2,2 0 0 0 -0.84,-1.47 v 0 a 4.76,4.76 0 0 0 -5.38,0 v 0 a 1.83,1.83 0 0 0 -0.83,1.68 2.62,2.62 0 0 0 1.84,1.81 l 4.8,1.82 a 6.59,6.59 0 0 1 4.47,5 5.9,5.9 0 0 1 -2.36,5.55 v 0 a 8.78,8.78 0 0 1 -10.44,0 v 0 a 6,6 0 0 1 -2.43,-4.71 2.06,2.06 0 1 1 4.12,0 2,2 0 0 0 0.84,1.47 4.76,4.76 0 0 0 5.38,0 v 0 a 1.81,1.81 0 0 0 0.82,-1.68 z"
     id="path320"
     style="fill:#ffffff" />
  <path
     class="cls-1"
     d="m 749.51,269.44 a 6,6 0 0 1 -10.29,-4.27 v -12.52 a 2,2 0 0 1 0,-3.85 V 243 a 2.06,2.06 0 0 1 4.12,0 v 5.65 h 1.32 a 2.06,2.06 0 1 1 0,4.12 h -1.32 v 12.38 a 1.91,1.91 0 0 0 3.26,1.35 2.0612193,2.0612193 0 1 1 2.91,2.92 z"
     id="path322"
     style="fill:#ffffff" />
  <path
     class="cls-1"
     d="m 774.13,259.94 v 0 9.19 a 2.06,2.06 0 1 1 -4.12,0 v -0.5 a 11.27,11.27 0 1 1 0,-17.41 v -0.5 a 2.06,2.06 0 1 1 4.12,0 v 9.21 z m -4.12,0 a 7.15,7.15 0 1 0 -7.15,7.16 7.16,7.16 0 0 0 7.15,-7.16 z"
     id="path324"
     style="fill:#ffffff" />
  <path
     class="cls-1"
     d="m 784,239.59 v 29.55 a 2.06,2.06 0 1 1 -4.12,0 v -29.55 a 2.06,2.06 0 1 1 4.12,0 z"
     id="path326"
     style="fill:#ffffff" />
  <path
     class="cls-1"
     d="m 847.66,259.94 a 11.27,11.27 0 0 1 -18.42,8.7 v 11.64 a 2.06,2.06 0 1 1 -4.11,0 V 260 v 0 -9.21 a 2.06,2.06 0 1 1 4.11,0 v 0.5 a 11.27,11.27 0 0 1 18.42,8.71 z m -4.12,0 a 7.15,7.15 0 0 0 -14.3,0 v 0 a 7.15,7.15 0 0 0 14.3,0 z"
     id="path328"
     style="fill:#ffffff" />
  <path
     class="cls-1"
     d="m 857.56,239.59 v 29.55 a 2.06,2.06 0 0 1 -4.12,0 v -29.55 a 2.06,2.06 0 1 1 4.12,0 z"
     id="path330"
     style="fill:#ffffff" />
  <path
     class="cls-1"
     d="m 885.43,259.94 v 0 9.19 a 2.06,2.06 0 1 1 -4.12,0 v -0.5 a 11.27,11.27 0 1 1 0,-17.41 v -0.5 a 2.06,2.06 0 1 1 4.12,0 v 9.21 z m -4.12,0 a 7.15,7.15 0 1 0 -7.14,7.16 7.15,7.15 0 0 0 7.14,-7.16 z"
     id="path332"
     style="fill:#ffffff" />
  <path
     class="cls-1"
     d="m 895.34,244.81 v 0 a 2.06,2.06 0 1 1 -2.06,-2.06 2.06,2.06 0 0 1 2.06,2.06 z m 0,5.92 v 18.41 a 2.06,2.06 0 0 1 -4.12,0 v -18.41 a 2.06,2.06 0 0 1 4.12,0 z"
     id="path334"
     style="fill:#ffffff" />
  <path
     class="cls-1"
     d="m 921,258.58 v 10.56 a 2.06,2.06 0 0 1 -4.12,0 v -10.56 a 5.8,5.8 0 0 0 -11.6,0 v 10.56 a 2.06,2.06 0 1 1 -4.12,0 v -18.41 a 2.06,2.06 0 0 1 4.11,-0.16 9.83,9.83 0 0 1 5.81,-1.9 9.93,9.93 0 0 1 9.92,9.91 z"
     id="path336"
     style="fill:#ffffff" />
  <path
     class="cls-1"
     d="m 25.41,317.54 v 0 9.19 a 2.06,2.06 0 0 1 -4.12,0 v -0.5 a 11.27,11.27 0 1 1 0,-17.41 v -11.63 a 2.06,2.06 0 1 1 4.12,0 z m -4.12,0 a 7.15,7.15 0 1 0 -7.14,7.16 7.15,7.15 0 0 0 7.14,-7.16 z"
     id="path338"
     style="fill:#ffffff" />
  <path
     class="cls-1"
     d="m 35.32,302.41 v 0 a 2.06,2.06 0 1 1 -2.06,-2.06 2.06,2.06 0 0 1 2.06,2.06 z m 0,5.92 v 18.41 a 2.06,2.06 0 0 1 -4.12,0 v -18.41 a 2.06,2.06 0 0 1 4.12,0 z"
     id="path340"
     style="fill:#ffffff" />
  <path
     class="cls-1"
     d="m 52.3,322.18 a 2.58,2.58 0 0 0 -1.84,-1.81 l -4.79,-1.82 a 6.59,6.59 0 0 1 -4.47,-5 5.89,5.89 0 0 1 2.37,-5.55 v 0 A 8.82,8.82 0 0 1 54,308 v 0 a 6,6 0 0 1 2.43,4.71 2.06,2.06 0 1 1 -4.12,0 1.93,1.93 0 0 0 -0.85,-1.47 v 0 a 4.75,4.75 0 0 0 -5.37,0 v 0 a 1.81,1.81 0 0 0 -0.83,1.68 2.62,2.62 0 0 0 1.84,1.81 l 4.8,1.82 a 6.58,6.58 0 0 1 4.46,5 5.88,5.88 0 0 1 -2.36,5.55 v 0 a 8.8,8.8 0 0 1 -10.45,0 v 0 a 6,6 0 0 1 -2.42,-4.71 2.06,2.06 0 1 1 4.11,0 1.93,1.93 0 0 0 0.85,1.47 4.75,4.75 0 0 0 5.37,0 v 0 a 1.78,1.78 0 0 0 0.84,-1.68 z"
     id="path342"
     style="fill:#ffffff" />
  <path
     class="cls-1"
     d="m 83.06,317.54 v 0 9.19 a 2.06,2.06 0 0 1 -4.12,0 v -0.5 a 11.27,11.27 0 1 1 0,-17.41 v -0.5 a 2.06,2.06 0 1 1 4.12,0 v 9.21 z m -4.12,0 a 7.15,7.15 0 1 0 -7.15,7.16 7.16,7.16 0 0 0 7.15,-7.16 z"
     id="path344"
     style="fill:#ffffff" />
  <path
     class="cls-1"
     d="M 111.38,317.54 A 11.26,11.26 0 0 1 93,326.24 v 11.64 a 2.06,2.06 0 0 1 -4.12,0 v -20.33 0 -9.21 a 2.06,2.06 0 1 1 4.12,0 v 0.5 a 11.26,11.26 0 0 1 18.41,8.71 z m -4.12,0 a 7.15,7.15 0 0 0 -14.29,0 v 0 a 7.15,7.15 0 0 0 14.29,0 z"
     id="path346"
     style="fill:#ffffff" />
  <path
     class="cls-1"
     d="m 138.5,317.54 a 11.26,11.26 0 0 1 -18.41,8.7 v 11.64 a 2.06,2.06 0 0 1 -4.12,0 v -20.33 0 -9.21 a 2.06,2.06 0 1 1 4.12,0 v 0.5 a 11.26,11.26 0 0 1 18.41,8.71 z m -4.12,0 a 7.15,7.15 0 0 0 -14.29,0 v 0 a 7.15,7.15 0 0 0 14.29,0 z"
     id="path348"
     style="fill:#ffffff" />
  <path
     class="cls-1"
     d="m 165.14,317.54 a 2.06,2.06 0 0 1 -2.06,2.06 H 147 a 7.15,7.15 0 0 0 11.9,3 2.06,2.06 0 1 1 2.91,2.91 11.27,11.27 0 0 1 -19.23,-7.8 v -0.33 a 11.27,11.27 0 0 1 22.53,0.17 z m -4.42,-2.06 a 7.06,7.06 0 0 0 -1.79,-3 7.15,7.15 0 0 0 -11.9,3 z"
     id="path350"
     style="fill:#ffffff" />
  <path
     class="cls-1"
     d="m 191.78,317.54 v 0 9.19 a 2.06,2.06 0 0 1 -4.12,0 v -0.5 a 11.27,11.27 0 1 1 0,-17.41 v -0.5 a 2.06,2.06 0 1 1 4.12,0 v 9.21 z m -4.12,0 a 7.15,7.15 0 1 0 -7.14,7.16 7.15,7.15 0 0 0 7.14,-7.16 z"
     id="path352"
     style="fill:#ffffff" />
  <path
     class="cls-1"
     d="m 209.54,308.33 a 2.06,2.06 0 0 1 -2.06,2.06 5.8,5.8 0 0 0 -5.79,5.79 v 10.56 a 2.06,2.06 0 0 1 -4.12,0 v -18.41 a 2.0515604,2.0515604 0 0 1 4.1,-0.16 9.85,9.85 0 0 1 5.81,-1.9 2.06,2.06 0 0 1 2.06,2.06 z"
     id="path354"
     style="fill:#ffffff" />
  <path
     class="cls-1"
     d="m 224.34,322.18 a 2.62,2.62 0 0 0 -1.84,-1.81 l -4.8,-1.82 a 6.59,6.59 0 0 1 -4.47,-5 5.91,5.91 0 0 1 2.37,-5.55 v 0 a 8.82,8.82 0 0 1 10.4,0 v 0 a 6,6 0 0 1 2.43,4.71 2.06,2.06 0 1 1 -4.12,0 2,2 0 0 0 -0.84,-1.47 v 0 a 4.75,4.75 0 0 0 -5.37,0 v 0 a 1.83,1.83 0 0 0 -0.83,1.68 2.62,2.62 0 0 0 1.84,1.81 l 4.8,1.82 a 6.59,6.59 0 0 1 4.47,5 5.9,5.9 0 0 1 -2.36,5.55 v 0 a 8.78,8.78 0 0 1 -10.44,0 v 0 a 6,6 0 0 1 -2.43,-4.71 2.06,2.06 0 0 1 4.12,0 2,2 0 0 0 0.84,1.47 4.76,4.76 0 0 0 5.38,0 v 0 a 1.81,1.81 0 0 0 0.85,-1.68 z"
     id="path356"
     style="fill:#ffffff" />
  <path
     class="cls-1"
     d="m 273.92,325.5 a 11.27,11.27 0 1 1 0,-15.93 2.0612193,2.0612193 0 0 1 -2.92,2.91 7.15,7.15 0 1 0 0,10.11 2.0612193,2.0612193 0 1 1 2.92,2.91 z"
     id="path358"
     style="fill:#ffffff" />
  <path
     class="cls-1"
     d="m 301.17,317.54 a 11.27,11.27 0 1 1 -11.26,-11.27 11.27,11.27 0 0 1 11.26,11.27 z m -4.12,0 a 7.15,7.15 0 1 0 -7.14,7.14 7.15,7.15 0 0 0 7.14,-7.14 z"
     id="path360"
     style="fill:#ffffff" />
  <path
     class="cls-1"
     d="m 341.31,316.18 v 10.56 a 2.06,2.06 0 0 1 -4.12,0 v -10.56 a 5.8,5.8 0 0 0 -11.6,0 v 10.56 a 2.06,2.06 0 1 1 -4.11,0 v -10.56 a 5.8,5.8 0 0 0 -11.6,0 v 10.56 a 2.06,2.06 0 0 1 -4.12,0 v -18.41 a 2.0515604,2.0515604 0 0 1 4.1,-0.16 9.86,9.86 0 0 1 13.67,2 9.91,9.91 0 0 1 17.78,6 z"
     id="path362"
     style="fill:#ffffff" />
  <path
     class="cls-1"
     d="m 369.67,317.54 a 11.26,11.26 0 0 1 -18.41,8.7 v 11.64 a 2.06,2.06 0 0 1 -4.12,0 v -20.33 0 -9.21 a 2.06,2.06 0 0 1 4.12,0 v 0.5 a 11.26,11.26 0 0 1 18.41,8.71 z m -4.12,0 a 7.15,7.15 0 0 0 -14.29,0 v 0 a 7.15,7.15 0 0 0 14.29,0 z"
     id="path364"
     style="fill:#ffffff" />
  <path
     class="cls-1"
     d="m 379.58,297.19 v 29.55 a 2.06,2.06 0 0 1 -4.12,0 v -29.55 a 2.06,2.06 0 1 1 4.12,0 z"
     id="path366"
     style="fill:#ffffff" />
  <path
     class="cls-1"
     d="m 407.45,317.54 a 2.07,2.07 0 0 1 -2.06,2.06 h -16.05 a 7,7 0 0 0 1.79,3 7.14,7.14 0 0 0 10.1,0 2.0612193,2.0612193 0 1 1 2.92,2.91 11.26,11.26 0 0 1 -19.23,-7.8 c 0,-0.06 0,-0.11 0,-0.16 0,-0.05 0,-0.11 0,-0.17 a 11.27,11.27 0 0 1 22.53,0.17 z M 403,315.48 a 7.16,7.16 0 0 0 -11.9,-3 7,7 0 0 0 -1.79,3 z"
     id="path368"
     style="fill:#ffffff" />
  <path
     class="cls-1"
     d="m 423.19,327 a 6,6 0 0 1 -10.29,-4.27 v -12.48 a 2,2 0 0 1 0,-3.85 v -5.78 a 2.06,2.06 0 0 1 4.12,0 v 5.65 h 1.33 a 2.06,2.06 0 0 1 0,4.12 H 417 v 12.38 a 1.91,1.91 0 0 0 3.26,1.35 2.0612193,2.0612193 0 0 1 2.91,2.92 z"
     id="path370"
     style="fill:#ffffff" />
  <path
     class="cls-1"
     d="m 447.81,317.54 a 2.06,2.06 0 0 1 -2.06,2.06 H 429.7 a 7.15,7.15 0 0 0 11.9,3 2.06,2.06 0 1 1 2.91,2.91 11.26,11.26 0 0 1 -19.22,-7.8 0.92,0.92 0 0 1 0,-0.16 1,1 0 0 1 0,-0.17 11.260321,11.260321 0 0 1 22.52,0.17 z m -4.41,-2.06 a 7.15,7.15 0 0 0 -13.7,0 z"
     id="path372"
     style="fill:#ffffff" />
  <path
     class="cls-1"
     d="m 457.72,297.19 v 29.55 a 2.06,2.06 0 0 1 -4.12,0 v -29.55 a 2.06,2.06 0 0 1 4.12,0 z"
     id="path374"
     style="fill:#ffffff" />
  <path
     class="cls-1"
     d="m 483.2,309.14 -3.2,7.63 v 0 l -9.31,21.91 a 2.05,2.05 0 0 1 -1.89,1.25 2.09,2.09 0 0 1 -0.81,-0.16 2.06,2.06 0 0 1 -1.09,-2.7 l 4.38,-10.31 -7.53,-17.63 a 2.0608554,2.0608554 0 1 1 3.79,-1.62 l 6,14 2.68,-6.26 v -0.06 0 l 3.27,-7.64 a 2.06,2.06 0 1 1 3.78,1.62 z"
     id="path376"
     style="fill:#ffffff" />
  <path
     class="cls-1"
     d="m 513.78,302.41 v 0 a 2.06,2.06 0 1 1 -2.06,-2.06 2.06,2.06 0 0 1 2.06,2.06 z m 0,5.92 v 18.41 a 2.06,2.06 0 1 1 -4.11,0 v -18.41 a 2.06,2.06 0 1 1 4.11,0 z"
     id="path378"
     style="fill:#ffffff" />
  <path
     class="cls-1"
     d="m 539.43,316.18 v 10.56 a 2.06,2.06 0 1 1 -4.12,0 v -10.56 a 5.8,5.8 0 0 0 -11.59,0 v 10.56 a 2.06,2.06 0 0 1 -4.12,0 v -18.41 a 2.0515604,2.0515604 0 0 1 4.1,-0.16 9.9,9.9 0 0 1 15.73,8 z"
     id="path380"
     style="fill:#ffffff" />
  <path
     class="cls-1"
     d="m 577.37,327 a 6,6 0 0 1 -10.29,-4.27 v -12.48 a 2,2 0 0 1 0,-3.85 v -5.78 a 2.06,2.06 0 0 1 4.12,0 v 5.65 h 1.32 a 2.06,2.06 0 1 1 0,4.12 h -1.32 v 12.38 a 1.91,1.91 0 0 0 3.26,1.35 2.0612193,2.0612193 0 0 1 2.91,2.92 z"
     id="path382"
     style="fill:#ffffff" />
  <path
     class="cls-1"
     d="m 602.89,316.18 v 10.56 a 2.06,2.06 0 1 1 -4.12,0 v -10.56 a 5.8,5.8 0 0 0 -11.59,0 v 10.56 a 2.06,2.06 0 1 1 -4.12,0 v -29.55 a 2.06,2.06 0 1 1 4.12,0 v 11 a 9.78,9.78 0 0 1 5.79,-1.89 9.93,9.93 0 0 1 9.92,9.88 z"
     id="path384"
     style="fill:#ffffff" />
  <path
     class="cls-1"
     d="m 629.59,317.54 a 2.06,2.06 0 0 1 -2.06,2.06 h -16 a 7.07,7.07 0 0 0 1.79,3 7.15,7.15 0 0 0 10.11,0 2.06,2.06 0 1 1 2.91,2.91 11.27,11.27 0 0 1 -19.23,-7.8 v -0.33 a 11.27,11.27 0 0 1 22.53,0.17 z m -4.42,-2.06 a 7.06,7.06 0 0 0 -1.79,-3 7.15,7.15 0 0 0 -11.9,3 z"
     id="path386"
     style="fill:#ffffff" />
  <path
     class="cls-1"
     d="m 675.66,316.18 v 10.56 a 2.06,2.06 0 1 1 -4.12,0 v -10.56 a 5.8,5.8 0 0 0 -11.59,0 v 10.56 a 2.06,2.06 0 0 1 -4.12,0 v -18.41 a 2.0515604,2.0515604 0 0 1 4.1,-0.16 9.9,9.9 0 0 1 15.73,8 z"
     id="path388"
     style="fill:#ffffff" />
  <path
     class="cls-1"
     d="m 702.36,317.54 a 11.27,11.27 0 1 1 -11.27,-11.27 11.28,11.28 0 0 1 11.27,11.27 z m -4.12,0 a 7.15,7.15 0 1 0 -7.15,7.14 7.15,7.15 0 0 0 7.15,-7.14 z"
     id="path390"
     style="fill:#ffffff" />
  <path
     class="cls-1"
     d="m 718.92,308.33 a 2.06,2.06 0 0 1 -2.06,2.06 5.8,5.8 0 0 0 -5.79,5.79 v 10.56 a 2.06,2.06 0 0 1 -4.12,0 v -18.41 a 2.0515604,2.0515604 0 0 1 4.1,-0.16 9.85,9.85 0 0 1 5.81,-1.9 2.06,2.06 0 0 1 2.06,2.06 z"
     id="path392"
     style="fill:#ffffff" />
  <path
     class="cls-1"
     d="m 736.34,327 a 6,6 0 0 1 -4.26,1.76 6,6 0 0 1 -6,-6 v -12.51 a 2.05,2.05 0 0 1 0,-3.85 v -5.78 a 2.06,2.06 0 1 1 4.12,0 v 5.65 h 1.33 a 2.06,2.06 0 0 1 0,4.12 h -1.33 v 12.38 a 1.91,1.91 0 0 0 3.26,1.35 2.0612193,2.0612193 0 1 1 2.91,2.92 z"
     id="path394"
     style="fill:#ffffff" />
  <path
     class="cls-1"
     d="m 761.87,316.18 v 10.56 a 2.06,2.06 0 0 1 -4.12,0 v -10.56 a 5.8,5.8 0 0 0 -11.6,0 v 10.56 a 2.06,2.06 0 1 1 -4.12,0 v -29.55 a 2.06,2.06 0 1 1 4.12,0 v 11 a 9.9,9.9 0 0 1 15.72,8 z"
     id="path396"
     style="fill:#ffffff" />
  <path
     class="cls-1"
     d="m 769.72,327.72 -1.63,2.75 a 2.06,2.06 0 0 1 -1.78,1 2,2 0 0 1 -1,-0.29 2.06,2.06 0 0 1 -0.71,-2.82 l 1.63,-2.75 a 2.0605642,2.0605642 0 0 1 3.54,2.11 z"
     id="path398"
     style="fill:#ffffff" />
  <path
     class="cls-1"
     d="m 828.2,309.14 -7.86,18.41 a 2.06,2.06 0 0 1 -3.79,0 l -6,-14 -6,14 a 2.06,2.06 0 0 1 -3.79,0 L 793,309.14 a 2.0608554,2.0608554 0 0 1 3.79,-1.62 l 6,14 6,-14 a 0.75,0.75 0 0 1 0.07,-0.12 1.39,1.39 0 0 1 0.11,-0.21 L 809,307 l 0.14,-0.15 a 1.07,1.07 0 0 1 0.16,-0.14 l 0.15,-0.12 0.21,-0.12 0.12,-0.06 v 0 l 0.26,-0.08 h 0.13 0.22 0.18 0.16 0.24 0.12 a 1.38,1.38 0 0 1 0.27,0.08 v 0 a 0.6,0.6 0 0 1 0.11,0.06 1.67,1.67 0 0 1 0.23,0.12 l 0.14,0.11 a 1.22,1.22 0 0 1 0.17,0.15 l 0.13,0.15 0.12,0.15 a 1.55,1.55 0 0 1 0.12,0.22 l 0.07,0.12 6,14 6,-14 a 2.0608554,2.0608554 0 1 1 3.79,1.62 z"
     id="path400"
     style="fill:#ffffff" />
  <path
     class="cls-1"
     d="m 854,316.18 v 10.56 a 2.06,2.06 0 1 1 -4.12,0 v -10.56 a 5.8,5.8 0 0 0 -11.6,0 v 10.56 a 2.06,2.06 0 1 1 -4.12,0 v -29.55 a 2.06,2.06 0 1 1 4.12,0 v 11 a 9.9,9.9 0 0 1 15.72,8 z"
     id="path402"
     style="fill:#ffffff" />
  <path
     class="cls-1"
     d="m 880.73,317.54 a 2.07,2.07 0 0 1 -2.06,2.06 h -16 a 7.07,7.07 0 0 0 1.79,3 7.14,7.14 0 0 0 10.1,0 2.0612193,2.0612193 0 1 1 2.92,2.91 11.26,11.26 0 0 1 -19.23,-7.8 c 0,-0.06 0,-0.11 0,-0.16 0,-0.05 0,-0.11 0,-0.17 a 11.27,11.27 0 0 1 22.53,0.17 z m -4.42,-2.06 a 7.16,7.16 0 0 0 -11.9,-3 7.1,7.1 0 0 0 -1.79,3 z"
     id="path404"
     style="fill:#ffffff" />
  <path
     class="cls-1"
     d="m 897.29,308.33 a 2.06,2.06 0 0 1 -2.06,2.06 5.8,5.8 0 0 0 -5.8,5.79 v 10.56 a 2.06,2.06 0 1 1 -4.12,0 v -18.41 a 2.06,2.06 0 0 1 4.11,-0.16 9.83,9.83 0 0 1 5.81,-1.9 2.06,2.06 0 0 1 2.06,2.06 z"
     id="path406"
     style="fill:#ffffff" />
  <path
     class="cls-1"
     d="M 921.05,317.54 A 2.06,2.06 0 0 1 919,319.6 h -16 a 7.07,7.07 0 0 0 1.79,3 7.14,7.14 0 0 0 10.1,0 2.0612193,2.0612193 0 0 1 2.92,2.91 11.26,11.26 0 0 1 -19.23,-7.8 c 0,-0.06 0,-0.11 0,-0.16 0,-0.05 0,-0.11 0,-0.17 a 11.27,11.27 0 0 1 22.53,0.17 z m -4.42,-2.06 a 7.16,7.16 0 0 0 -11.9,-3 7.1,7.1 0 0 0 -1.79,3 z"
     id="path408"
     style="fill:#ffffff" />
  <path
     class="cls-1"
     d="m 6.51,353.42 14.17,16.63 14.18,-16.63 a 2.09,2.09 0 0 1 2.28,-0.6 2.07,2.07 0 0 1 1.34,1.94 v 29.54 a 2.06,2.06 0 1 1 -4.11,0 v -23.95 l -12.12,14.21 -0.12,0.12 c 0,0 -0.07,0.08 -0.11,0.11 v 0 l -0.19,0.13 a 0.83,0.83 0 0 1 -0.16,0.09 1.11,1.11 0 0 1 -0.19,0.09 l -0.18,0.07 h -0.19 a 1.38,1.38 0 0 1 -0.2,0 h -0.39 a 1.2,1.2 0 0 1 -0.2,0 h -0.19 l -0.19,-0.07 -0.18,-0.08 a 0.91,0.91 0 0 1 -0.16,-0.11 1.13,1.13 0 0 1 -0.18,-0.12 v 0 A 0.68,0.68 0 0 1 19.3,374.67 L 19.19,374.56 7,360.35 v 23.95 a 2.06,2.06 0 1 1 -4.12,0 v -29.54 a 2.06,2.06 0 0 1 3.63,-1.34 z"
     id="path410"
     style="fill:#ffffff" />
  <path
     class="cls-1"
     d="m 66.79,375.14 a 11.27,11.27 0 1 1 -11.27,-11.27 11.28,11.28 0 0 1 11.27,11.27 z m -4.12,0 a 7.15,7.15 0 1 0 -7.15,7.14 7.15,7.15 0 0 0 7.15,-7.14 z"
     id="path412"
     style="fill:#ffffff" />
  <path
     class="cls-1"
     d="m 91.93,365.93 v 18.41 a 2.0515604,2.0515604 0 0 1 -4.1,0.16 9.9,9.9 0 0 1 -15.73,-8 v -10.57 a 2.06,2.06 0 1 1 4.11,0 v 10.56 a 5.8,5.8 0 0 0 11.6,0 v -10.56 a 2.06,2.06 0 1 1 4.12,0 z"
     id="path414"
     style="fill:#ffffff" />
  <path
     class="cls-1"
     d="m 117.61,373.78 v 10.56 a 2.06,2.06 0 1 1 -4.12,0 v -10.56 a 5.8,5.8 0 0 0 -11.6,0 v 10.56 a 2.06,2.06 0 1 1 -4.11,0 v -18.41 a 2.0515604,2.0515604 0 0 1 4.1,-0.16 9.83,9.83 0 0 1 5.81,-1.9 9.93,9.93 0 0 1 9.92,9.91 z"
     id="path416"
     style="fill:#ffffff" />
  <path
     class="cls-1"
     d="m 133.41,384.64 a 6,6 0 0 1 -4.26,1.76 6,6 0 0 1 -6,-6 v -12.55 a 2.05,2.05 0 0 1 0,-3.85 v -5.78 a 2.06,2.06 0 1 1 4.12,0 v 5.65 h 1.33 a 2.06,2.06 0 0 1 0,4.12 h -1.33 v 12.38 a 1.91,1.91 0 0 0 3.26,1.35 2.0612193,2.0612193 0 1 1 2.91,2.92 z"
     id="path418"
     style="fill:#ffffff" />
  <path
     class="cls-1"
     d="m 160.38,384.31 v -29.55 a 2.06,2.06 0 0 1 4.12,0 v 27.5 h 23.13 a 2.06,2.06 0 1 1 0,4.11 h -25.19 a 2.06,2.06 0 0 1 -2.06,-2.06 z"
     id="path420"
     style="fill:#ffffff" />
  <path
     class="cls-1"
     d="m 212.77,375.14 a 11.27,11.27 0 1 1 -11.27,-11.27 11.28,11.28 0 0 1 11.27,11.27 z m -4.12,0 a 7.15,7.15 0 1 0 -7.15,7.14 7.15,7.15 0 0 0 7.15,-7.14 z"
     id="path422"
     style="fill:#ffffff" />
  <path
     class="cls-1"
     d="M 234.86,366.74 227,385.15 a 2.05,2.05 0 0 1 -3.78,0 l -7.86,-18.41 a 2.0608554,2.0608554 0 1 1 3.79,-1.62 l 6,14 6,-14 a 2.0608554,2.0608554 0 1 1 3.79,1.62 z"
     id="path424"
     style="fill:#ffffff" />
  <path
     class="cls-1"
     d="m 258.06,385.54 a 15.64,15.64 0 0 1 -6.67,1.34 c -7,0 -11.57,-4.75 -11.57,-11.86 0,-7.11 4.89,-12.33 12.48,-12.33 a 14.13,14.13 0 0 1 5.86,1.2 l -1,3.26 a 9.79,9.79 0 0 0 -4.9,-1.1 c -5.33,0 -8.21,3.93 -8.21,8.78 0,5.38 3.46,8.69 8.06,8.69 a 12,12 0 0 0 5.19,-1.15 z m -0.91,-32.41 -5.86,6.87 h -3 l 4.22,-6.87 z"
     id="path426"
     style="fill:#ffffff" />
  <path
     class="cls-1"
     d="m 284.91,375.14 a 2.05,2.05 0 0 1 -2.06,2.05 H 266.8 a 7.15,7.15 0 0 0 11.9,3 2.06,2.06 0 0 1 2.91,2.91 11.27,11.27 0 0 1 -19.23,-7.8 V 375 a 11.27,11.27 0 0 1 22.53,0.17 z m -4.42,-2.06 a 7.06,7.06 0 0 0 -1.79,-3 7.15,7.15 0 0 0 -11.9,3 z"
     id="path428"
     style="fill:#ffffff" />
  <path
     class="cls-1"
     d="m 309.33,373.78 v 10.56 a 2.06,2.06 0 1 1 -4.12,0 v -10.56 a 5.8,5.8 0 0 0 -11.59,0 v 10.56 a 2.06,2.06 0 0 1 -4.12,0 v -18.41 a 2.0515604,2.0515604 0 0 1 4.1,-0.16 9.9,9.9 0 0 1 15.73,8 z"
     id="path430"
     style="fill:#ffffff" />
  <path
     class="cls-1"
     d="m 358.26,375.14 v 0 9.19 a 2.06,2.06 0 0 1 -4.12,0 v -0.5 a 11.26,11.26 0 1 1 0,-17.41 v -0.5 a 2.06,2.06 0 1 1 4.11,0 v 9.21 z m -4.11,0 a 7.15,7.15 0 1 0 -7.15,7.16 7.16,7.16 0 0 0 7.15,-7.16 z"
     id="path432"
     style="fill:#ffffff" />
  <path
     class="cls-1"
     d="m 383.89,373.78 v 10.56 a 2.06,2.06 0 0 1 -4.12,0 v -10.56 a 5.8,5.8 0 0 0 -11.6,0 v 10.56 a 2.06,2.06 0 1 1 -4.12,0 v -18.41 a 2.06,2.06 0 0 1 4.11,-0.16 9.83,9.83 0 0 1 5.81,-1.9 9.93,9.93 0 0 1 9.92,9.91 z"
     id="path434"
     style="fill:#ffffff" />
  <path
     class="cls-1"
     d="m 410.58,375.14 v 0 9.19 a 2.06,2.06 0 1 1 -4.11,0 v -0.5 a 11.27,11.27 0 1 1 0,-17.41 v -11.63 a 2.06,2.06 0 1 1 4.11,0 z m -4.11,0 a 7.15,7.15 0 1 0 -7.15,7.16 7.16,7.16 0 0 0 7.15,-7.16 z"
     id="path436"
     style="fill:#ffffff" />
  <path
     class="cls-1"
     d="m 459.46,375.14 a 11.27,11.27 0 1 1 -11.27,-11.27 11.28,11.28 0 0 1 11.27,11.27 z m -4.12,0 a 7.15,7.15 0 1 0 -7.15,7.14 7.15,7.15 0 0 0 7.15,-7.14 z"
     id="path438"
     style="fill:#ffffff" />
  <path
     class="cls-1"
     d="m 475.21,384.64 a 6,6 0 0 1 -10.3,-4.27 v -12.52 a 2.05,2.05 0 0 1 0,-3.85 v -5.78 a 2.06,2.06 0 1 1 4.12,0 v 5.65 h 1.33 a 2.06,2.06 0 0 1 0,4.12 H 469 v 12.38 a 1.91,1.91 0 0 0 3.26,1.35 2.0647518,2.0647518 0 0 1 2.92,2.92 z"
     id="path440"
     style="fill:#ffffff" />
  <path
     class="cls-1"
     d="m 500.73,373.78 v 10.56 a 2.06,2.06 0 0 1 -4.12,0 v -10.56 a 5.8,5.8 0 0 0 -11.6,0 v 10.56 a 2.06,2.06 0 0 1 -4.12,0 v -29.55 a 2.06,2.06 0 0 1 4.12,0 v 11 a 9.9,9.9 0 0 1 15.72,8 z"
     id="path442"
     style="fill:#ffffff" />
  <path
     class="cls-1"
     d="m 527.43,375.14 a 2.06,2.06 0 0 1 -2.06,2.05 h -16.05 a 7,7 0 0 0 1.79,3 7.14,7.14 0 0 0 10.1,0 2.0612193,2.0612193 0 1 1 2.92,2.91 11.26,11.26 0 0 1 -19.23,-7.8 c 0,-0.06 0,-0.11 0,-0.16 0,-0.05 0,-0.11 0,-0.17 a 11.27,11.27 0 0 1 22.53,0.17 z M 523,373.08 a 7.16,7.16 0 0 0 -11.9,-3 7.1,7.1 0 0 0 -1.79,3 z"
     id="path444"
     style="fill:#ffffff" />
  <path
     class="cls-1"
     d="m 544,365.93 a 2.06,2.06 0 0 1 -2.06,2.06 5.8,5.8 0 0 0 -5.8,5.79 v 10.56 a 2.06,2.06 0 1 1 -4.12,0 v -18.41 a 2.06,2.06 0 0 1 4.11,-0.16 9.83,9.83 0 0 1 5.81,-1.9 2.06,2.06 0 0 1 2.06,2.06 z"
     id="path446"
     style="fill:#ffffff" />
  <path
     class="cls-1"
     d="m 605.88,373.78 v 10.56 a 2.06,2.06 0 1 1 -4.12,0 v -10.56 a 5.8,5.8 0 0 0 -11.6,0 v 10.56 a 2.06,2.06 0 1 1 -4.12,0 v -10.56 a 5.8,5.8 0 0 0 -11.59,0 v 10.56 a 2.06,2.06 0 0 1 -4.12,0 v -18.41 a 2.0515604,2.0515604 0 0 1 4.1,-0.16 9.86,9.86 0 0 1 13.67,2 9.91,9.91 0 0 1 17.78,6 z"
     id="path448"
     style="fill:#ffffff" />
  <path
     class="cls-1"
     d="m 632.56,375.14 a 11.27,11.27 0 1 1 -11.27,-11.27 11.28,11.28 0 0 1 11.27,11.27 z m -4.12,0 a 7.15,7.15 0 1 0 -7.15,7.14 7.15,7.15 0 0 0 7.15,-7.14 z"
     id="path450"
     style="fill:#ffffff" />
  <path
     class="cls-1"
     d="m 657.7,365.93 v 18.41 a 2.06,2.06 0 0 1 -4.11,0.16 9.81,9.81 0 0 1 -5.81,1.9 9.92,9.92 0 0 1 -9.91,-9.91 v -10.56 a 2.06,2.06 0 1 1 4.11,0 v 10.56 a 5.8,5.8 0 0 0 11.6,0 v -10.56 a 2.06,2.06 0 0 1 4.12,0 z"
     id="path452"
     style="fill:#ffffff" />
  <path
     class="cls-1"
     d="m 683.38,373.78 v 10.56 a 2.06,2.06 0 1 1 -4.12,0 v -10.56 a 5.8,5.8 0 0 0 -11.6,0 v 10.56 a 2.06,2.06 0 1 1 -4.12,0 v -18.41 a 2.06,2.06 0 0 1 4.11,-0.16 9.83,9.83 0 0 1 5.81,-1.9 9.93,9.93 0 0 1 9.92,9.91 z"
     id="path454"
     style="fill:#ffffff" />
  <path
     class="cls-1"
     d="m 699.18,384.64 a 6,6 0 0 1 -4.26,1.76 6,6 0 0 1 -6,-6 v -12.55 a 2,2 0 0 1 0,-3.85 v -5.78 a 2.06,2.06 0 1 1 4.12,0 v 5.65 h 1.33 a 2.06,2.06 0 0 1 0,4.12 H 693 v 12.38 a 1.91,1.91 0 0 0 3.26,1.35 2.0612193,2.0612193 0 0 1 2.91,2.92 z"
     id="path456"
     style="fill:#ffffff" />
  <path
     class="cls-1"
     d="m 723.8,375.14 v 0 9.19 a 2.06,2.06 0 1 1 -4.11,0 v -0.5 a 11.27,11.27 0 1 1 0,-17.41 v -0.5 a 2.06,2.06 0 1 1 4.11,0 v 9.21 z m -4.11,0 a 7.15,7.15 0 1 0 -7.15,7.16 7.16,7.16 0 0 0 7.15,-7.16 z"
     id="path458"
     style="fill:#ffffff" />
  <path
     class="cls-1"
     d="m 733.71,360 v 0 a 2.06,2.06 0 1 1 -2.06,-2.06 2.06,2.06 0 0 1 2.06,2.06 z m 0,5.92 v 18.41 a 2.06,2.06 0 0 1 -4.12,0 v -18.4 a 2.06,2.06 0 0 1 4.12,0 z"
     id="path460"
     style="fill:#ffffff" />
  <path
     class="cls-1"
     d="m 759.36,373.78 v 10.56 a 2.06,2.06 0 0 1 -4.12,0 v -10.56 a 5.8,5.8 0 0 0 -11.59,0 v 10.56 a 2.06,2.06 0 1 1 -4.12,0 v -18.41 a 2.0515604,2.0515604 0 0 1 4.1,-0.16 9.9,9.9 0 0 1 15.73,8 z"
     id="path462"
     style="fill:#ffffff" />
  <path
     class="cls-1"
     d="m 797.74,365.93 a 2.06,2.06 0 0 1 -2.06,2.06 5.8,5.8 0 0 0 -5.8,5.79 v 10.56 a 2.06,2.06 0 1 1 -4.12,0 v -18.41 a 2.06,2.06 0 0 1 4.11,-0.16 9.83,9.83 0 0 1 5.81,-1.9 2.06,2.06 0 0 1 2.06,2.06 z"
     id="path464"
     style="fill:#ffffff" />
  <path
     class="cls-1"
     d="m 821.49,375.14 v 0 9.19 a 2.06,2.06 0 1 1 -4.11,0 v -0.5 a 11.27,11.27 0 1 1 0,-17.41 v -0.5 a 2.06,2.06 0 1 1 4.11,0 v 9.21 z m -4.11,0 a 7.15,7.15 0 1 0 -7.15,7.16 7.16,7.16 0 0 0 7.15,-7.16 z"
     id="path466"
     style="fill:#ffffff" />
  <path
     class="cls-1"
     d="m 847.11,373.78 v 10.56 a 2.06,2.06 0 1 1 -4.11,0 v -10.56 a 5.8,5.8 0 0 0 -11.6,0 v 10.56 a 2.06,2.06 0 1 1 -4.12,0 v -18.41 a 2.0515604,2.0515604 0 0 1 4.1,-0.16 9.9,9.9 0 0 1 15.73,8 z"
     id="path468"
     style="fill:#ffffff" />
  <path
     class="cls-1"
     d="m 873.81,365.93 v 20.39 a 11.26,11.26 0 0 1 -19.23,8 2.06,2.06 0 0 1 2.91,-2.91 7.15,7.15 0 0 0 12.2,-5.06 v -2.47 a 11.27,11.27 0 1 1 0,-17.41 v -0.5 a 2.06,2.06 0 1 1 4.12,0 z m -4.12,9.21 a 7.15,7.15 0 1 0 -7.14,7.14 7.15,7.15 0 0 0 7.14,-7.14 z"
     id="path470"
     style="fill:#ffffff" />
  <path
     class="cls-1"
     d="m 901.66,375.14 a 2.06,2.06 0 0 1 -2.06,2.05 h -16.05 a 7,7 0 0 0 1.78,3 7.15,7.15 0 0 0 10.11,0 2.0612193,2.0612193 0 1 1 2.92,2.91 11.26,11.26 0 0 1 -19.23,-7.8 0.92,0.92 0 0 1 0,-0.16 c 0,-0.06 0,-0.11 0,-0.17 a 11.27,11.27 0 0 1 22.53,0.17 z m -4.42,-2.06 a 7.16,7.16 0 0 0 -11.91,-3 7.08,7.08 0 0 0 -1.78,3 z"
     id="path472"
     style="fill:#ffffff" />
  <path
     class="cls-1"
     d="m 916.93,379.78 a 2.6,2.6 0 0 0 -1.84,-1.81 l -4.8,-1.82 a 6.58,6.58 0 0 1 -4.46,-5 5.88,5.88 0 0 1 2.36,-5.55 v 0 a 8.81,8.81 0 0 1 10.43,0 v 0 a 6,6 0 0 1 2.43,4.71 2.06,2.06 0 0 1 -4.12,0 1.93,1.93 0 0 0 -0.85,-1.47 v 0 a 4.75,4.75 0 0 0 -5.37,0 v 0 a 1.81,1.81 0 0 0 -0.83,1.68 2.58,2.58 0 0 0 1.84,1.81 l 4.8,1.82 a 6.59,6.59 0 0 1 4.46,5 5.9,5.9 0 0 1 -2.36,5.55 v 0 a 8.8,8.8 0 0 1 -10.45,0 v 0 a 6,6 0 0 1 -2.43,-4.71 2.06,2.06 0 1 1 4.12,0 1.93,1.93 0 0 0 0.85,1.47 4.75,4.75 0 0 0 5.37,0 v 0 a 1.79,1.79 0 0 0 0.85,-1.68 z"
     id="path474"
     style="fill:#ffffff" />
  <path
     class="cls-1"
     d="M 25.41,432.74 A 11.26,11.26 0 0 1 7,441.44 v 11.64 a 2.06,2.06 0 1 1 -4.12,0 v -20.33 0 -9.21 a 2.06,2.06 0 0 1 4.12,0 v 0.5 a 11.26,11.26 0 0 1 18.41,8.71 z m -4.12,0 a 7.15,7.15 0 0 0 -14.29,0 v 0 a 7.15,7.15 0 0 0 14.29,0 z"
     id="path476"
     style="fill:#ffffff" />
  <path
     class="cls-1"
     d="m 35.32,412.39 v 29.55 a 2.06,2.06 0 0 1 -4.12,0 v -29.55 a 2.06,2.06 0 0 1 4.12,0 z"
     id="path478"
     style="fill:#ffffff" />
  <path
     class="cls-1"
     d="m 61,423.53 v 18.41 a 2.06,2.06 0 0 1 -4.11,0.16 9.89,9.89 0 0 1 -15.72,-8 v -10.57 a 2.06,2.06 0 1 1 4.11,0 v 10.56 a 5.8,5.8 0 0 0 11.6,0 v -10.56 a 2.06,2.06 0 0 1 4.12,0 z"
     id="path480"
     style="fill:#ffffff" />
  <path
     class="cls-1"
     d="m 86.65,431.39 v 10.55 a 2.06,2.06 0 0 1 -4.12,0 v -10.55 a 5.8,5.8 0 0 0 -11.6,0 v 10.55 a 2.06,2.06 0 1 1 -4.12,0 v -18.41 a 2.06,2.06 0 0 1 4.11,-0.16 9.83,9.83 0 0 1 5.81,-1.9 9.93,9.93 0 0 1 9.92,9.92 z"
     id="path482"
     style="fill:#ffffff" />
  <path
     class="cls-1"
     d="m 113.35,423.53 v 20.39 a 11.27,11.27 0 0 1 -19.24,8 2.06,2.06 0 1 1 2.89,-2.92 7.15,7.15 0 0 0 12.2,-5.05 v -2.48 a 11.27,11.27 0 1 1 0,-17.41 v -0.5 a 2.06,2.06 0 1 1 4.12,0 z m -4.12,9.21 a 7.15,7.15 0 1 0 -7.15,7.14 7.16,7.16 0 0 0 7.15,-7.14 z"
     id="path484"
     style="fill:#ffffff" />
  <path
     class="cls-1"
     d="m 141.19,432.74 a 2.06,2.06 0 0 1 -2.06,2.06 h -16 a 7.07,7.07 0 0 0 1.79,3 7.15,7.15 0 0 0 10.11,0 2.06,2.06 0 1 1 2.91,2.91 11.27,11.27 0 0 1 -19.23,-7.8 c 0,0 0,-0.11 0,-0.16 0,-0.05 0,-0.11 0,-0.17 a 11.27,11.27 0 0 1 22.53,0.17 z m -4.42,-2.06 a 7.27,7.27 0 0 0 -1.79,-3 7.15,7.15 0 0 0 -11.9,3 z"
     id="path486"
     style="fill:#ffffff" />
  <path
     class="cls-1"
     d="m 186.46,432.74 v 0 9.19 a 2.06,2.06 0 1 1 -4.12,0 v -0.5 a 11.27,11.27 0 1 1 0,-17.41 v -0.5 a 2.06,2.06 0 0 1 4.12,0 v 9.21 z m -4.12,0 a 7.15,7.15 0 1 0 -7.15,7.16 7.16,7.16 0 0 0 7.15,-7.16 z"
     id="path488"
     style="fill:#ffffff" />
  <path
     class="cls-1"
     d="m 214.78,432.74 a 11.27,11.27 0 0 1 -18.42,8.7 v 0.5 a 2.06,2.06 0 1 1 -4.11,0 v -9.2 0 -20.39 a 2.06,2.06 0 1 1 4.11,0 V 424 a 11.27,11.27 0 0 1 18.42,8.71 z m -4.12,0 a 7.15,7.15 0 0 0 -14.3,0 v 0 a 7.15,7.15 0 0 0 14.3,0 z"
     id="path490"
     style="fill:#ffffff" />
  <path
     class="cls-1"
     d="m 231.34,423.53 a 2.06,2.06 0 0 1 -2.06,2.06 5.81,5.81 0 0 0 -5.8,5.8 v 10.55 a 2.06,2.06 0 1 1 -4.11,0 v -18.41 a 2.0515604,2.0515604 0 0 1 4.1,-0.16 9.83,9.83 0 0 1 5.81,-1.9 2.06,2.06 0 0 1 2.06,2.06 z"
     id="path492"
     style="fill:#ffffff" />
  <path
     class="cls-1"
     d="m 257,423.53 v 18.41 a 2.0515604,2.0515604 0 0 1 -4.1,0.16 9.9,9.9 0 0 1 -15.73,-8 v -10.57 a 2.06,2.06 0 1 1 4.11,0 v 10.56 a 5.8,5.8 0 0 0 11.6,0 v -10.56 a 2.06,2.06 0 0 1 4.12,0 z"
     id="path494"
     style="fill:#ffffff" />
  <path
     class="cls-1"
     d="m 285.34,432.74 a 11.26,11.26 0 0 1 -18.41,8.7 v 11.64 a 2.06,2.06 0 1 1 -4.12,0 v -20.33 0 -9.21 a 2.06,2.06 0 0 1 4.12,0 v 0.5 a 11.26,11.26 0 0 1 18.41,8.71 z m -4.12,0 a 7.15,7.15 0 0 0 -14.29,0 v 0 a 7.15,7.15 0 0 0 14.29,0 z"
     id="path496"
     style="fill:#ffffff" />
  <path
     class="cls-1"
     d="m 301.08,442.24 a 6,6 0 0 1 -4.26,1.76 6,6 0 0 1 -6,-6 v -12.55 a 2.05,2.05 0 0 1 0,-3.85 v -5.78 a 2.06,2.06 0 1 1 4.12,0 v 5.65 h 1.33 a 2.06,2.06 0 1 1 0,4.12 h -1.33 V 438 a 1.91,1.91 0 0 0 1.91,1.91 1.86,1.86 0 0 0 1.35,-0.56 2.0612193,2.0612193 0 1 1 2.91,2.92 z"
     id="path498"
     style="fill:#ffffff" />
  <path
     class="cls-1"
     d="m 310.89,412.39 v 29.55 a 2.06,2.06 0 0 1 -4.12,0 v -29.55 a 2.06,2.06 0 0 1 4.12,0 z"
     id="path500"
     style="fill:#ffffff" />
  <path
     class="cls-1"
     d="m 336.38,424.34 -3.26,7.66 v 0 l -9.31,21.91 a 2.05,2.05 0 0 1 -1.89,1.25 2.13,2.13 0 0 1 -0.81,-0.16 2.07,2.07 0 0 1 -1.09,-2.7 l 4.38,-10.3 -7.53,-17.63 a 2.0608554,2.0608554 0 0 1 3.79,-1.62 l 6,14 2.67,-6.26 v -0.06 0 l 3.26,-7.65 a 2.0608554,2.0608554 0 0 1 3.79,1.62 z"
     id="path502"
     style="fill:#ffffff" />
  <path
     class="cls-1"
     d="m 363.46,417.61 v 0 a 2.06,2.06 0 1 1 -2.06,-2.06 2.06,2.06 0 0 1 2.06,2.06 z m 0,5.92 v 18.41 a 2.06,2.06 0 1 1 -4.12,0 v -18.41 a 2.06,2.06 0 0 1 4.12,0 z"
     id="path504"
     style="fill:#ffffff" />
  <path
     class="cls-1"
     d="m 389.11,431.39 v 10.55 a 2.06,2.06 0 0 1 -4.12,0 v -10.55 a 5.8,5.8 0 0 0 -11.6,0 v 10.55 a 2.06,2.06 0 0 1 -4.12,0 v -18.41 a 2.06,2.06 0 0 1 4.11,-0.16 9.83,9.83 0 0 1 5.81,-1.9 9.93,9.93 0 0 1 9.92,9.92 z"
     id="path506"
     style="fill:#ffffff" />
  <path
     class="cls-1"
     d="m 404.91,442.24 a 6,6 0 0 1 -4.26,1.76 6,6 0 0 1 -6,-6 v -12.55 a 2,2 0 0 1 0,-3.85 v -5.78 a 2.06,2.06 0 0 1 4.12,0 v 5.65 h 1.33 a 2.06,2.06 0 1 1 0,4.12 h -1.33 V 438 a 1.91,1.91 0 0 0 1.91,1.91 1.86,1.86 0 0 0 1.35,-0.56 2.0612193,2.0612193 0 1 1 2.91,2.92 z"
     id="path508"
     style="fill:#ffffff" />
  <path
     class="cls-1"
     d="m 429.54,432.74 a 11.27,11.27 0 1 1 -11.27,-11.27 11.28,11.28 0 0 1 11.27,11.27 z m -4.12,0 a 7.15,7.15 0 1 0 -7.15,7.14 7.16,7.16 0 0 0 7.15,-7.14 z"
     id="path510"
     style="fill:#ffffff" />
  <path
     class="cls-1"
     d="m 463.91,442.24 a 6,6 0 0 1 -4.26,1.76 6,6 0 0 1 -6,-6 v -12.55 a 2,2 0 0 1 0,-3.85 v -5.78 a 2.06,2.06 0 0 1 4.12,0 v 5.65 h 1.33 a 2.06,2.06 0 1 1 0,4.12 h -1.33 V 438 a 1.91,1.91 0 0 0 1.91,1.91 1.86,1.86 0 0 0 1.35,-0.56 2.0612193,2.0612193 0 1 1 2.91,2.92 z"
     id="path512"
     style="fill:#ffffff" />
  <path
     class="cls-1"
     d="m 489.43,431.39 v 10.55 a 2.06,2.06 0 1 1 -4.11,0 v -10.55 a 5.8,5.8 0 0 0 -11.6,0 v 10.55 a 2.06,2.06 0 0 1 -4.12,0 v -29.55 a 2.06,2.06 0 0 1 4.12,0 v 11 a 9.89,9.89 0 0 1 15.71,8 z"
     id="path514"
     style="fill:#ffffff" />
  <path
     class="cls-1"
     d="m 516.13,432.74 a 2.06,2.06 0 0 1 -2,2.06 H 498 a 7,7 0 0 0 1.78,3 7.15,7.15 0 0 0 10.11,0 2.06,2.06 0 0 1 2.91,2.91 11.26,11.26 0 0 1 -19.22,-7.8 0.86,0.86 0 0 1 0,-0.16 1,1 0 0 1 0,-0.17 11.260321,11.260321 0 0 1 22.52,0.17 z m -4.41,-2.06 a 7.16,7.16 0 0 0 -11.91,-3 7.08,7.08 0 0 0 -1.78,3 z"
     id="path516"
     style="fill:#ffffff" />
  <path
     class="cls-1"
     d="m 543,417.61 v 0 a 2.06,2.06 0 1 1 -2.06,-2.06 2.06,2.06 0 0 1 2.06,2.06 z m 0,5.92 v 18.41 a 2.06,2.06 0 0 1 -4.12,0 v -18.41 a 2.06,2.06 0 0 1 4.12,0 z"
     id="path518"
     style="fill:#ffffff" />
  <path
     class="cls-1"
     d="m 568.64,431.39 v 10.55 a 2.06,2.06 0 1 1 -4.12,0 v -10.55 a 5.8,5.8 0 1 0 -11.59,0 v 10.55 a 2.06,2.06 0 1 1 -4.12,0 v -18.41 a 2.0515604,2.0515604 0 0 1 4.1,-0.16 9.9,9.9 0 0 1 15.73,8 z"
     id="path520"
     style="fill:#ffffff" />
  <path
     class="cls-1"
     d="m 578.61,412.39 v 29.55 a 2.06,2.06 0 0 1 -4.12,0 v -29.55 a 2.06,2.06 0 0 1 4.12,0 z"
     id="path522"
     style="fill:#ffffff" />
  <path
     class="cls-1"
     d="m 606.48,432.74 a 2.07,2.07 0 0 1 -2.06,2.06 h -16 a 7.07,7.07 0 0 0 1.79,3 7.14,7.14 0 0 0 10.1,0 2.0612193,2.0612193 0 1 1 2.92,2.91 A 11.26,11.26 0 0 1 584,432.9 c 0,0 0,-0.11 0,-0.16 0,-0.05 0,-0.11 0,-0.17 a 11.27,11.27 0 0 1 22.53,0.17 z m -4.42,-2.06 a 7.16,7.16 0 0 0 -11.9,-3 7.1,7.1 0 0 0 -1.79,3 z"
     id="path524"
     style="fill:#ffffff" />
  <path
     class="cls-1"
     d="M 622.22,442.24 A 6,6 0 0 1 611.93,438 v -12.55 a 2,2 0 0 1 0,-3.85 v -5.78 a 2.06,2.06 0 1 1 4.12,0 v 5.65 h 1.33 a 2.06,2.06 0 1 1 0,4.12 h -1.33 V 438 a 1.91,1.91 0 0 0 1.91,1.91 1.86,1.86 0 0 0 1.35,-0.56 2.0612193,2.0612193 0 1 1 2.91,2.92 z"
     id="path526"
     style="fill:#ffffff" />
  <path
     class="cls-1"
     d="m 668.11,432.74 a 11.27,11.27 0 1 1 -11.26,-11.27 11.27,11.27 0 0 1 11.26,11.27 z m -4.11,0 a 7.15,7.15 0 1 0 -7.15,7.14 7.16,7.16 0 0 0 7.15,-7.14 z"
     id="path528"
     style="fill:#ffffff" />
  <path
     class="cls-1"
     d="m 687.31,415.52 a 2,2 0 0 1 -2.91,0 3.8,3.8 0 0 0 -6.48,2.69 v 3.26 h 3.4 a 2.06,2.06 0 0 1 0,4.12 h -3.4 v 16.35 a 2.06,2.06 0 1 1 -4.12,0 v -16.42 a 2,2 0 0 1 0,-4 v -3.32 a 7.91,7.91 0 0 1 13.51,-5.6 2.06,2.06 0 0 1 0,2.92 z"
     id="path530"
     style="fill:#ffffff" />
  <path
     class="cls-1"
     d="m 713.05,442.24 a 6,6 0 0 1 -4.26,1.76 6,6 0 0 1 -6,-6 v -12.55 a 2,2 0 0 1 0,-3.85 v -5.78 a 2.06,2.06 0 1 1 4.12,0 v 5.65 h 1.33 a 2.06,2.06 0 0 1 0,4.12 h -1.33 V 438 a 1.91,1.91 0 0 0 1.91,1.91 1.86,1.86 0 0 0 1.35,-0.56 2.0612193,2.0612193 0 1 1 2.91,2.92 z"
     id="path532"
     style="fill:#ffffff" />
  <path
     class="cls-1"
     d="m 738.57,431.39 v 10.55 a 2.06,2.06 0 1 1 -4.11,0 v -10.55 a 5.8,5.8 0 0 0 -11.6,0 v 10.55 a 2.06,2.06 0 0 1 -4.12,0 v -29.55 a 2.06,2.06 0 0 1 4.12,0 v 11 a 9.89,9.89 0 0 1 15.71,8 z"
     id="path534"
     style="fill:#ffffff" />
  <path
     class="cls-1"
     d="m 765.27,432.74 a 2.06,2.06 0 0 1 -2.06,2.06 h -16 a 7,7 0 0 0 1.78,3 7.15,7.15 0 0 0 10.11,0 2.06,2.06 0 0 1 2.9,2.9 11.26,11.26 0 0 1 -19.22,-7.8 0.86,0.86 0 0 1 0,-0.16 1,1 0 0 1 0,-0.17 11.260321,11.260321 0 0 1 22.52,0.17 z m -4.41,-2.06 a 7.16,7.16 0 0 0 -11.91,-3 7.08,7.08 0 0 0 -1.78,3 z"
     id="path536"
     style="fill:#ffffff" />
  <path
     class="cls-1"
     d="m 816.73,415.23 a 2.06,2.06 0 1 1 -2.91,2.91 12.71,12.71 0 1 0 -0.6,18.52 v -9.52 a 2.06,2.06 0 1 1 4.11,0 v 14.76 a 2.06,2.06 0 1 1 -4.11,0 v -0.18 a 16.83,16.83 0 1 1 3.51,-26.49 z"
     id="path538"
     style="fill:#ffffff" />
  <path
     class="cls-1"
     d="m 843,423.53 v 18.41 a 2.0515604,2.0515604 0 0 1 -4.1,0.16 9.9,9.9 0 0 1 -15.73,-8 v -10.57 a 2.06,2.06 0 0 1 4.12,0 v 10.56 a 5.8,5.8 0 0 0 11.59,0 v -10.56 a 2.06,2.06 0 0 1 4.12,0 z"
     id="path540"
     style="fill:#ffffff" />
  <path
     class="cls-1"
     d="m 853,412.39 v 29.55 a 2.06,2.06 0 0 1 -4.12,0 v -29.55 a 2.06,2.06 0 0 1 4.12,0 z"
     id="path542"
     style="fill:#ffffff" />
  <path
     class="cls-1"
     d="m 873.85,415.52 a 2,2 0 0 1 -2.91,0 3.8,3.8 0 0 0 -6.48,2.69 v 3.26 h 3.4 a 2.06,2.06 0 0 1 0,4.12 h -3.4 v 16.35 a 2.06,2.06 0 0 1 -4.12,0 v -16.42 a 2,2 0 0 1 0,-4 v -3.32 a 7.91,7.91 0 0 1 13.51,-5.6 2.06,2.06 0 0 1 0,2.92 z"
     id="path544"
     style="fill:#ffffff" />
  <path
     class="cls-1"
     d="m 910.49,432.74 a 11.27,11.27 0 1 1 -11.27,-11.27 11.28,11.28 0 0 1 11.27,11.27 z m -4.12,0 a 7.15,7.15 0 1 0 -7.15,7.14 7.16,7.16 0 0 0 7.15,-7.14 z"
     id="path546"
     style="fill:#ffffff" />
  <path
     class="cls-1"
     d="m 929.68,415.52 a 2,2 0 0 1 -2.91,0 3.76,3.76 0 0 0 -2.68,-1.11 3.8,3.8 0 0 0 -3.8,3.8 v 3.26 h 3.41 a 2.06,2.06 0 0 1 0,4.12 h -3.41 v 16.35 a 2.06,2.06 0 1 1 -4.12,0 v -16.42 a 2,2 0 0 1 0,-4 v -3.32 a 7.93,7.93 0 0 1 7.92,-7.92 7.83,7.83 0 0 1 5.59,2.32 2,2 0 0 1 0,2.92 z"
     id="path548"
     style="fill:#ffffff" />
  <path
     class="cls-1"
     d="M 2.88,499.5 V 470 A 2.06,2.06 0 1 1 7,470 v 14.88 l 21.9,-16.52 a 2.06,2.06 0 1 1 2.48,3.28 l -13.59,10.22 13.92,16.3 a 2,2 0 0 1 -0.23,2.9 2,2 0 0 1 -1.33,0.5 2.07,2.07 0 0 1 -1.57,-0.72 L 14.5,484.34 7,490 v 9.5 a 2.06,2.06 0 0 1 -4.12,0 z"
     id="path550"
     style="fill:#ffffff" />
  <path
     class="cls-1"
     d="M 56.23,490.34 A 11.27,11.27 0 1 1 45,479.07 11.28,11.28 0 0 1 56.23,490.34 Z m -4.12,0 a 7.15,7.15 0 1 0 -7.11,7.14 7.16,7.16 0 0 0 7.11,-7.14 z"
     id="path552"
     style="fill:#ffffff" />
  <path
     class="cls-1"
     d="m 72,499.84 a 6,6 0 0 1 -10.3,-4.27 v -12.52 a 2.05,2.05 0 0 1 0,-3.85 v -5.78 a 2.06,2.06 0 1 1 4.12,0 v 5.65 h 1.33 a 2.06,2.06 0 0 1 0,4.12 H 65.8 v 12.38 a 1.91,1.91 0 0 0 3.26,1.35 2.0718349,2.0718349 0 1 1 2.94,2.92 z"
     id="path554"
     style="fill:#ffffff" />
  <path
     class="cls-1"
     d="M 96.6,490.34 A 11.27,11.27 0 1 1 85.33,479.07 11.28,11.28 0 0 1 96.6,490.34 Z m -4.12,0 a 7.15,7.15 0 1 0 -7.15,7.14 7.16,7.16 0 0 0 7.15,-7.14 z"
     id="path556"
     style="fill:#ffffff" />
  <path
     class="cls-1"
     d="m 113.16,481.13 a 2.06,2.06 0 0 1 -2.06,2.06 5.8,5.8 0 0 0 -5.8,5.79 v 10.56 a 2.06,2.06 0 0 1 -4.12,0 v -18.41 a 2.06,2.06 0 0 1 4.11,-0.16 9.83,9.83 0 0 1 5.81,-1.9 2.06,2.06 0 0 1 2.06,2.06 z"
     id="path558"
     style="fill:#ffffff" />
  <path
     class="cls-1"
     d="m 115.39,499.3 a 2.23,2.23 0 1 1 2.23,2.23 2.23,2.23 0 0 1 -2.23,-2.23 z"
     id="path560"
     style="fill:#ffffff" />
  <path
     class="cls-1"
     d="m 151,467.9 h 12.59 a 2.06,2.06 0 0 1 0,4.12 h -10.52 v 27.48 a 2.06,2.06 0 0 1 -4.12,0 V 472 h -10.54 a 2.06,2.06 0 0 1 0,-4.12 H 151 Z"
     id="path562"
     style="fill:#ffffff" />
  <path
     class="cls-1"
     d="m 191.32,489 v 10.56 a 2.06,2.06 0 1 1 -4.12,0 V 489 a 5.8,5.8 0 0 0 -11.59,0 v 10.56 a 2.06,2.06 0 0 1 -4.12,0 V 470 a 2.06,2.06 0 0 1 4.12,0 v 11 a 9.79,9.79 0 0 1 5.8,-1.89 9.93,9.93 0 0 1 9.91,9.89 z"
     id="path564"
     style="fill:#ffffff" />
  <path
     class="cls-1"
     d="m 218,490.34 a 2.06,2.06 0 0 1 -2,2.06 h -16.09 a 7.15,7.15 0 0 0 11.9,3 2.06,2.06 0 0 1 2.91,2.91 11.26,11.26 0 0 1 -19.22,-7.8 0.92,0.92 0 0 1 0,-0.16 1,1 0 0 1 0,-0.17 11.260321,11.260321 0 0 1 22.52,0.17 z m -4.41,-2.06 a 7.15,7.15 0 0 0 -13.7,0 z"
     id="path566"
     style="fill:#ffffff" />
  <path
     class="cls-1"
     d="m 257.28,498.3 a 11.27,11.27 0 1 1 0,-15.93 2.06,2.06 0 0 1 -2.91,2.91 7.15,7.15 0 1 0 0,10.11 2.06,2.06 0 0 1 2.91,2.91 z"
     id="path568"
     style="fill:#ffffff" />
  <path
     class="cls-1"
     d="m 284.54,490.34 a 11.27,11.27 0 1 1 -11.27,-11.27 11.28,11.28 0 0 1 11.27,11.27 z m -4.12,0 a 7.15,7.15 0 1 0 -7.15,7.14 7.16,7.16 0 0 0 7.15,-7.14 z"
     id="path570"
     style="fill:#ffffff" />
  <path
     class="cls-1"
     d="m 311.18,490.34 v 0 9.19 a 2.06,2.06 0 1 1 -4.12,0 V 499 a 11.27,11.27 0 1 1 0,-17.41 v -0.5 a 2.06,2.06 0 0 1 4.12,0 v 9.21 z m -4.12,0 a 7.15,7.15 0 1 0 -7.15,7.16 7.16,7.16 0 0 0 7.15,-7.16 z"
     id="path572"
     style="fill:#ffffff" />
  <path
     class="cls-1"
     d="m 328.14,495 a 2.62,2.62 0 0 0 -1.85,-1.81 l -4.79,-1.82 a 6.59,6.59 0 0 1 -4.47,-5 5.89,5.89 0 0 1 2.37,-5.55 v 0 a 8.79,8.79 0 0 1 10.44,0 v 0 a 6,6 0 0 1 2.43,4.71 2.06,2.06 0 0 1 -4.12,0 2,2 0 0 0 -0.84,-1.47 v 0 a 4.76,4.76 0 0 0 -5.38,0 v 0 a 1.81,1.81 0 0 0 -0.83,1.68 2.62,2.62 0 0 0 1.84,1.81 l 4.8,1.82 a 6.58,6.58 0 0 1 4.46,5 5.86,5.86 0 0 1 -2.36,5.55 v 0 a 8.78,8.78 0 0 1 -10.44,0 v 0 a 6,6 0 0 1 -2.43,-4.71 2.06,2.06 0 1 1 4.11,0 2,2 0 0 0 0.85,1.47 4.76,4.76 0 0 0 5.38,0 v 0 a 1.81,1.81 0 0 0 0.83,-1.68 z"
     id="path574"
     style="fill:#ffffff" />
  <path
     class="cls-1"
     d="m 349.68,499.84 a 6,6 0 0 1 -10.3,-4.27 v -12.52 a 2.05,2.05 0 0 1 0,-3.85 v -5.78 a 2.06,2.06 0 0 1 4.12,0 v 5.65 h 1.33 a 2.06,2.06 0 1 1 0,4.12 h -1.33 v 12.38 a 1.91,1.91 0 0 0 1.91,1.91 1.94,1.94 0 0 0 1.36,-0.56 2.0612193,2.0612193 0 1 1 2.91,2.92 z"
     id="path576"
     style="fill:#ffffff" />
  <path
     class="cls-1"
     d="m 374.3,490.34 v 0 9.19 a 2.06,2.06 0 1 1 -4.12,0 V 499 a 11.27,11.27 0 1 1 0,-17.41 v -0.5 a 2.06,2.06 0 0 1 4.12,0 v 9.21 z m -4.12,0 a 7.15,7.15 0 1 0 -7.15,7.16 7.16,7.16 0 0 0 7.15,-7.16 z"
     id="path578"
     style="fill:#ffffff" />
  <path
     class="cls-1"
     d="m 384.2,470 v 29.55 a 2.06,2.06 0 1 1 -4.11,0 V 470 a 2.06,2.06 0 1 1 4.11,0 z"
     id="path580"
     style="fill:#ffffff" />
  <path
     class="cls-1"
     d="m 416.24,481.13 a 2.06,2.06 0 0 1 -2.06,2.06 5.8,5.8 0 0 0 -5.8,5.79 v 10.56 a 2.06,2.06 0 0 1 -4.12,0 v -18.41 a 2.06,2.06 0 0 1 4.11,-0.16 9.83,9.83 0 0 1 5.81,-1.9 2.06,2.06 0 0 1 2.06,2.06 z"
     id="path582"
     style="fill:#ffffff" />
  <path
     class="cls-1"
     d="m 440,490.34 a 2.06,2.06 0 0 1 -2.06,2.06 h -16.05 a 7.07,7.07 0 0 0 1.79,3 7.15,7.15 0 0 0 10.11,0 2.06,2.06 0 0 1 2.91,2.91 11.27,11.27 0 0 1 -19.23,-7.8 c 0,-0.06 0,-0.11 0,-0.16 0,-0.05 0,-0.11 0,-0.17 a 11.27,11.27 0 0 1 22.53,0.17 z m -4.42,-2.06 a 7.27,7.27 0 0 0 -1.79,-3 7.15,7.15 0 0 0 -11.9,3 z"
     id="path584"
     style="fill:#ffffff" />
  <path
     class="cls-1"
     d="m 466.64,481.13 v 20.39 a 11.27,11.27 0 0 1 -19.24,8 2.0612193,2.0612193 0 0 1 2.92,-2.91 7.15,7.15 0 0 0 12.2,-5.05 V 499 a 11.27,11.27 0 1 1 0,-17.41 v -0.5 a 2.06,2.06 0 0 1 4.12,0 z m -4.12,9.21 a 7.15,7.15 0 1 0 -7.15,7.14 7.16,7.16 0 0 0 7.15,-7.14 z"
     id="path586"
     style="fill:#ffffff" />
  <path
     class="cls-1"
     d="m 476.54,475.21 v 0 a 2.06,2.06 0 1 1 -2.06,-2.06 2.06,2.06 0 0 1 2.06,2.06 z m 0,5.92 v 18.41 a 2.06,2.06 0 1 1 -4.12,0 v -18.41 a 2.06,2.06 0 0 1 4.12,0 z"
     id="path588"
     style="fill:#ffffff" />
  <path
     class="cls-1"
     d="m 504.89,490.34 a 11.27,11.27 0 1 1 -11.26,-11.27 11.27,11.27 0 0 1 11.26,11.27 z m -4.12,0 a 7.15,7.15 0 1 0 -7.14,7.14 7.15,7.15 0 0 0 7.14,-7.14 z"
     id="path590"
     style="fill:#ffffff" />
  <path
     class="cls-1"
     d="m 529.31,489 v 10.56 a 2.06,2.06 0 0 1 -4.12,0 V 489 a 5.8,5.8 0 0 0 -11.59,0 v 10.56 a 2.06,2.06 0 0 1 -4.12,0 v -18.43 a 2.0515604,2.0515604 0 0 1 4.1,-0.16 9.9,9.9 0 0 1 15.73,8 z"
     id="path592"
     style="fill:#ffffff" />
  <path
     class="cls-1"
     d="m 553.52,475.21 v 0 a 2.06,2.06 0 1 1 -2.06,-2.06 2.06,2.06 0 0 1 2.06,2.06 z m 0,5.92 v 18.41 a 2.06,2.06 0 1 1 -4.12,0 v -18.41 a 2.06,2.06 0 1 1 4.12,0 z"
     id="path594"
     style="fill:#ffffff" />
  <path
     class="cls-1"
     d="m 570.51,495 a 2.62,2.62 0 0 0 -1.84,-1.81 l -4.8,-1.82 a 6.59,6.59 0 0 1 -4.47,-5 5.91,5.91 0 0 1 2.37,-5.55 v 0 a 8.79,8.79 0 0 1 10.44,0 v 0 a 6,6 0 0 1 2.43,4.71 2.06,2.06 0 1 1 -4.12,0 2,2 0 0 0 -0.84,-1.47 v 0 a 4.75,4.75 0 0 0 -5.37,0 v 0 a 1.83,1.83 0 0 0 -0.83,1.68 2.62,2.62 0 0 0 1.84,1.81 l 4.8,1.82 a 6.59,6.59 0 0 1 4.47,5 5.9,5.9 0 0 1 -2.36,5.55 v 0 a 8.78,8.78 0 0 1 -10.44,0 v 0 a 6,6 0 0 1 -2.43,-4.71 2.06,2.06 0 0 1 4.12,0 2,2 0 0 0 0.84,1.47 4.76,4.76 0 0 0 5.38,0 v 0 a 1.81,1.81 0 0 0 0.81,-1.68 z"
     id="path596"
     style="fill:#ffffff" />
  <path
     class="cls-1"
     d="m 614.49,489 v 10.56 a 2.06,2.06 0 0 1 -4.12,0 V 489 a 5.8,5.8 0 0 0 -11.6,0 v 10.56 a 2.06,2.06 0 1 1 -4.12,0 v -18.43 a 2.06,2.06 0 0 1 4.11,-0.16 9.83,9.83 0 0 1 5.81,-1.9 9.93,9.93 0 0 1 9.92,9.93 z"
     id="path598"
     style="fill:#ffffff" />
  <path
     class="cls-1"
     d="m 641.18,490.34 a 11.27,11.27 0 1 1 -11.26,-11.27 11.27,11.27 0 0 1 11.26,11.27 z m -4.11,0 a 7.15,7.15 0 1 0 -7.15,7.14 7.16,7.16 0 0 0 7.15,-7.14 z"
     id="path600"
     style="fill:#ffffff" />
  <path
     class="cls-1"
     d="m 656.93,499.84 a 6,6 0 0 1 -10.29,-4.27 v -12.52 a 2,2 0 0 1 0,-3.85 v -5.78 a 2.06,2.06 0 1 1 4.12,0 v 5.65 h 1.33 a 2.06,2.06 0 0 1 0,4.12 h -1.33 v 12.38 a 1.91,1.91 0 0 0 3.26,1.35 2.0612193,2.0612193 0 0 1 2.91,2.92 z"
     id="path602"
     style="fill:#ffffff" />
  <path
     class="cls-1"
     d="m 681.55,490.34 a 2.06,2.06 0 0 1 -2.06,2.06 h -16 a 7.15,7.15 0 0 0 11.9,3 2.06,2.06 0 1 1 2.91,2.91 11.26,11.26 0 0 1 -19.3,-7.81 0.92,0.92 0 0 1 0,-0.16 1,1 0 0 1 0,-0.17 11.260321,11.260321 0 0 1 22.52,0.17 z m -4.41,-2.06 a 7.15,7.15 0 0 0 -13.7,0 z"
     id="path604"
     style="fill:#ffffff" />
  <path
     class="cls-1"
     d="m 708.19,490.34 v 0 9.19 a 2.06,2.06 0 1 1 -4.11,0 V 499 a 11.27,11.27 0 1 1 0,-17.41 V 470 a 2.06,2.06 0 1 1 4.11,0 v 20.35 z m -4.11,0 a 7.15,7.15 0 1 0 -7.15,7.16 7.16,7.16 0 0 0 7.15,-7.16 z"
     id="path606"
     style="fill:#ffffff" />
  <path
     class="cls-1"
     d="m 743.31,473.12 a 2,2 0 0 1 -2.91,0 3.76,3.76 0 0 0 -2.68,-1.11 3.8,3.8 0 0 0 -3.8,3.8 v 3.26 h 3.41 a 2.06,2.06 0 0 1 0,4.12 h -3.41 v 16.35 a 2.06,2.06 0 1 1 -4.12,0 v -16.42 a 2,2 0 0 1 0,-4 v -3.32 a 7.93,7.93 0 0 1 7.92,-7.92 7.83,7.83 0 0 1 5.59,2.32 2,2 0 0 1 0,2.92 z"
     id="path608"
     style="fill:#ffffff" />
  <path
     class="cls-1"
     d="m 759.83,490.34 a 11.27,11.27 0 1 1 -11.27,-11.27 11.28,11.28 0 0 1 11.27,11.27 z m -4.12,0 a 7.15,7.15 0 1 0 -7.15,7.14 7.16,7.16 0 0 0 7.15,-7.14 z"
     id="path610"
     style="fill:#ffffff" />
  <path
     class="cls-1"
     d="m 776.39,481.13 a 2.06,2.06 0 0 1 -2.06,2.06 5.8,5.8 0 0 0 -5.79,5.79 v 10.56 a 2.06,2.06 0 1 1 -4.12,0 v -18.41 a 2.0515604,2.0515604 0 0 1 4.1,-0.16 9.85,9.85 0 0 1 5.81,-1.9 2.06,2.06 0 0 1 2.06,2.06 z"
     id="path612"
     style="fill:#ffffff" />
  <path
     class="cls-1"
     d="m 819,490.34 v 0 9.19 a 2.06,2.06 0 0 1 -4.12,0 V 499 a 11.27,11.27 0 1 1 0,-17.41 v -0.5 a 2.06,2.06 0 0 1 4.12,0 v 9.21 z m -4.12,0 a 7.15,7.15 0 1 0 -7.14,7.16 7.15,7.15 0 0 0 7.14,-7.16 z"
     id="path614"
     style="fill:#ffffff" />
  <path
     class="cls-1"
     d="m 843.49,498.3 a 11.27,11.27 0 1 1 0,-15.93 2.0612193,2.0612193 0 0 1 -2.92,2.91 7.15,7.15 0 1 0 0,10.11 2.0612193,2.0612193 0 0 1 2.92,2.91 z"
     id="path616"
     style="fill:#ffffff" />
  <path
     class="cls-1"
     d="m 859.85,499.84 a 6,6 0 0 1 -10.29,-4.27 v -12.52 a 2,2 0 0 1 0,-3.85 v -5.78 a 2.06,2.06 0 1 1 4.12,0 v 5.65 H 855 a 2.06,2.06 0 1 1 0,4.12 h -1.32 v 12.38 a 1.91,1.91 0 0 0 3.26,1.35 2.0612193,2.0612193 0 0 1 2.91,2.92 z"
     id="path618"
     style="fill:#ffffff" />
  <path
     class="cls-1"
     d="m 870.38,475.21 v 0 a 2.06,2.06 0 1 1 -2.06,-2.06 2.06,2.06 0 0 1 2.06,2.06 z m 0,5.92 v 18.41 a 2.06,2.06 0 1 1 -4.12,0 v -18.41 a 2.06,2.06 0 1 1 4.12,0 z"
     id="path620"
     style="fill:#ffffff" />
  <path
     class="cls-1"
     d="M 895.86,481.94 888,500.35 a 2.05,2.05 0 0 1 -3.78,0 l -7.86,-18.41 a 2.0608554,2.0608554 0 1 1 3.79,-1.62 l 6,14 6,-14 a 2.06,2.06 0 1 1 3.78,1.62 z"
     id="path622"
     style="fill:#ffffff" />
  <path
     class="cls-1"
     d="M 921.05,490.34 A 2.06,2.06 0 0 1 919,492.4 h -16 a 7.07,7.07 0 0 0 1.79,3 7.14,7.14 0 0 0 10.1,0 2.0612193,2.0612193 0 0 1 2.92,2.91 11.26,11.26 0 0 1 -19.23,-7.8 c 0,-0.06 0,-0.11 0,-0.16 0,-0.05 0,-0.11 0,-0.17 a 11.27,11.27 0 0 1 22.53,0.17 z m -4.42,-2.06 a 7.16,7.16 0 0 0 -11.9,-3 7.1,7.1 0 0 0 -1.79,3 z"
     id="path624"
     style="fill:#ffffff" />
  <path
     class="cls-1"
     d="m 14.05,552.58 a 2.62,2.62 0 0 0 -1.84,-1.81 L 7.41,549 a 6.58,6.58 0 0 1 -4.46,-5 5.88,5.88 0 0 1 2.36,-5.55 v 0 a 8.78,8.78 0 0 1 10.43,0 v 0 a 6,6 0 0 1 2.43,4.71 2.06,2.06 0 0 1 -4.12,0 1.93,1.93 0 0 0 -0.85,-1.47 v 0 a 4.75,4.75 0 0 0 -5.37,0 v 0 a 1.79,1.79 0 0 0 -0.83,1.6 2.58,2.58 0 0 0 1.84,1.81 l 4.79,1.82 a 6.59,6.59 0 0 1 4.47,5 5.9,5.9 0 0 1 -2.36,5.55 v 0 a 8.46,8.46 0 0 1 -5.22,1.72 8.46,8.46 0 0 1 -5.22,-1.72 v 0 a 6,6 0 0 1 -2.43,-4.71 2.06,2.06 0 0 1 4.12,0 1.93,1.93 0 0 0 0.85,1.47 4.75,4.75 0 0 0 5.37,0 v 0 a 1.81,1.81 0 0 0 0.84,-1.65 z"
     id="path626"
     style="fill:#ffffff" />
  <path
     class="cls-1"
     d="M 44.81,547.94 A 2.07,2.07 0 0 1 42.75,550 h -16 a 7,7 0 0 0 1.79,3 7.14,7.14 0 0 0 10.1,0 2.0612193,2.0612193 0 1 1 2.92,2.91 11.26,11.26 0 0 1 -19.23,-7.8 0.86,0.86 0 0 1 0,-0.16 c 0,-0.06 0,-0.11 0,-0.17 a 11.27,11.27 0 0 1 22.53,0.17 z m -4.42,-2.06 a 7.16,7.16 0 0 0 -11.9,-3 7,7 0 0 0 -1.79,3 z"
     id="path628"
     style="fill:#ffffff" />
  <path
     class="cls-1"
     d="m 54.71,532.81 v 0 a 2.06,2.06 0 1 1 -2.06,-2.06 2.06,2.06 0 0 1 2.06,2.06 z m 0,5.92 v 18.41 a 2.06,2.06 0 0 1 -4.12,0 v -18.41 a 2.06,2.06 0 1 1 4.12,0 z"
     id="path630"
     style="fill:#ffffff" />
  <path
     class="cls-1"
     d="m 71.7,552.58 a 2.62,2.62 0 0 0 -1.84,-1.81 L 65.06,549 a 6.59,6.59 0 0 1 -4.47,-5 5.91,5.91 0 0 1 2.41,-5.63 v 0 a 8.79,8.79 0 0 1 10.44,0 v 0 a 6,6 0 0 1 2.43,4.71 2.06,2.06 0 0 1 -4.12,0 2,2 0 0 0 -0.84,-1.47 v 0 a 4.75,4.75 0 0 0 -5.37,0 v 0 a 1.83,1.83 0 0 0 -0.83,1.68 2.62,2.62 0 0 0 1.84,1.81 l 4.8,1.82 a 6.59,6.59 0 0 1 4.47,5 5.9,5.9 0 0 1 -2.36,5.55 v 0 a 8.78,8.78 0 0 1 -10.44,0 v 0 a 6,6 0 0 1 -2.43,-4.71 2.06,2.06 0 0 1 4.12,0 2,2 0 0 0 0.84,1.47 4.76,4.76 0 0 0 5.38,0 v 0 a 1.83,1.83 0 0 0 0.77,-1.65 z"
     id="path632"
     style="fill:#ffffff" />
  <path
     class="cls-1"
     d="m 116.67,546.59 v 10.55 a 2.06,2.06 0 1 1 -4.12,0 v -10.55 a 5.8,5.8 0 0 0 -11.6,0 v 10.55 a 2.06,2.06 0 1 1 -4.12,0 v -10.55 a 5.8,5.8 0 1 0 -11.59,0 v 10.55 a 2.06,2.06 0 0 1 -4.12,0 v -18.41 a 2.0515604,2.0515604 0 0 1 4.1,-0.16 9.86,9.86 0 0 1 13.67,2 9.91,9.91 0 0 1 17.78,6 z"
     id="path634"
     style="fill:#ffffff" />
  <path
     class="cls-1"
     d="m 126.61,532.81 v 0 a 2.06,2.06 0 1 1 -2.06,-2.06 2.06,2.06 0 0 1 2.06,2.06 z m 0,5.92 v 18.41 a 2.06,2.06 0 1 1 -4.11,0 v -18.41 a 2.06,2.06 0 1 1 4.11,0 z"
     id="path636"
     style="fill:#ffffff" />
  <path
     class="cls-1"
     d="m 151.66,555.9 a 11.27,11.27 0 1 1 0,-15.93 2.0612193,2.0612193 0 1 1 -2.92,2.91 7.15,7.15 0 1 0 0,10.11 2.06,2.06 0 1 1 2.91,2.91 z"
     id="path638"
     style="fill:#ffffff" />
  <path
     class="cls-1"
     d="m 162.18,532.81 v 0 a 2.06,2.06 0 1 1 -2.06,-2.06 2.06,2.06 0 0 1 2.06,2.06 z m 0,5.92 v 18.41 a 2.06,2.06 0 1 1 -4.12,0 v -18.41 a 2.06,2.06 0 0 1 4.12,0 z"
     id="path640"
     style="fill:#ffffff" />
  <path
     class="cls-1"
     d="m 179.64,557.44 a 6,6 0 0 1 -10.29,-4.26 v -12.53 a 2,2 0 0 1 0,-3.85 V 531 a 2.06,2.06 0 1 1 4.11,0 v 5.65 h 1.33 a 2.06,2.06 0 1 1 0,4.12 h -1.32 v 12.38 a 1.91,1.91 0 0 0 3.26,1.35 2.0612193,2.0612193 0 1 1 2.91,2.92 z"
     id="path642"
     style="fill:#ffffff" />
  <path
     class="cls-1"
     d="m 200.43,539.54 -3.26,7.64 v 0 l -9.3,21.91 a 2.05,2.05 0 0 1 -1.89,1.25 2.09,2.09 0 0 1 -0.81,-0.16 2.06,2.06 0 0 1 -1.09,-2.7 l 4.38,-10.31 -7.53,-17.63 a 2.0608554,2.0608554 0 0 1 3.79,-1.62 l 6,14 2.68,-6.26 v -0.06 0 l 3.27,-7.65 a 2.06,2.06 0 0 1 3.78,1.62 z"
     id="path644"
     style="fill:#ffffff" />
  <path
     class="cls-1"
     d="m 202.89,556.9 a 2.23,2.23 0 1 1 2.23,2.23 2.23,2.23 0 0 1 -2.23,-2.23 z"
     id="path646"
     style="fill:#ffffff" />
</svg>
