<svg id="Слой_1" data-name="Слой 1" xmlns="http://www.w3.org/2000/svg" viewBox="0 0 923.95 982.19"><defs><style>.cls-1{fill:#fff;}</style></defs><title>Монтажная область 3</title><path class="cls-1" d="M140.74,7.1h12.58a2.06,2.06,0,1,1,0,4.12H142.79V38.7a2.06,2.06,0,0,1-4.12,0V11.22H128.13a2.06,2.06,0,0,1,0-4.12h12.61Z"/><path class="cls-1" d="M169.82,29.54a2.06,2.06,0,0,1-2.06,2.06h-16a7.07,7.07,0,0,0,1.79,3,7.15,7.15,0,0,0,10.11,0,2.06,2.06,0,0,1,2.91,2.91,11.27,11.27,0,0,1-19.23-7.8v-.33a11.27,11.27,0,0,1,22.53.17Zm-4.42-2.06a7.06,7.06,0,0,0-1.79-3,7.15,7.15,0,0,0-11.9,3Z"/><path class="cls-1" d="M186.38,20.33a2.06,2.06,0,0,1-2.06,2.06,5.81,5.81,0,0,0-5.8,5.79V38.74a2.06,2.06,0,1,1-4.11,0V20.33a2.05,2.05,0,0,1,4.1-.16,9.83,9.83,0,0,1,5.81-1.9A2.06,2.06,0,0,1,186.38,20.33Z"/><path class="cls-1" d="M204.14,20.33a2.06,2.06,0,0,1-2.06,2.06,5.81,5.81,0,0,0-5.8,5.79V38.74a2.06,2.06,0,1,1-4.11,0V20.33a2.05,2.05,0,0,1,4.1-.16,9.83,9.83,0,0,1,5.81-1.9A2.06,2.06,0,0,1,204.14,20.33Z"/><path class="cls-1" d="M227.9,29.54h0v9.19a2.06,2.06,0,0,1-4.12,0v-.5a11.27,11.27,0,1,1,0-17.41v-.5a2.06,2.06,0,0,1,4.12,0v9.21Zm-4.12,0a7.15,7.15,0,1,0-7.15,7.16,7.16,7.16,0,0,0,7.15-7.16Z"/><path class="cls-1" d="M237.8,14.41h0a2.06,2.06,0,1,1-2.05-2.06A2.05,2.05,0,0,1,237.8,14.41Zm0,5.92V38.74a2.06,2.06,0,1,1-4.11,0V20.33a2.06,2.06,0,1,1,4.11,0Z"/><path class="cls-1" d="M263.45,28.18V38.74a2.06,2.06,0,1,1-4.12,0V28.18a5.8,5.8,0,0,0-11.59,0V38.74a2.06,2.06,0,0,1-4.12,0V20.33a2.05,2.05,0,0,1,4.1-.16,9.9,9.9,0,0,1,15.73,8Z"/><path class="cls-1" d="M306.69,14.41h0a2.06,2.06,0,1,1-2.06-2.06A2.06,2.06,0,0,1,306.69,14.41Zm0,5.92V38.74a2.06,2.06,0,1,1-4.12,0V20.33a2.06,2.06,0,0,1,4.12,0Z"/><path class="cls-1" d="M332.34,28.18V38.74a2.06,2.06,0,0,1-4.12,0V28.18a5.8,5.8,0,0,0-11.59,0V38.74a2.06,2.06,0,0,1-4.12,0V20.33a2.05,2.05,0,0,1,4.1-.16,9.9,9.9,0,0,1,15.73,8Z"/><path class="cls-1" d="M375.08,7.82l14.18,16.63L403.44,7.82a2.06,2.06,0,0,1,3.62,1.34V38.7a2.06,2.06,0,1,1-4.12,0v-24L390.83,29l-.12.12-.11.11,0,0-.18.13-.16.09a1.63,1.63,0,0,1-.19.09l-.18.07-.19,0a1.38,1.38,0,0,1-.2,0h-.39a1.52,1.52,0,0,1-.21,0l-.18,0-.19-.07-.18-.08a.91.91,0,0,1-.16-.11,1.22,1.22,0,0,1-.19-.12l0,0a.68.68,0,0,1-.12-.12L387.7,29,375.58,14.75v24a2.06,2.06,0,1,1-4.12,0V9.16a2.06,2.06,0,0,1,3.62-1.34Z"/><path class="cls-1" d="M435.37,29.54A11.27,11.27,0,1,1,424.1,18.27,11.28,11.28,0,0,1,435.37,29.54Zm-4.12,0a7.15,7.15,0,1,0-7.15,7.14A7.15,7.15,0,0,0,431.25,29.54Z"/><path class="cls-1" d="M459.79,28.18V38.74a2.06,2.06,0,1,1-4.12,0V28.18a5.8,5.8,0,0,0-11.6,0V38.74a2.06,2.06,0,1,1-4.12,0V20.33a2.06,2.06,0,0,1,4.11-.16,9.83,9.83,0,0,1,5.81-1.9A9.93,9.93,0,0,1,459.79,28.18Z"/><path class="cls-1" d="M475.59,39a6,6,0,0,1-4.26,1.76,6,6,0,0,1-6-6V22.25a2,2,0,0,1,0-3.85V12.62a2.06,2.06,0,1,1,4.12,0v5.65h1.33a2.06,2.06,0,1,1,0,4.12h-1.33V34.77a1.91,1.91,0,0,0,3.26,1.35A2.06,2.06,0,0,1,475.59,39Z"/><path class="cls-1" d="M500.21,29.54a2.06,2.06,0,0,1-2,2.06H482.11a7,7,0,0,0,1.78,3,7.15,7.15,0,0,0,10.11,0,2.06,2.06,0,1,1,2.92,2.91,11.26,11.26,0,0,1-19.23-7.8.92.92,0,0,1,0-.16,1,1,0,0,1,0-.17,11.26,11.26,0,0,1,22.52.17Zm-4.41-2.06a7.16,7.16,0,0,0-11.91-3,7.08,7.08,0,0,0-1.78,3Z"/><path class="cls-1" d="M524.63,28.18V38.74a2.06,2.06,0,1,1-4.11,0V28.18a5.8,5.8,0,0,0-11.6,0V38.74a2.06,2.06,0,1,1-4.12,0V20.33a2.06,2.06,0,0,1,4.11-.16,9.89,9.89,0,0,1,15.72,8Z"/><path class="cls-1" d="M551.33,29.54a2.06,2.06,0,0,1-2.05,2.06h-16a7,7,0,0,0,1.78,3,7.15,7.15,0,0,0,10.11,0A2.06,2.06,0,0,1,548,37.5a11.26,11.26,0,0,1-19.23-7.8.92.92,0,0,1,0-.16,1,1,0,0,1,0-.17,11.26,11.26,0,0,1,22.52.17Zm-4.41-2.06a7.16,7.16,0,0,0-11.91-3,7.08,7.08,0,0,0-1.78,3Z"/><path class="cls-1" d="M578,20.33V40.72a11.26,11.26,0,0,1-19.23,8,2.06,2.06,0,1,1,2.91-2.91,7.16,7.16,0,0,0,12.21-5.06V38.24a11.27,11.27,0,1,1,0-17.41v-.5a2.06,2.06,0,1,1,4.11,0Zm-4.11,9.21a7.15,7.15,0,1,0-7.15,7.14A7.15,7.15,0,0,0,573.86,29.54Z"/><path class="cls-1" d="M595.74,20.33a2.06,2.06,0,0,1-2.06,2.06,5.8,5.8,0,0,0-5.8,5.79V38.74a2.06,2.06,0,1,1-4.12,0V20.33a2.06,2.06,0,0,1,4.11-.16,9.83,9.83,0,0,1,5.81-1.9A2.06,2.06,0,0,1,595.74,20.33Z"/><path class="cls-1" d="M619.5,29.54a11.27,11.27,0,1,1-11.27-11.27A11.28,11.28,0,0,1,619.5,29.54Zm-4.12,0a7.15,7.15,0,1,0-7.15,7.14A7.15,7.15,0,0,0,615.38,29.54Z"/><path class="cls-1" d="M670.53,20.33a2.06,2.06,0,0,1-2.06,2.06,5.8,5.8,0,0,0-5.8,5.79V38.74a2.06,2.06,0,1,1-4.12,0V20.33a2.06,2.06,0,0,1,4.11-.16,9.83,9.83,0,0,1,5.81-1.9A2.06,2.06,0,0,1,670.53,20.33Z"/><path class="cls-1" d="M694.29,29.54h0v9.19a2.06,2.06,0,1,1-4.12,0v-.5a11.27,11.27,0,1,1,0-17.41v-.5a2.06,2.06,0,1,1,4.12,0v9.21Zm-4.12,0A7.15,7.15,0,1,0,683,36.68a7.16,7.16,0,0,0,7.15-7.16Z"/><path class="cls-1" d="M719.91,28.18V38.74a2.06,2.06,0,1,1-4.12,0V28.18a5.8,5.8,0,0,0-11.6,0V38.74a2.06,2.06,0,0,1-4.12,0V20.33a2.06,2.06,0,0,1,4.11-.16,9.83,9.83,0,0,1,5.81-1.9A9.93,9.93,0,0,1,719.91,28.18Z"/><path class="cls-1" d="M746.61,20.33V40.72a11.27,11.27,0,0,1-19.24,8,2.06,2.06,0,1,1,2.92-2.91,7.15,7.15,0,0,0,12.2-5.06V38.24a11.27,11.27,0,1,1,0-17.41v-.5a2.06,2.06,0,0,1,4.12,0Zm-4.12,9.21a7.15,7.15,0,1,0-7.15,7.14A7.15,7.15,0,0,0,742.49,29.54Z"/><path class="cls-1" d="M774.45,29.54a2.06,2.06,0,0,1-2.06,2.06h-16a7.07,7.07,0,0,0,1.79,3,7.15,7.15,0,0,0,10.11,0,2.06,2.06,0,0,1,2.91,2.91,11.26,11.26,0,0,1-19.23-7.8c0-.06,0-.11,0-.16s0-.11,0-.17a11.27,11.27,0,0,1,22.53.17ZM770,27.48a7.27,7.27,0,0,0-1.79-3,7.15,7.15,0,0,0-11.9,3Z"/><path class="cls-1" d="M789.72,34.18a2.58,2.58,0,0,0-1.84-1.81l-4.79-1.82a6.59,6.59,0,0,1-4.47-5A5.89,5.89,0,0,1,781,20h0a8.82,8.82,0,0,1,10.44,0h0a6,6,0,0,1,2.43,4.71,2.06,2.06,0,0,1-4.12,0,1.93,1.93,0,0,0-.85-1.47h0a4.75,4.75,0,0,0-5.37,0h0a1.81,1.81,0,0,0-.83,1.68,2.62,2.62,0,0,0,1.84,1.81l4.8,1.82a6.58,6.58,0,0,1,4.46,5,5.88,5.88,0,0,1-2.36,5.55h0a8.78,8.78,0,0,1-10.44,0h0a6,6,0,0,1-2.43-4.71,2.06,2.06,0,1,1,4.12,0,1.93,1.93,0,0,0,.85,1.47,4.75,4.75,0,0,0,5.37,0h0A1.78,1.78,0,0,0,789.72,34.18Z"/><path class="cls-1" d="M848,12.32a2.06,2.06,0,0,1-2.92,0,3.74,3.74,0,0,0-2.68-1.11,3.8,3.8,0,0,0-3.8,3.79v3.27H842a2.06,2.06,0,0,1,0,4.12h-3.41V38.74a2.06,2.06,0,0,1-4.12,0V22.32a2.05,2.05,0,0,1,0-4V15A7.92,7.92,0,0,1,848,9.41,2.06,2.06,0,0,1,848,12.32Z"/><path class="cls-1" d="M857.11,20.33a2.06,2.06,0,0,1-2.06,2.06,5.8,5.8,0,0,0-5.79,5.79V38.74a2.06,2.06,0,1,1-4.12,0V20.33a2.05,2.05,0,0,1,4.1-.16,9.85,9.85,0,0,1,5.81-1.9A2.06,2.06,0,0,1,857.11,20.33Z"/><path class="cls-1" d="M880.87,29.54A11.27,11.27,0,1,1,869.6,18.27,11.27,11.27,0,0,1,880.87,29.54Zm-4.12,0a7.15,7.15,0,1,0-7.15,7.14A7.15,7.15,0,0,0,876.75,29.54Z"/><path class="cls-1" d="M921,28.18V38.74a2.06,2.06,0,1,1-4.11,0V28.18a5.8,5.8,0,0,0-11.6,0V38.74a2.06,2.06,0,1,1-4.12,0V28.18a5.8,5.8,0,0,0-11.59,0V38.74a2.06,2.06,0,0,1-4.12,0V20.33a2.05,2.05,0,0,1,4.1-.16,9.86,9.86,0,0,1,13.67,2,9.9,9.9,0,0,1,17.77,6Z"/><path class="cls-1" d="M22.71,85.78V96.34a2.06,2.06,0,0,1-4.12,0V85.78A5.8,5.8,0,0,0,7,85.78V96.34a2.06,2.06,0,0,1-4.12,0V66.79a2.06,2.06,0,0,1,4.12,0v11a9.79,9.79,0,0,1,5.8-1.89A9.93,9.93,0,0,1,22.71,85.78Z"/><path class="cls-1" d="M32.68,72h0A2.06,2.06,0,1,1,30.62,70,2.06,2.06,0,0,1,32.68,72Zm0,5.92V96.34a2.06,2.06,0,1,1-4.12,0V77.93a2.06,2.06,0,1,1,4.12,0Z"/><path class="cls-1" d="M61,77.93V98.32a11.27,11.27,0,0,1-19.24,8,2.06,2.06,0,0,1,2.92-2.91,7.15,7.15,0,0,0,12.2-5.06V95.84a11.27,11.27,0,1,1,0-17.41v-.5a2.06,2.06,0,0,1,4.12,0Zm-4.12,9.21a7.15,7.15,0,1,0-7.15,7.14A7.16,7.16,0,0,0,56.91,87.14Z"/><path class="cls-1" d="M86.65,85.78V96.34a2.06,2.06,0,0,1-4.12,0V85.78a5.8,5.8,0,0,0-11.6,0V96.34a2.06,2.06,0,0,1-4.12,0V66.79a2.06,2.06,0,0,1,4.12,0v11a9.9,9.9,0,0,1,15.72,8Z"/><path class="cls-1" d="M147.22,85.78V96.34a2.06,2.06,0,0,1-4.12,0V85.78a5.8,5.8,0,0,0-11.59,0V96.34a2.06,2.06,0,0,1-4.12,0V85.78a5.8,5.8,0,0,0-11.6,0V96.34a2.06,2.06,0,1,1-4.11,0V77.93a2.05,2.05,0,0,1,4.1-.16,9.86,9.86,0,0,1,13.67,2,9.9,9.9,0,0,1,17.77,6Z"/><path class="cls-1" d="M173.9,87.14a11.27,11.27,0,1,1-11.26-11.27A11.27,11.27,0,0,1,173.9,87.14Zm-4.12,0a7.15,7.15,0,1,0-7.14,7.14A7.15,7.15,0,0,0,169.78,87.14Z"/><path class="cls-1" d="M199,77.93V96.34a2.05,2.05,0,0,1-4.1.16,9.83,9.83,0,0,1-5.81,1.9,9.93,9.93,0,0,1-9.92-9.91V77.93a2.06,2.06,0,0,1,4.12,0V88.49a5.8,5.8,0,0,0,11.6,0V77.93a2.06,2.06,0,1,1,4.11,0Z"/><path class="cls-1" d="M224.72,85.78V96.34a2.06,2.06,0,0,1-4.12,0V85.78a5.8,5.8,0,0,0-11.59,0V96.34a2.06,2.06,0,0,1-4.12,0V77.93a2.05,2.05,0,0,1,4.1-.16,9.9,9.9,0,0,1,15.73,8Z"/><path class="cls-1" d="M240.53,96.64a6,6,0,0,1-10.29-4.27V79.85a2,2,0,0,1,0-3.85V70.22a2.06,2.06,0,1,1,4.12,0v5.65h1.33a2.06,2.06,0,1,1,0,4.12h-1.33V92.37a1.91,1.91,0,0,0,3.26,1.35,2.06,2.06,0,0,1,2.91,2.92Z"/><path class="cls-1" d="M265.15,87.14h0v9.19a2.06,2.06,0,0,1-4.12,0v-.5a11.27,11.27,0,1,1,0-17.41v-.5a2.06,2.06,0,0,1,4.12,0v9.21Zm-4.12,0a7.15,7.15,0,1,0-7.14,7.16A7.15,7.15,0,0,0,261,87.12Z"/><path class="cls-1" d="M275.06,72h0A2.06,2.06,0,1,1,273,70,2.06,2.06,0,0,1,275.06,72Zm0,5.92V96.34a2.06,2.06,0,1,1-4.12,0V77.93a2.06,2.06,0,1,1,4.12,0Z"/><path class="cls-1" d="M300.71,85.78V96.34a2.06,2.06,0,1,1-4.12,0V85.78a5.8,5.8,0,0,0-11.6,0V96.34a2.06,2.06,0,0,1-4.12,0V77.93a2.06,2.06,0,0,1,4.11-.16,9.83,9.83,0,0,1,5.81-1.9A9.93,9.93,0,0,1,300.71,85.78Z"/><path class="cls-1" d="M316.52,91.78A2.58,2.58,0,0,0,314.68,90l-4.79-1.82a6.59,6.59,0,0,1-4.47-5,5.9,5.9,0,0,1,2.36-5.55h0a8.82,8.82,0,0,1,10.44,0h0a6,6,0,0,1,2.43,4.71,2.06,2.06,0,1,1-4.12,0,1.93,1.93,0,0,0-.85-1.47h0a4.75,4.75,0,0,0-5.37,0h0a1.81,1.81,0,0,0-.83,1.68,2.6,2.6,0,0,0,1.84,1.81l4.8,1.82a6.58,6.58,0,0,1,4.46,5,5.88,5.88,0,0,1-2.36,5.55h0a8.8,8.8,0,0,1-10.45,0h0A6,6,0,0,1,305.35,92a2.06,2.06,0,0,1,4.12,0,1.93,1.93,0,0,0,.85,1.47,4.75,4.75,0,0,0,5.37,0h0A1.81,1.81,0,0,0,316.52,91.78Z"/><path class="cls-1" d="M349.73,72h0A2.06,2.06,0,1,1,347.67,70,2.06,2.06,0,0,1,349.73,72Zm0,5.92V96.34a2.06,2.06,0,0,1-4.12,0V77.93a2.06,2.06,0,0,1,4.12,0Z"/><path class="cls-1" d="M375.38,85.78V96.34a2.06,2.06,0,1,1-4.12,0V85.78a5.8,5.8,0,0,0-11.6,0V96.34a2.06,2.06,0,1,1-4.12,0V77.93a2.06,2.06,0,0,1,4.11-.16,9.83,9.83,0,0,1,5.81-1.9A9.93,9.93,0,0,1,375.38,85.78Z"/><path class="cls-1" d="M412,96.64a6,6,0,0,1-10.29-4.27V79.85a2,2,0,0,1,0-3.85V70.22a2.06,2.06,0,0,1,4.12,0v5.65h1.33a2.06,2.06,0,1,1,0,4.12h-1.33V92.37a1.91,1.91,0,0,0,3.26,1.35A2.06,2.06,0,1,1,412,96.64Z"/><path class="cls-1" d="M437.56,85.78V96.34a2.06,2.06,0,1,1-4.12,0V85.78a5.8,5.8,0,0,0-11.59,0V96.34a2.06,2.06,0,0,1-4.12,0V66.79a2.06,2.06,0,0,1,4.12,0v11a9.79,9.79,0,0,1,5.8-1.89A9.93,9.93,0,0,1,437.56,85.78Z"/><path class="cls-1" d="M464.26,87.14a2.06,2.06,0,0,1-2.06,2.06H446.15a7.15,7.15,0,0,0,11.9,3A2.06,2.06,0,0,1,461,95.1a11.26,11.26,0,0,1-19.22-7.8.92.92,0,0,1,0-.16,1,1,0,0,1,0-.17,11.26,11.26,0,0,1,22.52.17Zm-4.42-2.06a7.06,7.06,0,0,0-1.79-3,7.15,7.15,0,0,0-11.9,3Z"/><path class="cls-1" d="M509.06,85.78V96.34a2.06,2.06,0,1,1-4.12,0V85.78a5.8,5.8,0,0,0-11.59,0V96.34a2.06,2.06,0,0,1-4.12,0V77.93a2.05,2.05,0,0,1,4.1-.16,9.9,9.9,0,0,1,15.73,8Z"/><path class="cls-1" d="M535.76,87.14A11.27,11.27,0,1,1,524.5,75.87,11.27,11.27,0,0,1,535.76,87.14Zm-4.12,0a7.15,7.15,0,1,0-7.14,7.14A7.15,7.15,0,0,0,531.64,87.14Z"/><path class="cls-1" d="M552.33,77.93A2.06,2.06,0,0,1,550.27,80a5.8,5.8,0,0,0-5.8,5.79V96.34a2.06,2.06,0,0,1-4.12,0V77.93a2.05,2.05,0,0,1,4.1-.16,9.86,9.86,0,0,1,5.82-1.9A2.06,2.06,0,0,1,552.33,77.93Z"/><path class="cls-1" d="M569.75,96.64a6,6,0,0,1-10.29-4.27V79.85a2,2,0,0,1,0-3.85V70.22a2.06,2.06,0,0,1,4.12,0v5.65h1.32a2.06,2.06,0,1,1,0,4.12h-1.32V92.37a1.91,1.91,0,0,0,3.26,1.35,2.06,2.06,0,1,1,2.91,2.92Z"/><path class="cls-1" d="M595.27,85.78V96.34a2.06,2.06,0,1,1-4.12,0V85.78a5.8,5.8,0,0,0-11.59,0V96.34a2.06,2.06,0,1,1-4.12,0V66.79a2.06,2.06,0,1,1,4.12,0v11a9.78,9.78,0,0,1,5.79-1.89A9.93,9.93,0,0,1,595.27,85.78Z"/><path class="cls-1" d="M622,87.14a2.06,2.06,0,0,1-2.06,2.06h-16a7.15,7.15,0,0,0,11.9,3,2.06,2.06,0,0,1,2.91,2.91,11.27,11.27,0,0,1-19.23-7.8V87a11.27,11.27,0,0,1,22.53.17Zm-4.42-2.06a7.06,7.06,0,0,0-1.79-3,7.15,7.15,0,0,0-11.9,3Z"/><path class="cls-1" d="M638.53,77.93A2.06,2.06,0,0,1,636.47,80a5.8,5.8,0,0,0-5.79,5.79V96.34a2.06,2.06,0,1,1-4.12,0V77.93a2.05,2.05,0,0,1,4.1-.16,9.85,9.85,0,0,1,5.81-1.9A2.06,2.06,0,0,1,638.53,77.93Z"/><path class="cls-1" d="M664.15,85.78V96.34a2.06,2.06,0,1,1-4.12,0V85.78a5.8,5.8,0,0,0-11.59,0V96.34a2.06,2.06,0,0,1-4.12,0V77.93a2.05,2.05,0,0,1,4.1-.16,9.9,9.9,0,0,1,15.73,8Z"/><path class="cls-1" d="M711.71,87.14a11.26,11.26,0,0,1-18.41,8.7v11.64a2.06,2.06,0,1,1-4.12,0V87.15h0V77.93a2.06,2.06,0,1,1,4.12,0v.5a11.26,11.26,0,0,1,18.41,8.71Zm-4.12,0a7.15,7.15,0,0,0-14.29,0v0a7.15,7.15,0,0,0,14.29,0Z"/><path class="cls-1" d="M738.35,87.14h0v9.19a2.06,2.06,0,0,1-4.12,0v-.5a11.27,11.27,0,1,1,0-17.41v-.5a2.06,2.06,0,0,1,4.12,0v9.21Zm-4.12,0a7.15,7.15,0,1,0-7.15,7.16,7.16,7.16,0,0,0,7.15-7.16Z"/><path class="cls-1" d="M756.11,77.93A2.06,2.06,0,0,1,754.05,80a5.8,5.8,0,0,0-5.79,5.79V96.34a2.06,2.06,0,1,1-4.12,0V77.93a2.05,2.05,0,0,1,4.1-.16,9.85,9.85,0,0,1,5.81-1.9A2.06,2.06,0,0,1,756.11,77.93Z"/><path class="cls-1" d="M773.54,96.64a6,6,0,0,1-10.29-4.27V79.85a2,2,0,0,1,0-3.85V70.22a2.06,2.06,0,1,1,4.11,0v5.65h1.33a2.06,2.06,0,0,1,0,4.12h-1.33V92.37a1.91,1.91,0,0,0,1.91,1.91,1.94,1.94,0,0,0,1.36-.56,2.06,2.06,0,1,1,2.91,2.92Z"/><path class="cls-1" d="M821.66,87.14a11.27,11.27,0,1,1-11.27-11.27A11.28,11.28,0,0,1,821.66,87.14Zm-4.12,0a7.15,7.15,0,1,0-7.15,7.14A7.16,7.16,0,0,0,817.54,87.14Z"/><path class="cls-1" d="M840.85,69.92a2,2,0,0,1-2.91,0,3.8,3.8,0,0,0-6.48,2.68v3.27h3.41a2.06,2.06,0,0,1,0,4.12h-3.41V96.34a2.06,2.06,0,0,1-4.12,0V79.92a2.05,2.05,0,0,1,0-4V72.6a7.92,7.92,0,0,1,7.92-7.91A7.83,7.83,0,0,1,840.85,67,2,2,0,0,1,840.85,69.92Z"/><path class="cls-1" d="M868.83,96.64a6,6,0,0,1-10.3-4.27V79.85a2.05,2.05,0,0,1,0-3.85V70.22a2.06,2.06,0,1,1,4.12,0v5.65H864A2.06,2.06,0,0,1,864,80h-1.33V92.37a1.91,1.91,0,0,0,3.26,1.35,2.06,2.06,0,0,1,2.92,2.92Z"/><path class="cls-1" d="M894.35,85.78V96.34a2.06,2.06,0,0,1-4.12,0V85.78a5.8,5.8,0,0,0-11.6,0V96.34a2.06,2.06,0,1,1-4.12,0V66.79a2.06,2.06,0,1,1,4.12,0v11a9.9,9.9,0,0,1,15.72,8Z"/><path class="cls-1" d="M921.05,87.14A2.06,2.06,0,0,1,919,89.2h-16a7.07,7.07,0,0,0,1.79,3,7.14,7.14,0,0,0,10.1,0,2.06,2.06,0,0,1,2.92,2.91,11.26,11.26,0,0,1-19.23-7.8c0-.06,0-.11,0-.16s0-.11,0-.17a11.27,11.27,0,0,1,22.53.17Zm-4.42-2.06a7.16,7.16,0,0,0-11.9-3,7.1,7.1,0,0,0-1.79,3Z"/><path class="cls-1" d="M22.11,152.7a11.27,11.27,0,1,1,0-15.93,2.06,2.06,0,1,1-2.92,2.91,7.15,7.15,0,1,0,0,10.11,2.06,2.06,0,0,1,2.92,2.91Z"/><path class="cls-1" d="M49.36,144.74A11.27,11.27,0,1,1,38.1,133.47,11.27,11.27,0,0,1,49.36,144.74Zm-4.11,0a7.15,7.15,0,1,0-7.15,7.14A7.15,7.15,0,0,0,45.25,144.74Z"/><path class="cls-1" d="M74.51,135.53v18.41a2.06,2.06,0,0,1-4.11.16,9.83,9.83,0,0,1-5.81,1.9,9.93,9.93,0,0,1-9.92-9.91V135.53a2.06,2.06,0,0,1,4.12,0v10.56a5.8,5.8,0,0,0,11.6,0V135.53a2.06,2.06,0,0,1,4.12,0Z"/><path class="cls-1" d="M100.19,143.38v10.56a2.06,2.06,0,0,1-4.12,0V143.38a5.8,5.8,0,0,0-11.6,0v10.56a2.06,2.06,0,0,1-4.12,0V135.53a2.06,2.06,0,0,1,4.11-.16,9.83,9.83,0,0,1,5.81-1.9A9.93,9.93,0,0,1,100.19,143.38Z"/><path class="cls-1" d="M116,154.24A6,6,0,0,1,105.7,150V137.45a2,2,0,0,1,0-3.85v-5.78a2.06,2.06,0,0,1,4.12,0v5.65h1.33a2.06,2.06,0,0,1,0,4.12h-1.33V150a1.91,1.91,0,0,0,1.91,1.91,1.86,1.86,0,0,0,1.35-.56,2.06,2.06,0,0,1,2.91,2.92Z"/><path class="cls-1" d="M134.38,135.53a2.06,2.06,0,0,1-2.06,2.06,5.8,5.8,0,0,0-5.8,5.79v10.56a2.06,2.06,0,0,1-4.12,0V135.53a2.05,2.05,0,0,1,4.1-.16,9.86,9.86,0,0,1,5.82-1.9A2.06,2.06,0,0,1,134.38,135.53Z"/><path class="cls-1" d="M159.11,136.34,155.85,144h0l-9.3,21.91a2.08,2.08,0,0,1-1.9,1.25,2.13,2.13,0,0,1-.81-.16,2.07,2.07,0,0,1-1.09-2.7L147.13,154l-7.52-17.63a2.06,2.06,0,1,1,3.78-1.62l6,14,2.67-6.26,0-.06h0l3.26-7.64a2.06,2.06,0,1,1,3.79,1.62Z"/><path class="cls-1" d="M167.13,154.92l-1.64,2.75a2,2,0,0,1-1.77,1,2,2,0,0,1-1.05-.29,2.06,2.06,0,0,1-.72-2.82l1.64-2.75a2.06,2.06,0,0,1,3.54,2.11Z"/><path class="cls-1" d="M206.71,154.24A6,6,0,0,1,196.42,150V137.45a2,2,0,0,1,0-3.85v-5.78a2.06,2.06,0,1,1,4.12,0v5.65h1.33a2.06,2.06,0,0,1,0,4.12h-1.33V150a1.91,1.91,0,0,0,1.91,1.91,1.86,1.86,0,0,0,1.35-.56,2.06,2.06,0,0,1,2.91,2.92Z"/><path class="cls-1" d="M232.23,143.38v10.56a2.06,2.06,0,0,1-4.12,0V143.38a5.8,5.8,0,0,0-11.59,0v10.56a2.06,2.06,0,0,1-4.12,0V124.39a2.06,2.06,0,0,1,4.12,0v11a9.79,9.79,0,0,1,5.8-1.89A9.93,9.93,0,0,1,232.23,143.38Z"/><path class="cls-1" d="M250.05,135.53a2.05,2.05,0,0,1-2.05,2.06,5.8,5.8,0,0,0-5.8,5.79v10.56a2.06,2.06,0,0,1-4.12,0V135.53a2.05,2.05,0,0,1,4.1-.16,9.86,9.86,0,0,1,5.82-1.9A2.05,2.05,0,0,1,250.05,135.53Z"/><path class="cls-1" d="M273.81,144.74a11.27,11.27,0,1,1-11.26-11.27A11.27,11.27,0,0,1,273.81,144.74Zm-4.12,0a7.15,7.15,0,1,0-7.14,7.14A7.15,7.15,0,0,0,269.69,144.74Z"/><path class="cls-1" d="M299,135.53v18.41a2.05,2.05,0,0,1-4.1.16,9.9,9.9,0,0,1-15.73-8V135.53a2.06,2.06,0,0,1,4.12,0v10.56a5.8,5.8,0,0,0,11.59,0V135.53a2.06,2.06,0,1,1,4.12,0Z"/><path class="cls-1" d="M326.85,135.53v20.39a11.26,11.26,0,0,1-19.23,8,2.06,2.06,0,0,1,2.91-2.91,7.15,7.15,0,0,0,12.2-5.05v-2.48a11.27,11.27,0,1,1,0-17.41v-.5a2.06,2.06,0,0,1,4.12,0Zm-4.12,9.21a7.15,7.15,0,1,0-7.14,7.14A7.15,7.15,0,0,0,322.73,144.74Z"/><path class="cls-1" d="M352.47,143.38v10.56a2.06,2.06,0,0,1-4.12,0V143.38a5.8,5.8,0,0,0-11.59,0v10.56a2.06,2.06,0,0,1-4.12,0V124.39a2.06,2.06,0,0,1,4.12,0v11a9.79,9.79,0,0,1,5.8-1.89A9.93,9.93,0,0,1,352.47,143.38Z"/><path class="cls-1" d="M403,152.61a2.06,2.06,0,0,1-3.14,2.67l-8.3-9.73-3.79,2.86v5.53a2.06,2.06,0,1,1-4.11,0V124.39a2.06,2.06,0,1,1,4.11,0v18.86l12.42-9.37a2.06,2.06,0,0,1,2.48,3.29l-7.82,5.9Z"/><path class="cls-1" d="M427,144.74h0v9.19a2.06,2.06,0,1,1-4.12,0v-.5a11.27,11.27,0,1,1,0-17.41v-.5a2.06,2.06,0,1,1,4.12,0v9.21Zm-4.12,0a7.15,7.15,0,1,0-7.15,7.16,7.16,7.16,0,0,0,7.15-7.16Z"/><path class="cls-1" d="M444.79,135.53a2.06,2.06,0,0,1-2.06,2.06,5.81,5.81,0,0,0-5.8,5.79v10.56a2.06,2.06,0,1,1-4.11,0V135.53a2.05,2.05,0,0,1,4.1-.16,9.83,9.83,0,0,1,5.81-1.9A2.06,2.06,0,0,1,444.79,135.53Z"/><path class="cls-1" d="M459.58,149.38a2.58,2.58,0,0,0-1.84-1.81L453,145.75a6.59,6.59,0,0,1-4.47-5,5.89,5.89,0,0,1,2.37-5.55h0a8.79,8.79,0,0,1,10.44,0h0a6,6,0,0,1,2.43,4.71,2.06,2.06,0,0,1-4.12,0,1.93,1.93,0,0,0-.85-1.47h0a4.75,4.75,0,0,0-5.37,0h0a1.81,1.81,0,0,0-.83,1.68,2.62,2.62,0,0,0,1.84,1.81l4.8,1.82a6.58,6.58,0,0,1,4.46,5,5.88,5.88,0,0,1-2.36,5.55h0a8.78,8.78,0,0,1-10.44,0h0a6,6,0,0,1-2.42-4.71,2.06,2.06,0,1,1,4.11,0,1.93,1.93,0,0,0,.85,1.47,4.75,4.75,0,0,0,5.37,0h0A1.8,1.8,0,0,0,459.58,149.38Z"/><path class="cls-1" d="M481.13,154.24a6,6,0,0,1-10.3-4.27V137.45a2.05,2.05,0,0,1,0-3.85v-5.78a2.06,2.06,0,0,1,4.12,0v5.65h1.33a2.06,2.06,0,0,1,0,4.12H475V150a1.91,1.91,0,0,0,1.91,1.91,1.86,1.86,0,0,0,1.35-.56,2.06,2.06,0,0,1,2.92,2.92Z"/><path class="cls-1" d="M524,149.38a2.6,2.6,0,0,0-1.84-1.81l-4.8-1.82a6.58,6.58,0,0,1-4.46-5,5.9,5.9,0,0,1,2.36-5.55h0a8.78,8.78,0,0,1,10.43,0h0a6,6,0,0,1,2.43,4.71,2.06,2.06,0,1,1-4.12,0,1.93,1.93,0,0,0-.85-1.47h0a4.75,4.75,0,0,0-5.37,0h0a1.81,1.81,0,0,0-.83,1.68,2.58,2.58,0,0,0,1.84,1.81l4.8,1.82a6.59,6.59,0,0,1,4.46,5,5.9,5.9,0,0,1-2.36,5.55h0a8.8,8.8,0,0,1-10.45,0h0a6,6,0,0,1-2.43-4.71,2.06,2.06,0,0,1,4.12,0,1.93,1.93,0,0,0,.85,1.47,4.75,4.75,0,0,0,5.37,0h0A1.81,1.81,0,0,0,524,149.38Z"/><path class="cls-1" d="M554.76,144.74a2.06,2.06,0,0,1-2.06,2.06H536.65a7.07,7.07,0,0,0,1.79,3,7.15,7.15,0,0,0,10.11,0,2.06,2.06,0,0,1,2.91,2.91,11.27,11.27,0,0,1-19.23-7.8c0-.06,0-.11,0-.16s0-.11,0-.17a11.27,11.27,0,0,1,22.53.17Zm-4.42-2.06a7.15,7.15,0,0,0-13.69,0Z"/><path class="cls-1" d="M581.4,135.53v20.39a11.27,11.27,0,0,1-19.24,8,2.06,2.06,0,0,1,2.92-2.91,7.15,7.15,0,0,0,12.2-5.05v-2.48a11.27,11.27,0,1,1,0-17.41v-.5a2.06,2.06,0,1,1,4.12,0Zm-4.12,9.21a7.15,7.15,0,1,0-7.15,7.14A7.15,7.15,0,0,0,577.28,144.74Z"/><path class="cls-1" d="M622.73,143.38v10.56a2.06,2.06,0,0,1-4.12,0V143.38a5.8,5.8,0,0,0-11.59,0v10.56a2.06,2.06,0,1,1-4.12,0V143.38a5.8,5.8,0,0,0-11.6,0v10.56a2.06,2.06,0,1,1-4.12,0V135.53a2.06,2.06,0,0,1,4.11-.16,9.86,9.86,0,0,1,13.67,2,9.9,9.9,0,0,1,17.77,6Z"/><path class="cls-1" d="M649.41,144.74a2.06,2.06,0,0,1-2.06,2.06H631.3a7.15,7.15,0,0,0,11.9,3,2.06,2.06,0,0,1,2.91,2.91,11.26,11.26,0,0,1-19.22-7.8.92.92,0,0,1,0-.16,1,1,0,0,1,0-.17,11.26,11.26,0,0,1,22.52.17ZM645,142.68a7.15,7.15,0,0,0-13.7,0Z"/><path class="cls-1" d="M673.83,143.38v10.56a2.06,2.06,0,0,1-4.12,0V143.38a5.8,5.8,0,0,0-11.59,0v10.56a2.06,2.06,0,0,1-4.12,0V135.53a2.05,2.05,0,0,1,4.1-.16,9.9,9.9,0,0,1,15.73,8Z"/><path class="cls-1" d="M689.64,154.24A6,6,0,0,1,679.35,150V137.45a2,2,0,0,1,0-3.85v-5.78a2.06,2.06,0,0,1,4.12,0v5.65h1.32a2.06,2.06,0,1,1,0,4.12h-1.32V150a1.91,1.91,0,0,0,1.91,1.91,1.86,1.86,0,0,0,1.35-.56,2.06,2.06,0,0,1,2.91,2.92Z"/><path class="cls-1" d="M725.46,129.61h0a2.06,2.06,0,1,1-2.05-2.06A2.05,2.05,0,0,1,725.46,129.61Zm0,5.92v18.41a2.06,2.06,0,1,1-4.11,0V135.53a2.06,2.06,0,1,1,4.11,0Z"/><path class="cls-1" d="M751.11,143.38v10.56a2.06,2.06,0,1,1-4.11,0V143.38a5.8,5.8,0,0,0-11.6,0v10.56a2.06,2.06,0,1,1-4.12,0V135.53a2.05,2.05,0,0,1,4.1-.16,9.9,9.9,0,0,1,15.73,8Z"/><path class="cls-1" d="M801.48,152.7a11.26,11.26,0,1,1,0-15.93,2.06,2.06,0,1,1-2.92,2.91,7.15,7.15,0,0,0-10.1,0,7.15,7.15,0,1,0,10.1,10.11,2.08,2.08,0,0,1,2.92,0A2.06,2.06,0,0,1,801.48,152.7Z"/><path class="cls-1" d="M828.74,144.74a2.06,2.06,0,0,1-2.06,2.06h-16a7.15,7.15,0,0,0,11.9,3,2.06,2.06,0,0,1,2.91,2.91,11.26,11.26,0,0,1-19.22-7.8.92.92,0,0,1,0-.16,1,1,0,0,1,0-.17,11.26,11.26,0,0,1,22.52.17Zm-4.41-2.06a7.15,7.15,0,0,0-13.7,0Z"/><path class="cls-1" d="M853.16,143.38v10.56a2.06,2.06,0,1,1-4.12,0V143.38a5.8,5.8,0,0,0-11.59,0v10.56a2.06,2.06,0,0,1-4.12,0V135.53a2.05,2.05,0,0,1,4.1-.16,9.9,9.9,0,0,1,15.73,8Z"/><path class="cls-1" d="M869,154.24A6,6,0,0,1,858.68,150V137.45a2,2,0,0,1,0-3.85v-5.78a2.06,2.06,0,1,1,4.12,0v5.65h1.33a2.06,2.06,0,1,1,0,4.12H862.8V150a1.91,1.91,0,0,0,1.91,1.91,1.86,1.86,0,0,0,1.35-.56,2.06,2.06,0,0,1,2.91,2.92Z"/><path class="cls-1" d="M887.35,135.53a2.05,2.05,0,0,1-2.05,2.06,5.8,5.8,0,0,0-5.8,5.79v10.56a2.06,2.06,0,1,1-4.12,0V135.53a2.05,2.05,0,0,1,4.1-.16,9.86,9.86,0,0,1,5.82-1.9A2.05,2.05,0,0,1,887.35,135.53Z"/><path class="cls-1" d="M911.11,144.74h0v9.19a2.06,2.06,0,0,1-4.12,0v-.5A11.27,11.27,0,1,1,907,136v-.5a2.06,2.06,0,0,1,4.12,0v9.21Zm-4.12,0a7.15,7.15,0,1,0-7.14,7.16,7.15,7.15,0,0,0,7.14-7.16Z"/><path class="cls-1" d="M921,124.39v29.55a2.06,2.06,0,1,1-4.12,0V124.39a2.06,2.06,0,1,1,4.12,0Z"/><path class="cls-1" d="M25.41,202.34h0v9.19a2.06,2.06,0,1,1-4.12,0V211a11.27,11.27,0,1,1,0-17.41v-.5a2.06,2.06,0,0,1,4.12,0v9.21Zm-4.12,0a7.15,7.15,0,1,0-7.14,7.16,7.15,7.15,0,0,0,7.14-7.16Z"/><path class="cls-1" d="M51,201v10.56a2.06,2.06,0,0,1-4.12,0V201a5.8,5.8,0,0,0-11.59,0v10.56a2.06,2.06,0,0,1-4.12,0V193.13a2.05,2.05,0,0,1,4.1-.16A9.9,9.9,0,0,1,51,201Z"/><path class="cls-1" d="M77.73,202.34h0v9.19a2.06,2.06,0,0,1-4.12,0V211a11.27,11.27,0,1,1,0-17.41V182a2.06,2.06,0,0,1,4.12,0v20.35Zm-4.12,0a7.15,7.15,0,1,0-7.14,7.16,7.15,7.15,0,0,0,7.14-7.16Z"/><path class="cls-1" d="M138.5,193.94l-7.86,18.41a2.06,2.06,0,0,1-3.79,0l-6-14-6,14a2.06,2.06,0,0,1-3.79,0l-7.86-18.41a2.06,2.06,0,0,1,3.79-1.62l6,14,6-14,.06-.12.12-.21.12-.16.14-.15a1.07,1.07,0,0,1,.16-.14l.15-.12.21-.12.12-.06h0l.26-.08.13,0,.22,0,.18,0H121a1.9,1.9,0,0,1,.25,0l.12,0a1.38,1.38,0,0,1,.27.08h0a.6.6,0,0,1,.11.06,1.67,1.67,0,0,1,.23.12l.14.11.17.15.13.15.12.15.12.22.07.12,6,14,6-14a2.06,2.06,0,1,1,3.79,1.62Z"/><path class="cls-1" d="M163.67,202.34a2.07,2.07,0,0,1-2.06,2.06H145.56a7,7,0,0,0,1.79,3,7.14,7.14,0,0,0,10.1,0,2.06,2.06,0,0,1,2.92,2.91,11.26,11.26,0,0,1-19.23-7.8c0-.06,0-.11,0-.16s0-.11,0-.17a11.27,11.27,0,0,1,22.53.17Zm-4.42-2.06a7.16,7.16,0,0,0-11.9-3,7,7,0,0,0-1.79,3Z"/><path class="cls-1" d="M178.94,207a2.58,2.58,0,0,0-1.84-1.81l-4.79-1.82a6.59,6.59,0,0,1-4.47-5,5.9,5.9,0,0,1,2.36-5.55h0a8.81,8.81,0,0,1,10.43,0h0a6,6,0,0,1,2.43,4.71,2.06,2.06,0,0,1-4.12,0,1.93,1.93,0,0,0-.85-1.47h0a4.75,4.75,0,0,0-5.37,0h0a1.81,1.81,0,0,0-.83,1.68,2.6,2.6,0,0,0,1.84,1.81l4.8,1.82a6.58,6.58,0,0,1,4.46,5,5.9,5.9,0,0,1-2.36,5.55h0a8.8,8.8,0,0,1-10.45,0h0a6,6,0,0,1-2.43-4.71,2.06,2.06,0,1,1,4.12,0,1.93,1.93,0,0,0,.85,1.47,4.75,4.75,0,0,0,5.37,0h0A1.79,1.79,0,0,0,178.94,207Z"/><path class="cls-1" d="M200.48,211.84a6,6,0,0,1-4.26,1.76,6,6,0,0,1-6-6V195.05a2.05,2.05,0,0,1,0-3.85v-5.78a2.06,2.06,0,0,1,4.12,0v5.65h1.33a2.06,2.06,0,0,1,0,4.12h-1.33v12.38a1.91,1.91,0,0,0,3.26,1.35,2.06,2.06,0,0,1,2.91,2.92Z"/><path class="cls-1" d="M225.11,202.34a2.07,2.07,0,0,1-2.06,2.06H207a7,7,0,0,0,1.79,3,7.14,7.14,0,0,0,10.1,0,2.06,2.06,0,0,1,2.92,2.91,11.26,11.26,0,0,1-19.23-7.8c0-.06,0-.11,0-.16s0-.11,0-.17a11.27,11.27,0,0,1,22.53.17Zm-4.42-2.06a7.16,7.16,0,0,0-11.9-3,7,7,0,0,0-1.79,3Z"/><path class="cls-1" d="M241.67,193.13a2.06,2.06,0,0,1-2.06,2.06,5.8,5.8,0,0,0-5.8,5.79v10.56a2.06,2.06,0,0,1-4.12,0V193.13a2.06,2.06,0,0,1,4.11-.16,9.83,9.83,0,0,1,5.81-1.9A2.06,2.06,0,0,1,241.67,193.13Z"/><path class="cls-1" d="M267.29,201v10.56a2.06,2.06,0,1,1-4.12,0V201a5.8,5.8,0,0,0-11.6,0v10.56a2.06,2.06,0,0,1-4.12,0V193.13a2.06,2.06,0,0,1,4.11-.16,9.83,9.83,0,0,1,5.81-1.9A9.93,9.93,0,0,1,267.29,201Z"/><path class="cls-1" d="M315.26,202.33A11.26,11.26,0,0,1,296.85,211v11.64a2.06,2.06,0,0,1-4.12,0V202.33h0v-9.19a2.06,2.06,0,0,1,4.12,0v.5a11.26,11.26,0,0,1,18.41,8.7Zm-4.12,0a7.15,7.15,0,0,0-14.29,0v0a7.15,7.15,0,0,0,14.29,0Z"/><path class="cls-1" d="M341.9,202.34h0v9.19a2.06,2.06,0,0,1-4.12,0V211a11.27,11.27,0,1,1,0-17.41v-.5a2.06,2.06,0,0,1,4.12,0v9.21Zm-4.12,0a7.15,7.15,0,1,0-7.14,7.16,7.15,7.15,0,0,0,7.14-7.16Z"/><path class="cls-1" d="M359.67,193.13a2.06,2.06,0,0,1-2.06,2.06,5.8,5.8,0,0,0-5.8,5.79v10.56a2.06,2.06,0,0,1-4.12,0V193.13a2.05,2.05,0,0,1,4.1-.16,9.86,9.86,0,0,1,5.82-1.9A2.06,2.06,0,0,1,359.67,193.13Z"/><path class="cls-1" d="M377.09,211.84a6,6,0,0,1-10.29-4.27V195.05a2,2,0,0,1,0-3.85v-5.78a2.06,2.06,0,0,1,4.12,0v5.65h1.32a2.06,2.06,0,0,1,0,4.12h-1.32v12.38a1.91,1.91,0,0,0,3.26,1.35,2.06,2.06,0,0,1,2.91,2.92Z"/><path class="cls-1" d="M385.5,212.52l-1.63,2.75a2.05,2.05,0,0,1-1.77,1,2,2,0,0,1-1.05-.29,2.06,2.06,0,0,1-.72-2.82l1.63-2.75a2.08,2.08,0,0,1,2.83-.71A2,2,0,0,1,385.5,212.52Z"/><path class="cls-1" d="M419.39,211.84a6,6,0,0,1-10.29-4.27V195.05a2,2,0,0,1,0-3.85v-5.78a2.06,2.06,0,0,1,4.12,0v5.65h1.32a2.06,2.06,0,1,1,0,4.12h-1.32v12.38a1.91,1.91,0,0,0,3.26,1.35,2.06,2.06,0,0,1,2.91,2.92Z"/><path class="cls-1" d="M444,202.33a11.27,11.27,0,1,1-11.27-11.26A11.28,11.28,0,0,1,444,202.33Zm-4.12,0a7.15,7.15,0,1,0-7.15,7.14A7.15,7.15,0,0,0,439.89,202.34Z"/><path class="cls-1" d="M491.92,202.34h0v9.19a2.06,2.06,0,1,1-4.11,0V211a11.27,11.27,0,1,1,0-17.41v-.5a2.06,2.06,0,1,1,4.11,0v9.21Zm-4.11,0a7.15,7.15,0,1,0-7.15,7.16,7.16,7.16,0,0,0,7.15-7.16Z"/><path class="cls-1" d="M501.83,182v29.55a2.06,2.06,0,0,1-4.12,0V182a2.06,2.06,0,0,1,4.12,0Z"/><path class="cls-1" d="M543.2,201v10.56a2.06,2.06,0,0,1-4.12,0V201a5.8,5.8,0,0,0-11.6,0v10.56a2.06,2.06,0,0,1-4.12,0V201a5.8,5.8,0,0,0-11.59,0v10.56a2.06,2.06,0,0,1-4.12,0V193.13a2.05,2.05,0,0,1,4.1-.16,9.86,9.86,0,0,1,13.67,2,9.91,9.91,0,0,1,17.78,6Z"/><path class="cls-1" d="M569.88,202.33a11.27,11.27,0,1,1-11.27-11.26A11.28,11.28,0,0,1,569.88,202.33Zm-4.12,0a7.15,7.15,0,1,0-7.15,7.14A7.15,7.15,0,0,0,565.76,202.34Z"/><path class="cls-1" d="M585.15,207a2.58,2.58,0,0,0-1.84-1.81l-4.79-1.82a6.59,6.59,0,0,1-4.47-5,5.89,5.89,0,0,1,2.37-5.55h0a8.82,8.82,0,0,1,10.44,0h0a6,6,0,0,1,2.43,4.71,2.06,2.06,0,1,1-4.12,0,1.93,1.93,0,0,0-.85-1.47h0a4.75,4.75,0,0,0-5.37,0h0a1.81,1.81,0,0,0-.83,1.68A2.62,2.62,0,0,0,580,199.5l4.8,1.82a6.58,6.58,0,0,1,4.46,5,5.88,5.88,0,0,1-2.36,5.55h0a8.78,8.78,0,0,1-10.44,0h0a6,6,0,0,1-2.43-4.71,2.06,2.06,0,0,1,4.12,0,1.93,1.93,0,0,0,.85,1.47,4.75,4.75,0,0,0,5.37,0h0A1.78,1.78,0,0,0,585.15,207Z"/><path class="cls-1" d="M606.7,211.84a6,6,0,0,1-10.3-4.27V195.05a2.05,2.05,0,0,1,0-3.85v-5.78a2.06,2.06,0,0,1,4.12,0v5.65h1.33a2.06,2.06,0,0,1,0,4.12h-1.33v12.38a1.91,1.91,0,0,0,3.26,1.35,2.06,2.06,0,0,1,2.92,2.92Z"/><path class="cls-1" d="M651,204.1a5.31,5.31,0,0,0-5.31-5.31,2.06,2.06,0,1,1,0-4.12,5.31,5.31,0,1,0,0-10.62H641a5.31,5.31,0,0,0-5.31,5.31,2.06,2.06,0,1,1-4.12,0,9.44,9.44,0,0,1,9.43-9.43h4.64a9.42,9.42,0,0,1,5.86,16.8,9.42,9.42,0,0,1-5.86,16.8H641a9.44,9.44,0,0,1-9.43-9.43,2.06,2.06,0,0,1,4.12,0,5.31,5.31,0,0,0,5.31,5.31h4.64A5.31,5.31,0,0,0,651,204.1Z"/><path class="cls-1" d="M674.94,179.93a16.8,16.8,0,1,1-16.8,16.8A16.81,16.81,0,0,1,674.94,179.93Zm0,4.12a12.68,12.68,0,1,0,12.69,12.68A12.69,12.69,0,0,0,674.94,184.05Z"/><path class="cls-1" d="M712.24,179.93a16.8,16.8,0,1,1-16.8,16.8A16.82,16.82,0,0,1,712.24,179.93Zm0,4.12a12.68,12.68,0,1,0,12.68,12.68A12.69,12.69,0,0,0,712.24,184.05Z"/><path class="cls-1" d="M772.72,210.21a2.06,2.06,0,0,1-3.13,2.67l-8.3-9.73L757.5,206v5.53a2.06,2.06,0,1,1-4.12,0V182a2.06,2.06,0,1,1,4.12,0v18.86l12.42-9.37a2.06,2.06,0,0,1,2.48,3.29l-7.82,5.9Z"/><path class="cls-1" d="M814.61,201v10.56a2.06,2.06,0,0,1-4.12,0V201a5.8,5.8,0,0,0-11.59,0v10.56a2.06,2.06,0,1,1-4.12,0V201a5.8,5.8,0,0,0-11.6,0v10.56a2.06,2.06,0,1,1-4.12,0V193.13a2.06,2.06,0,0,1,4.11-.16,9.86,9.86,0,0,1,13.67,2,9.9,9.9,0,0,1,17.77,6Z"/><path class="cls-1" d="M862.57,202.33a11.27,11.27,0,1,1-11.27-11.26A11.28,11.28,0,0,1,862.57,202.33Zm-4.12,0a7.15,7.15,0,1,0-7.15,7.14A7.15,7.15,0,0,0,858.45,202.34Z"/><path class="cls-1" d="M881.77,185.12a2.07,2.07,0,0,1-2.92,0,3.74,3.74,0,0,0-2.68-1.11,3.8,3.8,0,0,0-3.8,3.79v3.27h3.41a2.06,2.06,0,1,1,0,4.12h-3.41v16.35a2.06,2.06,0,0,1-4.12,0V195.12a2.05,2.05,0,0,1,0-4V187.8a7.92,7.92,0,0,1,13.52-5.59A2.06,2.06,0,0,1,881.77,185.12Z"/><path class="cls-1" d="M921.05,202.34h0v9.19a2.06,2.06,0,1,1-4.11,0V211a11.27,11.27,0,1,1,0-17.41v-.5a2.06,2.06,0,1,1,4.12,0v9.21Zm-4.12,0a7.15,7.15,0,1,0-7.15,7.16,7.16,7.16,0,0,0,7.15-7.16Z"/><path class="cls-1" d="M22.71,258.58v10.56a2.06,2.06,0,0,1-4.12,0V258.58a5.8,5.8,0,0,0-11.59,0v10.56a2.06,2.06,0,0,1-4.12,0V250.73a2.05,2.05,0,0,1,4.1-.16,9.9,9.9,0,0,1,15.73,8Z"/><path class="cls-1" d="M49.41,259.94h0v9.19a2.06,2.06,0,1,1-4.12,0v-.5a11.27,11.27,0,1,1,0-17.41v-.5a2.06,2.06,0,1,1,4.12,0v9.21Zm-4.12,0a7.15,7.15,0,1,0-7.14,7.16,7.15,7.15,0,0,0,7.14-7.16Z"/><path class="cls-1" d="M67.18,250.73a2.06,2.06,0,0,1-2.06,2.06,5.8,5.8,0,0,0-5.8,5.79v10.56a2.06,2.06,0,0,1-4.12,0V250.73a2.05,2.05,0,0,1,4.1-.16,9.86,9.86,0,0,1,5.82-1.9A2.06,2.06,0,0,1,67.18,250.73Z"/><path class="cls-1" d="M84.94,250.73a2.06,2.06,0,0,1-2.06,2.06,5.8,5.8,0,0,0-5.8,5.79v10.56a2.06,2.06,0,0,1-4.12,0V250.73a2.05,2.05,0,0,1,4.1-.16,9.86,9.86,0,0,1,5.82-1.9A2.06,2.06,0,0,1,84.94,250.73Z"/><path class="cls-1" d="M108.69,259.94a11.27,11.27,0,1,1-11.26-11.27A11.27,11.27,0,0,1,108.69,259.94Zm-4.12,0a7.15,7.15,0,1,0-7.14,7.14A7.15,7.15,0,0,0,104.57,259.94Z"/><path class="cls-1" d="M146.5,251.54,138.65,270a2.06,2.06,0,0,1-3.79,0l-6-14-6,14a2.06,2.06,0,0,1-3.79,0l-7.85-18.41a2.06,2.06,0,0,1,3.79-1.62l6,14,6-14,.07-.12a1.43,1.43,0,0,1,.12-.21,1,1,0,0,1,.12-.16l.13-.15.16-.14.15-.12.21-.12a.75.75,0,0,1,.13-.06h0l.25-.08.14,0,.22,0,.18,0h.15a2,2,0,0,1,.24,0l.13,0a1.12,1.12,0,0,1,.26.08h0a.39.39,0,0,1,.11.06,1.67,1.67,0,0,1,.23.12l.14.11a1.22,1.22,0,0,1,.17.15.93.93,0,0,1,.13.15,1.58,1.58,0,0,1,.12.15,1.55,1.55,0,0,1,.12.22l.07.12,6,14,6-14a2.06,2.06,0,1,1,3.79,1.62Z"/><path class="cls-1" d="M207,267.9A11.26,11.26,0,1,1,207,252a2.06,2.06,0,0,1-2.92,2.91,7.15,7.15,0,1,0,0,10.11,2.08,2.08,0,0,1,2.92,0A2.06,2.06,0,0,1,207,267.9Z"/><path class="cls-1" d="M234.25,259.94A11.27,11.27,0,1,1,223,248.67,11.27,11.27,0,0,1,234.25,259.94Zm-4.12,0a7.15,7.15,0,1,0-7.14,7.14A7.15,7.15,0,0,0,230.13,259.94Z"/><path class="cls-1" d="M260.89,259.94h0v9.19a2.06,2.06,0,0,1-4.12,0v-.5a11.27,11.27,0,1,1,0-17.41v-.5a2.06,2.06,0,0,1,4.12,0v9.21Zm-4.12,0a7.15,7.15,0,1,0-7.14,7.16,7.15,7.15,0,0,0,7.14-7.16Z"/><path class="cls-1" d="M277.85,264.58a2.62,2.62,0,0,0-1.84-1.81l-4.8-1.82a6.58,6.58,0,0,1-4.46-5,5.88,5.88,0,0,1,2.36-5.55h0a8.81,8.81,0,0,1,10.43,0h0a6,6,0,0,1,2.43,4.71,2.06,2.06,0,1,1-4.12,0,1.93,1.93,0,0,0-.85-1.47h0a4.75,4.75,0,0,0-5.37,0h0a1.81,1.81,0,0,0-.83,1.68,2.58,2.58,0,0,0,1.84,1.81l4.79,1.82a6.59,6.59,0,0,1,4.47,5,5.9,5.9,0,0,1-2.36,5.55h0a8.8,8.8,0,0,1-10.45,0h0a6,6,0,0,1-2.43-4.71,2.06,2.06,0,1,1,4.12,0,1.93,1.93,0,0,0,.85,1.47,4.75,4.75,0,0,0,5.37,0h0A1.79,1.79,0,0,0,277.85,264.58Z"/><path class="cls-1" d="M299.39,269.44a6,6,0,0,1-10.29-4.27V252.65a2,2,0,0,1,0-3.85V243a2.06,2.06,0,0,1,4.12,0v5.65h1.33a2.06,2.06,0,0,1,0,4.12h-1.33v12.38a1.91,1.91,0,0,0,3.26,1.35,2.06,2.06,0,0,1,2.91,2.92Z"/><path class="cls-1" d="M324,259.94h0v9.19a2.06,2.06,0,0,1-4.12,0v-.5a11.27,11.27,0,1,1,0-17.41v-.5a2.06,2.06,0,0,1,4.12,0v9.21Zm-4.12,0a7.15,7.15,0,1,0-7.14,7.16,7.15,7.15,0,0,0,7.14-7.16Z"/><path class="cls-1" d="M333.92,239.59v29.55a2.06,2.06,0,0,1-4.12,0V239.59a2.06,2.06,0,0,1,4.12,0Z"/><path class="cls-1" d="M397.54,259.94a11.26,11.26,0,0,1-18.41,8.7v11.64a2.06,2.06,0,0,1-4.12,0V260h0v-9.21a2.06,2.06,0,0,1,4.12,0v.5a11.26,11.26,0,0,1,18.41,8.71Zm-4.12,0a7.15,7.15,0,0,0-14.29,0v0a7.15,7.15,0,0,0,14.29,0Z"/><path class="cls-1" d="M407.45,239.59v29.55a2.06,2.06,0,0,1-4.12,0V239.59a2.06,2.06,0,0,1,4.12,0Z"/><path class="cls-1" d="M435.32,259.94h0v9.19a2.06,2.06,0,1,1-4.11,0v-.5a11.27,11.27,0,1,1,0-17.41v-.5a2.06,2.06,0,0,1,4.12,0v9.21Zm-4.12,0a7.15,7.15,0,1,0-7.15,7.16,7.16,7.16,0,0,0,7.15-7.16Z"/><path class="cls-1" d="M445.22,244.81h0a2.06,2.06,0,1,1-2.06-2.06A2.06,2.06,0,0,1,445.22,244.81Zm0,5.92v18.41a2.06,2.06,0,0,1-4.12,0V250.73a2.06,2.06,0,0,1,4.12,0Z"/><path class="cls-1" d="M470.87,258.58v10.56a2.06,2.06,0,0,1-4.12,0V258.58a5.8,5.8,0,0,0-11.59,0v10.56a2.06,2.06,0,0,1-4.12,0V250.73a2.05,2.05,0,0,1,4.1-.16,9.9,9.9,0,0,1,15.73,8Z"/><path class="cls-1" d="M473.17,268.9a2.23,2.23,0,1,1,2.22,2.23A2.22,2.22,0,0,1,473.17,268.9Z"/><path class="cls-1" d="M529.82,237.5h12.59a2.06,2.06,0,1,1,0,4.12H531.87V269.1a2.06,2.06,0,0,1-4.12,0V241.62H517.22a2.06,2.06,0,0,1,0-4.12h12.6Z"/><path class="cls-1" d="M570.13,258.58v10.56a2.06,2.06,0,1,1-4.12,0V258.58a5.8,5.8,0,0,0-11.6,0v10.56a2.06,2.06,0,1,1-4.12,0V239.59a2.06,2.06,0,1,1,4.12,0v11a9.79,9.79,0,0,1,5.8-1.89A9.93,9.93,0,0,1,570.13,258.58Z"/><path class="cls-1" d="M596.83,259.94a2.07,2.07,0,0,1-2.06,2.06h-16a7,7,0,0,0,1.79,3,7.14,7.14,0,0,0,10.1,0,2.06,2.06,0,0,1,2.92,2.91,11.26,11.26,0,0,1-19.23-7.8.92.92,0,0,1,0-.16c0-.06,0-.11,0-.17a11.27,11.27,0,0,1,22.53.17Zm-4.42-2.06a7.16,7.16,0,0,0-11.9-3,7,7,0,0,0-1.79,3Z"/><path class="cls-1" d="M657.11,267.9a11.27,11.27,0,1,1,0-15.93,2.06,2.06,0,0,1-2.91,2.91,7.15,7.15,0,1,0,0,10.11,2.06,2.06,0,0,1,2.91,2.91Z"/><path class="cls-1" d="M684.37,259.94a11.27,11.27,0,1,1-11.27-11.27A11.27,11.27,0,0,1,684.37,259.94Zm-4.12,0a7.15,7.15,0,1,0-7.15,7.14A7.16,7.16,0,0,0,680.25,259.94Z"/><path class="cls-1" d="M711,259.94h0v9.19a2.06,2.06,0,1,1-4.12,0v-.5a11.27,11.27,0,1,1,0-17.41v-.5a2.06,2.06,0,1,1,4.12,0v9.21Zm-4.12,0a7.15,7.15,0,1,0-7.15,7.16,7.16,7.16,0,0,0,7.15-7.16Z"/><path class="cls-1" d="M728,264.58a2.62,2.62,0,0,0-1.84-1.81l-4.8-1.82a6.59,6.59,0,0,1-4.47-5,5.89,5.89,0,0,1,2.37-5.55h0a8.82,8.82,0,0,1,10.44,0h0a6,6,0,0,1,2.43,4.71,2.06,2.06,0,1,1-4.12,0,2,2,0,0,0-.84-1.47h0a4.76,4.76,0,0,0-5.38,0h0a1.83,1.83,0,0,0-.83,1.68,2.62,2.62,0,0,0,1.84,1.81l4.8,1.82a6.59,6.59,0,0,1,4.47,5,5.9,5.9,0,0,1-2.36,5.55h0a8.78,8.78,0,0,1-10.44,0h0a6,6,0,0,1-2.43-4.71,2.06,2.06,0,1,1,4.12,0,2,2,0,0,0,.84,1.47,4.76,4.76,0,0,0,5.38,0h0A1.81,1.81,0,0,0,728,264.58Z"/><path class="cls-1" d="M749.51,269.44a6,6,0,0,1-10.29-4.27V252.65a2,2,0,0,1,0-3.85V243a2.06,2.06,0,0,1,4.12,0v5.65h1.32a2.06,2.06,0,1,1,0,4.12h-1.32v12.38a1.91,1.91,0,0,0,3.26,1.35,2.06,2.06,0,1,1,2.91,2.92Z"/><path class="cls-1" d="M774.13,259.94h0v9.19a2.06,2.06,0,1,1-4.12,0v-.5a11.27,11.27,0,1,1,0-17.41v-.5a2.06,2.06,0,1,1,4.12,0v9.21Zm-4.12,0a7.15,7.15,0,1,0-7.15,7.16,7.16,7.16,0,0,0,7.15-7.16Z"/><path class="cls-1" d="M784,239.59v29.55a2.06,2.06,0,1,1-4.12,0V239.59a2.06,2.06,0,1,1,4.12,0Z"/><path class="cls-1" d="M847.66,259.94a11.27,11.27,0,0,1-18.42,8.7v11.64a2.06,2.06,0,1,1-4.11,0V260h0v-9.21a2.06,2.06,0,1,1,4.11,0v.5a11.27,11.27,0,0,1,18.42,8.71Zm-4.12,0a7.15,7.15,0,0,0-14.3,0v0a7.15,7.15,0,0,0,14.3,0Z"/><path class="cls-1" d="M857.56,239.59v29.55a2.06,2.06,0,0,1-4.12,0V239.59a2.06,2.06,0,1,1,4.12,0Z"/><path class="cls-1" d="M885.43,259.94h0v9.19a2.06,2.06,0,1,1-4.12,0v-.5a11.27,11.27,0,1,1,0-17.41v-.5a2.06,2.06,0,1,1,4.12,0v9.21Zm-4.12,0a7.15,7.15,0,1,0-7.14,7.16,7.15,7.15,0,0,0,7.14-7.16Z"/><path class="cls-1" d="M895.34,244.81h0a2.06,2.06,0,1,1-2.06-2.06A2.06,2.06,0,0,1,895.34,244.81Zm0,5.92v18.41a2.06,2.06,0,0,1-4.12,0V250.73a2.06,2.06,0,0,1,4.12,0Z"/><path class="cls-1" d="M921,258.58v10.56a2.06,2.06,0,0,1-4.12,0V258.58a5.8,5.8,0,0,0-11.6,0v10.56a2.06,2.06,0,1,1-4.12,0V250.73a2.06,2.06,0,0,1,4.11-.16,9.83,9.83,0,0,1,5.81-1.9A9.93,9.93,0,0,1,921,258.58Z"/><path class="cls-1" d="M25.41,317.54h0v9.19a2.06,2.06,0,0,1-4.12,0v-.5a11.27,11.27,0,1,1,0-17.41V297.19a2.06,2.06,0,1,1,4.12,0v20.35Zm-4.12,0a7.15,7.15,0,1,0-7.14,7.16,7.15,7.15,0,0,0,7.14-7.16Z"/><path class="cls-1" d="M35.32,302.41h0a2.06,2.06,0,1,1-2.06-2.06A2.06,2.06,0,0,1,35.32,302.41Zm0,5.92v18.41a2.06,2.06,0,0,1-4.12,0V308.33a2.06,2.06,0,0,1,4.12,0Z"/><path class="cls-1" d="M52.3,322.18a2.58,2.58,0,0,0-1.84-1.81l-4.79-1.82a6.59,6.59,0,0,1-4.47-5A5.89,5.89,0,0,1,43.57,308h0A8.82,8.82,0,0,1,54,308h0a6,6,0,0,1,2.43,4.71,2.06,2.06,0,1,1-4.12,0,1.93,1.93,0,0,0-.85-1.47h0a4.75,4.75,0,0,0-5.37,0h0a1.81,1.81,0,0,0-.83,1.68,2.62,2.62,0,0,0,1.84,1.81l4.8,1.82a6.58,6.58,0,0,1,4.46,5A5.88,5.88,0,0,1,54,327.1h0a8.8,8.8,0,0,1-10.45,0h0a6,6,0,0,1-2.42-4.71,2.06,2.06,0,1,1,4.11,0,1.93,1.93,0,0,0,.85,1.47,4.75,4.75,0,0,0,5.37,0h0A1.78,1.78,0,0,0,52.3,322.18Z"/><path class="cls-1" d="M83.06,317.54h0v9.19a2.06,2.06,0,0,1-4.12,0v-.5a11.27,11.27,0,1,1,0-17.41v-.5a2.06,2.06,0,1,1,4.12,0v9.21Zm-4.12,0a7.15,7.15,0,1,0-7.15,7.16,7.16,7.16,0,0,0,7.15-7.16Z"/><path class="cls-1" d="M111.38,317.54A11.26,11.26,0,0,1,93,326.24v11.64a2.06,2.06,0,0,1-4.12,0V317.55h0v-9.21a2.06,2.06,0,1,1,4.12,0v.5a11.26,11.26,0,0,1,18.41,8.71Zm-4.12,0a7.15,7.15,0,0,0-14.29,0v0a7.15,7.15,0,0,0,14.29,0Z"/><path class="cls-1" d="M138.5,317.54a11.26,11.26,0,0,1-18.41,8.7v11.64a2.06,2.06,0,0,1-4.12,0V317.55h0v-9.21a2.06,2.06,0,1,1,4.12,0v.5a11.26,11.26,0,0,1,18.41,8.71Zm-4.12,0a7.15,7.15,0,0,0-14.29,0v0a7.15,7.15,0,0,0,14.29,0Z"/><path class="cls-1" d="M165.14,317.54a2.06,2.06,0,0,1-2.06,2.06H147a7.15,7.15,0,0,0,11.9,3,2.06,2.06,0,1,1,2.91,2.91,11.27,11.27,0,0,1-19.23-7.8v-.33a11.27,11.27,0,0,1,22.53.17Zm-4.42-2.06a7.06,7.06,0,0,0-1.79-3,7.15,7.15,0,0,0-11.9,3Z"/><path class="cls-1" d="M191.78,317.54h0v9.19a2.06,2.06,0,0,1-4.12,0v-.5a11.27,11.27,0,1,1,0-17.41v-.5a2.06,2.06,0,1,1,4.12,0v9.21Zm-4.12,0a7.15,7.15,0,1,0-7.14,7.16,7.15,7.15,0,0,0,7.14-7.16Z"/><path class="cls-1" d="M209.54,308.33a2.06,2.06,0,0,1-2.06,2.06,5.8,5.8,0,0,0-5.79,5.79v10.56a2.06,2.06,0,0,1-4.12,0V308.33a2.05,2.05,0,0,1,4.1-.16,9.85,9.85,0,0,1,5.81-1.9A2.06,2.06,0,0,1,209.54,308.33Z"/><path class="cls-1" d="M224.34,322.18a2.62,2.62,0,0,0-1.84-1.81l-4.8-1.82a6.59,6.59,0,0,1-4.47-5A5.91,5.91,0,0,1,215.6,308h0A8.82,8.82,0,0,1,226,308h0a6,6,0,0,1,2.43,4.71,2.06,2.06,0,1,1-4.12,0,2,2,0,0,0-.84-1.47h0a4.75,4.75,0,0,0-5.37,0h0a1.83,1.83,0,0,0-.83,1.68,2.62,2.62,0,0,0,1.84,1.81l4.8,1.82a6.59,6.59,0,0,1,4.47,5,5.9,5.9,0,0,1-2.36,5.55h0a8.78,8.78,0,0,1-10.44,0h0a6,6,0,0,1-2.43-4.71,2.06,2.06,0,0,1,4.12,0,2,2,0,0,0,.84,1.47,4.76,4.76,0,0,0,5.38,0h0A1.81,1.81,0,0,0,224.34,322.18Z"/><path class="cls-1" d="M273.92,325.5a11.27,11.27,0,1,1,0-15.93,2.06,2.06,0,0,1-2.92,2.91,7.15,7.15,0,1,0,0,10.11,2.06,2.06,0,1,1,2.92,2.91Z"/><path class="cls-1" d="M301.17,317.54a11.27,11.27,0,1,1-11.26-11.27A11.27,11.27,0,0,1,301.17,317.54Zm-4.12,0a7.15,7.15,0,1,0-7.14,7.14A7.15,7.15,0,0,0,297.05,317.54Z"/><path class="cls-1" d="M341.31,316.18v10.56a2.06,2.06,0,0,1-4.12,0V316.18a5.8,5.8,0,0,0-11.6,0v10.56a2.06,2.06,0,1,1-4.11,0V316.18a5.8,5.8,0,0,0-11.6,0v10.56a2.06,2.06,0,0,1-4.12,0V308.33a2.05,2.05,0,0,1,4.1-.16,9.86,9.86,0,0,1,13.67,2,9.91,9.91,0,0,1,17.78,6Z"/><path class="cls-1" d="M369.67,317.54a11.26,11.26,0,0,1-18.41,8.7v11.64a2.06,2.06,0,0,1-4.12,0V317.55h0v-9.21a2.06,2.06,0,0,1,4.12,0v.5a11.26,11.26,0,0,1,18.41,8.71Zm-4.12,0a7.15,7.15,0,0,0-14.29,0v0a7.15,7.15,0,0,0,14.29,0Z"/><path class="cls-1" d="M379.58,297.19v29.55a2.06,2.06,0,0,1-4.12,0V297.19a2.06,2.06,0,1,1,4.12,0Z"/><path class="cls-1" d="M407.45,317.54a2.07,2.07,0,0,1-2.06,2.06H389.34a7,7,0,0,0,1.79,3,7.14,7.14,0,0,0,10.1,0,2.06,2.06,0,1,1,2.92,2.91,11.26,11.26,0,0,1-19.23-7.8c0-.06,0-.11,0-.16s0-.11,0-.17a11.27,11.27,0,0,1,22.53.17ZM403,315.48a7.16,7.16,0,0,0-11.9-3,7,7,0,0,0-1.79,3Z"/><path class="cls-1" d="M423.19,327a6,6,0,0,1-10.29-4.27V310.25a2,2,0,0,1,0-3.85v-5.78a2.06,2.06,0,0,1,4.12,0v5.65h1.33a2.06,2.06,0,0,1,0,4.12H417v12.38a1.91,1.91,0,0,0,3.26,1.35,2.06,2.06,0,0,1,2.91,2.92Z"/><path class="cls-1" d="M447.81,317.54a2.06,2.06,0,0,1-2.06,2.06H429.7a7.15,7.15,0,0,0,11.9,3,2.06,2.06,0,1,1,2.91,2.91,11.26,11.26,0,0,1-19.22-7.8.92.92,0,0,1,0-.16,1,1,0,0,1,0-.17,11.26,11.26,0,0,1,22.52.17Zm-4.41-2.06a7.15,7.15,0,0,0-13.7,0Z"/><path class="cls-1" d="M457.72,297.19v29.55a2.06,2.06,0,0,1-4.12,0V297.19a2.06,2.06,0,0,1,4.12,0Z"/><path class="cls-1" d="M483.2,309.14,480,316.77h0l-9.31,21.91a2.05,2.05,0,0,1-1.89,1.25,2.09,2.09,0,0,1-.81-.16,2.06,2.06,0,0,1-1.09-2.7l4.38-10.31-7.53-17.63a2.06,2.06,0,1,1,3.79-1.62l6,14,2.68-6.26,0-.06h0l3.27-7.64a2.06,2.06,0,1,1,3.78,1.62Z"/><path class="cls-1" d="M513.78,302.41h0a2.06,2.06,0,1,1-2.06-2.06A2.06,2.06,0,0,1,513.78,302.41Zm0,5.92v18.41a2.06,2.06,0,1,1-4.11,0V308.33a2.06,2.06,0,1,1,4.11,0Z"/><path class="cls-1" d="M539.43,316.18v10.56a2.06,2.06,0,1,1-4.12,0V316.18a5.8,5.8,0,0,0-11.59,0v10.56a2.06,2.06,0,0,1-4.12,0V308.33a2.05,2.05,0,0,1,4.1-.16,9.9,9.9,0,0,1,15.73,8Z"/><path class="cls-1" d="M577.37,327a6,6,0,0,1-10.29-4.27V310.25a2,2,0,0,1,0-3.85v-5.78a2.06,2.06,0,0,1,4.12,0v5.65h1.32a2.06,2.06,0,1,1,0,4.12H571.2v12.38a1.91,1.91,0,0,0,3.26,1.35,2.06,2.06,0,0,1,2.91,2.92Z"/><path class="cls-1" d="M602.89,316.18v10.56a2.06,2.06,0,1,1-4.12,0V316.18a5.8,5.8,0,0,0-11.59,0v10.56a2.06,2.06,0,1,1-4.12,0V297.19a2.06,2.06,0,1,1,4.12,0v11a9.78,9.78,0,0,1,5.79-1.89A9.93,9.93,0,0,1,602.89,316.18Z"/><path class="cls-1" d="M629.59,317.54a2.06,2.06,0,0,1-2.06,2.06h-16a7.07,7.07,0,0,0,1.79,3,7.15,7.15,0,0,0,10.11,0,2.06,2.06,0,1,1,2.91,2.91,11.27,11.27,0,0,1-19.23-7.8v-.33a11.27,11.27,0,0,1,22.53.17Zm-4.42-2.06a7.06,7.06,0,0,0-1.79-3,7.15,7.15,0,0,0-11.9,3Z"/><path class="cls-1" d="M675.66,316.18v10.56a2.06,2.06,0,1,1-4.12,0V316.18a5.8,5.8,0,0,0-11.59,0v10.56a2.06,2.06,0,0,1-4.12,0V308.33a2.05,2.05,0,0,1,4.1-.16,9.9,9.9,0,0,1,15.73,8Z"/><path class="cls-1" d="M702.36,317.54a11.27,11.27,0,1,1-11.27-11.27A11.28,11.28,0,0,1,702.36,317.54Zm-4.12,0a7.15,7.15,0,1,0-7.15,7.14A7.15,7.15,0,0,0,698.24,317.54Z"/><path class="cls-1" d="M718.92,308.33a2.06,2.06,0,0,1-2.06,2.06,5.8,5.8,0,0,0-5.79,5.79v10.56a2.06,2.06,0,0,1-4.12,0V308.33a2.05,2.05,0,0,1,4.1-.16,9.85,9.85,0,0,1,5.81-1.9A2.06,2.06,0,0,1,718.92,308.33Z"/><path class="cls-1" d="M736.34,327a6,6,0,0,1-4.26,1.76,6,6,0,0,1-6-6V310.25a2.05,2.05,0,0,1,0-3.85v-5.78a2.06,2.06,0,1,1,4.12,0v5.65h1.33a2.06,2.06,0,0,1,0,4.12h-1.33v12.38a1.91,1.91,0,0,0,3.26,1.35,2.06,2.06,0,1,1,2.91,2.92Z"/><path class="cls-1" d="M761.87,316.18v10.56a2.06,2.06,0,0,1-4.12,0V316.18a5.8,5.8,0,0,0-11.6,0v10.56a2.06,2.06,0,1,1-4.12,0V297.19a2.06,2.06,0,1,1,4.12,0v11a9.9,9.9,0,0,1,15.72,8Z"/><path class="cls-1" d="M769.72,327.72l-1.63,2.75a2.06,2.06,0,0,1-1.78,1,2,2,0,0,1-1-.29,2.06,2.06,0,0,1-.71-2.82l1.63-2.75a2.06,2.06,0,0,1,3.54,2.11Z"/><path class="cls-1" d="M828.2,309.14l-7.86,18.41a2.06,2.06,0,0,1-3.79,0l-6-14-6,14a2.06,2.06,0,0,1-3.79,0L793,309.14a2.06,2.06,0,0,1,3.79-1.62l6,14,6-14a.75.75,0,0,1,.07-.12,1.39,1.39,0,0,1,.11-.21L809,307l.14-.15a1.07,1.07,0,0,1,.16-.14l.15-.12.21-.12.12-.06h0l.26-.08.13,0,.22,0,.18,0h.16l.24,0,.12,0a1.38,1.38,0,0,1,.27.08h0a.6.6,0,0,1,.11.06,1.67,1.67,0,0,1,.23.12l.14.11a1.22,1.22,0,0,1,.17.15l.13.15.12.15a1.55,1.55,0,0,1,.12.22l.07.12,6,14,6-14a2.06,2.06,0,1,1,3.79,1.62Z"/><path class="cls-1" d="M854,316.18v10.56a2.06,2.06,0,1,1-4.12,0V316.18a5.8,5.8,0,0,0-11.6,0v10.56a2.06,2.06,0,1,1-4.12,0V297.19a2.06,2.06,0,1,1,4.12,0v11a9.9,9.9,0,0,1,15.72,8Z"/><path class="cls-1" d="M880.73,317.54a2.07,2.07,0,0,1-2.06,2.06h-16a7.07,7.07,0,0,0,1.79,3,7.14,7.14,0,0,0,10.1,0,2.06,2.06,0,1,1,2.92,2.91,11.26,11.26,0,0,1-19.23-7.8c0-.06,0-.11,0-.16s0-.11,0-.17a11.27,11.27,0,0,1,22.53.17Zm-4.42-2.06a7.16,7.16,0,0,0-11.9-3,7.1,7.1,0,0,0-1.79,3Z"/><path class="cls-1" d="M897.29,308.33a2.06,2.06,0,0,1-2.06,2.06,5.8,5.8,0,0,0-5.8,5.79v10.56a2.06,2.06,0,1,1-4.12,0V308.33a2.06,2.06,0,0,1,4.11-.16,9.83,9.83,0,0,1,5.81-1.9A2.06,2.06,0,0,1,897.29,308.33Z"/><path class="cls-1" d="M921.05,317.54A2.06,2.06,0,0,1,919,319.6h-16a7.07,7.07,0,0,0,1.79,3,7.14,7.14,0,0,0,10.1,0,2.06,2.06,0,0,1,2.92,2.91,11.26,11.26,0,0,1-19.23-7.8c0-.06,0-.11,0-.16s0-.11,0-.17a11.27,11.27,0,0,1,22.53.17Zm-4.42-2.06a7.16,7.16,0,0,0-11.9-3,7.1,7.1,0,0,0-1.79,3Z"/><path class="cls-1" d="M6.51,353.42l14.17,16.63,14.18-16.63a2.09,2.09,0,0,1,2.28-.6,2.07,2.07,0,0,1,1.34,1.94V384.3a2.06,2.06,0,1,1-4.11,0V360.35L22.25,374.56l-.12.12s-.07.08-.11.11l0,0-.19.13a.83.83,0,0,1-.16.09,1.11,1.11,0,0,1-.19.09l-.18.07-.19,0a1.38,1.38,0,0,1-.2,0h-.39a1.2,1.2,0,0,1-.2,0l-.19,0-.19-.07-.18-.08a.91.91,0,0,1-.16-.11,1.13,1.13,0,0,1-.18-.12l0,0a.68.68,0,0,1-.12-.12l-.11-.11L7,360.35V384.3a2.06,2.06,0,1,1-4.12,0V354.76a2.06,2.06,0,0,1,3.63-1.34Z"/><path class="cls-1" d="M66.79,375.14a11.27,11.27,0,1,1-11.27-11.27A11.28,11.28,0,0,1,66.79,375.14Zm-4.12,0a7.15,7.15,0,1,0-7.15,7.14A7.15,7.15,0,0,0,62.67,375.14Z"/><path class="cls-1" d="M91.93,365.93v18.41a2.05,2.05,0,0,1-4.1.16,9.9,9.9,0,0,1-15.73-8V365.93a2.06,2.06,0,1,1,4.11,0v10.56a5.8,5.8,0,0,0,11.6,0V365.93a2.06,2.06,0,1,1,4.12,0Z"/><path class="cls-1" d="M117.61,373.78v10.56a2.06,2.06,0,1,1-4.12,0V373.78a5.8,5.8,0,0,0-11.6,0v10.56a2.06,2.06,0,1,1-4.11,0V365.93a2.05,2.05,0,0,1,4.1-.16,9.83,9.83,0,0,1,5.81-1.9A9.93,9.93,0,0,1,117.61,373.78Z"/><path class="cls-1" d="M133.41,384.64a6,6,0,0,1-4.26,1.76,6,6,0,0,1-6-6V367.85a2.05,2.05,0,0,1,0-3.85v-5.78a2.06,2.06,0,1,1,4.12,0v5.65h1.33a2.06,2.06,0,0,1,0,4.12h-1.33v12.38a1.91,1.91,0,0,0,3.26,1.35,2.06,2.06,0,1,1,2.91,2.92Z"/><path class="cls-1" d="M160.38,384.31V354.76a2.06,2.06,0,0,1,4.12,0v27.5h23.13a2.06,2.06,0,1,1,0,4.11H162.44A2.06,2.06,0,0,1,160.38,384.31Z"/><path class="cls-1" d="M212.77,375.14a11.27,11.27,0,1,1-11.27-11.27A11.28,11.28,0,0,1,212.77,375.14Zm-4.12,0a7.15,7.15,0,1,0-7.15,7.14A7.15,7.15,0,0,0,208.65,375.14Z"/><path class="cls-1" d="M234.86,366.74,227,385.15a2.05,2.05,0,0,1-3.78,0l-7.86-18.41a2.06,2.06,0,1,1,3.79-1.62l6,14,6-14a2.06,2.06,0,1,1,3.79,1.62Z"/><path class="cls-1" d="M258.06,385.54a15.64,15.64,0,0,1-6.67,1.34c-7,0-11.57-4.75-11.57-11.86s4.89-12.33,12.48-12.33a14.13,14.13,0,0,1,5.86,1.2l-1,3.26a9.79,9.79,0,0,0-4.9-1.1c-5.33,0-8.21,3.93-8.21,8.78,0,5.38,3.46,8.69,8.06,8.69a12,12,0,0,0,5.19-1.15Zm-.91-32.41L251.29,360h-3l4.22-6.87Z"/><path class="cls-1" d="M284.91,375.14a2.05,2.05,0,0,1-2.06,2.05H266.8a7.15,7.15,0,0,0,11.9,3,2.06,2.06,0,0,1,2.91,2.91,11.27,11.27,0,0,1-19.23-7.8V375a11.27,11.27,0,0,1,22.53.17Zm-4.42-2.06a7.06,7.06,0,0,0-1.79-3,7.15,7.15,0,0,0-11.9,3Z"/><path class="cls-1" d="M309.33,373.78v10.56a2.06,2.06,0,1,1-4.12,0V373.78a5.8,5.8,0,0,0-11.59,0v10.56a2.06,2.06,0,0,1-4.12,0V365.93a2.05,2.05,0,0,1,4.1-.16,9.9,9.9,0,0,1,15.73,8Z"/><path class="cls-1" d="M358.26,375.14h0v9.19a2.06,2.06,0,0,1-4.12,0v-.5a11.26,11.26,0,1,1,0-17.41v-.5a2.06,2.06,0,1,1,4.11,0v9.21Zm-4.11,0a7.15,7.15,0,1,0-7.15,7.16,7.16,7.16,0,0,0,7.15-7.16Z"/><path class="cls-1" d="M383.89,373.78v10.56a2.06,2.06,0,0,1-4.12,0V373.78a5.8,5.8,0,0,0-11.6,0v10.56a2.06,2.06,0,1,1-4.12,0V365.93a2.06,2.06,0,0,1,4.11-.16,9.83,9.83,0,0,1,5.81-1.9A9.93,9.93,0,0,1,383.89,373.78Z"/><path class="cls-1" d="M410.58,375.14h0v9.19a2.06,2.06,0,1,1-4.11,0v-.5a11.27,11.27,0,1,1,0-17.41V354.79a2.06,2.06,0,1,1,4.11,0v20.35Zm-4.11,0a7.15,7.15,0,1,0-7.15,7.16,7.16,7.16,0,0,0,7.15-7.16Z"/><path class="cls-1" d="M459.46,375.14a11.27,11.27,0,1,1-11.27-11.27A11.28,11.28,0,0,1,459.46,375.14Zm-4.12,0a7.15,7.15,0,1,0-7.15,7.14A7.15,7.15,0,0,0,455.34,375.14Z"/><path class="cls-1" d="M475.21,384.64a6,6,0,0,1-10.3-4.27V367.85a2.05,2.05,0,0,1,0-3.85v-5.78a2.06,2.06,0,1,1,4.12,0v5.65h1.33a2.06,2.06,0,0,1,0,4.12H469v12.38a1.91,1.91,0,0,0,3.26,1.35,2.06,2.06,0,0,1,2.92,2.92Z"/><path class="cls-1" d="M500.73,373.78v10.56a2.06,2.06,0,0,1-4.12,0V373.78a5.8,5.8,0,0,0-11.6,0v10.56a2.06,2.06,0,0,1-4.12,0V354.79a2.06,2.06,0,0,1,4.12,0v11a9.9,9.9,0,0,1,15.72,8Z"/><path class="cls-1" d="M527.43,375.14a2.06,2.06,0,0,1-2.06,2.05H509.32a7,7,0,0,0,1.79,3,7.14,7.14,0,0,0,10.1,0,2.06,2.06,0,1,1,2.92,2.91,11.26,11.26,0,0,1-19.23-7.8c0-.06,0-.11,0-.16s0-.11,0-.17a11.27,11.27,0,0,1,22.53.17ZM523,373.08a7.16,7.16,0,0,0-11.9-3,7.1,7.1,0,0,0-1.79,3Z"/><path class="cls-1" d="M544,365.93a2.06,2.06,0,0,1-2.06,2.06,5.8,5.8,0,0,0-5.8,5.79v10.56a2.06,2.06,0,1,1-4.12,0V365.93a2.06,2.06,0,0,1,4.11-.16,9.83,9.83,0,0,1,5.81-1.9A2.06,2.06,0,0,1,544,365.93Z"/><path class="cls-1" d="M605.88,373.78v10.56a2.06,2.06,0,1,1-4.12,0V373.78a5.8,5.8,0,0,0-11.6,0v10.56a2.06,2.06,0,1,1-4.12,0V373.78a5.8,5.8,0,0,0-11.59,0v10.56a2.06,2.06,0,0,1-4.12,0V365.93a2.05,2.05,0,0,1,4.1-.16,9.86,9.86,0,0,1,13.67,2,9.91,9.91,0,0,1,17.78,6Z"/><path class="cls-1" d="M632.56,375.14a11.27,11.27,0,1,1-11.27-11.27A11.28,11.28,0,0,1,632.56,375.14Zm-4.12,0a7.15,7.15,0,1,0-7.15,7.14A7.15,7.15,0,0,0,628.44,375.14Z"/><path class="cls-1" d="M657.7,365.93v18.41a2.06,2.06,0,0,1-4.11.16,9.81,9.81,0,0,1-5.81,1.9,9.92,9.92,0,0,1-9.91-9.91V365.93a2.06,2.06,0,1,1,4.11,0v10.56a5.8,5.8,0,0,0,11.6,0V365.93a2.06,2.06,0,0,1,4.12,0Z"/><path class="cls-1" d="M683.38,373.78v10.56a2.06,2.06,0,1,1-4.12,0V373.78a5.8,5.8,0,0,0-11.6,0v10.56a2.06,2.06,0,1,1-4.12,0V365.93a2.06,2.06,0,0,1,4.11-.16,9.83,9.83,0,0,1,5.81-1.9A9.93,9.93,0,0,1,683.38,373.78Z"/><path class="cls-1" d="M699.18,384.64a6,6,0,0,1-4.26,1.76,6,6,0,0,1-6-6V367.85a2,2,0,0,1,0-3.85v-5.78a2.06,2.06,0,1,1,4.12,0v5.65h1.33a2.06,2.06,0,0,1,0,4.12H693v12.38a1.91,1.91,0,0,0,3.26,1.35,2.06,2.06,0,0,1,2.91,2.92Z"/><path class="cls-1" d="M723.8,375.14h0v9.19a2.06,2.06,0,1,1-4.11,0v-.5a11.27,11.27,0,1,1,0-17.41v-.5a2.06,2.06,0,1,1,4.11,0v9.21Zm-4.11,0a7.15,7.15,0,1,0-7.15,7.16,7.16,7.16,0,0,0,7.15-7.16Z"/><path class="cls-1" d="M733.71,360h0a2.06,2.06,0,1,1-2.06-2.06A2.06,2.06,0,0,1,733.71,360Zm0,5.92v18.41a2.06,2.06,0,0,1-4.12,0V365.93a2.06,2.06,0,0,1,4.12,0Z"/><path class="cls-1" d="M759.36,373.78v10.56a2.06,2.06,0,0,1-4.12,0V373.78a5.8,5.8,0,0,0-11.59,0v10.56a2.06,2.06,0,1,1-4.12,0V365.93a2.05,2.05,0,0,1,4.1-.16,9.9,9.9,0,0,1,15.73,8Z"/><path class="cls-1" d="M797.74,365.93a2.06,2.06,0,0,1-2.06,2.06,5.8,5.8,0,0,0-5.8,5.79v10.56a2.06,2.06,0,1,1-4.12,0V365.93a2.06,2.06,0,0,1,4.11-.16,9.83,9.83,0,0,1,5.81-1.9A2.06,2.06,0,0,1,797.74,365.93Z"/><path class="cls-1" d="M821.49,375.14h0v9.19a2.06,2.06,0,1,1-4.11,0v-.5a11.27,11.27,0,1,1,0-17.41v-.5a2.06,2.06,0,1,1,4.11,0v9.21Zm-4.11,0a7.15,7.15,0,1,0-7.15,7.16,7.16,7.16,0,0,0,7.15-7.16Z"/><path class="cls-1" d="M847.11,373.78v10.56a2.06,2.06,0,1,1-4.11,0V373.78a5.8,5.8,0,0,0-11.6,0v10.56a2.06,2.06,0,1,1-4.12,0V365.93a2.05,2.05,0,0,1,4.1-.16,9.9,9.9,0,0,1,15.73,8Z"/><path class="cls-1" d="M873.81,365.93v20.39a11.26,11.26,0,0,1-19.23,8,2.06,2.06,0,0,1,2.91-2.91,7.15,7.15,0,0,0,12.2-5.06v-2.47a11.27,11.27,0,1,1,0-17.41v-.5a2.06,2.06,0,1,1,4.12,0Zm-4.12,9.21a7.15,7.15,0,1,0-7.14,7.14A7.15,7.15,0,0,0,869.69,375.14Z"/><path class="cls-1" d="M901.66,375.14a2.06,2.06,0,0,1-2.06,2.05H883.55a7,7,0,0,0,1.78,3,7.15,7.15,0,0,0,10.11,0,2.06,2.06,0,1,1,2.92,2.91,11.26,11.26,0,0,1-19.23-7.8.92.92,0,0,1,0-.16c0-.06,0-.11,0-.17a11.27,11.27,0,0,1,22.53.17Zm-4.42-2.06a7.16,7.16,0,0,0-11.91-3,7.08,7.08,0,0,0-1.78,3Z"/><path class="cls-1" d="M916.93,379.78a2.6,2.6,0,0,0-1.84-1.81l-4.8-1.82a6.58,6.58,0,0,1-4.46-5,5.88,5.88,0,0,1,2.36-5.55h0a8.81,8.81,0,0,1,10.43,0h0a6,6,0,0,1,2.43,4.71,2.06,2.06,0,0,1-4.12,0,1.93,1.93,0,0,0-.85-1.47h0a4.75,4.75,0,0,0-5.37,0h0a1.81,1.81,0,0,0-.83,1.68,2.58,2.58,0,0,0,1.84,1.81l4.8,1.82a6.59,6.59,0,0,1,4.46,5,5.9,5.9,0,0,1-2.36,5.55h0a8.8,8.8,0,0,1-10.45,0h0a6,6,0,0,1-2.43-4.71,2.06,2.06,0,1,1,4.12,0,1.93,1.93,0,0,0,.85,1.47,4.75,4.75,0,0,0,5.37,0h0A1.79,1.79,0,0,0,916.93,379.78Z"/><path class="cls-1" d="M25.41,432.74A11.26,11.26,0,0,1,7,441.44v11.64a2.06,2.06,0,1,1-4.12,0V432.75h0v-9.21a2.06,2.06,0,0,1,4.12,0v.5a11.26,11.26,0,0,1,18.41,8.71Zm-4.12,0a7.15,7.15,0,0,0-14.29,0v0a7.15,7.15,0,0,0,14.29,0Z"/><path class="cls-1" d="M35.32,412.39v29.55a2.06,2.06,0,0,1-4.12,0V412.39a2.06,2.06,0,0,1,4.12,0Z"/><path class="cls-1" d="M61,423.53v18.41a2.06,2.06,0,0,1-4.11.16,9.89,9.89,0,0,1-15.72-8V423.53a2.06,2.06,0,1,1,4.11,0v10.56a5.8,5.8,0,0,0,11.6,0V423.53a2.06,2.06,0,0,1,4.12,0Z"/><path class="cls-1" d="M86.65,431.39v10.55a2.06,2.06,0,0,1-4.12,0V431.39a5.8,5.8,0,0,0-11.6,0v10.55a2.06,2.06,0,1,1-4.12,0V423.53a2.06,2.06,0,0,1,4.11-.16,9.83,9.83,0,0,1,5.81-1.9A9.93,9.93,0,0,1,86.65,431.39Z"/><path class="cls-1" d="M113.35,423.53v20.39a11.27,11.27,0,0,1-19.24,8A2.06,2.06,0,1,1,97,449a7.15,7.15,0,0,0,12.2-5.05v-2.48a11.27,11.27,0,1,1,0-17.41v-.5a2.06,2.06,0,1,1,4.12,0Zm-4.12,9.21a7.15,7.15,0,1,0-7.15,7.14A7.16,7.16,0,0,0,109.23,432.74Z"/><path class="cls-1" d="M141.19,432.74a2.06,2.06,0,0,1-2.06,2.06h-16a7.07,7.07,0,0,0,1.79,3,7.15,7.15,0,0,0,10.11,0,2.06,2.06,0,1,1,2.91,2.91,11.27,11.27,0,0,1-19.23-7.8s0-.11,0-.16,0-.11,0-.17a11.27,11.27,0,0,1,22.53.17Zm-4.42-2.06a7.27,7.27,0,0,0-1.79-3,7.15,7.15,0,0,0-11.9,3Z"/><path class="cls-1" d="M186.46,432.74h0v9.19a2.06,2.06,0,1,1-4.12,0v-.5a11.27,11.27,0,1,1,0-17.41v-.5a2.06,2.06,0,0,1,4.12,0v9.21Zm-4.12,0a7.15,7.15,0,1,0-7.15,7.16,7.16,7.16,0,0,0,7.15-7.16Z"/><path class="cls-1" d="M214.78,432.74a11.27,11.27,0,0,1-18.42,8.7v.5a2.06,2.06,0,1,1-4.11,0v-9.2h0V412.35a2.06,2.06,0,1,1,4.11,0V424a11.27,11.27,0,0,1,18.42,8.71Zm-4.12,0a7.15,7.15,0,0,0-14.3,0h0a7.15,7.15,0,0,0,14.3,0Z"/><path class="cls-1" d="M231.34,423.53a2.06,2.06,0,0,1-2.06,2.06,5.81,5.81,0,0,0-5.8,5.8v10.55a2.06,2.06,0,1,1-4.11,0V423.53a2.05,2.05,0,0,1,4.1-.16,9.83,9.83,0,0,1,5.81-1.9A2.06,2.06,0,0,1,231.34,423.53Z"/><path class="cls-1" d="M257,423.53v18.41a2.05,2.05,0,0,1-4.1.16,9.9,9.9,0,0,1-15.73-8V423.53a2.06,2.06,0,1,1,4.11,0v10.56a5.8,5.8,0,0,0,11.6,0V423.53a2.06,2.06,0,0,1,4.12,0Z"/><path class="cls-1" d="M285.34,432.74a11.26,11.26,0,0,1-18.41,8.7v11.64a2.06,2.06,0,1,1-4.12,0V432.75h0v-9.21a2.06,2.06,0,0,1,4.12,0v.5a11.26,11.26,0,0,1,18.41,8.71Zm-4.12,0a7.15,7.15,0,0,0-14.29,0v0a7.15,7.15,0,0,0,14.29,0Z"/><path class="cls-1" d="M301.08,442.24a6,6,0,0,1-4.26,1.76,6,6,0,0,1-6-6V425.45a2.05,2.05,0,0,1,0-3.85v-5.78a2.06,2.06,0,1,1,4.12,0v5.65h1.33a2.06,2.06,0,1,1,0,4.12h-1.33V438a1.91,1.91,0,0,0,1.91,1.91,1.86,1.86,0,0,0,1.35-.56,2.06,2.06,0,1,1,2.91,2.92Z"/><path class="cls-1" d="M310.89,412.39v29.55a2.06,2.06,0,0,1-4.12,0V412.39a2.06,2.06,0,0,1,4.12,0Z"/><path class="cls-1" d="M336.38,424.34,333.12,432h0l-9.31,21.91a2.05,2.05,0,0,1-1.89,1.25,2.13,2.13,0,0,1-.81-.16,2.07,2.07,0,0,1-1.09-2.7L324.4,442l-7.53-17.63a2.06,2.06,0,0,1,3.79-1.62l6,14,2.67-6.26,0-.06h0l3.26-7.65a2.06,2.06,0,0,1,3.79,1.62Z"/><path class="cls-1" d="M363.46,417.61h0a2.06,2.06,0,1,1-2.06-2.06A2.06,2.06,0,0,1,363.46,417.61Zm0,5.92v18.41a2.06,2.06,0,1,1-4.12,0V423.53a2.06,2.06,0,0,1,4.12,0Z"/><path class="cls-1" d="M389.11,431.39v10.55a2.06,2.06,0,0,1-4.12,0V431.39a5.8,5.8,0,0,0-11.6,0v10.55a2.06,2.06,0,0,1-4.12,0V423.53a2.06,2.06,0,0,1,4.11-.16,9.83,9.83,0,0,1,5.81-1.9A9.93,9.93,0,0,1,389.11,431.39Z"/><path class="cls-1" d="M404.91,442.24a6,6,0,0,1-4.26,1.76,6,6,0,0,1-6-6V425.45a2,2,0,0,1,0-3.85v-5.78a2.06,2.06,0,0,1,4.12,0v5.65h1.33a2.06,2.06,0,1,1,0,4.12h-1.33V438a1.91,1.91,0,0,0,1.91,1.91,1.86,1.86,0,0,0,1.35-.56,2.06,2.06,0,1,1,2.91,2.92Z"/><path class="cls-1" d="M429.54,432.74a11.27,11.27,0,1,1-11.27-11.27A11.28,11.28,0,0,1,429.54,432.74Zm-4.12,0a7.15,7.15,0,1,0-7.15,7.14A7.16,7.16,0,0,0,425.42,432.74Z"/><path class="cls-1" d="M463.91,442.24a6,6,0,0,1-4.26,1.76,6,6,0,0,1-6-6V425.45a2,2,0,0,1,0-3.85v-5.78a2.06,2.06,0,0,1,4.12,0v5.65h1.33a2.06,2.06,0,1,1,0,4.12h-1.33V438a1.91,1.91,0,0,0,1.91,1.91,1.86,1.86,0,0,0,1.35-.56,2.06,2.06,0,1,1,2.91,2.92Z"/><path class="cls-1" d="M489.43,431.39v10.55a2.06,2.06,0,1,1-4.11,0V431.39a5.8,5.8,0,0,0-11.6,0v10.55a2.06,2.06,0,0,1-4.12,0V412.39a2.06,2.06,0,0,1,4.12,0v11a9.89,9.89,0,0,1,15.71,8Z"/><path class="cls-1" d="M516.13,432.74a2.06,2.06,0,0,1-2,2.06H498a7,7,0,0,0,1.78,3,7.15,7.15,0,0,0,10.11,0,2.06,2.06,0,0,1,2.91,2.91,11.26,11.26,0,0,1-19.22-7.8.86.86,0,0,1,0-.16,1,1,0,0,1,0-.17,11.26,11.26,0,0,1,22.52.17Zm-4.41-2.06a7.16,7.16,0,0,0-11.91-3,7.08,7.08,0,0,0-1.78,3Z"/><path class="cls-1" d="M543,417.61h0a2.06,2.06,0,1,1-2.06-2.06A2.06,2.06,0,0,1,543,417.61Zm0,5.92v18.41a2.06,2.06,0,0,1-4.12,0V423.53a2.06,2.06,0,0,1,4.12,0Z"/><path class="cls-1" d="M568.64,431.39v10.55a2.06,2.06,0,1,1-4.12,0V431.39a5.8,5.8,0,1,0-11.59,0v10.55a2.06,2.06,0,1,1-4.12,0V423.53a2.05,2.05,0,0,1,4.1-.16,9.9,9.9,0,0,1,15.73,8Z"/><path class="cls-1" d="M578.61,412.39v29.55a2.06,2.06,0,0,1-4.12,0V412.39a2.06,2.06,0,0,1,4.12,0Z"/><path class="cls-1" d="M606.48,432.74a2.07,2.07,0,0,1-2.06,2.06h-16a7.07,7.07,0,0,0,1.79,3,7.14,7.14,0,0,0,10.1,0,2.06,2.06,0,1,1,2.92,2.91A11.26,11.26,0,0,1,584,432.9s0-.11,0-.16,0-.11,0-.17a11.27,11.27,0,0,1,22.53.17Zm-4.42-2.06a7.16,7.16,0,0,0-11.9-3,7.1,7.1,0,0,0-1.79,3Z"/><path class="cls-1" d="M622.22,442.24A6,6,0,0,1,611.93,438V425.45a2,2,0,0,1,0-3.85v-5.78a2.06,2.06,0,1,1,4.12,0v5.65h1.33a2.06,2.06,0,1,1,0,4.12h-1.33V438a1.91,1.91,0,0,0,1.91,1.91,1.86,1.86,0,0,0,1.35-.56,2.06,2.06,0,1,1,2.91,2.92Z"/><path class="cls-1" d="M668.11,432.74a11.27,11.27,0,1,1-11.26-11.27A11.27,11.27,0,0,1,668.11,432.74Zm-4.11,0a7.15,7.15,0,1,0-7.15,7.14A7.16,7.16,0,0,0,664,432.74Z"/><path class="cls-1" d="M687.31,415.52a2,2,0,0,1-2.91,0,3.8,3.8,0,0,0-6.48,2.69v3.26h3.4a2.06,2.06,0,0,1,0,4.12h-3.4v16.35a2.06,2.06,0,1,1-4.12,0V425.52a2,2,0,0,1,0-4v-3.32a7.91,7.91,0,0,1,13.51-5.6A2.06,2.06,0,0,1,687.31,415.52Z"/><path class="cls-1" d="M713.05,442.24a6,6,0,0,1-4.26,1.76,6,6,0,0,1-6-6V425.45a2,2,0,0,1,0-3.85v-5.78a2.06,2.06,0,1,1,4.12,0v5.65h1.33a2.06,2.06,0,0,1,0,4.12h-1.33V438a1.91,1.91,0,0,0,1.91,1.91,1.86,1.86,0,0,0,1.35-.56,2.06,2.06,0,1,1,2.91,2.92Z"/><path class="cls-1" d="M738.57,431.39v10.55a2.06,2.06,0,1,1-4.11,0V431.39a5.8,5.8,0,0,0-11.6,0v10.55a2.06,2.06,0,0,1-4.12,0V412.39a2.06,2.06,0,0,1,4.12,0v11a9.89,9.89,0,0,1,15.71,8Z"/><path class="cls-1" d="M765.27,432.74a2.06,2.06,0,0,1-2.06,2.06h-16a7,7,0,0,0,1.78,3,7.15,7.15,0,0,0,10.11,0A2.06,2.06,0,0,1,762,440.7a11.26,11.26,0,0,1-19.22-7.8.86.86,0,0,1,0-.16,1,1,0,0,1,0-.17,11.26,11.26,0,0,1,22.52.17Zm-4.41-2.06a7.16,7.16,0,0,0-11.91-3,7.08,7.08,0,0,0-1.78,3Z"/><path class="cls-1" d="M816.73,415.23a2.06,2.06,0,1,1-2.91,2.91,12.71,12.71,0,1,0-.6,18.52v-9.52a2.06,2.06,0,1,1,4.11,0V441.9a2.06,2.06,0,1,1-4.11,0v-.18a16.83,16.83,0,1,1,3.51-26.49Z"/><path class="cls-1" d="M843,423.53v18.41a2.05,2.05,0,0,1-4.1.16,9.9,9.9,0,0,1-15.73-8V423.53a2.06,2.06,0,0,1,4.12,0v10.56a5.8,5.8,0,0,0,11.59,0V423.53a2.06,2.06,0,0,1,4.12,0Z"/><path class="cls-1" d="M853,412.39v29.55a2.06,2.06,0,0,1-4.12,0V412.39a2.06,2.06,0,0,1,4.12,0Z"/><path class="cls-1" d="M873.85,415.52a2,2,0,0,1-2.91,0,3.8,3.8,0,0,0-6.48,2.69v3.26h3.4a2.06,2.06,0,0,1,0,4.12h-3.4v16.35a2.06,2.06,0,0,1-4.12,0V425.52a2,2,0,0,1,0-4v-3.32a7.91,7.91,0,0,1,13.51-5.6A2.06,2.06,0,0,1,873.85,415.52Z"/><path class="cls-1" d="M910.49,432.74a11.27,11.27,0,1,1-11.27-11.27A11.28,11.28,0,0,1,910.49,432.74Zm-4.12,0a7.15,7.15,0,1,0-7.15,7.14A7.16,7.16,0,0,0,906.37,432.74Z"/><path class="cls-1" d="M929.68,415.52a2,2,0,0,1-2.91,0,3.76,3.76,0,0,0-2.68-1.11,3.8,3.8,0,0,0-3.8,3.8v3.26h3.41a2.06,2.06,0,0,1,0,4.12h-3.41v16.35a2.06,2.06,0,1,1-4.12,0V425.52a2,2,0,0,1,0-4v-3.32a7.93,7.93,0,0,1,7.92-7.92,7.83,7.83,0,0,1,5.59,2.32A2,2,0,0,1,929.68,415.52Z"/><path class="cls-1" d="M2.88,499.5V470A2.06,2.06,0,1,1,7,470v14.88l21.9-16.52a2.06,2.06,0,1,1,2.48,3.28L17.79,481.86l13.92,16.3a2,2,0,0,1-.23,2.9,2,2,0,0,1-1.33.5,2.07,2.07,0,0,1-1.57-.72L14.5,484.34,7,490v9.5a2.06,2.06,0,0,1-4.12,0Z"/><path class="cls-1" d="M56.23,490.34A11.27,11.27,0,1,1,45,479.07,11.28,11.28,0,0,1,56.23,490.34Zm-4.12,0A7.15,7.15,0,1,0,45,497.48,7.16,7.16,0,0,0,52.11,490.34Z"/><path class="cls-1" d="M72,499.84a6,6,0,0,1-10.3-4.27V483.05a2.05,2.05,0,0,1,0-3.85v-5.78a2.06,2.06,0,1,1,4.12,0v5.65h1.33a2.06,2.06,0,0,1,0,4.12H65.8v12.38a1.91,1.91,0,0,0,3.26,1.35A2.06,2.06,0,1,1,72,499.84Z"/><path class="cls-1" d="M96.6,490.34a11.27,11.27,0,1,1-11.27-11.27A11.28,11.28,0,0,1,96.6,490.34Zm-4.12,0a7.15,7.15,0,1,0-7.15,7.14A7.16,7.16,0,0,0,92.48,490.34Z"/><path class="cls-1" d="M113.16,481.13a2.06,2.06,0,0,1-2.06,2.06,5.8,5.8,0,0,0-5.8,5.79v10.56a2.06,2.06,0,0,1-4.12,0V481.13a2.06,2.06,0,0,1,4.11-.16,9.83,9.83,0,0,1,5.81-1.9A2.06,2.06,0,0,1,113.16,481.13Z"/><path class="cls-1" d="M115.39,499.3a2.23,2.23,0,1,1,2.23,2.23A2.23,2.23,0,0,1,115.39,499.3Z"/><path class="cls-1" d="M151,467.9h12.59a2.06,2.06,0,0,1,0,4.12H153.07V499.5a2.06,2.06,0,0,1-4.12,0V472H138.41a2.06,2.06,0,0,1,0-4.12H151Z"/><path class="cls-1" d="M191.32,489v10.56a2.06,2.06,0,1,1-4.12,0V489a5.8,5.8,0,0,0-11.59,0v10.56a2.06,2.06,0,0,1-4.12,0V470a2.06,2.06,0,0,1,4.12,0v11a9.79,9.79,0,0,1,5.8-1.89A9.93,9.93,0,0,1,191.32,489Z"/><path class="cls-1" d="M218,490.34A2.06,2.06,0,0,1,216,492.4H199.91a7.15,7.15,0,0,0,11.9,3,2.06,2.06,0,0,1,2.91,2.91,11.26,11.26,0,0,1-19.22-7.8.92.92,0,0,1,0-.16,1,1,0,0,1,0-.17,11.26,11.26,0,0,1,22.52.17Zm-4.41-2.06a7.15,7.15,0,0,0-13.7,0Z"/><path class="cls-1" d="M257.28,498.3a11.27,11.27,0,1,1,0-15.93,2.06,2.06,0,0,1-2.91,2.91,7.15,7.15,0,1,0,0,10.11,2.06,2.06,0,0,1,2.91,2.91Z"/><path class="cls-1" d="M284.54,490.34a11.27,11.27,0,1,1-11.27-11.27A11.28,11.28,0,0,1,284.54,490.34Zm-4.12,0a7.15,7.15,0,1,0-7.15,7.14A7.16,7.16,0,0,0,280.42,490.34Z"/><path class="cls-1" d="M311.18,490.34h0v9.19a2.06,2.06,0,1,1-4.12,0V499a11.27,11.27,0,1,1,0-17.41v-.5a2.06,2.06,0,0,1,4.12,0v9.21Zm-4.12,0a7.15,7.15,0,1,0-7.15,7.16,7.16,7.16,0,0,0,7.15-7.16Z"/><path class="cls-1" d="M328.14,495a2.62,2.62,0,0,0-1.85-1.81l-4.79-1.82a6.59,6.59,0,0,1-4.47-5,5.89,5.89,0,0,1,2.37-5.55h0a8.79,8.79,0,0,1,10.44,0h0a6,6,0,0,1,2.43,4.71,2.06,2.06,0,0,1-4.12,0,2,2,0,0,0-.84-1.47h0a4.76,4.76,0,0,0-5.38,0h0a1.81,1.81,0,0,0-.83,1.68,2.62,2.62,0,0,0,1.84,1.81l4.8,1.82a6.58,6.58,0,0,1,4.46,5,5.86,5.86,0,0,1-2.36,5.55h0a8.78,8.78,0,0,1-10.44,0h0a6,6,0,0,1-2.43-4.71,2.06,2.06,0,1,1,4.11,0,2,2,0,0,0,.85,1.47,4.76,4.76,0,0,0,5.38,0h0A1.81,1.81,0,0,0,328.14,495Z"/><path class="cls-1" d="M349.68,499.84a6,6,0,0,1-10.3-4.27V483.05a2.05,2.05,0,0,1,0-3.85v-5.78a2.06,2.06,0,0,1,4.12,0v5.65h1.33a2.06,2.06,0,1,1,0,4.12H343.5v12.38a1.91,1.91,0,0,0,1.91,1.91,1.94,1.94,0,0,0,1.36-.56,2.06,2.06,0,1,1,2.91,2.92Z"/><path class="cls-1" d="M374.3,490.34h0v9.19a2.06,2.06,0,1,1-4.12,0V499a11.27,11.27,0,1,1,0-17.41v-.5a2.06,2.06,0,0,1,4.12,0v9.21Zm-4.12,0a7.15,7.15,0,1,0-7.15,7.16,7.16,7.16,0,0,0,7.15-7.16Z"/><path class="cls-1" d="M384.2,470v29.55a2.06,2.06,0,1,1-4.11,0V470a2.06,2.06,0,1,1,4.11,0Z"/><path class="cls-1" d="M416.24,481.13a2.06,2.06,0,0,1-2.06,2.06,5.8,5.8,0,0,0-5.8,5.79v10.56a2.06,2.06,0,0,1-4.12,0V481.13a2.06,2.06,0,0,1,4.11-.16,9.83,9.83,0,0,1,5.81-1.9A2.06,2.06,0,0,1,416.24,481.13Z"/><path class="cls-1" d="M440,490.34a2.06,2.06,0,0,1-2.06,2.06H421.89a7.07,7.07,0,0,0,1.79,3,7.15,7.15,0,0,0,10.11,0,2.06,2.06,0,0,1,2.91,2.91,11.27,11.27,0,0,1-19.23-7.8c0-.06,0-.11,0-.16s0-.11,0-.17a11.27,11.27,0,0,1,22.53.17Zm-4.42-2.06a7.27,7.27,0,0,0-1.79-3,7.15,7.15,0,0,0-11.9,3Z"/><path class="cls-1" d="M466.64,481.13v20.39a11.27,11.27,0,0,1-19.24,8,2.06,2.06,0,0,1,2.92-2.91,7.15,7.15,0,0,0,12.2-5.05V499a11.27,11.27,0,1,1,0-17.41v-.5a2.06,2.06,0,0,1,4.12,0Zm-4.12,9.21a7.15,7.15,0,1,0-7.15,7.14A7.16,7.16,0,0,0,462.52,490.34Z"/><path class="cls-1" d="M476.54,475.21h0a2.06,2.06,0,1,1-2.06-2.06A2.06,2.06,0,0,1,476.54,475.21Zm0,5.92v18.41a2.06,2.06,0,1,1-4.12,0V481.13a2.06,2.06,0,0,1,4.12,0Z"/><path class="cls-1" d="M504.89,490.34a11.27,11.27,0,1,1-11.26-11.27A11.27,11.27,0,0,1,504.89,490.34Zm-4.12,0a7.15,7.15,0,1,0-7.14,7.14A7.15,7.15,0,0,0,500.77,490.34Z"/><path class="cls-1" d="M529.31,489v10.56a2.06,2.06,0,0,1-4.12,0V489a5.8,5.8,0,0,0-11.59,0v10.56a2.06,2.06,0,0,1-4.12,0V481.13a2.05,2.05,0,0,1,4.1-.16,9.9,9.9,0,0,1,15.73,8Z"/><path class="cls-1" d="M553.52,475.21h0a2.06,2.06,0,1,1-2.06-2.06A2.06,2.06,0,0,1,553.52,475.21Zm0,5.92v18.41a2.06,2.06,0,1,1-4.12,0V481.13a2.06,2.06,0,1,1,4.12,0Z"/><path class="cls-1" d="M570.51,495a2.62,2.62,0,0,0-1.84-1.81l-4.8-1.82a6.59,6.59,0,0,1-4.47-5,5.91,5.91,0,0,1,2.37-5.55h0a8.79,8.79,0,0,1,10.44,0h0a6,6,0,0,1,2.43,4.71,2.06,2.06,0,1,1-4.12,0,2,2,0,0,0-.84-1.47h0a4.75,4.75,0,0,0-5.37,0h0a1.83,1.83,0,0,0-.83,1.68,2.62,2.62,0,0,0,1.84,1.81l4.8,1.82a6.59,6.59,0,0,1,4.47,5,5.9,5.9,0,0,1-2.36,5.55h0a8.78,8.78,0,0,1-10.44,0h0a6,6,0,0,1-2.43-4.71,2.06,2.06,0,0,1,4.12,0,2,2,0,0,0,.84,1.47,4.76,4.76,0,0,0,5.38,0h0A1.81,1.81,0,0,0,570.51,495Z"/><path class="cls-1" d="M614.49,489v10.56a2.06,2.06,0,0,1-4.12,0V489a5.8,5.8,0,0,0-11.6,0v10.56a2.06,2.06,0,1,1-4.12,0V481.13a2.06,2.06,0,0,1,4.11-.16,9.83,9.83,0,0,1,5.81-1.9A9.93,9.93,0,0,1,614.49,489Z"/><path class="cls-1" d="M641.18,490.34a11.27,11.27,0,1,1-11.26-11.27A11.27,11.27,0,0,1,641.18,490.34Zm-4.11,0a7.15,7.15,0,1,0-7.15,7.14A7.16,7.16,0,0,0,637.07,490.34Z"/><path class="cls-1" d="M656.93,499.84a6,6,0,0,1-10.29-4.27V483.05a2,2,0,0,1,0-3.85v-5.78a2.06,2.06,0,1,1,4.12,0v5.65h1.33a2.06,2.06,0,0,1,0,4.12h-1.33v12.38a1.91,1.91,0,0,0,3.26,1.35,2.06,2.06,0,0,1,2.91,2.92Z"/><path class="cls-1" d="M681.55,490.34a2.06,2.06,0,0,1-2.06,2.06h-16a7.15,7.15,0,0,0,11.9,3,2.06,2.06,0,1,1,2.91,2.91A11.26,11.26,0,0,1,659,490.5a.92.92,0,0,1,0-.16,1,1,0,0,1,0-.17,11.26,11.26,0,0,1,22.52.17Zm-4.41-2.06a7.15,7.15,0,0,0-13.7,0Z"/><path class="cls-1" d="M708.19,490.34h0v9.19a2.06,2.06,0,1,1-4.11,0V499a11.27,11.27,0,1,1,0-17.41V470a2.06,2.06,0,1,1,4.11,0v20.35Zm-4.11,0a7.15,7.15,0,1,0-7.15,7.16,7.16,7.16,0,0,0,7.15-7.16Z"/><path class="cls-1" d="M743.31,473.12a2,2,0,0,1-2.91,0,3.76,3.76,0,0,0-2.68-1.11,3.8,3.8,0,0,0-3.8,3.8v3.26h3.41a2.06,2.06,0,0,1,0,4.12h-3.41v16.35a2.06,2.06,0,1,1-4.12,0V483.12a2,2,0,0,1,0-4v-3.32a7.93,7.93,0,0,1,7.92-7.92,7.83,7.83,0,0,1,5.59,2.32A2,2,0,0,1,743.31,473.12Z"/><path class="cls-1" d="M759.83,490.34a11.27,11.27,0,1,1-11.27-11.27A11.28,11.28,0,0,1,759.83,490.34Zm-4.12,0a7.15,7.15,0,1,0-7.15,7.14A7.16,7.16,0,0,0,755.71,490.34Z"/><path class="cls-1" d="M776.39,481.13a2.06,2.06,0,0,1-2.06,2.06,5.8,5.8,0,0,0-5.79,5.79v10.56a2.06,2.06,0,1,1-4.12,0V481.13a2.05,2.05,0,0,1,4.1-.16,9.85,9.85,0,0,1,5.81-1.9A2.06,2.06,0,0,1,776.39,481.13Z"/><path class="cls-1" d="M819,490.34h0v9.19a2.06,2.06,0,0,1-4.12,0V499a11.27,11.27,0,1,1,0-17.41v-.5a2.06,2.06,0,0,1,4.12,0v9.21Zm-4.12,0a7.15,7.15,0,1,0-7.14,7.16,7.15,7.15,0,0,0,7.14-7.16Z"/><path class="cls-1" d="M843.49,498.3a11.27,11.27,0,1,1,0-15.93,2.06,2.06,0,0,1-2.92,2.91,7.15,7.15,0,1,0,0,10.11,2.06,2.06,0,0,1,2.92,2.91Z"/><path class="cls-1" d="M859.85,499.84a6,6,0,0,1-10.29-4.27V483.05a2,2,0,0,1,0-3.85v-5.78a2.06,2.06,0,1,1,4.12,0v5.65H855a2.06,2.06,0,1,1,0,4.12h-1.32v12.38a1.91,1.91,0,0,0,3.26,1.35,2.06,2.06,0,0,1,2.91,2.92Z"/><path class="cls-1" d="M870.38,475.21h0a2.06,2.06,0,1,1-2.06-2.06A2.06,2.06,0,0,1,870.38,475.21Zm0,5.92v18.41a2.06,2.06,0,1,1-4.12,0V481.13a2.06,2.06,0,1,1,4.12,0Z"/><path class="cls-1" d="M895.86,481.94,888,500.35a2.05,2.05,0,0,1-3.78,0l-7.86-18.41a2.06,2.06,0,1,1,3.79-1.62l6,14,6-14a2.06,2.06,0,1,1,3.78,1.62Z"/><path class="cls-1" d="M921.05,490.34A2.06,2.06,0,0,1,919,492.4h-16a7.07,7.07,0,0,0,1.79,3,7.14,7.14,0,0,0,10.1,0,2.06,2.06,0,0,1,2.92,2.91,11.26,11.26,0,0,1-19.23-7.8c0-.06,0-.11,0-.16s0-.11,0-.17a11.27,11.27,0,0,1,22.53.17Zm-4.42-2.06a7.16,7.16,0,0,0-11.9-3,7.1,7.1,0,0,0-1.79,3Z"/><path class="cls-1" d="M14.05,552.58a2.62,2.62,0,0,0-1.84-1.81L7.41,549a6.58,6.58,0,0,1-4.46-5,5.88,5.88,0,0,1,2.36-5.55h0a8.78,8.78,0,0,1,10.43,0h0a6,6,0,0,1,2.43,4.71,2.06,2.06,0,0,1-4.12,0,1.93,1.93,0,0,0-.85-1.47h0a4.75,4.75,0,0,0-5.37,0h0A1.79,1.79,0,0,0,7,543.29a2.58,2.58,0,0,0,1.84,1.81l4.79,1.82a6.59,6.59,0,0,1,4.47,5,5.9,5.9,0,0,1-2.36,5.55h0a8.46,8.46,0,0,1-5.22,1.72,8.46,8.46,0,0,1-5.22-1.72h0a6,6,0,0,1-2.43-4.71,2.06,2.06,0,0,1,4.12,0,1.93,1.93,0,0,0,.85,1.47,4.75,4.75,0,0,0,5.37,0h0A1.81,1.81,0,0,0,14.05,552.58Z"/><path class="cls-1" d="M44.81,547.94A2.07,2.07,0,0,1,42.75,550h-16a7,7,0,0,0,1.79,3,7.14,7.14,0,0,0,10.1,0,2.06,2.06,0,1,1,2.92,2.91,11.26,11.26,0,0,1-19.23-7.8.86.86,0,0,1,0-.16c0-.06,0-.11,0-.17a11.27,11.27,0,0,1,22.53.17Zm-4.42-2.06a7.16,7.16,0,0,0-11.9-3,7,7,0,0,0-1.79,3Z"/><path class="cls-1" d="M54.71,532.81h0a2.06,2.06,0,1,1-2.06-2.06A2.06,2.06,0,0,1,54.71,532.81Zm0,5.92v18.41a2.06,2.06,0,0,1-4.12,0V538.73a2.06,2.06,0,1,1,4.12,0Z"/><path class="cls-1" d="M71.7,552.58a2.62,2.62,0,0,0-1.84-1.81L65.06,549a6.59,6.59,0,0,1-4.47-5A5.91,5.91,0,0,1,63,538.37h0a8.79,8.79,0,0,1,10.44,0h0a6,6,0,0,1,2.43,4.71,2.06,2.06,0,0,1-4.12,0,2,2,0,0,0-.84-1.47h0a4.75,4.75,0,0,0-5.37,0h0a1.83,1.83,0,0,0-.83,1.68,2.62,2.62,0,0,0,1.84,1.81l4.8,1.82a6.59,6.59,0,0,1,4.47,5,5.9,5.9,0,0,1-2.36,5.55h0a8.78,8.78,0,0,1-10.44,0h0a6,6,0,0,1-2.43-4.71,2.06,2.06,0,0,1,4.12,0,2,2,0,0,0,.84,1.47,4.76,4.76,0,0,0,5.38,0h0A1.83,1.83,0,0,0,71.7,552.58Z"/><path class="cls-1" d="M116.67,546.59v10.55a2.06,2.06,0,1,1-4.12,0V546.59a5.8,5.8,0,0,0-11.6,0v10.55a2.06,2.06,0,1,1-4.12,0V546.59a5.8,5.8,0,1,0-11.59,0v10.55a2.06,2.06,0,0,1-4.12,0V538.73a2.05,2.05,0,0,1,4.1-.16,9.86,9.86,0,0,1,13.67,2,9.91,9.91,0,0,1,17.78,6Z"/><path class="cls-1" d="M126.61,532.81h0a2.06,2.06,0,1,1-2.06-2.06A2.06,2.06,0,0,1,126.61,532.81Zm0,5.92v18.41a2.06,2.06,0,1,1-4.11,0V538.73a2.06,2.06,0,1,1,4.11,0Z"/><path class="cls-1" d="M151.66,555.9a11.27,11.27,0,1,1,0-15.93,2.06,2.06,0,1,1-2.92,2.91,7.15,7.15,0,1,0,0,10.11,2.06,2.06,0,1,1,2.91,2.91Z"/><path class="cls-1" d="M162.18,532.81h0a2.06,2.06,0,1,1-2.06-2.06A2.06,2.06,0,0,1,162.18,532.81Zm0,5.92v18.41a2.06,2.06,0,1,1-4.12,0V538.73a2.06,2.06,0,0,1,4.12,0Z"/><path class="cls-1" d="M179.64,557.44a6,6,0,0,1-10.29-4.26V540.65a2,2,0,0,1,0-3.85V531a2.06,2.06,0,1,1,4.11,0v5.65h1.33a2.06,2.06,0,1,1,0,4.12h-1.32v12.38a1.91,1.91,0,0,0,3.26,1.35,2.06,2.06,0,1,1,2.91,2.92Z"/><path class="cls-1" d="M200.43,539.54l-3.26,7.64h0l-9.3,21.91a2.05,2.05,0,0,1-1.89,1.25,2.09,2.09,0,0,1-.81-.16,2.06,2.06,0,0,1-1.09-2.7l4.38-10.31-7.53-17.63a2.06,2.06,0,0,1,3.79-1.62l6,14,2.68-6.26,0-.06h0l3.27-7.65a2.06,2.06,0,0,1,3.78,1.62Z"/><path class="cls-1" d="M202.89,556.9a2.23,2.23,0,1,1,2.23,2.23A2.23,2.23,0,0,1,202.89,556.9Z"/></svg>