<?xml version="1.0" encoding="UTF-8" standalone="no"?>
<svg
   xmlns:dc="http://purl.org/dc/elements/1.1/"
   xmlns:cc="http://creativecommons.org/ns#"
   xmlns:rdf="http://www.w3.org/1999/02/22-rdf-syntax-ns#"
   xmlns:svg="http://www.w3.org/2000/svg"
   xmlns="http://www.w3.org/2000/svg"
   xmlns:sodipodi="http://sodipodi.sourceforge.net/DTD/sodipodi-0.dtd"
   xmlns:inkscape="http://www.inkscape.org/namespaces/inkscape"
   width="222mm"
   height="55mm"
   viewBox="0 0 222 55"
   version="1.1"
   id="svg94"
   inkscape:version="1.0.2 (e86c870879, 2021-01-15, custom)"
   sodipodi:docname="текст - Happiness ... 1.svg">
  <defs
     id="defs88">
    <rect
       x="108.26347"
       y="-46.686012"
       width="110.44801"
       height="25.047589"
       id="rect760" />
    <rect
       x="5.5662035"
       y="-66.194231"
       width="151.13938"
       height="32.75454"
       id="rect754" />
    <rect
       x="-16.252976"
       y="-105.83333"
       width="169.71131"
       height="37.041667"
       id="rect488" />
    <rect
       x="87.3125"
       y="-43.845238"
       width="124.73214"
       height="17.764881"
       id="rect482" />
    <rect
       x="-21.922619"
       y="-62.744048"
       width="209.39881"
       height="44.60119"
       id="rect476" />
  </defs>
  <sodipodi:namedview
     id="base"
     pagecolor="#ffffff"
     bordercolor="#666666"
     borderopacity="1.0"
     inkscape:pageopacity="0.0"
     inkscape:pageshadow="2"
     inkscape:zoom="0.7"
     inkscape:cx="339.33064"
     inkscape:cy="136.99675"
     inkscape:document-units="mm"
     inkscape:current-layer="text474"
     inkscape:document-rotation="0"
     showgrid="false"
     inkscape:window-width="1422"
     inkscape:window-height="914"
     inkscape:window-x="249"
     inkscape:window-y="87"
     inkscape:window-maximized="0" />
  <metadata
     id="metadata91">
    <rdf:RDF>
      <cc:Work
         rdf:about="">
        <dc:format>image/svg+xml</dc:format>
        <dc:type
           rdf:resource="http://purl.org/dc/dcmitype/StillImage" />
        <dc:title></dc:title>
      </cc:Work>
    </rdf:RDF>
  </metadata>
  <g
     inkscape:label="Слой 1"
     inkscape:groupmode="layer"
     id="layer1"
     style="opacity:1;mix-blend-mode:normal">
    <g
       aria-label="Happiness is not a destination It is a method of life"
       transform="matrix(1.3654615,0,0,1.5693935,-3.8206747,105.3967)"
       id="text474"
       style="font-style:normal;font-weight:normal;font-size:10.5833px;line-height:1.25;font-family:sans-serif;white-space:pre;shape-inside:url(#rect476);fill:#000000;fill-opacity:1;stroke:none;stroke-width:0.683116">
      <g
         aria-label="Happiness is not a destination
It is a method of life"
         transform="matrix(1.3513109,0,0,0.85891795,-28.69195,-4.5723816)"
         id="text752"
         style="font-style:normal;font-weight:normal;font-size:7.22964px;line-height:1.25;font-family:sans-serif;white-space:pre;shape-inside:url(#rect754);fill:#000000;fill-opacity:1;stroke:none;stroke-width:0.634075">
        <path
           d="m 37.928669,-64.193022 v 1.14305 h 0.91444 v -1.14305 h 0.342915 v 8.00135 h -0.342915 v -6.515385 h -0.91444 v 6.515385 h -0.342915 v -8.00135 z"
           style="font-style:normal;font-variant:normal;font-weight:normal;font-stretch:normal;font-size:11.4305px;font-family:Architectural;-inkscape-font-specification:'Architectural, Normal';font-variant-ligatures:normal;font-variant-caps:normal;font-variant-numeric:normal;font-variant-east-asian:normal;text-align:center;text-anchor:middle;fill:#ffffff;stroke-width:0.634075"
           id="path851" />
        <path
           d="m 40.78628,-56.191672 0.628677,-8.00135 h 0.342915 l 0.628678,8.00135 h -0.342915 l -0.09144,-1.14305 h -0.731552 l -0.09144,1.14305 z m 1.14305,-1.485965 -0.342915,-4.229285 -0.342915,4.229285 z"
           style="font-style:normal;font-variant:normal;font-weight:normal;font-stretch:normal;font-size:11.4305px;font-family:Architectural;-inkscape-font-specification:'Architectural, Normal';font-variant-ligatures:normal;font-variant-caps:normal;font-variant-numeric:normal;font-variant-east-asian:normal;text-align:center;text-anchor:middle;fill:#ffffff;stroke-width:0.634075"
           id="path853" />
        <path
           d="m 43.986806,-64.193022 h 1.028745 q 0.262901,0 0.411498,0.160027 0.160027,0.148597 0.160027,0.411498 v 5.71525 q 0,0.262902 -0.160027,0.422929 -0.148597,0.148596 -0.411498,0.148596 h -0.68583 v 1.14305 h -0.342915 z m 1.028745,6.515385 q 0.22861,0 0.22861,-0.22861 v -5.71525 q 0,-0.22861 -0.22861,-0.22861 h -0.68583 v 6.17247 z"
           style="font-style:normal;font-variant:normal;font-weight:normal;font-stretch:normal;font-size:11.4305px;font-family:Architectural;-inkscape-font-specification:'Architectural, Normal';font-variant-ligatures:normal;font-variant-caps:normal;font-variant-numeric:normal;font-variant-east-asian:normal;text-align:center;text-anchor:middle;fill:#ffffff;stroke-width:0.634075"
           id="path855" />
        <path
           d="m 47.187332,-64.193022 h 1.028745 q 0.262901,0 0.411498,0.160027 0.160027,0.148597 0.160027,0.411498 v 5.71525 q 0,0.262902 -0.160027,0.422929 -0.148597,0.148596 -0.411498,0.148596 h -0.68583 v 1.14305 h -0.342915 z m 1.028745,6.515385 q 0.22861,0 0.22861,-0.22861 v -5.71525 q 0,-0.22861 -0.22861,-0.22861 h -0.68583 v 6.17247 z"
           style="font-style:normal;font-variant:normal;font-weight:normal;font-stretch:normal;font-size:11.4305px;font-family:Architectural;-inkscape-font-specification:'Architectural, Normal';font-variant-ligatures:normal;font-variant-caps:normal;font-variant-numeric:normal;font-variant-east-asian:normal;text-align:center;text-anchor:middle;fill:#ffffff;stroke-width:0.634075"
           id="path857" />
        <path
           d="m 50.44501,-56.191672 v -8.00135 h 0.342915 v 8.00135 z"
           style="font-style:normal;font-variant:normal;font-weight:normal;font-stretch:normal;font-size:11.4305px;font-family:Architectural;-inkscape-font-specification:'Architectural, Normal';font-variant-ligatures:normal;font-variant-caps:normal;font-variant-numeric:normal;font-variant-east-asian:normal;text-align:center;text-anchor:middle;fill:#ffffff;stroke-width:0.634075"
           id="path859" />
        <path
           d="m 53.702684,-63.678649 v -0.514373 h 0.342915 v 8.00135 h -0.342915 v -7.08691 l -0.91444,-0.45722 v 7.54413 h -0.342915 v -8.115655 z"
           style="font-style:normal;font-variant:normal;font-weight:normal;font-stretch:normal;font-size:11.4305px;font-family:Architectural;-inkscape-font-specification:'Architectural, Normal';font-variant-ligatures:normal;font-variant-caps:normal;font-variant-numeric:normal;font-variant-east-asian:normal;text-align:center;text-anchor:middle;fill:#ffffff;stroke-width:0.634075"
           id="path861" />
        <path
           d="m 57.246126,-64.193022 v 0.342915 h -1.257355 v 0.800135 h 0.91444 v 0.342915 h -0.91444 v 6.17247 h 1.257355 v 0.342915 h -1.60027 v -8.00135 z"
           style="font-style:normal;font-variant:normal;font-weight:normal;font-stretch:normal;font-size:11.4305px;font-family:Architectural;-inkscape-font-specification:'Architectural, Normal';font-variant-ligatures:normal;font-variant-caps:normal;font-variant-numeric:normal;font-variant-east-asian:normal;text-align:center;text-anchor:middle;fill:#ffffff;stroke-width:0.634075"
           id="path863" />
        <path
           d="m 58.503459,-63.621497 q 0,-0.262901 0.148597,-0.411498 0.160027,-0.160027 0.422928,-0.160027 h 0.45722 q 0.262902,0 0.411498,0.160027 0.160027,0.148597 0.160027,0.411498 v 0.114305 h -0.342915 v -0.114305 q 0,-0.22861 -0.22861,-0.22861 h -0.45722 q -0.22861,0 -0.22861,0.22861 v 0.114305 l 1.257355,6.62969 v 0.114305 q 0,0.262902 -0.160027,0.422929 -0.148596,0.148596 -0.411498,0.148596 h -0.45722 q -0.262901,0 -0.422928,-0.148596 -0.148597,-0.160027 -0.148597,-0.422929 v -0.114305 h 0.342915 v 0.114305 q 0,0.22861 0.22861,0.22861 h 0.45722 q 0.22861,0 0.22861,-0.22861 v -0.114305 l -1.257355,-6.62969 z"
           style="font-style:normal;font-variant:normal;font-weight:normal;font-stretch:normal;font-size:11.4305px;font-family:Architectural;-inkscape-font-specification:'Architectural, Normal';font-variant-ligatures:normal;font-variant-caps:normal;font-variant-numeric:normal;font-variant-east-asian:normal;text-align:center;text-anchor:middle;fill:#ffffff;stroke-width:0.634075"
           id="path865" />
        <path
           d="m 61.703985,-63.621497 q 0,-0.262901 0.148596,-0.411498 0.160027,-0.160027 0.422929,-0.160027 h 0.45722 q 0.262901,0 0.411498,0.160027 0.160027,0.148597 0.160027,0.411498 v 0.114305 H 62.96134 v -0.114305 q 0,-0.22861 -0.22861,-0.22861 h -0.45722 q -0.22861,0 -0.22861,0.22861 v 0.114305 l 1.257355,6.62969 v 0.114305 q 0,0.262902 -0.160027,0.422929 -0.148597,0.148596 -0.411498,0.148596 h -0.45722 q -0.262902,0 -0.422929,-0.148596 -0.148596,-0.160027 -0.148596,-0.422929 v -0.114305 H 62.0469 v 0.114305 q 0,0.22861 0.22861,0.22861 h 0.45722 q 0.22861,0 0.22861,-0.22861 v -0.114305 l -1.257355,-6.62969 z"
           style="font-style:normal;font-variant:normal;font-weight:normal;font-stretch:normal;font-size:11.4305px;font-family:Architectural;-inkscape-font-specification:'Architectural, Normal';font-variant-ligatures:normal;font-variant-caps:normal;font-variant-numeric:normal;font-variant-east-asian:normal;text-align:center;text-anchor:middle;fill:#ffffff;stroke-width:0.634075"
           id="path867" />
        <path
           d="m 68.16219,-56.191672 v -8.00135 h 0.342915 v 8.00135 z"
           style="font-style:normal;font-variant:normal;font-weight:normal;font-stretch:normal;font-size:11.4305px;font-family:Architectural;-inkscape-font-specification:'Architectural, Normal';font-variant-ligatures:normal;font-variant-caps:normal;font-variant-numeric:normal;font-variant-east-asian:normal;text-align:center;text-anchor:middle;fill:#ffffff;stroke-width:0.634075"
           id="path869" />
        <path
           d="m 70.162509,-63.621497 q 0,-0.262901 0.148597,-0.411498 0.160027,-0.160027 0.422928,-0.160027 h 0.45722 q 0.262902,0 0.411498,0.160027 0.160027,0.148597 0.160027,0.411498 v 0.114305 h -0.342915 v -0.114305 q 0,-0.22861 -0.22861,-0.22861 h -0.45722 q -0.22861,0 -0.22861,0.22861 v 0.114305 l 1.257355,6.62969 v 0.114305 q 0,0.262902 -0.160027,0.422929 -0.148596,0.148596 -0.411498,0.148596 h -0.45722 q -0.262901,0 -0.422928,-0.148596 -0.148597,-0.160027 -0.148597,-0.422929 v -0.114305 h 0.342915 v 0.114305 q 0,0.22861 0.22861,0.22861 h 0.45722 q 0.22861,0 0.22861,-0.22861 v -0.114305 l -1.257355,-6.62969 z"
           style="font-style:normal;font-variant:normal;font-weight:normal;font-stretch:normal;font-size:11.4305px;font-family:Architectural;-inkscape-font-specification:'Architectural, Normal';font-variant-ligatures:normal;font-variant-caps:normal;font-variant-numeric:normal;font-variant-east-asian:normal;text-align:center;text-anchor:middle;fill:#ffffff;stroke-width:0.634075"
           id="path871" />
        <path
           d="m 77.820915,-63.678649 v -0.514373 h 0.342915 v 8.00135 h -0.342915 v -7.08691 l -0.91444,-0.45722 v 7.54413 H 76.56356 v -8.115655 z"
           style="font-style:normal;font-variant:normal;font-weight:normal;font-stretch:normal;font-size:11.4305px;font-family:Architectural;-inkscape-font-specification:'Architectural, Normal';font-variant-ligatures:normal;font-variant-caps:normal;font-variant-numeric:normal;font-variant-east-asian:normal;text-align:center;text-anchor:middle;fill:#ffffff;stroke-width:0.634075"
           id="path873" />
        <path
           d="m 79.764087,-56.763197 v -6.8583 q 0,-0.262901 0.148597,-0.411498 0.160027,-0.160027 0.422928,-0.160027 h 0.45722 q 0.262902,0 0.411498,0.160027 0.160027,0.148597 0.160027,0.411498 v 6.8583 q 0,0.262902 -0.160027,0.422929 -0.148596,0.148596 -0.411498,0.148596 h -0.45722 q -0.262901,0 -0.422928,-0.148596 -0.148597,-0.160027 -0.148597,-0.422929 z m 0.571525,0.22861 h 0.45722 q 0.22861,0 0.22861,-0.22861 v -6.8583 q 0,-0.22861 -0.22861,-0.22861 h -0.45722 q -0.22861,0 -0.22861,0.22861 v 6.8583 q 0,0.22861 0.22861,0.22861 z"
           style="font-style:normal;font-variant:normal;font-weight:normal;font-stretch:normal;font-size:11.4305px;font-family:Architectural;-inkscape-font-specification:'Architectural, Normal';font-variant-ligatures:normal;font-variant-caps:normal;font-variant-numeric:normal;font-variant-east-asian:normal;text-align:center;text-anchor:middle;fill:#ffffff;stroke-width:0.634075"
           id="path875" />
        <path
           d="m 82.621699,-64.193022 h 1.60027 v 0.342915 h -0.628677 v 7.658435 h -0.342915 v -7.658435 h -0.628678 z"
           style="font-style:normal;font-variant:normal;font-weight:normal;font-stretch:normal;font-size:11.4305px;font-family:Architectural;-inkscape-font-specification:'Architectural, Normal';font-variant-ligatures:normal;font-variant-caps:normal;font-variant-numeric:normal;font-variant-east-asian:normal;text-align:center;text-anchor:middle;fill:#ffffff;stroke-width:0.634075"
           id="path877" />
        <path
           d="m 88.679839,-56.191672 0.628678,-8.00135 h 0.342915 l 0.628677,8.00135 h -0.342915 l -0.09144,-1.14305 h -0.731552 l -0.09144,1.14305 z m 1.14305,-1.485965 -0.342915,-4.229285 -0.342915,4.229285 z"
           style="font-style:normal;font-variant:normal;font-weight:normal;font-stretch:normal;font-size:11.4305px;font-family:Architectural;-inkscape-font-specification:'Architectural, Normal';font-variant-ligatures:normal;font-variant-caps:normal;font-variant-numeric:normal;font-variant-east-asian:normal;text-align:center;text-anchor:middle;fill:#ffffff;stroke-width:0.634075"
           id="path879" />
        <path
           d="m 95.080894,-56.191672 v -8.00135 h 1.028745 q 0.262901,0 0.411498,0.160027 0.160027,0.148597 0.160027,0.411498 v 6.8583 q 0,0.262902 -0.160027,0.422929 -0.148597,0.148596 -0.411498,0.148596 z m 1.028745,-0.342915 q 0.22861,0 0.22861,-0.22861 v -6.8583 q 0,-0.22861 -0.22861,-0.22861 h -0.68583 v 7.31552 z"
           style="font-style:normal;font-variant:normal;font-weight:normal;font-stretch:normal;font-size:11.4305px;font-family:Architectural;-inkscape-font-specification:'Architectural, Normal';font-variant-ligatures:normal;font-variant-caps:normal;font-variant-numeric:normal;font-variant-east-asian:normal;text-align:center;text-anchor:middle;fill:#ffffff;stroke-width:0.634075"
           id="path881" />
        <path
           d="m 99.881687,-64.193022 v 0.342915 h -1.257355 v 0.800135 h 0.91444 v 0.342915 h -0.91444 v 6.17247 h 1.257355 v 0.342915 h -1.60027 v -8.00135 z"
           style="font-style:normal;font-variant:normal;font-weight:normal;font-stretch:normal;font-size:11.4305px;font-family:Architectural;-inkscape-font-specification:'Architectural, Normal';font-variant-ligatures:normal;font-variant-caps:normal;font-variant-numeric:normal;font-variant-east-asian:normal;text-align:center;text-anchor:middle;fill:#ffffff;stroke-width:0.634075"
           id="path883" />
        <path
           d="m 101.13902,-63.621497 q 0,-0.262901 0.1486,-0.411498 0.16003,-0.160027 0.42293,-0.160027 h 0.45722 q 0.2629,0 0.4115,0.160027 0.16002,0.148597 0.16002,0.411498 v 0.114305 h -0.34291 v -0.114305 q 0,-0.22861 -0.22861,-0.22861 h -0.45722 q -0.22861,0 -0.22861,0.22861 v 0.114305 l 1.25735,6.62969 v 0.114305 q 0,0.262902 -0.16002,0.422929 -0.1486,0.148596 -0.4115,0.148596 h -0.45722 q -0.2629,0 -0.42293,-0.148596 -0.1486,-0.160027 -0.1486,-0.422929 v -0.114305 h 0.34292 v 0.114305 q 0,0.22861 0.22861,0.22861 h 0.45722 q 0.22861,0 0.22861,-0.22861 v -0.114305 l -1.25736,-6.62969 z"
           style="font-style:normal;font-variant:normal;font-weight:normal;font-stretch:normal;font-size:11.4305px;font-family:Architectural;-inkscape-font-specification:'Architectural, Normal';font-variant-ligatures:normal;font-variant-caps:normal;font-variant-numeric:normal;font-variant-east-asian:normal;text-align:center;text-anchor:middle;fill:#ffffff;stroke-width:0.634075"
           id="path885" />
        <path
           d="m 103.99663,-64.193022 h 1.60027 v 0.342915 h -0.62868 v 7.658435 h -0.34291 v -7.658435 h -0.62868 z"
           style="font-style:normal;font-variant:normal;font-weight:normal;font-stretch:normal;font-size:11.4305px;font-family:Architectural;-inkscape-font-specification:'Architectural, Normal';font-variant-ligatures:normal;font-variant-caps:normal;font-variant-numeric:normal;font-variant-east-asian:normal;text-align:center;text-anchor:middle;fill:#ffffff;stroke-width:0.634075"
           id="path887" />
        <path
           d="m 106.9114,-56.191672 v -8.00135 h 0.34291 v 8.00135 z"
           style="font-style:normal;font-variant:normal;font-weight:normal;font-stretch:normal;font-size:11.4305px;font-family:Architectural;-inkscape-font-specification:'Architectural, Normal';font-variant-ligatures:normal;font-variant-caps:normal;font-variant-numeric:normal;font-variant-east-asian:normal;text-align:center;text-anchor:middle;fill:#ffffff;stroke-width:0.634075"
           id="path889" />
        <path
           d="m 110.16907,-63.678649 v -0.514373 h 0.34292 v 8.00135 h -0.34292 v -7.08691 l -0.91444,-0.45722 v 7.54413 h -0.34291 v -8.115655 z"
           style="font-style:normal;font-variant:normal;font-weight:normal;font-stretch:normal;font-size:11.4305px;font-family:Architectural;-inkscape-font-specification:'Architectural, Normal';font-variant-ligatures:normal;font-variant-caps:normal;font-variant-numeric:normal;font-variant-east-asian:normal;text-align:center;text-anchor:middle;fill:#ffffff;stroke-width:0.634075"
           id="path891" />
        <path
           d="m 112.11225,-56.191672 0.62868,-8.00135 h 0.34291 l 0.62868,8.00135 h -0.34291 l -0.0914,-1.14305 h -0.73155 l -0.0914,1.14305 z m 1.14305,-1.485965 -0.34291,-4.229285 -0.34292,4.229285 z"
           style="font-style:normal;font-variant:normal;font-weight:normal;font-stretch:normal;font-size:11.4305px;font-family:Architectural;-inkscape-font-specification:'Architectural, Normal';font-variant-ligatures:normal;font-variant-caps:normal;font-variant-numeric:normal;font-variant-east-asian:normal;text-align:center;text-anchor:middle;fill:#ffffff;stroke-width:0.634075"
           id="path893" />
        <path
           d="m 114.96986,-64.193022 h 1.60027 v 0.342915 h -0.62868 v 7.658435 h -0.34291 v -7.658435 h -0.62868 z"
           style="font-style:normal;font-variant:normal;font-weight:normal;font-stretch:normal;font-size:11.4305px;font-family:Architectural;-inkscape-font-specification:'Architectural, Normal';font-variant-ligatures:normal;font-variant-caps:normal;font-variant-numeric:normal;font-variant-east-asian:normal;text-align:center;text-anchor:middle;fill:#ffffff;stroke-width:0.634075"
           id="path895" />
        <path
           d="m 117.88463,-56.191672 v -8.00135 h 0.34291 v 8.00135 z"
           style="font-style:normal;font-variant:normal;font-weight:normal;font-stretch:normal;font-size:11.4305px;font-family:Architectural;-inkscape-font-specification:'Architectural, Normal';font-variant-ligatures:normal;font-variant-caps:normal;font-variant-numeric:normal;font-variant-east-asian:normal;text-align:center;text-anchor:middle;fill:#ffffff;stroke-width:0.634075"
           id="path897" />
        <path
           d="m 119.88495,-56.763197 v -6.8583 q 0,-0.262901 0.14859,-0.411498 0.16003,-0.160027 0.42293,-0.160027 h 0.45722 q 0.2629,0 0.4115,0.160027 0.16003,0.148597 0.16003,0.411498 v 6.8583 q 0,0.262902 -0.16003,0.422929 -0.1486,0.148596 -0.4115,0.148596 h -0.45722 q -0.2629,0 -0.42293,-0.148596 -0.14859,-0.160027 -0.14859,-0.422929 z m 0.57152,0.22861 h 0.45722 q 0.22861,0 0.22861,-0.22861 v -6.8583 q 0,-0.22861 -0.22861,-0.22861 h -0.45722 q -0.22861,0 -0.22861,0.22861 v 6.8583 q 0,0.22861 0.22861,0.22861 z"
           style="font-style:normal;font-variant:normal;font-weight:normal;font-stretch:normal;font-size:11.4305px;font-family:Architectural;-inkscape-font-specification:'Architectural, Normal';font-variant-ligatures:normal;font-variant-caps:normal;font-variant-numeric:normal;font-variant-east-asian:normal;text-align:center;text-anchor:middle;fill:#ffffff;stroke-width:0.634075"
           id="path899" />
        <path
           d="m 124.34283,-63.678649 v -0.514373 h 0.34291 v 8.00135 h -0.34291 v -7.08691 l -0.91444,-0.45722 v 7.54413 h -0.34292 v -8.115655 z"
           style="font-style:normal;font-variant:normal;font-weight:normal;font-stretch:normal;font-size:11.4305px;font-family:Architectural;-inkscape-font-specification:'Architectural, Normal';font-variant-ligatures:normal;font-variant-caps:normal;font-variant-numeric:normal;font-variant-east-asian:normal;text-align:center;text-anchor:middle;fill:#ffffff;stroke-width:0.634075"
           id="path901" />
        <path
           d="m 49.64489,-41.903548 v -8.00135 h 0.342915 v 8.00135 z"
           style="font-style:normal;font-variant:normal;font-weight:normal;font-stretch:normal;font-size:11.4305px;font-family:Architectural;-inkscape-font-specification:'Architectural, Normal';font-variant-ligatures:normal;font-variant-caps:normal;font-variant-numeric:normal;font-variant-east-asian:normal;text-align:center;text-anchor:middle;fill:#ffffff;stroke-width:0.634075"
           id="path903" />
        <path
           d="m 51.302294,-49.904898 h 1.60027 v 0.342915 h -0.628677 v 7.658435 h -0.342915 v -7.658435 h -0.628678 z"
           style="font-style:normal;font-variant:normal;font-weight:normal;font-stretch:normal;font-size:11.4305px;font-family:Architectural;-inkscape-font-specification:'Architectural, Normal';font-variant-ligatures:normal;font-variant-caps:normal;font-variant-numeric:normal;font-variant-east-asian:normal;text-align:center;text-anchor:middle;fill:#ffffff;stroke-width:0.634075"
           id="path905" />
        <path
           d="m 57.41759,-41.903548 v -8.00135 h 0.342915 v 8.00135 z"
           style="font-style:normal;font-variant:normal;font-weight:normal;font-stretch:normal;font-size:11.4305px;font-family:Architectural;-inkscape-font-specification:'Architectural, Normal';font-variant-ligatures:normal;font-variant-caps:normal;font-variant-numeric:normal;font-variant-east-asian:normal;text-align:center;text-anchor:middle;fill:#ffffff;stroke-width:0.634075"
           id="path907" />
        <path
           d="m 59.417909,-49.333373 q 0,-0.262901 0.148596,-0.411498 0.160027,-0.160027 0.422929,-0.160027 h 0.45722 q 0.262901,0 0.411498,0.160027 0.160027,0.148597 0.160027,0.411498 v 0.114305 h -0.342915 v -0.114305 q 0,-0.22861 -0.22861,-0.22861 h -0.45722 q -0.22861,0 -0.22861,0.22861 v 0.114305 l 1.257355,6.62969 v 0.114305 q 0,0.262902 -0.160027,0.422929 -0.148597,0.148596 -0.411498,0.148596 h -0.45722 q -0.262902,0 -0.422929,-0.148596 -0.148596,-0.160027 -0.148596,-0.422929 v -0.114305 h 0.342915 v 0.114305 q 0,0.22861 0.22861,0.22861 h 0.45722 q 0.22861,0 0.22861,-0.22861 v -0.114305 l -1.257355,-6.62969 z"
           style="font-style:normal;font-variant:normal;font-weight:normal;font-stretch:normal;font-size:11.4305px;font-family:Architectural;-inkscape-font-specification:'Architectural, Normal';font-variant-ligatures:normal;font-variant-caps:normal;font-variant-numeric:normal;font-variant-east-asian:normal;text-align:center;text-anchor:middle;fill:#ffffff;stroke-width:0.634075"
           id="path909" />
        <path
           d="m 65.818961,-41.903548 0.628678,-8.00135 h 0.342915 l 0.628677,8.00135 h -0.342915 l -0.09144,-1.14305 H 66.25332 l -0.09144,1.14305 z m 1.14305,-1.485965 -0.342915,-4.229285 -0.342915,4.229285 z"
           style="font-style:normal;font-variant:normal;font-weight:normal;font-stretch:normal;font-size:11.4305px;font-family:Architectural;-inkscape-font-specification:'Architectural, Normal';font-variant-ligatures:normal;font-variant-caps:normal;font-variant-numeric:normal;font-variant-east-asian:normal;text-align:center;text-anchor:middle;fill:#ffffff;stroke-width:0.634075"
           id="path911" />
        <path
           d="m 72.562927,-49.904898 0.857288,6.572538 0.857287,-6.572538 h 0.342915 v 8.00135 h -0.342915 v -5.429487 l -0.68583,5.429487 h -0.342915 l -0.68583,-5.429487 v 5.429487 h -0.342915 v -8.00135 z"
           style="font-style:normal;font-variant:normal;font-weight:normal;font-stretch:normal;font-size:11.4305px;font-family:Architectural;-inkscape-font-specification:'Architectural, Normal';font-variant-ligatures:normal;font-variant-caps:normal;font-variant-numeric:normal;font-variant-east-asian:normal;text-align:center;text-anchor:middle;fill:#ffffff;stroke-width:0.634075"
           id="path913" />
        <path
           d="m 77.82094,-49.904898 v 0.342915 h -1.257355 v 0.800135 h 0.91444 v 0.342915 h -0.91444 v 6.17247 h 1.257355 v 0.342915 h -1.60027 v -8.00135 z"
           style="font-style:normal;font-variant:normal;font-weight:normal;font-stretch:normal;font-size:11.4305px;font-family:Architectural;-inkscape-font-specification:'Architectural, Normal';font-variant-ligatures:normal;font-variant-caps:normal;font-variant-numeric:normal;font-variant-east-asian:normal;text-align:center;text-anchor:middle;fill:#ffffff;stroke-width:0.634075"
           id="path915" />
        <path
           d="m 78.735358,-49.904898 h 1.60027 v 0.342915 h -0.628677 v 7.658435 h -0.342915 v -7.658435 h -0.628678 z"
           style="font-style:normal;font-variant:normal;font-weight:normal;font-stretch:normal;font-size:11.4305px;font-family:Architectural;-inkscape-font-specification:'Architectural, Normal';font-variant-ligatures:normal;font-variant-caps:normal;font-variant-numeric:normal;font-variant-east-asian:normal;text-align:center;text-anchor:middle;fill:#ffffff;stroke-width:0.634075"
           id="path917" />
        <path
           d="m 81.93589,-49.904898 v 1.14305 h 0.91444 v -1.14305 h 0.342915 v 8.00135 H 82.85033 v -6.515385 h -0.91444 v 6.515385 h -0.342915 v -8.00135 z"
           style="font-style:normal;font-variant:normal;font-weight:normal;font-stretch:normal;font-size:11.4305px;font-family:Architectural;-inkscape-font-specification:'Architectural, Normal';font-variant-ligatures:normal;font-variant-caps:normal;font-variant-numeric:normal;font-variant-east-asian:normal;text-align:center;text-anchor:middle;fill:#ffffff;stroke-width:0.634075"
           id="path919" />
        <path
           d="m 84.793502,-42.475073 v -6.8583 q 0,-0.262901 0.148597,-0.411498 0.160027,-0.160027 0.422928,-0.160027 h 0.45722 q 0.262902,0 0.411498,0.160027 0.160027,0.148597 0.160027,0.411498 v 6.8583 q 0,0.262902 -0.160027,0.422929 -0.148596,0.148596 -0.411498,0.148596 h -0.45722 q -0.262901,0 -0.422928,-0.148596 -0.148597,-0.160027 -0.148597,-0.422929 z m 0.571525,0.22861 h 0.45722 q 0.22861,0 0.22861,-0.22861 v -6.8583 q 0,-0.22861 -0.22861,-0.22861 h -0.45722 q -0.22861,0 -0.22861,0.22861 v 6.8583 q 0,0.22861 0.22861,0.22861 z"
           style="font-style:normal;font-variant:normal;font-weight:normal;font-stretch:normal;font-size:11.4305px;font-family:Architectural;-inkscape-font-specification:'Architectural, Normal';font-variant-ligatures:normal;font-variant-caps:normal;font-variant-numeric:normal;font-variant-east-asian:normal;text-align:center;text-anchor:middle;fill:#ffffff;stroke-width:0.634075"
           id="path921" />
        <path
           d="m 87.994029,-41.903548 v -8.00135 h 1.028745 q 0.262902,0 0.411498,0.160027 0.160027,0.148597 0.160027,0.411498 v 6.8583 q 0,0.262902 -0.160027,0.422929 -0.148596,0.148596 -0.411498,0.148596 z m 1.028745,-0.342915 q 0.22861,0 0.22861,-0.22861 v -6.8583 q 0,-0.22861 -0.22861,-0.22861 h -0.68583 v 7.31552 z"
           style="font-style:normal;font-variant:normal;font-weight:normal;font-stretch:normal;font-size:11.4305px;font-family:Architectural;-inkscape-font-specification:'Architectural, Normal';font-variant-ligatures:normal;font-variant-caps:normal;font-variant-numeric:normal;font-variant-east-asian:normal;text-align:center;text-anchor:middle;fill:#ffffff;stroke-width:0.634075"
           id="path923" />
        <path
           d="m 94.39508,-42.475073 v -6.8583 q 0,-0.262901 0.148596,-0.411498 0.160027,-0.160027 0.422929,-0.160027 h 0.45722 q 0.262901,0 0.411498,0.160027 0.160027,0.148597 0.160027,0.411498 v 6.8583 q 0,0.262902 -0.160027,0.422929 -0.148597,0.148596 -0.411498,0.148596 h -0.45722 q -0.262902,0 -0.422929,-0.148596 -0.148596,-0.160027 -0.148596,-0.422929 z m 0.571525,0.22861 h 0.45722 q 0.22861,0 0.22861,-0.22861 v -6.8583 q 0,-0.22861 -0.22861,-0.22861 h -0.45722 q -0.22861,0 -0.22861,0.22861 v 6.8583 q 0,0.22861 0.22861,0.22861 z"
           style="font-style:normal;font-variant:normal;font-weight:normal;font-stretch:normal;font-size:11.4305px;font-family:Architectural;-inkscape-font-specification:'Architectural, Normal';font-variant-ligatures:normal;font-variant-caps:normal;font-variant-numeric:normal;font-variant-east-asian:normal;text-align:center;text-anchor:middle;fill:#ffffff;stroke-width:0.634075"
           id="path925" />
        <path
           d="m 99.195877,-49.904898 v 0.342915 h -1.257355 v 0.800135 h 0.91444 v 0.342915 h -0.91444 v 6.515385 h -0.342915 v -8.00135 z"
           style="font-style:normal;font-variant:normal;font-weight:normal;font-stretch:normal;font-size:11.4305px;font-family:Architectural;-inkscape-font-specification:'Architectural, Normal';font-variant-ligatures:normal;font-variant-caps:normal;font-variant-numeric:normal;font-variant-east-asian:normal;text-align:center;text-anchor:middle;fill:#ffffff;stroke-width:0.634075"
           id="path927" />
        <path
           d="m 103.65374,-41.903548 v -8.00135 h 0.34291 v 7.658435 h 1.25736 v 0.342915 z"
           style="font-style:normal;font-variant:normal;font-weight:normal;font-stretch:normal;font-size:11.4305px;font-family:Architectural;-inkscape-font-specification:'Architectural, Normal';font-variant-ligatures:normal;font-variant-caps:normal;font-variant-numeric:normal;font-variant-east-asian:normal;text-align:center;text-anchor:middle;fill:#ffffff;stroke-width:0.634075"
           id="path929" />
        <path
           d="m 106.56849,-41.903548 v -8.00135 h 0.34291 v 8.00135 z"
           style="font-style:normal;font-variant:normal;font-weight:normal;font-stretch:normal;font-size:11.4305px;font-family:Architectural;-inkscape-font-specification:'Architectural, Normal';font-variant-ligatures:normal;font-variant-caps:normal;font-variant-numeric:normal;font-variant-east-asian:normal;text-align:center;text-anchor:middle;fill:#ffffff;stroke-width:0.634075"
           id="path931" />
        <path
           d="m 110.16908,-49.904898 v 0.342915 h -1.25736 v 0.800135 h 0.91444 v 0.342915 h -0.91444 v 6.515385 h -0.34291 v -8.00135 z"
           style="font-style:normal;font-variant:normal;font-weight:normal;font-stretch:normal;font-size:11.4305px;font-family:Architectural;-inkscape-font-specification:'Architectural, Normal';font-variant-ligatures:normal;font-variant-caps:normal;font-variant-numeric:normal;font-variant-east-asian:normal;text-align:center;text-anchor:middle;fill:#ffffff;stroke-width:0.634075"
           id="path933" />
        <path
           d="m 113.02668,-49.904898 v 0.342915 h -1.25735 v 0.800135 h 0.91444 v 0.342915 h -0.91444 v 6.17247 h 1.25735 v 0.342915 h -1.60027 v -8.00135 z"
           style="font-style:normal;font-variant:normal;font-weight:normal;font-stretch:normal;font-size:11.4305px;font-family:Architectural;-inkscape-font-specification:'Architectural, Normal';font-variant-ligatures:normal;font-variant-caps:normal;font-variant-numeric:normal;font-variant-east-asian:normal;text-align:center;text-anchor:middle;fill:#ffffff;stroke-width:0.634075"
           id="path935" />
      </g>
      <text
         xml:space="preserve"
         id="text758"
         style="fill:black;fill-opacity:1;line-height:1.25;stroke:none;font-family:sans-serif;font-style:normal;font-weight:normal;font-size:7.22964247px;white-space:pre;shape-inside:url(#rect760);" />
    </g>
    <text
       xml:space="preserve"
       id="text480"
       style="fill:black;fill-opacity:1;line-height:1.25;stroke:none;font-family:sans-serif;font-style:normal;font-weight:normal;font-size:10.58333333px;white-space:pre;shape-inside:url(#rect482);" />
    <text
       xml:space="preserve"
       id="text486"
       style="fill:black;fill-opacity:1;line-height:1.25;stroke:none;font-family:sans-serif;font-style:normal;font-weight:normal;font-size:10.58333333px;white-space:pre;shape-inside:url(#rect488);" />
  </g>
</svg>
