<svg id="Слой_1" data-name="Слой 1" xmlns="http://www.w3.org/2000/svg" viewBox="0 0 925 700"><defs><style>.cls-1{fill:#fff;}</style></defs><title>Монтажная область 1</title><path class="cls-1" d="M136.5,8.29h9.44a1.55,1.55,0,0,1,0,3.09H138V32A1.55,1.55,0,1,1,135,32V11.38h-7.9a1.55,1.55,0,1,1,0-3.09h9.45Z"/><path class="cls-1" d="M158.31,25.11a1.54,1.54,0,0,1-1.54,1.55h-12a5.46,5.46,0,0,0,1.34,2.24,5.37,5.37,0,0,0,7.58,0,1.55,1.55,0,1,1,2.19,2.19,8.45,8.45,0,0,1-14.42-5.86V25a8.45,8.45,0,0,1,16.89.12ZM155,23.57a5.37,5.37,0,0,0-8.93-2.25,5.49,5.49,0,0,0-1.34,2.25Z"/><path class="cls-1" d="M170.74,18.21a1.55,1.55,0,0,1-1.55,1.54,4.35,4.35,0,0,0-4.35,4.35V32a1.54,1.54,0,1,1-3.08,0V18.21a1.54,1.54,0,0,1,3.07-.12,7.41,7.41,0,0,1,4.36-1.43A1.56,1.56,0,0,1,170.74,18.21Z"/><path class="cls-1" d="M184.06,18.21a1.55,1.55,0,0,1-1.55,1.54,4.35,4.35,0,0,0-4.35,4.35V32a1.54,1.54,0,1,1-3.08,0V18.21a1.54,1.54,0,0,1,3.07-.12,7.41,7.41,0,0,1,4.36-1.43A1.56,1.56,0,0,1,184.06,18.21Z"/><path class="cls-1" d="M201.87,25.11h0V32a1.55,1.55,0,1,1-3.09,0v-.37a8.46,8.46,0,1,1,0-13v-.38a1.55,1.55,0,1,1,3.09,0V25.1Zm-3.09,0a5.36,5.36,0,1,0-5.36,5.37,5.36,5.36,0,0,0,5.36-5.37Z"/><path class="cls-1" d="M209.3,13.77h0a1.54,1.54,0,1,1-1.54-1.54A1.54,1.54,0,0,1,209.3,13.77Zm0,4.44V32a1.54,1.54,0,1,1-3.08,0V18.21a1.54,1.54,0,1,1,3.08,0Z"/><path class="cls-1" d="M228.54,24.1V32a1.55,1.55,0,0,1-3.09,0V24.1a4.35,4.35,0,1,0-8.69,0V32a1.55,1.55,0,1,1-3.09,0V18.21a1.54,1.54,0,0,1,3.07-.12,7.42,7.42,0,0,1,11.8,6Z"/><path class="cls-1" d="M285.33,13.77h0a1.55,1.55,0,1,1-1.54-1.54A1.54,1.54,0,0,1,285.33,13.77Zm0,4.44V32a1.55,1.55,0,1,1-3.09,0V18.21a1.55,1.55,0,1,1,3.09,0Z"/><path class="cls-1" d="M304.57,24.1V32a1.55,1.55,0,0,1-3.09,0V24.1a4.35,4.35,0,0,0-8.7,0V32a1.54,1.54,0,1,1-3.08,0V18.21a1.54,1.54,0,0,1,3.07-.12,7.42,7.42,0,0,1,11.8,6Z"/><path class="cls-1" d="M361,8.83,371.62,21.3,382.25,8.83a1.54,1.54,0,0,1,2.72,1V32a1.55,1.55,0,1,1-3.09,0V14L372.8,24.68l-.09.09-.09.09h0l-.14.1-.12.07-.14.07-.14.05-.14,0-.15,0h-.29l-.16,0-.14,0L371,25.1l-.14-.05-.12-.08-.13-.09,0,0-.09-.1-.08-.08L361.36,14V32a1.55,1.55,0,1,1-3.09,0V9.83a1.54,1.54,0,0,1,2.72-1Z"/><path class="cls-1" d="M406.2,25.11a8.45,8.45,0,1,1-8.45-8.45A8.46,8.46,0,0,1,406.2,25.11Zm-3.09,0a5.36,5.36,0,1,0-5.36,5.36A5.37,5.37,0,0,0,403.11,25.11Z"/><path class="cls-1" d="M424.52,24.1V32a1.55,1.55,0,0,1-3.09,0V24.1a4.35,4.35,0,0,0-8.7,0V32a1.55,1.55,0,1,1-3.09,0V18.21a1.54,1.54,0,0,1,3.08-.12,7.42,7.42,0,0,1,11.8,6Z"/><path class="cls-1" d="M436.37,32.24a4.53,4.53,0,0,1-7.72-3.2V19.65a1.53,1.53,0,0,1,0-2.88V12.43a1.55,1.55,0,1,1,3.09,0v4.23h1a1.55,1.55,0,0,1,0,3.09h-1V29a1.44,1.44,0,0,0,2.45,1,1.55,1.55,0,0,1,2.18,2.19Z"/><path class="cls-1" d="M454.83,25.11a1.54,1.54,0,0,1-1.54,1.55h-12a5.25,5.25,0,0,0,1.34,2.24,5.37,5.37,0,0,0,7.58,0,1.55,1.55,0,0,1,2.18,2.19,8.45,8.45,0,0,1-14.42-5.86V25a8.45,8.45,0,0,1,14.42-5.85A8.36,8.36,0,0,1,454.83,25.11Zm-3.31-1.54a5.35,5.35,0,0,0-8.92-2.25,5.29,5.29,0,0,0-1.34,2.25Z"/><path class="cls-1" d="M473.15,24.1V32a1.55,1.55,0,0,1-3.09,0V24.1a4.35,4.35,0,1,0-8.69,0V32a1.55,1.55,0,1,1-3.09,0V18.21a1.54,1.54,0,0,1,3.08-.12,7.41,7.41,0,0,1,11.79,6Z"/><path class="cls-1" d="M493.18,25.11a1.55,1.55,0,0,1-1.55,1.55h-12a5.25,5.25,0,0,0,1.34,2.24,5.37,5.37,0,0,0,7.58,0,1.55,1.55,0,1,1,2.18,2.19,8.45,8.45,0,0,1-14.42-5.86V25a8.45,8.45,0,0,1,14.42-5.85A8.37,8.37,0,0,1,493.18,25.11Zm-3.32-1.54a5.35,5.35,0,0,0-8.92-2.25,5.29,5.29,0,0,0-1.34,2.25Z"/><path class="cls-1" d="M513.15,18.21V33.5a8.45,8.45,0,0,1-14.42,6,1.55,1.55,0,0,1,2.19-2.18,5.36,5.36,0,0,0,9.15-3.79V31.64a8.46,8.46,0,1,1,0-13v-.38a1.54,1.54,0,1,1,3.08,0Zm-3.08,6.9a5.36,5.36,0,1,0-5.36,5.36A5.37,5.37,0,0,0,510.07,25.11Z"/><path class="cls-1" d="M526.48,18.21a1.54,1.54,0,0,1-1.54,1.54,4.35,4.35,0,0,0-4.35,4.35V32a1.55,1.55,0,1,1-3.09,0V18.21a1.54,1.54,0,0,1,3.08-.12,7.39,7.39,0,0,1,4.36-1.43A1.55,1.55,0,0,1,526.48,18.21Z"/><path class="cls-1" d="M544.3,25.11a8.45,8.45,0,1,1-8.45-8.45A8.46,8.46,0,0,1,544.3,25.11Zm-3.09,0a5.36,5.36,0,1,0-5.36,5.36A5.37,5.37,0,0,0,541.21,25.11Z"/><path class="cls-1" d="M606.94,18.21a1.54,1.54,0,0,1-1.55,1.54A4.36,4.36,0,0,0,601,24.1V32A1.54,1.54,0,1,1,598,32V18.21a1.54,1.54,0,0,1,3.07-.12,7.41,7.41,0,0,1,4.36-1.43A1.55,1.55,0,0,1,606.94,18.21Z"/><path class="cls-1" d="M624.75,25.11h0V32a1.55,1.55,0,1,1-3.09,0v-.37a8.46,8.46,0,1,1,0-13v-.38a1.55,1.55,0,1,1,3.09,0V25.1Zm-3.09,0a5.36,5.36,0,1,0-5.36,5.37,5.36,5.36,0,0,0,5.36-5.37Z"/><path class="cls-1" d="M644,24.1V32a1.55,1.55,0,0,1-3.09,0V24.1a4.35,4.35,0,1,0-8.7,0V32a1.54,1.54,0,1,1-3.08,0V18.21a1.54,1.54,0,0,1,3.07-.12,7.42,7.42,0,0,1,11.8,6Z"/><path class="cls-1" d="M664,18.21V33.5a8.45,8.45,0,0,1-14.42,6,1.55,1.55,0,0,1,0-2.18,1.53,1.53,0,0,1,2.18,0,5.37,5.37,0,0,0,7.58,0,5.31,5.31,0,0,0,1.57-3.79V31.64a8.46,8.46,0,1,1,0-13v-.38a1.55,1.55,0,1,1,3.09,0Zm-3.09,6.9a5.36,5.36,0,1,0-5.36,5.36A5.37,5.37,0,0,0,660.9,25.11Z"/><path class="cls-1" d="M684.87,25.11a1.54,1.54,0,0,1-1.54,1.55h-12a5.46,5.46,0,0,0,1.34,2.24,5.37,5.37,0,0,0,7.58,0,1.55,1.55,0,1,1,2.19,2.19A8.45,8.45,0,0,1,668,25.23V25a8.45,8.45,0,0,1,16.89.12Zm-3.31-1.54a5.37,5.37,0,0,0-8.93-2.25,5.49,5.49,0,0,0-1.34,2.25Z"/><path class="cls-1" d="M696.33,28.6A1.94,1.94,0,0,0,695,27.24l-3.6-1.36A5,5,0,0,1,688,22.1a4.39,4.39,0,0,1,1.77-4.16h0a6.59,6.59,0,0,1,7.83,0h0a4.49,4.49,0,0,1,1.82,3.53,1.55,1.55,0,1,1-3.09,0,1.44,1.44,0,0,0-.63-1.1h0a3.54,3.54,0,0,0-4,0h0a1.36,1.36,0,0,0-.62,1.26A1.93,1.93,0,0,0,692.44,23L696,24.35a4.94,4.94,0,0,1,3.35,3.77,4.39,4.39,0,0,1-1.77,4.16h0a6.63,6.63,0,0,1-7.83,0A4.53,4.53,0,0,1,688,28.75a1.54,1.54,0,0,1,3.08,0,1.45,1.45,0,0,0,.64,1.1,3.54,3.54,0,0,0,4,0h0A1.35,1.35,0,0,0,696.33,28.6Z"/><path class="cls-1" d="M764.39,12.2a1.53,1.53,0,0,1-2.18,0,2.88,2.88,0,0,0-2-.83,2.85,2.85,0,0,0-2.84,2.85v2.44h2.55a1.55,1.55,0,1,1,0,3.09h-2.55V32a1.55,1.55,0,1,1-3.09,0V19.71a1.54,1.54,0,0,1,0-3V14.22A5.93,5.93,0,0,1,764.39,10,1.55,1.55,0,0,1,764.39,12.2Z"/><path class="cls-1" d="M771.24,18.21a1.55,1.55,0,0,1-1.55,1.54,4.35,4.35,0,0,0-4.35,4.35V32a1.54,1.54,0,1,1-3.08,0V18.21a1.54,1.54,0,0,1,3.07-.12,7.41,7.41,0,0,1,4.36-1.43A1.56,1.56,0,0,1,771.24,18.21Z"/><path class="cls-1" d="M789.05,25.11a8.45,8.45,0,1,1-8.45-8.45A8.46,8.46,0,0,1,789.05,25.11Zm-3.09,0a5.36,5.36,0,1,0-5.36,5.36A5.37,5.37,0,0,0,786,25.11Z"/><path class="cls-1" d="M819.15,24.1V32a1.55,1.55,0,0,1-3.09,0V24.1a4.35,4.35,0,1,0-8.69,0V32a1.55,1.55,0,0,1-3.09,0V24.1a4.35,4.35,0,1,0-8.69,0V32a1.55,1.55,0,1,1-3.09,0V18.21a1.54,1.54,0,0,1,3.07-.12,7.39,7.39,0,0,1,10.25,1.49,7.43,7.43,0,0,1,13.33,4.52Z"/><path class="cls-1" d="M875.39,24.1V32a1.55,1.55,0,0,1-3.09,0V24.1a4.35,4.35,0,1,0-8.7,0V32a1.54,1.54,0,1,1-3.08,0V9.86a1.54,1.54,0,1,1,3.08,0v8.22a7.42,7.42,0,0,1,11.79,6Z"/><path class="cls-1" d="M882.86,13.77h0a1.54,1.54,0,1,1-1.54-1.54A1.54,1.54,0,0,1,882.86,13.77Zm0,4.44V32a1.54,1.54,0,1,1-3.08,0V18.21a1.54,1.54,0,1,1,3.08,0Z"/><path class="cls-1" d="M904.12,18.21V33.5a8.45,8.45,0,0,1-14.42,6,1.55,1.55,0,0,1,2.19-2.18A5.37,5.37,0,0,0,901,33.5V31.64a8.46,8.46,0,1,1,0-13v-.38a1.54,1.54,0,1,1,3.08,0ZM901,25.11a5.36,5.36,0,1,0-5.36,5.36A5.37,5.37,0,0,0,901,25.11Z"/><path class="cls-1" d="M923.34,24.1V32a1.55,1.55,0,0,1-3.09,0V24.1a4.35,4.35,0,1,0-8.69,0V32a1.55,1.55,0,1,1-3.09,0V9.86a1.55,1.55,0,1,1,3.09,0v8.22a7.34,7.34,0,0,1,4.34-1.42A7.45,7.45,0,0,1,923.34,24.1Z"/><path class="cls-1" d="M30.43,67.3v7.92a1.55,1.55,0,0,1-3.09,0V67.3a4.35,4.35,0,0,0-8.7,0v7.92a1.54,1.54,0,0,1-3.08,0V67.3a4.35,4.35,0,0,0-8.7,0v7.91a1.55,1.55,0,1,1-3.09,0V61.41a1.54,1.54,0,0,1,3.08-.12A7.39,7.39,0,0,1,17.1,62.78,7.43,7.43,0,0,1,30.43,67.3Z"/><path class="cls-1" d="M50.44,68.31A8.45,8.45,0,1,1,42,59.86,8.46,8.46,0,0,1,50.44,68.31Zm-3.09,0A5.36,5.36,0,1,0,42,73.67,5.37,5.37,0,0,0,47.35,68.31Z"/><path class="cls-1" d="M69.3,61.41V75.22a1.54,1.54,0,0,1-3.08.12,7.42,7.42,0,0,1-11.79-6V61.41a1.54,1.54,0,1,1,3.08,0v7.92a4.35,4.35,0,0,0,8.7,0V61.41a1.55,1.55,0,0,1,3.09,0Z"/><path class="cls-1" d="M88.56,67.3v7.92a1.55,1.55,0,0,1-3.09,0V67.3a4.35,4.35,0,0,0-8.7,0v7.91a1.54,1.54,0,1,1-3.08,0V61.41a1.54,1.54,0,0,1,3.07-.12,7.42,7.42,0,0,1,11.8,6Z"/><path class="cls-1" d="M100.41,75.44a4.52,4.52,0,0,1-7.71-3.2V62.85a1.54,1.54,0,0,1-1-1.44,1.52,1.52,0,0,1,1-1.44V55.63a1.54,1.54,0,1,1,3.08,0v4.23h1a1.55,1.55,0,0,1,0,3.09h-1v9.29a1.44,1.44,0,0,0,1.44,1.43,1.42,1.42,0,0,0,1-.42,1.55,1.55,0,0,1,2.18,2.19Z"/><path class="cls-1" d="M118.88,68.31h0v6.89a1.55,1.55,0,1,1-3.09,0v-.37a8.46,8.46,0,1,1,0-13.05v-.38a1.55,1.55,0,1,1,3.09,0V68.3Zm-3.09,0a5.36,5.36,0,1,0-5.36,5.37,5.37,5.37,0,0,0,5.36-5.37Z"/><path class="cls-1" d="M126.31,57h0a1.55,1.55,0,1,1-1.54-1.54A1.54,1.54,0,0,1,126.31,57Zm0,4.44v13.8a1.55,1.55,0,1,1-3.09,0V61.41a1.55,1.55,0,1,1,3.09,0Z"/><path class="cls-1" d="M145.54,67.3v7.92a1.54,1.54,0,0,1-3.08,0V67.3a4.35,4.35,0,1,0-8.7,0v7.91a1.55,1.55,0,1,1-3.09,0V61.41a1.54,1.54,0,0,1,3.08-.12,7.41,7.41,0,0,1,11.79,6Z"/><path class="cls-1" d="M157.41,71.8A2,2,0,0,0,156,70.44l-3.6-1.36a5,5,0,0,1-3.35-3.78,4.42,4.42,0,0,1,1.77-4.16h0a6.57,6.57,0,0,1,7.82,0h0a4.52,4.52,0,0,1,1.82,3.53,1.55,1.55,0,1,1-3.09,0,1.45,1.45,0,0,0-.64-1.1h0a3.52,3.52,0,0,0-4,0h0a1.37,1.37,0,0,0-.63,1.26,1.94,1.94,0,0,0,1.38,1.35l3.6,1.37a4.94,4.94,0,0,1,3.35,3.77,4.42,4.42,0,0,1-1.77,4.16h0a6.64,6.64,0,0,1-7.84,0h0A4.56,4.56,0,0,1,149,72a1.55,1.55,0,0,1,3.09,0,1.45,1.45,0,0,0,.64,1.1,3.52,3.52,0,0,0,4,0h0A1.37,1.37,0,0,0,157.41,71.8Z"/><path class="cls-1" d="M195.43,57h0a1.55,1.55,0,1,1-1.54-1.54A1.54,1.54,0,0,1,195.43,57Zm0,4.44v13.8a1.55,1.55,0,1,1-3.09,0V61.41a1.55,1.55,0,1,1,3.09,0Z"/><path class="cls-1" d="M214.67,67.3v7.92a1.55,1.55,0,0,1-3.09,0V67.3a4.35,4.35,0,0,0-8.7,0v7.91a1.55,1.55,0,1,1-3.09,0V61.41a1.56,1.56,0,0,1,1.55-1.55,1.54,1.54,0,0,1,1.53,1.43,7.42,7.42,0,0,1,11.8,6Z"/><path class="cls-1" d="M241.54,75.44a4.53,4.53,0,0,1-7.72-3.2V62.85a1.54,1.54,0,0,1-1-1.44,1.52,1.52,0,0,1,1-1.44V55.63a1.55,1.55,0,1,1,3.09,0v4.23h1a1.55,1.55,0,1,1,0,3.09h-1v9.29a1.43,1.43,0,0,0,2.44,1,1.55,1.55,0,0,1,2.19,2.19Z"/><path class="cls-1" d="M260.68,67.3v7.92a1.55,1.55,0,0,1-3.09,0V67.3a4.35,4.35,0,1,0-8.7,0v7.91a1.55,1.55,0,1,1-3.09,0V53.06a1.55,1.55,0,1,1,3.09,0v8.22a7.42,7.42,0,0,1,11.79,6Z"/><path class="cls-1" d="M280.7,68.31a1.54,1.54,0,0,1-1.54,1.55h-12A5.36,5.36,0,0,0,276,72.1a1.55,1.55,0,0,1,2.19,2.19,8.45,8.45,0,0,1-14.42-5.86s0-.08,0-.12,0-.08,0-.12a8.45,8.45,0,0,1,16.89.12Zm-3.31-1.54a5.37,5.37,0,0,0-8.93-2.25,5.39,5.39,0,0,0-1.34,2.25Z"/><path class="cls-1" d="M327.42,67.3v7.92a1.55,1.55,0,0,1-3.09,0V67.3a4.35,4.35,0,1,0-8.69,0v7.91a1.55,1.55,0,1,1-3.09,0V61.41a1.54,1.54,0,0,1,3.08-.12,7.41,7.41,0,0,1,11.79,6Z"/><path class="cls-1" d="M347.45,68.31A8.45,8.45,0,1,1,339,59.86,8.46,8.46,0,0,1,347.45,68.31Zm-3.09,0A5.36,5.36,0,1,0,339,73.67,5.37,5.37,0,0,0,344.36,68.31Z"/><path class="cls-1" d="M359.87,61.41A1.54,1.54,0,0,1,358.33,63,4.35,4.35,0,0,0,354,67.3v7.91a1.55,1.55,0,1,1-3.09,0V61.41a1.54,1.54,0,0,1,3.08-.12,7.39,7.39,0,0,1,4.36-1.43A1.55,1.55,0,0,1,359.87,61.41Z"/><path class="cls-1" d="M372.94,75.44a4.53,4.53,0,0,1-7.72-3.2V62.85a1.54,1.54,0,0,1-1-1.44,1.52,1.52,0,0,1,1-1.44V55.63a1.55,1.55,0,1,1,3.09,0v4.23h1a1.55,1.55,0,0,1,0,3.09h-1v9.29a1.44,1.44,0,0,0,2.45,1,1.55,1.55,0,1,1,2.18,2.19Z"/><path class="cls-1" d="M392.08,67.3v7.92a1.55,1.55,0,0,1-3.09,0V67.3a4.35,4.35,0,1,0-8.69,0v7.91a1.55,1.55,0,1,1-3.09,0V53.06a1.55,1.55,0,1,1,3.09,0v8.22a7.34,7.34,0,0,1,4.34-1.42A7.45,7.45,0,0,1,392.08,67.3Z"/><path class="cls-1" d="M412.1,68.31a1.54,1.54,0,0,1-1.54,1.55h-12a5.37,5.37,0,0,0,8.93,2.24,1.55,1.55,0,0,1,2.18,2.19,8.45,8.45,0,0,1-14.42-5.86v-.24a8.45,8.45,0,0,1,16.89.12Zm-3.31-1.54a5.36,5.36,0,0,0-10.27,0Z"/><path class="cls-1" d="M424.53,61.41A1.54,1.54,0,0,1,423,63a4.35,4.35,0,0,0-4.34,4.35v7.91a1.55,1.55,0,1,1-3.09,0V61.41a1.54,1.54,0,0,1,3.07-.12A7.41,7.41,0,0,1,423,59.86,1.55,1.55,0,0,1,424.53,61.41Z"/><path class="cls-1" d="M443.74,67.3v7.92a1.55,1.55,0,0,1-3.09,0V67.3a4.35,4.35,0,1,0-8.69,0v7.91a1.55,1.55,0,1,1-3.09,0V61.41a1.54,1.54,0,0,1,3.07-.12,7.42,7.42,0,0,1,11.8,6Z"/><path class="cls-1" d="M492.53,68.31a8.45,8.45,0,0,1-13.81,6.53v8.73a1.54,1.54,0,0,1-3.08,0V68.32h0V61.41a1.54,1.54,0,0,1,3.08,0v.38a8.44,8.44,0,0,1,13.81,6.52Zm-3.09,0a5.36,5.36,0,0,0-10.72,0v0a5.36,5.36,0,0,0,10.72,0Z"/><path class="cls-1" d="M512.51,68.31h0v6.89a1.55,1.55,0,1,1-3.09,0v-.37a8.46,8.46,0,1,1,0-13.05v-.38a1.55,1.55,0,1,1,3.09,0V68.3Zm-3.09,0a5.36,5.36,0,1,0-5.36,5.37,5.36,5.36,0,0,0,5.36-5.37Z"/><path class="cls-1" d="M525.83,61.41A1.54,1.54,0,0,1,524.29,63a4.35,4.35,0,0,0-4.35,4.35v7.91a1.54,1.54,0,1,1-3.08,0V61.41a1.54,1.54,0,0,1,3.07-.12,7.41,7.41,0,0,1,4.36-1.43A1.55,1.55,0,0,1,525.83,61.41Z"/><path class="cls-1" d="M538.9,75.44a4.53,4.53,0,0,1-7.72-3.2V62.85a1.55,1.55,0,0,1-1-1.44,1.53,1.53,0,0,1,1-1.44V55.63a1.55,1.55,0,1,1,3.09,0v4.23h1a1.55,1.55,0,0,1,0,3.09h-1v9.29a1.44,1.44,0,0,0,1.44,1.43,1.42,1.42,0,0,0,1-.42,1.55,1.55,0,0,1,2.18,2.19Z"/><path class="cls-1" d="M574.36,68.31a8.45,8.45,0,1,1-8.45-8.45A8.46,8.46,0,0,1,574.36,68.31Zm-3.09,0a5.36,5.36,0,1,0-5.36,5.36A5.37,5.37,0,0,0,571.27,68.31Z"/><path class="cls-1" d="M588.76,55.4a1.54,1.54,0,0,1-2.19,0,2.85,2.85,0,0,0-4.86,2v2.44h2.56a1.55,1.55,0,0,1,0,3.09h-2.56V75.21a1.54,1.54,0,1,1-3.08,0V62.91a1.54,1.54,0,0,1,0-3V57.42a5.93,5.93,0,0,1,10.13-4.2A1.55,1.55,0,0,1,588.76,55.4Z"/><path class="cls-1" d="M609.11,75.44a4.53,4.53,0,0,1-7.72-3.2V62.85a1.54,1.54,0,0,1-1-1.44,1.52,1.52,0,0,1,1-1.44V55.63a1.55,1.55,0,1,1,3.09,0v4.23h1a1.55,1.55,0,1,1,0,3.09h-1v9.29a1.43,1.43,0,0,0,2.44,1,1.55,1.55,0,1,1,2.19,2.19Z"/><path class="cls-1" d="M628.25,67.3v7.92a1.55,1.55,0,0,1-3.09,0V67.3a4.35,4.35,0,0,0-8.7,0v7.91a1.55,1.55,0,1,1-3.09,0V53.06a1.55,1.55,0,1,1,3.09,0v8.22a7.42,7.42,0,0,1,11.79,6Z"/><path class="cls-1" d="M648.27,68.31a1.54,1.54,0,0,1-1.54,1.55h-12a5.36,5.36,0,0,0,8.92,2.24,1.55,1.55,0,0,1,2.19,2.19,8.45,8.45,0,0,1-14.42-5.86s0-.08,0-.12,0-.08,0-.12a8.45,8.45,0,0,1,16.89.12ZM645,66.77A5.37,5.37,0,0,0,636,64.52a5.39,5.39,0,0,0-1.34,2.25Z"/><path class="cls-1" d="M680.78,74.29a8.45,8.45,0,1,1,0-12,1.55,1.55,0,1,1-2.19,2.18,5.36,5.36,0,1,0,0,7.58,1.55,1.55,0,1,1,2.18,2.19Z"/><path class="cls-1" d="M701.23,68.31a8.45,8.45,0,1,1-8.45-8.45A8.46,8.46,0,0,1,701.23,68.31Zm-3.09,0a5.36,5.36,0,1,0-5.36,5.36A5.37,5.37,0,0,0,698.14,68.31Z"/><path class="cls-1" d="M720.08,61.41V75.22a1.54,1.54,0,0,1-3.07.12,7.43,7.43,0,0,1-11.8-6V61.41a1.55,1.55,0,1,1,3.09,0v7.92a4.35,4.35,0,0,0,8.7,0V61.41a1.54,1.54,0,0,1,3.08,0Z"/><path class="cls-1" d="M739.34,67.3v7.92a1.55,1.55,0,0,1-3.09,0V67.3a4.35,4.35,0,1,0-8.69,0v7.91a1.55,1.55,0,1,1-3.09,0V61.41a1.54,1.54,0,0,1,3.08-.12,7.41,7.41,0,0,1,11.79,6Z"/><path class="cls-1" d="M751.2,75.44a4.53,4.53,0,0,1-7.72-3.2V62.85a1.54,1.54,0,0,1-1-1.44,1.52,1.52,0,0,1,1-1.44V55.63a1.55,1.55,0,1,1,3.09,0v4.23h1a1.55,1.55,0,0,1,0,3.09h-1v9.29A1.43,1.43,0,0,0,748,73.67a1.46,1.46,0,0,0,1-.42,1.55,1.55,0,0,1,2.18,2.19Z"/><path class="cls-1" d="M765,61.41A1.54,1.54,0,0,1,763.44,63a4.35,4.35,0,0,0-4.34,4.35v7.91a1.55,1.55,0,1,1-3.09,0V61.41a1.54,1.54,0,0,1,3.07-.12,7.41,7.41,0,0,1,4.36-1.43A1.55,1.55,0,0,1,765,61.41Z"/><path class="cls-1" d="M783.54,62l-2.45,5.72h0l-7,16.43a1.55,1.55,0,0,1-1.43.94,1.61,1.61,0,0,1-.6-.12,1.55,1.55,0,0,1-.82-2l3.28-7.73L768.91,62a1.55,1.55,0,0,1,2.84-1.22l4.47,10.48,2-4.7,0,0h0l2.44-5.74A1.55,1.55,0,0,1,783.54,62Z"/><path class="cls-1" d="M789.55,76,788.33,78a1.54,1.54,0,0,1-1.33.75,1.61,1.61,0,0,1-.79-.21,1.56,1.56,0,0,1-.54-2.12l1.23-2.06A1.54,1.54,0,1,1,789.55,76Z"/><path class="cls-1" d="M814,75.44a4.53,4.53,0,0,1-7.72-3.2V62.85a1.54,1.54,0,0,1-1-1.44,1.52,1.52,0,0,1,1-1.44V55.63a1.55,1.55,0,1,1,3.09,0v4.23h1a1.55,1.55,0,0,1,0,3.09h-1v9.29a1.44,1.44,0,0,0,2.45,1A1.55,1.55,0,1,1,814,75.44Z"/><path class="cls-1" d="M833.16,67.3v7.92a1.55,1.55,0,0,1-3.09,0V67.3a4.35,4.35,0,1,0-8.69,0v7.91a1.55,1.55,0,1,1-3.09,0V53.06a1.55,1.55,0,1,1,3.09,0v8.22a7.34,7.34,0,0,1,4.34-1.42A7.45,7.45,0,0,1,833.16,67.3Z"/><path class="cls-1" d="M846.53,61.41A1.54,1.54,0,0,1,845,63a4.35,4.35,0,0,0-4.34,4.35v7.91a1.55,1.55,0,1,1-3.09,0V61.41a1.54,1.54,0,0,1,3.07-.12A7.41,7.41,0,0,1,845,59.86,1.55,1.55,0,0,1,846.53,61.41Z"/><path class="cls-1" d="M864.34,68.31a8.45,8.45,0,1,1-8.44-8.45A8.46,8.46,0,0,1,864.34,68.31Zm-3.09,0a5.36,5.36,0,1,0-5.35,5.36A5.36,5.36,0,0,0,861.25,68.31Z"/><path class="cls-1" d="M883.2,61.41V75.22a1.54,1.54,0,0,1-3.08.12,7.42,7.42,0,0,1-11.79-6V61.41a1.55,1.55,0,1,1,3.09,0v7.92a4.35,4.35,0,0,0,8.69,0V61.41a1.55,1.55,0,0,1,3.09,0Z"/><path class="cls-1" d="M904.12,61.41V76.7a8.45,8.45,0,0,1-14.42,6,1.55,1.55,0,0,1,2.19-2.18A5.37,5.37,0,0,0,901,76.7V74.84a8.46,8.46,0,1,1,0-13.05v-.38a1.54,1.54,0,1,1,3.08,0ZM901,68.31a5.36,5.36,0,1,0-5.36,5.36A5.37,5.37,0,0,0,901,68.31Z"/><path class="cls-1" d="M923.34,67.3v7.92a1.55,1.55,0,0,1-3.09,0V67.3a4.35,4.35,0,1,0-8.69,0v7.91a1.55,1.55,0,1,1-3.09,0V53.06a1.55,1.55,0,1,1,3.09,0v8.22a7.34,7.34,0,0,1,4.34-1.42A7.45,7.45,0,0,1,923.34,67.3Z"/><path class="cls-1" d="M18.27,117.41a1.54,1.54,0,0,1-.17,2.18,1.54,1.54,0,0,1-2.17-.17L9.7,112.13l-2.84,2.14v4.15a1.55,1.55,0,0,1-3.09,0V96.26a1.55,1.55,0,1,1,3.09,0V110.4l9.31-7A1.55,1.55,0,0,1,18,105.84l-5.86,4.42Z"/><path class="cls-1" d="M36.33,111.51h0v6.89a1.55,1.55,0,1,1-3.09,0V118a8.46,8.46,0,1,1,0-13.05v-.38a1.55,1.55,0,1,1,3.09,0v6.89Zm-3.09,0a5.36,5.36,0,1,0-5.36,5.37,5.36,5.36,0,0,0,5.36-5.37Z"/><path class="cls-1" d="M49.65,104.61a1.54,1.54,0,0,1-1.54,1.54,4.35,4.35,0,0,0-4.35,4.35v7.91a1.55,1.55,0,1,1-3.09,0v-13.8a1.54,1.54,0,0,1,3.08-.12,7.41,7.41,0,0,1,4.36-1.43A1.55,1.55,0,0,1,49.65,104.61Z"/><path class="cls-1" d="M60.75,115a2,2,0,0,0-1.38-1.36l-3.6-1.36a5,5,0,0,1-3.35-3.78,4.4,4.4,0,0,1,1.78-4.16h0a6.57,6.57,0,0,1,7.82,0h0a4.49,4.49,0,0,1,1.82,3.53,1.55,1.55,0,1,1-3.09,0,1.44,1.44,0,0,0-.63-1.1h0a3.54,3.54,0,0,0-4,0h0a1.36,1.36,0,0,0-.63,1.26,1.94,1.94,0,0,0,1.38,1.35l3.6,1.37a4.94,4.94,0,0,1,3.35,3.77A4.42,4.42,0,0,1,62,118.68h0a6.64,6.64,0,0,1-7.84,0h0a4.56,4.56,0,0,1-1.82-3.54,1.55,1.55,0,0,1,3.09,0,1.45,1.45,0,0,0,.64,1.1,3.54,3.54,0,0,0,4,0h0A1.35,1.35,0,0,0,60.75,115Z"/><path class="cls-1" d="M76.9,118.64a4.52,4.52,0,0,1-7.71-3.2v-9.39a1.54,1.54,0,0,1-1-1.44,1.52,1.52,0,0,1,1-1.44V98.83a1.54,1.54,0,1,1,3.08,0v4.23h1a1.55,1.55,0,1,1,0,3.09h-1v9.29a1.43,1.43,0,0,0,2.44,1,1.55,1.55,0,0,1,2.18,2.19Z"/><path class="cls-1" d="M103.63,115a1.94,1.94,0,0,0-1.38-1.36l-3.59-1.36a5,5,0,0,1-3.35-3.78,4.39,4.39,0,0,1,1.77-4.16h0a6.59,6.59,0,0,1,7.83,0h0a4.49,4.49,0,0,1,1.82,3.53,1.55,1.55,0,1,1-3.09,0,1.44,1.44,0,0,0-.63-1.1h0a3.54,3.54,0,0,0-4,0h0a1.35,1.35,0,0,0-.62,1.26,1.93,1.93,0,0,0,1.38,1.35l3.59,1.37a4.94,4.94,0,0,1,3.35,3.77,4.39,4.39,0,0,1-1.77,4.16h0a6.63,6.63,0,0,1-7.83,0h0a4.53,4.53,0,0,1-1.82-3.54,1.55,1.55,0,0,1,3.09,0,1.44,1.44,0,0,0,.63,1.1,3.54,3.54,0,0,0,4,0h0A1.35,1.35,0,0,0,103.63,115Z"/><path class="cls-1" d="M126.7,111.51a1.54,1.54,0,0,1-1.55,1.55h-12a5.25,5.25,0,0,0,1.34,2.24,5.37,5.37,0,0,0,7.58,0,1.55,1.55,0,0,1,2.18,2.19,8.44,8.44,0,0,1-14.41-5.86.72.72,0,0,1,0-.24,8.45,8.45,0,0,1,16.89.12ZM123.38,110a5.31,5.31,0,0,0-1.34-2.25,5.37,5.37,0,0,0-7.58,0,5.29,5.29,0,0,0-1.34,2.25Z"/><path class="cls-1" d="M146.68,104.61V119.9a8.45,8.45,0,0,1-14.42,6,1.54,1.54,0,0,1,2.18-2.18,5.36,5.36,0,0,0,9.15-3.79V118a8.46,8.46,0,1,1,0-13.05v-.38a1.55,1.55,0,1,1,3.09,0Zm-3.09,6.9a5.36,5.36,0,1,0-5.36,5.36A5.37,5.37,0,0,0,143.59,111.51Z"/><path class="cls-1" d="M177.68,110.5v7.92a1.55,1.55,0,0,1-3.09,0V110.5a4.35,4.35,0,0,0-8.7,0v7.92a1.55,1.55,0,0,1-3.09,0V110.5a4.35,4.35,0,1,0-8.69,0v7.91a1.55,1.55,0,1,1-3.09,0v-13.8a1.54,1.54,0,0,1,3.08-.12A7.39,7.39,0,0,1,164.35,106a7.43,7.43,0,0,1,13.33,4.52Z"/><path class="cls-1" d="M197.69,111.51a1.54,1.54,0,0,1-1.54,1.55h-12A5.36,5.36,0,0,0,193,115.3a1.55,1.55,0,0,1,2.19,2.19,8.45,8.45,0,0,1-14.42-5.86s0-.08,0-.12,0-.08,0-.12a8.45,8.45,0,0,1,16.89.12ZM194.38,110a5.37,5.37,0,0,0-8.93-2.25,5.39,5.39,0,0,0-1.34,2.25Z"/><path class="cls-1" d="M216,110.5v7.92a1.55,1.55,0,0,1-3.09,0V110.5a4.35,4.35,0,0,0-8.7,0v7.91a1.55,1.55,0,1,1-3.09,0v-13.8a1.56,1.56,0,0,1,1.55-1.55,1.54,1.54,0,0,1,1.53,1.43,7.42,7.42,0,0,1,11.8,6Z"/><path class="cls-1" d="M227.86,118.64a4.53,4.53,0,0,1-7.72-3.2v-9.39a1.55,1.55,0,0,1-1-1.44,1.53,1.53,0,0,1,1-1.44V98.83a1.55,1.55,0,1,1,3.09,0v4.23h1a1.55,1.55,0,0,1,0,3.09h-1v9.29a1.44,1.44,0,0,0,1.44,1.43,1.42,1.42,0,0,0,1-.42,1.55,1.55,0,0,1,2.18,2.19Z"/><path class="cls-1" d="M249.3,100.17h0a1.55,1.55,0,1,1-1.54-1.54A1.54,1.54,0,0,1,249.3,100.17Zm0,4.44v13.8a1.55,1.55,0,1,1-3.09,0v-13.8a1.55,1.55,0,1,1,3.09,0Z"/><path class="cls-1" d="M268.54,110.5v7.92a1.55,1.55,0,0,1-3.09,0V110.5a4.35,4.35,0,1,0-8.7,0v7.91a1.54,1.54,0,1,1-3.08,0v-13.8a1.54,1.54,0,0,1,3.07-.12,7.42,7.42,0,0,1,11.8,6Z"/><path class="cls-1" d="M300.89,117.49a8.46,8.46,0,1,1,0-11.95,1.55,1.55,0,1,1-2.19,2.18,5.36,5.36,0,1,0,0,7.58,1.55,1.55,0,0,1,2.19,2.19Z"/><path class="cls-1" d="M321.33,111.51a1.54,1.54,0,0,1-1.54,1.55h-12a5.36,5.36,0,0,0,8.92,2.24,1.55,1.55,0,0,1,2.19,2.19,8.45,8.45,0,0,1-14.42-5.86v-.24a8.45,8.45,0,0,1,16.89.12ZM318,110a5.37,5.37,0,0,0-8.93-2.25,5.39,5.39,0,0,0-1.34,2.25Z"/><path class="cls-1" d="M339.65,110.5v7.92a1.55,1.55,0,0,1-3.09,0V110.5a4.35,4.35,0,0,0-8.7,0v7.91a1.55,1.55,0,1,1-3.09,0v-13.8a1.56,1.56,0,0,1,1.55-1.55,1.54,1.54,0,0,1,1.53,1.43,7.42,7.42,0,0,1,11.8,6Z"/><path class="cls-1" d="M351.5,118.64a4.52,4.52,0,0,1-7.71-3.2v-9.39a1.55,1.55,0,0,1-1-1.44,1.53,1.53,0,0,1,1-1.44V98.83a1.54,1.54,0,1,1,3.08,0v4.23h1a1.55,1.55,0,0,1,0,3.09h-1v9.29a1.44,1.44,0,0,0,1.44,1.43,1.42,1.42,0,0,0,1-.42,1.55,1.55,0,0,1,2.18,2.19Z"/><path class="cls-1" d="M365.29,104.61a1.54,1.54,0,0,1-1.54,1.54,4.35,4.35,0,0,0-4.35,4.35v7.91a1.55,1.55,0,1,1-3.09,0v-13.8a1.54,1.54,0,0,1,3.08-.12,7.39,7.39,0,0,1,4.36-1.43A1.55,1.55,0,0,1,365.29,104.61Z"/><path class="cls-1" d="M383.11,111.51h0v6.89a1.55,1.55,0,1,1-3.09,0V118A8.46,8.46,0,1,1,380,105v-.38a1.55,1.55,0,1,1,3.09,0v6.89Zm-3.09,0a5.36,5.36,0,1,0-5.36,5.37A5.37,5.37,0,0,0,380,111.5Z"/><path class="cls-1" d="M390.54,96.26v22.15a1.55,1.55,0,1,1-3.09,0V96.26a1.55,1.55,0,1,1,3.09,0Z"/><path class="cls-1" d="M425.34,111.51h0v6.89a1.55,1.55,0,1,1-3.09,0V118a8.46,8.46,0,1,1,0-13.05v-.38a1.55,1.55,0,1,1,3.09,0v6.89Zm-3.09,0a5.36,5.36,0,1,0-5.35,5.37,5.36,5.36,0,0,0,5.35-5.37Z"/><path class="cls-1" d="M444.56,110.5v7.92a1.55,1.55,0,0,1-3.09,0V110.5a4.35,4.35,0,1,0-8.69,0v7.91a1.55,1.55,0,1,1-3.09,0v-13.8a1.54,1.54,0,0,1,3.07-.12,7.42,7.42,0,0,1,11.8,6Z"/><path class="cls-1" d="M464.58,111.51h0v6.89a1.55,1.55,0,1,1-3.09,0V118a8.46,8.46,0,1,1,0-13.05V96.26a1.55,1.55,0,1,1,3.09,0V111.5Zm-3.09,0a5.36,5.36,0,1,0-5.36,5.37,5.36,5.36,0,0,0,5.36-5.37Z"/><path class="cls-1" d="M509,105.22,503.11,119a1.54,1.54,0,0,1-2.84,0l-4.47-10.48L491.33,119a1.54,1.54,0,0,1-2.84,0l-5.89-13.8a1.55,1.55,0,1,1,2.84-1.22l4.47,10.48L494.38,104s0-.06.05-.09l.09-.16.09-.11.1-.12.12-.1.11-.09a1.29,1.29,0,0,1,.16-.09l.09,0h0l.19-.05.1,0h.42a.55.55,0,0,1,.18,0l.09,0,.2.07h0l.08,0a.91.91,0,0,1,.17.09l.11.08.12.11.1.12.09.11a1.29,1.29,0,0,1,.09.16.41.41,0,0,1,.05.09l4.47,10.48L506.16,104a1.55,1.55,0,0,1,2.84,1.22Z"/><path class="cls-1" d="M527.88,111.51a1.54,1.54,0,0,1-1.54,1.55h-12a5.36,5.36,0,0,0,8.92,2.24,1.55,1.55,0,1,1,2.19,2.19A8.45,8.45,0,0,1,511,111.63s0-.08,0-.12,0-.08,0-.12a8.45,8.45,0,0,1,16.89.12ZM524.57,110a5.37,5.37,0,0,0-8.93-2.25A5.39,5.39,0,0,0,514.3,110Z"/><path class="cls-1" d="M539.34,115a1.94,1.94,0,0,0-1.38-1.36l-3.6-1.36A5,5,0,0,1,531,108.5a4.4,4.4,0,0,1,1.78-4.16h0a6.59,6.59,0,0,1,7.83,0h0a4.49,4.49,0,0,1,1.82,3.53,1.55,1.55,0,1,1-3.09,0,1.44,1.44,0,0,0-.63-1.1h0a3.54,3.54,0,0,0-4,0h0a1.35,1.35,0,0,0-.62,1.26,1.91,1.91,0,0,0,1.38,1.35l3.59,1.37a4.94,4.94,0,0,1,3.35,3.77,4.42,4.42,0,0,1-1.77,4.16h0a6.63,6.63,0,0,1-7.83,0,4.54,4.54,0,0,1-1.83-3.54,1.55,1.55,0,0,1,3.09,0,1.45,1.45,0,0,0,.64,1.1,3.54,3.54,0,0,0,4,0h0A1.35,1.35,0,0,0,539.34,115Z"/><path class="cls-1" d="M555.5,118.64a4.53,4.53,0,0,1-7.72-3.2v-9.39a1.54,1.54,0,0,1-1-1.44,1.52,1.52,0,0,1,1-1.44V98.83a1.55,1.55,0,1,1,3.09,0v4.23h1a1.55,1.55,0,1,1,0,3.09h-1v9.29a1.43,1.43,0,0,0,2.44,1,1.55,1.55,0,1,1,2.19,2.19Z"/><path class="cls-1" d="M574,111.51a1.54,1.54,0,0,1-1.54,1.55h-12a5.36,5.36,0,0,0,8.92,2.24,1.55,1.55,0,1,1,2.19,2.19,8.45,8.45,0,0,1-14.42-5.86s0-.08,0-.12,0-.08,0-.12a8.45,8.45,0,0,1,16.89.12ZM570.65,110a5.37,5.37,0,0,0-8.93-2.25,5.39,5.39,0,0,0-1.34,2.25Z"/><path class="cls-1" d="M586.38,104.61a1.54,1.54,0,0,1-1.54,1.54,4.35,4.35,0,0,0-4.35,4.35v7.91a1.54,1.54,0,1,1-3.08,0v-13.8a1.54,1.54,0,0,1,3.07-.12,7.41,7.41,0,0,1,4.36-1.43A1.55,1.55,0,0,1,586.38,104.61Z"/><path class="cls-1" d="M605.6,110.5v7.92a1.55,1.55,0,0,1-3.09,0V110.5a4.35,4.35,0,0,0-8.7,0v7.91a1.55,1.55,0,1,1-3.09,0v-13.8a1.56,1.56,0,0,1,1.55-1.55,1.54,1.54,0,0,1,1.53,1.43,7.42,7.42,0,0,1,11.8,6Z"/><path class="cls-1" d="M640.42,111.51a8.44,8.44,0,0,1-13.8,6.53v8.73a1.55,1.55,0,0,1-3.09,0V111.52h0v-6.89a1.55,1.55,0,0,1,3.09,0V105a8.43,8.43,0,0,1,13.8,6.52Zm-3.08,0a5.36,5.36,0,0,0-10.72,0v0a5.36,5.36,0,0,0,10.72,0Z"/><path class="cls-1" d="M660.41,111.51h0v6.89a1.54,1.54,0,1,1-3.08,0V118a8.46,8.46,0,1,1,0-13.05v-.38a1.55,1.55,0,1,1,3.09,0v6.89Zm-3.09,0a5.36,5.36,0,1,0-5.36,5.37,5.37,5.37,0,0,0,5.36-5.37Z"/><path class="cls-1" d="M673.73,104.61a1.54,1.54,0,0,1-1.55,1.54,4.35,4.35,0,0,0-4.34,4.35v7.91a1.55,1.55,0,1,1-3.09,0v-13.8a1.54,1.54,0,0,1,3.08-.12,7.36,7.36,0,0,1,4.35-1.43A1.55,1.55,0,0,1,673.73,104.61Z"/><path class="cls-1" d="M686.8,118.64a4.53,4.53,0,0,1-7.72-3.2v-9.39a1.54,1.54,0,0,1-1-1.44,1.52,1.52,0,0,1,1-1.44V98.83a1.55,1.55,0,1,1,3.09,0v4.23h1a1.55,1.55,0,1,1,0,3.09h-1v9.29a1.43,1.43,0,0,0,2.44,1,1.55,1.55,0,0,1,2.19,2.19Z"/><path class="cls-1" d="M688.94,118.23a1.67,1.67,0,1,1,1.67,1.67A1.67,1.67,0,0,1,688.94,118.23Z"/><path class="cls-1" d="M718.52,94.69H728a1.55,1.55,0,1,1,0,3.09h-7.9v20.6a1.55,1.55,0,1,1-3.09,0V97.78h-7.9a1.55,1.55,0,0,1,0-3.09h9.45Z"/><path class="cls-1" d="M748.75,110.5v7.92a1.55,1.55,0,0,1-3.09,0V110.5a4.35,4.35,0,0,0-8.7,0v7.91a1.54,1.54,0,1,1-3.08,0V96.26a1.54,1.54,0,1,1,3.08,0v8.22a7.42,7.42,0,0,1,11.79,6Z"/><path class="cls-1" d="M768.77,111.51a1.54,1.54,0,0,1-1.54,1.55h-12a5.37,5.37,0,0,0,8.92,2.24,1.55,1.55,0,0,1,2.19,2.19,8.45,8.45,0,0,1-14.42-5.86v-.24a8.45,8.45,0,0,1,16.89.12ZM765.46,110a5.36,5.36,0,0,0-8.92-2.25,5.41,5.41,0,0,0-1.35,2.25Z"/><path class="cls-1" d="M828.17,117.49a8.46,8.46,0,1,1,0-11.95,1.55,1.55,0,1,1-2.19,2.18,5.35,5.35,0,0,0-7.57,0A5.36,5.36,0,0,0,826,115.3a1.55,1.55,0,0,1,2.18,2.19Z"/><path class="cls-1" d="M848.61,111.51a8.45,8.45,0,1,1-8.45-8.45A8.46,8.46,0,0,1,848.61,111.51Zm-3.09,0a5.36,5.36,0,1,0-5.36,5.36A5.37,5.37,0,0,0,845.52,111.51Z"/><path class="cls-1" d="M868.59,111.51h0v6.89a1.55,1.55,0,1,1-3.09,0V118a8.46,8.46,0,1,1,0-13.05v-.38a1.55,1.55,0,1,1,3.09,0v6.89Zm-3.09,0a5.36,5.36,0,1,0-5.36,5.37,5.36,5.36,0,0,0,5.36-5.37Z"/><path class="cls-1" d="M881.31,115a1.94,1.94,0,0,0-1.38-1.36l-3.6-1.36A4.94,4.94,0,0,1,873,108.5a4.39,4.39,0,0,1,1.77-4.16h0a6.59,6.59,0,0,1,7.83,0h0a4.49,4.49,0,0,1,1.82,3.53,1.55,1.55,0,1,1-3.09,0,1.44,1.44,0,0,0-.63-1.1h0a3.54,3.54,0,0,0-4,0h0A1.35,1.35,0,0,0,876,108a1.93,1.93,0,0,0,1.38,1.35l3.59,1.37a4.94,4.94,0,0,1,3.35,3.77,4.42,4.42,0,0,1-1.77,4.16h0a6.63,6.63,0,0,1-7.83,0,4.53,4.53,0,0,1-1.82-3.54,1.54,1.54,0,1,1,3.08,0,1.45,1.45,0,0,0,.64,1.1,3.54,3.54,0,0,0,4,0h0A1.35,1.35,0,0,0,881.31,115Z"/><path class="cls-1" d="M897.47,118.64a4.53,4.53,0,0,1-7.72-3.2v-9.39a1.54,1.54,0,0,1-1-1.44,1.52,1.52,0,0,1,1-1.44V98.83a1.55,1.55,0,1,1,3.09,0v4.23h1a1.55,1.55,0,1,1,0,3.09h-1v9.29a1.43,1.43,0,0,0,2.44,1,1.55,1.55,0,1,1,2.19,2.19Z"/><path class="cls-1" d="M915.93,111.51h0v6.89a1.55,1.55,0,1,1-3.09,0V118a8.46,8.46,0,1,1,0-13.05v-.38a1.55,1.55,0,1,1,3.09,0v6.89Zm-3.09,0a5.36,5.36,0,1,0-5.36,5.37,5.36,5.36,0,0,0,5.36-5.37Z"/><path class="cls-1" d="M923.36,96.26v22.15a1.54,1.54,0,1,1-3.08,0V96.26a1.54,1.54,0,1,1,3.08,0Z"/><path class="cls-1" d="M20.67,154.71a8.45,8.45,0,0,1-13.81,6.53V170a1.55,1.55,0,0,1-3.09,0V154.72h0v-6.89a1.55,1.55,0,0,1,3.09,0v.38a8.44,8.44,0,0,1,13.81,6.52Zm-3.09,0a5.36,5.36,0,0,0-10.72,0v0a5.36,5.36,0,0,0,10.72,0Z"/><path class="cls-1" d="M28.1,139.46v22.15a1.55,1.55,0,1,1-3.09,0V139.46a1.55,1.55,0,1,1,3.09,0Z"/><path class="cls-1" d="M49,154.71h0v6.89a1.55,1.55,0,1,1-3.09,0v-.37a8.46,8.46,0,1,1,0-13.05v-.38a1.55,1.55,0,1,1,3.09,0v6.89Zm-3.09,0a5.36,5.36,0,1,0-5.36,5.37,5.36,5.36,0,0,0,5.36-5.37Z"/><path class="cls-1" d="M56.43,143.37h0a1.55,1.55,0,1,1-1.54-1.54A1.54,1.54,0,0,1,56.43,143.37Zm0,4.44v13.8a1.55,1.55,0,1,1-3.09,0v-13.8a1.55,1.55,0,1,1,3.09,0Z"/><path class="cls-1" d="M75.67,153.7v7.92a1.55,1.55,0,0,1-3.09,0V153.7a4.35,4.35,0,1,0-8.7,0v7.91a1.54,1.54,0,1,1-3.08,0v-13.8a1.54,1.54,0,0,1,3.07-.12,7.42,7.42,0,0,1,11.8,6Z"/><path class="cls-1" d="M111.25,154.71h0v6.89a1.55,1.55,0,1,1-3.09,0v-.37a8.46,8.46,0,1,1,0-13.05v-8.73a1.55,1.55,0,1,1,3.09,0V154.7Zm-3.09,0a5.36,5.36,0,1,0-5.36,5.37,5.36,5.36,0,0,0,5.36-5.37Z"/><path class="cls-1" d="M118.68,143.37h0a1.55,1.55,0,1,1-1.54-1.54A1.54,1.54,0,0,1,118.68,143.37Zm0,4.44v13.8a1.55,1.55,0,1,1-3.09,0v-13.8a1.55,1.55,0,1,1,3.09,0Z"/><path class="cls-1" d="M131.42,158.2a1.94,1.94,0,0,0-1.38-1.36l-3.6-1.36a5,5,0,0,1-3.35-3.78,4.42,4.42,0,0,1,1.78-4.16h0a6.59,6.59,0,0,1,7.83,0h0a4.49,4.49,0,0,1,1.82,3.53,1.55,1.55,0,1,1-3.09,0,1.44,1.44,0,0,0-.63-1.1h0a3.54,3.54,0,0,0-4,0h0a1.36,1.36,0,0,0-.62,1.26,1.91,1.91,0,0,0,1.38,1.35l3.59,1.37a4.94,4.94,0,0,1,3.35,3.77,4.42,4.42,0,0,1-1.77,4.16h0a6.63,6.63,0,0,1-7.83,0h0a4.54,4.54,0,0,1-1.83-3.54,1.55,1.55,0,0,1,3.09,0,1.45,1.45,0,0,0,.64,1.1,3.54,3.54,0,0,0,4,0h0A1.35,1.35,0,0,0,131.42,158.2Z"/><path class="cls-1" d="M154.48,154.71h0v6.89a1.54,1.54,0,1,1-3.08,0v-.37a8.46,8.46,0,1,1,0-13.05v-.38a1.54,1.54,0,1,1,3.08,0v6.89Zm-3.08,0a5.36,5.36,0,1,0-5.36,5.37,5.37,5.37,0,0,0,5.36-5.37Z"/><path class="cls-1" d="M175.73,154.71a8.45,8.45,0,0,1-13.81,6.53V170a1.55,1.55,0,0,1-3.09,0V154.72h0v-6.89a1.55,1.55,0,0,1,3.09,0v.38a8.44,8.44,0,0,1,13.81,6.52Zm-3.09,0a5.36,5.36,0,0,0-10.72,0v0a5.36,5.36,0,0,0,10.72,0Z"/><path class="cls-1" d="M196.07,154.71a8.45,8.45,0,0,1-13.81,6.53V170a1.55,1.55,0,0,1-3.09,0V154.72h0v-6.89a1.55,1.55,0,0,1,3.09,0v.38a8.44,8.44,0,0,1,13.81,6.52Zm-3.09,0a5.36,5.36,0,0,0-10.72,0v0a5.36,5.36,0,0,0,10.72,0Z"/><path class="cls-1" d="M216.05,154.71a1.55,1.55,0,0,1-1.55,1.55h-12a5.25,5.25,0,0,0,1.34,2.24,5.37,5.37,0,0,0,7.58,0,1.55,1.55,0,0,1,2.18,2.19,8.45,8.45,0,0,1-14.42-5.86v-.24a8.45,8.45,0,0,1,16.9.12Zm-3.32-1.54a5.35,5.35,0,0,0-8.92-2.25,5.29,5.29,0,0,0-1.34,2.25Z"/><path class="cls-1" d="M236,154.71h0v6.89a1.54,1.54,0,1,1-3.08,0v-.37a8.46,8.46,0,1,1,0-13.05v-.38a1.55,1.55,0,1,1,3.09,0v6.89Zm-3.09,0a5.36,5.36,0,1,0-5.36,5.37,5.37,5.37,0,0,0,5.36-5.37Z"/><path class="cls-1" d="M249.35,147.81a1.54,1.54,0,0,1-1.54,1.54,4.35,4.35,0,0,0-4.35,4.35v7.91a1.55,1.55,0,1,1-3.09,0v-13.8a1.54,1.54,0,0,1,3.08-.12,7.39,7.39,0,0,1,4.36-1.43A1.55,1.55,0,0,1,249.35,147.81Z"/><path class="cls-1" d="M260.44,158.2a1.92,1.92,0,0,0-1.38-1.36l-3.59-1.36a5,5,0,0,1-3.35-3.78,4.42,4.42,0,0,1,1.77-4.16h0a6.57,6.57,0,0,1,7.82,0h0a4.5,4.5,0,0,1,1.83,3.53,1.55,1.55,0,1,1-3.09,0,1.45,1.45,0,0,0-.64-1.1h0a3.54,3.54,0,0,0-4,0h0a1.36,1.36,0,0,0-.62,1.26,1.93,1.93,0,0,0,1.38,1.35l3.6,1.37a5,5,0,0,1,3.35,3.77,4.42,4.42,0,0,1-1.77,4.16h0a6.63,6.63,0,0,1-7.83,0h0a4.53,4.53,0,0,1-1.82-3.54,1.55,1.55,0,0,1,3.09,0,1.44,1.44,0,0,0,.63,1.1,3.54,3.54,0,0,0,4,0h0A1.35,1.35,0,0,0,260.44,158.2Z"/><path class="cls-1" d="M296.59,160.69a8.46,8.46,0,1,1,0-11.95,1.55,1.55,0,1,1-2.19,2.18,5.35,5.35,0,0,0-7.57,0,5.36,5.36,0,0,0,7.57,7.58,1.55,1.55,0,1,1,2.19,2.19Z"/><path class="cls-1" d="M317,154.71a8.45,8.45,0,1,1-8.45-8.45A8.46,8.46,0,0,1,317,154.71Zm-3.09,0a5.36,5.36,0,1,0-5.36,5.36A5.37,5.37,0,0,0,313.94,154.71Z"/><path class="cls-1" d="M347.13,153.7v7.92a1.55,1.55,0,0,1-3.09,0V153.7a4.35,4.35,0,1,0-8.69,0v7.92a1.55,1.55,0,0,1-3.09,0V153.7a4.35,4.35,0,1,0-8.7,0v7.91a1.54,1.54,0,1,1-3.08,0v-13.8a1.54,1.54,0,0,1,3.07-.12,7.39,7.39,0,0,1,10.25,1.49,7.43,7.43,0,0,1,13.33,4.52Z"/><path class="cls-1" d="M368.4,154.71a8.44,8.44,0,0,1-13.8,6.53V170a1.55,1.55,0,0,1-3.09,0V154.72h0v-6.89a1.55,1.55,0,0,1,3.09,0v.38a8.43,8.43,0,0,1,13.8,6.52Zm-3.08,0a5.36,5.36,0,0,0-10.72,0v0a5.36,5.36,0,0,0,10.72,0Z"/><path class="cls-1" d="M375.84,139.46v22.15a1.55,1.55,0,1,1-3.09,0V139.46a1.55,1.55,0,1,1,3.09,0Z"/><path class="cls-1" d="M396.74,154.71a1.55,1.55,0,0,1-1.55,1.55h-12a5.25,5.25,0,0,0,1.34,2.24,5.37,5.37,0,0,0,7.58,0,1.55,1.55,0,0,1,2.18,2.19,8.45,8.45,0,0,1-14.42-5.86v-.24a8.45,8.45,0,0,1,16.9.12Zm-3.32-1.54a5.35,5.35,0,0,0-8.92-2.25,5.29,5.29,0,0,0-1.34,2.25Z"/><path class="cls-1" d="M408.55,161.84a4.53,4.53,0,0,1-7.72-3.2v-9.39a1.54,1.54,0,0,1-1-1.44,1.52,1.52,0,0,1,1-1.44V142a1.55,1.55,0,1,1,3.09,0v4.23h1a1.55,1.55,0,1,1,0,3.09h-1v9.29a1.43,1.43,0,0,0,2.44,1,1.55,1.55,0,1,1,2.19,2.19Z"/><path class="cls-1" d="M427,154.71a1.54,1.54,0,0,1-1.54,1.55h-12a5.46,5.46,0,0,0,1.34,2.24,5.37,5.37,0,0,0,7.58,0,1.55,1.55,0,1,1,2.19,2.19,8.45,8.45,0,0,1-14.42-5.86v-.24a8.45,8.45,0,0,1,16.89.12Zm-3.31-1.54a5.37,5.37,0,0,0-8.93-2.25,5.49,5.49,0,0,0-1.34,2.25Z"/><path class="cls-1" d="M434.44,139.46v22.15a1.54,1.54,0,1,1-3.08,0V139.46a1.54,1.54,0,1,1,3.08,0Z"/><path class="cls-1" d="M453.55,148.42l-2.44,5.72h0l-7,16.43a1.55,1.55,0,0,1-1.43.94,1.61,1.61,0,0,1-.6-.12,1.54,1.54,0,0,1-.82-2l3.28-7.73-5.64-13.22a1.55,1.55,0,0,1,2.84-1.22l4.47,10.48,2-4.7,0,0h0l2.44-5.74a1.55,1.55,0,0,1,2.84,1.22Z"/><path class="cls-1" d="M475.45,143.37h0a1.54,1.54,0,1,1-1.54-1.54A1.54,1.54,0,0,1,475.45,143.37Zm0,4.44v13.8a1.54,1.54,0,1,1-3.08,0v-13.8a1.54,1.54,0,1,1,3.08,0Z"/><path class="cls-1" d="M494.69,153.7v7.92a1.55,1.55,0,0,1-3.09,0V153.7a4.35,4.35,0,0,0-8.7,0v7.91a1.54,1.54,0,1,1-3.08,0v-13.8a1.54,1.54,0,0,1,3.07-.12,7.42,7.42,0,0,1,11.8,6Z"/><path class="cls-1" d="M522.1,161.84a4.53,4.53,0,0,1-7.72-3.2v-9.39a1.54,1.54,0,0,1-1-1.44,1.52,1.52,0,0,1,1-1.44V142a1.55,1.55,0,1,1,3.09,0v4.23h1a1.55,1.55,0,0,1,0,3.09h-1v9.29a1.44,1.44,0,0,0,1.44,1.43,1.42,1.42,0,0,0,1-.42,1.55,1.55,0,0,1,2.18,2.19Z"/><path class="cls-1" d="M541.24,153.7v7.92a1.55,1.55,0,0,1-3.09,0V153.7a4.35,4.35,0,1,0-8.69,0v7.91a1.55,1.55,0,1,1-3.09,0V139.46a1.55,1.55,0,1,1,3.09,0v8.22a7.35,7.35,0,0,1,4.35-1.42A7.44,7.44,0,0,1,541.24,153.7Z"/><path class="cls-1" d="M561.27,154.71a1.55,1.55,0,0,1-1.55,1.55h-12A5.25,5.25,0,0,0,549,158.5a5.37,5.37,0,0,0,7.58,0,1.55,1.55,0,1,1,2.18,2.19,8.45,8.45,0,0,1-14.42-5.86v-.24a8.45,8.45,0,0,1,14.42-5.85A8.37,8.37,0,0,1,561.27,154.71ZM558,153.17a5.35,5.35,0,0,0-8.92-2.25,5.29,5.29,0,0,0-1.34,2.25Z"/><path class="cls-1" d="M594.78,153.7v7.92a1.55,1.55,0,0,1-3.09,0V153.7a4.35,4.35,0,1,0-8.69,0v7.91a1.55,1.55,0,1,1-3.09,0v-13.8a1.54,1.54,0,0,1,3.07-.12,7.42,7.42,0,0,1,11.8,6Z"/><path class="cls-1" d="M614.8,154.71a8.45,8.45,0,1,1-8.44-8.45A8.46,8.46,0,0,1,614.8,154.71Zm-3.09,0a5.36,5.36,0,1,0-5.35,5.36A5.36,5.36,0,0,0,611.71,154.71Z"/><path class="cls-1" d="M627.23,147.81a1.54,1.54,0,0,1-1.55,1.54,4.35,4.35,0,0,0-4.34,4.35v7.91a1.55,1.55,0,1,1-3.09,0v-13.8a1.54,1.54,0,0,1,3.07-.12,7.41,7.41,0,0,1,4.36-1.43A1.55,1.55,0,0,1,627.23,147.81Z"/><path class="cls-1" d="M640.29,161.84a4.48,4.48,0,0,1-3.19,1.32,4.53,4.53,0,0,1-4.52-4.52v-9.39a1.54,1.54,0,0,1-1-1.44,1.52,1.52,0,0,1,1-1.44V142a1.55,1.55,0,1,1,3.09,0v4.23h1a1.55,1.55,0,1,1,0,3.09h-1v9.29a1.43,1.43,0,0,0,2.44,1,1.55,1.55,0,1,1,2.18,2.19Z"/><path class="cls-1" d="M659.44,153.7v7.92a1.55,1.55,0,0,1-3.09,0V153.7a4.35,4.35,0,1,0-8.7,0v7.91a1.55,1.55,0,1,1-3.09,0V139.46a1.55,1.55,0,1,1,3.09,0v8.22a7.42,7.42,0,0,1,11.79,6Z"/><path class="cls-1" d="M665.33,162.35l-1.23,2.06a1.53,1.53,0,0,1-1.33.75,1.54,1.54,0,0,1-1.32-2.33l1.22-2.06a1.55,1.55,0,1,1,2.66,1.58Z"/><path class="cls-1" d="M722.44,148.42l-5.89,13.8a1.54,1.54,0,0,1-2.84,0l-4.47-10.47-4.47,10.47a1.56,1.56,0,0,1-1.42.94,1.54,1.54,0,0,1-1.42-.94L696,148.42a1.54,1.54,0,0,1,.81-2,1.56,1.56,0,0,1,2,.81l4.47,10.48,4.47-10.48a.41.41,0,0,1,0-.09A1.29,1.29,0,0,1,708,147a.87.87,0,0,1,.09-.11l.1-.12.12-.1.11-.09a1.29,1.29,0,0,1,.16-.09l.09-.05h0l.19,0,.1,0h.41a.58.58,0,0,1,.19,0l.09,0,.2.07h0a.26.26,0,0,1,.09.05l.17.09.11.08.12.11.1.12.09.11.09.16s0,.06,0,.09l4.47,10.48,4.47-10.48a1.55,1.55,0,0,1,2.84,1.22Z"/><path class="cls-1" d="M741.81,153.7v7.92a1.54,1.54,0,0,1-3.08,0V153.7a4.35,4.35,0,0,0-8.7,0v7.91a1.55,1.55,0,1,1-3.09,0V139.46a1.55,1.55,0,1,1,3.09,0v8.22a7.42,7.42,0,0,1,11.78,6Z"/><path class="cls-1" d="M761.84,154.71a1.54,1.54,0,0,1-1.55,1.55h-12a5.36,5.36,0,0,0,8.92,2.24,1.55,1.55,0,1,1,2.19,2.19A8.45,8.45,0,0,1,745,154.83a.72.72,0,0,1,0-.24,8.45,8.45,0,0,1,16.89.12Zm-3.31-1.54a5.37,5.37,0,0,0-8.93-2.25,5.39,5.39,0,0,0-1.34,2.25Z"/><path class="cls-1" d="M774.26,147.81a1.54,1.54,0,0,1-1.54,1.54,4.35,4.35,0,0,0-4.35,4.35v7.91a1.55,1.55,0,1,1-3.09,0v-13.8a1.54,1.54,0,0,1,3.08-.12,7.41,7.41,0,0,1,4.36-1.43A1.55,1.55,0,0,1,774.26,147.81Z"/><path class="cls-1" d="M792.08,154.71a1.54,1.54,0,0,1-1.54,1.55h-12a5.36,5.36,0,0,0,8.92,2.24,1.55,1.55,0,1,1,2.19,2.19,8.45,8.45,0,0,1-14.42-5.86.73.73,0,0,1,0-.24,8.45,8.45,0,0,1,16.89.12Zm-3.31-1.54a5.37,5.37,0,0,0-8.93-2.25,5.39,5.39,0,0,0-1.34,2.25Z"/><path class="cls-1" d="M827.74,138.43l10.63,12.47L849,138.43a1.54,1.54,0,0,1,2.72,1v22.15a1.55,1.55,0,1,1-3.09,0v-18l-9.08,10.65-.09.09-.09.09h0l-.15.1a.41.41,0,0,1-.11.07l-.15.07-.13,0-.14,0-.15,0h-.3l-.15,0-.14,0-.14,0-.14-.06-.12-.08-.13-.09,0,0-.09-.1-.08-.08-9.09-10.66v18a1.55,1.55,0,1,1-3.09,0V139.43a1.54,1.54,0,0,1,2.72-1Z"/><path class="cls-1" d="M873,154.71a8.45,8.45,0,1,1-8.45-8.45A8.46,8.46,0,0,1,873,154.71Zm-3.09,0a5.36,5.36,0,1,0-5.36,5.36A5.37,5.37,0,0,0,869.86,154.71Z"/><path class="cls-1" d="M891.8,147.81v13.81a1.54,1.54,0,0,1-3.07.12,7.43,7.43,0,0,1-11.8-6v-7.92a1.55,1.55,0,1,1,3.09,0v7.92a4.35,4.35,0,0,0,8.69,0v-7.92a1.55,1.55,0,0,1,3.09,0Z"/><path class="cls-1" d="M911.06,153.7v7.92a1.55,1.55,0,0,1-3.09,0V153.7a4.35,4.35,0,1,0-8.69,0v7.91a1.55,1.55,0,1,1-3.09,0v-13.8a1.54,1.54,0,0,1,3.08-.12,7.41,7.41,0,0,1,11.79,6Z"/><path class="cls-1" d="M922.92,161.84a4.53,4.53,0,0,1-7.72-3.2v-9.39a1.54,1.54,0,0,1-1-1.44,1.52,1.52,0,0,1,1-1.44V142a1.55,1.55,0,1,1,3.09,0v4.23h1a1.55,1.55,0,0,1,0,3.09h-1v9.29a1.43,1.43,0,0,0,1.43,1.43,1.46,1.46,0,0,0,1-.42,1.55,1.55,0,0,1,2.18,2.19Z"/><path class="cls-1" d="M3.77,204.8V182.63a1.55,1.55,0,0,1,3.09,0v20.62H24.21a1.55,1.55,0,0,1,0,3.09H5.32A1.54,1.54,0,0,1,3.77,204.8Z"/><path class="cls-1" d="M43.06,197.91a8.45,8.45,0,1,1-8.45-8.45A8.46,8.46,0,0,1,43.06,197.91Zm-3.09,0a5.36,5.36,0,1,0-5.36,5.36A5.37,5.37,0,0,0,40,197.91Z"/><path class="cls-1" d="M59.63,191.62l-5.89,13.8a1.54,1.54,0,0,1-2.84,0L45,191.62a1.55,1.55,0,1,1,2.84-1.22l4.47,10.48,4.47-10.48a1.55,1.55,0,1,1,2.84,1.22Z"/><path class="cls-1" d="M77,205.71a11.68,11.68,0,0,1-5,1c-5.26,0-8.68-3.56-8.68-8.89s3.67-9.25,9.36-9.25a10.6,10.6,0,0,1,4.39.9l-.72,2.45a7.23,7.23,0,0,0-3.67-.83c-4,0-6.15,3-6.15,6.58,0,4,2.59,6.52,6,6.52a9.11,9.11,0,0,0,3.89-.86Zm-.68-24.3L72,186.56H69.69l3.17-5.15Z"/><path class="cls-1" d="M97.17,197.91a1.54,1.54,0,0,1-1.55,1.55h-12a5.36,5.36,0,0,0,8.92,2.24,1.55,1.55,0,0,1,2.18,2.19A8.44,8.44,0,0,1,80.28,198a.73.73,0,0,1,0-.24,8.45,8.45,0,0,1,16.89.12Zm-3.31-1.54a5.43,5.43,0,0,0-1.35-2.25,5.35,5.35,0,0,0-8.92,2.25Z"/><path class="cls-1" d="M115.48,196.9v7.92a1.54,1.54,0,0,1-3.08,0V196.9a4.35,4.35,0,0,0-8.7,0v7.91a1.55,1.55,0,1,1-3.09,0V191a1.54,1.54,0,0,1,3.08-.12,7.41,7.41,0,0,1,11.79,6Z"/><path class="cls-1" d="M159.28,197.91h0v6.89a1.55,1.55,0,1,1-3.09,0v-.37a8.46,8.46,0,1,1,0-13.05V191a1.55,1.55,0,1,1,3.09,0v6.89Zm-3.09,0a5.36,5.36,0,1,0-5.35,5.37,5.36,5.36,0,0,0,5.35-5.37Z"/><path class="cls-1" d="M178.5,196.9v7.92a1.55,1.55,0,0,1-3.09,0V196.9a4.35,4.35,0,1,0-8.69,0v7.91a1.55,1.55,0,1,1-3.09,0V191a1.54,1.54,0,0,1,3.07-.12,7.42,7.42,0,0,1,11.8,6Z"/><path class="cls-1" d="M198.52,197.91h0v6.89a1.55,1.55,0,1,1-3.09,0v-.37a8.37,8.37,0,0,1-5.35,1.92,8.45,8.45,0,1,1,5.35-15v-8.73a1.55,1.55,0,1,1,3.09,0V197.9Zm-3.09,0a5.36,5.36,0,1,0-5.35,5.37,5.36,5.36,0,0,0,5.35-5.37Z"/><path class="cls-1" d="M242.28,197.91a8.45,8.45,0,1,1-8.45-8.45A8.46,8.46,0,0,1,242.28,197.91Zm-3.09,0a5.36,5.36,0,1,0-5.36,5.36A5.37,5.37,0,0,0,239.19,197.91Z"/><path class="cls-1" d="M254.09,205a4.53,4.53,0,0,1-7.72-3.2v-9.39a1.54,1.54,0,0,1-1-1.44,1.52,1.52,0,0,1,1-1.44v-4.34a1.55,1.55,0,1,1,3.09,0v4.23h1a1.55,1.55,0,0,1,0,3.09h-1v9.29a1.43,1.43,0,0,0,1.43,1.43,1.46,1.46,0,0,0,1-.42,1.55,1.55,0,0,1,2.18,2.19Z"/><path class="cls-1" d="M273.23,196.9v7.92a1.55,1.55,0,0,1-3.09,0V196.9a4.35,4.35,0,1,0-8.69,0v7.91a1.55,1.55,0,1,1-3.09,0V182.66a1.55,1.55,0,1,1,3.09,0v8.22a7.34,7.34,0,0,1,4.34-1.42A7.45,7.45,0,0,1,273.23,196.9Z"/><path class="cls-1" d="M293.25,197.91a1.54,1.54,0,0,1-1.54,1.55h-12a5.37,5.37,0,0,0,8.93,2.24,1.55,1.55,0,0,1,2.18,2.19A8.45,8.45,0,0,1,276.36,198v-.24a8.45,8.45,0,0,1,14.42-5.85A8.36,8.36,0,0,1,293.25,197.91Zm-3.31-1.54a5.36,5.36,0,0,0-10.27,0Z"/><path class="cls-1" d="M305.68,191a1.54,1.54,0,0,1-1.55,1.54,4.35,4.35,0,0,0-4.34,4.35v7.91a1.55,1.55,0,1,1-3.09,0V191a1.54,1.54,0,0,1,3.07-.12,7.41,7.41,0,0,1,4.36-1.43A1.55,1.55,0,0,1,305.68,191Z"/><path class="cls-1" d="M359.19,196.9v7.92a1.55,1.55,0,0,1-3.09,0V196.9a4.35,4.35,0,0,0-8.7,0v7.92a1.55,1.55,0,0,1-3.09,0V196.9a4.35,4.35,0,1,0-8.69,0v7.91a1.55,1.55,0,1,1-3.09,0V191a1.54,1.54,0,0,1,3.08-.12,7.39,7.39,0,0,1,10.25,1.49,7.43,7.43,0,0,1,13.33,4.52Z"/><path class="cls-1" d="M379.2,197.91a8.45,8.45,0,1,1-8.45-8.45A8.46,8.46,0,0,1,379.2,197.91Zm-3.09,0a5.36,5.36,0,1,0-5.36,5.36A5.37,5.37,0,0,0,376.11,197.91Z"/><path class="cls-1" d="M398.06,191v13.81a1.54,1.54,0,0,1-3.08.12,7.43,7.43,0,0,1-11.8-6V191a1.55,1.55,0,1,1,3.09,0v7.92a4.35,4.35,0,0,0,8.7,0V191a1.55,1.55,0,0,1,3.09,0Z"/><path class="cls-1" d="M417.32,196.9v7.92a1.55,1.55,0,0,1-3.09,0V196.9a4.35,4.35,0,0,0-8.7,0v7.91a1.55,1.55,0,1,1-3.09,0V191a1.56,1.56,0,0,1,1.55-1.55,1.54,1.54,0,0,1,1.53,1.43,7.42,7.42,0,0,1,11.8,6Z"/><path class="cls-1" d="M429.17,205a4.53,4.53,0,0,1-7.72-3.2v-9.39a1.55,1.55,0,0,1-1-1.44,1.53,1.53,0,0,1,1-1.44v-4.34a1.55,1.55,0,1,1,3.09,0v4.23h1a1.55,1.55,0,0,1,0,3.09h-1v9.29a1.44,1.44,0,0,0,1.44,1.43,1.42,1.42,0,0,0,1-.42,1.55,1.55,0,1,1,2.18,2.19Z"/><path class="cls-1" d="M447.63,197.91h0v6.89a1.54,1.54,0,1,1-3.08,0v-.37a8.46,8.46,0,1,1,0-13.05V191a1.54,1.54,0,1,1,3.08,0v6.89Zm-3.08,0a5.36,5.36,0,1,0-5.36,5.37,5.37,5.37,0,0,0,5.36-5.37Z"/><path class="cls-1" d="M455.07,186.57h0a1.55,1.55,0,1,1-1.55-1.54A1.54,1.54,0,0,1,455.07,186.57Zm0,4.44v13.8a1.55,1.55,0,1,1-3.09,0V191a1.55,1.55,0,1,1,3.09,0Z"/><path class="cls-1" d="M474.3,196.9v7.92a1.55,1.55,0,0,1-3.09,0V196.9a4.35,4.35,0,1,0-8.69,0v7.91a1.55,1.55,0,1,1-3.09,0V191a1.54,1.54,0,0,1,3.08-.12,7.41,7.41,0,0,1,11.79,6Z"/><path class="cls-1" d="M521.44,191a1.54,1.54,0,0,1-1.54,1.54,4.35,4.35,0,0,0-4.35,4.35v7.91a1.55,1.55,0,1,1-3.09,0V191a1.54,1.54,0,0,1,3.08-.12,7.41,7.41,0,0,1,4.36-1.43A1.55,1.55,0,0,1,521.44,191Z"/><path class="cls-1" d="M539.26,197.91h0v6.89a1.55,1.55,0,1,1-3.09,0v-.37a8.46,8.46,0,1,1,0-13.05V191a1.55,1.55,0,1,1,3.09,0v6.89Zm-3.09,0a5.36,5.36,0,1,0-5.36,5.37,5.36,5.36,0,0,0,5.36-5.37Z"/><path class="cls-1" d="M558.47,196.9v7.92a1.55,1.55,0,0,1-3.09,0V196.9a4.35,4.35,0,1,0-8.69,0v7.91a1.55,1.55,0,1,1-3.09,0V191a1.54,1.54,0,0,1,3.08-.12,7.41,7.41,0,0,1,11.79,6Z"/><path class="cls-1" d="M578.5,191V206.3a8.45,8.45,0,0,1-14.42,6,1.54,1.54,0,0,1,2.18-2.18,5.36,5.36,0,0,0,9.15-3.79v-1.86a8.46,8.46,0,1,1,0-13.05V191a1.55,1.55,0,1,1,3.09,0Zm-3.09,6.9a5.36,5.36,0,1,0-5.36,5.36A5.37,5.37,0,0,0,575.41,197.91Z"/><path class="cls-1" d="M599.38,197.91a1.54,1.54,0,0,1-1.55,1.55h-12a5.25,5.25,0,0,0,1.34,2.24,5.37,5.37,0,0,0,7.58,0,1.55,1.55,0,0,1,2.18,2.19A8.44,8.44,0,0,1,582.49,198a.72.72,0,0,1,0-.24,8.45,8.45,0,0,1,16.89.12Zm-3.31-1.54a5.43,5.43,0,0,0-1.35-2.25,5.37,5.37,0,0,0-7.58,0,5.29,5.29,0,0,0-1.34,2.25Z"/><path class="cls-1" d="M610.84,201.4a2,2,0,0,0-1.38-1.36l-3.6-1.36a5,5,0,0,1-3.35-3.78,4.4,4.4,0,0,1,1.78-4.16h0a6.57,6.57,0,0,1,7.82,0h0a4.52,4.52,0,0,1,1.82,3.53,1.55,1.55,0,1,1-3.09,0,1.44,1.44,0,0,0-.63-1.1h0a3.52,3.52,0,0,0-4,0h0a1.39,1.39,0,0,0-.63,1.26,1.94,1.94,0,0,0,1.38,1.35l3.6,1.37a4.94,4.94,0,0,1,3.35,3.77,4.42,4.42,0,0,1-1.77,4.16h0a6.64,6.64,0,0,1-7.84,0,4.56,4.56,0,0,1-1.82-3.54,1.55,1.55,0,0,1,3.09,0,1.45,1.45,0,0,0,.64,1.1,3.52,3.52,0,0,0,4,0h0A1.35,1.35,0,0,0,610.84,201.4Z"/><path class="cls-1" d="M668.93,197.91a8.44,8.44,0,0,1-13.8,6.53v8.73a1.55,1.55,0,0,1-3.09,0V197.92h0V191a1.55,1.55,0,0,1,3.09,0v.38a8.43,8.43,0,0,1,13.8,6.52Zm-3.09,0a5.36,5.36,0,1,0-10.71,0v0a5.36,5.36,0,0,0,10.71,0Z"/><path class="cls-1" d="M676.37,182.66v22.15a1.55,1.55,0,1,1-3.09,0V182.66a1.55,1.55,0,1,1,3.09,0Z"/><path class="cls-1" d="M695.6,191v13.81a1.54,1.54,0,0,1-3.08.12,7.42,7.42,0,0,1-11.79-6V191a1.55,1.55,0,1,1,3.09,0v7.92a4.35,4.35,0,0,0,8.69,0V191a1.55,1.55,0,0,1,3.09,0Z"/><path class="cls-1" d="M714.86,196.9v7.92a1.55,1.55,0,0,1-3.09,0V196.9a4.35,4.35,0,1,0-8.69,0v7.91a1.55,1.55,0,1,1-3.09,0V191a1.54,1.54,0,0,1,3.08-.12,7.36,7.36,0,0,1,4.35-1.43A7.45,7.45,0,0,1,714.86,196.9Z"/><path class="cls-1" d="M734.88,191V206.3a8.45,8.45,0,0,1-14.42,6,1.55,1.55,0,0,1,2.19-2.18,5.36,5.36,0,0,0,9.15-3.79v-1.86a8.46,8.46,0,1,1,0-13.05V191a1.54,1.54,0,1,1,3.08,0Zm-3.08,6.9a5.36,5.36,0,1,0-5.36,5.36A5.37,5.37,0,0,0,731.8,197.91Z"/><path class="cls-1" d="M755.76,197.91a1.54,1.54,0,0,1-1.54,1.55h-12a5.25,5.25,0,0,0,1.34,2.24,5.37,5.37,0,0,0,7.58,0,1.55,1.55,0,1,1,2.18,2.19A8.45,8.45,0,0,1,738.87,198v-.24a8.45,8.45,0,0,1,14.42-5.85A8.36,8.36,0,0,1,755.76,197.91Zm-3.31-1.54a5.35,5.35,0,0,0-8.92-2.25,5.29,5.29,0,0,0-1.34,2.25Z"/><path class="cls-1" d="M810.78,197.91h0v6.89a1.55,1.55,0,1,1-3.09,0v-.37a8.46,8.46,0,1,1,0-13.05V191a1.55,1.55,0,1,1,3.09,0v6.89Zm-3.09,0a5.36,5.36,0,1,0-5.36,5.37,5.37,5.37,0,0,0,5.36-5.37Z"/><path class="cls-1" d="M832,197.91a8.45,8.45,0,0,1-13.81,6.53v.38a1.55,1.55,0,0,1-3.09,0v-6.9h0V182.63a1.55,1.55,0,1,1,3.09,0v8.76A8.44,8.44,0,0,1,832,197.91Zm-3.09,0a5.36,5.36,0,1,0-10.72,0h0a5.36,5.36,0,0,0,10.72,0Z"/><path class="cls-1" d="M844.44,191a1.54,1.54,0,0,1-1.54,1.54,4.35,4.35,0,0,0-4.35,4.35v7.91a1.55,1.55,0,1,1-3.09,0V191a1.54,1.54,0,0,1,3.08-.12,7.39,7.39,0,0,1,4.36-1.43A1.55,1.55,0,0,1,844.44,191Z"/><path class="cls-1" d="M863.65,191v13.81a1.54,1.54,0,0,1-3.07.12,7.43,7.43,0,0,1-11.8-6V191a1.55,1.55,0,1,1,3.09,0v7.92a4.35,4.35,0,0,0,8.69,0V191a1.55,1.55,0,0,1,3.09,0Z"/><path class="cls-1" d="M884.94,197.91a8.45,8.45,0,0,1-13.81,6.53v8.73a1.55,1.55,0,0,1-3.09,0V197.92h0V191a1.55,1.55,0,0,1,3.09,0v.38a8.44,8.44,0,0,1,13.81,6.52Zm-3.09,0a5.36,5.36,0,0,0-10.72,0v0a5.36,5.36,0,0,0,10.72,0Z"/><path class="cls-1" d="M896.75,205a4.53,4.53,0,0,1-7.72-3.2v-9.39a1.54,1.54,0,0,1-1-1.44,1.52,1.52,0,0,1,1-1.44v-4.34a1.55,1.55,0,1,1,3.09,0v4.23h1a1.55,1.55,0,1,1,0,3.09h-1v9.29a1.43,1.43,0,0,0,2.44,1,1.55,1.55,0,1,1,2.19,2.19Z"/><path class="cls-1" d="M904.1,182.66v22.15a1.54,1.54,0,1,1-3.08,0V182.66a1.54,1.54,0,1,1,3.08,0Z"/><path class="cls-1" d="M923.21,191.62l-2.44,5.72h0l-7,16.43a1.56,1.56,0,0,1-1.43.94,1.61,1.61,0,0,1-.6-.12,1.55,1.55,0,0,1-.82-2l3.28-7.73-5.64-13.22a1.55,1.55,0,0,1,2.84-1.22l4.47,10.48,2-4.7,0,0h0l2.44-5.74a1.55,1.55,0,0,1,2.84,1.22Z"/><path class="cls-1" d="M6.86,229.77h0a1.55,1.55,0,1,1-1.54-1.54A1.54,1.54,0,0,1,6.86,229.77Zm0,4.44V248a1.55,1.55,0,1,1-3.09,0v-13.8a1.55,1.55,0,1,1,3.09,0Z"/><path class="cls-1" d="M26.1,240.1V248A1.55,1.55,0,0,1,23,248V240.1a4.35,4.35,0,0,0-8.7,0V248a1.55,1.55,0,1,1-3.09,0v-13.8a1.56,1.56,0,0,1,1.55-1.55,1.54,1.54,0,0,1,1.53,1.43,7.42,7.42,0,0,1,11.8,6Z"/><path class="cls-1" d="M38,248.24a4.53,4.53,0,0,1-7.72-3.2v-9.39a1.55,1.55,0,0,1-1-1.44,1.53,1.53,0,0,1,1-1.44v-4.34a1.55,1.55,0,1,1,3.09,0v4.23h1a1.55,1.55,0,0,1,0,3.09h-1V245a1.44,1.44,0,0,0,1.44,1.43,1.42,1.42,0,0,0,1-.42A1.55,1.55,0,0,1,38,248.24Z"/><path class="cls-1" d="M56.42,241.11A8.45,8.45,0,1,1,48,232.66,8.46,8.46,0,0,1,56.42,241.11Zm-3.09,0A5.36,5.36,0,1,0,48,246.47,5.37,5.37,0,0,0,53.33,241.11Z"/><path class="cls-1" d="M86.23,248.24a4.52,4.52,0,0,1-7.71-3.2v-9.39a1.54,1.54,0,0,1-1-1.44,1.52,1.52,0,0,1,1-1.44v-4.34a1.54,1.54,0,1,1,3.08,0v4.23h1a1.55,1.55,0,0,1,0,3.09h-1V245A1.44,1.44,0,0,0,83,246.47a1.42,1.42,0,0,0,1-.42,1.55,1.55,0,0,1,2.18,2.19Z"/><path class="cls-1" d="M105.37,240.1V248a1.55,1.55,0,0,1-3.09,0V240.1a4.35,4.35,0,1,0-8.69,0V248a1.55,1.55,0,1,1-3.09,0V225.86a1.55,1.55,0,1,1,3.09,0v8.22a7.35,7.35,0,0,1,4.35-1.42A7.44,7.44,0,0,1,105.37,240.1Z"/><path class="cls-1" d="M125.4,241.11a1.54,1.54,0,0,1-1.55,1.55h-12a5.25,5.25,0,0,0,1.34,2.24,5.37,5.37,0,0,0,7.58,0,1.55,1.55,0,0,1,2.18,2.19,8.44,8.44,0,0,1-14.41-5.86.72.72,0,0,1,0-.24,8.45,8.45,0,0,1,16.89.12Zm-3.32-1.54a5.31,5.31,0,0,0-1.34-2.25,5.37,5.37,0,0,0-7.58,0,5.29,5.29,0,0,0-1.34,2.25Z"/><path class="cls-1" d="M149.57,229.77h0a1.54,1.54,0,1,1-1.54-1.54A1.54,1.54,0,0,1,149.57,229.77Zm0,4.44V248a1.54,1.54,0,1,1-3.08,0v-13.8a1.54,1.54,0,1,1,3.08,0Z"/><path class="cls-1" d="M168.81,240.1V248a1.55,1.55,0,0,1-3.09,0V240.1a4.35,4.35,0,1,0-8.69,0V248a1.55,1.55,0,1,1-3.09,0v-13.8a1.54,1.54,0,0,1,3.07-.12,7.42,7.42,0,0,1,11.8,6Z"/><path class="cls-1" d="M176.29,225.86V248a1.55,1.55,0,1,1-3.09,0V225.86a1.55,1.55,0,1,1,3.09,0Z"/><path class="cls-1" d="M197.18,241.11a1.54,1.54,0,0,1-1.54,1.55h-12A5.25,5.25,0,0,0,185,244.9a5.37,5.37,0,0,0,7.58,0,1.55,1.55,0,0,1,2.18,2.19,8.45,8.45,0,0,1-14.42-5.86V241a8.45,8.45,0,0,1,14.42-5.85A8.36,8.36,0,0,1,197.18,241.11Zm-3.31-1.54a5.35,5.35,0,0,0-8.92-2.25,5.29,5.29,0,0,0-1.34,2.25Z"/><path class="cls-1" d="M209,248.24a4.53,4.53,0,0,1-7.72-3.2v-9.39a1.54,1.54,0,0,1-1-1.44,1.52,1.52,0,0,1,1-1.44v-4.34a1.55,1.55,0,1,1,3.09,0v4.23h1a1.55,1.55,0,1,1,0,3.09h-1V245a1.43,1.43,0,0,0,2.44,1,1.55,1.55,0,0,1,2.19,2.19Z"/><path class="cls-1" d="M247.45,241.11a8.45,8.45,0,1,1-8.45-8.45A8.46,8.46,0,0,1,247.45,241.11Zm-3.09,0a5.36,5.36,0,1,0-5.36,5.36A5.37,5.37,0,0,0,244.36,241.11Z"/><path class="cls-1" d="M261.84,228.2a1.53,1.53,0,0,1-2.18,0,2.85,2.85,0,0,0-4.86,2v2.44h2.55a1.55,1.55,0,1,1,0,3.09H254.8V248a1.55,1.55,0,1,1-3.09,0v-12.3a1.54,1.54,0,0,1,0-3v-2.49a5.93,5.93,0,0,1,10.13-4.2A1.53,1.53,0,0,1,261.84,228.2Z"/><path class="cls-1" d="M285.18,248.24a4.52,4.52,0,0,1-7.71-3.2v-9.39a1.54,1.54,0,0,1-1-1.44,1.52,1.52,0,0,1,1-1.44v-4.34a1.54,1.54,0,1,1,3.08,0v4.23h1a1.55,1.55,0,0,1,0,3.09h-1V245a1.44,1.44,0,0,0,1.44,1.43,1.42,1.42,0,0,0,1-.42,1.55,1.55,0,1,1,2.18,2.19Z"/><path class="cls-1" d="M304.32,240.1V248a1.55,1.55,0,0,1-3.09,0V240.1a4.35,4.35,0,1,0-8.69,0V248a1.55,1.55,0,1,1-3.09,0V225.86a1.55,1.55,0,1,1,3.09,0v8.22a7.35,7.35,0,0,1,4.35-1.42A7.44,7.44,0,0,1,304.32,240.1Z"/><path class="cls-1" d="M324.35,241.11a1.54,1.54,0,0,1-1.55,1.55h-12a5.25,5.25,0,0,0,1.34,2.24,5.37,5.37,0,0,0,7.58,0,1.55,1.55,0,0,1,2.18,2.19,8.44,8.44,0,0,1-14.41-5.86.73.73,0,0,1,0-.24,8.45,8.45,0,0,1,16.89.12ZM321,239.57a5.31,5.31,0,0,0-1.34-2.25,5.37,5.37,0,0,0-7.58,0,5.29,5.29,0,0,0-1.34,2.25Z"/><path class="cls-1" d="M367,228a1.54,1.54,0,0,1-2.18,2.18,9.53,9.53,0,1,0-.46,13.89v-7.15a1.55,1.55,0,0,1,3.09,0V248a1.55,1.55,0,1,1-3.09,0v-.13A12.61,12.61,0,1,1,367,228Z"/><path class="cls-1" d="M386.66,234.21V248a1.54,1.54,0,0,1-3.08.12,7.42,7.42,0,0,1-11.79-6v-7.92a1.55,1.55,0,1,1,3.09,0v7.92a4.35,4.35,0,0,0,8.69,0v-7.92a1.55,1.55,0,0,1,3.09,0Z"/><path class="cls-1" d="M394.14,225.86V248a1.55,1.55,0,1,1-3.09,0V225.86a1.55,1.55,0,1,1,3.09,0Z"/><path class="cls-1" d="M409.81,228.2a1.53,1.53,0,0,1-2.18,0,2.85,2.85,0,0,0-4.86,2v2.44h2.55a1.55,1.55,0,1,1,0,3.09h-2.55V248a1.55,1.55,0,1,1-3.09,0v-12.3a1.54,1.54,0,0,1,0-3v-2.49a5.93,5.93,0,0,1,10.13-4.2A1.55,1.55,0,0,1,409.81,228.2Z"/><path class="cls-1" d="M441.32,241.11a8.45,8.45,0,1,1-8.45-8.45A8.46,8.46,0,0,1,441.32,241.11Zm-3.09,0a5.36,5.36,0,1,0-5.36,5.36A5.37,5.37,0,0,0,438.23,241.11Z"/><path class="cls-1" d="M455.72,228.2a1.54,1.54,0,0,1-2.19,0,2.85,2.85,0,0,0-4.86,2v2.44h2.56a1.55,1.55,0,0,1,0,3.09h-2.56V248a1.54,1.54,0,1,1-3.08,0v-12.3a1.54,1.54,0,0,1,0-3v-2.49a5.93,5.93,0,0,1,10.13-4.2A1.55,1.55,0,0,1,455.72,228.2Z"/><path class="cls-1" d="M470.33,248V225.83a1.55,1.55,0,0,1,3.09,0V237l16.42-12.39a1.55,1.55,0,0,1,1.86,2.47l-10.19,7.69L492,247a1.55,1.55,0,0,1-2.35,2L479,236.62l-5.62,4.24V248a1.55,1.55,0,1,1-3.09,0Z"/><path class="cls-1" d="M510.34,241.11a8.45,8.45,0,1,1-8.45-8.45A8.46,8.46,0,0,1,510.34,241.11Zm-3.09,0a5.36,5.36,0,1,0-5.36,5.36A5.37,5.37,0,0,0,507.25,241.11Z"/><path class="cls-1" d="M522.15,248.24a4.53,4.53,0,0,1-7.72-3.2v-9.39a1.54,1.54,0,0,1-1-1.44,1.52,1.52,0,0,1,1-1.44v-4.34a1.55,1.55,0,1,1,3.09,0v4.23h1a1.55,1.55,0,1,1,0,3.09h-1V245a1.43,1.43,0,0,0,2.44,1,1.55,1.55,0,1,1,2.19,2.19Z"/><path class="cls-1" d="M540.61,241.11a8.45,8.45,0,1,1-8.45-8.45A8.46,8.46,0,0,1,540.61,241.11Zm-3.09,0a5.36,5.36,0,1,0-5.36,5.36A5.37,5.37,0,0,0,537.52,241.11Z"/><path class="cls-1" d="M553,234.21a1.54,1.54,0,0,1-1.55,1.54,4.35,4.35,0,0,0-4.34,4.35V248a1.55,1.55,0,1,1-3.09,0v-13.8a1.54,1.54,0,0,1,3.07-.12,7.41,7.41,0,0,1,4.36-1.43A1.55,1.55,0,0,1,553,234.21Z"/><path class="cls-1" d="M554.71,247.83a1.67,1.67,0,1,1,1.67,1.67A1.67,1.67,0,0,1,554.71,247.83Z"/><path class="cls-1" d="M587.5,224.29h9.43a1.55,1.55,0,1,1,0,3.09H589V248a1.55,1.55,0,1,1-3.09,0v-20.6H578a1.55,1.55,0,0,1,0-3.09h9.46Z"/><path class="cls-1" d="M617.72,240.1V248a1.55,1.55,0,0,1-3.09,0V240.1a4.35,4.35,0,1,0-8.69,0V248a1.55,1.55,0,1,1-3.09,0V225.86a1.55,1.55,0,1,1,3.09,0v8.22a7.35,7.35,0,0,1,4.35-1.42A7.45,7.45,0,0,1,617.72,240.1Z"/><path class="cls-1" d="M637.75,241.11a1.55,1.55,0,0,1-1.55,1.55h-12a5.25,5.25,0,0,0,1.34,2.24,5.37,5.37,0,0,0,7.58,0,1.55,1.55,0,1,1,2.18,2.19,8.45,8.45,0,0,1-14.42-5.86V241a8.45,8.45,0,0,1,16.9.12Zm-3.32-1.54a5.35,5.35,0,0,0-8.92-2.25,5.29,5.29,0,0,0-1.34,2.25Z"/><path class="cls-1" d="M673.25,247.09a8.45,8.45,0,1,1-6-14.43,8.36,8.36,0,0,1,6,2.48,1.56,1.56,0,0,1,0,2.19,1.54,1.54,0,0,1-2.18,0,5.36,5.36,0,1,0,0,7.58,1.55,1.55,0,1,1,2.18,2.19Z"/><path class="cls-1" d="M693.69,241.11a8.45,8.45,0,1,1-8.44-8.45A8.46,8.46,0,0,1,693.69,241.11Zm-3.08,0a5.36,5.36,0,1,0-5.36,5.36A5.37,5.37,0,0,0,690.61,241.11Z"/><path class="cls-1" d="M713.67,241.11h0V248a1.55,1.55,0,1,1-3.09,0v-.37a8.37,8.37,0,0,1-5.35,1.92,8.45,8.45,0,1,1,5.36-15v-.38a1.54,1.54,0,1,1,3.08,0v6.89Zm-3.08,0a5.36,5.36,0,1,0-5.36,5.37,5.37,5.37,0,0,0,5.36-5.37Z"/><path class="cls-1" d="M726.39,244.6a1.92,1.92,0,0,0-1.38-1.36l-3.59-1.36a5,5,0,0,1-3.35-3.78,4.42,4.42,0,0,1,1.77-4.16h0a6.59,6.59,0,0,1,7.83,0h0a4.5,4.5,0,0,1,1.83,3.53,1.55,1.55,0,1,1-3.09,0,1.45,1.45,0,0,0-.64-1.1h0a3.54,3.54,0,0,0-4,0h0a1.36,1.36,0,0,0-.62,1.26A1.93,1.93,0,0,0,722.5,239l3.6,1.37a5,5,0,0,1,3.35,3.77,4.42,4.42,0,0,1-1.77,4.16h0a6.63,6.63,0,0,1-7.83,0,4.53,4.53,0,0,1-1.82-3.54,1.55,1.55,0,0,1,3.09,0,1.44,1.44,0,0,0,.63,1.1,3.54,3.54,0,0,0,4,0h0A1.35,1.35,0,0,0,726.39,244.6Z"/><path class="cls-1" d="M742.55,248.24a4.53,4.53,0,0,1-7.72-3.2v-9.39a1.53,1.53,0,0,1,0-2.88v-4.34a1.55,1.55,0,1,1,3.09,0v4.23h1a1.55,1.55,0,0,1,0,3.09h-1V245a1.44,1.44,0,0,0,2.45,1,1.55,1.55,0,1,1,2.18,2.19Z"/><path class="cls-1" d="M761,241.11h0V248a1.55,1.55,0,1,1-3.09,0v-.37a8.37,8.37,0,0,1-5.35,1.92,8.45,8.45,0,1,1,5.36-15v-.38a1.54,1.54,0,1,1,3.08,0v6.89Zm-3.08,0a5.36,5.36,0,1,0-5.36,5.37,5.37,5.37,0,0,0,5.36-5.37Z"/><path class="cls-1" d="M768.45,225.86V248a1.55,1.55,0,1,1-3.09,0V225.86a1.55,1.55,0,1,1,3.09,0Z"/><path class="cls-1" d="M798.54,234.21a1.55,1.55,0,0,1-1.55,1.54,4.35,4.35,0,0,0-4.35,4.35V248a1.54,1.54,0,1,1-3.08,0v-13.8a1.54,1.54,0,0,1,3.07-.12,7.41,7.41,0,0,1,4.36-1.43A1.56,1.56,0,0,1,798.54,234.21Z"/><path class="cls-1" d="M816.35,241.11a1.54,1.54,0,0,1-1.54,1.55h-12a5.46,5.46,0,0,0,1.34,2.24,5.37,5.37,0,0,0,7.58,0,1.55,1.55,0,1,1,2.19,2.19,8.45,8.45,0,0,1-14.42-5.86V241a8.45,8.45,0,0,1,16.89.12ZM813,239.57a5.37,5.37,0,0,0-8.93-2.25,5.49,5.49,0,0,0-1.34,2.25Z"/><path class="cls-1" d="M836.33,234.21V249.5a8.45,8.45,0,0,1-14.42,6,1.55,1.55,0,0,1,0-2.18,1.53,1.53,0,0,1,2.18,0,5.37,5.37,0,0,0,7.58,0,5.31,5.31,0,0,0,1.57-3.79v-1.86a8.46,8.46,0,1,1,0-13v-.38a1.55,1.55,0,1,1,3.09,0Zm-3.09,6.9a5.36,5.36,0,1,0-5.36,5.36A5.37,5.37,0,0,0,833.24,241.11Z"/><path class="cls-1" d="M843.76,229.77h0a1.54,1.54,0,1,1-1.54-1.54A1.54,1.54,0,0,1,843.76,229.77Zm0,4.44V248a1.54,1.54,0,1,1-3.08,0v-13.8a1.54,1.54,0,1,1,3.08,0Z"/><path class="cls-1" d="M865,241.11a8.45,8.45,0,1,1-8.44-8.45A8.46,8.46,0,0,1,865,241.11Zm-3.09,0a5.36,5.36,0,1,0-5.35,5.36A5.36,5.36,0,0,0,861.93,241.11Z"/><path class="cls-1" d="M883.34,240.1V248a1.55,1.55,0,0,1-3.09,0V240.1a4.35,4.35,0,1,0-8.69,0V248a1.55,1.55,0,1,1-3.09,0v-13.8a1.54,1.54,0,0,1,3.07-.12,7.42,7.42,0,0,1,11.8,6Z"/><path class="cls-1" d="M907.56,229.77h0a1.55,1.55,0,1,1-1.54-1.54A1.54,1.54,0,0,1,907.56,229.77Zm0,4.44V248a1.55,1.55,0,1,1-3.09,0v-13.8a1.55,1.55,0,1,1,3.09,0Z"/><path class="cls-1" d="M920.3,244.6a2,2,0,0,0-1.38-1.36l-3.6-1.36A5,5,0,0,1,912,238.1a4.4,4.4,0,0,1,1.78-4.16h0a6.59,6.59,0,0,1,7.83,0h0a4.49,4.49,0,0,1,1.82,3.53,1.55,1.55,0,1,1-3.09,0,1.44,1.44,0,0,0-.63-1.1h0a3.54,3.54,0,0,0-4,0h0a1.39,1.39,0,0,0-.63,1.26A1.94,1.94,0,0,0,916.4,239l3.6,1.37a4.94,4.94,0,0,1,3.35,3.77,4.42,4.42,0,0,1-1.77,4.16h0a6.63,6.63,0,0,1-7.83,0,4.54,4.54,0,0,1-1.83-3.54,1.55,1.55,0,0,1,3.09,0,1.45,1.45,0,0,0,.64,1.1,3.54,3.54,0,0,0,4,0h0A1.35,1.35,0,0,0,920.3,244.6Z"/><path class="cls-1" d="M18.64,283.3v7.92a1.54,1.54,0,0,1-3.08,0V283.3a4.35,4.35,0,1,0-8.7,0v7.91a1.55,1.55,0,1,1-3.09,0v-13.8a1.54,1.54,0,0,1,3.08-.12,7.41,7.41,0,0,1,11.79,6Z"/><path class="cls-1" d="M38.67,284.31a8.45,8.45,0,1,1-8.45-8.45A8.46,8.46,0,0,1,38.67,284.31Zm-3.09,0a5.36,5.36,0,1,0-5.36,5.36A5.37,5.37,0,0,0,35.58,284.31Z"/><path class="cls-1" d="M50.48,291.44a4.53,4.53,0,0,1-7.72-3.2v-9.39a1.53,1.53,0,0,1,0-2.88v-4.34a1.55,1.55,0,1,1,3.09,0v4.23h1a1.55,1.55,0,0,1,0,3.09h-1v9.29a1.44,1.44,0,0,0,1.44,1.43,1.42,1.42,0,0,0,1-.42,1.55,1.55,0,0,1,2.18,2.19Z"/><path class="cls-1" d="M69,284.31a1.55,1.55,0,0,1-1.55,1.55h-12a5.25,5.25,0,0,0,1.34,2.24,5.37,5.37,0,0,0,7.58,0,1.55,1.55,0,0,1,2.18,2.19,8.45,8.45,0,0,1-14.42-5.86v-.24a8.45,8.45,0,0,1,16.9.12Zm-3.32-1.54a5.35,5.35,0,0,0-8.92-2.25,5.29,5.29,0,0,0-1.34,2.25Z"/><path class="cls-1" d="M88.93,284.31h0v6.89a1.54,1.54,0,1,1-3.08,0v-.37a8.46,8.46,0,1,1,0-13v-8.73a1.54,1.54,0,1,1,3.08,0V284.3Zm-3.09,0a5.36,5.36,0,1,0-5.36,5.37,5.37,5.37,0,0,0,5.36-5.37Z"/><path class="cls-1" d="M117.11,271.4a1.53,1.53,0,0,1-2.18,0,2.88,2.88,0,0,0-2-.83,2.85,2.85,0,0,0-2.84,2.85v2.44h2.55a1.55,1.55,0,1,1,0,3.09h-2.55v12.26a1.55,1.55,0,1,1-3.09,0v-12.3a1.54,1.54,0,0,1,0-3v-2.49a5.93,5.93,0,0,1,10.13-4.2A1.55,1.55,0,0,1,117.11,271.4Z"/><path class="cls-1" d="M129.5,284.31a8.45,8.45,0,1,1-8.45-8.45A8.46,8.46,0,0,1,129.5,284.31Zm-3.09,0a5.36,5.36,0,1,0-5.36,5.36A5.37,5.37,0,0,0,126.41,284.31Z"/><path class="cls-1" d="M141.92,277.41a1.54,1.54,0,0,1-1.54,1.54A4.35,4.35,0,0,0,136,283.3v7.91a1.55,1.55,0,1,1-3.09,0v-13.8a1.54,1.54,0,0,1,3.08-.12,7.39,7.39,0,0,1,4.36-1.43A1.55,1.55,0,0,1,141.92,277.41Z"/><path class="cls-1" d="M175.68,284.31h0v6.89a1.54,1.54,0,1,1-3.08,0v-.37a8.46,8.46,0,1,1,0-13v-.38a1.54,1.54,0,1,1,3.08,0v6.89Zm-3.08,0a5.36,5.36,0,1,0-5.36,5.37,5.37,5.37,0,0,0,5.36-5.37Z"/><path class="cls-1" d="M194.08,290.29a8.45,8.45,0,1,1,0-12,1.55,1.55,0,1,1-2.19,2.18,5.36,5.36,0,1,0,0,7.58,1.55,1.55,0,1,1,2.18,2.19Z"/><path class="cls-1" d="M206.36,291.44a4.53,4.53,0,0,1-7.72-3.2v-9.39a1.54,1.54,0,0,1-1-1.44,1.52,1.52,0,0,1,1-1.44v-4.34a1.55,1.55,0,1,1,3.09,0v4.23h1a1.55,1.55,0,0,1,0,3.09h-1v9.29a1.44,1.44,0,0,0,2.45,1,1.55,1.55,0,0,1,2.18,2.19Z"/><path class="cls-1" d="M214.26,273h0a1.55,1.55,0,1,1-1.55-1.54A1.54,1.54,0,0,1,214.26,273Zm0,4.44v13.8a1.55,1.55,0,1,1-3.09,0v-13.8a1.55,1.55,0,1,1,3.09,0Z"/><path class="cls-1" d="M233.37,278l-5.89,13.8a1.56,1.56,0,0,1-1.42.94,1.54,1.54,0,0,1-1.42-.94l-5.9-13.8a1.55,1.55,0,0,1,2.85-1.22l4.47,10.48,4.47-10.48a1.55,1.55,0,0,1,2.84,1.22Z"/><path class="cls-1" d="M252.26,284.31a1.55,1.55,0,0,1-1.55,1.55h-12A5.25,5.25,0,0,0,240,288.1a5.37,5.37,0,0,0,7.58,0,1.55,1.55,0,0,1,2.18,2.19,8.45,8.45,0,0,1-14.42-5.86v-.24a8.45,8.45,0,0,1,14.42-5.85A8.39,8.39,0,0,1,252.26,284.31Zm-3.32-1.54a5.35,5.35,0,0,0-8.92-2.25,5.29,5.29,0,0,0-1.34,2.25Z"/><path class="cls-1" d="M277.5,287.8a1.94,1.94,0,0,0-1.38-1.36l-3.59-1.36a5,5,0,0,1-3.35-3.78,4.42,4.42,0,0,1,1.77-4.16h0a6.59,6.59,0,0,1,7.83,0h0a4.49,4.49,0,0,1,1.82,3.53,1.55,1.55,0,1,1-3.09,0,1.44,1.44,0,0,0-.63-1.1h0a3.54,3.54,0,0,0-4,0h0a1.36,1.36,0,0,0-.62,1.26,1.93,1.93,0,0,0,1.38,1.35l3.6,1.37a4.94,4.94,0,0,1,3.34,3.77,4.39,4.39,0,0,1-1.77,4.16h0a6.63,6.63,0,0,1-7.83,0h0a4.53,4.53,0,0,1-1.82-3.54,1.55,1.55,0,0,1,3.09,0,1.44,1.44,0,0,0,.63,1.1,3.54,3.54,0,0,0,4,0h0A1.35,1.35,0,0,0,277.5,287.8Z"/><path class="cls-1" d="M300.57,284.31a1.54,1.54,0,0,1-1.55,1.55H287a5.25,5.25,0,0,0,1.34,2.24,5.37,5.37,0,0,0,7.58,0,1.55,1.55,0,0,1,2.18,2.19,8.44,8.44,0,0,1-14.41-5.86.72.72,0,0,1,0-.24,8.45,8.45,0,0,1,16.89.12Zm-3.32-1.54a5.31,5.31,0,0,0-1.34-2.25,5.37,5.37,0,0,0-7.58,0,5.29,5.29,0,0,0-1.34,2.25Z"/><path class="cls-1" d="M308,273h0a1.55,1.55,0,1,1-1.54-1.54A1.54,1.54,0,0,1,308,273Zm0,4.44v13.8a1.55,1.55,0,1,1-3.09,0v-13.8a1.55,1.55,0,1,1,3.09,0Z"/><path class="cls-1" d="M320.74,287.8a2,2,0,0,0-1.38-1.36l-3.6-1.36a5,5,0,0,1-3.35-3.78,4.4,4.4,0,0,1,1.78-4.16h0a6.57,6.57,0,0,1,7.82,0h0a4.49,4.49,0,0,1,1.82,3.53,1.55,1.55,0,1,1-3.09,0,1.44,1.44,0,0,0-.63-1.1h0a3.54,3.54,0,0,0-4,0h0a1.39,1.39,0,0,0-.63,1.26,1.94,1.94,0,0,0,1.38,1.35l3.6,1.37a4.94,4.94,0,0,1,3.35,3.77,4.42,4.42,0,0,1-1.77,4.16h0a6.63,6.63,0,0,1-7.83,0h0a4.56,4.56,0,0,1-1.82-3.54,1.55,1.55,0,0,1,3.09,0,1.45,1.45,0,0,0,.64,1.1,3.54,3.54,0,0,0,4,0h0A1.35,1.35,0,0,0,320.74,287.8Z"/><path class="cls-1" d="M354.46,283.3v7.92a1.55,1.55,0,0,1-3.09,0V283.3a4.35,4.35,0,1,0-8.69,0v7.92a1.55,1.55,0,0,1-3.09,0V283.3a4.35,4.35,0,1,0-8.69,0v7.91a1.55,1.55,0,1,1-3.09,0v-13.8a1.54,1.54,0,0,1,3.07-.12,7.39,7.39,0,0,1,10.25,1.49,7.43,7.43,0,0,1,13.33,4.52Z"/><path class="cls-1" d="M361.93,273h0a1.55,1.55,0,1,1-1.55-1.54A1.54,1.54,0,0,1,361.93,273Zm0,4.44v13.8a1.55,1.55,0,1,1-3.09,0v-13.8a1.55,1.55,0,1,1,3.09,0Z"/><path class="cls-1" d="M380.71,290.29a8.46,8.46,0,1,1,0-12,1.55,1.55,0,1,1-2.19,2.18,5.35,5.35,0,0,0-7.57,0,5.36,5.36,0,1,0,7.57,7.58,1.55,1.55,0,0,1,2.19,2.19Z"/><path class="cls-1" d="M388.6,273h0a1.55,1.55,0,1,1-1.54-1.54A1.54,1.54,0,0,1,388.6,273Zm0,4.44v13.8a1.55,1.55,0,1,1-3.09,0v-13.8a1.55,1.55,0,1,1,3.09,0Z"/><path class="cls-1" d="M401.69,291.44a4.52,4.52,0,0,1-7.71-3.2v-9.39a1.54,1.54,0,0,1-1-1.44,1.52,1.52,0,0,1,1-1.44v-4.34a1.54,1.54,0,1,1,3.08,0v4.23h1a1.55,1.55,0,0,1,0,3.09h-1v9.29a1.44,1.44,0,0,0,1.44,1.43,1.42,1.42,0,0,0,1-.42,1.55,1.55,0,0,1,2.18,2.19Z"/><path class="cls-1" d="M408.12,275.34l3.82,10.29c.39,1.15.82,2.52,1.11,3.57h.07c.33-1.05.69-2.38,1.12-3.64l3.46-10.22H421l-4.75,12.42c-2.27,6-3.81,9-6,10.9a8.54,8.54,0,0,1-3.89,2l-.79-2.66a8.44,8.44,0,0,0,2.77-1.55,9.57,9.57,0,0,0,2.66-3.52,2.18,2.18,0,0,0,.25-.76,2.86,2.86,0,0,0-.21-.83l-6.44-16.05Z"/><path class="cls-1" d="M421.77,290.89a2.13,2.13,0,0,1,2.16-2.27,2.27,2.27,0,0,1,0,4.54A2.12,2.12,0,0,1,421.77,290.89Z"/></svg>