<svg id="Слой_1" data-name="Слой 1" xmlns="http://www.w3.org/2000/svg" viewBox="0 0 925 700"><defs><style>.cls-1{fill:#fff;}</style></defs><title>Монтажная область 1</title><path class="cls-1" d="M134.75,8.29h9.44a1.55,1.55,0,0,1,0,3.09h-7.9V32a1.55,1.55,0,1,1-3.09,0V11.38h-7.9a1.55,1.55,0,1,1,0-3.09h9.45Z"/><path class="cls-1" d="M165,24.1V32a1.54,1.54,0,1,1-3.08,0V24.1a4.35,4.35,0,1,0-8.7,0V32a1.55,1.55,0,1,1-3.09,0V9.86a1.55,1.55,0,1,1,3.09,0v8.22a7.42,7.42,0,0,1,11.78,6Z"/><path class="cls-1" d="M185,25.11a1.54,1.54,0,0,1-1.55,1.55h-12a5.36,5.36,0,0,0,8.92,2.24,1.55,1.55,0,1,1,2.18,2.19,8.44,8.44,0,0,1-14.41-5.86.73.73,0,0,1,0-.24,8.45,8.45,0,0,1,16.89.12Zm-3.31-1.54a5.37,5.37,0,0,0-8.93-2.25,5.39,5.39,0,0,0-1.34,2.25Z"/><path class="cls-1" d="M215.91,31.09A8.45,8.45,0,0,1,204,19.14a8.43,8.43,0,0,1,11.94,0,1.54,1.54,0,1,1-2.18,2.18,5.36,5.36,0,1,0,0,7.58,1.55,1.55,0,1,1,2.18,2.19Z"/><path class="cls-1" d="M223.81,13.77h0a1.55,1.55,0,1,1-1.55-1.54A1.54,1.54,0,0,1,223.81,13.77Zm0,4.44V32a1.55,1.55,0,1,1-3.09,0V18.21a1.55,1.55,0,1,1,3.09,0Z"/><path class="cls-1" d="M236.9,32.24a4.53,4.53,0,0,1-7.72-3.2V19.65a1.54,1.54,0,0,1-1-1.44,1.52,1.52,0,0,1,1-1.44V12.43a1.55,1.55,0,1,1,3.09,0v4.23h1a1.55,1.55,0,1,1,0,3.09h-1V29a1.43,1.43,0,0,0,2.44,1,1.55,1.55,0,0,1,2.19,2.19Z"/><path class="cls-1" d="M252.49,18.81l-2.44,5.73h0l-7,16.43a1.54,1.54,0,0,1-1.42.94,1.61,1.61,0,0,1-.6-.12,1.54,1.54,0,0,1-.82-2L243.51,32l-5.64-13.23a1.54,1.54,0,0,1,2.84-1.21l4.47,10.48,2-4.7,0,0h0l2.44-5.73a1.54,1.54,0,0,1,2.84,1.21Z"/><path class="cls-1" d="M295.69,18.82l-5.89,13.8a1.56,1.56,0,0,1-1.42.94,1.54,1.54,0,0,1-1.42-.94l-4.48-10.47L278,32.62a1.54,1.54,0,0,1-2.84,0l-5.89-13.8a1.55,1.55,0,0,1,2.84-1.22l4.47,10.48,4.47-10.48.06-.09a1.19,1.19,0,0,1,.08-.16l.09-.11.1-.12.12-.1.12-.09a.83.83,0,0,1,.16-.09l.09-.05h0l.19-.05.11,0h.41a.55.55,0,0,1,.18,0l.1,0,.2.07h0l.09.05a1.29,1.29,0,0,1,.16.09l.11.08.13.11.09.12a.52.52,0,0,1,.1.11,1.19,1.19,0,0,1,.08.16l.06.09,4.47,10.48,4.47-10.48a1.55,1.55,0,0,1,2.84,1.22Z"/><path class="cls-1" d="M314.56,25.11h0V32a1.54,1.54,0,1,1-3.08,0v-.37a8.46,8.46,0,1,1,0-13v-.38a1.54,1.54,0,1,1,3.08,0V25.1Zm-3.08,0a5.36,5.36,0,1,0-5.36,5.37,5.37,5.37,0,0,0,5.36-5.37Z"/><path class="cls-1" d="M327.28,28.6a1.92,1.92,0,0,0-1.38-1.36l-3.59-1.36A5,5,0,0,1,319,22.1a4.42,4.42,0,0,1,1.77-4.16h0a6.57,6.57,0,0,1,7.82,0h0a4.5,4.5,0,0,1,1.83,3.53,1.55,1.55,0,1,1-3.09,0,1.45,1.45,0,0,0-.64-1.1h0a3.54,3.54,0,0,0-4,0h0a1.36,1.36,0,0,0-.62,1.26A1.93,1.93,0,0,0,323.39,23l3.6,1.37a5,5,0,0,1,3.35,3.77,4.42,4.42,0,0,1-1.77,4.16h0a6.63,6.63,0,0,1-7.83,0h0a4.53,4.53,0,0,1-1.82-3.54,1.55,1.55,0,0,1,3.09,0,1.44,1.44,0,0,0,.63,1.1,3.54,3.54,0,0,0,4,0h0A1.35,1.35,0,0,0,327.28,28.6Z"/><path class="cls-1" d="M358.18,12.2a1.54,1.54,0,0,1-2.19,0,2.84,2.84,0,0,0-4.85,2v2.44h2.55a1.55,1.55,0,0,1,0,3.09h-2.55V32a1.55,1.55,0,1,1-3.09,0V19.71a1.54,1.54,0,0,1,0-3V14.22A5.93,5.93,0,0,1,358.18,10,1.55,1.55,0,0,1,358.18,12.2Z"/><path class="cls-1" d="M370.56,25.11a8.45,8.45,0,1,1-8.44-8.45A8.46,8.46,0,0,1,370.56,25.11Zm-3.08,0a5.36,5.36,0,1,0-5.36,5.36A5.37,5.37,0,0,0,367.48,25.11Z"/><path class="cls-1" d="M389.42,18.21V32a1.54,1.54,0,0,1-3.08.12,7.42,7.42,0,0,1-11.79-6V18.21a1.55,1.55,0,1,1,3.09,0v7.92a4.35,4.35,0,0,0,8.69,0V18.21a1.55,1.55,0,0,1,3.09,0Z"/><path class="cls-1" d="M408.68,24.1V32a1.55,1.55,0,0,1-3.09,0V24.1a4.35,4.35,0,1,0-8.69,0V32a1.55,1.55,0,1,1-3.09,0V18.21a1.54,1.54,0,0,1,3.08-.12,7.41,7.41,0,0,1,11.79,6Z"/><path class="cls-1" d="M428.7,25.11h0V32a1.54,1.54,0,1,1-3.08,0v-.37a8.46,8.46,0,1,1,0-13V9.86a1.54,1.54,0,1,1,3.08,0V25.1Zm-3.08,0a5.36,5.36,0,1,0-5.36,5.37,5.37,5.37,0,0,0,5.36-5.37Z"/><path class="cls-1" d="M449.58,25.11A1.54,1.54,0,0,1,448,26.66H436a5.25,5.25,0,0,0,1.34,2.24,5.37,5.37,0,0,0,7.58,0,1.55,1.55,0,0,1,2.18,2.19,8.45,8.45,0,0,1-14.42-5.86V25a8.45,8.45,0,0,1,14.42-5.85A8.36,8.36,0,0,1,449.58,25.11Zm-3.31-1.54a5.35,5.35,0,0,0-8.92-2.25A5.29,5.29,0,0,0,436,23.57Z"/><path class="cls-1" d="M469.56,25.11h0V32a1.54,1.54,0,1,1-3.08,0v-.37a8.46,8.46,0,1,1,0-13V9.86a1.54,1.54,0,1,1,3.08,0V25.1Zm-3.08,0a5.36,5.36,0,1,0-5.36,5.37,5.37,5.37,0,0,0,5.36-5.37Z"/><path class="cls-1" d="M512.74,25.11h0V32a1.55,1.55,0,1,1-3.09,0v-.37a8.37,8.37,0,0,1-5.35,1.92,8.45,8.45,0,1,1,5.36-15v-.38a1.54,1.54,0,1,1,3.08,0V25.1Zm-3.08,0a5.36,5.36,0,1,0-5.36,5.37,5.37,5.37,0,0,0,5.36-5.37Z"/><path class="cls-1" d="M525.46,28.6a1.92,1.92,0,0,0-1.38-1.36l-3.59-1.36a5,5,0,0,1-3.35-3.78,4.42,4.42,0,0,1,1.77-4.16h0a6.59,6.59,0,0,1,7.83,0h0a4.49,4.49,0,0,1,1.82,3.53,1.54,1.54,0,1,1-3.08,0,1.45,1.45,0,0,0-.64-1.1h0a3.54,3.54,0,0,0-4,0h0a1.36,1.36,0,0,0-.62,1.26A1.93,1.93,0,0,0,521.57,23l3.6,1.37a4.92,4.92,0,0,1,3.34,3.77,4.39,4.39,0,0,1-1.76,4.16h0a6.63,6.63,0,0,1-7.83,0,4.53,4.53,0,0,1-1.82-3.54,1.55,1.55,0,0,1,3.09,0,1.44,1.44,0,0,0,.63,1.1,3.54,3.54,0,0,0,4,0h0A1.35,1.35,0,0,0,525.46,28.6Z"/><path class="cls-1" d="M565.49,8.29h9.44a1.55,1.55,0,1,1,0,3.09H567V32a1.55,1.55,0,1,1-3.09,0V11.38H556a1.55,1.55,0,0,1,0-3.09h9.45Z"/><path class="cls-1" d="M595.72,24.1V32a1.55,1.55,0,0,1-3.09,0V24.1a4.35,4.35,0,1,0-8.7,0V32a1.54,1.54,0,1,1-3.08,0V9.86a1.54,1.54,0,1,1,3.08,0v8.22a7.42,7.42,0,0,1,11.79,6Z"/><path class="cls-1" d="M615.74,25.11a1.54,1.54,0,0,1-1.54,1.55h-12a5.46,5.46,0,0,0,1.34,2.24,5.37,5.37,0,0,0,7.58,0,1.55,1.55,0,0,1,2.19,2.19,8.45,8.45,0,0,1-14.42-5.86V25a8.45,8.45,0,0,1,16.89.12Zm-3.31-1.54a5.37,5.37,0,0,0-8.93-2.25,5.49,5.49,0,0,0-1.34,2.25Z"/><path class="cls-1" d="M635.72,25.11a8.45,8.45,0,1,1-8.45-8.45A8.46,8.46,0,0,1,635.72,25.11Zm-3.09,0a5.36,5.36,0,1,0-5.36,5.36A5.37,5.37,0,0,0,632.63,25.11Z"/><path class="cls-1" d="M655.7,25.11h0V32a1.55,1.55,0,1,1-3.09,0v-.37a8.46,8.46,0,1,1,0-13V9.86a1.55,1.55,0,1,1,3.09,0V25.1Zm-3.09,0a5.36,5.36,0,1,0-5.36,5.37,5.36,5.36,0,0,0,5.36-5.37Z"/><path class="cls-1" d="M676.58,25.11a8.45,8.45,0,1,1-8.45-8.45A8.46,8.46,0,0,1,676.58,25.11Zm-3.09,0a5.36,5.36,0,1,0-5.36,5.36A5.37,5.37,0,0,0,673.49,25.11Z"/><path class="cls-1" d="M688,28.6a1.92,1.92,0,0,0-1.38-1.36l-3.59-1.36a5,5,0,0,1-3.35-3.78,4.39,4.39,0,0,1,1.77-4.16h0a6.59,6.59,0,0,1,7.83,0h0a4.49,4.49,0,0,1,1.82,3.53,1.55,1.55,0,1,1-3.09,0,1.44,1.44,0,0,0-.63-1.1h0a3.54,3.54,0,0,0-4,0h0a1.36,1.36,0,0,0-.62,1.26A1.93,1.93,0,0,0,684.15,23l3.6,1.37a4.94,4.94,0,0,1,3.34,3.77,4.39,4.39,0,0,1-1.77,4.16h0a6.63,6.63,0,0,1-7.83,0,4.53,4.53,0,0,1-1.82-3.54,1.55,1.55,0,0,1,3.09,0,1.44,1.44,0,0,0,.63,1.1,3.54,3.54,0,0,0,4,0h0A1.35,1.35,0,0,0,688,28.6Z"/><path class="cls-1" d="M698.56,13.77h0A1.55,1.55,0,1,1,697,12.23,1.54,1.54,0,0,1,698.56,13.77Zm0,4.44V32a1.55,1.55,0,1,1-3.09,0V18.21a1.55,1.55,0,1,1,3.09,0Z"/><path class="cls-1" d="M719.82,25.11h0V32a1.55,1.55,0,1,1-3.09,0v-.37a8.46,8.46,0,1,1,0-13v-.38a1.55,1.55,0,1,1,3.09,0V25.1Zm-3.09,0a5.36,5.36,0,1,0-5.36,5.37,5.37,5.37,0,0,0,5.36-5.37Z"/><path class="cls-1" d="M768.64,34.17a1.54,1.54,0,0,1-1.09,2.63,1.55,1.55,0,0,1-1.09-.45,21.85,21.85,0,0,1,0-30.87,1.55,1.55,0,0,1,2.18,2.19A18.77,18.77,0,0,0,768.64,34.17Z"/><path class="cls-1" d="M769.22,21.64c0-7.7,4.79-12.74,11.27-12.74S791.43,14,791.43,21.18c0,8.35-5.08,12.78-11.23,12.78C773.72,34,769.22,29,769.22,21.64Zm18.9-.32c0-4.82-2.52-9.86-7.74-9.86s-7.85,4.86-7.85,10.11,2.81,9.83,7.78,9.83S788.12,26.83,788.12,21.32Zm-2.92-1.55v2.59h-9.75V19.77Z"/><path class="cls-1" d="M807.85,32.37A12.71,12.71,0,0,1,801.48,34c-3.5,0-7.35-1.37-7.35-5.3,0-2.16,1.77-4,4.32-4.35v-.18c-2.3-.51-3.45-1.95-3.45-3.67,0-2.31,2.3-4.72,6.94-4.72a9.28,9.28,0,0,1,5.29,1.33l-.68,2.09a9.4,9.4,0,0,0-4.35-1.08c-2.42,0-4,1-4,2.59s2.13,2.49,4.86,2.49h2.09v2.26h-2.19c-3.14,0-5.48.87-5.48,3s2.16,3.16,4.72,3.16a11.53,11.53,0,0,0,5.11-1.33Z"/><path class="cls-1" d="M826.85,24.7c0,6.45-4.46,9.26-8.67,9.26-4.72,0-8.35-3.46-8.35-9,0-5.83,3.81-9.25,8.64-9.25C823.47,15.74,826.85,19.38,826.85,24.7ZM813,24.88c0,3.82,2.2,6.7,5.29,6.7s5.29-2.84,5.29-6.77c0-2.95-1.47-6.69-5.22-6.69S813,21.57,813,24.88Z"/><path class="cls-1" d="M844.06,11.42A9.35,9.35,0,0,0,839.31,10c-2,0-2.95.76-2.95,1.62s1,1.62,2.59,2.92l2.95,2.37c2.88,2.2,4.61,4.72,4.61,8.17,0,5.4-3.78,8.9-8.46,8.9-4.5,0-8.46-3.17-8.46-8.75,0-4.47,3.06-7.42,6.63-9.11v-.18l-.83-.65c-.83-.68-2.2-1.94-2.2-3.6,0-1.94,2-4.06,6-4.06A10,10,0,0,1,845,9.33Zm-6,6.16c-2.73,1.44-5.25,3.78-5.25,7.59,0,4.07,2.7,6.41,5.43,6.41s5.11-2.34,5.11-6.3A7.62,7.62,0,0,0,840,19.09Z"/><path class="cls-1" d="M866.27,24.7c0,6.45-4.46,9.26-8.67,9.26-4.72,0-8.35-3.46-8.35-9,0-5.83,3.81-9.25,8.64-9.25C862.89,15.74,866.27,19.38,866.27,24.7Zm-13.82.18c0,3.82,2.2,6.7,5.29,6.7S863,28.74,863,24.81c0-2.95-1.47-6.69-5.22-6.69S852.45,21.57,852.45,24.88Z"/><path class="cls-1" d="M887,18.15c-.86,0-2,0-4.57-.14v.14a8,8,0,0,1,3.24,6.59c0,6.41-4.39,9.22-8.35,9.22C872.65,34,869,30.54,869,25c0-5.83,3.71-9.25,9-9.29h9.18Zm-4.46,6.59c0-2.95-1.51-6.62-5.11-6.62s-5.26,3.45-5.26,6.76c0,3.82,2.2,6.7,5.22,6.7S882.58,28.7,882.58,24.74Z"/><path class="cls-1" d="M893.56,29.35c0,1.55.33,2.19,1.69,2.12l-.18,2.3a5.29,5.29,0,0,1-1.44.19c-1.83,0-3.24-.83-3.24-4.29V16.14h3.17Zm2.2-20.52-3,5.15h-2.12l1.9-5.15Z"/><path class="cls-1" d="M913.86,16.14c-.18,1.83-.46,7.81-.46,12.45,0,2.05.5,2.92,1.72,2.95l-.25,2.27a3.06,3.06,0,0,1-1.08.15c-1.54,0-2.81-1-3-3.68h-.1A6.69,6.69,0,0,1,904.76,34c-4.14,0-7.13-3.46-7.13-8.75,0-5.69,3.74-9.47,7.78-9.47a5.57,5.57,0,0,1,5.36,3.49h.14a24,24,0,0,1,.33-3.09Zm-8.31,15.3c2.2,0,4.1-2.13,4.64-4.43a10.33,10.33,0,0,0,.22-2.45,7.59,7.59,0,0,0-.15-1.87c-.43-2.34-2.15-4.46-4.46-4.46-2.95,0-5,2.91-5,6.87C900.83,28.41,902.53,31.44,905.55,31.44Z"/><path class="cls-1" d="M917.51,36.35a1.55,1.55,0,0,1-1.09.45,1.54,1.54,0,0,1-1.09-2.63,18.77,18.77,0,0,0,0-26.5,1.55,1.55,0,0,1,2.18-2.19A21.85,21.85,0,0,1,917.51,36.35Z"/><path class="cls-1" d="M20.67,68.31A8.45,8.45,0,0,1,6.86,74.84v.38a1.55,1.55,0,0,1-3.09,0v-6.9h0V53a1.55,1.55,0,1,1,3.09,0v8.76a8.44,8.44,0,0,1,13.81,6.52Zm-3.09,0a5.36,5.36,0,1,0-10.72,0h0a5.36,5.36,0,0,0,10.72,0Z"/><path class="cls-1" d="M37.24,62,34.8,67.74h0l-7,16.43a1.54,1.54,0,0,1-1.42.94,1.57,1.57,0,0,1-.6-.12A1.54,1.54,0,0,1,25,83l3.28-7.73L22.62,62a1.55,1.55,0,0,1,2.84-1.22l4.47,10.48,2-4.7,0,0h0L34.4,60.8A1.55,1.55,0,1,1,37.24,62Z"/><path class="cls-1" d="M81.7,55.19a1.53,1.53,0,0,1,0,2.18,1.55,1.55,0,0,1-2.18,0,9.53,9.53,0,1,0-.45,13.89V64.11a1.54,1.54,0,0,1,3.08,0V75.18a1.54,1.54,0,1,1-3.08,0v-.13A12.62,12.62,0,1,1,81.7,55.19Z"/><path class="cls-1" d="M95.5,61.41A1.54,1.54,0,0,1,94,63a4.35,4.35,0,0,0-4.34,4.35v7.91a1.55,1.55,0,1,1-3.09,0V61.41a1.54,1.54,0,0,1,3.08-.12A7.38,7.38,0,0,1,94,59.86,1.55,1.55,0,0,1,95.5,61.41Z"/><path class="cls-1" d="M113.31,68.31a1.54,1.54,0,0,1-1.54,1.55h-12a5.25,5.25,0,0,0,1.34,2.24,5.37,5.37,0,0,0,7.58,0,1.55,1.55,0,1,1,2.18,2.19,8.45,8.45,0,0,1-14.42-5.86v-.24a8.45,8.45,0,0,1,16.89.12ZM110,66.77a5.35,5.35,0,0,0-8.92-2.25,5.29,5.29,0,0,0-1.34,2.25Z"/><path class="cls-1" d="M133.3,68.31a1.55,1.55,0,0,1-1.55,1.55h-12a5.25,5.25,0,0,0,1.34,2.24,5.37,5.37,0,0,0,7.58,0,1.55,1.55,0,1,1,2.18,2.19,8.45,8.45,0,0,1-14.42-5.86v-.24a8.45,8.45,0,0,1,16.9.12ZM130,66.77a5.35,5.35,0,0,0-8.92-2.25,5.29,5.29,0,0,0-1.34,2.25Z"/><path class="cls-1" d="M152.14,74.21a1.55,1.55,0,0,1-.17,2.18,1.55,1.55,0,0,1-2.18-.17l-6.22-7.29-2.84,2.14v4.15a1.55,1.55,0,0,1-3.09,0V53.06a1.55,1.55,0,1,1,3.09,0V67.2l9.31-7a1.55,1.55,0,0,1,1.86,2.47L146,67.06Z"/><path class="cls-1" d="M189.73,74.29a8.46,8.46,0,1,1,0-12,1.56,1.56,0,0,1,0,2.19,1.54,1.54,0,0,1-2.18,0,5.36,5.36,0,1,0,0,7.58,1.55,1.55,0,0,1,2.18,2.19Z"/><path class="cls-1" d="M210.17,68.31a8.45,8.45,0,1,1-8.44-8.45A8.46,8.46,0,0,1,210.17,68.31Zm-3.09,0a5.36,5.36,0,1,0-5.35,5.36A5.36,5.36,0,0,0,207.08,68.31Z"/><path class="cls-1" d="M217.61,53.06V75.21a1.55,1.55,0,1,1-3.09,0V53.06a1.55,1.55,0,1,1,3.09,0Z"/><path class="cls-1" d="M238.5,68.31a8.45,8.45,0,1,1-8.44-8.45A8.46,8.46,0,0,1,238.5,68.31Zm-3.08,0a5.36,5.36,0,1,0-5.36,5.36A5.37,5.37,0,0,0,235.42,68.31Z"/><path class="cls-1" d="M256.82,67.3v7.92a1.55,1.55,0,0,1-3.09,0V67.3a4.35,4.35,0,1,0-8.69,0v7.91a1.55,1.55,0,1,1-3.09,0V61.41a1.54,1.54,0,0,1,3.08-.12,7.41,7.41,0,0,1,11.79,6Z"/><path class="cls-1" d="M264.3,57h0a1.55,1.55,0,1,1-1.55-1.54A1.54,1.54,0,0,1,264.3,57Zm0,4.44v13.8a1.55,1.55,0,1,1-3.09,0V61.41a1.55,1.55,0,1,1,3.09,0Z"/><path class="cls-1" d="M277,71.8a2,2,0,0,0-1.39-1.36l-3.59-1.36a5,5,0,0,1-3.35-3.78,4.42,4.42,0,0,1,1.77-4.16h0a6.57,6.57,0,0,1,7.82,0h0a4.5,4.5,0,0,1,1.83,3.53,1.55,1.55,0,1,1-3.09,0,1.45,1.45,0,0,0-.64-1.1h0a3.52,3.52,0,0,0-4,0h0a1.36,1.36,0,0,0-.62,1.26,1.93,1.93,0,0,0,1.38,1.35l3.6,1.37a5,5,0,0,1,3.35,3.77,4.42,4.42,0,0,1-1.77,4.16h0a6.63,6.63,0,0,1-7.83,0h0A4.53,4.53,0,0,1,268.66,72a1.55,1.55,0,0,1,3.09,0,1.44,1.44,0,0,0,.63,1.1,3.54,3.54,0,0,0,4,0h0A1.38,1.38,0,0,0,277,71.8Z"/><path class="cls-1" d="M293.19,75.44a4.53,4.53,0,0,1-7.72-3.2V62.85a1.55,1.55,0,0,1-1-1.44,1.53,1.53,0,0,1,1-1.44V55.63a1.55,1.55,0,1,1,3.09,0v4.23h1a1.55,1.55,0,0,1,0,3.09h-1v9.29A1.44,1.44,0,0,0,290,73.67a1.42,1.42,0,0,0,1-.42,1.55,1.55,0,1,1,2.18,2.19Z"/><path class="cls-1" d="M304.21,71.8a1.92,1.92,0,0,0-1.38-1.36l-3.59-1.36a5,5,0,0,1-3.35-3.78,4.42,4.42,0,0,1,1.77-4.16h0a6.57,6.57,0,0,1,7.82,0h0a4.5,4.5,0,0,1,1.83,3.53,1.55,1.55,0,1,1-3.09,0,1.45,1.45,0,0,0-.64-1.1h0a3.54,3.54,0,0,0-4,0h0a1.36,1.36,0,0,0-.62,1.26,1.93,1.93,0,0,0,1.38,1.35l3.6,1.37a5,5,0,0,1,3.35,3.77,4.42,4.42,0,0,1-1.77,4.16h0a6.63,6.63,0,0,1-7.83,0h0A4.53,4.53,0,0,1,295.84,72a1.55,1.55,0,0,1,3.09,0,1.44,1.44,0,0,0,.63,1.1,3.54,3.54,0,0,0,4,0h0A1.35,1.35,0,0,0,304.21,71.8Z"/><path class="cls-1" d="M341.37,55.4a1.53,1.53,0,0,1-2.18,0,2.88,2.88,0,0,0-2-.83,2.85,2.85,0,0,0-2.84,2.85v2.44h2.55a1.55,1.55,0,1,1,0,3.09h-2.55V75.21a1.55,1.55,0,1,1-3.09,0V62.91a1.54,1.54,0,0,1,0-3V57.42a5.93,5.93,0,0,1,10.13-4.2A1.55,1.55,0,0,1,341.37,55.4Z"/><path class="cls-1" d="M348.22,61.41A1.54,1.54,0,0,1,346.67,63a4.35,4.35,0,0,0-4.34,4.35v7.91a1.55,1.55,0,1,1-3.09,0V61.41a1.54,1.54,0,0,1,3.07-.12,7.41,7.41,0,0,1,4.36-1.43A1.55,1.55,0,0,1,348.22,61.41Z"/><path class="cls-1" d="M366,68.31a8.45,8.45,0,1,1-8.44-8.45A8.46,8.46,0,0,1,366,68.31Zm-3.09,0a5.36,5.36,0,1,0-5.35,5.36A5.36,5.36,0,0,0,362.94,68.31Z"/><path class="cls-1" d="M396.13,67.3v7.92a1.55,1.55,0,0,1-3.09,0V67.3a4.35,4.35,0,1,0-8.69,0v7.92a1.55,1.55,0,0,1-3.09,0V67.3a4.35,4.35,0,1,0-8.69,0v7.91a1.55,1.55,0,1,1-3.09,0V61.41a1.54,1.54,0,0,1,3.07-.12,7.4,7.4,0,0,1,10.26,1.49,7.42,7.42,0,0,1,13.32,4.52Z"/><path class="cls-1" d="M421.64,52,432.27,64.5,442.9,52a1.54,1.54,0,0,1,2.72,1V75.18a1.55,1.55,0,1,1-3.09,0v-18l-9.08,10.65-.09.09-.08.09h0a.71.71,0,0,1-.14.1l-.12.07-.14.07-.14,0-.14,0-.15,0h-.29l-.15,0-.14,0-.14,0-.14-.06-.12-.08-.14-.09,0,0-.08-.1-.09-.08L422,57.22v18a1.55,1.55,0,1,1-3.09,0V53a1.54,1.54,0,0,1,2.72-1Z"/><path class="cls-1" d="M453,57h0a1.54,1.54,0,1,1-1.54-1.54A1.54,1.54,0,0,1,453,57Zm0,4.44v13.8a1.54,1.54,0,1,1-3.08,0V61.41a1.54,1.54,0,1,1,3.08,0Z"/><path class="cls-1" d="M460.5,53.06V75.21a1.55,1.55,0,1,1-3.09,0V53.06a1.55,1.55,0,1,1,3.09,0Z"/><path class="cls-1" d="M481.4,68.31a1.55,1.55,0,0,1-1.55,1.55h-12a5.25,5.25,0,0,0,1.34,2.24,5.37,5.37,0,0,0,7.58,0,1.55,1.55,0,1,1,2.18,2.19,8.45,8.45,0,0,1-14.42-5.86v-.24a8.45,8.45,0,0,1,14.42-5.85A8.39,8.39,0,0,1,481.4,68.31Zm-3.32-1.54a5.35,5.35,0,0,0-8.92-2.25,5.29,5.29,0,0,0-1.34,2.25Z"/><path class="cls-1" d="M493.21,75.44a4.53,4.53,0,0,1-7.72-3.2V62.85a1.54,1.54,0,0,1-1-1.44,1.52,1.52,0,0,1,1-1.44V55.63a1.55,1.55,0,1,1,3.09,0v4.23h1a1.55,1.55,0,1,1,0,3.09h-1v9.29a1.43,1.43,0,0,0,2.44,1,1.55,1.55,0,1,1,2.19,2.19Z"/><path class="cls-1" d="M511.67,68.31a8.45,8.45,0,1,1-8.45-8.45A8.46,8.46,0,0,1,511.67,68.31Zm-3.09,0a5.36,5.36,0,1,0-5.36,5.36A5.37,5.37,0,0,0,508.58,68.31Z"/><path class="cls-1" d="M523.13,71.8a1.94,1.94,0,0,0-1.38-1.36l-3.6-1.36a5,5,0,0,1-3.35-3.78,4.42,4.42,0,0,1,1.78-4.16h0a6.59,6.59,0,0,1,7.83,0h0a4.49,4.49,0,0,1,1.82,3.53,1.55,1.55,0,1,1-3.09,0,1.44,1.44,0,0,0-.63-1.1h0a3.54,3.54,0,0,0-4,0h0a1.36,1.36,0,0,0-.62,1.26,1.91,1.91,0,0,0,1.38,1.35l3.59,1.37a4.94,4.94,0,0,1,3.35,3.77,4.42,4.42,0,0,1-1.77,4.16h0a6.63,6.63,0,0,1-7.83,0A4.53,4.53,0,0,1,514.76,72a1.54,1.54,0,0,1,3.08,0,1.45,1.45,0,0,0,.64,1.1,3.54,3.54,0,0,0,4,0h0A1.35,1.35,0,0,0,523.13,71.8Z"/><path class="cls-1" d="M552.06,57h0a1.55,1.55,0,1,1-1.54-1.54A1.54,1.54,0,0,1,552.06,57Zm0,4.44v13.8a1.55,1.55,0,1,1-3.09,0V61.41a1.55,1.55,0,1,1,3.09,0Z"/><path class="cls-1" d="M571.3,67.3v7.92a1.55,1.55,0,0,1-3.09,0V67.3a4.35,4.35,0,0,0-8.7,0v7.91a1.54,1.54,0,1,1-3.08,0V61.41a1.54,1.54,0,0,1,3.07-.12,7.42,7.42,0,0,1,11.8,6Z"/><path class="cls-1" d="M602.83,75.44a4.53,4.53,0,0,1-7.72-3.2V62.85a1.54,1.54,0,0,1-1-1.44,1.52,1.52,0,0,1,1-1.44V55.63a1.55,1.55,0,1,1,3.09,0v4.23h1a1.55,1.55,0,1,1,0,3.09h-1v9.29a1.43,1.43,0,0,0,2.44,1,1.55,1.55,0,1,1,2.19,2.19Z"/><path class="cls-1" d="M622,67.3v7.92a1.55,1.55,0,0,1-3.09,0V67.3a4.35,4.35,0,1,0-8.7,0v7.91a1.55,1.55,0,1,1-3.09,0V53.06a1.55,1.55,0,1,1,3.09,0v8.22a7.42,7.42,0,0,1,11.79,6Z"/><path class="cls-1" d="M642,68.31a1.54,1.54,0,0,1-1.54,1.55h-12a5.36,5.36,0,0,0,8.92,2.24,1.55,1.55,0,0,1,2.19,2.19,8.45,8.45,0,0,1-14.42-5.86s0-.08,0-.12,0-.08,0-.12a8.45,8.45,0,0,1,16.89.12Zm-3.31-1.54a5.37,5.37,0,0,0-8.93-2.25,5.39,5.39,0,0,0-1.34,2.25Z"/><path class="cls-1" d="M679.44,74a9.18,9.18,0,0,1-13-13h0L675.54,52a1.55,1.55,0,0,1,2.18,2.19l-4.23,4.22a9.07,9.07,0,0,1,6,2.67A9.19,9.19,0,0,1,679.44,74Zm-2.18-10.8a6.09,6.09,0,1,0,0,8.61A6.05,6.05,0,0,0,677.26,63.22Z"/><path class="cls-1" d="M694.25,75.44a4.53,4.53,0,0,1-7.72-3.2V62.85a1.54,1.54,0,0,1-1-1.44,1.52,1.52,0,0,1,1-1.44V55.63a1.55,1.55,0,1,1,3.09,0v4.23h1a1.55,1.55,0,0,1,0,3.09h-1v9.29a1.43,1.43,0,0,0,1.43,1.43,1.46,1.46,0,0,0,1-.42,1.55,1.55,0,1,1,2.18,2.19Z"/><path class="cls-1" d="M713.39,67.3v7.92a1.55,1.55,0,0,1-3.09,0V67.3a4.35,4.35,0,1,0-8.7,0v7.91a1.54,1.54,0,1,1-3.08,0V53.06a1.54,1.54,0,1,1,3.08,0v8.22a7.42,7.42,0,0,1,11.79,6Z"/><path class="cls-1" d="M750.61,74.29a8.45,8.45,0,0,1-12-12,8.44,8.44,0,0,1,12,0,1.55,1.55,0,1,1-2.19,2.18,5.36,5.36,0,1,0,0,7.58,1.55,1.55,0,1,1,2.19,2.19Z"/><path class="cls-1" d="M771.05,68.31a1.54,1.54,0,0,1-1.54,1.55h-12a5.46,5.46,0,0,0,1.34,2.24,5.37,5.37,0,0,0,7.58,0,1.55,1.55,0,1,1,2.19,2.19,8.45,8.45,0,0,1-14.42-5.86v-.24a8.45,8.45,0,0,1,16.89.12Zm-3.31-1.54a5.37,5.37,0,0,0-8.93-2.25,5.49,5.49,0,0,0-1.34,2.25Z"/><path class="cls-1" d="M789.37,67.3v7.92a1.55,1.55,0,0,1-3.09,0V67.3a4.35,4.35,0,0,0-8.7,0v7.91a1.54,1.54,0,1,1-3.08,0V61.41a1.54,1.54,0,0,1,3.07-.12,7.42,7.42,0,0,1,11.8,6Z"/><path class="cls-1" d="M801.22,75.44a4.53,4.53,0,0,1-7.72-3.2V62.85a1.54,1.54,0,0,1-1-1.44,1.52,1.52,0,0,1,1-1.44V55.63a1.55,1.55,0,1,1,3.09,0v4.23h1a1.55,1.55,0,0,1,0,3.09h-1v9.29A1.44,1.44,0,0,0,798,73.67a1.42,1.42,0,0,0,1-.42,1.55,1.55,0,0,1,2.18,2.19Z"/><path class="cls-1" d="M818.38,61.41V75.22a1.54,1.54,0,0,1-3.08.12A7.35,7.35,0,0,1,811,76.76a7.44,7.44,0,0,1-7.44-7.43V61.41a1.55,1.55,0,1,1,3.09,0v7.92a4.35,4.35,0,0,0,8.69,0V61.41a1.55,1.55,0,0,1,3.09,0Z"/><path class="cls-1" d="M831.75,61.41A1.54,1.54,0,0,1,830.21,63a4.35,4.35,0,0,0-4.35,4.35v7.91a1.55,1.55,0,1,1-3.09,0V61.41a1.54,1.54,0,0,1,3.08-.12,7.39,7.39,0,0,1,4.36-1.43A1.55,1.55,0,0,1,831.75,61.41Z"/><path class="cls-1" d="M850.3,62l-2.45,5.72h0l-7,16.43a1.54,1.54,0,0,1-1.42.94,1.62,1.62,0,0,1-.61-.12,1.53,1.53,0,0,1-.81-2l3.28-7.73L835.67,62a1.55,1.55,0,0,1,2.85-1.22L843,71.28l2-4.7,0,0h0l2.45-5.74A1.55,1.55,0,0,1,850.3,62Z"/><path class="cls-1" d="M893.13,57.53a6.05,6.05,0,0,1-1.71,4.21,8.12,8.12,0,0,1-4.34,15H874.77a1.55,1.55,0,0,1-1.55-1.54V53a1.55,1.55,0,0,1,1.55-1.54h12.31A6,6,0,0,1,893.13,57.53Zm-16.82,2.95h10.77a3,3,0,1,0,0-5.9H876.31Zm10.77,3.09H876.31V73.65h10.77a5,5,0,1,0,0-10.07Z"/><path class="cls-1" d="M904.87,57.37a9.53,9.53,0,1,0,13.48,13.48A1.54,1.54,0,1,1,920.53,73a12.61,12.61,0,1,1,0-17.84,1.55,1.55,0,0,1-2.19,2.18A9.54,9.54,0,0,0,904.87,57.37Z"/><path class="cls-1" d="M922.69,75a1.67,1.67,0,1,1,1.67,1.68A1.67,1.67,0,0,1,922.69,75Z"/><path class="cls-1" d="M25.75,96.23V118.4a1.53,1.53,0,0,1-1,1.44,1.39,1.39,0,0,1-.53.1A1.53,1.53,0,0,1,23,119.4l-16.18-19v18a1.55,1.55,0,1,1-3.09,0V96.23a1.54,1.54,0,0,1,2.72-1l16.18,19v-18a1.54,1.54,0,0,1,3.08,0Z"/><path class="cls-1" d="M47,111.51a8.45,8.45,0,1,1-8.45-8.45A8.46,8.46,0,0,1,47,111.51Zm-3.09,0a5.36,5.36,0,1,0-5.36,5.36A5.37,5.37,0,0,0,43.93,111.51Z"/><path class="cls-1" d="M58.83,118.64a4.52,4.52,0,0,1-7.71-3.2v-9.39a1.55,1.55,0,0,1-1-1.44,1.53,1.53,0,0,1,1-1.44V98.83a1.54,1.54,0,1,1,3.08,0v4.23h1a1.55,1.55,0,0,1,0,3.09h-1v9.29a1.44,1.44,0,0,0,1.44,1.43,1.42,1.42,0,0,0,1-.42,1.55,1.55,0,0,1,2.18,2.19Z"/><path class="cls-1" d="M77.3,111.51a1.54,1.54,0,0,1-1.55,1.55h-12a5.25,5.25,0,0,0,1.34,2.24,5.37,5.37,0,0,0,7.58,0,1.55,1.55,0,0,1,2.18,2.19,8.44,8.44,0,0,1-14.41-5.86.72.72,0,0,1,0-.24,8.45,8.45,0,0,1,16.89.12ZM74,110a5.31,5.31,0,0,0-1.34-2.25,5.37,5.37,0,0,0-7.58,0A5.29,5.29,0,0,0,63.72,110Z"/><path class="cls-1" d="M97.28,111.51h0v6.89a1.55,1.55,0,1,1-3.09,0V118a8.46,8.46,0,1,1,0-13.05V96.26a1.55,1.55,0,1,1,3.09,0V111.5Zm-3.09,0a5.36,5.36,0,1,0-5.36,5.37,5.37,5.37,0,0,0,5.36-5.37Z"/><path class="cls-1" d="M131.9,98.6a1.54,1.54,0,0,1-2.19,0,2.85,2.85,0,0,0-4.86,2v2.44h2.56a1.55,1.55,0,0,1,0,3.09h-2.56v12.26a1.54,1.54,0,1,1-3.08,0v-12.3a1.54,1.54,0,0,1,0-3v-2.49a5.93,5.93,0,0,1,10.13-4.2A1.55,1.55,0,0,1,131.9,98.6Z"/><path class="cls-1" d="M144.28,111.51a8.45,8.45,0,1,1-8.45-8.45A8.46,8.46,0,0,1,144.28,111.51Zm-3.09,0a5.36,5.36,0,1,0-5.36,5.36A5.37,5.37,0,0,0,141.19,111.51Z"/><path class="cls-1" d="M156.71,104.61a1.54,1.54,0,0,1-1.55,1.54,4.35,4.35,0,0,0-4.34,4.35v7.91a1.55,1.55,0,1,1-3.09,0v-13.8a1.54,1.54,0,0,1,3.07-.12,7.41,7.41,0,0,1,4.36-1.43A1.55,1.55,0,0,1,156.71,104.61Z"/><path class="cls-1" d="M183.1,100.17h0a1.55,1.55,0,1,1-1.55-1.54A1.54,1.54,0,0,1,183.1,100.17Zm0,4.44v13.8a1.55,1.55,0,1,1-3.09,0v-13.8a1.55,1.55,0,1,1,3.09,0Z"/><path class="cls-1" d="M196.19,118.64a4.53,4.53,0,0,1-7.72-3.2v-9.39a1.54,1.54,0,0,1-1-1.44,1.52,1.52,0,0,1,1-1.44V98.83a1.55,1.55,0,1,1,3.09,0v4.23h1a1.55,1.55,0,0,1,0,3.09h-1v9.29a1.43,1.43,0,0,0,1.43,1.43,1.45,1.45,0,0,0,1-.42,1.55,1.55,0,0,1,2.18,2.19Z"/><path class="cls-1" d="M207.21,115a1.94,1.94,0,0,0-1.38-1.36l-3.59-1.36a5,5,0,0,1-3.35-3.78,4.39,4.39,0,0,1,1.77-4.16h0a6.59,6.59,0,0,1,7.83,0h0a4.49,4.49,0,0,1,1.82,3.53,1.55,1.55,0,1,1-3.09,0,1.44,1.44,0,0,0-.63-1.1h0a3.54,3.54,0,0,0-4,0h0a1.35,1.35,0,0,0-.62,1.26,1.93,1.93,0,0,0,1.38,1.35l3.59,1.37a4.94,4.94,0,0,1,3.35,3.77,4.39,4.39,0,0,1-1.77,4.16h0a6.63,6.63,0,0,1-7.83,0h0a4.53,4.53,0,0,1-1.82-3.54,1.55,1.55,0,0,1,3.09,0,1.44,1.44,0,0,0,.63,1.1,3.54,3.54,0,0,0,4,0h0A1.35,1.35,0,0,0,207.21,115Z"/><path class="cls-1" d="M242.58,104.61a1.54,1.54,0,0,1-1.54,1.54,4.35,4.35,0,0,0-4.35,4.35v7.91a1.55,1.55,0,1,1-3.09,0v-13.8a1.54,1.54,0,0,1,3.08-.12,7.41,7.41,0,0,1,4.36-1.43A1.55,1.55,0,0,1,242.58,104.61Z"/><path class="cls-1" d="M250,100.17h0a1.55,1.55,0,1,1-1.54-1.54A1.54,1.54,0,0,1,250,100.17Zm0,4.44v13.8a1.55,1.55,0,1,1-3.09,0v-13.8a1.55,1.55,0,1,1,3.09,0Z"/><path class="cls-1" d="M268.79,117.49a8.46,8.46,0,1,1,0-11.95,1.54,1.54,0,1,1-2.18,2.18,5.36,5.36,0,1,0,0,7.58,1.55,1.55,0,1,1,2.18,2.19Z"/><path class="cls-1" d="M288.47,110.5v7.92a1.55,1.55,0,0,1-3.09,0V110.5a4.35,4.35,0,1,0-8.69,0v7.91a1.55,1.55,0,1,1-3.09,0V96.26a1.55,1.55,0,1,1,3.09,0v8.22a7.34,7.34,0,0,1,4.34-1.42A7.45,7.45,0,0,1,288.47,110.5Z"/><path class="cls-1" d="M328.72,111.51h0v6.89a1.55,1.55,0,1,1-3.09,0V118a8.46,8.46,0,1,1,0-13.05v-.38a1.55,1.55,0,1,1,3.09,0v6.89Zm-3.09,0a5.36,5.36,0,1,0-5.36,5.37,5.37,5.37,0,0,0,5.36-5.37Z"/><path class="cls-1" d="M349.6,104.61V119.9a8.46,8.46,0,0,1-14.43,6,1.55,1.55,0,1,1,2.19-2.18,5.36,5.36,0,0,0,9.15-3.79V118a8.46,8.46,0,1,1,0-13.05v-.38a1.55,1.55,0,1,1,3.09,0Zm-3.09,6.9a5.36,5.36,0,1,0-5.36,5.36A5.37,5.37,0,0,0,346.51,111.51Z"/><path class="cls-1" d="M362.92,104.61a1.54,1.54,0,0,1-1.54,1.54A4.35,4.35,0,0,0,357,110.5v7.91a1.55,1.55,0,1,1-3.09,0v-13.8a1.54,1.54,0,0,1,3.08-.12,7.39,7.39,0,0,1,4.36-1.43A1.55,1.55,0,0,1,362.92,104.61Z"/><path class="cls-1" d="M370.35,100.17h0a1.55,1.55,0,1,1-1.54-1.54A1.54,1.54,0,0,1,370.35,100.17Zm0,4.44v13.8a1.55,1.55,0,1,1-3.09,0v-13.8a1.55,1.55,0,1,1,3.09,0Z"/><path class="cls-1" d="M389.13,117.49a8.46,8.46,0,1,1,0-11.95,1.55,1.55,0,1,1-2.19,2.18,5.35,5.35,0,0,0-7.57,0A5.36,5.36,0,1,0,387,115.3a1.55,1.55,0,0,1,2.18,2.19Z"/><path class="cls-1" d="M408.81,104.61v13.81a1.54,1.54,0,0,1-3.08.12,7.42,7.42,0,0,1-11.79-6v-7.92a1.54,1.54,0,1,1,3.08,0v7.92a4.35,4.35,0,0,0,8.7,0v-7.92a1.55,1.55,0,0,1,3.09,0Z"/><path class="cls-1" d="M416.28,96.26v22.15a1.54,1.54,0,1,1-3.08,0V96.26a1.54,1.54,0,1,1,3.08,0Z"/><path class="cls-1" d="M429.37,118.64a4.48,4.48,0,0,1-3.19,1.32,4.53,4.53,0,0,1-4.52-4.52v-9.39a1.54,1.54,0,0,1-1-1.44,1.52,1.52,0,0,1,1-1.44V98.83a1.55,1.55,0,1,1,3.09,0v4.23h1a1.55,1.55,0,1,1,0,3.09h-1v9.29a1.43,1.43,0,0,0,2.44,1,1.55,1.55,0,0,1,2.18,2.19Z"/><path class="cls-1" d="M446.54,104.61v13.81a1.54,1.54,0,0,1-3.08.12,7.43,7.43,0,0,1-11.8-6v-7.92a1.55,1.55,0,1,1,3.09,0v7.92a4.35,4.35,0,0,0,8.7,0v-7.92a1.55,1.55,0,0,1,3.09,0Z"/><path class="cls-1" d="M459.9,104.61a1.54,1.54,0,0,1-1.54,1.54A4.35,4.35,0,0,0,454,110.5v7.91a1.55,1.55,0,1,1-3.09,0v-13.8a1.54,1.54,0,0,1,3.08-.12,7.41,7.41,0,0,1,4.36-1.43A1.55,1.55,0,0,1,459.9,104.61Z"/><path class="cls-1" d="M477.72,111.51h0v6.89a1.55,1.55,0,1,1-3.09,0V118a8.46,8.46,0,1,1,0-13.05v-.38a1.55,1.55,0,1,1,3.09,0v6.89Zm-3.09,0a5.36,5.36,0,1,0-5.36,5.37,5.36,5.36,0,0,0,5.36-5.37Z"/><path class="cls-1" d="M485.15,96.26v22.15a1.55,1.55,0,1,1-3.09,0V96.26a1.55,1.55,0,1,1,3.09,0Z"/><path class="cls-1" d="M511.57,96.26v22.15a1.55,1.55,0,1,1-3.09,0V96.26a1.55,1.55,0,1,1,3.09,0Z"/><path class="cls-1" d="M532.46,111.51h0v6.89a1.54,1.54,0,1,1-3.08,0V118a8.46,8.46,0,1,1,0-13.05v-.38a1.54,1.54,0,1,1,3.08,0v6.89Zm-3.08,0a5.36,5.36,0,1,0-5.36,5.37,5.37,5.37,0,0,0,5.36-5.37Z"/><path class="cls-1" d="M551.68,110.5v7.92a1.55,1.55,0,0,1-3.09,0V110.5a4.35,4.35,0,1,0-8.69,0v7.91a1.55,1.55,0,1,1-3.09,0v-13.8a1.54,1.54,0,0,1,3.07-.12,7.42,7.42,0,0,1,11.8,6Z"/><path class="cls-1" d="M571.7,111.51h0v6.89a1.54,1.54,0,1,1-3.08,0V118a8.46,8.46,0,1,1,0-13.05V96.26a1.54,1.54,0,1,1,3.08,0V111.5Zm-3.08,0a5.36,5.36,0,1,0-5.36,5.37,5.37,5.37,0,0,0,5.36-5.37Z"/><path class="cls-1" d="M584.06,115a1.92,1.92,0,0,0-1.38-1.36l-3.59-1.36a5,5,0,0,1-3.35-3.78,4.42,4.42,0,0,1,1.77-4.16h0a6.59,6.59,0,0,1,7.83,0h0a4.49,4.49,0,0,1,1.82,3.53,1.54,1.54,0,1,1-3.08,0,1.45,1.45,0,0,0-.64-1.1h0a3.54,3.54,0,0,0-4,0h0a1.35,1.35,0,0,0-.62,1.26,1.93,1.93,0,0,0,1.38,1.35l3.6,1.37a4.94,4.94,0,0,1,3.34,3.77,4.37,4.37,0,0,1-1.77,4.16h0a6.63,6.63,0,0,1-7.83,0,4.53,4.53,0,0,1-1.82-3.54,1.55,1.55,0,0,1,3.09,0,1.44,1.44,0,0,0,.63,1.1,3.54,3.54,0,0,0,4,0h0A1.35,1.35,0,0,0,584.06,115Z"/><path class="cls-1" d="M593,119.15l-1.23,2.06a1.54,1.54,0,1,1-2.65-1.58l1.22-2.06a1.55,1.55,0,0,1,2.66,1.58Z"/><path class="cls-1" d="M630.84,111.51a8.45,8.45,0,1,1-8.45-8.45A8.46,8.46,0,0,1,630.84,111.51Zm-3.09,0a5.36,5.36,0,1,0-5.36,5.36A5.37,5.37,0,0,0,627.75,111.51Z"/><path class="cls-1" d="M649.16,110.5v7.92a1.55,1.55,0,0,1-3.09,0V110.5a4.35,4.35,0,1,0-8.69,0v7.91a1.55,1.55,0,1,1-3.09,0v-13.8a1.54,1.54,0,0,1,3.07-.12,7.42,7.42,0,0,1,11.8,6Z"/><path class="cls-1" d="M699,105.22,693.15,119a1.54,1.54,0,0,1-2.84,0l-4.47-10.48L681.36,119a1.54,1.54,0,0,1-1.42.94,1.56,1.56,0,0,1-1.42-.94l-5.89-13.8a1.55,1.55,0,0,1,2.84-1.22l4.47,10.48L684.42,104a.41.41,0,0,1,.05-.09s0-.11.08-.16l.09-.11.11-.12a.58.58,0,0,1,.12-.1l.11-.09a.83.83,0,0,1,.16-.09l.09,0h0l.2-.05.1,0H686a.62.62,0,0,1,.19,0l.09,0,.2.07h0l.09,0,.17.09.1.08.13.11.1.12.09.11.09.16a.41.41,0,0,0,0,.09l4.47,10.48L696.2,104a1.55,1.55,0,0,1,2.84,1.22Z"/><path class="cls-1" d="M718.41,110.5v7.92a1.55,1.55,0,0,1-3.09,0V110.5a4.35,4.35,0,1,0-8.69,0v7.91a1.55,1.55,0,1,1-3.09,0V96.26a1.55,1.55,0,1,1,3.09,0v8.22a7.35,7.35,0,0,1,4.35-1.42A7.44,7.44,0,0,1,718.41,110.5Z"/><path class="cls-1" d="M725.89,100.17h0a1.55,1.55,0,1,1-1.55-1.54A1.54,1.54,0,0,1,725.89,100.17Zm0,4.44v13.8a1.55,1.55,0,1,1-3.09,0v-13.8a1.55,1.55,0,1,1,3.09,0Z"/><path class="cls-1" d="M744.67,117.49a8.46,8.46,0,1,1,0-11.95,1.55,1.55,0,1,1-2.19,2.18,5.35,5.35,0,0,0-7.57,0,5.36,5.36,0,0,0,7.58,7.58,1.55,1.55,0,0,1,2.18,2.19Z"/><path class="cls-1" d="M764.35,110.5v7.92a1.55,1.55,0,0,1-3.09,0V110.5a4.35,4.35,0,0,0-8.7,0v7.91a1.54,1.54,0,1,1-3.08,0V96.26a1.54,1.54,0,1,1,3.08,0v8.22a7.42,7.42,0,0,1,11.79,6Z"/><path class="cls-1" d="M790.79,100.17h0a1.55,1.55,0,1,1-1.55-1.54A1.55,1.55,0,0,1,790.79,100.17Zm0,4.44v13.8a1.55,1.55,0,1,1-3.09,0v-13.8a1.55,1.55,0,1,1,3.09,0Z"/><path class="cls-1" d="M803.88,118.64a4.53,4.53,0,0,1-7.72-3.2v-9.39a1.54,1.54,0,0,1-1-1.44,1.52,1.52,0,0,1,1-1.44V98.83a1.55,1.55,0,1,1,3.09,0v4.23h1a1.55,1.55,0,1,1,0,3.09h-1v9.29a1.43,1.43,0,0,0,2.44,1,1.55,1.55,0,1,1,2.19,2.19Z"/><path class="cls-1" d="M814.9,115a1.94,1.94,0,0,0-1.38-1.36l-3.6-1.36a5,5,0,0,1-3.35-3.78,4.42,4.42,0,0,1,1.78-4.16h0a6.59,6.59,0,0,1,7.83,0h0a4.49,4.49,0,0,1,1.82,3.53,1.55,1.55,0,1,1-3.09,0,1.44,1.44,0,0,0-.63-1.1h0a3.54,3.54,0,0,0-4,0h0a1.35,1.35,0,0,0-.62,1.26,1.91,1.91,0,0,0,1.38,1.35l3.59,1.37a4.94,4.94,0,0,1,3.35,3.77,4.42,4.42,0,0,1-1.77,4.16h0a6.63,6.63,0,0,1-7.83,0,4.53,4.53,0,0,1-1.82-3.54,1.54,1.54,0,1,1,3.08,0,1.45,1.45,0,0,0,.64,1.1,3.54,3.54,0,0,0,4,0h0A1.35,1.35,0,0,0,814.9,115Z"/><path class="cls-1" d="M850,118.64a4.53,4.53,0,0,1-7.72-3.2v-9.39a1.54,1.54,0,0,1-1-1.44,1.52,1.52,0,0,1,1-1.44V98.83a1.55,1.55,0,1,1,3.09,0v4.23h1a1.55,1.55,0,0,1,0,3.09h-1v9.29a1.43,1.43,0,0,0,1.43,1.43,1.45,1.45,0,0,0,1-.42,1.55,1.55,0,1,1,2.18,2.19Z"/><path class="cls-1" d="M863.81,104.61a1.54,1.54,0,0,1-1.55,1.54,4.35,4.35,0,0,0-4.34,4.35v7.91a1.55,1.55,0,1,1-3.09,0v-13.8a1.54,1.54,0,0,1,3.07-.12,7.41,7.41,0,0,1,4.36-1.43A1.55,1.55,0,0,1,863.81,104.61Z"/><path class="cls-1" d="M881.62,111.51h0v6.89a1.55,1.55,0,1,1-3.09,0V118a8.46,8.46,0,1,1,0-13.05v-.38a1.55,1.55,0,1,1,3.09,0v6.89Zm-3.09,0a5.36,5.36,0,1,0-5.36,5.37,5.36,5.36,0,0,0,5.36-5.37Z"/><path class="cls-1" d="M902.5,111.51h0v6.89a1.55,1.55,0,1,1-3.09,0V118a8.46,8.46,0,1,1,0-13.05V96.26a1.55,1.55,0,1,1,3.09,0V111.5Zm-3.09,0a5.36,5.36,0,1,0-5.36,5.37,5.36,5.36,0,0,0,5.36-5.37Z"/><path class="cls-1" d="M923.38,111.51a1.54,1.54,0,0,1-1.54,1.55h-12a5.37,5.37,0,0,0,8.92,2.24,1.55,1.55,0,1,1,2.19,2.19,8.45,8.45,0,0,1-14.42-5.86v-.24a8.45,8.45,0,0,1,16.89.12ZM920.07,110a5.36,5.36,0,0,0-8.92-2.25A5.41,5.41,0,0,0,909.8,110Z"/><path class="cls-1" d="M20.67,154.71h0v6.89a1.55,1.55,0,1,1-3.09,0v-.37a8.46,8.46,0,1,1,0-13.05v-8.73a1.55,1.55,0,1,1,3.09,0V154.7Zm-3.09,0a5.36,5.36,0,1,0-5.36,5.37,5.36,5.36,0,0,0,5.36-5.37Z"/><path class="cls-1" d="M41.55,154.71A1.54,1.54,0,0,1,40,156.26H28a5.36,5.36,0,0,0,8.92,2.24,1.55,1.55,0,1,1,2.18,2.19,8.44,8.44,0,0,1-14.41-5.86.72.72,0,0,1,0-.24,8.45,8.45,0,0,1,16.89.12Zm-3.31-1.54a5.43,5.43,0,0,0-1.35-2.25A5.35,5.35,0,0,0,28,153.17Z"/><path class="cls-1" d="M61.89,154.71a8.45,8.45,0,0,1-13.81,6.53V170A1.55,1.55,0,0,1,45,170V154.72h0v-6.89a1.55,1.55,0,0,1,3.09,0v.38a8.44,8.44,0,0,1,13.81,6.52Zm-3.09,0a5.36,5.36,0,0,0-10.72,0v0a5.36,5.36,0,0,0,10.72,0Z"/><path class="cls-1" d="M81.87,154.71a1.54,1.54,0,0,1-1.55,1.55h-12a5.36,5.36,0,0,0,8.92,2.24,1.55,1.55,0,1,1,2.19,2.19A8.45,8.45,0,0,1,65,154.83a.49.49,0,0,1,0-.12s0-.08,0-.12a8.45,8.45,0,0,1,16.89.12Zm-3.31-1.54a5.37,5.37,0,0,0-8.93-2.25,5.39,5.39,0,0,0-1.34,2.25Z"/><path class="cls-1" d="M100.19,153.7v7.92a1.55,1.55,0,0,1-3.09,0V153.7a4.35,4.35,0,0,0-8.7,0v7.91a1.55,1.55,0,1,1-3.09,0v-13.8a1.54,1.54,0,0,1,3.08-.12,7.42,7.42,0,0,1,11.8,6Z"/><path class="cls-1" d="M120.21,154.71h0v6.89a1.55,1.55,0,1,1-3.09,0v-.37a8.46,8.46,0,1,1,0-13.05v-8.73a1.55,1.55,0,1,1,3.09,0V154.7Zm-3.09,0a5.36,5.36,0,1,0-5.36,5.37,5.36,5.36,0,0,0,5.36-5.37Z"/><path class="cls-1" d="M141.09,154.71a1.54,1.54,0,0,1-1.55,1.55h-12a5.36,5.36,0,0,0,8.92,2.24,1.55,1.55,0,0,1,2.19,2.19,8.45,8.45,0,0,1-14.42-5.86.49.49,0,0,1,0-.12s0-.08,0-.12a8.45,8.45,0,0,1,16.89.12Zm-3.31-1.54a5.37,5.37,0,0,0-8.93-2.25,5.39,5.39,0,0,0-1.34,2.25Z"/><path class="cls-1" d="M161.07,154.71h0v6.89a1.55,1.55,0,1,1-3.09,0v-.37a8.46,8.46,0,1,1,0-13.05v-8.73a1.55,1.55,0,1,1,3.09,0V154.7Zm-3.09,0a5.36,5.36,0,1,0-5.36,5.37A5.36,5.36,0,0,0,158,154.7Z"/><path class="cls-1" d="M166.92,162.35l-1.23,2.06a1.53,1.53,0,0,1-1.33.75,1.58,1.58,0,0,1-.78-.21,1.54,1.54,0,0,1-.54-2.12l1.23-2.06a1.54,1.54,0,1,1,2.65,1.58Z"/><path class="cls-1" d="M190.44,161.84a4.53,4.53,0,0,1-7.72-3.2v-9.39a1.54,1.54,0,0,1-1-1.44,1.52,1.52,0,0,1,1-1.44V142a1.55,1.55,0,1,1,3.09,0v4.23h1a1.55,1.55,0,0,1,0,3.09h-1v9.29a1.44,1.44,0,0,0,2.45,1,1.55,1.55,0,0,1,2.18,2.19Z"/><path class="cls-1" d="M209.58,153.7v7.92a1.55,1.55,0,0,1-3.09,0V153.7a4.35,4.35,0,1,0-8.69,0v7.91a1.55,1.55,0,1,1-3.09,0V139.46a1.55,1.55,0,1,1,3.09,0v8.22a7.34,7.34,0,0,1,4.34-1.42A7.45,7.45,0,0,1,209.58,153.7Z"/><path class="cls-1" d="M229.6,154.71a1.54,1.54,0,0,1-1.54,1.55H216A5.37,5.37,0,0,0,225,158.5a1.55,1.55,0,0,1,2.18,2.19,8.45,8.45,0,0,1-14.42-5.86v-.24a8.45,8.45,0,0,1,16.89.12Zm-3.31-1.54a5.36,5.36,0,0,0-10.27,0Z"/><path class="cls-1" d="M261.17,160.69a8.45,8.45,0,1,1-11.94-11.95,8.43,8.43,0,0,1,11.94,0,1.54,1.54,0,1,1-2.18,2.18,5.36,5.36,0,1,0,0,7.58,1.55,1.55,0,1,1,2.18,2.19Z"/><path class="cls-1" d="M269.07,143.37h0a1.55,1.55,0,1,1-1.55-1.54A1.54,1.54,0,0,1,269.07,143.37Zm0,4.44v13.8a1.55,1.55,0,1,1-3.09,0v-13.8a1.55,1.55,0,1,1,3.09,0Z"/><path class="cls-1" d="M282.16,161.84a4.53,4.53,0,0,1-7.72-3.2v-9.39a1.54,1.54,0,0,1-1-1.44,1.52,1.52,0,0,1,1-1.44V142a1.55,1.55,0,1,1,3.09,0v4.23h1a1.55,1.55,0,1,1,0,3.09h-1v9.29a1.43,1.43,0,0,0,2.44,1,1.55,1.55,0,1,1,2.19,2.19Z"/><path class="cls-1" d="M297.75,148.42l-2.44,5.72h0l-7,16.43a1.54,1.54,0,0,1-1.42.94,1.61,1.61,0,0,1-.6-.12,1.54,1.54,0,0,1-.82-2l3.28-7.73-5.64-13.22A1.55,1.55,0,1,1,286,147.2l4.47,10.48,2-4.7,0,0h0l2.44-5.74a1.55,1.55,0,1,1,2.84,1.22Z"/><path class="cls-1" d="M341.6,148.42l-5.89,13.8a1.54,1.54,0,0,1-2.84,0l-4.47-10.47-4.47,10.47a1.54,1.54,0,0,1-2.84,0l-5.89-13.8A1.55,1.55,0,1,1,318,147.2l4.47,10.48L327,147.2a.41.41,0,0,0,0-.09l.09-.16.09-.11.1-.12.12-.1.11-.09a1.29,1.29,0,0,1,.16-.09l.09-.05h0l.19,0,.1,0h.42a.55.55,0,0,1,.18,0l.09,0,.2.07h0l.08.05a.91.91,0,0,1,.17.09l.11.08.12.11.1.12.09.11a1.29,1.29,0,0,1,.09.16.41.41,0,0,1,.05.09l4.47,10.48,4.47-10.48a1.55,1.55,0,0,1,2.84,1.22Z"/><path class="cls-1" d="M360.48,154.71h0v6.89a1.55,1.55,0,1,1-3.09,0v-.37a8.46,8.46,0,1,1,0-13.05v-.38a1.55,1.55,0,1,1,3.09,0v6.89Zm-3.09,0a5.36,5.36,0,1,0-5.36,5.37,5.36,5.36,0,0,0,5.36-5.37Z"/><path class="cls-1" d="M373.2,158.2a1.94,1.94,0,0,0-1.38-1.36l-3.6-1.36a5,5,0,0,1-3.35-3.78,4.42,4.42,0,0,1,1.78-4.16h0a6.59,6.59,0,0,1,7.83,0h0a4.49,4.49,0,0,1,1.82,3.53,1.55,1.55,0,1,1-3.09,0,1.44,1.44,0,0,0-.63-1.1h0a3.54,3.54,0,0,0-4,0h0a1.36,1.36,0,0,0-.62,1.26,1.91,1.91,0,0,0,1.38,1.35L372.9,154a4.94,4.94,0,0,1,3.35,3.77,4.42,4.42,0,0,1-1.77,4.16h0a6.63,6.63,0,0,1-7.83,0h0a4.53,4.53,0,0,1-1.82-3.54,1.54,1.54,0,0,1,3.08,0,1.45,1.45,0,0,0,.64,1.1,3.54,3.54,0,0,0,4,0h0A1.35,1.35,0,0,0,373.2,158.2Z"/><path class="cls-1" d="M410.33,154.71h0v6.89a1.55,1.55,0,1,1-3.09,0v-.37a8.46,8.46,0,1,1,0-13.05v-8.73a1.55,1.55,0,1,1,3.09,0V154.7Zm-3.09,0a5.36,5.36,0,1,0-5.36,5.37,5.36,5.36,0,0,0,5.36-5.37Z"/><path class="cls-1" d="M431.21,154.71a1.54,1.54,0,0,1-1.54,1.55h-12a5.37,5.37,0,0,0,8.92,2.24,1.55,1.55,0,0,1,2.19,2.19,8.45,8.45,0,0,1-14.42-5.86v-.24a8.45,8.45,0,0,1,16.89.12Zm-3.31-1.54a5.36,5.36,0,0,0-8.92-2.25,5.41,5.41,0,0,0-1.35,2.25Z"/><path class="cls-1" d="M442.67,158.2a1.94,1.94,0,0,0-1.38-1.36l-3.6-1.36a5,5,0,0,1-3.34-3.78,4.39,4.39,0,0,1,1.77-4.16h0a6.59,6.59,0,0,1,7.83,0h0a4.49,4.49,0,0,1,1.82,3.53,1.55,1.55,0,1,1-3.09,0,1.44,1.44,0,0,0-.63-1.1h0a3.54,3.54,0,0,0-4,0h0a1.36,1.36,0,0,0-.62,1.26,1.93,1.93,0,0,0,1.38,1.35l3.59,1.37a4.94,4.94,0,0,1,3.35,3.77,4.42,4.42,0,0,1-1.77,4.16h0a6.63,6.63,0,0,1-7.83,0h0a4.53,4.53,0,0,1-1.82-3.54,1.54,1.54,0,0,1,3.08,0,1.45,1.45,0,0,0,.64,1.1,3.54,3.54,0,0,0,4,0h0A1.35,1.35,0,0,0,442.67,158.2Z"/><path class="cls-1" d="M458.83,161.84a4.53,4.53,0,0,1-7.72-3.2v-9.39a1.54,1.54,0,0,1-1-1.44,1.52,1.52,0,0,1,1-1.44V142a1.55,1.55,0,1,1,3.09,0v4.23h1a1.55,1.55,0,1,1,0,3.09h-1v9.29a1.43,1.43,0,0,0,2.44,1,1.55,1.55,0,1,1,2.19,2.19Z"/><path class="cls-1" d="M472.62,147.81a1.55,1.55,0,0,1-1.55,1.54,4.35,4.35,0,0,0-4.35,4.35v7.91a1.54,1.54,0,1,1-3.08,0v-13.8a1.54,1.54,0,0,1,3.07-.12,7.41,7.41,0,0,1,4.36-1.43A1.56,1.56,0,0,1,472.62,147.81Z"/><path class="cls-1" d="M490.43,154.71a8.45,8.45,0,1,1-8.45-8.45A8.46,8.46,0,0,1,490.43,154.71Zm-3.09,0a5.36,5.36,0,1,0-5.36,5.36A5.37,5.37,0,0,0,487.34,154.71Z"/><path class="cls-1" d="M507,148.42l-2.44,5.72h0l-7,16.43a1.54,1.54,0,0,1-1.42.94,1.61,1.61,0,0,1-.6-.12,1.54,1.54,0,0,1-.82-2l3.28-7.73-5.64-13.22a1.55,1.55,0,0,1,2.84-1.22l4.47,10.48,2-4.7,0,0h0l2.44-5.74a1.55,1.55,0,0,1,2.84,1.22Z"/><path class="cls-1" d="M525.89,154.71a1.54,1.54,0,0,1-1.54,1.55h-12a5.37,5.37,0,0,0,8.92,2.24,1.55,1.55,0,1,1,2.19,2.19A8.45,8.45,0,0,1,509,154.83v-.24a8.45,8.45,0,0,1,16.89.12Zm-3.31-1.54a5.36,5.36,0,0,0-8.92-2.25,5.41,5.41,0,0,0-1.35,2.25Z"/><path class="cls-1" d="M545.87,154.71h0v6.89a1.55,1.55,0,1,1-3.09,0v-.37a8.46,8.46,0,1,1,0-13.05v-8.73a1.55,1.55,0,1,1,3.09,0V154.7Zm-3.09,0a5.36,5.36,0,1,0-5.36,5.37,5.36,5.36,0,0,0,5.36-5.37Z"/><path class="cls-1" d="M579.92,154.71a8.45,8.45,0,0,1-13.81,6.53v.38a1.55,1.55,0,0,1-3.09,0v-6.9h0V139.43a1.55,1.55,0,1,1,3.09,0v8.76a8.44,8.44,0,0,1,13.81,6.52Zm-3.09,0a5.36,5.36,0,0,0-10.72,0h0a5.36,5.36,0,0,0,10.72,0Z"/><path class="cls-1" d="M596.49,148.42l-2.44,5.72h0l-7,16.43a1.54,1.54,0,0,1-1.42.94,1.57,1.57,0,0,1-.6-.12,1.54,1.54,0,0,1-.82-2l3.28-7.73-5.64-13.22a1.55,1.55,0,0,1,2.84-1.22l4.47,10.48,2-4.7v0h0l2.44-5.74a1.55,1.55,0,0,1,2.84,1.22Z"/><path class="cls-1" d="M622.54,161.84a4.53,4.53,0,0,1-7.72-3.2v-9.39a1.54,1.54,0,0,1-1-1.44,1.52,1.52,0,0,1,1-1.44V142a1.55,1.55,0,1,1,3.09,0v4.23h1a1.55,1.55,0,0,1,0,3.09h-1v9.29a1.43,1.43,0,0,0,1.43,1.43,1.46,1.46,0,0,0,1-.42,1.55,1.55,0,1,1,2.18,2.19Z"/><path class="cls-1" d="M641.68,153.7v7.92a1.55,1.55,0,0,1-3.09,0V153.7a4.35,4.35,0,1,0-8.7,0v7.91a1.54,1.54,0,1,1-3.08,0V139.46a1.54,1.54,0,1,1,3.08,0v8.22a7.42,7.42,0,0,1,11.79,6Z"/><path class="cls-1" d="M661.7,154.71a1.54,1.54,0,0,1-1.54,1.55h-12a5.46,5.46,0,0,0,1.34,2.24,5.37,5.37,0,0,0,7.58,0,1.55,1.55,0,1,1,2.19,2.19,8.45,8.45,0,0,1-14.42-5.86v-.24a8.45,8.45,0,0,1,16.89.12Zm-3.31-1.54a5.37,5.37,0,0,0-8.93-2.25,5.49,5.49,0,0,0-1.34,2.25Z"/><path class="cls-1" d="M700.83,139.43V161.6a1.54,1.54,0,0,1-3.08,0v-9.54H681.94v9.54a1.55,1.55,0,0,1-3.09,0V139.43a1.55,1.55,0,0,1,3.09,0V149h15.81v-9.54a1.54,1.54,0,0,1,3.08,0Z"/><path class="cls-1" d="M720.08,147.81v13.81a1.54,1.54,0,0,1-3.08.12,7.42,7.42,0,0,1-11.79-6v-7.92a1.54,1.54,0,1,1,3.08,0v7.92a4.35,4.35,0,0,0,8.7,0v-7.92a1.55,1.55,0,0,1,3.09,0Z"/><path class="cls-1" d="M739.34,153.7v7.92a1.55,1.55,0,0,1-3.09,0V153.7a4.35,4.35,0,0,0-8.7,0v7.91a1.55,1.55,0,1,1-3.09,0v-13.8a1.56,1.56,0,0,1,1.55-1.55,1.54,1.54,0,0,1,1.53,1.43,7.42,7.42,0,0,1,11.8,6Z"/><path class="cls-1" d="M751.2,158.2a1.94,1.94,0,0,0-1.38-1.36l-3.6-1.36a5,5,0,0,1-3.35-3.78,4.4,4.4,0,0,1,1.78-4.16h0a6.59,6.59,0,0,1,7.83,0h0a4.49,4.49,0,0,1,1.82,3.53,1.55,1.55,0,1,1-3.09,0,1.44,1.44,0,0,0-.63-1.1h0a3.54,3.54,0,0,0-4,0h0a1.36,1.36,0,0,0-.62,1.26,1.91,1.91,0,0,0,1.38,1.35L750.9,154a4.94,4.94,0,0,1,3.35,3.77,4.42,4.42,0,0,1-1.77,4.16h0a6.63,6.63,0,0,1-7.83,0,4.53,4.53,0,0,1-1.82-3.54,1.54,1.54,0,1,1,3.08,0,1.45,1.45,0,0,0,.64,1.1,3.54,3.54,0,0,0,4,0h0A1.35,1.35,0,0,0,751.2,158.2Z"/><path class="cls-1" d="M774.52,143.37h0a1.54,1.54,0,1,1-1.54-1.54A1.54,1.54,0,0,1,774.52,143.37Zm0,4.44v13.8a1.54,1.54,0,1,1-3.08,0v-13.8a1.54,1.54,0,1,1,3.08,0Z"/><path class="cls-1" d="M793.76,153.7v7.92a1.55,1.55,0,0,1-3.09,0V153.7a4.35,4.35,0,1,0-8.69,0v7.91a1.55,1.55,0,1,1-3.09,0v-13.8a1.54,1.54,0,0,1,3.07-.12,7.42,7.42,0,0,1,11.8,6Z"/><path class="cls-1" d="M819.68,161.84a4.53,4.53,0,0,1-7.72-3.2v-9.39a1.55,1.55,0,0,1-1-1.44,1.53,1.53,0,0,1,1-1.44V142a1.55,1.55,0,1,1,3.09,0v4.23h1a1.55,1.55,0,0,1,0,3.09h-1v9.29a1.44,1.44,0,0,0,1.44,1.43,1.42,1.42,0,0,0,1-.42,1.55,1.55,0,0,1,2.18,2.19Z"/><path class="cls-1" d="M838.82,153.7v7.92a1.55,1.55,0,0,1-3.09,0V153.7a4.35,4.35,0,1,0-8.69,0v7.91a1.55,1.55,0,1,1-3.09,0V139.46a1.55,1.55,0,1,1,3.09,0v8.22a7.35,7.35,0,0,1,4.35-1.42A7.44,7.44,0,0,1,838.82,153.7Z"/><path class="cls-1" d="M858.85,154.71a1.55,1.55,0,0,1-1.55,1.55h-12a5.25,5.25,0,0,0,1.34,2.24,5.37,5.37,0,0,0,7.58,0,1.55,1.55,0,0,1,2.18,2.19A8.45,8.45,0,0,1,842,154.83v-.24a8.45,8.45,0,0,1,14.42-5.85A8.37,8.37,0,0,1,858.85,154.71Zm-3.32-1.54a5.35,5.35,0,0,0-8.92-2.25,5.29,5.29,0,0,0-1.34,2.25Z"/><path class="cls-1" d="M874.71,153.72l13-15.27a1.55,1.55,0,0,1,1.71-.45,1.57,1.57,0,0,1,1,1.45v13.73a1.55,1.55,0,0,1,0,3.09v5.29a1.55,1.55,0,1,1-3.09,0v-5.29H875.88a1.55,1.55,0,0,1-1.17-2.55Zm4.51-.54h8.09v-9.52Z"/><path class="cls-1" d="M904.2,161.84a4.53,4.53,0,0,1-7.72-3.2v-9.39a1.54,1.54,0,0,1-1-1.44,1.52,1.52,0,0,1,1-1.44V142a1.55,1.55,0,1,1,3.09,0v4.23h1a1.55,1.55,0,0,1,0,3.09h-1v9.29a1.44,1.44,0,0,0,2.45,1,1.55,1.55,0,0,1,2.18,2.19Z"/><path class="cls-1" d="M923.34,153.7v7.92a1.55,1.55,0,0,1-3.09,0V153.7a4.35,4.35,0,1,0-8.69,0v7.91a1.55,1.55,0,1,1-3.09,0V139.46a1.55,1.55,0,1,1,3.09,0v8.22a7.34,7.34,0,0,1,4.34-1.42A7.45,7.45,0,0,1,923.34,153.7Z"/><path class="cls-1" d="M18.19,203.89a8.46,8.46,0,1,1,0-11.95,1.56,1.56,0,0,1,0,2.19,1.54,1.54,0,0,1-2.18,0,5.36,5.36,0,1,0,0,7.58,1.55,1.55,0,1,1,2.18,2.19Z"/><path class="cls-1" d="M38.63,197.91a1.54,1.54,0,0,1-1.54,1.55h-12A5.37,5.37,0,0,0,34,201.7a1.55,1.55,0,0,1,2.18,2.19A8.45,8.45,0,0,1,21.74,198v-.24a8.45,8.45,0,0,1,16.89.12Zm-3.31-1.54a5.36,5.36,0,0,0-10.27,0Z"/><path class="cls-1" d="M57,196.9v7.92a1.55,1.55,0,0,1-3.09,0V196.9a4.35,4.35,0,1,0-8.69,0v7.91a1.55,1.55,0,1,1-3.09,0V191a1.54,1.54,0,0,1,3.07-.12,7.42,7.42,0,0,1,11.8,6Z"/><path class="cls-1" d="M68.8,205a4.48,4.48,0,0,1-3.19,1.32,4.53,4.53,0,0,1-4.52-4.52v-9.39a1.54,1.54,0,0,1-1-1.44,1.52,1.52,0,0,1,1-1.44v-4.34a1.55,1.55,0,1,1,3.09,0v4.23h1a1.55,1.55,0,1,1,0,3.09h-1v9.29a1.43,1.43,0,0,0,2.44,1A1.55,1.55,0,1,1,68.8,205Z"/><path class="cls-1" d="M86,191v13.81a1.54,1.54,0,0,1-3.07.12,7.43,7.43,0,0,1-11.8-6V191a1.55,1.55,0,1,1,3.09,0v7.92a4.35,4.35,0,0,0,8.7,0V191A1.54,1.54,0,0,1,86,191Z"/><path class="cls-1" d="M99.33,191a1.54,1.54,0,0,1-1.54,1.54,4.35,4.35,0,0,0-4.35,4.35v7.91a1.55,1.55,0,1,1-3.09,0V191a1.54,1.54,0,0,1,3.08-.12,7.41,7.41,0,0,1,4.36-1.43A1.55,1.55,0,0,1,99.33,191Z"/><path class="cls-1" d="M117.88,191.62l-2.44,5.72h0l-7,16.43a1.54,1.54,0,0,1-1.42.94,1.57,1.57,0,0,1-.6-.12,1.53,1.53,0,0,1-.82-2l3.28-7.73-5.64-13.22a1.55,1.55,0,0,1,2.84-1.22l4.47,10.48,2-4.7,0,0h0L115,190.4a1.55,1.55,0,1,1,2.84,1.22Z"/><path class="cls-1" d="M135.86,206.22a1.55,1.55,0,0,1-.82-2l2.92-6.85v0L144.49,182a1.54,1.54,0,0,1,2.84,0l6.52,15.3h0l2.93,6.86a1.54,1.54,0,1,1-2.84,1.21l-2.53-5.92h-11l-2.53,5.92a1.53,1.53,0,0,1-1.42.94A1.61,1.61,0,0,1,135.86,206.22Zm5.87-9.83h8.36l-4.18-9.82Z"/><path class="cls-1" d="M170.63,181.09a12.62,12.62,0,0,1,0,25.24h-7.81a1.55,1.55,0,0,1-1.55-1.55V182.63a1.54,1.54,0,0,1,1.55-1.54Zm0,3.09h-6.27v19.06h6.27a9.53,9.53,0,0,0,0-19.06Z"/><path class="cls-1" d="M185,204.63a1.67,1.67,0,1,1,1.67,1.68A1.67,1.67,0,0,1,185,204.63Z"/><path class="cls-1" d="M138,224.29h9.44a1.55,1.55,0,0,1,0,3.09h-7.91V248a1.54,1.54,0,1,1-3.08,0v-20.6H128.5a1.55,1.55,0,0,1,0-3.09H138Z"/><path class="cls-1" d="M168.18,240.1V248a1.55,1.55,0,0,1-3.09,0V240.1a4.35,4.35,0,1,0-8.69,0V248a1.55,1.55,0,1,1-3.09,0V225.86a1.55,1.55,0,1,1,3.09,0v8.22a7.35,7.35,0,0,1,4.35-1.42A7.44,7.44,0,0,1,168.18,240.1Z"/><path class="cls-1" d="M188.21,241.11a1.54,1.54,0,0,1-1.55,1.55h-12A5.25,5.25,0,0,0,176,244.9a5.37,5.37,0,0,0,7.58,0,1.55,1.55,0,0,1,2.18,2.19,8.44,8.44,0,0,1-14.41-5.86.72.72,0,0,1,0-.24,8.45,8.45,0,0,1,16.89.12Zm-3.32-1.54a5.31,5.31,0,0,0-1.34-2.25,5.37,5.37,0,0,0-7.58,0,5.29,5.29,0,0,0-1.34,2.25Z"/><path class="cls-1" d="M208.19,241.11a8.45,8.45,0,1,1-8.45-8.45A8.46,8.46,0,0,1,208.19,241.11Zm-3.09,0a5.36,5.36,0,1,0-5.36,5.36A5.37,5.37,0,0,0,205.1,241.11Z"/><path class="cls-1" d="M228.17,241.11h0V248a1.55,1.55,0,1,1-3.09,0v-.37a8.46,8.46,0,1,1,0-13v-8.73a1.55,1.55,0,1,1,3.09,0V241.1Zm-3.09,0a5.36,5.36,0,1,0-5.36,5.37,5.37,5.37,0,0,0,5.36-5.37Z"/><path class="cls-1" d="M249.05,241.11a8.45,8.45,0,1,1-8.45-8.45A8.46,8.46,0,0,1,249.05,241.11Zm-3.09,0a5.36,5.36,0,1,0-5.36,5.36A5.37,5.37,0,0,0,246,241.11Z"/><path class="cls-1" d="M260.51,244.6a2,2,0,0,0-1.38-1.36l-3.6-1.36a5,5,0,0,1-3.35-3.78,4.4,4.4,0,0,1,1.78-4.16h0a6.57,6.57,0,0,1,7.82,0h0a4.52,4.52,0,0,1,1.82,3.53,1.55,1.55,0,1,1-3.09,0,1.47,1.47,0,0,0-.63-1.1h0a3.54,3.54,0,0,0-4,0h0a1.37,1.37,0,0,0-.63,1.26,1.94,1.94,0,0,0,1.38,1.35l3.6,1.37a4.94,4.94,0,0,1,3.35,3.77,4.42,4.42,0,0,1-1.77,4.16h0a6.64,6.64,0,0,1-7.84,0h0a4.56,4.56,0,0,1-1.82-3.54,1.55,1.55,0,0,1,3.09,0,1.45,1.45,0,0,0,.64,1.1,3.54,3.54,0,0,0,4,0h0A1.35,1.35,0,0,0,260.51,244.6Z"/><path class="cls-1" d="M271,229.77h0a1.54,1.54,0,1,1-1.54-1.54A1.54,1.54,0,0,1,271,229.77Zm0,4.44V248a1.54,1.54,0,1,1-3.08,0v-13.8a1.54,1.54,0,1,1,3.08,0Z"/><path class="cls-1" d="M292.28,241.11h0V248a1.55,1.55,0,1,1-3.09,0v-.37a8.46,8.46,0,1,1,0-13v-.38a1.55,1.55,0,1,1,3.09,0v6.89Zm-3.09,0a5.36,5.36,0,1,0-5.35,5.37,5.36,5.36,0,0,0,5.35-5.37Z"/><path class="cls-1" d="M333,234.21a1.54,1.54,0,0,1-1.54,1.54,4.35,4.35,0,0,0-4.35,4.35V248a1.55,1.55,0,1,1-3.09,0v-13.8a1.54,1.54,0,0,1,3.08-.12,7.39,7.39,0,0,1,4.36-1.43A1.55,1.55,0,0,1,333,234.21Z"/><path class="cls-1" d="M350.8,241.11a1.54,1.54,0,0,1-1.55,1.55h-12a5.36,5.36,0,0,0,8.92,2.24,1.55,1.55,0,1,1,2.18,2.19,8.44,8.44,0,0,1-14.41-5.86.72.72,0,0,1,0-.24,8.45,8.45,0,0,1,16.89.12Zm-3.31-1.54a5.43,5.43,0,0,0-1.35-2.25,5.35,5.35,0,0,0-8.92,2.25Z"/><path class="cls-1" d="M380.9,240.1V248a1.55,1.55,0,0,1-3.09,0V240.1a4.35,4.35,0,0,0-8.7,0V248a1.54,1.54,0,1,1-3.08,0V240.1a4.35,4.35,0,1,0-8.7,0V248a1.55,1.55,0,1,1-3.09,0v-13.8a1.54,1.54,0,0,1,3.08-.12,7.39,7.39,0,0,1,10.25,1.49,7.43,7.43,0,0,1,13.33,4.52Z"/><path class="cls-1" d="M400.91,241.11h0V248a1.55,1.55,0,1,1-3.09,0v-.37a8.46,8.46,0,1,1,0-13v-.38a1.55,1.55,0,1,1,3.09,0v6.89Zm-3.09,0a5.36,5.36,0,1,0-5.36,5.37,5.36,5.36,0,0,0,5.36-5.37Z"/><path class="cls-1" d="M408.34,229.77h0a1.55,1.55,0,1,1-1.54-1.54A1.54,1.54,0,0,1,408.34,229.77Zm0,4.44V248a1.55,1.55,0,1,1-3.09,0v-13.8a1.55,1.55,0,1,1,3.09,0Z"/><path class="cls-1" d="M427.58,240.1V248a1.55,1.55,0,0,1-3.09,0V240.1a4.35,4.35,0,0,0-8.7,0V248a1.54,1.54,0,1,1-3.08,0v-13.8a1.54,1.54,0,0,1,3.07-.12,7.42,7.42,0,0,1,11.8,6Z"/><path class="cls-1" d="M447.6,241.11a1.54,1.54,0,0,1-1.54,1.55H434a5.46,5.46,0,0,0,1.34,2.24,5.37,5.37,0,0,0,7.58,0,1.55,1.55,0,0,1,2.19,2.19,8.45,8.45,0,0,1-14.42-5.86V241a8.45,8.45,0,0,1,16.89.12Zm-3.31-1.54a5.37,5.37,0,0,0-8.93-2.25,5.49,5.49,0,0,0-1.34,2.25Z"/><path class="cls-1" d="M467.58,241.11h0V248a1.55,1.55,0,1,1-3.09,0v-.37a8.46,8.46,0,1,1,0-13v-8.73a1.55,1.55,0,1,1,3.09,0V241.1Zm-3.09,0a5.36,5.36,0,1,0-5.36,5.37,5.36,5.36,0,0,0,5.36-5.37Z"/><path class="cls-1" d="M502.51,241.11h0V248a1.55,1.55,0,1,1-3.09,0v-.37a8.46,8.46,0,1,1,0-13v-.38a1.55,1.55,0,1,1,3.09,0v6.89Zm-3.09,0a5.36,5.36,0,1,0-5.36,5.37,5.36,5.36,0,0,0,5.36-5.37Z"/><path class="cls-1" d="M547.2,240.1V248a1.55,1.55,0,0,1-3.09,0V240.1a4.35,4.35,0,0,0-8.7,0V248a1.55,1.55,0,0,1-3.09,0V240.1a4.35,4.35,0,1,0-8.69,0V248a1.55,1.55,0,1,1-3.09,0v-13.8a1.54,1.54,0,0,1,3.08-.12,7.39,7.39,0,0,1,10.25,1.49,7.43,7.43,0,0,1,13.33,4.52Z"/><path class="cls-1" d="M554.66,229.77h0a1.55,1.55,0,1,1-1.54-1.54A1.54,1.54,0,0,1,554.66,229.77Zm0,4.44V248a1.55,1.55,0,1,1-3.09,0v-13.8a1.55,1.55,0,1,1,3.09,0Z"/><path class="cls-1" d="M573.9,240.1V248a1.55,1.55,0,0,1-3.09,0V240.1a4.35,4.35,0,1,0-8.7,0V248a1.54,1.54,0,1,1-3.08,0v-13.8a1.54,1.54,0,0,1,3.07-.12,7.42,7.42,0,0,1,11.8,6Z"/><path class="cls-1" d="M593.92,241.11a8.45,8.45,0,1,1-8.45-8.45A8.46,8.46,0,0,1,593.92,241.11Zm-3.09,0a5.36,5.36,0,1,0-5.36,5.36A5.37,5.37,0,0,0,590.83,241.11Z"/><path class="cls-1" d="M606.34,234.21a1.54,1.54,0,0,1-1.54,1.54,4.35,4.35,0,0,0-4.35,4.35V248a1.54,1.54,0,1,1-3.08,0v-13.8a1.54,1.54,0,0,1,3.07-.12,7.41,7.41,0,0,1,4.36-1.43A1.55,1.55,0,0,1,606.34,234.21Z"/><path class="cls-1" d="M639.12,234.81l-5.89,13.81a1.54,1.54,0,0,1-2.84,0l-5.89-13.81a1.54,1.54,0,0,1,2.84-1.21l4.47,10.48,4.47-10.48a1.54,1.54,0,0,1,2.84,1.21Z"/><path class="cls-1" d="M646.72,229.77h0a1.55,1.55,0,1,1-1.54-1.54A1.54,1.54,0,0,1,646.72,229.77Zm0,4.44V248a1.55,1.55,0,1,1-3.09,0v-13.8a1.55,1.55,0,1,1,3.09,0Z"/><path class="cls-1" d="M654.17,225.86V248a1.55,1.55,0,1,1-3.09,0V225.86a1.55,1.55,0,1,1,3.09,0Z"/><path class="cls-1" d="M661.62,225.86V248a1.54,1.54,0,1,1-3.08,0V225.86a1.54,1.54,0,1,1,3.08,0Z"/><path class="cls-1" d="M682.52,241.11h0V248a1.55,1.55,0,1,1-3.09,0v-.37a8.46,8.46,0,1,1,0-13v-.38a1.55,1.55,0,1,1,3.09,0v6.89Zm-3.09,0a5.36,5.36,0,1,0-5.36,5.37,5.36,5.36,0,0,0,5.36-5.37Z"/><path class="cls-1" d="M703.4,234.21V249.5a8.45,8.45,0,0,1-14.42,6,1.55,1.55,0,0,1,0-2.18,1.53,1.53,0,0,1,2.18,0,5.37,5.37,0,0,0,7.58,0,5.31,5.31,0,0,0,1.57-3.79v-1.86a8.46,8.46,0,1,1,0-13v-.38a1.55,1.55,0,1,1,3.09,0Zm-3.09,6.9a5.36,5.36,0,1,0-5.36,5.36A5.37,5.37,0,0,0,700.31,241.11Z"/><path class="cls-1" d="M724.28,241.11a1.54,1.54,0,0,1-1.54,1.55h-12A5.46,5.46,0,0,0,712,244.9a5.37,5.37,0,0,0,7.58,0,1.55,1.55,0,0,1,2.19,2.19,8.45,8.45,0,0,1-14.42-5.86V241a8.45,8.45,0,0,1,16.89.12ZM721,239.57a5.37,5.37,0,0,0-8.93-2.25,5.49,5.49,0,0,0-1.34,2.25Z"/><path class="cls-1" d="M753.63,228.2a1.54,1.54,0,0,1-2.19,0,2.85,2.85,0,0,0-4.86,2v2.44h2.56a1.55,1.55,0,0,1,0,3.09h-2.56V248a1.54,1.54,0,1,1-3.08,0v-12.3a1.54,1.54,0,0,1,0-3v-2.49a5.93,5.93,0,0,1,10.13-4.2A1.55,1.55,0,0,1,753.63,228.2Z"/><path class="cls-1" d="M766,241.11a8.45,8.45,0,1,1-8.44-8.45A8.46,8.46,0,0,1,766,241.11Zm-3.09,0a5.36,5.36,0,1,0-5.35,5.36A5.36,5.36,0,0,0,762.92,241.11Z"/><path class="cls-1" d="M778.44,234.21a1.54,1.54,0,0,1-1.55,1.54,4.35,4.35,0,0,0-4.34,4.35V248a1.55,1.55,0,1,1-3.09,0v-13.8a1.54,1.54,0,0,1,3.07-.12,7.41,7.41,0,0,1,4.36-1.43A1.55,1.55,0,0,1,778.44,234.21Z"/><path class="cls-1" d="M823.12,240.1V248a1.55,1.55,0,0,1-3.09,0V240.1a4.35,4.35,0,1,0-8.69,0V248a1.55,1.55,0,0,1-3.09,0V240.1a4.35,4.35,0,0,0-8.7,0V248a1.55,1.55,0,1,1-3.09,0v-13.8a1.56,1.56,0,0,1,1.55-1.55,1.54,1.54,0,0,1,1.53,1.43,7.39,7.39,0,0,1,10.25,1.49,7.43,7.43,0,0,1,13.33,4.52Z"/><path class="cls-1" d="M842.37,234.21V248a1.54,1.54,0,0,1-3.08.12,7.42,7.42,0,0,1-11.79-6v-7.92a1.54,1.54,0,1,1,3.08,0v7.92a4.35,4.35,0,0,0,8.7,0v-7.92a1.55,1.55,0,0,1,3.09,0Z"/><path class="cls-1" d="M860.81,247.09a8.46,8.46,0,1,1,0-12,1.54,1.54,0,1,1-2.18,2.18,5.36,5.36,0,1,0,0,7.58,1.55,1.55,0,1,1,2.18,2.19Z"/><path class="cls-1" d="M880.49,240.1V248a1.55,1.55,0,0,1-3.09,0V240.1a4.35,4.35,0,1,0-8.69,0V248a1.55,1.55,0,1,1-3.09,0V225.86a1.55,1.55,0,1,1,3.09,0v8.22a7.35,7.35,0,0,1,4.35-1.42A7.44,7.44,0,0,1,880.49,240.1Z"/><path class="cls-1" d="M915.46,241.11a8.45,8.45,0,1,1-8.45-8.45A8.46,8.46,0,0,1,915.46,241.11Zm-3.09,0a5.36,5.36,0,1,0-5.36,5.36A5.37,5.37,0,0,0,912.37,241.11Z"/><path class="cls-1" d="M929.86,228.2a1.53,1.53,0,0,1-2.18,0,2.88,2.88,0,0,0-2-.83,2.85,2.85,0,0,0-2.84,2.85v2.44h2.55a1.55,1.55,0,1,1,0,3.09h-2.55V248a1.55,1.55,0,1,1-3.09,0v-12.3a1.54,1.54,0,0,1,0-3v-2.49a5.93,5.93,0,0,1,10.13-4.2A1.55,1.55,0,0,1,929.86,228.2Z"/><path class="cls-1" d="M12.5,291.44a4.53,4.53,0,0,1-7.72-3.2v-9.39a1.54,1.54,0,0,1-1-1.44,1.52,1.52,0,0,1,1-1.44v-4.34a1.55,1.55,0,1,1,3.09,0v4.23h1a1.55,1.55,0,0,1,0,3.09h-1v9.29a1.44,1.44,0,0,0,2.45,1,1.55,1.55,0,0,1,2.18,2.19Z"/><path class="cls-1" d="M31.64,283.3v7.92a1.55,1.55,0,0,1-3.09,0V283.3a4.35,4.35,0,1,0-8.69,0v7.91a1.55,1.55,0,1,1-3.09,0V269.06a1.55,1.55,0,1,1,3.09,0v8.22a7.34,7.34,0,0,1,4.34-1.42A7.45,7.45,0,0,1,31.64,283.3Z"/><path class="cls-1" d="M51.66,284.31a1.54,1.54,0,0,1-1.54,1.55h-12a5.25,5.25,0,0,0,1.34,2.24,5.37,5.37,0,0,0,7.58,0,1.55,1.55,0,0,1,2.18,2.19,8.45,8.45,0,0,1-14.42-5.86v-.24a8.45,8.45,0,0,1,16.89.12Zm-3.31-1.54a5.35,5.35,0,0,0-8.92-2.25,5.29,5.29,0,0,0-1.34,2.25Z"/><path class="cls-1" d="M85.85,283.3v7.92a1.54,1.54,0,1,1-3.08,0V283.3a4.35,4.35,0,1,0-8.7,0v7.91a1.55,1.55,0,1,1-3.09,0v-13.8a1.54,1.54,0,0,1,3.08-.12,7.41,7.41,0,0,1,11.79,6Z"/><path class="cls-1" d="M105.88,284.31a1.54,1.54,0,0,1-1.55,1.55h-12a5.36,5.36,0,0,0,8.92,2.24,1.55,1.55,0,0,1,2.18,2.19A8.44,8.44,0,0,1,89,284.43a.72.72,0,0,1,0-.24,8.45,8.45,0,0,1,16.89.12Zm-3.31-1.54a5.43,5.43,0,0,0-1.35-2.25,5.35,5.35,0,0,0-8.92,2.25Z"/><path class="cls-1" d="M121.13,290.21a1.55,1.55,0,0,1-.18,2.18,1.54,1.54,0,0,1-2.17-.17l-4.72-5.53-4.72,5.53a1.54,1.54,0,0,1-2.17.17,1.55,1.55,0,0,1-.18-2.18l5-5.9-5-5.9a1.54,1.54,0,1,1,2.35-2l4.72,5.52,4.72-5.52a1.54,1.54,0,1,1,2.35,2l-5,5.9Z"/><path class="cls-1" d="M133.17,291.44a4.53,4.53,0,0,1-7.72-3.2v-9.39a1.54,1.54,0,0,1-1-1.44,1.52,1.52,0,0,1,1-1.44v-4.34a1.55,1.55,0,1,1,3.09,0v4.23h1a1.55,1.55,0,0,1,0,3.09h-1v9.29a1.44,1.44,0,0,0,2.45,1,1.55,1.55,0,0,1,2.18,2.19Z"/><path class="cls-1" d="M167.82,283.3v7.92a1.54,1.54,0,1,1-3.08,0V283.3a4.35,4.35,0,0,0-8.7,0v7.91a1.55,1.55,0,1,1-3.09,0v-13.8a1.54,1.54,0,0,1,3.08-.12,7.41,7.41,0,0,1,11.79,6Z"/><path class="cls-1" d="M175.3,273h0a1.55,1.55,0,1,1-1.54-1.54A1.54,1.54,0,0,1,175.3,273Zm0,4.44v13.8a1.55,1.55,0,1,1-3.09,0v-13.8a1.55,1.55,0,1,1,3.09,0Z"/><path class="cls-1" d="M194.54,283.3v7.92a1.55,1.55,0,0,1-3.09,0V283.3a4.35,4.35,0,1,0-8.7,0v7.91a1.55,1.55,0,1,1-3.09,0v-13.8a1.56,1.56,0,0,1,1.55-1.55,1.54,1.54,0,0,1,1.53,1.43,7.42,7.42,0,0,1,11.8,6Z"/><path class="cls-1" d="M214.56,284.31a1.54,1.54,0,0,1-1.54,1.55H201a5.36,5.36,0,0,0,8.92,2.24,1.55,1.55,0,0,1,2.19,2.19,8.45,8.45,0,0,1-14.42-5.86s0-.08,0-.12,0-.08,0-.12a8.45,8.45,0,0,1,16.89.12Zm-3.31-1.54a5.37,5.37,0,0,0-8.93-2.25,5.39,5.39,0,0,0-1.34,2.25Z"/><path class="cls-1" d="M248.75,283.3v7.92a1.55,1.55,0,0,1-3.09,0V283.3a4.35,4.35,0,1,0-8.69,0v7.91a1.55,1.55,0,1,1-3.09,0V269.06a1.55,1.55,0,1,1,3.09,0v8.22a7.34,7.34,0,0,1,4.34-1.42A7.45,7.45,0,0,1,248.75,283.3Z"/><path class="cls-1" d="M268,277.41v13.81a1.54,1.54,0,0,1-3.08.12,7.42,7.42,0,0,1-11.79-6v-7.92a1.55,1.55,0,1,1,3.09,0v7.92a4.35,4.35,0,0,0,8.69,0v-7.92a1.55,1.55,0,0,1,3.09,0Z"/><path class="cls-1" d="M287.27,283.3v7.92a1.55,1.55,0,0,1-3.09,0V283.3a4.35,4.35,0,1,0-8.69,0v7.91a1.55,1.55,0,1,1-3.09,0v-13.8a1.54,1.54,0,0,1,3.07-.12,7.42,7.42,0,0,1,11.8,6Z"/><path class="cls-1" d="M307.29,284.31h0v6.89a1.54,1.54,0,1,1-3.08,0v-.37a8.46,8.46,0,1,1,0-13v-8.73a1.54,1.54,0,1,1,3.08,0V284.3Zm-3.08,0a5.36,5.36,0,1,0-5.36,5.37,5.37,5.37,0,0,0,5.36-5.37Z"/><path class="cls-1" d="M320.62,277.41a1.54,1.54,0,0,1-1.55,1.54,4.35,4.35,0,0,0-4.34,4.35v7.91a1.55,1.55,0,1,1-3.09,0v-13.8a1.54,1.54,0,0,1,3.07-.12,7.41,7.41,0,0,1,4.36-1.43A1.55,1.55,0,0,1,320.62,277.41Z"/><path class="cls-1" d="M338.43,284.31a1.54,1.54,0,0,1-1.54,1.55h-12a5.37,5.37,0,0,0,8.93,2.24,1.55,1.55,0,0,1,2.18,2.19,8.45,8.45,0,0,1-14.42-5.86v-.24a8.45,8.45,0,0,1,16.89.12Zm-3.31-1.54a5.36,5.36,0,0,0-10.27,0Z"/><path class="cls-1" d="M358.41,284.31h0v6.89a1.54,1.54,0,1,1-3.08,0v-.37a8.46,8.46,0,1,1,0-13v-8.73a1.54,1.54,0,1,1,3.08,0V284.3Zm-3.08,0a5.36,5.36,0,1,0-5.36,5.37,5.37,5.37,0,0,0,5.36-5.37Z"/><path class="cls-1" d="M392.48,278,390,283.74h0l-7,16.43a1.54,1.54,0,0,1-1.42.94,1.57,1.57,0,0,1-.6-.12,1.53,1.53,0,0,1-.82-2l3.28-7.73L377.86,278a1.55,1.55,0,1,1,2.84-1.22l4.47,10.48,2-4.7,0,0h0l2.45-5.74a1.55,1.55,0,0,1,2.84,1.22Z"/><path class="cls-1" d="M411.37,284.31a1.54,1.54,0,0,1-1.55,1.55h-12a5.36,5.36,0,0,0,8.92,2.24,1.55,1.55,0,0,1,2.18,2.19,8.44,8.44,0,0,1-14.41-5.86.72.72,0,0,1,0-.24,8.45,8.45,0,0,1,16.89.12Zm-3.31-1.54a5.43,5.43,0,0,0-1.35-2.25,5.35,5.35,0,0,0-8.92,2.25Z"/><path class="cls-1" d="M431.35,284.31h0v6.89a1.55,1.55,0,1,1-3.09,0v-.37a8.46,8.46,0,1,1,0-13v-.38a1.55,1.55,0,1,1,3.09,0v6.89Zm-3.09,0a5.36,5.36,0,1,0-5.36,5.37,5.37,5.37,0,0,0,5.36-5.37Z"/><path class="cls-1" d="M444.67,277.41a1.54,1.54,0,0,1-1.54,1.54,4.35,4.35,0,0,0-4.35,4.35v7.91a1.55,1.55,0,1,1-3.09,0v-13.8a1.54,1.54,0,0,1,3.08-.12,7.41,7.41,0,0,1,4.36-1.43A1.55,1.55,0,0,1,444.67,277.41Z"/><path class="cls-1" d="M455.77,287.8a2,2,0,0,0-1.38-1.36l-3.6-1.36a5,5,0,0,1-3.35-3.78,4.42,4.42,0,0,1,1.77-4.16h0a6.57,6.57,0,0,1,7.82,0h0a4.52,4.52,0,0,1,1.82,3.53,1.55,1.55,0,1,1-3.09,0,1.47,1.47,0,0,0-.63-1.1h0a3.52,3.52,0,0,0-4,0h0a1.37,1.37,0,0,0-.63,1.26,1.94,1.94,0,0,0,1.38,1.35l3.6,1.37a4.94,4.94,0,0,1,3.35,3.77,4.42,4.42,0,0,1-1.77,4.16h0a6.64,6.64,0,0,1-7.84,0,4.56,4.56,0,0,1-1.82-3.54,1.55,1.55,0,0,1,3.09,0,1.45,1.45,0,0,0,.64,1.1,3.52,3.52,0,0,0,4,0h0A1.35,1.35,0,0,0,455.77,287.8Z"/><path class="cls-1" d="M460.53,291a1.68,1.68,0,1,1,1.67,1.68A1.67,1.67,0,0,1,460.53,291Z"/><path class="cls-1" d="M480.55,291.2V269a1.54,1.54,0,0,1,3.08,0V291.2a1.54,1.54,0,0,1-3.08,0Z"/><path class="cls-1" d="M496.73,291.44a4.53,4.53,0,0,1-7.72-3.2v-9.39a1.54,1.54,0,0,1-1-1.44,1.52,1.52,0,0,1,1-1.44v-4.34a1.55,1.55,0,1,1,3.09,0v4.23h1a1.55,1.55,0,1,1,0,3.09h-1v9.29a1.43,1.43,0,0,0,2.44,1,1.55,1.55,0,0,1,2.19,2.19Z"/><path class="cls-1" d="M543,278l-5.89,13.8a1.54,1.54,0,0,1-2.84,0l-4.47-10.47-4.48,10.47a1.54,1.54,0,0,1-1.42.94,1.56,1.56,0,0,1-1.42-.94L516.63,278a1.55,1.55,0,0,1,2.84-1.22l4.47,10.48,4.48-10.48a.41.41,0,0,1,.05-.09s0-.11.08-.16l.09-.11.11-.12a.58.58,0,0,1,.12-.1l.11-.09a.83.83,0,0,1,.16-.09l.09-.05h0l.2-.05a.29.29,0,0,1,.1,0,.44.44,0,0,1,.16,0H530a.62.62,0,0,1,.19,0l.09,0,.2.07h0l.09.05.17.09.1.08.13.11.1.12.09.11.09.16a.41.41,0,0,0,0,.09l4.47,10.48,4.47-10.48A1.55,1.55,0,0,1,543,278Z"/><path class="cls-1" d="M561.92,284.31h0v6.89a1.55,1.55,0,1,1-3.09,0v-.37a8.46,8.46,0,1,1,0-13v-.38a1.55,1.55,0,1,1,3.09,0v6.89Zm-3.09,0a5.36,5.36,0,1,0-5.36,5.37,5.37,5.37,0,0,0,5.36-5.37Z"/><path class="cls-1" d="M574.64,287.8a2,2,0,0,0-1.39-1.36l-3.59-1.36a5,5,0,0,1-3.35-3.78,4.42,4.42,0,0,1,1.77-4.16h0a6.57,6.57,0,0,1,7.82,0h0a4.52,4.52,0,0,1,1.82,3.53,1.55,1.55,0,1,1-3.09,0,1.45,1.45,0,0,0-.64-1.1h0a3.52,3.52,0,0,0-4,0h0a1.36,1.36,0,0,0-.62,1.26,1.93,1.93,0,0,0,1.38,1.35l3.6,1.37a5,5,0,0,1,3.35,3.77,4.42,4.42,0,0,1-1.77,4.16h0a6.63,6.63,0,0,1-7.83,0,4.53,4.53,0,0,1-1.82-3.54,1.55,1.55,0,0,1,3.09,0,1.44,1.44,0,0,0,.63,1.1,3.54,3.54,0,0,0,4,0h0A1.38,1.38,0,0,0,574.64,287.8Z"/><path class="cls-1" d="M613.93,284.31h0v6.89a1.55,1.55,0,1,1-3.09,0v-.37a8.37,8.37,0,0,1-5.35,1.92,8.45,8.45,0,1,1,5.36-15v-.38a1.54,1.54,0,1,1,3.08,0v6.89Zm-3.08,0a5.36,5.36,0,1,0-5.36,5.37,5.37,5.37,0,0,0,5.36-5.37Z"/><path class="cls-1" d="M627,291.44a4.53,4.53,0,0,1-7.72-3.2v-9.39a1.54,1.54,0,0,1-1-1.44,1.52,1.52,0,0,1,1-1.44v-4.34a1.55,1.55,0,1,1,3.09,0v4.23h1a1.55,1.55,0,1,1,0,3.09h-1v9.29a1.43,1.43,0,0,0,2.44,1,1.55,1.55,0,0,1,2.19,2.19Z"/><path class="cls-1" d="M655.52,291.44a4.53,4.53,0,0,1-7.72-3.2v-9.39a1.54,1.54,0,0,1-1-1.44,1.52,1.52,0,0,1,1-1.44v-4.34a1.55,1.55,0,1,1,3.09,0v4.23h1a1.55,1.55,0,1,1,0,3.09h-1v9.29a1.43,1.43,0,0,0,2.44,1,1.55,1.55,0,0,1,2.19,2.19Z"/><path class="cls-1" d="M663.41,273h0a1.54,1.54,0,1,1-1.54-1.54A1.54,1.54,0,0,1,663.41,273Zm0,4.44v13.8a1.54,1.54,0,1,1-3.08,0v-13.8a1.54,1.54,0,1,1,3.08,0Z"/><path class="cls-1" d="M694.43,283.3v7.92a1.55,1.55,0,0,1-3.09,0V283.3a4.35,4.35,0,1,0-8.69,0v7.92a1.55,1.55,0,0,1-3.09,0V283.3a4.35,4.35,0,1,0-8.7,0v7.91a1.54,1.54,0,1,1-3.08,0v-13.8a1.54,1.54,0,0,1,3.07-.12,7.39,7.39,0,0,1,10.25,1.49,7.43,7.43,0,0,1,13.33,4.52Z"/><path class="cls-1" d="M714.44,284.31a1.54,1.54,0,0,1-1.54,1.55h-12a5.25,5.25,0,0,0,1.34,2.24,5.37,5.37,0,0,0,7.58,0,1.55,1.55,0,0,1,2.18,2.19,8.45,8.45,0,0,1-14.42-5.86v-.24a8.45,8.45,0,0,1,16.89.12Zm-3.31-1.54a5.35,5.35,0,0,0-8.92-2.25,5.29,5.29,0,0,0-1.34,2.25Z"/><path class="cls-1" d="M725.9,287.8a1.92,1.92,0,0,0-1.38-1.36l-3.59-1.36a5,5,0,0,1-3.35-3.78,4.42,4.42,0,0,1,1.77-4.16h0a6.59,6.59,0,0,1,7.83,0h0a4.49,4.49,0,0,1,1.82,3.53,1.54,1.54,0,1,1-3.08,0,1.45,1.45,0,0,0-.64-1.1h0a3.54,3.54,0,0,0-4,0h0a1.36,1.36,0,0,0-.62,1.26,1.93,1.93,0,0,0,1.38,1.35l3.6,1.37a5,5,0,0,1,3.35,3.77,4.42,4.42,0,0,1-1.77,4.16h0a6.63,6.63,0,0,1-7.83,0,4.53,4.53,0,0,1-1.82-3.54,1.55,1.55,0,0,1,3.09,0,1.44,1.44,0,0,0,.63,1.1,3.54,3.54,0,0,0,4,0h0A1.35,1.35,0,0,0,725.9,287.8Z"/><path class="cls-1" d="M765.2,284.31a8.44,8.44,0,0,1-13.8,6.53v8.73a1.55,1.55,0,0,1-3.09,0V284.32h0v-6.89a1.55,1.55,0,0,1,3.09,0v.38a8.43,8.43,0,0,1,13.8,6.52Zm-3.09,0a5.36,5.36,0,1,0-10.71,0v0a5.36,5.36,0,1,0,10.71,0Z"/><path class="cls-1" d="M785.18,284.31h0v6.89a1.55,1.55,0,1,1-3.09,0v-.37a8.46,8.46,0,1,1,0-13v-.38a1.55,1.55,0,1,1,3.09,0v6.89Zm-3.09,0a5.36,5.36,0,1,0-5.35,5.37,5.36,5.36,0,0,0,5.35-5.37Z"/><path class="cls-1" d="M798.51,277.41A1.54,1.54,0,0,1,797,279a4.35,4.35,0,0,0-4.34,4.35v7.91a1.55,1.55,0,1,1-3.09,0v-13.8a1.54,1.54,0,0,1,3.07-.12,7.41,7.41,0,0,1,4.36-1.43A1.55,1.55,0,0,1,798.51,277.41Z"/><path class="cls-1" d="M811.57,291.44a4.48,4.48,0,0,1-3.19,1.32,4.53,4.53,0,0,1-4.52-4.52v-9.39a1.54,1.54,0,0,1-1-1.44,1.52,1.52,0,0,1,1-1.44v-4.34a1.55,1.55,0,1,1,3.09,0v4.23h1a1.55,1.55,0,1,1,0,3.09h-1v9.29a1.43,1.43,0,0,0,2.44,1,1.55,1.55,0,0,1,2.18,2.19Z"/><path class="cls-1" d="M848.25,284.31a8.45,8.45,0,1,1-8.45-8.45A8.46,8.46,0,0,1,848.25,284.31Zm-3.09,0a5.36,5.36,0,1,0-5.36,5.36A5.37,5.37,0,0,0,845.16,284.31Z"/><path class="cls-1" d="M862.65,271.4a1.53,1.53,0,0,1-2.18,0,2.88,2.88,0,0,0-2-.83,2.85,2.85,0,0,0-2.84,2.85v2.44h2.55a1.55,1.55,0,1,1,0,3.09h-2.55v12.26a1.55,1.55,0,1,1-3.09,0v-12.3a1.54,1.54,0,0,1,0-3v-2.49a5.93,5.93,0,0,1,10.13-4.2A1.55,1.55,0,0,1,862.65,271.4Z"/><path class="cls-1" d="M884.22,291.44a4.53,4.53,0,0,1-7.72-3.2v-9.39a1.54,1.54,0,0,1-1-1.44,1.52,1.52,0,0,1,1-1.44v-4.34a1.55,1.55,0,1,1,3.09,0v4.23h1a1.55,1.55,0,0,1,0,3.09h-1v9.29a1.43,1.43,0,0,0,1.43,1.43,1.45,1.45,0,0,0,1-.42,1.55,1.55,0,0,1,2.18,2.19Z"/><path class="cls-1" d="M903.36,283.3v7.92a1.55,1.55,0,0,1-3.09,0V283.3a4.35,4.35,0,1,0-8.69,0v7.91a1.55,1.55,0,1,1-3.09,0V269.06a1.55,1.55,0,1,1,3.09,0v8.22a7.34,7.34,0,0,1,4.34-1.42A7.45,7.45,0,0,1,903.36,283.3Z"/><path class="cls-1" d="M923.38,284.31a1.54,1.54,0,0,1-1.54,1.55h-12a5.37,5.37,0,0,0,8.92,2.24,1.55,1.55,0,1,1,2.19,2.19,8.45,8.45,0,0,1-14.42-5.86v-.24a8.45,8.45,0,0,1,16.89.12Zm-3.31-1.54a5.36,5.36,0,0,0-8.92-2.25,5.41,5.41,0,0,0-1.35,2.25Z"/><path class="cls-1" d="M12.15,331a2,2,0,0,0-1.38-1.36l-3.6-1.36a5,5,0,0,1-3.35-3.78,4.4,4.4,0,0,1,1.78-4.16h0a6.57,6.57,0,0,1,7.82,0h0a4.49,4.49,0,0,1,1.82,3.53,1.55,1.55,0,1,1-3.09,0,1.44,1.44,0,0,0-.63-1.1h0a3.54,3.54,0,0,0-4,0h0A1.38,1.38,0,0,0,6.87,324a1.94,1.94,0,0,0,1.38,1.35l3.6,1.37a4.94,4.94,0,0,1,3.35,3.77,4.42,4.42,0,0,1-1.77,4.16h0A6.44,6.44,0,0,1,9.51,336a6.39,6.39,0,0,1-3.91-1.28h0a4.56,4.56,0,0,1-1.82-3.54,1.55,1.55,0,0,1,3.09,0,1.45,1.45,0,0,0,.64,1.1,3.54,3.54,0,0,0,4,0h0A1.35,1.35,0,0,0,12.15,331Z"/><path class="cls-1" d="M36.11,327.51A8.44,8.44,0,0,1,22.31,334v8.73a1.55,1.55,0,0,1-3.09,0V327.52h0v-6.89a1.55,1.55,0,0,1,3.09,0V321a8.43,8.43,0,0,1,13.8,6.52Zm-3.09,0a5.36,5.36,0,1,0-10.71,0v0a5.36,5.36,0,1,0,10.71,0Z"/><path class="cls-1" d="M55.33,326.5v7.92a1.55,1.55,0,0,1-3.09,0V326.5a4.35,4.35,0,1,0-8.69,0v7.91a1.55,1.55,0,1,1-3.09,0V312.26a1.55,1.55,0,1,1,3.09,0v8.22a7.34,7.34,0,0,1,4.34-1.42A7.45,7.45,0,0,1,55.33,326.5Z"/><path class="cls-1" d="M75.35,327.51a1.54,1.54,0,0,1-1.54,1.55h-12a5.37,5.37,0,0,0,8.93,2.24,1.55,1.55,0,1,1,2.18,2.19,8.45,8.45,0,0,1-14.42-5.86v-.24a8.45,8.45,0,0,1,16.89.12ZM72,326a5.36,5.36,0,0,0-10.27,0Z"/><path class="cls-1" d="M87.78,320.61a1.54,1.54,0,0,1-1.55,1.54,4.35,4.35,0,0,0-4.34,4.35v7.91a1.55,1.55,0,1,1-3.09,0v-13.8a1.54,1.54,0,0,1,3.07-.12,7.41,7.41,0,0,1,4.36-1.43A1.55,1.55,0,0,1,87.78,320.61Z"/><path class="cls-1" d="M105.59,327.51a1.54,1.54,0,0,1-1.54,1.55H92a5.37,5.37,0,0,0,8.93,2.24,1.55,1.55,0,1,1,2.18,2.19,8.45,8.45,0,0,1-14.42-5.86v-.24a8.45,8.45,0,0,1,16.89.12ZM102.28,326A5.36,5.36,0,0,0,92,326Z"/><path class="cls-1" d="M150.47,327.51a8.45,8.45,0,1,1-8.45-8.45A8.46,8.46,0,0,1,150.47,327.51Zm-3.09,0a5.36,5.36,0,1,0-5.36,5.36A5.37,5.37,0,0,0,147.38,327.51Z"/><path class="cls-1" d="M164.87,314.6a1.53,1.53,0,0,1-2.18,0,2.88,2.88,0,0,0-2-.83,2.85,2.85,0,0,0-2.84,2.85v2.44h2.55a1.55,1.55,0,1,1,0,3.09h-2.55v12.26a1.55,1.55,0,1,1-3.09,0v-12.3a1.54,1.54,0,0,1,0-3v-2.49a5.93,5.93,0,0,1,10.13-4.2A1.55,1.55,0,0,1,164.87,314.6Z"/><path class="cls-1" d="M189.46,316.17h0a1.54,1.54,0,1,1-1.54-1.54A1.54,1.54,0,0,1,189.46,316.17Zm0,4.44v13.8a1.54,1.54,0,1,1-3.08,0v-13.8a1.54,1.54,0,1,1,3.08,0Z"/><path class="cls-1" d="M208.7,326.5v7.92a1.55,1.55,0,0,1-3.09,0V326.5a4.35,4.35,0,1,0-8.69,0v7.91a1.55,1.55,0,1,1-3.09,0v-13.8a1.54,1.54,0,0,1,3.07-.12,7.42,7.42,0,0,1,11.8,6Z"/><path class="cls-1" d="M212.55,320.61a1.54,1.54,0,0,1,1.18-1.5v-2.49a5.93,5.93,0,0,1,10.13-4.2,1.59,1.59,0,0,1,.2.24,0,0,0,0,0,0,0,1.36,1.36,0,0,1,.13.24v0a1.47,1.47,0,0,1,.11.56v20.91a1.54,1.54,0,1,1-3.08,0V314.24a2.79,2.79,0,0,0-1.57-.47,2.85,2.85,0,0,0-2.84,2.85v2.44h.87a1.55,1.55,0,0,1,0,3.09h-.87v12.26a1.55,1.55,0,1,1-3.09,0v-12.3A1.54,1.54,0,0,1,212.55,320.61Z"/><path class="cls-1" d="M243.55,320.61v13.81a1.54,1.54,0,0,1-3.08.12,7.43,7.43,0,0,1-11.8-6v-7.92a1.55,1.55,0,1,1,3.09,0v7.92a4.35,4.35,0,0,0,8.7,0v-7.92a1.55,1.55,0,0,1,3.09,0Z"/><path class="cls-1" d="M264.47,327.51a1.54,1.54,0,0,1-1.54,1.55h-12a5.36,5.36,0,0,0,8.92,2.24,1.55,1.55,0,0,1,2.19,2.19,8.45,8.45,0,0,1-14.42-5.86s0-.08,0-.12,0-.08,0-.12a8.45,8.45,0,0,1,16.89.12ZM261.16,326a5.37,5.37,0,0,0-8.93-2.25,5.39,5.39,0,0,0-1.34,2.25Z"/><path class="cls-1" d="M282.79,326.5v7.92a1.55,1.55,0,0,1-3.09,0V326.5a4.35,4.35,0,1,0-8.7,0v7.91a1.55,1.55,0,1,1-3.09,0v-13.8a1.56,1.56,0,0,1,1.55-1.55,1.54,1.54,0,0,1,1.53,1.43,7.42,7.42,0,0,1,11.8,6Z"/><path class="cls-1" d="M300.33,333.49a8.45,8.45,0,0,1-11.94-11.95,8.43,8.43,0,0,1,11.94,0,1.54,1.54,0,1,1-2.18,2.18,5.36,5.36,0,1,0,0,7.58,1.55,1.55,0,1,1,2.18,2.19Z"/><path class="cls-1" d="M320.77,327.51a1.54,1.54,0,0,1-1.54,1.55h-12a5.25,5.25,0,0,0,1.34,2.24,5.37,5.37,0,0,0,7.58,0,1.55,1.55,0,1,1,2.18,2.19,8.45,8.45,0,0,1-14.42-5.86v-.24a8.45,8.45,0,0,1,16.89.12ZM317.46,326a5.35,5.35,0,0,0-8.92-2.25A5.29,5.29,0,0,0,307.2,326Z"/><path class="cls-1" d="M365.65,327.51a8.45,8.45,0,1,1-8.44-8.45A8.46,8.46,0,0,1,365.65,327.51Zm-3.09,0a5.36,5.36,0,1,0-5.35,5.36A5.36,5.36,0,0,0,362.56,327.51Z"/><path class="cls-1" d="M380.05,314.6a1.53,1.53,0,0,1-2.18,0,2.88,2.88,0,0,0-2-.83,2.85,2.85,0,0,0-2.84,2.85v2.44h2.55a1.55,1.55,0,1,1,0,3.09H373v12.26a1.55,1.55,0,1,1-3.09,0v-12.3a1.54,1.54,0,0,1,0-3v-2.49a5.93,5.93,0,0,1,10.13-4.2A1.55,1.55,0,0,1,380.05,314.6Z"/><path class="cls-1" d="M410.28,334.64a4.52,4.52,0,0,1-7.71-3.2v-9.39a1.54,1.54,0,0,1-1-1.44,1.52,1.52,0,0,1,1-1.44v-4.34a1.55,1.55,0,1,1,3.09,0v4.23h1a1.55,1.55,0,1,1,0,3.09h-1v9.29a1.43,1.43,0,0,0,2.44,1,1.55,1.55,0,1,1,2.18,2.19Z"/><path class="cls-1" d="M429.42,326.5v7.92a1.54,1.54,0,1,1-3.08,0V326.5a4.35,4.35,0,1,0-8.7,0v7.91a1.55,1.55,0,1,1-3.09,0V312.26a1.55,1.55,0,1,1,3.09,0v8.22a7.42,7.42,0,0,1,11.78,6Z"/><path class="cls-1" d="M449.45,327.51a1.54,1.54,0,0,1-1.55,1.55h-12a5.36,5.36,0,0,0,8.92,2.24,1.55,1.55,0,0,1,2.18,2.19,8.44,8.44,0,0,1-14.41-5.86.72.72,0,0,1,0-.24,8.45,8.45,0,0,1,16.89.12ZM446.14,326a5.43,5.43,0,0,0-1.35-2.25,5.35,5.35,0,0,0-8.92,2.25Z"/><path class="cls-1" d="M477.43,334.38V312.23a1.55,1.55,0,0,1,3.09,0v11.16L497,311a1.55,1.55,0,0,1,1.86,2.47l-10.2,7.69,10.44,12.22a1.55,1.55,0,0,1-.17,2.18,1.53,1.53,0,0,1-1,.37,1.58,1.58,0,0,1-1.18-.54L486.14,323l-5.62,4.24v7.12a1.55,1.55,0,1,1-3.09,0Z"/><path class="cls-1" d="M518.66,326.5v7.92a1.55,1.55,0,0,1-3.09,0V326.5a4.35,4.35,0,0,0-8.7,0v7.91a1.55,1.55,0,1,1-3.09,0V312.26a1.55,1.55,0,1,1,3.09,0v8.22a7.42,7.42,0,0,1,11.79,6Z"/><path class="cls-1" d="M538.68,327.51h0v6.89a1.55,1.55,0,1,1-3.09,0V334a8.46,8.46,0,1,1,0-13.05v-.38a1.55,1.55,0,1,1,3.09,0v6.89Zm-3.09,0a5.36,5.36,0,1,0-5.36,5.37,5.36,5.36,0,0,0,5.36-5.37Z"/><path class="cls-1" d="M557.89,334.42a1.54,1.54,0,0,1-1.54,1.54H544.57a1.55,1.55,0,0,1-1.18-2.55L553,322.15h-8.43a1.55,1.55,0,1,1,0-3.09h11.78a1.55,1.55,0,0,1,1.18,2.55l-9.61,11.26h8.43A1.54,1.54,0,0,1,557.89,334.42Z"/><path class="cls-1" d="M575.94,327.51h0v6.89a1.55,1.55,0,1,1-3.09,0V334a8.46,8.46,0,1,1,0-13.05v-.38a1.55,1.55,0,1,1,3.09,0v6.89Zm-3.09,0a5.36,5.36,0,1,0-5.36,5.37,5.36,5.36,0,0,0,5.36-5.37Z"/><path class="cls-1" d="M589.26,320.61a1.54,1.54,0,0,1-1.54,1.54,4.35,4.35,0,0,0-4.35,4.35v7.91a1.55,1.55,0,1,1-3.09,0v-13.8a1.54,1.54,0,0,1,3.08-.12,7.41,7.41,0,0,1,4.36-1.43A1.55,1.55,0,0,1,589.26,320.61Z"/><path class="cls-1" d="M600.36,331a2,2,0,0,0-1.38-1.36l-3.6-1.36A5,5,0,0,1,592,324.5a4.4,4.4,0,0,1,1.78-4.16h0a6.57,6.57,0,0,1,7.82,0h0a4.52,4.52,0,0,1,1.82,3.53,1.55,1.55,0,1,1-3.09,0,1.44,1.44,0,0,0-.63-1.1h0a3.54,3.54,0,0,0-4,0h0a1.38,1.38,0,0,0-.63,1.26,1.94,1.94,0,0,0,1.38,1.35l3.6,1.37a4.94,4.94,0,0,1,3.35,3.77,4.42,4.42,0,0,1-1.77,4.16h0a6.64,6.64,0,0,1-7.84,0,4.56,4.56,0,0,1-1.82-3.54,1.55,1.55,0,0,1,3.09,0,1.45,1.45,0,0,0,.64,1.1,3.54,3.54,0,0,0,4,0h0A1.35,1.35,0,0,0,600.36,331Z"/><path class="cls-1" d="M639.45,336.56a1.55,1.55,0,0,1-2.18,2.19,21.85,21.85,0,0,1,0-30.87,1.55,1.55,0,0,1,2.18,2.19A18.76,18.76,0,0,0,639.45,336.56Z"/><path class="cls-1" d="M657.79,327.51a1.54,1.54,0,0,1-1.54,1.55h-12a5.36,5.36,0,0,0,8.92,2.24,1.55,1.55,0,1,1,2.19,2.19,8.45,8.45,0,0,1-14.42-5.86.72.72,0,0,1,0-.24,8.45,8.45,0,0,1,16.89.12ZM654.48,326a5.37,5.37,0,0,0-8.93-2.25,5.39,5.39,0,0,0-1.34,2.25Z"/><path class="cls-1" d="M673,333.41a1.55,1.55,0,0,1-.18,2.18,1.54,1.54,0,0,1-2.17-.17L666,329.89l-4.72,5.53a1.54,1.54,0,0,1-2.17.17,1.55,1.55,0,0,1-.18-2.18l5-5.9-5-5.9a1.54,1.54,0,1,1,2.35-2l4.72,5.52,4.72-5.52a1.54,1.54,0,1,1,2.35,2l-5,5.9Z"/><path class="cls-1" d="M688.61,333.49a8.46,8.46,0,1,1,0-11.95,1.56,1.56,0,0,1,0,2.19,1.54,1.54,0,0,1-2.18,0,5.36,5.36,0,1,0,0,7.58,1.55,1.55,0,1,1,2.18,2.19Z"/><path class="cls-1" d="M709.05,327.51h0v6.89a1.55,1.55,0,1,1-3.09,0V334A8.46,8.46,0,1,1,706,321v-.38a1.55,1.55,0,1,1,3.09,0v6.89Zm-3.09,0a5.36,5.36,0,1,0-5.35,5.37A5.36,5.36,0,0,0,706,327.5Z"/><path class="cls-1" d="M728.15,321.21,722.25,335a1.54,1.54,0,0,1-1.42.94,1.56,1.56,0,0,1-1.42-.94l-5.89-13.81a1.54,1.54,0,0,1,2.84-1.21l4.47,10.48L725.31,320a1.54,1.54,0,0,1,2.84,1.21Z"/><path class="cls-1" d="M747,327.51h0v6.89a1.55,1.55,0,1,1-3.09,0V334a8.46,8.46,0,1,1,0-13.05v-.38a1.55,1.55,0,1,1,3.09,0v6.89Zm-3.09,0a5.36,5.36,0,1,0-5.36,5.37,5.36,5.36,0,0,0,5.36-5.37Z"/><path class="cls-1" d="M760.1,334.64a4.48,4.48,0,0,1-3.19,1.32,4.53,4.53,0,0,1-4.52-4.52v-9.39a1.54,1.54,0,0,1-1-1.44,1.52,1.52,0,0,1,1-1.44v-4.34a1.55,1.55,0,1,1,3.09,0v4.23h1a1.55,1.55,0,1,1,0,3.09h-1v9.29a1.43,1.43,0,0,0,2.44,1,1.55,1.55,0,1,1,2.18,2.19Z"/><path class="cls-1" d="M768,316.17h0a1.55,1.55,0,1,1-1.54-1.54A1.54,1.54,0,0,1,768,316.17Zm0,4.44v13.8a1.55,1.55,0,1,1-3.09,0v-13.8a1.55,1.55,0,1,1,3.09,0Z"/><path class="cls-1" d="M789.26,327.51a8.45,8.45,0,1,1-8.45-8.45A8.46,8.46,0,0,1,789.26,327.51Zm-3.09,0a5.36,5.36,0,1,0-5.36,5.36A5.37,5.37,0,0,0,786.17,327.51Z"/><path class="cls-1" d="M807.58,326.5v7.92a1.55,1.55,0,0,1-3.09,0V326.5a4.35,4.35,0,0,0-8.7,0v7.91a1.54,1.54,0,1,1-3.08,0v-13.8a1.54,1.54,0,0,1,3.07-.12,7.42,7.42,0,0,1,11.8,6Z"/><path class="cls-1" d="M819.44,331a2,2,0,0,0-1.38-1.36l-3.6-1.36a5,5,0,0,1-3.35-3.78,4.4,4.4,0,0,1,1.78-4.16h0a6.59,6.59,0,0,1,7.83,0h0a4.49,4.49,0,0,1,1.82,3.53,1.55,1.55,0,1,1-3.09,0,1.44,1.44,0,0,0-.63-1.1h0a3.54,3.54,0,0,0-4,0h0a1.35,1.35,0,0,0-.62,1.26,1.91,1.91,0,0,0,1.37,1.35l3.6,1.37a4.94,4.94,0,0,1,3.35,3.77,4.42,4.42,0,0,1-1.77,4.16h0a6.63,6.63,0,0,1-7.83,0,4.54,4.54,0,0,1-1.83-3.54,1.55,1.55,0,0,1,3.09,0,1.45,1.45,0,0,0,.64,1.1,3.54,3.54,0,0,0,4,0h0A1.35,1.35,0,0,0,819.44,331Z"/><path class="cls-1" d="M865.38,326.5v7.92a1.55,1.55,0,0,1-3.09,0V326.5a4.35,4.35,0,1,0-8.69,0v7.91a1.55,1.55,0,1,1-3.09,0V312.26a1.55,1.55,0,1,1,3.09,0v8.22a7.34,7.34,0,0,1,4.34-1.42A7.45,7.45,0,0,1,865.38,326.5Z"/><path class="cls-1" d="M885.4,327.51h0v6.89a1.55,1.55,0,1,1-3.09,0V334a8.46,8.46,0,1,1,0-13.05v-.38a1.55,1.55,0,1,1,3.09,0v6.89Zm-3.09,0a5.36,5.36,0,1,0-5.35,5.37,5.36,5.36,0,0,0,5.35-5.37Z"/><path class="cls-1" d="M904.5,321.21,898.6,335a1.54,1.54,0,0,1-1.42.94,1.56,1.56,0,0,1-1.42-.94l-5.89-13.81a1.54,1.54,0,0,1,2.84-1.21l4.47,10.48L901.66,320a1.54,1.54,0,0,1,2.84,1.21Z"/><path class="cls-1" d="M923.38,327.51a1.54,1.54,0,0,1-1.54,1.55h-12a5.37,5.37,0,0,0,8.92,2.24,1.55,1.55,0,1,1,2.19,2.19,8.45,8.45,0,0,1-14.42-5.86v-.24a8.45,8.45,0,0,1,16.89.12ZM920.07,326a5.36,5.36,0,0,0-8.92-2.25A5.41,5.41,0,0,0,909.8,326Z"/><path class="cls-1" d="M12.75,363.81a1.54,1.54,0,0,1-1.54,1.54,4.35,4.35,0,0,0-4.35,4.35v7.92a1.55,1.55,0,0,1-3.09,0V363.81a1.54,1.54,0,0,1,3.08-.12,7.4,7.4,0,0,1,4.36-1.42A1.54,1.54,0,0,1,12.75,363.81Z"/><path class="cls-1" d="M30.57,370.71A1.54,1.54,0,0,1,29,372.26H17a5.29,5.29,0,0,0,1.34,2.24,5.37,5.37,0,0,0,7.58,0,1.55,1.55,0,0,1,2.19,2.19,8.45,8.45,0,0,1-14.42-5.85.62.62,0,0,1,0-.13s0-.08,0-.12a8.45,8.45,0,0,1,16.89.12Zm-3.31-1.54a5.37,5.37,0,0,0-8.93-2.25A5.39,5.39,0,0,0,17,369.17Z"/><path class="cls-1" d="M47.14,364.42l-5.89,13.8a1.54,1.54,0,0,1-2.84,0l-5.89-13.8a1.55,1.55,0,0,1,2.84-1.22l4.47,10.48L44.3,363.2a1.55,1.55,0,1,1,2.84,1.22Z"/><path class="cls-1" d="M66,370.71a1.54,1.54,0,0,1-1.55,1.55h-12a5.29,5.29,0,0,0,1.34,2.24,5.37,5.37,0,0,0,7.58,0,1.55,1.55,0,0,1,2.19,2.19,8.45,8.45,0,0,1-14.42-5.85.62.62,0,0,1,0-.13s0-.08,0-.12a8.45,8.45,0,0,1,16.89.12Zm-3.31-1.54a5.37,5.37,0,0,0-8.93-2.25,5.39,5.39,0,0,0-1.34,2.25Z"/><path class="cls-1" d="M86,370.71h0v6.9a1.55,1.55,0,0,1-3.09,0v-.38a8.45,8.45,0,1,1,0-13.05v-.38a1.55,1.55,0,0,1,3.09,0v6.89Zm-3.09,0a5.36,5.36,0,1,0-5.36,5.36,5.37,5.37,0,0,0,5.36-5.36Z"/><path class="cls-1" d="M93.44,355.46v22.16a1.55,1.55,0,0,1-3.09,0V355.46a1.55,1.55,0,1,1,3.09,0Z"/><path class="cls-1" d="M114.34,370.71a1.54,1.54,0,0,1-1.54,1.55h-12a5.36,5.36,0,0,0,8.92,2.24,1.55,1.55,0,0,1,2.19,2.19,8.45,8.45,0,0,1-14.42-5.85v-.25a8.45,8.45,0,0,1,16.89.12ZM111,369.17a5.37,5.37,0,0,0-8.93-2.25,5.49,5.49,0,0,0-1.34,2.25Z"/><path class="cls-1" d="M134.32,370.71h0v6.9a1.55,1.55,0,0,1-3.09,0v-.38a8.45,8.45,0,1,1,0-13.05v-8.73a1.55,1.55,0,1,1,3.09,0V370.7Zm-3.09,0a5.36,5.36,0,1,0-5.36,5.36,5.36,5.36,0,0,0,5.36-5.36Z"/><path class="cls-1" d="M150.91,377.58V355.43a1.55,1.55,0,0,1,3.09,0v11.16l16.42-12.39a1.55,1.55,0,0,1,1.86,2.47l-10.19,7.69,10.44,12.22a1.55,1.55,0,0,1-.18,2.18,1.54,1.54,0,0,1-2.17-.17l-10.56-12.37L154,370.46v7.12a1.55,1.55,0,1,1-3.09,0Z"/><path class="cls-1" d="M192.13,369.7v7.92a1.55,1.55,0,0,1-3.09,0V369.7a4.35,4.35,0,1,0-8.69,0v7.92a1.55,1.55,0,0,1-3.09,0V355.46a1.55,1.55,0,1,1,3.09,0v8.22a7.34,7.34,0,0,1,4.35-1.41A7.43,7.43,0,0,1,192.13,369.7Z"/><path class="cls-1" d="M212.16,370.71h0v6.9a1.54,1.54,0,0,1-3.08,0v-.38a8.45,8.45,0,1,1,0-13.05v-.38a1.55,1.55,0,0,1,3.09,0v6.89Zm-3.09,0a5.36,5.36,0,1,0-5.36,5.36,5.37,5.37,0,0,0,5.36-5.36Z"/><path class="cls-1" d="M231.37,377.62a1.54,1.54,0,0,1-1.54,1.54H218a1.54,1.54,0,0,1-1.17-2.54l9.61-11.27H218a1.55,1.55,0,0,1,0-3.09h11.79a1.55,1.55,0,0,1,1.17,2.55l-9.61,11.26h8.44A1.54,1.54,0,0,1,231.37,377.62Z"/><path class="cls-1" d="M249.41,370.71h0v6.9a1.54,1.54,0,0,1-3.08,0v-.38a8.45,8.45,0,1,1,0-13.05v-.38a1.54,1.54,0,1,1,3.08,0v6.89Zm-3.08,0a5.36,5.36,0,1,0-5.36,5.36,5.37,5.37,0,0,0,5.36-5.36Z"/><path class="cls-1" d="M262.74,363.81a1.54,1.54,0,0,1-1.55,1.54,4.35,4.35,0,0,0-4.34,4.35v7.92a1.55,1.55,0,0,1-3.09,0V363.81a1.54,1.54,0,0,1,3.08-.12,7.37,7.37,0,0,1,4.35-1.42A1.54,1.54,0,0,1,262.74,363.81Z"/><path class="cls-1" d="M296.22,370.71h0v6.9a1.55,1.55,0,0,1-3.09,0v-.38a8.45,8.45,0,1,1,0-13.05v-.38a1.55,1.55,0,0,1,3.09,0v6.89Zm-3.09,0a5.36,5.36,0,1,0-5.36,5.36,5.37,5.37,0,0,0,5.36-5.36Z"/><path class="cls-1" d="M309.54,363.81a1.54,1.54,0,0,1-1.54,1.54,4.35,4.35,0,0,0-4.35,4.35v7.92a1.55,1.55,0,0,1-3.09,0V363.81a1.54,1.54,0,0,1,3.08-.12,7.38,7.38,0,0,1,4.36-1.42A1.54,1.54,0,0,1,309.54,363.81Z"/><path class="cls-1" d="M322.61,377.84a4.53,4.53,0,0,1-7.72-3.2v-9.39a1.53,1.53,0,0,1,0-2.88V358a1.55,1.55,0,1,1,3.09,0v4.24h1a1.54,1.54,0,0,1,0,3.08h-1v9.29a1.43,1.43,0,0,0,2.44,1,1.55,1.55,0,0,1,2.19,2.19Z"/><path class="cls-1" d="M330.5,359.37h0a1.54,1.54,0,1,1-1.54-1.55A1.54,1.54,0,0,1,330.5,359.38Zm0,4.44v13.81a1.54,1.54,0,0,1-3.08,0V363.81a1.54,1.54,0,0,1,3.08,0Z"/><path class="cls-1" d="M346.18,357.81a1.55,1.55,0,0,1-2.18,0,2.84,2.84,0,0,0-4.86,2v2.45h2.55a1.54,1.54,0,1,1,0,3.08h-2.55v12.27a1.55,1.55,0,0,1-3.09,0V365.31a1.54,1.54,0,0,1,0-3v-2.49a5.93,5.93,0,0,1,10.13-4.2A1.56,1.56,0,0,1,346.18,357.81Z"/><path class="cls-1" d="M358.57,370.71h0v6.9a1.55,1.55,0,0,1-3.09,0v-.38a8.45,8.45,0,1,1,0-13.05v-.38a1.55,1.55,0,0,1,3.09,0v6.89Zm-3.09,0a5.36,5.36,0,1,0-5.36,5.36,5.37,5.37,0,0,0,5.36-5.36Z"/><path class="cls-1" d="M377,376.69a8.45,8.45,0,1,1,0-11.95,1.55,1.55,0,1,1-2.19,2.18,5.35,5.35,0,0,0-7.57,0,5.36,5.36,0,1,0,7.58,7.58,1.55,1.55,0,0,1,2.18,2.19Z"/><path class="cls-1" d="M389.24,377.84a4.52,4.52,0,0,1-7.71-3.2v-9.39a1.53,1.53,0,0,1,0-2.88V358a1.55,1.55,0,1,1,3.09,0v4.24h1a1.54,1.54,0,1,1,0,3.08h-1v9.29a1.43,1.43,0,0,0,2.44,1,1.55,1.55,0,0,1,2.18,2.19Z"/><path class="cls-1" d="M400.27,374.2a2,2,0,0,0-1.38-1.36l-3.6-1.36a5,5,0,0,1-3.35-3.78,4.42,4.42,0,0,1,1.77-4.16h0a6.6,6.6,0,0,1,7.82,0h0a4.52,4.52,0,0,1,1.82,3.53,1.55,1.55,0,1,1-3.09,0,1.47,1.47,0,0,0-.63-1.1h0a3.55,3.55,0,0,0-4,0h0a1.37,1.37,0,0,0-.63,1.26,1.94,1.94,0,0,0,1.38,1.35L400,370a5,5,0,0,1,3.35,3.77,4.42,4.42,0,0,1-1.77,4.16h0a6.64,6.64,0,0,1-7.84,0h0a4.54,4.54,0,0,1-1.82-3.54,1.55,1.55,0,0,1,3.09,0,1.45,1.45,0,0,0,.64,1.1,3.54,3.54,0,0,0,4,0h0A1.35,1.35,0,0,0,400.27,374.2Z"/><path class="cls-1" d="M436.83,370.71h0v6.9a1.54,1.54,0,1,1-3.08,0v-.38a8.45,8.45,0,1,1,0-13.05v-8.73a1.54,1.54,0,1,1,3.08,0V370.7Zm-3.08,0a5.36,5.36,0,1,0-5.36,5.36,5.37,5.37,0,0,0,5.36-5.36Z"/><path class="cls-1" d="M457.71,370.71h0v6.9a1.54,1.54,0,0,1-3.08,0v-.38a8.45,8.45,0,1,1,0-13.05v-.38a1.54,1.54,0,1,1,3.08,0v6.89Zm-3.08,0a5.36,5.36,0,1,0-5.36,5.36,5.37,5.37,0,0,0,5.36-5.36Z"/><path class="cls-1" d="M470.79,377.84a4.53,4.53,0,0,1-7.72-3.2v-9.39a1.53,1.53,0,0,1,0-2.88V358a1.55,1.55,0,1,1,3.09,0v4.24h1a1.54,1.54,0,1,1,0,3.08h-1v9.29a1.43,1.43,0,0,0,2.44,1,1.55,1.55,0,0,1,2.19,2.19Z"/><path class="cls-1" d="M478.68,359.37h0a1.55,1.55,0,1,1-1.54-1.55A1.54,1.54,0,0,1,478.68,359.38Zm0,4.44v13.81a1.55,1.55,0,0,1-3.09,0V363.81a1.55,1.55,0,0,1,3.09,0Z"/><path class="cls-1" d="M497.92,369.7v7.92a1.55,1.55,0,0,1-3.09,0V369.7a4.35,4.35,0,0,0-8.7,0v7.92a1.54,1.54,0,0,1-3.08,0V363.81a1.54,1.54,0,0,1,3.07-.12,7.43,7.43,0,0,1,11.8,6Z"/><path class="cls-1" d="M517.94,363.81V379.1a8.45,8.45,0,0,1-14.42,6,1.55,1.55,0,0,1,0-2.18,1.53,1.53,0,0,1,2.18,0,5.36,5.36,0,0,0,9.15-3.79v-1.86a8.45,8.45,0,1,1,0-13.05v-.38a1.55,1.55,0,0,1,3.09,0Zm-3.09,6.9a5.36,5.36,0,1,0-5.36,5.36A5.37,5.37,0,0,0,514.85,370.71Z"/><path class="cls-1" d="M551.42,370.71a8.44,8.44,0,0,1-13.8,6.53v.38a1.55,1.55,0,0,1-3.09,0v-6.9h0V355.43a1.55,1.55,0,1,1,3.09,0v8.76a8.44,8.44,0,0,1,13.8,6.52Zm-3.09,0a5.36,5.36,0,1,0-10.71,0h0a5.36,5.36,0,0,0,10.71,0Z"/><path class="cls-1" d="M571.4,370.71h0v6.9a1.55,1.55,0,0,1-3.09,0v-.38a8.37,8.37,0,0,1-5.35,1.92,8.45,8.45,0,1,1,5.36-15v-.38a1.54,1.54,0,1,1,3.08,0v6.89Zm-3.08,0a5.36,5.36,0,1,0-5.36,5.36,5.37,5.37,0,0,0,5.36-5.36Z"/><path class="cls-1" d="M589.8,376.69a8.44,8.44,0,1,1,0-11.95,1.55,1.55,0,1,1-2.19,2.18,5.36,5.36,0,1,0,0,7.58,1.55,1.55,0,1,1,2.18,2.19Z"/><path class="cls-1" d="M609.11,376.62a1.54,1.54,0,0,1-2.35,2l-6.22-7.29-2.84,2.14v4.15a1.55,1.55,0,0,1-3.09,0V355.46a1.55,1.55,0,1,1,3.09,0V369.6l9.31-7a1.54,1.54,0,0,1,1.86,2.46L603,369.46Z"/><path class="cls-1" d="M634.84,377.84a4.53,4.53,0,0,1-7.72-3.2v-9.39a1.53,1.53,0,0,1,0-2.88V358a1.55,1.55,0,1,1,3.09,0v4.24h1a1.54,1.54,0,0,1,0,3.08h-1v9.29a1.44,1.44,0,0,0,1.44,1.43,1.42,1.42,0,0,0,1-.42,1.55,1.55,0,0,1,2.18,2.19Z"/><path class="cls-1" d="M653.31,370.71a8.45,8.45,0,1,1-8.45-8.44A8.46,8.46,0,0,1,653.31,370.71Zm-3.09,0a5.36,5.36,0,1,0-5.36,5.36A5.37,5.37,0,0,0,650.22,370.71Z"/><path class="cls-1" d="M678.62,377.84a4.53,4.53,0,0,1-7.72-3.2v-9.39a1.53,1.53,0,0,1,0-2.88V358a1.55,1.55,0,1,1,3.09,0v4.24h1a1.54,1.54,0,0,1,0,3.08h-1v9.29a1.44,1.44,0,0,0,2.45,1,1.55,1.55,0,0,1,2.18,2.19Z"/><path class="cls-1" d="M697.76,369.7v7.92a1.55,1.55,0,0,1-3.09,0V369.7a4.35,4.35,0,1,0-8.69,0v7.92a1.55,1.55,0,0,1-3.09,0V355.46a1.55,1.55,0,1,1,3.09,0v8.22a7.34,7.34,0,0,1,4.34-1.41A7.44,7.44,0,0,1,697.76,369.7Z"/><path class="cls-1" d="M717.78,370.71a1.54,1.54,0,0,1-1.54,1.55h-12a5.19,5.19,0,0,0,1.34,2.24,5.37,5.37,0,0,0,7.58,0,1.55,1.55,0,1,1,2.18,2.19,8.45,8.45,0,0,1-14.42-5.85v-.25a8.45,8.45,0,0,1,16.89.12Zm-3.31-1.54a5.35,5.35,0,0,0-8.92-2.25,5.29,5.29,0,0,0-1.34,2.25Z"/><path class="cls-1" d="M736.09,356.6a9.18,9.18,0,1,1,13,13L740,378.65a1.53,1.53,0,0,1-1.09.45,1.54,1.54,0,0,1-1.09-2.63l4.23-4.23a9.17,9.17,0,0,1-5.95-15.64Zm.4,6.49a6.08,6.08,0,1,0,1.78-4.31A6,6,0,0,0,736.49,363.09Z"/><path class="cls-1" d="M763.87,377.84a4.53,4.53,0,0,1-7.72-3.2v-9.39a1.53,1.53,0,0,1,0-2.88V358a1.55,1.55,0,1,1,3.09,0v4.24h1a1.54,1.54,0,0,1,0,3.08h-1v9.29a1.44,1.44,0,0,0,2.45,1,1.55,1.55,0,0,1,2.18,2.19Z"/><path class="cls-1" d="M783,369.7v7.92a1.55,1.55,0,0,1-3.09,0V369.7a4.35,4.35,0,1,0-8.69,0v7.92a1.55,1.55,0,0,1-3.09,0V355.46a1.55,1.55,0,1,1,3.09,0v8.22a7.34,7.34,0,0,1,4.34-1.41A7.44,7.44,0,0,1,783,369.7Z"/><path class="cls-1" d="M814.06,376.69a8.45,8.45,0,1,1,0-11.95,1.55,1.55,0,1,1-2.19,2.18,5.36,5.36,0,1,0,0,7.58,1.55,1.55,0,0,1,2.19,2.19Z"/><path class="cls-1" d="M834.5,370.71a1.54,1.54,0,0,1-1.54,1.55h-12a5.29,5.29,0,0,0,1.34,2.24,5.37,5.37,0,0,0,7.58,0,1.55,1.55,0,0,1,2.19,2.19,8.45,8.45,0,0,1-14.42-5.85s0-.09,0-.13,0-.08,0-.12a8.45,8.45,0,0,1,16.89.12Zm-3.31-1.54a5.37,5.37,0,0,0-8.93-2.25,5.39,5.39,0,0,0-1.34,2.25Z"/><path class="cls-1" d="M852.82,369.7v7.92a1.55,1.55,0,0,1-3.09,0V369.7a4.35,4.35,0,0,0-8.7,0v7.92a1.54,1.54,0,0,1-3.08,0V363.81a1.54,1.54,0,0,1,3.07-.12,7.43,7.43,0,0,1,11.8,6Z"/><path class="cls-1" d="M864.67,377.84a4.52,4.52,0,0,1-7.71-3.2v-9.39a1.53,1.53,0,0,1,0-2.88V358a1.54,1.54,0,1,1,3.08,0v4.24h1a1.54,1.54,0,1,1,0,3.08h-1v9.29a1.44,1.44,0,0,0,1.44,1.43,1.42,1.42,0,0,0,1-.42,1.55,1.55,0,0,1,2.18,2.19Z"/><path class="cls-1" d="M881.83,363.81v13.81a1.54,1.54,0,0,1-3.08.12,7.35,7.35,0,0,1-4.35,1.42,7.44,7.44,0,0,1-7.44-7.43v-7.92a1.55,1.55,0,0,1,3.09,0v7.92a4.35,4.35,0,0,0,8.69,0v-7.92a1.55,1.55,0,0,1,3.09,0Z"/><path class="cls-1" d="M895.2,363.81a1.54,1.54,0,0,1-1.54,1.54,4.35,4.35,0,0,0-4.35,4.35v7.92a1.55,1.55,0,0,1-3.09,0V363.81a1.54,1.54,0,0,1,3.08-.12,7.38,7.38,0,0,1,4.36-1.42A1.54,1.54,0,0,1,895.2,363.81Z"/><path class="cls-1" d="M913.75,364.42l-2.45,5.72-7,16.43a1.54,1.54,0,0,1-1.42.94,1.47,1.47,0,0,1-.61-.12,1.53,1.53,0,0,1-.81-2l3.28-7.73-5.64-13.22A1.55,1.55,0,1,1,902,363.2l4.47,10.48,2-4.7,0,0h0l2.45-5.74a1.55,1.55,0,0,1,2.84,1.22Z"/><path class="cls-1" d="M917.51,382a1.54,1.54,0,0,1-2.18-2.18,18.77,18.77,0,0,0,0-26.5,1.55,1.55,0,0,1,2.18-2.19A21.85,21.85,0,0,1,917.51,382Z"/><path class="cls-1" d="M20.67,413.91h0v6.89a1.55,1.55,0,1,1-3.09,0v-.37a8.46,8.46,0,1,1,0-13.05V407a1.55,1.55,0,1,1,3.09,0v6.89Zm-3.09,0a5.36,5.36,0,1,0-5.36,5.37,5.36,5.36,0,0,0,5.36-5.37Z"/><path class="cls-1" d="M39.88,412.9v7.92a1.54,1.54,0,1,1-3.08,0V412.9a4.35,4.35,0,0,0-8.7,0v7.92a1.55,1.55,0,0,1-3.09,0V407a1.54,1.54,0,0,1,3.08-.12,7.41,7.41,0,0,1,11.79,6Z"/><path class="cls-1" d="M59.91,413.91h0v6.89a1.55,1.55,0,1,1-3.09,0v-.37a8.46,8.46,0,1,1,0-13.05v-8.73a1.55,1.55,0,1,1,3.09,0V413.9Zm-3.09,0a5.36,5.36,0,1,0-5.36,5.37,5.36,5.36,0,0,0,5.36-5.37Z"/><path class="cls-1" d="M93.68,413.91a8.45,8.45,0,1,1-8.45-8.45A8.46,8.46,0,0,1,93.68,413.91Zm-3.09,0a5.36,5.36,0,1,0-5.36,5.36A5.37,5.37,0,0,0,90.59,413.91Z"/><path class="cls-1" d="M108.07,401a1.53,1.53,0,0,1-2.18,0,2.85,2.85,0,0,0-4.86,2v2.44h2.55a1.55,1.55,0,1,1,0,3.09H101v12.26a1.55,1.55,0,1,1-3.09,0v-12.3a1.54,1.54,0,0,1,0-3V403a5.93,5.93,0,0,1,10.13-4.2A1.53,1.53,0,0,1,108.07,401Z"/><path class="cls-1" d="M127.2,421a4.53,4.53,0,0,1-7.72-3.2v-9.39a1.54,1.54,0,0,1-1-1.44,1.52,1.52,0,0,1,1-1.44v-4.34a1.55,1.55,0,1,1,3.09,0v4.23h1a1.55,1.55,0,1,1,0,3.09h-1v9.29a1.43,1.43,0,0,0,2.44,1A1.55,1.55,0,0,1,127.2,421Z"/><path class="cls-1" d="M146.34,412.9v7.92a1.55,1.55,0,0,1-3.09,0V412.9a4.35,4.35,0,0,0-8.7,0v7.92a1.55,1.55,0,0,1-3.09,0V398.66a1.55,1.55,0,1,1,3.09,0v8.22a7.42,7.42,0,0,1,11.79,6Z"/><path class="cls-1" d="M166.36,413.91a1.54,1.54,0,0,1-1.54,1.55h-12a5.36,5.36,0,0,0,8.92,2.24,1.55,1.55,0,1,1,2.19,2.19A8.45,8.45,0,0,1,149.47,414c0-.05,0-.09,0-.13s0-.08,0-.12a8.45,8.45,0,0,1,16.89.12Zm-3.31-1.54a5.37,5.37,0,0,0-8.93-2.25,5.39,5.39,0,0,0-1.34,2.25Z"/><path class="cls-1" d="M203.13,403.13a6,6,0,0,1-1.71,4.21,8.12,8.12,0,0,1-4.33,15H184.78a1.56,1.56,0,0,1-1.1-.45,1.54,1.54,0,0,1-.45-1.09V398.63a1.54,1.54,0,0,1,1.55-1.54h12.31A6,6,0,0,1,203.13,403.13Zm-16.81,2.95h10.77a2.95,2.95,0,0,0,0-5.9H186.32Zm10.77,3.09H186.32v10.08h10.77a5,5,0,0,0,0-10.07Z"/><path class="cls-1" d="M222.5,407.62l-2.45,5.72-7,16.43a1.55,1.55,0,0,1-1.43.94,1.61,1.61,0,0,1-.6-.12,1.55,1.55,0,0,1-.82-2l3.28-7.73-5.64-13.22a1.55,1.55,0,0,1,2.84-1.22l4.47,10.48,2-4.7,0,0h0l2.44-5.73a1.55,1.55,0,0,1,2.85,1.22Z"/><path class="cls-1" d="M241.88,420.82a1.54,1.54,0,0,1-1.55,1.54H228.55a1.54,1.54,0,0,1-1.4-.9,1.56,1.56,0,0,1,.23-1.65L237,408.55h-8.44a1.55,1.55,0,0,1,0-3.09h11.78a1.55,1.55,0,0,1,1.18,2.55l-9.61,11.26h8.43A1.54,1.54,0,0,1,241.88,420.82Z"/><path class="cls-1" d="M259.92,413.91h0v6.89a1.55,1.55,0,1,1-3.09,0v-.37a8.46,8.46,0,1,1,0-13.05V407a1.55,1.55,0,1,1,3.09,0v6.89Zm-3.09,0a5.36,5.36,0,1,0-5.35,5.37,5.36,5.36,0,0,0,5.35-5.37Z"/><path class="cls-1" d="M279.14,412.9v7.92a1.55,1.55,0,0,1-3.09,0V412.9a4.35,4.35,0,0,0-8.7,0v7.92a1.54,1.54,0,0,1-3.08,0V407a1.54,1.54,0,0,1,3.07-.12,7.42,7.42,0,0,1,11.8,6Z"/><path class="cls-1" d="M291,421a4.52,4.52,0,0,1-7.71-3.2v-9.39a1.54,1.54,0,0,1-1-1.44,1.52,1.52,0,0,1,1-1.44v-4.34a1.55,1.55,0,1,1,3.09,0v4.23h1a1.55,1.55,0,1,1,0,3.09h-1v9.29a1.43,1.43,0,0,0,2.44,1A1.55,1.55,0,0,1,291,421Z"/><path class="cls-1" d="M298.89,402.57h0a1.55,1.55,0,1,1-1.54-1.54A1.54,1.54,0,0,1,298.89,402.57Zm0,4.44v13.81a1.55,1.55,0,0,1-3.09,0V407a1.55,1.55,0,1,1,3.09,0Z"/><path class="cls-1" d="M318.13,412.9v7.92a1.55,1.55,0,0,1-3.09,0V412.9a4.35,4.35,0,0,0-8.7,0v7.92a1.55,1.55,0,0,1-3.09,0V407a1.54,1.54,0,0,1,3.08-.12,7.42,7.42,0,0,1,11.8,6Z"/><path class="cls-1" d="M338.15,413.91a1.54,1.54,0,0,1-1.55,1.55h-12a5.36,5.36,0,0,0,8.92,2.24,1.55,1.55,0,1,1,2.19,2.19A8.45,8.45,0,0,1,321.26,414a.62.62,0,0,1,0-.13s0-.08,0-.12a8.45,8.45,0,0,1,16.89.12Zm-3.31-1.54a5.37,5.37,0,0,0-8.93-2.25,5.39,5.39,0,0,0-1.34,2.25Z"/><path class="cls-1" d="M356.57,397.09h18.89a1.55,1.55,0,0,1,0,3.09H358.11v8H366a1.55,1.55,0,1,1,0,3.09h-7.9v8h17.35a1.55,1.55,0,0,1,0,3.09H356.57A1.54,1.54,0,0,1,355,420.8V398.63A1.54,1.54,0,0,1,356.57,397.09Z"/><path class="cls-1" d="M408,412.9v7.92a1.55,1.55,0,0,1-3.09,0V412.9a4.35,4.35,0,0,0-8.7,0v7.92a1.54,1.54,0,0,1-3.08,0V412.9a4.35,4.35,0,0,0-8.7,0v7.92a1.55,1.55,0,0,1-3.09,0V407a1.54,1.54,0,0,1,3.08-.12,7.39,7.39,0,0,1,10.25,1.49A7.43,7.43,0,0,1,408,412.9Z"/><path class="cls-1" d="M429.3,413.91a8.45,8.45,0,0,1-13.81,6.53v8.73a1.54,1.54,0,0,1-3.08,0V413.92h0V407a1.54,1.54,0,0,1,3.08,0v.38a8.44,8.44,0,0,1,13.81,6.52Zm-3.09,0a5.36,5.36,0,0,0-10.72,0v0a5.36,5.36,0,0,0,10.72,0Z"/><path class="cls-1" d="M436.73,402.57h0a1.54,1.54,0,1,1-1.54-1.54A1.54,1.54,0,0,1,436.73,402.57Zm0,4.44v13.81a1.54,1.54,0,0,1-3.08,0V407a1.54,1.54,0,1,1,3.08,0Z"/><path class="cls-1" d="M450.08,407a1.55,1.55,0,0,1-1.55,1.54,4.35,4.35,0,0,0-4.35,4.35v7.92a1.54,1.54,0,0,1-3.08,0V407a1.54,1.54,0,0,1,3.07-.12,7.41,7.41,0,0,1,4.36-1.43A1.56,1.56,0,0,1,450.08,407Z"/><path class="cls-1" d="M467.89,413.91a1.54,1.54,0,0,1-1.54,1.55h-12a5.37,5.37,0,0,0,8.92,2.24,1.55,1.55,0,1,1,2.19,2.19A8.45,8.45,0,0,1,451,414v-.25a8.45,8.45,0,0,1,16.89.12Zm-3.31-1.54a5.36,5.36,0,0,0-8.92-2.25,5.41,5.41,0,0,0-1.35,2.25Z"/><path class="cls-1" d="M469.57,420.63a1.68,1.68,0,1,1,1.67,1.67A1.67,1.67,0,0,1,469.57,420.63Z"/></svg>