<svg id="Слой_1" data-name="Слой 1" xmlns="http://www.w3.org/2000/svg" viewBox="0 0 923.95 982.19"><defs><style>.cls-1{fill:#fff;}</style></defs><title>Монтажная область 3</title><path class="cls-1" d="M135.82,7.1H148.4a2.06,2.06,0,1,1,0,4.12H137.87V38.7a2.06,2.06,0,0,1-4.12,0V11.22H123.21a2.06,2.06,0,1,1,0-4.12h12.61Z"/><path class="cls-1" d="M176.12,28.18V38.74a2.06,2.06,0,1,1-4.12,0V28.18a5.8,5.8,0,0,0-11.6,0V38.74a2.06,2.06,0,1,1-4.11,0V9.19a2.06,2.06,0,1,1,4.11,0v11a9.9,9.9,0,0,1,15.72,8Z"/><path class="cls-1" d="M202.82,29.54a2.06,2.06,0,0,1-2.06,2.06h-16a7.07,7.07,0,0,0,1.79,3,7.15,7.15,0,0,0,10.11,0,2.06,2.06,0,0,1,2.91,2.91,11.27,11.27,0,0,1-19.23-7.8v-.33a11.27,11.27,0,0,1,22.53.17Zm-4.42-2.06a7.15,7.15,0,0,0-13.69,0Z"/><path class="cls-1" d="M243.8,37.5a11.27,11.27,0,1,1,0-15.93,2.06,2.06,0,0,1-2.91,2.91,7.16,7.16,0,0,0-10.11,0,7.15,7.15,0,1,0,10.11,10.11,2.06,2.06,0,0,1,2.91,2.91Z"/><path class="cls-1" d="M254.33,14.41h0a2.06,2.06,0,1,1-2.06-2.06A2.06,2.06,0,0,1,254.33,14.41Zm0,5.92V38.74a2.06,2.06,0,0,1-4.12,0V20.33a2.06,2.06,0,0,1,4.12,0Z"/><path class="cls-1" d="M271.78,39a6,6,0,0,1-10.29-4.27V22.25a2,2,0,0,1,0-3.85V12.62a2.06,2.06,0,0,1,4.12,0v5.65h1.33a2.06,2.06,0,1,1,0,4.12h-1.33V34.77a1.91,1.91,0,0,0,3.26,1.35A2.06,2.06,0,0,1,271.78,39Z"/><path class="cls-1" d="M292.58,21.14l-3.26,7.63h0L280,50.69a2.08,2.08,0,0,1-1.9,1.25,2.05,2.05,0,0,1-1.89-2.86l4.37-10.31-7.52-17.63a2.06,2.06,0,1,1,3.79-1.62l6,14,2.67-6.26,0-.06h0l3.26-7.64a2.06,2.06,0,1,1,3.79,1.62Z"/><path class="cls-1" d="M349.94,21.14l-7.85,18.41a2.06,2.06,0,0,1-3.79,0l-6-14-6,14a2.05,2.05,0,0,1-3.78,0l-7.86-18.41a2.06,2.06,0,0,1,3.79-1.62l6,14,6-14,.07-.12a1.43,1.43,0,0,1,.12-.21l.12-.16.13-.15.16-.14.15-.12.22-.12a.45.45,0,0,1,.12-.06h0l.25-.08.14,0,.22,0,.18,0h.15a2.13,2.13,0,0,1,.25,0l.12,0a1.38,1.38,0,0,1,.27.08h0a.45.45,0,0,1,.12.06,2.39,2.39,0,0,1,.22.12l.15.11c.05.05.11.09.16.15a.93.93,0,0,1,.13.15l.13.15a1.51,1.51,0,0,1,.11.22.75.75,0,0,1,.07.12l6,14,6-14a2.06,2.06,0,1,1,3.78,1.62Z"/><path class="cls-1" d="M375.11,29.54h0v9.19a2.06,2.06,0,0,1-4.12,0v-.5a11.27,11.27,0,1,1,0-17.41v-.5a2.06,2.06,0,0,1,4.12,0v9.21Zm-4.12,0a7.15,7.15,0,1,0-7.14,7.16A7.15,7.15,0,0,0,371,29.52Z"/><path class="cls-1" d="M392.07,34.18a2.62,2.62,0,0,0-1.84-1.81l-4.8-1.82a6.59,6.59,0,0,1-4.47-5A5.91,5.91,0,0,1,383.33,20h0a8.82,8.82,0,0,1,10.44,0h0a6,6,0,0,1,2.43,4.71,2.06,2.06,0,1,1-4.12,0,2,2,0,0,0-.84-1.47h0a4.75,4.75,0,0,0-5.37,0h0a1.82,1.82,0,0,0-.84,1.68,2.62,2.62,0,0,0,1.85,1.81l4.79,1.82a6.59,6.59,0,0,1,4.47,5,5.9,5.9,0,0,1-2.36,5.55h0a8.78,8.78,0,0,1-10.44,0h0a6,6,0,0,1-2.43-4.71,2.06,2.06,0,0,1,4.12,0,2,2,0,0,0,.84,1.47,4.76,4.76,0,0,0,5.38,0h0A1.79,1.79,0,0,0,392.07,34.18Z"/><path class="cls-1" d="M433,12.32a2,2,0,0,1-2.91,0A3.8,3.8,0,0,0,423.64,15v3.27H427a2.06,2.06,0,1,1,0,4.12h-3.4V38.74a2.06,2.06,0,0,1-4.12,0V22.32a2,2,0,0,1,0-4V15A7.91,7.91,0,0,1,433,9.41,2.06,2.06,0,0,1,433,12.32Z"/><path class="cls-1" d="M449.55,29.54a11.27,11.27,0,1,1-11.27-11.27A11.28,11.28,0,0,1,449.55,29.54Zm-4.12,0a7.15,7.15,0,1,0-7.15,7.14A7.15,7.15,0,0,0,445.43,29.54Z"/><path class="cls-1" d="M474.69,20.33V38.74a2.06,2.06,0,0,1-4.11.16,9.83,9.83,0,0,1-5.81,1.9,9.93,9.93,0,0,1-9.92-9.91V20.33a2.06,2.06,0,0,1,4.12,0V30.89a5.8,5.8,0,0,0,11.6,0V20.33a2.06,2.06,0,1,1,4.12,0Z"/><path class="cls-1" d="M500.37,28.18V38.74a2.06,2.06,0,0,1-4.12,0V28.18a5.8,5.8,0,0,0-11.6,0V38.74a2.06,2.06,0,0,1-4.12,0V20.33a2.06,2.06,0,0,1,4.11-.16,9.83,9.83,0,0,1,5.81-1.9A9.93,9.93,0,0,1,500.37,28.18Z"/><path class="cls-1" d="M527.07,29.54h0v9.19a2.06,2.06,0,1,1-4.12,0v-.5a11.27,11.27,0,1,1,0-17.41V9.19a2.06,2.06,0,0,1,4.12,0V29.54Zm-4.12,0a7.15,7.15,0,1,0-7.15,7.16A7.16,7.16,0,0,0,523,29.52Z"/><path class="cls-1" d="M554.91,29.54a2.07,2.07,0,0,1-2.06,2.06H536.8a7.07,7.07,0,0,0,1.79,3,7.14,7.14,0,0,0,10.1,0,2.06,2.06,0,1,1,2.92,2.91,11.26,11.26,0,0,1-19.23-7.8c0-.06,0-.11,0-.16s0-.11,0-.17a11.27,11.27,0,0,1,22.53.17Zm-4.42-2.06a7.16,7.16,0,0,0-11.9-3,7.1,7.1,0,0,0-1.79,3Z"/><path class="cls-1" d="M581.55,29.54h0v9.19a2.06,2.06,0,1,1-4.12,0v-.5a11.27,11.27,0,1,1,0-17.41V9.19a2.06,2.06,0,1,1,4.12,0V29.54Zm-4.12,0a7.15,7.15,0,1,0-7.15,7.16,7.16,7.16,0,0,0,7.15-7.16Z"/><path class="cls-1" d="M641.81,29.54h0v9.19a2.06,2.06,0,1,1-4.12,0v-.5a11.27,11.27,0,1,1,0-17.41v-.5a2.06,2.06,0,1,1,4.12,0v9.21Zm-4.12,0a7.15,7.15,0,1,0-7.15,7.16,7.16,7.16,0,0,0,7.15-7.16Z"/><path class="cls-1" d="M658.77,34.18a2.62,2.62,0,0,0-1.85-1.81l-4.79-1.82a6.59,6.59,0,0,1-4.47-5A5.89,5.89,0,0,1,650,20h0a8.82,8.82,0,0,1,10.44,0h0a6,6,0,0,1,2.43,4.71,2.06,2.06,0,1,1-4.12,0,2,2,0,0,0-.84-1.47h0a4.76,4.76,0,0,0-5.38,0h0a1.81,1.81,0,0,0-.83,1.68,2.62,2.62,0,0,0,1.84,1.81l4.8,1.82a6.58,6.58,0,0,1,4.46,5,5.86,5.86,0,0,1-2.36,5.55h0a8.78,8.78,0,0,1-10.44,0h0a6,6,0,0,1-2.43-4.71,2.06,2.06,0,1,1,4.11,0,2,2,0,0,0,.85,1.47,4.76,4.76,0,0,0,5.38,0h0A1.81,1.81,0,0,0,658.77,34.18Z"/><path class="cls-1" d="M715.28,7.1h12.59a2.06,2.06,0,0,1,0,4.12H717.33V38.7a2.06,2.06,0,0,1-4.12,0V11.22H702.67a2.06,2.06,0,1,1,0-4.12h12.61Z"/><path class="cls-1" d="M755.58,28.18V38.74a2.06,2.06,0,0,1-4.12,0V28.18a5.8,5.8,0,0,0-11.59,0V38.74a2.06,2.06,0,0,1-4.12,0V9.19a2.06,2.06,0,0,1,4.12,0v11a9.78,9.78,0,0,1,5.79-1.89A9.93,9.93,0,0,1,755.58,28.18Z"/><path class="cls-1" d="M782.28,29.54a2.06,2.06,0,0,1-2.06,2.06H764.17a7.07,7.07,0,0,0,1.79,3,7.15,7.15,0,0,0,10.11,0A2.06,2.06,0,1,1,779,37.5a11.27,11.27,0,0,1-19.23-7.8v-.33a11.27,11.27,0,0,1,22.53.17Zm-4.42-2.06a7.06,7.06,0,0,0-1.79-3,7.15,7.15,0,0,0-11.9,3Z"/><path class="cls-1" d="M808.92,29.54a11.27,11.27,0,1,1-11.27-11.27A11.27,11.27,0,0,1,808.92,29.54Zm-4.12,0a7.15,7.15,0,1,0-7.15,7.14A7.15,7.15,0,0,0,804.8,29.54Z"/><path class="cls-1" d="M835.56,29.54h0v9.19a2.06,2.06,0,1,1-4.12,0v-.5a11.27,11.27,0,1,1,0-17.41V9.19a2.06,2.06,0,1,1,4.12,0V29.54Zm-4.12,0a7.15,7.15,0,1,0-7.15,7.16,7.16,7.16,0,0,0,7.15-7.16Z"/><path class="cls-1" d="M863.4,29.54a11.27,11.27,0,1,1-11.27-11.27A11.27,11.27,0,0,1,863.4,29.54Zm-4.12,0a7.15,7.15,0,1,0-7.15,7.14A7.15,7.15,0,0,0,859.28,29.54Z"/><path class="cls-1" d="M878.68,34.18a2.62,2.62,0,0,0-1.85-1.81L872,30.55a6.59,6.59,0,0,1-4.47-5A5.89,5.89,0,0,1,869.94,20h0a8.82,8.82,0,0,1,10.44,0h0a6,6,0,0,1,2.43,4.71,2.06,2.06,0,1,1-4.12,0,2,2,0,0,0-.84-1.47h0a4.76,4.76,0,0,0-5.38,0h0a1.83,1.83,0,0,0-.83,1.68,2.62,2.62,0,0,0,1.84,1.81l4.8,1.82a6.59,6.59,0,0,1,4.47,5,5.9,5.9,0,0,1-2.36,5.55h0a8.78,8.78,0,0,1-10.44,0h0a6,6,0,0,1-2.43-4.71,2.06,2.06,0,1,1,4.12,0,2,2,0,0,0,.84,1.47,4.76,4.76,0,0,0,5.38,0h0A1.81,1.81,0,0,0,878.68,34.18Z"/><path class="cls-1" d="M892.7,14.41h0a2.06,2.06,0,1,1-2.06-2.06A2.06,2.06,0,0,1,892.7,14.41Zm0,5.92V38.74a2.06,2.06,0,0,1-4.12,0V20.33a2.06,2.06,0,0,1,4.12,0Z"/><path class="cls-1" d="M921.05,29.54h0v9.19a2.06,2.06,0,1,1-4.11,0v-.5a11.27,11.27,0,1,1,0-17.41v-.5a2.06,2.06,0,1,1,4.12,0v9.21Zm-4.12,0a7.15,7.15,0,1,0-7.15,7.16,7.16,7.16,0,0,0,7.15-7.16Z"/><path class="cls-1" d="M13.58,99.21a2.06,2.06,0,0,1-2.91,2.91,29.13,29.13,0,0,1,0-41.16,2.06,2.06,0,1,1,2.91,2.91A25,25,0,0,0,13.58,99.21Z"/><path class="cls-1" d="M14.35,82.51c0-10.27,6.39-17,15-17C38.21,65.52,44,72.29,44,81.89c0,11.13-6.77,17-15,17C20.35,98.93,14.35,92.3,14.35,82.51Zm25.2-.43c0-6.43-3.36-13.15-10.32-13.15S18.77,75.41,18.77,82.41c0,6.82,3.74,13.11,10.37,13.11S39.55,89.42,39.55,82.08ZM35.67,80v3.46h-13V80Z"/><path class="cls-1" d="M65.86,96.82a16.94,16.94,0,0,1-8.5,2.11c-4.66,0-9.79-1.83-9.79-7.06,0-2.88,2.35-5.28,5.76-5.81v-.24c-3.07-.67-4.61-2.59-4.61-4.89,0-3.08,3.07-6.29,9.26-6.29A12.37,12.37,0,0,1,65,76.41l-.91,2.79a12.53,12.53,0,0,0-5.81-1.44c-3.22,0-5.38,1.34-5.38,3.45,0,2.31,2.84,3.32,6.48,3.32h2.79v3H59.28c-4.18,0-7.3,1.15-7.3,3.94s2.88,4.22,6.29,4.22a15.45,15.45,0,0,0,6.82-1.77Z"/><path class="cls-1" d="M91.2,86.59c0,8.59-6,12.34-11.57,12.34-6.29,0-11.13-4.61-11.13-12,0-7.78,5.08-12.34,11.52-12.34C86.69,74.64,91.2,79.49,91.2,86.59Zm-18.43.24c0,5.09,2.93,8.93,7,8.93s7.06-3.79,7.06-9c0-3.93-2-8.92-7-8.92S72.77,82.41,72.77,86.83Z"/><path class="cls-1" d="M114.14,68.88A12.45,12.45,0,0,0,107.81,67c-2.64,0-3.94,1-3.94,2.16s1.3,2.16,3.46,3.89l3.93,3.16c3.84,2.93,6.15,6.29,6.15,10.9,0,7.2-5,11.86-11.28,11.86-6,0-11.28-4.23-11.28-11.67,0-6,4.08-9.89,8.83-12.14v-.24l-1.1-.87c-1.11-.91-2.93-2.59-2.93-4.8,0-2.59,2.64-5.42,8.06-5.42a13.26,13.26,0,0,1,7.68,2.3Zm-8,8.21c-3.65,1.92-7,5-7,10.12,0,5.43,3.6,8.55,7.25,8.55s6.81-3.12,6.81-8.4c0-3.27-1.53-6-4.51-8.26Z"/><path class="cls-1" d="M143.76,86.59c0,8.59-5.95,12.34-11.57,12.34-6.29,0-11.14-4.61-11.14-12,0-7.78,5.09-12.34,11.53-12.34C139.25,74.64,143.76,79.49,143.76,86.59Zm-18.43.24c0,5.09,2.93,8.93,7,8.93s7.06-3.79,7.06-9c0-3.93-2-8.92-7-8.92S125.33,82.41,125.33,86.83Z"/><path class="cls-1" d="M171.46,77.85c-1.16,0-2.69,0-6.1-.19v.19a10.65,10.65,0,0,1,4.32,8.79c0,8.54-5.86,12.29-11.14,12.29-6.29,0-11.13-4.56-11.13-11.91,0-7.77,4.94-12.33,12-12.38H171.6Zm-6,8.79c0-3.94-2-8.83-6.81-8.83s-7,4.6-7,9c0,5.09,2.93,8.93,7,8.93C162.48,95.76,165.5,91.92,165.5,86.64Z"/><path class="cls-1" d="M180.14,92.78c0,2.07.43,2.93,2.26,2.84l-.24,3.07a7.38,7.38,0,0,1-1.92.24c-2.45,0-4.32-1.11-4.32-5.71v-18h4.22Zm2.93-27.36-4,6.87h-2.84l2.55-6.87Z"/><path class="cls-1" d="M207.21,75.17c-.24,2.44-.62,10.41-.62,16.61,0,2.73.67,3.88,2.3,3.93l-.33,3a4.3,4.3,0,0,1-1.44.19c-2.07,0-3.75-1.35-4-4.9H203a8.89,8.89,0,0,1-7.92,4.9c-5.52,0-9.51-4.61-9.51-11.67,0-7.58,5-12.62,10.37-12.62a7.43,7.43,0,0,1,7.16,4.65h.19a33.4,33.4,0,0,1,.43-4.12Zm-11.08,20.4c2.92,0,5.47-2.83,6.19-5.91a13.73,13.73,0,0,0,.29-3.26,10.19,10.19,0,0,0-.2-2.5c-.57-3.12-2.88-6-5.95-6-3.94,0-6.62,3.89-6.62,9.17C189.84,91.54,192.09,95.57,196.13,95.57Z"/><path class="cls-1" d="M212.07,102.12a2.06,2.06,0,0,1-2.91-2.91,25,25,0,0,0,0-35.34A2.06,2.06,0,0,1,212.07,61,29.13,29.13,0,0,1,212.07,102.12Z"/><path class="cls-1" d="M267.62,87.14a11.27,11.27,0,0,1-18.42,8.7v.5a2.06,2.06,0,1,1-4.11,0v-9.2h0V66.75a2.06,2.06,0,1,1,4.11,0V78.43a11.27,11.27,0,0,1,18.42,8.71Zm-4.12,0a7.15,7.15,0,0,0-14.3,0h0a7.15,7.15,0,0,0,14.3,0Z"/><path class="cls-1" d="M289.71,78.74l-3.26,7.64h0l-9.3,21.91a2.05,2.05,0,0,1-1.9,1.25,2.05,2.05,0,0,1-1.89-2.86l4.38-10.31-7.53-17.63A2.06,2.06,0,1,1,274,77.12l6,14,2.68-6.26,0-.06h0l3.27-7.64a2.06,2.06,0,1,1,3.78,1.62Z"/><path class="cls-1" d="M343.84,69.63a2.06,2.06,0,1,1-2.91,2.91,12.71,12.71,0,1,0-.61,18.52V81.54a2.06,2.06,0,1,1,4.12,0V96.3a2.06,2.06,0,1,1-4.12,0v-.18a16.83,16.83,0,1,1,3.52-26.49Z"/><path class="cls-1" d="M362.23,77.93A2.06,2.06,0,0,1,360.17,80a5.81,5.81,0,0,0-5.8,5.79V96.34a2.06,2.06,0,1,1-4.11,0V77.93a2.05,2.05,0,0,1,4.1-.16,9.83,9.83,0,0,1,5.81-1.9A2.06,2.06,0,0,1,362.23,77.93Z"/><path class="cls-1" d="M386,87.14a2.06,2.06,0,0,1-2.06,2.06H367.88a7.07,7.07,0,0,0,1.79,3,7.15,7.15,0,0,0,10.11,0,2.06,2.06,0,1,1,2.91,2.91,11.27,11.27,0,0,1-19.23-7.8V87a11.27,11.27,0,0,1,22.53.17Zm-4.42-2.06a7.06,7.06,0,0,0-1.79-3,7.15,7.15,0,0,0-11.9,3Z"/><path class="cls-1" d="M412.63,87.14a2.06,2.06,0,0,1-2.06,2.06H394.52a7.07,7.07,0,0,0,1.79,3,7.15,7.15,0,0,0,10.11,0,2.06,2.06,0,0,1,2.91,2.91,11.27,11.27,0,0,1-19.23-7.8V87a11.27,11.27,0,0,1,22.53.17Zm-4.42-2.06a7.06,7.06,0,0,0-1.79-3,7.15,7.15,0,0,0-11.9,3Z"/><path class="cls-1" d="M437.76,95a2.06,2.06,0,0,1-3.14,2.67L426.32,88l-3.79,2.86v5.53a2.06,2.06,0,1,1-4.11,0V66.79a2.06,2.06,0,1,1,4.11,0V85.65L435,76.28a2.06,2.06,0,0,1,2.48,3.29l-7.82,5.9Z"/><path class="cls-1" d="M482.72,95.1a11.27,11.27,0,1,1,0-15.93,2.06,2.06,0,0,1-2.92,2.91,7.15,7.15,0,1,0,0,10.11,2.06,2.06,0,0,1,2.92,2.91Z"/><path class="cls-1" d="M510,87.14a11.27,11.27,0,1,1-11.26-11.27A11.27,11.27,0,0,1,510,87.14Zm-4.11,0a7.15,7.15,0,1,0-7.15,7.14A7.16,7.16,0,0,0,505.86,87.14Z"/><path class="cls-1" d="M519.88,66.79V96.34a2.06,2.06,0,1,1-4.12,0V66.79a2.06,2.06,0,1,1,4.12,0Z"/><path class="cls-1" d="M547.75,87.14a11.27,11.27,0,1,1-11.27-11.27A11.27,11.27,0,0,1,547.75,87.14Zm-4.12,0a7.15,7.15,0,1,0-7.15,7.14A7.16,7.16,0,0,0,543.63,87.14Z"/><path class="cls-1" d="M572.17,85.78V96.34a2.06,2.06,0,1,1-4.12,0V85.78a5.8,5.8,0,0,0-11.59,0V96.34a2.06,2.06,0,0,1-4.12,0V77.93a2.05,2.05,0,0,1,4.1-.16,9.9,9.9,0,0,1,15.73,8Z"/><path class="cls-1" d="M582.14,72h0A2.06,2.06,0,1,1,580.08,70,2.06,2.06,0,0,1,582.14,72Zm0,5.92V96.34a2.06,2.06,0,1,1-4.12,0V77.93a2.06,2.06,0,1,1,4.12,0Z"/><path class="cls-1" d="M599.12,91.78A2.6,2.6,0,0,0,597.28,90l-4.8-1.82a6.58,6.58,0,0,1-4.46-5,5.88,5.88,0,0,1,2.36-5.55h0a8.81,8.81,0,0,1,10.43,0h0a6,6,0,0,1,2.43,4.71,2.06,2.06,0,1,1-4.12,0,1.93,1.93,0,0,0-.85-1.47h0a4.75,4.75,0,0,0-5.37,0h0a1.81,1.81,0,0,0-.83,1.68,2.58,2.58,0,0,0,1.84,1.81l4.79,1.82a6.59,6.59,0,0,1,4.47,5,5.9,5.9,0,0,1-2.36,5.55h0a8.8,8.8,0,0,1-10.45,0h0A6,6,0,0,1,588,92a2.06,2.06,0,0,1,4.12,0,1.93,1.93,0,0,0,.85,1.47,4.75,4.75,0,0,0,5.37,0h0A1.81,1.81,0,0,0,599.12,91.78Z"/><path class="cls-1" d="M620.66,96.64a6,6,0,0,1-4.26,1.76,6,6,0,0,1-6-6V79.85a2,2,0,0,1,0-3.85V70.22a2.06,2.06,0,0,1,4.12,0v5.65h1.33a2.06,2.06,0,0,1,0,4.12h-1.33V92.37a1.91,1.91,0,0,0,3.26,1.35,2.06,2.06,0,0,1,2.91,2.92Z"/><path class="cls-1" d="M635.36,91.78A2.6,2.6,0,0,0,633.52,90l-4.8-1.82a6.58,6.58,0,0,1-4.46-5,5.88,5.88,0,0,1,2.36-5.55h0a8.81,8.81,0,0,1,10.43,0h0a6,6,0,0,1,2.43,4.71,2.06,2.06,0,1,1-4.12,0,1.93,1.93,0,0,0-.85-1.47h0a4.75,4.75,0,0,0-5.37,0h0a1.81,1.81,0,0,0-.83,1.68,2.58,2.58,0,0,0,1.84,1.81L635,86.12a6.59,6.59,0,0,1,4.47,5,5.9,5.9,0,0,1-2.36,5.55h0a8.8,8.8,0,0,1-10.45,0h0A6,6,0,0,1,624.19,92a2.06,2.06,0,0,1,4.12,0,1.93,1.93,0,0,0,.85,1.47,4.75,4.75,0,0,0,5.37,0h0A1.81,1.81,0,0,0,635.36,91.78Z"/><path class="cls-1" d="M679.75,69.92a2.06,2.06,0,0,1-2.92,0,3.74,3.74,0,0,0-2.68-1.11,3.8,3.8,0,0,0-3.8,3.79v3.27h3.41a2.06,2.06,0,1,1,0,4.12h-3.41V96.34a2.06,2.06,0,0,1-4.12,0V79.92a2.05,2.05,0,0,1,0-4V72.6A7.92,7.92,0,0,1,679.75,67,2.06,2.06,0,0,1,679.75,69.92Z"/><path class="cls-1" d="M688.87,77.93A2.06,2.06,0,0,1,686.81,80,5.8,5.8,0,0,0,681,85.78V96.34a2.06,2.06,0,1,1-4.12,0V77.93a2.05,2.05,0,0,1,4.1-.16,9.85,9.85,0,0,1,5.81-1.9A2.06,2.06,0,0,1,688.87,77.93Z"/><path class="cls-1" d="M712.63,87.14a11.27,11.27,0,1,1-11.27-11.27A11.27,11.27,0,0,1,712.63,87.14Zm-4.12,0a7.15,7.15,0,1,0-7.15,7.14A7.16,7.16,0,0,0,708.51,87.14Z"/><path class="cls-1" d="M752.76,85.78V96.34a2.06,2.06,0,1,1-4.12,0V85.78a5.8,5.8,0,0,0-11.59,0V96.34a2.06,2.06,0,1,1-4.12,0V85.78a5.8,5.8,0,0,0-11.59,0V96.34a2.06,2.06,0,0,1-4.12,0V77.93a2.05,2.05,0,0,1,4.1-.16,9.86,9.86,0,0,1,13.67,2,9.9,9.9,0,0,1,17.77,6Z"/><path class="cls-1" d="M781.61,65.42l14.18,16.63L810,65.42a2.07,2.07,0,0,1,3.63,1.34V96.3a2.06,2.06,0,0,1-4.12,0v-24L797.36,86.56l-.12.12-.11.11,0,0-.19.13-.15.09a1.63,1.63,0,0,1-.19.09l-.18.07-.2,0-.19,0a1.33,1.33,0,0,1-.2,0,1.34,1.34,0,0,1-.2,0l-.2,0-.18,0-.19-.07-.19-.08-.16-.11a1.88,1.88,0,0,1-.18-.12l0,0a.68.68,0,0,1-.12-.12l-.12-.11L782.11,72.35v24a2.06,2.06,0,0,1-4.12,0V66.76a2,2,0,0,1,1.34-1.93A2.07,2.07,0,0,1,781.61,65.42Z"/><path class="cls-1" d="M823.48,72h0A2.06,2.06,0,1,1,821.42,70,2.06,2.06,0,0,1,823.48,72Zm0,5.92V96.34a2.06,2.06,0,0,1-4.12,0V77.93a2.06,2.06,0,0,1,4.12,0Z"/><path class="cls-1" d="M833.42,66.79V96.34a2.06,2.06,0,1,1-4.12,0V66.79a2.06,2.06,0,1,1,4.12,0Z"/><path class="cls-1" d="M861.29,87.14a2.06,2.06,0,0,1-2.06,2.06H843.18a7.07,7.07,0,0,0,1.79,3,7.15,7.15,0,0,0,10.11,0A2.06,2.06,0,1,1,858,95.1a11.26,11.26,0,0,1-19.23-7.8c0-.06,0-.11,0-.16s0-.11,0-.17a11.27,11.27,0,0,1,22.53.17Zm-4.42-2.06a7.27,7.27,0,0,0-1.79-3,7.15,7.15,0,0,0-11.9,3Z"/><path class="cls-1" d="M877,96.64a6,6,0,0,1-4.26,1.76,6,6,0,0,1-6-6V79.85a2,2,0,0,1,0-3.85V70.22a2.06,2.06,0,0,1,4.12,0v5.65h1.33a2.06,2.06,0,0,1,0,4.12h-1.33V92.37a1.91,1.91,0,0,0,3.26,1.35A2.06,2.06,0,1,1,877,96.64Z"/><path class="cls-1" d="M901.65,87.14a11.27,11.27,0,1,1-11.26-11.27A11.27,11.27,0,0,1,901.65,87.14Zm-4.11,0a7.15,7.15,0,1,0-7.15,7.14A7.16,7.16,0,0,0,897.54,87.14Z"/><path class="cls-1" d="M916.93,91.78A2.6,2.6,0,0,0,915.09,90l-4.8-1.82a6.58,6.58,0,0,1-4.46-5,5.88,5.88,0,0,1,2.36-5.55h0a8.81,8.81,0,0,1,10.43,0h0a6,6,0,0,1,2.43,4.71,2.06,2.06,0,0,1-4.12,0,1.93,1.93,0,0,0-.85-1.47h0a4.75,4.75,0,0,0-5.37,0h0a1.81,1.81,0,0,0-.83,1.68,2.58,2.58,0,0,0,1.84,1.81l4.8,1.82a6.59,6.59,0,0,1,4.46,5,5.9,5.9,0,0,1-2.36,5.55h0a8.8,8.8,0,0,1-10.45,0h0A6,6,0,0,1,905.76,92a2.06,2.06,0,1,1,4.12,0,1.93,1.93,0,0,0,.85,1.47,4.75,4.75,0,0,0,5.37,0h0A1.81,1.81,0,0,0,916.93,91.78Z"/><path class="cls-1" d="M7,129.61H7a2.06,2.06,0,1,1-2.06-2.06A2.06,2.06,0,0,1,7,129.61Zm0,5.92v18.41a2.06,2.06,0,0,1-4.12,0V135.53a2.06,2.06,0,0,1,4.12,0Z"/><path class="cls-1" d="M32.65,143.38v10.56a2.06,2.06,0,0,1-4.12,0V143.38a5.8,5.8,0,0,0-11.6,0v10.56a2.06,2.06,0,1,1-4.11,0V135.53a2.05,2.05,0,0,1,4.1-.16,9.83,9.83,0,0,1,5.81-1.9A9.93,9.93,0,0,1,32.65,143.38Z"/><path class="cls-1" d="M76.08,154.24A6,6,0,0,1,65.79,150V137.45a2,2,0,0,1,0-3.85v-5.78a2.06,2.06,0,0,1,4.12,0v5.65h1.32a2.06,2.06,0,0,1,0,4.12H69.91V150a1.9,1.9,0,0,0,1.91,1.91,1.86,1.86,0,0,0,1.35-.56,2.06,2.06,0,0,1,2.91,2.92Z"/><path class="cls-1" d="M101.6,143.38v10.56a2.06,2.06,0,0,1-4.12,0V143.38a5.8,5.8,0,0,0-11.59,0v10.56a2.06,2.06,0,0,1-4.12,0V124.39a2.06,2.06,0,0,1,4.12,0v11a9.78,9.78,0,0,1,5.79-1.89A9.93,9.93,0,0,1,101.6,143.38Z"/><path class="cls-1" d="M128.3,144.74a2.06,2.06,0,0,1-2.06,2.06h-16a7.15,7.15,0,0,0,11.9,3A2.06,2.06,0,0,1,125,152.7a11.27,11.27,0,0,1-19.23-7.8v-.33a11.27,11.27,0,0,1,22.53.17Zm-4.42-2.06a7.06,7.06,0,0,0-1.79-3,7.15,7.15,0,0,0-11.9,3Z"/><path class="cls-1" d="M179.63,152.34A12.24,12.24,0,0,1,162.32,135h0l12.1-12.1a2.06,2.06,0,0,1,2.91,2.91l-5.64,5.64a12.13,12.13,0,0,1,7.94,3.55A12.26,12.26,0,0,1,179.63,152.34Zm-2.91-14.4a8.12,8.12,0,1,0,0,11.49A8.1,8.1,0,0,0,176.72,137.94Z"/><path class="cls-1" d="M199.37,154.24A6,6,0,0,1,189.08,150V137.45a2,2,0,0,1,0-3.85v-5.78a2.06,2.06,0,0,1,4.12,0v5.65h1.32a2.06,2.06,0,0,1,0,4.12H193.2V150a1.9,1.9,0,0,0,1.91,1.91,1.86,1.86,0,0,0,1.35-.56,2.06,2.06,0,1,1,2.91,2.92Z"/><path class="cls-1" d="M224.89,143.38v10.56a2.06,2.06,0,0,1-4.12,0V143.38a5.8,5.8,0,0,0-11.59,0v10.56a2.06,2.06,0,0,1-4.12,0V124.39a2.06,2.06,0,1,1,4.12,0v11a9.78,9.78,0,0,1,5.79-1.89A9.93,9.93,0,0,1,224.89,143.38Z"/><path class="cls-1" d="M275.91,152.7a11.27,11.27,0,1,1,0-15.93,2.06,2.06,0,1,1-2.92,2.91,7.15,7.15,0,1,0,0,10.11,2.06,2.06,0,1,1,2.91,2.91Z"/><path class="cls-1" d="M303.17,144.74a2.07,2.07,0,0,1-2.06,2.06H285.06a7.07,7.07,0,0,0,1.79,3,7.14,7.14,0,0,0,10.1,0,2.06,2.06,0,0,1,2.92,2.91,11.26,11.26,0,0,1-19.23-7.8c0-.06,0-.11,0-.16s0-.11,0-.17a11.27,11.27,0,0,1,22.53.17Zm-4.42-2.06a7.16,7.16,0,0,0-11.9-3,7.1,7.1,0,0,0-1.79,3Z"/><path class="cls-1" d="M327.59,143.38v10.56a2.06,2.06,0,0,1-4.12,0V143.38a5.8,5.8,0,0,0-11.6,0v10.56a2.06,2.06,0,0,1-4.12,0V135.53a2.06,2.06,0,0,1,4.11-.16,9.83,9.83,0,0,1,5.81-1.9A9.93,9.93,0,0,1,327.59,143.38Z"/><path class="cls-1" d="M343.39,154.24a6,6,0,0,1-4.26,1.76,6,6,0,0,1-6-6V137.45a2,2,0,0,1,0-3.85v-5.78a2.06,2.06,0,0,1,4.12,0v5.65h1.33a2.06,2.06,0,1,1,0,4.12h-1.33V150a1.91,1.91,0,0,0,1.91,1.91,1.86,1.86,0,0,0,1.35-.56,2.06,2.06,0,0,1,2.91,2.92Z"/><path class="cls-1" d="M366.27,135.53v18.41a2.05,2.05,0,0,1-4.1.16,9.83,9.83,0,0,1-5.81,1.9,9.93,9.93,0,0,1-9.92-9.91V135.53a2.06,2.06,0,1,1,4.12,0v10.56a5.8,5.8,0,0,0,11.6,0V135.53a2.06,2.06,0,1,1,4.11,0Z"/><path class="cls-1" d="M384.1,135.53a2.06,2.06,0,0,1-2.06,2.06,5.8,5.8,0,0,0-5.8,5.79v10.56a2.06,2.06,0,0,1-4.12,0V135.53a2.05,2.05,0,0,1,4.1-.16,9.86,9.86,0,0,1,5.82-1.9A2.06,2.06,0,0,1,384.1,135.53Z"/><path class="cls-1" d="M408.83,136.34,405.57,144h0l-9.3,21.91a2.08,2.08,0,0,1-1.9,1.25,2.05,2.05,0,0,1-1.89-2.86L396.85,154l-7.52-17.63a2.06,2.06,0,1,1,3.79-1.62l6,14,2.67-6.26,0-.06h0l3.26-7.64a2.06,2.06,0,1,1,3.79,1.62Z"/><path class="cls-1" d="M467.33,130.36a8,8,0,0,1-2.28,5.61,10.83,10.83,0,0,1-5.78,20H442.84a2,2,0,0,1-2-2.05V124.36a2.05,2.05,0,0,1,2-2.06h16.43A8.07,8.07,0,0,1,467.33,130.36Zm-22.43,3.93h14.37a3.94,3.94,0,1,0,0-7.87H444.9Zm14.37,4.12H444.9v13.44h14.37a6.72,6.72,0,0,0,0-13.43Z"/><path class="cls-1" d="M483,130.14a12.71,12.71,0,0,0,18,18,2.06,2.06,0,0,1,2.91,2.91,16.83,16.83,0,1,1,0-23.8,2.06,2.06,0,0,1-2.91,2.91A12.73,12.73,0,0,0,483,130.14Z"/><path class="cls-1" d="M506.74,153.7a2.23,2.23,0,1,1,2.22,2.23A2.22,2.22,0,0,1,506.74,153.7Z"/><path class="cls-1" d="M568.72,124.36v29.56a2.06,2.06,0,0,1-1.35,1.93,2.16,2.16,0,0,1-.71.12,2.06,2.06,0,0,1-1.57-.72L543.52,130v24a2.06,2.06,0,1,1-4.12,0V124.36A2.07,2.07,0,0,1,543,123l21.57,25.31v-24a2.06,2.06,0,0,1,4.12,0Z"/><path class="cls-1" d="M597.07,144.74a11.27,11.27,0,1,1-11.27-11.27A11.27,11.27,0,0,1,597.07,144.74Zm-4.12,0a7.15,7.15,0,1,0-7.15,7.14A7.15,7.15,0,0,0,593,144.74Z"/><path class="cls-1" d="M612.82,154.24A6,6,0,0,1,602.53,150V137.45a2,2,0,0,1,0-3.85v-5.78a2.06,2.06,0,1,1,4.11,0v5.65H608a2.06,2.06,0,0,1,0,4.12h-1.33V150a1.92,1.92,0,0,0,3.27,1.35,2.06,2.06,0,0,1,2.91,2.92Z"/><path class="cls-1" d="M637.44,144.74a2.06,2.06,0,0,1-2.06,2.06h-16a7.07,7.07,0,0,0,1.79,3,7.15,7.15,0,0,0,10.11,0,2.06,2.06,0,0,1,2.91,2.91,11.27,11.27,0,0,1-19.23-7.8v-.33a11.27,11.27,0,0,1,22.53.17ZM633,142.68a7.06,7.06,0,0,0-1.79-3,7.15,7.15,0,0,0-11.9,3Z"/><path class="cls-1" d="M664.08,144.74h0v9.19a2.06,2.06,0,0,1-4.12,0v-.5A11.27,11.27,0,1,1,660,136V124.39a2.06,2.06,0,0,1,4.12,0v20.35Zm-4.12,0a7.15,7.15,0,1,0-7.15,7.16,7.16,7.16,0,0,0,7.15-7.16Z"/><path class="cls-1" d="M710.9,127.52a2,2,0,0,1-2.91,0,3.8,3.8,0,0,0-6.48,2.69v3.26h3.4a2.06,2.06,0,1,1,0,4.12h-3.4v16.35a2.06,2.06,0,1,1-4.12,0V137.52a2,2,0,0,1,0-4v-3.32a7.91,7.91,0,0,1,13.51-5.6A2.06,2.06,0,0,1,710.9,127.52Z"/><path class="cls-1" d="M727.42,144.74a11.27,11.27,0,1,1-11.27-11.27A11.28,11.28,0,0,1,727.42,144.74Zm-4.12,0a7.15,7.15,0,1,0-7.15,7.14A7.15,7.15,0,0,0,723.3,144.74Z"/><path class="cls-1" d="M744,135.53a2.06,2.06,0,0,1-2.06,2.06,5.8,5.8,0,0,0-5.8,5.79v10.56a2.06,2.06,0,0,1-4.12,0V135.53a2.06,2.06,0,0,1,4.11-.16,9.83,9.83,0,0,1,5.81-1.9A2.06,2.06,0,0,1,744,135.53Z"/><path class="cls-1" d="M779.83,129.61h0a2.06,2.06,0,1,1-2.06-2.06A2.06,2.06,0,0,1,779.83,129.61Zm0,5.92v18.41a2.06,2.06,0,0,1-4.12,0V135.53a2.06,2.06,0,0,1,4.12,0Z"/><path class="cls-1" d="M797.28,154.24A6,6,0,0,1,787,150V137.45a2,2,0,0,1,0-3.85v-5.78a2.06,2.06,0,0,1,4.12,0v5.65h1.33a2.06,2.06,0,0,1,0,4.12h-1.33V150a1.91,1.91,0,0,0,1.91,1.91,1.86,1.86,0,0,0,1.35-.56,2.06,2.06,0,1,1,2.91,2.92Z"/><path class="cls-1" d="M812,149.38a2.62,2.62,0,0,0-1.84-1.81l-4.8-1.82a6.58,6.58,0,0,1-4.46-5,5.88,5.88,0,0,1,2.36-5.55h0a8.78,8.78,0,0,1,10.43,0h0a6,6,0,0,1,2.43,4.71,2.06,2.06,0,0,1-4.12,0,1.93,1.93,0,0,0-.85-1.47h0a4.75,4.75,0,0,0-5.37,0h0a1.79,1.79,0,0,0-.83,1.68,2.58,2.58,0,0,0,1.84,1.81l4.79,1.82a6.59,6.59,0,0,1,4.47,5,5.9,5.9,0,0,1-2.36,5.55h0a8.8,8.8,0,0,1-10.45,0h0a6,6,0,0,1-2.43-4.71,2.06,2.06,0,1,1,4.12,0,1.93,1.93,0,0,0,.85,1.47,4.75,4.75,0,0,0,5.37,0h0A1.81,1.81,0,0,0,812,149.38Z"/><path class="cls-1" d="M859.8,135.53a2.05,2.05,0,0,1-2,2.06,5.8,5.8,0,0,0-5.8,5.79v10.56a2.06,2.06,0,0,1-4.12,0V135.53a2.05,2.05,0,0,1,4.1-.16,9.86,9.86,0,0,1,5.82-1.9A2.05,2.05,0,0,1,859.8,135.53Z"/><path class="cls-1" d="M869.71,129.61h0a2.06,2.06,0,1,1-2.06-2.06A2.06,2.06,0,0,1,869.71,129.61Zm0,5.92v18.41a2.06,2.06,0,0,1-4.12,0V135.53a2.06,2.06,0,0,1,4.12,0Z"/><path class="cls-1" d="M894.75,152.7a11.27,11.27,0,1,1,0-15.93,2.08,2.08,0,0,1,0,2.92,2.06,2.06,0,0,1-2.91,0,7.15,7.15,0,1,0,0,10.11,2.06,2.06,0,1,1,2.91,2.91Z"/><path class="cls-1" d="M921,143.38v10.56a2.06,2.06,0,0,1-4.12,0V143.38a5.8,5.8,0,0,0-11.6,0v10.56a2.06,2.06,0,1,1-4.12,0V124.39a2.06,2.06,0,1,1,4.12,0v11a9.9,9.9,0,0,1,15.72,8Z"/><path class="cls-1" d="M25.41,202.34h0v9.19a2.06,2.06,0,1,1-4.12,0V211a11.27,11.27,0,1,1,0-17.41v-.5a2.06,2.06,0,0,1,4.12,0v9.21Zm-4.12,0a7.15,7.15,0,1,0-7.14,7.16,7.15,7.15,0,0,0,7.14-7.16Z"/><path class="cls-1" d="M53.25,193.13v20.39a11.26,11.26,0,0,1-19.23,8,2.06,2.06,0,1,1,2.91-2.91,7.15,7.15,0,0,0,12.2-5.06V211a11.27,11.27,0,1,1,0-17.41v-.5a2.06,2.06,0,0,1,4.12,0Zm-4.12,9.21A7.15,7.15,0,1,0,42,209.48,7.15,7.15,0,0,0,49.13,202.34Z"/><path class="cls-1" d="M71,193.13A2.06,2.06,0,0,1,69,195.19a5.8,5.8,0,0,0-5.8,5.79v10.56a2.06,2.06,0,1,1-4.12,0V193.13a2.05,2.05,0,0,1,4.1-.16,9.86,9.86,0,0,1,5.82-1.9A2.06,2.06,0,0,1,71,193.13Z"/><path class="cls-1" d="M80.92,187.21h0a2.06,2.06,0,1,1-2.06-2.06A2.06,2.06,0,0,1,80.92,187.21Zm0,5.92v18.41a2.06,2.06,0,0,1-4.12,0V193.13a2.06,2.06,0,0,1,4.12,0Z"/><path class="cls-1" d="M106,210.3a11.27,11.27,0,1,1,0-15.93,2.06,2.06,0,0,1-2.91,2.91,7.15,7.15,0,1,0,0,10.11A2.06,2.06,0,0,1,106,210.3Z"/><path class="cls-1" d="M132.2,193.13v18.41a2.05,2.05,0,0,1-4.1.16,9.9,9.9,0,0,1-15.73-8V193.13a2.06,2.06,0,1,1,4.12,0v10.56a5.8,5.8,0,0,0,11.59,0V193.13a2.06,2.06,0,1,1,4.12,0Z"/><path class="cls-1" d="M142.17,182v29.55a2.06,2.06,0,0,1-4.12,0V182a2.06,2.06,0,1,1,4.12,0Z"/><path class="cls-1" d="M159.62,211.84a6,6,0,0,1-10.29-4.27V195.05a2,2,0,0,1,0-3.85v-5.78a2.06,2.06,0,0,1,4.12,0v5.65h1.33a2.06,2.06,0,0,1,0,4.12h-1.33v12.38a1.91,1.91,0,0,0,3.26,1.35,2.06,2.06,0,1,1,2.91,2.92Z"/><path class="cls-1" d="M182.5,193.13v18.41a2.05,2.05,0,0,1-4.1.16,9.9,9.9,0,0,1-15.73-8V193.13a2.06,2.06,0,0,1,4.12,0v10.56a5.8,5.8,0,0,0,11.59,0V193.13a2.06,2.06,0,0,1,4.12,0Z"/><path class="cls-1" d="M200.32,193.13a2.05,2.05,0,0,1-2,2.06,5.8,5.8,0,0,0-5.8,5.79v10.56a2.06,2.06,0,0,1-4.12,0V193.13a2.05,2.05,0,0,1,4.1-.16,9.86,9.86,0,0,1,5.82-1.9A2.05,2.05,0,0,1,200.32,193.13Z"/><path class="cls-1" d="M224.08,202.34h0v9.19a2.06,2.06,0,0,1-4.12,0V211a11.27,11.27,0,1,1,0-17.41v-.5a2.06,2.06,0,0,1,4.12,0v9.21Zm-4.12,0a7.15,7.15,0,1,0-7.14,7.16,7.15,7.15,0,0,0,7.14-7.16Z"/><path class="cls-1" d="M234,182v29.55a2.06,2.06,0,1,1-4.12,0V182a2.06,2.06,0,0,1,4.12,0Z"/><path class="cls-1" d="M289.76,182v29.55a2.06,2.06,0,0,1-4.12,0V182a2.06,2.06,0,0,1,4.12,0Z"/><path class="cls-1" d="M317.63,202.34h0v9.19a2.06,2.06,0,1,1-4.11,0V211a11.27,11.27,0,1,1,0-17.41v-.5a2.06,2.06,0,0,1,4.12,0v9.21Zm-4.12,0a7.15,7.15,0,1,0-7.15,7.16,7.16,7.16,0,0,0,7.15-7.16Z"/><path class="cls-1" d="M343.25,201v10.56a2.06,2.06,0,0,1-4.12,0V201a5.8,5.8,0,0,0-11.6,0v10.56a2.06,2.06,0,0,1-4.12,0V193.13a2.06,2.06,0,0,1,4.11-.16,9.83,9.83,0,0,1,5.81-1.9A9.93,9.93,0,0,1,343.25,201Z"/><path class="cls-1" d="M370,202.34h0v9.19a2.06,2.06,0,1,1-4.11,0V211a11.27,11.27,0,1,1,0-17.41V182a2.06,2.06,0,1,1,4.11,0v20.35Zm-4.12,0a7.15,7.15,0,1,0-7.15,7.16,7.16,7.16,0,0,0,7.15-7.16Z"/><path class="cls-1" d="M386.42,207a2.6,2.6,0,0,0-1.84-1.81l-4.8-1.82a6.59,6.59,0,0,1-4.46-5,5.9,5.9,0,0,1,2.36-5.55h0a8.81,8.81,0,0,1,10.43,0h0a6,6,0,0,1,2.43,4.71,2.06,2.06,0,1,1-4.12,0,1.93,1.93,0,0,0-.85-1.47h0a4.75,4.75,0,0,0-5.37,0h0a1.81,1.81,0,0,0-.83,1.68,2.6,2.6,0,0,0,1.84,1.81l4.8,1.82a6.59,6.59,0,0,1,4.46,5,5.9,5.9,0,0,1-2.36,5.55h0a8.8,8.8,0,0,1-10.45,0h0a6,6,0,0,1-2.43-4.71,2.06,2.06,0,0,1,4.12,0,1.93,1.93,0,0,0,.85,1.47,4.75,4.75,0,0,0,5.37,0h0A1.79,1.79,0,0,0,386.42,207Z"/><path class="cls-1" d="M398.33,212.52l-1.63,2.75a2.06,2.06,0,0,1-3.54-2.11l1.63-2.75a2.06,2.06,0,0,1,3.54,2.11Z"/><path class="cls-1" d="M469.34,202.33a11.27,11.27,0,1,1-11.26-11.26A11.27,11.27,0,0,1,469.34,202.33Zm-4.11,0a7.15,7.15,0,1,0-7.15,7.14A7.15,7.15,0,0,0,465.23,202.34Z"/><path class="cls-1" d="M493.77,201v10.56a2.06,2.06,0,0,1-4.12,0V201a5.8,5.8,0,0,0-11.6,0v10.56a2.06,2.06,0,0,1-4.12,0V193.13A2.06,2.06,0,0,1,478,193a9.83,9.83,0,0,1,5.81-1.9A9.93,9.93,0,0,1,493.77,201Z"/><path class="cls-1" d="M580.83,193.94,573,212.35a2.06,2.06,0,0,1-3.79,0l-6-14-6,14a2.05,2.05,0,0,1-3.78,0l-7.86-18.41a2.06,2.06,0,0,1,3.79-1.62l6,14,6-14a.67.67,0,0,1,.06-.12l.12-.21.12-.16.13-.15.16-.14.15-.12.22-.12.12-.06h0l.25-.08.14,0,.22,0,.18,0h.15a2.13,2.13,0,0,1,.25,0l.12,0a1.38,1.38,0,0,1,.27.08h0a.6.6,0,0,1,.11.06l.23.12.14.11c0,.05.11.09.16.15a.93.93,0,0,1,.13.15l.13.15a1.51,1.51,0,0,1,.11.22.75.75,0,0,1,.07.12l6,14,6-14a2.06,2.06,0,1,1,3.79,1.62Z"/><path class="cls-1" d="M606.65,201v10.56a2.06,2.06,0,1,1-4.12,0V201a5.8,5.8,0,0,0-11.59,0v10.56a2.06,2.06,0,0,1-4.12,0V182a2.06,2.06,0,0,1,4.12,0v11a9.79,9.79,0,0,1,5.8-1.89A9.93,9.93,0,0,1,606.65,201Z"/><path class="cls-1" d="M616.62,187.21h0a2.06,2.06,0,1,1-2.06-2.06A2.06,2.06,0,0,1,616.62,187.21Zm0,5.92v18.41a2.06,2.06,0,0,1-4.12,0V193.13a2.06,2.06,0,0,1,4.12,0Z"/><path class="cls-1" d="M641.66,210.3a11.27,11.27,0,1,1,0-15.93,2.06,2.06,0,0,1-2.91,2.91,7.15,7.15,0,1,0,0,10.11,2.06,2.06,0,0,1,2.91,2.91Z"/><path class="cls-1" d="M667.9,201v10.56a2.06,2.06,0,1,1-4.12,0V201a5.8,5.8,0,0,0-11.59,0v10.56a2.06,2.06,0,0,1-4.12,0V182a2.06,2.06,0,0,1,4.12,0v11a9.78,9.78,0,0,1,5.79-1.89A9.93,9.93,0,0,1,667.9,201Z"/><path class="cls-1" d="M723.7,187.21h0a2.06,2.06,0,1,1-2.06-2.06A2.06,2.06,0,0,1,723.7,187.21Zm0,5.92v18.41a2.06,2.06,0,0,1-4.12,0V193.13a2.06,2.06,0,0,1,4.12,0Z"/><path class="cls-1" d="M741.15,211.84a6,6,0,0,1-4.26,1.76,6,6,0,0,1-6-6V195.05a2,2,0,0,1,0-3.85v-5.78a2.06,2.06,0,0,1,4.12,0v5.65h1.33a2.06,2.06,0,1,1,0,4.12H735v12.38a1.91,1.91,0,0,0,3.26,1.35,2.06,2.06,0,0,1,2.91,2.92Z"/><path class="cls-1" d="M755.85,207a2.6,2.6,0,0,0-1.84-1.81l-4.8-1.82a6.58,6.58,0,0,1-4.46-5,5.88,5.88,0,0,1,2.36-5.55h0a8.81,8.81,0,0,1,10.43,0h0a6,6,0,0,1,2.43,4.71,2.06,2.06,0,0,1-4.12,0A1.93,1.93,0,0,0,755,196h0a4.75,4.75,0,0,0-5.37,0h0a1.81,1.81,0,0,0-.83,1.68,2.58,2.58,0,0,0,1.84,1.81l4.8,1.82a6.59,6.59,0,0,1,4.46,5,5.9,5.9,0,0,1-2.36,5.55h0a8.8,8.8,0,0,1-10.45,0h0a6,6,0,0,1-2.43-4.71,2.06,2.06,0,1,1,4.12,0,1.93,1.93,0,0,0,.85,1.47,4.75,4.75,0,0,0,5.37,0h0A1.79,1.79,0,0,0,755.85,207Z"/><path class="cls-1" d="M823.22,211.84A6,6,0,0,1,819,213.6a6,6,0,0,1-6-6V195.05a2.05,2.05,0,0,1,0-3.85v-5.78a2.06,2.06,0,1,1,4.12,0v5.65h1.33a2.06,2.06,0,1,1,0,4.12h-1.33v12.38a1.91,1.91,0,0,0,3.26,1.35,2.06,2.06,0,1,1,2.91,2.92Z"/><path class="cls-1" d="M841.61,193.13a2.06,2.06,0,0,1-2.06,2.06,5.8,5.8,0,0,0-5.8,5.79v10.56a2.06,2.06,0,1,1-4.12,0V193.13a2.06,2.06,0,0,1,4.11-.16,9.83,9.83,0,0,1,5.81-1.9A2.06,2.06,0,0,1,841.61,193.13Z"/><path class="cls-1" d="M865.37,202.34h0v9.19a2.06,2.06,0,0,1-4.12,0V211a11.27,11.27,0,1,1,0-17.41v-.5a2.06,2.06,0,0,1,4.12,0v9.21Zm-4.12,0a7.15,7.15,0,1,0-7.15,7.16,7.16,7.16,0,0,0,7.15-7.16Z"/><path class="cls-1" d="M893.21,202.34h0v9.19a2.06,2.06,0,0,1-4.12,0V211a11.27,11.27,0,1,1,0-17.41V182a2.06,2.06,0,0,1,4.12,0v20.35Zm-4.12,0a7.15,7.15,0,1,0-7.15,7.16,7.16,7.16,0,0,0,7.15-7.16Z"/><path class="cls-1" d="M921.05,202.34A2.06,2.06,0,0,1,919,204.4h-16a7.07,7.07,0,0,0,1.79,3,7.15,7.15,0,0,0,10.11,0,2.06,2.06,0,1,1,2.91,2.91,11.27,11.27,0,0,1-19.23-7.8c0-.06,0-.11,0-.16s0-.11,0-.17a11.27,11.27,0,0,1,22.53.17Zm-4.42-2.06a7.15,7.15,0,0,0-13.69,0Z"/><path class="cls-1" d="M25.41,259.94h0v9.19a2.06,2.06,0,0,1-4.12,0v-.5a11.27,11.27,0,1,1,0-17.41V239.59a2.06,2.06,0,1,1,4.12,0v20.35Zm-4.12,0a7.15,7.15,0,1,0-7.14,7.16,7.15,7.15,0,0,0,7.14-7.16Z"/><path class="cls-1" d="M53.25,259.94A2.06,2.06,0,0,1,51.19,262h-16A7.15,7.15,0,0,0,47,265,2.06,2.06,0,1,1,50,267.9a11.26,11.26,0,0,1-19.22-7.8.92.92,0,0,1,0-.16,1,1,0,0,1,0-.17,11.26,11.26,0,0,1,22.52.17Zm-4.42-2.06a7.06,7.06,0,0,0-1.79-3,7.15,7.15,0,0,0-11.9,3Z"/><path class="cls-1" d="M80.37,259.94A11.26,11.26,0,0,1,62,268.64v11.64a2.06,2.06,0,0,1-4.12,0V260h0v-9.21a2.06,2.06,0,0,1,4.12,0v.5a11.26,11.26,0,0,1,18.41,8.71Zm-4.12,0a7.15,7.15,0,0,0-14.29,0v0a7.15,7.15,0,0,0,14.29,0Z"/><path class="cls-1" d="M107,259.94A2.06,2.06,0,0,1,105,262h-16a7.15,7.15,0,0,0,11.9,3,2.06,2.06,0,0,1,2.91,2.91,11.26,11.26,0,0,1-19.22-7.8.92.92,0,0,1,0-.16,1,1,0,0,1,0-.17,11.26,11.26,0,0,1,22.52.17Zm-4.41-2.06a7.15,7.15,0,0,0-13.7,0Z"/><path class="cls-1" d="M131.43,258.58v10.56a2.06,2.06,0,0,1-4.12,0V258.58a5.8,5.8,0,0,0-11.59,0v10.56a2.06,2.06,0,0,1-4.12,0V250.73a2.05,2.05,0,0,1,4.1-.16,9.9,9.9,0,0,1,15.73,8Z"/><path class="cls-1" d="M158.13,259.94h0v9.19a2.06,2.06,0,0,1-4.12,0v-.5a11.27,11.27,0,1,1,0-17.41V239.59a2.06,2.06,0,1,1,4.12,0v20.35Zm-4.12,0a7.15,7.15,0,1,0-7.14,7.16,7.15,7.15,0,0,0,7.14-7.16Z"/><path class="cls-1" d="M186,259.94a2.06,2.06,0,0,1-2.06,2.06h-16a7.15,7.15,0,0,0,11.9,3,2.06,2.06,0,0,1,2.91,2.91,11.26,11.26,0,0,1-19.22-7.8.92.92,0,0,1,0-.16,1,1,0,0,1,0-.17,11.26,11.26,0,0,1,22.52.17Zm-4.41-2.06a7.15,7.15,0,0,0-13.7,0Z"/><path class="cls-1" d="M212.61,259.94h0v9.19a2.06,2.06,0,0,1-4.12,0v-.5a11.27,11.27,0,1,1,0-17.41V239.59a2.06,2.06,0,1,1,4.12,0v20.35Zm-4.12,0a7.15,7.15,0,1,0-7.14,7.16,7.14,7.14,0,0,0,7.14-7.16Z"/><path class="cls-1" d="M220.41,270.12l-1.64,2.75a2,2,0,0,1-1.77,1,2,2,0,0,1-1.05-.29,2.06,2.06,0,0,1-.72-2.82l1.64-2.75a2.06,2.06,0,0,1,3.54,2.11Z"/><path class="cls-1" d="M258.59,269.44a6,6,0,0,1-10.29-4.27V252.65a2,2,0,0,1,0-3.85V243a2.06,2.06,0,1,1,4.12,0v5.65h1.33a2.06,2.06,0,0,1,0,4.12h-1.33v12.38a1.91,1.91,0,0,0,3.26,1.35,2.06,2.06,0,0,1,2.91,2.92Z"/><path class="cls-1" d="M284.11,258.58v10.56a2.06,2.06,0,0,1-4.12,0V258.58a5.8,5.8,0,0,0-11.59,0v10.56a2.06,2.06,0,0,1-4.12,0V239.59a2.06,2.06,0,0,1,4.12,0v11a9.79,9.79,0,0,1,5.8-1.89A9.93,9.93,0,0,1,284.11,258.58Z"/><path class="cls-1" d="M310.81,259.94a2.06,2.06,0,0,1-2.06,2.06H292.7a7.15,7.15,0,0,0,11.9,3,2.06,2.06,0,0,1,2.91,2.91,11.26,11.26,0,0,1-19.22-7.8.92.92,0,0,1,0-.16,1,1,0,0,1,0-.17,11.26,11.26,0,0,1,22.52.17Zm-4.41-2.06a7.15,7.15,0,0,0-13.7,0Z"/><path class="cls-1" d="M359.72,267.9a11.26,11.26,0,1,1,0-15.93,2.06,2.06,0,0,1-2.92,2.91,7.15,7.15,0,0,0-10.1,0A7.15,7.15,0,1,0,356.81,265a2.06,2.06,0,0,1,2.91,2.91Z"/><path class="cls-1" d="M370.25,244.81h0a2.06,2.06,0,1,1-2.06-2.06A2.06,2.06,0,0,1,370.25,244.81Zm0,5.92v18.41a2.06,2.06,0,0,1-4.12,0V250.73a2.06,2.06,0,0,1,4.12,0Z"/><path class="cls-1" d="M387.7,269.44a6,6,0,0,1-4.26,1.76,6,6,0,0,1-6-6V252.65a2,2,0,0,1,0-3.85V243a2.06,2.06,0,1,1,4.12,0v5.65h1.33a2.06,2.06,0,0,1,0,4.12h-1.33v12.38a1.91,1.91,0,0,0,3.26,1.35,2.06,2.06,0,0,1,2.91,2.92Z"/><path class="cls-1" d="M408.5,251.54l-3.26,7.63h0l-9.3,21.91a2.08,2.08,0,0,1-1.9,1.25,2.05,2.05,0,0,1-1.89-2.86l4.37-10.31L389,251.54a2.06,2.06,0,1,1,3.79-1.62l6,14,2.67-6.26,0-.06h0l3.26-7.64a2.06,2.06,0,1,1,3.79,1.62Z"/><path class="cls-1" d="M473.79,251.54,465.93,270a2.05,2.05,0,0,1-3.78,0l-6-14-6,14a2.06,2.06,0,0,1-3.79,0l-7.86-18.41a2.06,2.06,0,0,1,3.79-1.62l6,14,6-14a.75.75,0,0,1,.07-.12,1.39,1.39,0,0,1,.11-.21l.12-.16.14-.15a1.07,1.07,0,0,1,.16-.14L455,249l.21-.12a.67.67,0,0,1,.12-.06h0l.26-.08.13,0,.22,0,.18,0h.16a2,2,0,0,1,.24,0l.12,0a1.2,1.2,0,0,1,.27.08h0a.6.6,0,0,1,.11.06,1.67,1.67,0,0,1,.23.12l.14.11a1.22,1.22,0,0,1,.17.15.93.93,0,0,1,.13.15l.12.15a1.55,1.55,0,0,1,.12.22l.07.12,6,14,6-14a2.06,2.06,0,1,1,3.79,1.62Z"/><path class="cls-1" d="M499,259.94h0v9.19a2.06,2.06,0,0,1-4.12,0v-.5a11.27,11.27,0,1,1,0-17.41v-.5a2.06,2.06,0,1,1,4.12,0v9.21Zm-4.12,0a7.15,7.15,0,1,0-7.15,7.16,7.16,7.16,0,0,0,7.15-7.16Z"/><path class="cls-1" d="M515.91,264.58a2.58,2.58,0,0,0-1.84-1.81L509.28,261a6.59,6.59,0,0,1-4.47-5,5.89,5.89,0,0,1,2.37-5.55h0a8.82,8.82,0,0,1,10.44,0h0a6,6,0,0,1,2.43,4.71,2.06,2.06,0,1,1-4.12,0,1.93,1.93,0,0,0-.85-1.47h0a4.75,4.75,0,0,0-5.37,0h0a1.81,1.81,0,0,0-.83,1.68,2.62,2.62,0,0,0,1.84,1.81l4.8,1.82a6.58,6.58,0,0,1,4.46,5,5.88,5.88,0,0,1-2.36,5.55h0a8.8,8.8,0,0,1-10.45,0h0a6,6,0,0,1-2.43-4.71,2.06,2.06,0,0,1,4.12,0,1.93,1.93,0,0,0,.85,1.47,4.75,4.75,0,0,0,5.37,0h0A1.79,1.79,0,0,0,515.91,264.58Z"/><path class="cls-1" d="M572.25,259.94h0v9.19a2.06,2.06,0,1,1-4.12,0v-.5a11.27,11.27,0,1,1,0-17.41V239.59a2.06,2.06,0,1,1,4.12,0v20.35Zm-4.12,0a7.15,7.15,0,1,0-7.15,7.16,7.16,7.16,0,0,0,7.15-7.16Z"/><path class="cls-1" d="M600.09,259.94A2.07,2.07,0,0,1,598,262H582a7,7,0,0,0,1.79,3,7.14,7.14,0,0,0,10.1,0,2.06,2.06,0,0,1,2.92,2.91,11.26,11.26,0,0,1-19.23-7.8.92.92,0,0,1,0-.16c0-.06,0-.11,0-.17a11.27,11.27,0,0,1,22.53.17Zm-4.42-2.06a7.16,7.16,0,0,0-11.9-3,7,7,0,0,0-1.79,3Z"/><path class="cls-1" d="M615.36,264.58a2.58,2.58,0,0,0-1.84-1.81L608.73,261a6.59,6.59,0,0,1-4.47-5,5.89,5.89,0,0,1,2.37-5.55h0a8.82,8.82,0,0,1,10.44,0h0a6,6,0,0,1,2.43,4.71,2.06,2.06,0,1,1-4.12,0,1.93,1.93,0,0,0-.85-1.47h0a4.75,4.75,0,0,0-5.37,0h0a1.81,1.81,0,0,0-.83,1.68,2.6,2.6,0,0,0,1.84,1.81l4.8,1.82a6.58,6.58,0,0,1,4.46,5,5.9,5.9,0,0,1-2.36,5.55h0a8.8,8.8,0,0,1-10.45,0h0a6,6,0,0,1-2.43-4.71,2.06,2.06,0,1,1,4.12,0,1.93,1.93,0,0,0,.85,1.47,4.75,4.75,0,0,0,5.37,0h0A1.79,1.79,0,0,0,615.36,264.58Z"/><path class="cls-1" d="M636.9,269.44a6,6,0,0,1-4.26,1.76,6,6,0,0,1-6-6V252.65a2.05,2.05,0,0,1,0-3.85V243a2.06,2.06,0,0,1,4.12,0v5.65h1.33a2.06,2.06,0,1,1,0,4.12h-1.33v12.38a1.91,1.91,0,0,0,3.26,1.35,2.06,2.06,0,1,1,2.91,2.92Z"/><path class="cls-1" d="M655.29,250.73a2.06,2.06,0,0,1-2.06,2.06,5.8,5.8,0,0,0-5.8,5.79v10.56a2.06,2.06,0,1,1-4.12,0V250.73a2.06,2.06,0,0,1,4.11-.16,9.83,9.83,0,0,1,5.81-1.9A2.06,2.06,0,0,1,655.29,250.73Z"/><path class="cls-1" d="M679.05,259.94a11.27,11.27,0,1,1-11.27-11.27A11.28,11.28,0,0,1,679.05,259.94Zm-4.12,0a7.15,7.15,0,1,0-7.15,7.14A7.16,7.16,0,0,0,674.93,259.94Z"/><path class="cls-1" d="M701.14,251.54l-3.26,7.63h0l-9.3,21.91a2.07,2.07,0,0,1-1.9,1.25,2.05,2.05,0,0,1-1.89-2.86l4.37-10.31-7.52-17.63a2.06,2.06,0,1,1,3.79-1.62l6,14,2.68-6.26,0-.06h0l3.26-7.64a2.06,2.06,0,1,1,3.79,1.62Z"/><path class="cls-1" d="M726.33,259.94a2.07,2.07,0,0,1-2.06,2.06h-16a7,7,0,0,0,1.79,3,7.14,7.14,0,0,0,10.1,0A2.06,2.06,0,0,1,723,267.9a11.26,11.26,0,0,1-19.23-7.8.92.92,0,0,1,0-.16c0-.06,0-.11,0-.17a11.27,11.27,0,0,1,22.53.17Zm-4.42-2.06a7.16,7.16,0,0,0-11.9-3,7,7,0,0,0-1.79,3Z"/><path class="cls-1" d="M753,259.94h0v9.19a2.06,2.06,0,0,1-4.12,0v-.5a11.27,11.27,0,1,1,0-17.41V239.59a2.06,2.06,0,0,1,4.12,0v20.35Zm-4.12,0a7.15,7.15,0,1,0-7.15,7.16,7.16,7.16,0,0,0,7.15-7.16Z"/><path class="cls-1" d="M805.18,259.94a11.26,11.26,0,0,1-18.41,8.7v.5a2.06,2.06,0,1,1-4.12,0v-9.2h0V239.55a2.06,2.06,0,1,1,4.12,0v11.68a11.26,11.26,0,0,1,18.41,8.71Zm-4.12,0a7.15,7.15,0,0,0-14.29,0h0a7.15,7.15,0,1,0,14.29,0Z"/><path class="cls-1" d="M827.28,251.54,824,259.17h0l-9.3,21.91a2.08,2.08,0,0,1-1.9,1.25,2,2,0,0,1-.8-.16,2.07,2.07,0,0,1-1.1-2.7l4.38-10.31-7.52-17.63a2.06,2.06,0,1,1,3.79-1.62l6,14,2.67-6.26,0-.06h0l3.26-7.64a2.06,2.06,0,1,1,3.79,1.62Z"/><path class="cls-1" d="M868.83,269.44a6,6,0,0,1-10.3-4.27V252.65a2.05,2.05,0,0,1,0-3.85V243a2.06,2.06,0,1,1,4.12,0v5.65H864a2.06,2.06,0,0,1,0,4.12h-1.33v12.38a1.91,1.91,0,0,0,3.26,1.35,2.06,2.06,0,0,1,2.92,2.92Z"/><path class="cls-1" d="M894.35,258.58v10.56a2.06,2.06,0,0,1-4.12,0V258.58a5.8,5.8,0,0,0-11.6,0v10.56a2.06,2.06,0,1,1-4.12,0V239.59a2.06,2.06,0,1,1,4.12,0v11a9.9,9.9,0,0,1,15.72,8Z"/><path class="cls-1" d="M921.05,259.94A2.06,2.06,0,0,1,919,262h-16a7.07,7.07,0,0,0,1.79,3,7.14,7.14,0,0,0,10.1,0,2.06,2.06,0,0,1,2.92,2.91,11.26,11.26,0,0,1-19.23-7.8c0-.06,0-.11,0-.16s0-.11,0-.17a11.27,11.27,0,0,1,22.53.17Zm-4.42-2.06a7.16,7.16,0,0,0-11.9-3,7.1,7.1,0,0,0-1.79,3Z"/><path class="cls-1" d="M32.19,297.16v29.55a2.06,2.06,0,1,1-4.11,0V314H7v12.71a2.06,2.06,0,1,1-4.12,0V297.16a2.06,2.06,0,1,1,4.12,0v12.72H28.08V297.16a2.06,2.06,0,1,1,4.11,0Z"/><path class="cls-1" d="M57.85,308.33v18.41a2.05,2.05,0,0,1-4.1.16,9.9,9.9,0,0,1-15.73-8V308.33a2.06,2.06,0,1,1,4.11,0v10.56a5.8,5.8,0,0,0,11.6,0V308.33a2.06,2.06,0,1,1,4.12,0Z"/><path class="cls-1" d="M83.53,316.18v10.56a2.06,2.06,0,0,1-4.12,0V316.18a5.8,5.8,0,0,0-11.6,0v10.56a2.06,2.06,0,1,1-4.11,0V308.33a2.05,2.05,0,0,1,4.1-.16,9.83,9.83,0,0,1,5.81-1.9A9.93,9.93,0,0,1,83.53,316.18Z"/><path class="cls-1" d="M99.34,322.18a2.58,2.58,0,0,0-1.84-1.81l-4.79-1.82a6.59,6.59,0,0,1-4.47-5A5.89,5.89,0,0,1,90.61,308h0a8.82,8.82,0,0,1,10.44,0h0a6,6,0,0,1,2.43,4.71,2.06,2.06,0,1,1-4.12,0,1.93,1.93,0,0,0-.85-1.47h0a4.75,4.75,0,0,0-5.37,0h0a1.81,1.81,0,0,0-.83,1.68,2.62,2.62,0,0,0,1.84,1.81l4.8,1.82a6.58,6.58,0,0,1,4.46,5,5.88,5.88,0,0,1-2.36,5.55h0a8.8,8.8,0,0,1-10.45,0h0a6,6,0,0,1-2.42-4.71,2.06,2.06,0,1,1,4.11,0,1.93,1.93,0,0,0,.85,1.47,4.75,4.75,0,0,0,5.37,0h0A1.78,1.78,0,0,0,99.34,322.18Z"/><path class="cls-1" d="M130.07,302.41h0a2.06,2.06,0,1,1-2.06-2.06A2.06,2.06,0,0,1,130.07,302.41Zm0,5.92v18.41a2.06,2.06,0,0,1-4.12,0V308.33a2.06,2.06,0,0,1,4.12,0Z"/><path class="cls-1" d="M155.72,316.18v10.56a2.06,2.06,0,0,1-4.12,0V316.18a5.8,5.8,0,0,0-11.6,0v10.56a2.06,2.06,0,1,1-4.11,0V308.33a2.05,2.05,0,0,1,4.1-.16,9.83,9.83,0,0,1,5.81-1.9A9.93,9.93,0,0,1,155.72,316.18Z"/><path class="cls-1" d="M189.91,327a6,6,0,0,1-10.29-4.27V310.25a2,2,0,0,1,0-3.85v-5.78a2.06,2.06,0,0,1,4.12,0v5.65h1.32a2.06,2.06,0,0,1,0,4.12h-1.32v12.38a1.91,1.91,0,0,0,3.26,1.35,2.06,2.06,0,0,1,2.91,2.92Z"/><path class="cls-1" d="M215.43,316.18v10.56a2.06,2.06,0,0,1-4.12,0V316.18a5.8,5.8,0,0,0-11.59,0v10.56a2.06,2.06,0,0,1-4.12,0V297.19a2.06,2.06,0,1,1,4.12,0v11a9.78,9.78,0,0,1,5.79-1.89A9.93,9.93,0,0,1,215.43,316.18Z"/><path class="cls-1" d="M242.13,317.54a2.06,2.06,0,0,1-2.06,2.06H224a7.07,7.07,0,0,0,1.79,3,7.15,7.15,0,0,0,10.11,0,2.06,2.06,0,1,1,2.91,2.91,11.27,11.27,0,0,1-19.23-7.8v-.33a11.27,11.27,0,0,1,22.53.17Zm-4.42-2.06a7.06,7.06,0,0,0-1.79-3,7.15,7.15,0,0,0-11.9,3Z"/><path class="cls-1" d="M262.9,316.22l17.3-20.37a2.06,2.06,0,0,1,3.63,1.34v18.3a2.06,2.06,0,0,1,0,4.12v7.06a2.06,2.06,0,1,1-4.12,0v-7.06H264.47a2.06,2.06,0,0,1-1.57-3.39Zm6-.73h10.79v-12.7Z"/><path class="cls-1" d="M302.23,327a6,6,0,0,1-10.3-4.27V310.25a2.05,2.05,0,0,1,0-3.85v-5.78a2.06,2.06,0,0,1,4.12,0v5.65h1.33a2.06,2.06,0,0,1,0,4.12h-1.33v12.38a1.91,1.91,0,0,0,3.26,1.35,2.06,2.06,0,0,1,2.92,2.92Z"/><path class="cls-1" d="M327.75,316.18v10.56a2.06,2.06,0,0,1-4.12,0V316.18a5.8,5.8,0,0,0-11.6,0v10.56a2.06,2.06,0,1,1-4.11,0V297.19a2.06,2.06,0,1,1,4.11,0v11a9.9,9.9,0,0,1,15.72,8Z"/><path class="cls-1" d="M369.52,325.5a11.26,11.26,0,1,1,0-15.93,2.06,2.06,0,0,1-2.92,2.91,7.15,7.15,0,1,0,0,10.11,2.08,2.08,0,0,1,2.92,0A2.06,2.06,0,0,1,369.52,325.5Z"/><path class="cls-1" d="M396.78,317.54a2.06,2.06,0,0,1-2.06,2.06H378.67a7.15,7.15,0,0,0,11.9,3,2.06,2.06,0,0,1,2.91,2.91,11.26,11.26,0,0,1-19.22-7.8.92.92,0,0,1,0-.16,1,1,0,0,1,0-.17,11.26,11.26,0,0,1,22.52.17Zm-4.41-2.06a7.15,7.15,0,0,0-13.7,0Z"/><path class="cls-1" d="M421.2,316.18v10.56a2.06,2.06,0,0,1-4.12,0V316.18a5.8,5.8,0,0,0-11.59,0v10.56a2.06,2.06,0,0,1-4.12,0V308.33a2.05,2.05,0,0,1,4.1-.16,9.9,9.9,0,0,1,15.73,8Z"/><path class="cls-1" d="M437,327a6,6,0,0,1-10.29-4.27V310.25a2,2,0,0,1,0-3.85v-5.78a2.06,2.06,0,1,1,4.12,0v5.65h1.32a2.06,2.06,0,0,1,0,4.12h-1.32v12.38a1.91,1.91,0,0,0,3.26,1.35A2.06,2.06,0,0,1,437,327Z"/><path class="cls-1" d="M459.89,308.33v18.41a2.05,2.05,0,0,1-4.1.16,9.9,9.9,0,0,1-15.73-8V308.33a2.06,2.06,0,1,1,4.12,0v10.56a5.8,5.8,0,0,0,11.59,0V308.33a2.06,2.06,0,0,1,4.12,0Z"/><path class="cls-1" d="M477.71,308.33a2.06,2.06,0,0,1-2.06,2.06,5.8,5.8,0,0,0-5.79,5.79v10.56a2.06,2.06,0,0,1-4.12,0V308.33a2.05,2.05,0,0,1,4.1-.16,9.85,9.85,0,0,1,5.81-1.9A2.06,2.06,0,0,1,477.71,308.33Z"/><path class="cls-1" d="M502.45,309.14l-3.26,7.63h0l-9.31,21.91a2.05,2.05,0,0,1-1.89,1.25,2.13,2.13,0,0,1-.81-.16,2.07,2.07,0,0,1-1.09-2.7l4.38-10.31-7.53-17.63a2.06,2.06,0,1,1,3.79-1.62l6,14,2.67-6.26,0-.06h0l3.26-7.64a2.06,2.06,0,1,1,3.79,1.62Z"/><path class="cls-1" d="M526.41,328.61a2.06,2.06,0,0,1-1.08-2.7l3.89-9.14v0l8.69-20.4a2.06,2.06,0,0,1,3.79,0l8.7,20.4h0l3.9,9.15a2.06,2.06,0,1,1-3.79,1.61l-3.37-7.9H532.48l-3.37,7.9a2.05,2.05,0,0,1-1.89,1.25A2.13,2.13,0,0,1,526.41,328.61Zm7.83-13.11H545.4l-5.58-13.09Z"/><path class="cls-1" d="M572.78,295.1a16.83,16.83,0,1,1,0,33.66H562.36a2.05,2.05,0,0,1-2.06-2.05V297.16a2.06,2.06,0,0,1,2.06-2.06Zm0,4.12h-8.36v25.42h8.36a12.71,12.71,0,1,0,0-25.42Z"/><path class="cls-1" d="M591.88,326.5a2.23,2.23,0,1,1,2.23,2.23A2.23,2.23,0,0,1,591.88,326.5Z"/><path class="cls-1" d="M137.82,377.9h12.59a2.06,2.06,0,0,1,0,4.12H139.87V409.5a2.06,2.06,0,0,1-4.12,0V382H125.21a2.06,2.06,0,1,1,0-4.12h12.61Z"/><path class="cls-1" d="M178.12,399v10.56a2.06,2.06,0,0,1-4.12,0V399a5.8,5.8,0,0,0-11.59,0v10.56a2.06,2.06,0,1,1-4.12,0V380a2.06,2.06,0,0,1,4.12,0v11a9.78,9.78,0,0,1,5.79-1.89A9.93,9.93,0,0,1,178.12,399Z"/><path class="cls-1" d="M204.82,400.34a2.06,2.06,0,0,1-2.06,2.06h-16a7.15,7.15,0,0,0,11.9,3,2.06,2.06,0,0,1,2.91,2.91,11.27,11.27,0,0,1-19.23-7.8v-.33a11.27,11.27,0,0,1,22.53.17Zm-4.42-2.06a7.06,7.06,0,0,0-1.79-3,7.15,7.15,0,0,0-11.9,3Z"/><path class="cls-1" d="M231.46,400.34a11.27,11.27,0,1,1-11.27-11.27A11.27,11.27,0,0,1,231.46,400.34Zm-4.12,0a7.15,7.15,0,1,0-7.15,7.14A7.16,7.16,0,0,0,227.34,400.34Z"/><path class="cls-1" d="M258.1,400.34h0v9.19a2.06,2.06,0,1,1-4.12,0V409a11.27,11.27,0,1,1,0-17.41V380a2.06,2.06,0,0,1,4.12,0v20.35Zm-4.12,0a7.15,7.15,0,1,0-7.14,7.16,7.15,7.15,0,0,0,7.14-7.16Z"/><path class="cls-1" d="M285.94,400.34a11.27,11.27,0,1,1-11.27-11.27A11.27,11.27,0,0,1,285.94,400.34Zm-4.12,0a7.15,7.15,0,1,0-7.15,7.14A7.15,7.15,0,0,0,281.82,400.34Z"/><path class="cls-1" d="M301.22,405a2.62,2.62,0,0,0-1.84-1.81l-4.8-1.82a6.61,6.61,0,0,1-4.47-5,5.91,5.91,0,0,1,2.37-5.55h0a8.79,8.79,0,0,1,10.44,0h0a6,6,0,0,1,2.43,4.71,2.06,2.06,0,0,1-4.12,0,2,2,0,0,0-.84-1.47h0a4.75,4.75,0,0,0-5.37,0h0a1.79,1.79,0,0,0-.83,1.68A2.58,2.58,0,0,0,296,397.5l4.79,1.82a6.59,6.59,0,0,1,4.47,5,5.9,5.9,0,0,1-2.36,5.55h0a8.78,8.78,0,0,1-10.44,0h0a6,6,0,0,1-2.43-4.71,2.06,2.06,0,1,1,4.12,0,2,2,0,0,0,.84,1.47,4.76,4.76,0,0,0,5.38,0h0A1.79,1.79,0,0,0,301.22,405Z"/><path class="cls-1" d="M315.24,385.21h0a2.06,2.06,0,1,1-2.06-2.06A2.06,2.06,0,0,1,315.24,385.21Zm0,5.92v18.41a2.06,2.06,0,0,1-4.12,0V391.13a2.06,2.06,0,0,1,4.12,0Z"/><path class="cls-1" d="M343.59,400.34h0v9.19a2.06,2.06,0,0,1-4.12,0V409a11.27,11.27,0,1,1,0-17.41v-.5a2.06,2.06,0,1,1,4.12,0v9.21Zm-4.12,0a7.15,7.15,0,1,0-7.15,7.16,7.16,7.16,0,0,0,7.15-7.16Z"/><path class="cls-1" d="M388.08,391.13a2.06,2.06,0,0,1-2.06,2.06,5.8,5.8,0,0,0-5.8,5.79v10.56a2.06,2.06,0,0,1-4.12,0V391.13a2.06,2.06,0,0,1,4.11-.16,9.83,9.83,0,0,1,5.81-1.9A2.06,2.06,0,0,1,388.08,391.13Z"/><path class="cls-1" d="M411.84,400.34a2.07,2.07,0,0,1-2.06,2.06h-16a7,7,0,0,0,1.79,3,7.14,7.14,0,0,0,10.1,0,2.06,2.06,0,0,1,2.92,2.91,11.26,11.26,0,0,1-19.23-7.8c0-.06,0-.11,0-.16s0-.11,0-.17a11.27,11.27,0,0,1,22.53.17Zm-4.42-2.06a7.16,7.16,0,0,0-11.9-3,7,7,0,0,0-1.79,3Z"/><path class="cls-1" d="M452,399v10.56a2.06,2.06,0,0,1-4.12,0V399a5.8,5.8,0,0,0-11.59,0v10.56a2.06,2.06,0,0,1-4.12,0V399a5.8,5.8,0,0,0-11.6,0v10.56a2.06,2.06,0,1,1-4.12,0V391.13a2.06,2.06,0,0,1,4.11-.16,9.86,9.86,0,0,1,13.67,2A9.9,9.9,0,0,1,452,399Z"/><path class="cls-1" d="M478.65,400.34h0v9.19a2.06,2.06,0,0,1-4.12,0V409a11.27,11.27,0,1,1,0-17.41v-.5a2.06,2.06,0,0,1,4.12,0v9.21Zm-4.12,0a7.15,7.15,0,1,0-7.14,7.16,7.15,7.15,0,0,0,7.14-7.16Z"/><path class="cls-1" d="M488.56,385.21h0a2.06,2.06,0,1,1-2.06-2.06A2.06,2.06,0,0,1,488.56,385.21Zm0,5.92v18.41a2.06,2.06,0,1,1-4.12,0V391.13a2.06,2.06,0,0,1,4.12,0Z"/><path class="cls-1" d="M514.21,399v10.56a2.06,2.06,0,1,1-4.12,0V399a5.8,5.8,0,0,0-11.6,0v10.56a2.06,2.06,0,1,1-4.11,0V391.13a2.05,2.05,0,0,1,4.1-.16,9.83,9.83,0,0,1,5.81-1.9A9.93,9.93,0,0,1,514.21,399Z"/><path class="cls-1" d="M540.91,400.34a2.06,2.06,0,0,1-2.06,2.06H522.8a7.07,7.07,0,0,0,1.79,3,7.15,7.15,0,0,0,10.11,0,2.06,2.06,0,0,1,2.91,2.91,11.27,11.27,0,0,1-19.23-7.8v-.33a11.27,11.27,0,0,1,22.53.17Zm-4.42-2.06a7.06,7.06,0,0,0-1.79-3,7.15,7.15,0,0,0-11.9,3Z"/><path class="cls-1" d="M567.55,400.34h0v9.19a2.06,2.06,0,1,1-4.12,0V409a11.27,11.27,0,1,1,0-17.41V380a2.06,2.06,0,1,1,4.12,0v20.35Zm-4.12,0a7.15,7.15,0,1,0-7.15,7.16,7.16,7.16,0,0,0,7.15-7.16Z"/><path class="cls-1" d="M621.76,400.34h0v9.19a2.06,2.06,0,1,1-4.12,0V409a11.27,11.27,0,1,1,0-17.41v-.5a2.06,2.06,0,1,1,4.12,0v9.21Zm-4.12,0a7.15,7.15,0,1,0-7.15,7.16,7.16,7.16,0,0,0,7.15-7.16Z"/><path class="cls-1" d="M689.82,399v10.56a2.06,2.06,0,0,1-4.12,0V399a5.8,5.8,0,0,0-11.59,0v10.56a2.06,2.06,0,0,1-4.12,0V399a5.8,5.8,0,0,0-11.6,0v10.56a2.06,2.06,0,1,1-4.12,0V391.13a2.06,2.06,0,0,1,4.11-.16,9.86,9.86,0,0,1,13.67,2,9.9,9.9,0,0,1,17.77,6Z"/><path class="cls-1" d="M699.77,385.21h0a2.06,2.06,0,1,1-2.06-2.06A2.06,2.06,0,0,1,699.77,385.21Zm0,5.92v18.41a2.06,2.06,0,1,1-4.12,0V391.13a2.06,2.06,0,1,1,4.12,0Z"/><path class="cls-1" d="M725.42,399v10.56a2.06,2.06,0,1,1-4.12,0V399a5.8,5.8,0,0,0-11.6,0v10.56a2.06,2.06,0,0,1-4.12,0V391.13a2.06,2.06,0,0,1,4.11-.16,9.83,9.83,0,0,1,5.81-1.9A9.93,9.93,0,0,1,725.42,399Z"/><path class="cls-1" d="M752.12,400.34a11.27,11.27,0,1,1-11.27-11.27A11.28,11.28,0,0,1,752.12,400.34Zm-4.12,0a7.15,7.15,0,1,0-7.15,7.14A7.16,7.16,0,0,0,748,400.34Z"/><path class="cls-1" d="M768.68,391.13a2.06,2.06,0,0,1-2.06,2.06,5.8,5.8,0,0,0-5.8,5.79v10.56a2.06,2.06,0,1,1-4.11,0V391.13a2.05,2.05,0,0,1,4.1-.16,9.83,9.83,0,0,1,5.81-1.9A2.06,2.06,0,0,1,768.68,391.13Z"/><path class="cls-1" d="M807.5,391.94l-7.86,18.41a2.06,2.06,0,0,1-3.79,0L788,391.94a2.06,2.06,0,1,1,3.79-1.62l6,14,6-14a2.06,2.06,0,1,1,3.79,1.62Z"/><path class="cls-1" d="M817.63,385.21h0a2.06,2.06,0,1,1-2.06-2.06A2.06,2.06,0,0,1,817.63,385.21Zm0,5.92v18.41a2.06,2.06,0,1,1-4.12,0V391.13a2.06,2.06,0,1,1,4.12,0Z"/><path class="cls-1" d="M827.56,380v29.55a2.06,2.06,0,1,1-4.12,0V380a2.06,2.06,0,1,1,4.12,0Z"/><path class="cls-1" d="M837.5,380v29.55a2.06,2.06,0,1,1-4.12,0V380a2.06,2.06,0,1,1,4.12,0Z"/><path class="cls-1" d="M865.37,400.34h0v9.19a2.06,2.06,0,0,1-4.12,0V409a11.27,11.27,0,1,1,0-17.41v-.5a2.06,2.06,0,0,1,4.12,0v9.21Zm-4.12,0a7.15,7.15,0,1,0-7.15,7.16,7.16,7.16,0,0,0,7.15-7.16Z"/><path class="cls-1" d="M893.21,391.13v20.39a11.27,11.27,0,0,1-19.24,8,2.06,2.06,0,0,1,2.92-2.91,7.15,7.15,0,0,0,12.2-5.05V409a11.27,11.27,0,1,1,0-17.41v-.5a2.06,2.06,0,0,1,4.12,0Zm-4.12,9.21a7.15,7.15,0,1,0-7.15,7.14A7.16,7.16,0,0,0,889.09,400.34Z"/><path class="cls-1" d="M921.05,400.34A2.06,2.06,0,0,1,919,402.4h-16a7.07,7.07,0,0,0,1.79,3,7.14,7.14,0,0,0,10.1,0,2.06,2.06,0,0,1,2.92,2.91,11.26,11.26,0,0,1-19.23-7.8c0-.06,0-.11,0-.16s0-.11,0-.17a11.27,11.27,0,0,1,22.53.17Zm-4.42-2.06a7.16,7.16,0,0,0-11.9-3,7.1,7.1,0,0,0-1.79,3Z"/><path class="cls-1" d="M18,440.72a2,2,0,0,1-2.91,0,3.8,3.8,0,0,0-6.48,2.69v3.26H12a2.06,2.06,0,1,1,0,4.12H8.58v16.35a2.06,2.06,0,0,1-4.12,0V450.73a2.06,2.06,0,0,1,0-4v-3.32A7.91,7.91,0,0,1,18,437.81,2.06,2.06,0,0,1,18,440.72Z"/><path class="cls-1" d="M34.48,457.94a11.27,11.27,0,1,1-11.26-11.27A11.27,11.27,0,0,1,34.48,457.94Zm-4.11,0a7.15,7.15,0,1,0-7.15,7.14A7.16,7.16,0,0,0,30.37,457.94Z"/><path class="cls-1" d="M51.05,448.73A2.06,2.06,0,0,1,49,450.79a5.8,5.8,0,0,0-5.8,5.8v10.55a2.06,2.06,0,1,1-4.12,0V448.73a2.06,2.06,0,0,1,4.11-.16,9.83,9.83,0,0,1,5.81-1.9A2.06,2.06,0,0,1,51.05,448.73Z"/><path class="cls-1" d="M111.05,456.59v10.55a2.06,2.06,0,0,1-4.12,0V456.59a5.8,5.8,0,1,0-11.59,0v10.55a2.06,2.06,0,0,1-4.12,0V456.59a5.8,5.8,0,0,0-11.6,0v10.55a2.06,2.06,0,0,1-4.12,0V448.73a2.06,2.06,0,0,1,4.11-.16,9.86,9.86,0,0,1,13.67,2,9.9,9.9,0,0,1,17.77,6Z"/><path class="cls-1" d="M136.71,448.73v18.41a2.05,2.05,0,0,1-4.1.16,9.9,9.9,0,0,1-15.73-8V448.73a2.06,2.06,0,0,1,4.12,0v10.56a5.8,5.8,0,0,0,11.59,0V448.73a2.06,2.06,0,0,1,4.12,0Z"/><path class="cls-1" d="M161.31,465.9a11.27,11.27,0,1,1,0-15.93,2.06,2.06,0,1,1-2.92,2.91,7.15,7.15,0,1,0,0,10.11,2.06,2.06,0,1,1,2.91,2.91Z"/><path class="cls-1" d="M187.55,456.59v10.55a2.06,2.06,0,0,1-4.12,0V456.59a5.8,5.8,0,0,0-11.6,0v10.55a2.06,2.06,0,0,1-4.12,0V437.59a2.06,2.06,0,1,1,4.12,0v11a9.9,9.9,0,0,1,15.72,8Z"/><path class="cls-1" d="M234.6,457.94a11.27,11.27,0,1,1-11.27-11.27A11.28,11.28,0,0,1,234.6,457.94Zm-4.12,0a7.15,7.15,0,1,0-7.15,7.14A7.16,7.16,0,0,0,230.48,457.94Z"/><path class="cls-1" d="M253.79,440.72a2,2,0,0,1-2.91,0,3.76,3.76,0,0,0-2.68-1.11,3.8,3.8,0,0,0-3.8,3.8v3.26h3.41a2.06,2.06,0,1,1,0,4.12H244.4v16.35a2.06,2.06,0,0,1-4.12,0V450.73a2.06,2.06,0,0,1,0-4v-3.32a7.93,7.93,0,0,1,7.92-7.92,7.83,7.83,0,0,1,5.59,2.32A2,2,0,0,1,253.79,440.72Z"/><path class="cls-1" d="M281.26,467.44a6,6,0,0,1-10.3-4.26V450.65a2.05,2.05,0,0,1,0-3.85V441a2.06,2.06,0,0,1,4.12,0v5.65h1.33a2.06,2.06,0,1,1,0,4.12h-1.33v12.38a1.92,1.92,0,0,0,3.27,1.35,2.06,2.06,0,0,1,2.91,2.92Z"/><path class="cls-1" d="M306.78,456.59v10.55a2.06,2.06,0,0,1-4.12,0V456.59a5.8,5.8,0,0,0-11.6,0v10.55a2.06,2.06,0,1,1-4.11,0V437.59a2.06,2.06,0,1,1,4.11,0v11a9.9,9.9,0,0,1,15.72,8Z"/><path class="cls-1" d="M333.48,457.94a2.06,2.06,0,0,1-2.06,2.06H315.37a7.07,7.07,0,0,0,1.79,3,7.15,7.15,0,0,0,10.11,0,2.06,2.06,0,1,1,2.91,2.91A11.27,11.27,0,0,1,311,458.1v-.33a11.27,11.27,0,0,1,22.53.17Zm-4.42-2.06a7.06,7.06,0,0,0-1.79-3,7.15,7.15,0,0,0-11.9,3Z"/><path class="cls-1" d="M377.77,456.59v10.55a2.06,2.06,0,0,1-4.12,0V456.59a5.8,5.8,0,1,0-11.59,0v10.55a2.06,2.06,0,0,1-4.12,0V448.73a2.05,2.05,0,0,1,4.1-.16,9.9,9.9,0,0,1,15.73,8Z"/><path class="cls-1" d="M404.47,457.94a2.06,2.06,0,0,1-2.06,2.06H386.36a7.15,7.15,0,0,0,11.9,3,2.06,2.06,0,1,1,2.91,2.91,11.27,11.27,0,0,1-19.23-7.8v-.33a11.27,11.27,0,0,1,22.53.17Zm-4.42-2.06a7.06,7.06,0,0,0-1.79-3,7.15,7.15,0,0,0-11.9,3Z"/><path class="cls-1" d="M424.8,465.81a2.05,2.05,0,0,1-1.57,3.39,2,2,0,0,1-1.56-.72l-6.29-7.37-6.3,7.37a2,2,0,0,1-1.56.72,2.05,2.05,0,0,1-1.57-3.39l6.72-7.87L406,450.06a2.06,2.06,0,0,1,3.13-2.67l6.3,7.37,6.29-7.37a2.06,2.06,0,1,1,3.13,2.67l-6.72,7.88Z"/><path class="cls-1" d="M440.86,467.44a6,6,0,0,1-10.3-4.26V450.65a2.05,2.05,0,0,1,0-3.85V441a2.06,2.06,0,1,1,4.12,0v5.65H436a2.06,2.06,0,0,1,0,4.12h-1.32v12.38a1.91,1.91,0,0,0,3.26,1.35,2.06,2.06,0,0,1,2.91,2.92Z"/><path class="cls-1" d="M485.77,456.59v10.55a2.06,2.06,0,0,1-4.12,0V456.59a5.8,5.8,0,1,0-11.59,0v10.55a2.06,2.06,0,0,1-4.12,0V448.73a2.05,2.05,0,0,1,4.1-.16,9.9,9.9,0,0,1,15.73,8Z"/><path class="cls-1" d="M495.74,442.81h0a2.06,2.06,0,1,1-2.06-2.06A2.06,2.06,0,0,1,495.74,442.81Zm0,5.92v18.41a2.06,2.06,0,0,1-4.12,0V448.73a2.06,2.06,0,0,1,4.12,0Z"/><path class="cls-1" d="M521.39,456.59v10.55a2.06,2.06,0,1,1-4.12,0V456.59a5.8,5.8,0,1,0-11.6,0v10.55a2.06,2.06,0,0,1-4.12,0V448.73a2.06,2.06,0,0,1,4.11-.16,9.83,9.83,0,0,1,5.81-1.9A9.93,9.93,0,0,1,521.39,456.59Z"/><path class="cls-1" d="M548.09,457.94A2.06,2.06,0,0,1,546,460H530a7.07,7.07,0,0,0,1.79,3,7.15,7.15,0,0,0,10.11,0,2.06,2.06,0,1,1,2.91,2.91,11.26,11.26,0,0,1-19.23-7.8c0-.05,0-.11,0-.16s0-.11,0-.17a11.27,11.27,0,0,1,22.53.17Zm-4.42-2.06a7.27,7.27,0,0,0-1.79-3,7.15,7.15,0,0,0-11.9,3Z"/><path class="cls-1" d="M592.38,456.59v10.55a2.06,2.06,0,1,1-4.12,0V456.59a5.8,5.8,0,1,0-11.59,0v10.55a2.06,2.06,0,1,1-4.12,0V437.59a2.06,2.06,0,1,1,4.12,0v11a9.89,9.89,0,0,1,15.71,8Z"/><path class="cls-1" d="M618.06,448.73v18.41a2.05,2.05,0,0,1-4.1.16,9.9,9.9,0,0,1-15.73-8V448.73a2.06,2.06,0,1,1,4.11,0v10.56a5.8,5.8,0,0,0,11.6,0V448.73a2.06,2.06,0,1,1,4.12,0Z"/><path class="cls-1" d="M643.74,456.59v10.55a2.06,2.06,0,0,1-4.12,0V456.59a5.8,5.8,0,0,0-11.6,0v10.55a2.06,2.06,0,1,1-4.11,0V448.73a2.05,2.05,0,0,1,4.1-.16,9.83,9.83,0,0,1,5.81-1.9A9.93,9.93,0,0,1,643.74,456.59Z"/><path class="cls-1" d="M670.44,457.94h0v9.19a2.06,2.06,0,0,1-4.12,0v-.5a11.27,11.27,0,1,1,0-17.41V437.59a2.06,2.06,0,0,1,4.12,0v20.35Zm-4.12,0a7.15,7.15,0,1,0-7.15,7.16,7.16,7.16,0,0,0,7.15-7.16Z"/><path class="cls-1" d="M688.2,448.73a2.06,2.06,0,0,1-2.06,2.06,5.8,5.8,0,0,0-5.8,5.8v10.55a2.06,2.06,0,0,1-4.12,0V448.73a2.06,2.06,0,0,1,4.11-.16,9.83,9.83,0,0,1,5.81-1.9A2.06,2.06,0,0,1,688.2,448.73Z"/><path class="cls-1" d="M712,457.94A2.06,2.06,0,0,1,709.9,460h-16a7.07,7.07,0,0,0,1.79,3,7.15,7.15,0,0,0,10.11,0,2.06,2.06,0,0,1,2.91,2.91,11.27,11.27,0,0,1-19.23-7.8v-.33a11.27,11.27,0,0,1,22.53.17Zm-4.42-2.06a7.06,7.06,0,0,0-1.79-3,7.15,7.15,0,0,0-11.9,3Z"/><path class="cls-1" d="M738.6,457.94h0v9.19a2.06,2.06,0,0,1-4.12,0v-.5a11.27,11.27,0,1,1,0-17.41V437.59a2.06,2.06,0,0,1,4.12,0v20.35Zm-4.12,0a7.15,7.15,0,1,0-7.15,7.16,7.16,7.16,0,0,0,7.15-7.16Z"/><path class="cls-1" d="M782.73,449.54l-3.26,7.64h0l-9.3,21.91a2.08,2.08,0,0,1-1.9,1.25,2.13,2.13,0,0,1-.81-.16,2.07,2.07,0,0,1-1.09-2.7l4.38-10.31-7.53-17.63a2.06,2.06,0,0,1,3.79-1.62l6,14,2.67-6.26,0-.06h0l3.26-7.65a2.06,2.06,0,0,1,3.79,1.62Z"/><path class="cls-1" d="M807.91,457.94a2.06,2.06,0,0,1-2.06,2.06H789.8a7.15,7.15,0,0,0,11.9,3,2.06,2.06,0,0,1,2.91,2.91,11.26,11.26,0,0,1-19.22-7.8.86.86,0,0,1,0-.16,1,1,0,0,1,0-.17,11.26,11.26,0,0,1,22.52.17Zm-4.42-2.06a7.06,7.06,0,0,0-1.79-3,7.15,7.15,0,0,0-11.9,3Z"/><path class="cls-1" d="M834.55,457.94h0v9.19a2.06,2.06,0,1,1-4.12,0v-.5a11.27,11.27,0,1,1,0-17.41v-.5a2.06,2.06,0,1,1,4.12,0v9.21Zm-4.12,0a7.15,7.15,0,1,0-7.14,7.16,7.15,7.15,0,0,0,7.14-7.16Z"/><path class="cls-1" d="M852.31,448.73a2.05,2.05,0,0,1-2,2.06,5.8,5.8,0,0,0-5.8,5.8v10.55a2.06,2.06,0,0,1-4.12,0V448.73a2.05,2.05,0,0,1,4.1-.16,9.86,9.86,0,0,1,5.82-1.9A2.05,2.05,0,0,1,852.31,448.73Z"/><path class="cls-1" d="M867.11,462.58a2.62,2.62,0,0,0-1.84-1.81l-4.8-1.82a6.61,6.61,0,0,1-4.47-5,5.91,5.91,0,0,1,2.37-5.55h0a8.79,8.79,0,0,1,10.44,0h0a6,6,0,0,1,2.43,4.71,2.06,2.06,0,0,1-4.12,0,2,2,0,0,0-.84-1.47h0a4.75,4.75,0,0,0-5.37,0h0a1.79,1.79,0,0,0-.83,1.68,2.58,2.58,0,0,0,1.84,1.81l4.79,1.82a6.59,6.59,0,0,1,4.47,5,5.9,5.9,0,0,1-2.36,5.55h0a8.78,8.78,0,0,1-10.44,0h0a6,6,0,0,1-2.43-4.71,2.06,2.06,0,1,1,4.12,0,2,2,0,0,0,.84,1.47,4.76,4.76,0,0,0,5.38,0h0A1.81,1.81,0,0,0,867.11,462.58Z"/><path class="cls-1" d="M873.46,466.9a2.23,2.23,0,1,1,2.23,2.23A2.23,2.23,0,0,1,873.46,466.9Z"/><path class="cls-1" d="M898.85,467.12V437.56a2.06,2.06,0,0,1,4.12,0v29.56a2.06,2.06,0,0,1-4.12,0Z"/><path class="cls-1" d="M920.42,467.44a6,6,0,0,1-4.26,1.76,6,6,0,0,1-6-6V450.65a2.05,2.05,0,0,1,0-3.85V441a2.06,2.06,0,1,1,4.12,0v5.65h1.33a2.06,2.06,0,0,1,0,4.12h-1.33v12.38a1.91,1.91,0,0,0,1.91,1.91,1.86,1.86,0,0,0,1.35-.56,2.06,2.06,0,1,1,2.91,2.92Z"/><path class="cls-1" d="M38.26,507.14,30.4,525.55a2.05,2.05,0,0,1-3.78,0l-6-14-6,14a2.06,2.06,0,0,1-3.79,0L3.05,507.14a2.06,2.06,0,1,1,3.78-1.62l6,14,6-14,.07-.12a1.43,1.43,0,0,1,.12-.21.61.61,0,0,1,.12-.16l.13-.15.16-.14.15-.12.21-.12a.75.75,0,0,1,.13-.06h0l.25-.08.14,0,.22,0,.18,0,.15,0,.24,0,.13,0a1.12,1.12,0,0,1,.26.08h0a.39.39,0,0,1,.11.06,1.67,1.67,0,0,1,.23.12l.14.11a1.22,1.22,0,0,1,.17.15l.13.15a1,1,0,0,1,.12.16,1.05,1.05,0,0,1,.12.21l.07.12,6,14,6-14a2.06,2.06,0,0,1,3.79,1.62Z"/><path class="cls-1" d="M63.43,515.54h0v9.19a2.06,2.06,0,0,1-4.12,0v-.5a11.27,11.27,0,1,1,0-17.41v-.5a2.06,2.06,0,0,1,4.12,0v9.21Zm-4.12,0a7.15,7.15,0,1,0-7.15,7.16,7.16,7.16,0,0,0,7.15-7.16Z"/><path class="cls-1" d="M80.39,520.18a2.62,2.62,0,0,0-1.85-1.81l-4.79-1.82a6.59,6.59,0,0,1-4.47-5A5.89,5.89,0,0,1,71.65,506h0a8.79,8.79,0,0,1,10.44,0h0a6,6,0,0,1,2.43,4.71,2.06,2.06,0,0,1-4.12,0,2,2,0,0,0-.84-1.47h0a4.76,4.76,0,0,0-5.38,0h0a1.81,1.81,0,0,0-.83,1.68,2.62,2.62,0,0,0,1.84,1.81l4.8,1.82a6.58,6.58,0,0,1,4.46,5,5.86,5.86,0,0,1-2.36,5.55h0a8.78,8.78,0,0,1-10.44,0h0a6,6,0,0,1-2.43-4.71,2.06,2.06,0,1,1,4.11,0,2,2,0,0,0,.85,1.47,4.76,4.76,0,0,0,5.38,0h0A1.81,1.81,0,0,0,80.39,520.18Z"/><path class="cls-1" d="M126.58,515.54h0v9.19a2.06,2.06,0,0,1-4.12,0v-.5a11.27,11.27,0,1,1,0-17.41v-.5a2.06,2.06,0,1,1,4.12,0v9.21Zm-4.12,0a7.15,7.15,0,1,0-7.15,7.16,7.16,7.16,0,0,0,7.15-7.16Z"/><path class="cls-1" d="M144,525a6,6,0,0,1-10.3-4.27V508.25a2.05,2.05,0,0,1,0-3.85v-5.78a2.06,2.06,0,0,1,4.12,0v5.65h1.33a2.06,2.06,0,0,1,0,4.12h-1.33v12.38a1.91,1.91,0,0,0,3.26,1.35A2.06,2.06,0,1,1,144,525Z"/><path class="cls-1" d="M175.81,525a6,6,0,0,1-10.29-4.27V508.25a2,2,0,0,1,0-3.85v-5.78a2.06,2.06,0,1,1,4.12,0v5.65H171a2.06,2.06,0,0,1,0,4.12h-1.33v12.38a1.91,1.91,0,0,0,3.26,1.35,2.06,2.06,0,1,1,2.91,2.92Z"/><path class="cls-1" d="M186.34,500.41h0a2.06,2.06,0,1,1-2.06-2.06A2.06,2.06,0,0,1,186.34,500.41Zm0,5.92v18.41a2.06,2.06,0,0,1-4.12,0V506.33a2.06,2.06,0,1,1,4.12,0Z"/><path class="cls-1" d="M227.7,514.19v10.55a2.06,2.06,0,0,1-4.12,0V514.19a5.8,5.8,0,1,0-11.59,0v10.55a2.06,2.06,0,0,1-4.12,0V514.19a5.8,5.8,0,0,0-11.6,0v10.55a2.06,2.06,0,1,1-4.11,0V506.33a2.05,2.05,0,0,1,4.1-.16,9.86,9.86,0,0,1,13.67,2,9.9,9.9,0,0,1,17.77,6Z"/><path class="cls-1" d="M254.39,515.54a2.07,2.07,0,0,1-2.06,2.06H236.28a7,7,0,0,0,1.78,3,7.15,7.15,0,0,0,10.11,0,2.06,2.06,0,0,1,2.92,2.91,11.26,11.26,0,0,1-19.23-7.8.86.86,0,0,1,0-.16,1,1,0,0,1,0-.17,11.27,11.27,0,0,1,22.53.17ZM250,513.48a7.16,7.16,0,0,0-11.91-3,7.08,7.08,0,0,0-1.78,3Z"/><path class="cls-1" d="M269.66,520.18a2.6,2.6,0,0,0-1.84-1.81l-4.8-1.82a6.58,6.58,0,0,1-4.46-5,5.9,5.9,0,0,1,2.36-5.55h0a8.78,8.78,0,0,1,10.43,0h0a6,6,0,0,1,2.43,4.71,2.06,2.06,0,1,1-4.12,0,1.93,1.93,0,0,0-.85-1.47h0a4.75,4.75,0,0,0-5.37,0h0a1.81,1.81,0,0,0-.83,1.68,2.6,2.6,0,0,0,1.84,1.81l4.8,1.82a6.59,6.59,0,0,1,4.46,5,5.9,5.9,0,0,1-2.36,5.55h0a8.8,8.8,0,0,1-10.45,0h0a6,6,0,0,1-2.43-4.71,2.06,2.06,0,0,1,4.12,0,1.93,1.93,0,0,0,.85,1.47,4.75,4.75,0,0,0,5.37,0h0A1.79,1.79,0,0,0,269.66,520.18Z"/><path class="cls-1" d="M315.86,515.54a11.27,11.27,0,0,1-18.42,8.7v11.64a2.06,2.06,0,0,1-4.12,0V515.55h0v-9.21a2.06,2.06,0,1,1,4.12,0v.5a11.27,11.27,0,0,1,18.42,8.71Zm-4.12,0a7.15,7.15,0,0,0-14.3,0v0a7.15,7.15,0,0,0,14.3,0Z"/><path class="cls-1" d="M342.5,515.54h0v9.19a2.06,2.06,0,1,1-4.12,0v-.5a11.27,11.27,0,1,1,0-17.41v-.5a2.06,2.06,0,0,1,4.12,0v9.21Zm-4.12,0a7.15,7.15,0,1,0-7.15,7.16,7.16,7.16,0,0,0,7.15-7.16Z"/><path class="cls-1" d="M360.26,506.33a2.06,2.06,0,0,1-2.06,2.06,5.8,5.8,0,0,0-5.8,5.8v10.55a2.06,2.06,0,1,1-4.12,0V506.33a2.06,2.06,0,0,1,4.11-.16,9.83,9.83,0,0,1,5.81-1.9A2.06,2.06,0,0,1,360.26,506.33Z"/><path class="cls-1" d="M377.68,525a6,6,0,0,1-10.29-4.27V508.25a2,2,0,0,1,0-3.85v-5.78a2.06,2.06,0,0,1,4.12,0v5.65h1.33a2.06,2.06,0,0,1,0,4.12h-1.33v12.38a1.91,1.91,0,0,0,3.26,1.35,2.06,2.06,0,1,1,2.91,2.92Z"/><path class="cls-1" d="M420.38,515.54a11.27,11.27,0,1,1-11.26-11.27A11.27,11.27,0,0,1,420.38,515.54Zm-4.12,0a7.15,7.15,0,1,0-7.14,7.14A7.15,7.15,0,0,0,416.26,515.54Z"/><path class="cls-1" d="M439.58,498.32a2.06,2.06,0,0,1-2.92,0,3.74,3.74,0,0,0-2.68-1.11,3.8,3.8,0,0,0-3.8,3.8v3.26h3.41a2.06,2.06,0,0,1,0,4.12h-3.41v16.35a2.06,2.06,0,1,1-4.11,0V508.32a2,2,0,0,1,0-4V501a7.91,7.91,0,0,1,13.51-5.6A2.06,2.06,0,0,1,439.58,498.32Z"/><path class="cls-1" d="M462.13,525a6,6,0,0,1-10.3-4.27V508.25a2.05,2.05,0,0,1,0-3.85v-5.78a2.06,2.06,0,0,1,4.12,0v5.65h1.33a2.06,2.06,0,0,1,0,4.12H456v12.38a1.91,1.91,0,0,0,3.26,1.35,2.06,2.06,0,1,1,2.92,2.92Z"/><path class="cls-1" d="M487.65,514.19v10.55a2.06,2.06,0,1,1-4.12,0V514.19a5.8,5.8,0,1,0-11.6,0v10.55a2.06,2.06,0,1,1-4.11,0V495.19a2.06,2.06,0,1,1,4.11,0v11a9.9,9.9,0,0,1,15.72,8Z"/><path class="cls-1" d="M514.35,515.54a2.06,2.06,0,0,1-2.06,2.06h-16a7.07,7.07,0,0,0,1.79,3,7.15,7.15,0,0,0,10.11,0,2.06,2.06,0,0,1,2.91,2.91,11.27,11.27,0,0,1-19.23-7.8v-.33a11.27,11.27,0,0,1,22.53.17Zm-4.42-2.06a7.06,7.06,0,0,0-1.79-3,7.15,7.15,0,0,0-11.9,3Z"/><path class="cls-1" d="M545.06,520.18a2.58,2.58,0,0,0-1.84-1.81l-4.79-1.82a6.59,6.59,0,0,1-4.47-5,5.89,5.89,0,0,1,2.37-5.55h0a8.79,8.79,0,0,1,10.44,0h0a6,6,0,0,1,2.43,4.71,2.06,2.06,0,0,1-4.12,0,1.93,1.93,0,0,0-.85-1.47h0a4.75,4.75,0,0,0-5.37,0h0a1.81,1.81,0,0,0-.83,1.68,2.6,2.6,0,0,0,1.84,1.81l4.8,1.82a6.58,6.58,0,0,1,4.46,5,5.88,5.88,0,0,1-2.36,5.55h0a8.8,8.8,0,0,1-10.45,0h0a6,6,0,0,1-2.43-4.71,2.06,2.06,0,0,1,4.12,0,1.93,1.93,0,0,0,.85,1.47,4.75,4.75,0,0,0,5.37,0h0A1.79,1.79,0,0,0,545.06,520.18Z"/><path class="cls-1" d="M577,515.54a11.26,11.26,0,0,1-18.41,8.7v11.64a2.06,2.06,0,0,1-4.12,0V515.55h0v-9.21a2.06,2.06,0,0,1,4.12,0v.5A11.26,11.26,0,0,1,577,515.54Zm-4.12,0a7.15,7.15,0,0,0-14.29,0v0a7.15,7.15,0,0,0,14.29,0Z"/><path class="cls-1" d="M602.64,514.19v10.55a2.06,2.06,0,1,1-4.12,0V514.19a5.8,5.8,0,1,0-11.6,0v10.55a2.06,2.06,0,1,1-4.11,0V495.19a2.06,2.06,0,1,1,4.11,0v11a9.9,9.9,0,0,1,15.72,8Z"/><path class="cls-1" d="M629.34,515.54a2.06,2.06,0,0,1-2.06,2.06h-16a7.07,7.07,0,0,0,1.79,3,7.15,7.15,0,0,0,10.11,0A2.06,2.06,0,0,1,626,523.5a11.27,11.27,0,0,1-19.23-7.8v-.33a11.27,11.27,0,0,1,22.53.17Zm-4.42-2.06a7.06,7.06,0,0,0-1.79-3,7.15,7.15,0,0,0-11.9,3Z"/><path class="cls-1" d="M645.9,506.33a2.06,2.06,0,0,1-2.06,2.06,5.81,5.81,0,0,0-5.8,5.8v10.55a2.06,2.06,0,1,1-4.11,0V506.33a2.05,2.05,0,0,1,4.1-.16,9.85,9.85,0,0,1,5.81-1.9A2.06,2.06,0,0,1,645.9,506.33Z"/><path class="cls-1" d="M669.66,515.54a2.06,2.06,0,0,1-2.06,2.06H651.55a7.07,7.07,0,0,0,1.79,3,7.15,7.15,0,0,0,10.11,0,2.06,2.06,0,0,1,2.91,2.91,11.27,11.27,0,0,1-19.23-7.8v-.33a11.27,11.27,0,0,1,22.53.17Zm-4.42-2.06a7.06,7.06,0,0,0-1.79-3,7.15,7.15,0,0,0-11.9,3Z"/><path class="cls-1" d="M711.74,515.54a11.27,11.27,0,1,1-11.27-11.27A11.28,11.28,0,0,1,711.74,515.54Zm-4.12,0a7.15,7.15,0,1,0-7.15,7.14A7.16,7.16,0,0,0,707.62,515.54Z"/><path class="cls-1" d="M730.93,498.32a2,2,0,0,1-2.91,0,3.76,3.76,0,0,0-2.68-1.11,3.8,3.8,0,0,0-3.8,3.8v3.26H725a2.06,2.06,0,0,1,0,4.12h-3.41v16.35a2.06,2.06,0,1,1-4.12,0V508.32a2,2,0,0,1,0-4V501a7.93,7.93,0,0,1,7.92-7.92,7.83,7.83,0,0,1,5.59,2.32A2,2,0,0,1,730.93,498.32Z"/><path class="cls-1" d="M746,500.41h0a2.06,2.06,0,1,1-2.06-2.06A2.06,2.06,0,0,1,746,500.41Zm0,5.92v18.41a2.06,2.06,0,1,1-4.12,0V506.33a2.06,2.06,0,0,1,4.12,0Z"/><path class="cls-1" d="M771.61,514.19v10.55a2.06,2.06,0,1,1-4.12,0V514.19a5.8,5.8,0,1,0-11.59,0v10.55a2.06,2.06,0,1,1-4.12,0V506.33a2.05,2.05,0,0,1,4.1-.16,9.9,9.9,0,0,1,15.73,8Z"/><path class="cls-1" d="M776.74,506.33a2.06,2.06,0,0,1,1.57-2V501a7.92,7.92,0,0,1,13.51-5.61,2.16,2.16,0,0,1,.27.33l0,0a2.4,2.4,0,0,1,.17.32v0a1.94,1.94,0,0,1,.15.76v27.87a2.06,2.06,0,1,1-4.12,0V497.83a3.8,3.8,0,0,0-5.88,3.18v3.26h1.17a2.06,2.06,0,0,1,0,4.12h-1.17v16.35a2.06,2.06,0,1,1-4.12,0V508.32A2,2,0,0,1,776.74,506.33Z"/><path class="cls-1" d="M818.08,506.33v18.41a2.06,2.06,0,0,1-4.11.16,9.83,9.83,0,0,1-5.81,1.9,9.93,9.93,0,0,1-9.92-9.91V506.33a2.06,2.06,0,0,1,4.12,0v10.56a5.8,5.8,0,0,0,11.6,0V506.33a2.06,2.06,0,0,1,4.12,0Z"/><path class="cls-1" d="M846,515.54a2.06,2.06,0,0,1-2.05,2.06h-16a7,7,0,0,0,1.78,3,7.15,7.15,0,0,0,10.11,0,2.06,2.06,0,0,1,2.91,2.91,11.26,11.26,0,0,1-19.22-7.8.86.86,0,0,1,0-.16,1,1,0,0,1,0-.17,11.26,11.26,0,0,1,22.52.17Zm-4.41-2.06a7.16,7.16,0,0,0-11.91-3,7.08,7.08,0,0,0-1.78,3Z"/><path class="cls-1" d="M870.39,514.19v10.55a2.06,2.06,0,1,1-4.11,0V514.19a5.8,5.8,0,1,0-11.6,0v10.55a2.06,2.06,0,1,1-4.12,0V506.33a2.06,2.06,0,0,1,4.11-.16,9.89,9.89,0,0,1,15.72,8Z"/><path class="cls-1" d="M893.79,523.5a11.27,11.27,0,1,1,0-15.93,2.06,2.06,0,1,1-2.91,2.91,7.15,7.15,0,1,0,0,10.11,2.06,2.06,0,0,1,2.91,2.91Z"/><path class="cls-1" d="M921.05,515.54A2.06,2.06,0,0,1,919,517.6h-16a7.07,7.07,0,0,0,1.79,3,7.14,7.14,0,0,0,10.1,0,2.06,2.06,0,0,1,2.92,2.91,11.26,11.26,0,0,1-19.23-7.8c0-.05,0-.11,0-.16s0-.11,0-.17a11.27,11.27,0,0,1,22.53.17Zm-4.42-2.06a7.16,7.16,0,0,0-11.9-3,7.1,7.1,0,0,0-1.79,3Z"/><path class="cls-1" d="M25.41,573.14a11.27,11.27,0,1,1-11.26-11.27A11.27,11.27,0,0,1,25.41,573.14Zm-4.12,0a7.15,7.15,0,1,0-7.14,7.14A7.15,7.15,0,0,0,21.29,573.14Z"/><path class="cls-1" d="M44.61,555.92a2,2,0,0,1-2.91,0,3.8,3.8,0,0,0-6.48,2.68v3.27h3.4a2.06,2.06,0,1,1,0,4.12h-3.4v16.35a2.06,2.06,0,0,1-4.12,0V565.92a2,2,0,0,1,0-4V558.6A7.91,7.91,0,0,1,44.61,553,2.06,2.06,0,0,1,44.61,555.92Z"/><path class="cls-1" d="M73,582.64a6,6,0,0,1-10.29-4.27V565.85a2,2,0,0,1,0-3.85v-5.78a2.06,2.06,0,0,1,4.12,0v5.65H68.2a2.06,2.06,0,0,1,0,4.12H66.87v12.38a1.91,1.91,0,0,0,3.26,1.35A2.06,2.06,0,0,1,73,582.64Z"/><path class="cls-1" d="M98.56,571.78v10.56a2.06,2.06,0,0,1-4.12,0V571.78a5.8,5.8,0,0,0-11.59,0v10.56a2.06,2.06,0,1,1-4.12,0V552.79a2.06,2.06,0,1,1,4.12,0v11a9.79,9.79,0,0,1,5.8-1.89A9.93,9.93,0,0,1,98.56,571.78Z"/><path class="cls-1" d="M125.26,573.14a2.05,2.05,0,0,1-2.06,2.05h-16a7.15,7.15,0,0,0,11.9,3A2.06,2.06,0,1,1,122,581.1a11.26,11.26,0,0,1-19.22-7.8.92.92,0,0,1,0-.16,1,1,0,0,1,0-.17,11.26,11.26,0,0,1,22.52.17Zm-4.41-2.06a7.15,7.15,0,0,0-13.7,0Z"/><path class="cls-1" d="M150.69,582.3V552.76a2.06,2.06,0,0,1,4.12,0v14.88l21.91-16.52a2.06,2.06,0,0,1,2.48,3.28l-13.59,10.26L179.52,581a2,2,0,0,1-.23,2.9,2,2,0,0,1-1.33.5,2.09,2.09,0,0,1-1.57-.72l-14.08-16.5-7.5,5.66v9.5a2.06,2.06,0,0,1-4.12,0Z"/><path class="cls-1" d="M205.66,571.78v10.56a2.06,2.06,0,0,1-4.12,0V571.78a5.8,5.8,0,0,0-11.59,0v10.56a2.06,2.06,0,0,1-4.12,0V552.79a2.06,2.06,0,0,1,4.12,0v11a9.79,9.79,0,0,1,5.8-1.89A9.93,9.93,0,0,1,205.66,571.78Z"/><path class="cls-1" d="M232.36,573.14h0v9.19a2.06,2.06,0,0,1-4.12,0v-.5a11.27,11.27,0,1,1,0-17.41v-.5a2.06,2.06,0,0,1,4.12,0v9.21Zm-4.12,0a7.15,7.15,0,1,0-7.14,7.16,7.15,7.15,0,0,0,7.14-7.16Z"/><path class="cls-1" d="M258,582.34a2.06,2.06,0,0,1-2.06,2.06H240.21a2.06,2.06,0,0,1-1.57-3.39l12.82-15H240.21a2.06,2.06,0,0,1,0-4.12h15.71a2.06,2.06,0,0,1,1.57,3.39l-12.82,15h11.25A2.06,2.06,0,0,1,258,582.34Z"/><path class="cls-1" d="M282,573.14h0v9.19a2.06,2.06,0,0,1-4.12,0v-.5a11.27,11.27,0,1,1,0-17.41v-.5a2.06,2.06,0,0,1,4.12,0v9.21Zm-4.12,0a7.15,7.15,0,1,0-7.14,7.16,7.15,7.15,0,0,0,7.14-7.16Z"/><path class="cls-1" d="M299.8,563.93a2.06,2.06,0,0,1-2.06,2.06,5.8,5.8,0,0,0-5.79,5.79v10.56a2.06,2.06,0,0,1-4.12,0V563.93a2.05,2.05,0,0,1,4.1-.16,9.85,9.85,0,0,1,5.81-1.9A2.06,2.06,0,0,1,299.8,563.93Z"/><path class="cls-1" d="M314.6,577.78a2.62,2.62,0,0,0-1.84-1.81l-4.8-1.82a6.59,6.59,0,0,1-4.47-5,5.91,5.91,0,0,1,2.37-5.55h0a8.82,8.82,0,0,1,10.44,0h0a6,6,0,0,1,2.43,4.71,2.06,2.06,0,0,1-4.12,0,2,2,0,0,0-.84-1.47h0a4.75,4.75,0,0,0-5.37,0h0a1.83,1.83,0,0,0-.83,1.68,2.62,2.62,0,0,0,1.84,1.81l4.8,1.82a6.59,6.59,0,0,1,4.47,5,5.9,5.9,0,0,1-2.36,5.55h0a8.78,8.78,0,0,1-10.44,0h0a6,6,0,0,1-2.43-4.71,2.06,2.06,0,0,1,4.12,0,2,2,0,0,0,.84,1.47,4.76,4.76,0,0,0,5.38,0h0A1.81,1.81,0,0,0,314.6,577.78Z"/><path class="cls-1" d="M354.85,585.21a2.06,2.06,0,0,1-2.92,2.91,29.15,29.15,0,0,1,0-41.16,2.06,2.06,0,1,1,2.92,2.91A25,25,0,0,0,354.85,585.21Z"/><path class="cls-1" d="M379.3,573.14a2.05,2.05,0,0,1-2.06,2.05H361.19a7,7,0,0,0,1.79,3,7.15,7.15,0,0,0,10.11,0A2.06,2.06,0,1,1,376,581.1a11.27,11.27,0,0,1-19.23-7.8V573a11.27,11.27,0,0,1,22.53.17Zm-4.42-2.06a7.06,7.06,0,0,0-1.79-3,7.15,7.15,0,0,0-11.9,3Z"/><path class="cls-1" d="M399.63,581a2.06,2.06,0,0,1-3.14,2.67l-6.29-7.37-6.29,7.37a2,2,0,0,1-1.56.72,2.05,2.05,0,0,1-1.57-3.39l6.72-7.87-6.72-7.88a2.06,2.06,0,0,1,3.13-2.67L390.2,570l6.29-7.37a2.06,2.06,0,0,1,3.14,2.67l-6.72,7.88Z"/><path class="cls-1" d="M420.39,581.1a11.27,11.27,0,1,1,0-15.93,2.06,2.06,0,0,1-2.91,2.91,7.16,7.16,0,0,0-10.11,0,7.15,7.15,0,0,0,10.11,10.11,2.06,2.06,0,1,1,2.91,2.91Z"/><path class="cls-1" d="M447.65,573.14h0v9.19a2.06,2.06,0,1,1-4.12,0v-.5a11.27,11.27,0,1,1,0-17.41v-.5a2.06,2.06,0,0,1,4.12,0v9.21Zm-4.12,0a7.15,7.15,0,1,0-7.14,7.16,7.15,7.15,0,0,0,7.14-7.16Z"/><path class="cls-1" d="M473.11,564.74l-7.86,18.41a2.06,2.06,0,0,1-3.79,0l-7.86-18.41a2.06,2.06,0,1,1,3.79-1.62l6,14,6-14a2.06,2.06,0,1,1,3.79,1.62Z"/><path class="cls-1" d="M498.29,573.14h0v9.19a2.06,2.06,0,1,1-4.12,0v-.5a11.27,11.27,0,1,1,0-17.41v-.5a2.06,2.06,0,0,1,4.12,0v9.21Zm-4.12,0a7.15,7.15,0,1,0-7.15,7.16,7.15,7.15,0,0,0,7.15-7.16Z"/><path class="cls-1" d="M515.72,582.64a6,6,0,0,1-10.29-4.27V565.85a2,2,0,0,1,0-3.85v-5.78a2.06,2.06,0,1,1,4.11,0v5.65h1.33a2.06,2.06,0,1,1,0,4.12h-1.33v12.38a1.91,1.91,0,0,0,1.92,1.91,1.93,1.93,0,0,0,1.35-.56,2.06,2.06,0,0,1,2.91,2.92Z"/><path class="cls-1" d="M526.24,558h0a2.06,2.06,0,1,1-2.06-2.06A2.06,2.06,0,0,1,526.24,558Zm0,5.92v18.41a2.06,2.06,0,1,1-4.11,0V563.93a2.06,2.06,0,1,1,4.11,0Z"/><path class="cls-1" d="M554.59,573.14a11.27,11.27,0,1,1-11.26-11.27A11.27,11.27,0,0,1,554.59,573.14Zm-4.12,0a7.15,7.15,0,1,0-7.14,7.14A7.15,7.15,0,0,0,550.47,573.14Z"/><path class="cls-1" d="M579,571.78v10.56a2.06,2.06,0,1,1-4.12,0V571.78a5.8,5.8,0,0,0-11.59,0v10.56a2.06,2.06,0,1,1-4.12,0V563.93a2.05,2.05,0,0,1,4.1-.16,9.9,9.9,0,0,1,15.73,8Z"/><path class="cls-1" d="M594.83,577.78A2.62,2.62,0,0,0,593,576l-4.8-1.82a6.58,6.58,0,0,1-4.46-5,5.88,5.88,0,0,1,2.36-5.55h0a8.81,8.81,0,0,1,10.43,0h0a6,6,0,0,1,2.42,4.71,2.06,2.06,0,1,1-4.11,0,1.93,1.93,0,0,0-.85-1.47h0a4.75,4.75,0,0,0-5.37,0h0a1.79,1.79,0,0,0-.83,1.68,2.58,2.58,0,0,0,1.84,1.81l4.79,1.82a6.59,6.59,0,0,1,4.47,5,5.9,5.9,0,0,1-2.36,5.55h0a8.8,8.8,0,0,1-10.45,0h0a6,6,0,0,1-2.43-4.71,2.06,2.06,0,1,1,4.12,0,1.93,1.93,0,0,0,.85,1.47,4.75,4.75,0,0,0,5.37,0h0A1.79,1.79,0,0,0,594.83,577.78Z"/><path class="cls-1" d="M644.21,571.78v10.56a2.06,2.06,0,1,1-4.12,0V571.78a5.8,5.8,0,0,0-11.6,0v10.56a2.06,2.06,0,1,1-4.11,0V552.79a2.06,2.06,0,1,1,4.11,0v11a9.9,9.9,0,0,1,15.72,8Z"/><path class="cls-1" d="M670.91,573.14h0v9.19a2.06,2.06,0,1,1-4.12,0v-.5a11.27,11.27,0,1,1,0-17.41v-.5a2.06,2.06,0,0,1,4.12,0v9.21Zm-4.12,0a7.15,7.15,0,1,0-7.15,7.16,7.16,7.16,0,0,0,7.15-7.16Z"/><path class="cls-1" d="M696.36,564.74l-7.85,18.41a2.06,2.06,0,0,1-3.79,0l-7.86-18.41a2.06,2.06,0,1,1,3.79-1.62l6,14,6-14a2.06,2.06,0,1,1,3.78,1.62Z"/><path class="cls-1" d="M721.55,573.14a2.05,2.05,0,0,1-2.06,2.05h-16a7,7,0,0,0,1.79,3,7.15,7.15,0,0,0,10.11,0,2.06,2.06,0,1,1,2.91,2.91A11.27,11.27,0,0,1,699,573.3c0-.06,0-.11,0-.16s0-.11,0-.17a11.27,11.27,0,0,1,22.53.17Zm-4.42-2.06a7.15,7.15,0,0,0-13.69,0Z"/><path class="cls-1" d="M759,563.93a2.06,2.06,0,0,1-2.06,2.06,5.8,5.8,0,0,0-5.79,5.79v10.56a2.06,2.06,0,1,1-4.12,0V563.93a2.05,2.05,0,0,1,4.1-.16,9.85,9.85,0,0,1,5.81-1.9A2.06,2.06,0,0,1,759,563.93Z"/><path class="cls-1" d="M782.71,573.14a2.05,2.05,0,0,1-2.06,2.05h-16a7.15,7.15,0,0,0,11.9,3,2.06,2.06,0,0,1,2.91,2.91,11.27,11.27,0,0,1-19.23-7.8V573a11.27,11.27,0,0,1,22.53.17Zm-4.42-2.06a7.06,7.06,0,0,0-1.79-3,7.15,7.15,0,0,0-11.9,3Z"/><path class="cls-1" d="M804.81,564.74,797,583.15a2.06,2.06,0,0,1-3.79,0l-7.86-18.41a2.06,2.06,0,1,1,3.79-1.62l6,14,6-14a2.06,2.06,0,1,1,3.79,1.62Z"/><path class="cls-1" d="M830,573.14a2.05,2.05,0,0,1-2.06,2.05h-16a7.15,7.15,0,0,0,11.9,3,2.06,2.06,0,1,1,2.91,2.91,11.27,11.27,0,0,1-19.23-7.8V573a11.27,11.27,0,0,1,22.53.17Zm-4.42-2.06a7.06,7.06,0,0,0-1.79-3,7.15,7.15,0,0,0-11.9,3Z"/><path class="cls-1" d="M856.63,573.14h0v9.19a2.06,2.06,0,1,1-4.12,0v-.5a11.27,11.27,0,1,1,0-17.41v-.5a2.06,2.06,0,0,1,4.12,0v9.21Zm-4.12,0a7.15,7.15,0,1,0-7.14,7.16,7.15,7.15,0,0,0,7.14-7.16Z"/><path class="cls-1" d="M866.54,552.79v29.55a2.06,2.06,0,1,1-4.12,0V552.79a2.06,2.06,0,0,1,4.12,0Z"/><path class="cls-1" d="M894.41,573.14a2.05,2.05,0,0,1-2.06,2.05H876.3a7,7,0,0,0,1.79,3,7.15,7.15,0,0,0,10.11,0,2.06,2.06,0,0,1,2.91,2.91,11.26,11.26,0,0,1-19.23-7.8c0-.06,0-.11,0-.16s0-.11,0-.17a11.27,11.27,0,0,1,22.53.17ZM890,571.08a7.27,7.27,0,0,0-1.79-3,7.15,7.15,0,0,0-11.9,3Z"/><path class="cls-1" d="M921.05,573.14h0v9.19a2.06,2.06,0,1,1-4.12,0v-.5a11.27,11.27,0,1,1,0-17.41V552.79a2.06,2.06,0,0,1,4.12,0v20.35Zm-4.12,0a7.15,7.15,0,1,0-7.15,7.16,7.16,7.16,0,0,0,7.15-7.16Z"/><path class="cls-1" d="M2.88,639.9V610.36a2.06,2.06,0,1,1,4.12,0v14.88l21.9-16.52A2.06,2.06,0,1,1,31.38,612L17.79,622.26l13.92,16.3a2.06,2.06,0,0,1-3.13,2.68L14.5,624.74,7,630.4v9.5a2.06,2.06,0,1,1-4.12,0Z"/><path class="cls-1" d="M57.85,629.39v10.55a2.06,2.06,0,0,1-4.12,0V629.39a5.8,5.8,0,0,0-11.6,0v10.55a2.06,2.06,0,1,1-4.11,0V610.39a2.06,2.06,0,1,1,4.11,0v11a9.9,9.9,0,0,1,15.72,8Z"/><path class="cls-1" d="M84.55,630.74h0v9.19a2.06,2.06,0,0,1-4.12,0v-.5a11.27,11.27,0,1,1,0-17.41v-.5a2.06,2.06,0,0,1,4.12,0v9.21Zm-4.12,0a7.15,7.15,0,1,0-7.15,7.16,7.16,7.16,0,0,0,7.15-7.16Z"/><path class="cls-1" d="M110.17,639.94a2.06,2.06,0,0,1-2.06,2.06H92.4a2.06,2.06,0,0,1-1.57-3.39l12.82-15H92.4a2.06,2.06,0,1,1,0-4.12h15.71a2.07,2.07,0,0,1,1.87,1.2,2,2,0,0,1-.3,2.19l-12.82,15h11.25A2.06,2.06,0,0,1,110.17,639.94Z"/><path class="cls-1" d="M134.23,630.74h0v9.19a2.06,2.06,0,0,1-4.12,0v-.5a11.27,11.27,0,1,1,0-17.41v-.5a2.06,2.06,0,0,1,4.12,0v9.21Zm-4.12,0a7.15,7.15,0,1,0-7.15,7.16,7.16,7.16,0,0,0,7.15-7.16Z"/><path class="cls-1" d="M152,621.53a2.06,2.06,0,0,1-2.06,2.06,5.8,5.8,0,0,0-5.8,5.8v10.55a2.06,2.06,0,1,1-4.11,0V621.53a2.05,2.05,0,0,1,4.1-.16,9.83,9.83,0,0,1,5.81-1.9A2.06,2.06,0,0,1,152,621.53Z"/><path class="cls-1" d="M209.18,630.74h0v9.19a2.06,2.06,0,0,1-4.12,0v-.5a11.27,11.27,0,1,1,0-17.41v-.5a2.06,2.06,0,0,1,4.12,0v9.21Zm-4.12,0a7.15,7.15,0,1,0-7.14,7.16,7.15,7.15,0,0,0,7.14-7.16Z"/><path class="cls-1" d="M226.94,621.53a2.06,2.06,0,0,1-2.06,2.06,5.8,5.8,0,0,0-5.79,5.8v10.55a2.06,2.06,0,0,1-4.12,0V621.53a2.05,2.05,0,0,1,4.1-.16,9.85,9.85,0,0,1,5.81-1.9A2.06,2.06,0,0,1,226.94,621.53Z"/><path class="cls-1" d="M244.37,640.24a6,6,0,0,1-10.3-4.26V623.45a2.05,2.05,0,0,1,0-3.85v-5.78a2.06,2.06,0,1,1,4.12,0v5.65h1.33a2.06,2.06,0,1,1,0,4.12h-1.33V636a1.92,1.92,0,0,0,3.27,1.35,2.06,2.06,0,1,1,2.91,2.92Z"/><path class="cls-1" d="M254.89,615.61h0a2.06,2.06,0,1,1-2.06-2.06A2.06,2.06,0,0,1,254.89,615.61Zm0,5.92v18.41a2.06,2.06,0,1,1-4.11,0V621.53a2.06,2.06,0,1,1,4.11,0Z"/><path class="cls-1" d="M275.8,613.52a2,2,0,0,1-2.91,0,3.8,3.8,0,0,0-6.48,2.69v3.26h3.4a2.06,2.06,0,0,1,0,4.12h-3.4v16.35a2.06,2.06,0,0,1-4.12,0V623.52a2,2,0,0,1,0-4v-3.32a7.91,7.91,0,0,1,13.51-5.6A2.06,2.06,0,0,1,275.8,613.52Z"/><path class="cls-1" d="M292.31,630.74h0v9.19a2.06,2.06,0,1,1-4.11,0v-.5a11.27,11.27,0,1,1,0-17.41v-.5a2.06,2.06,0,1,1,4.11,0v9.21Zm-4.11,0a7.15,7.15,0,1,0-7.15,7.16,7.16,7.16,0,0,0,7.15-7.16Z"/><path class="cls-1" d="M316.85,638.7a11.27,11.27,0,1,1,0-15.93,2.08,2.08,0,0,1,0,2.92,2.06,2.06,0,0,1-2.91,0,7.15,7.15,0,1,0,0,10.11,2.06,2.06,0,0,1,2.91,2.91Z"/><path class="cls-1" d="M333.21,640.24A6,6,0,0,1,329,642a6,6,0,0,1-6-6V623.45a2.05,2.05,0,0,1,0-3.85v-5.78a2.06,2.06,0,1,1,4.12,0v5.65h1.33a2.06,2.06,0,0,1,0,4.12H327V636a1.91,1.91,0,0,0,1.91,1.91,1.86,1.86,0,0,0,1.35-.56,2.06,2.06,0,1,1,2.91,2.92Z"/><path class="cls-1" d="M347.91,635.38a2.6,2.6,0,0,0-1.84-1.81l-4.8-1.82a6.59,6.59,0,0,1-4.46-5,5.9,5.9,0,0,1,2.36-5.55h0a8.78,8.78,0,0,1,10.43,0h0a6,6,0,0,1,2.43,4.71,2.06,2.06,0,1,1-4.12,0,1.93,1.93,0,0,0-.85-1.47h0a4.75,4.75,0,0,0-5.37,0h0a1.81,1.81,0,0,0-.83,1.68,2.6,2.6,0,0,0,1.84,1.81l4.8,1.82a6.58,6.58,0,0,1,4.46,5,5.9,5.9,0,0,1-2.36,5.55h0a8.8,8.8,0,0,1-10.45,0h0a6,6,0,0,1-2.43-4.71,2.06,2.06,0,1,1,4.12,0,1.93,1.93,0,0,0,.85,1.47,4.75,4.75,0,0,0,5.37,0h0A1.81,1.81,0,0,0,347.91,635.38Z"/><path class="cls-1" d="M409.22,630.74h0v9.19a2.06,2.06,0,1,1-4.12,0v-.5a11.27,11.27,0,1,1,0-17.41V610.39a2.06,2.06,0,0,1,4.12,0v20.35Zm-4.12,0a7.15,7.15,0,1,0-7.14,7.16,7.15,7.15,0,0,0,7.14-7.16Z"/><path class="cls-1" d="M437.06,630.74h0v9.19a2.06,2.06,0,1,1-4.12,0v-.5a11.27,11.27,0,1,1,0-17.41v-.5a2.06,2.06,0,0,1,4.12,0v9.21Zm-4.12,0a7.15,7.15,0,1,0-7.15,7.16,7.15,7.15,0,0,0,7.15-7.16Z"/><path class="cls-1" d="M454.49,640.24A6,6,0,0,1,444.2,636V623.45a2,2,0,0,1,0-3.85v-5.78a2.06,2.06,0,1,1,4.11,0v5.65h1.33a2.06,2.06,0,1,1,0,4.12h-1.33V636a1.92,1.92,0,0,0,3.27,1.35,2.06,2.06,0,1,1,2.91,2.92Z"/><path class="cls-1" d="M465,615.61h0a2.06,2.06,0,1,1-2.05-2.06A2.05,2.05,0,0,1,465,615.61Zm0,5.92v18.41a2.06,2.06,0,1,1-4.11,0V621.53a2.06,2.06,0,1,1,4.11,0Z"/><path class="cls-1" d="M490.66,629.39v10.55a2.06,2.06,0,1,1-4.12,0V629.39a5.8,5.8,0,1,0-11.59,0v10.55a2.06,2.06,0,1,1-4.12,0V621.53a2.05,2.05,0,0,1,4.1-.16,9.9,9.9,0,0,1,15.73,8Z"/><path class="cls-1" d="M517.36,621.53v20.39a11.26,11.26,0,0,1-19.23,8A2.06,2.06,0,1,1,501,647a7.15,7.15,0,0,0,12.2-5.05v-2.48a11.27,11.27,0,1,1,0-17.41v-.5a2.06,2.06,0,0,1,4.12,0Zm-4.12,9.21a7.15,7.15,0,1,0-7.14,7.14A7.15,7.15,0,0,0,513.24,630.74Z"/><path class="cls-1" d="M574.56,630.74a11.27,11.27,0,0,1-18.42,8.7v.5a2.06,2.06,0,1,1-4.12,0v-9.2h0V610.35a2.06,2.06,0,1,1,4.12,0V622a11.27,11.27,0,0,1,18.42,8.71Zm-4.12,0a7.15,7.15,0,0,0-14.3,0h0a7.15,7.15,0,0,0,14.3,0Z"/><path class="cls-1" d="M601.2,630.74h0v9.19a2.06,2.06,0,1,1-4.12,0v-.5a11.27,11.27,0,1,1,0-17.41v-.5a2.06,2.06,0,0,1,4.12,0v9.21Zm-4.12,0a7.15,7.15,0,1,0-7.15,7.16,7.16,7.16,0,0,0,7.15-7.16Z"/><path class="cls-1" d="M625.73,638.7a11.27,11.27,0,1,1,0-15.93,2.06,2.06,0,1,1-2.91,2.91,7.15,7.15,0,1,0,0,10.11,2.06,2.06,0,1,1,2.91,2.91Z"/><path class="cls-1" d="M651.48,638.61a2.06,2.06,0,0,1-3.14,2.67l-8.3-9.73-3.78,2.86v5.53a2.06,2.06,0,1,1-4.12,0V610.39a2.06,2.06,0,0,1,4.12,0v18.86l12.41-9.37a2.06,2.06,0,0,1,2.48,3.29l-7.82,5.9Z"/><path class="cls-1" d="M698.33,640.24A6,6,0,0,1,688,636V623.45a2,2,0,0,1,0-3.85v-5.78a2.06,2.06,0,1,1,4.12,0v5.65h1.32a2.06,2.06,0,1,1,0,4.12h-1.32V636a1.9,1.9,0,0,0,1.91,1.91,1.86,1.86,0,0,0,1.35-.56,2.06,2.06,0,1,1,2.91,2.92Z"/><path class="cls-1" d="M723,630.74a11.27,11.27,0,1,1-11.27-11.27A11.27,11.27,0,0,1,723,630.74Zm-4.12,0a7.15,7.15,0,1,0-7.15,7.14A7.16,7.16,0,0,0,718.83,630.74Z"/><path class="cls-1" d="M769.25,640.24A6,6,0,0,1,759,636V623.45a2,2,0,0,1,0-3.85v-5.78a2.06,2.06,0,1,1,4.12,0v5.65h1.32a2.06,2.06,0,1,1,0,4.12h-1.32V636a1.9,1.9,0,0,0,1.91,1.91,1.86,1.86,0,0,0,1.35-.56,2.06,2.06,0,1,1,2.91,2.92Z"/><path class="cls-1" d="M794.77,629.39v10.55a2.06,2.06,0,1,1-4.12,0V629.39a5.8,5.8,0,1,0-11.59,0v10.55a2.06,2.06,0,0,1-4.12,0V610.39a2.06,2.06,0,1,1,4.12,0v11a9.89,9.89,0,0,1,15.71,8Z"/><path class="cls-1" d="M821.47,630.74a2.06,2.06,0,0,1-2.06,2.06h-16a7.15,7.15,0,0,0,11.9,3,2.06,2.06,0,0,1,2.91,2.91,11.27,11.27,0,0,1-19.23-7.8v-.33a11.27,11.27,0,0,1,22.53.17Zm-4.42-2.06a7.06,7.06,0,0,0-1.79-3,7.15,7.15,0,0,0-11.9,3Z"/><path class="cls-1" d="M858.42,611.91a12.24,12.24,0,1,1,17.31,17.31l-12.1,12.1a2.06,2.06,0,1,1-2.91-2.91l5.64-5.64a12.23,12.23,0,0,1-7.94-20.86Zm.53,8.66a8.11,8.11,0,1,0,2.38-5.75A8.07,8.07,0,0,0,859,620.57Z"/><path class="cls-1" d="M895.47,640.24a6,6,0,0,1-10.3-4.26V623.45a2.05,2.05,0,0,1,0-3.85v-5.78a2.06,2.06,0,1,1,4.12,0v5.65h1.33a2.06,2.06,0,1,1,0,4.12h-1.33V636a1.91,1.91,0,0,0,1.91,1.91,1.86,1.86,0,0,0,1.35-.56,2.06,2.06,0,1,1,2.92,2.92Z"/><path class="cls-1" d="M921,629.39v10.55a2.06,2.06,0,1,1-4.12,0V629.39a5.8,5.8,0,1,0-11.6,0v10.55a2.06,2.06,0,1,1-4.12,0V610.39a2.06,2.06,0,0,1,4.12,0v11a9.9,9.9,0,0,1,15.72,8Z"/><path class="cls-1" d="M22.11,696.3a11.27,11.27,0,1,1,0-15.93,2.06,2.06,0,1,1-2.92,2.91,7.15,7.15,0,1,0,0,10.11,2.06,2.06,0,0,1,2.92,2.91Z"/><path class="cls-1" d="M49.37,688.34a2.07,2.07,0,0,1-2.06,2.06h-16a7,7,0,0,0,1.78,3,7.15,7.15,0,0,0,10.11,0,2.06,2.06,0,0,1,2.92,2.91,11.26,11.26,0,0,1-19.23-7.8.92.92,0,0,1,0-.16,1,1,0,0,1,0-.17,11.27,11.27,0,0,1,22.53.17ZM45,686.28a7.16,7.16,0,0,0-11.91-3,7.08,7.08,0,0,0-1.78,3Z"/><path class="cls-1" d="M73.79,687v10.56a2.06,2.06,0,0,1-4.12,0V687a5.8,5.8,0,0,0-11.6,0v10.56a2.06,2.06,0,0,1-4.12,0V679.13a2.06,2.06,0,0,1,4.11-.16,9.83,9.83,0,0,1,5.81-1.9A9.93,9.93,0,0,1,73.79,687Z"/><path class="cls-1" d="M89.59,697.84a6,6,0,0,1-10.29-4.27V681.05a2,2,0,0,1,0-3.85v-5.78a2.06,2.06,0,0,1,4.12,0v5.65h1.33a2.06,2.06,0,0,1,0,4.12H83.42v12.38a1.91,1.91,0,0,0,3.26,1.35,2.06,2.06,0,1,1,2.91,2.92Z"/><path class="cls-1" d="M112.47,679.13v18.41a2.05,2.05,0,0,1-4.1.16,9.9,9.9,0,0,1-15.73-8V679.13a2.06,2.06,0,0,1,4.12,0v10.56a5.8,5.8,0,0,0,11.59,0V679.13a2.06,2.06,0,0,1,4.12,0Z"/><path class="cls-1" d="M130.3,679.13a2.06,2.06,0,0,1-2.06,2.06,5.8,5.8,0,0,0-5.8,5.79v10.56a2.06,2.06,0,0,1-4.12,0V679.13a2.05,2.05,0,0,1,4.1-.16,9.86,9.86,0,0,1,5.82-1.9A2.06,2.06,0,0,1,130.3,679.13Z"/><path class="cls-1" d="M155,679.94l-3.26,7.63h0l-9.3,21.91a2.08,2.08,0,0,1-1.9,1.25,2.13,2.13,0,0,1-.81-.16,2.07,2.07,0,0,1-1.09-2.7l4.38-10.31-7.52-17.63a2.06,2.06,0,1,1,3.78-1.62l6,14L148,686l0-.06h0l3.26-7.65a2.06,2.06,0,1,1,3.79,1.62Z"/><path class="cls-1" d="M160,703.32a2.06,2.06,0,1,1-2.91-2.91,25,25,0,0,0,0-35.34,2.06,2.06,0,1,1,2.91-2.91A29.13,29.13,0,0,1,160,703.32Z"/><path class="cls-1" d="M212.9,688.34h0v9.19a2.06,2.06,0,0,1-4.12,0V697a11.27,11.27,0,1,1,0-17.41v-.5a2.06,2.06,0,0,1,4.12,0v9.21Zm-4.12,0a7.15,7.15,0,1,0-7.15,7.16,7.16,7.16,0,0,0,7.15-7.16Z"/><path class="cls-1" d="M238.52,687v10.56a2.06,2.06,0,0,1-4.12,0V687a5.8,5.8,0,0,0-11.6,0v10.56a2.06,2.06,0,1,1-4.11,0V679.13a2.05,2.05,0,0,1,4.1-.16,9.83,9.83,0,0,1,5.81-1.9A9.93,9.93,0,0,1,238.52,687Z"/><path class="cls-1" d="M265.22,688.34h0v9.19a2.06,2.06,0,0,1-4.12,0V697a11.27,11.27,0,1,1,0-17.41V668a2.06,2.06,0,0,1,4.12,0v20.35Zm-4.12,0a7.15,7.15,0,1,0-7.15,7.16,7.16,7.16,0,0,0,7.15-7.16Z"/><path class="cls-1" d="M310.24,688.34A11.27,11.27,0,1,1,299,677.07,11.27,11.27,0,0,1,310.24,688.34Zm-4.12,0a7.15,7.15,0,1,0-7.14,7.14A7.15,7.15,0,0,0,306.12,688.34Z"/><path class="cls-1" d="M329.44,671.12a2.06,2.06,0,0,1-2.92,0,3.74,3.74,0,0,0-2.68-1.11,3.8,3.8,0,0,0-3.8,3.8v3.26h3.41a2.06,2.06,0,0,1,0,4.12H320v16.35a2.06,2.06,0,1,1-4.11,0V681.12a2,2,0,0,1,0-4v-3.32a7.91,7.91,0,0,1,13.51-5.6A2.06,2.06,0,0,1,329.44,671.12Z"/><path class="cls-1" d="M354.93,697.84a6,6,0,0,1-10.29-4.27V681.05a2,2,0,0,1,0-3.85v-5.78a2.06,2.06,0,0,1,4.12,0v5.65h1.33a2.06,2.06,0,1,1,0,4.12h-1.33v12.38a1.91,1.91,0,0,0,3.26,1.35,2.06,2.06,0,1,1,2.91,2.92Z"/><path class="cls-1" d="M380.45,687v10.56a2.06,2.06,0,0,1-4.12,0V687a5.8,5.8,0,0,0-11.59,0v10.56a2.06,2.06,0,0,1-4.12,0V668a2.06,2.06,0,0,1,4.12,0v11a9.79,9.79,0,0,1,5.8-1.89A9.93,9.93,0,0,1,380.45,687Z"/><path class="cls-1" d="M407.15,688.34a2.06,2.06,0,0,1-2.06,2.06H389a7.15,7.15,0,0,0,11.9,3,2.06,2.06,0,0,1,2.91,2.91,11.26,11.26,0,0,1-19.22-7.8.92.92,0,0,1,0-.16,1,1,0,0,1,0-.17,11.26,11.26,0,0,1,22.52.17Zm-4.41-2.06a7.15,7.15,0,0,0-13.7,0Z"/><path class="cls-1" d="M456.18,674a8,8,0,0,1-2.28,5.61,10.83,10.83,0,0,1-5.77,20H431.7a2.07,2.07,0,0,1-2.06-2.05V668a2.06,2.06,0,0,1,2.06-2.06h16.43A8.06,8.06,0,0,1,456.18,674Zm-22.42,3.93h14.37a3.94,3.94,0,0,0,0-7.87H433.76ZM448.13,682H433.76v13.44h14.37a6.72,6.72,0,0,0,0-13.43Z"/><path class="cls-1" d="M482,679.94l-3.26,7.63h0l-9.3,21.91a2.08,2.08,0,0,1-1.9,1.25,2.05,2.05,0,0,1-1.89-2.86L470,697.57l-7.52-17.63a2.06,2.06,0,1,1,3.79-1.62l6,14,2.67-6.26,0-.06h0l3.26-7.65a2.06,2.06,0,1,1,3.79,1.62Z"/><path class="cls-1" d="M507.84,697.54a2.05,2.05,0,0,1-2,2.06H490.07a2.06,2.06,0,0,1-1.57-3.39l12.82-15H490.07a2.06,2.06,0,1,1,0-4.12h15.72a2.05,2.05,0,0,1,1.56,3.39l-12.81,15h11.25A2.06,2.06,0,0,1,507.84,697.54Z"/><path class="cls-1" d="M531.9,688.34h0v9.19a2.06,2.06,0,0,1-4.12,0V697a11.27,11.27,0,1,1,0-17.41v-.5a2.06,2.06,0,0,1,4.12,0v9.21Zm-4.12,0a7.15,7.15,0,1,0-7.14,7.16,7.14,7.14,0,0,0,7.14-7.16Z"/><path class="cls-1" d="M557.52,687v10.56a2.06,2.06,0,0,1-4.12,0V687a5.8,5.8,0,0,0-11.59,0v10.56a2.06,2.06,0,0,1-4.12,0V679.13a2.05,2.05,0,0,1,4.1-.16,9.9,9.9,0,0,1,15.73,8Z"/><path class="cls-1" d="M573.33,697.84A6,6,0,0,1,563,693.57V681.05a2,2,0,0,1,0-3.85v-5.78a2.06,2.06,0,0,1,4.12,0v5.65h1.32a2.06,2.06,0,1,1,0,4.12h-1.32v12.38a1.91,1.91,0,0,0,3.26,1.35,2.06,2.06,0,0,1,2.91,2.92Z"/><path class="cls-1" d="M583.86,673.21h0a2.06,2.06,0,1,1-2.06-2.06A2.06,2.06,0,0,1,583.86,673.21Zm0,5.92v18.41a2.06,2.06,0,0,1-4.12,0V679.13a2.06,2.06,0,0,1,4.12,0Z"/><path class="cls-1" d="M609.51,687v10.56a2.06,2.06,0,0,1-4.12,0V687a5.8,5.8,0,0,0-11.6,0v10.56a2.06,2.06,0,0,1-4.12,0V679.13a2.06,2.06,0,0,1,4.11-.16,9.83,9.83,0,0,1,5.81-1.9A9.93,9.93,0,0,1,609.51,687Z"/><path class="cls-1" d="M636.21,688.34a2.06,2.06,0,0,1-2.06,2.06h-16a7.07,7.07,0,0,0,1.79,3,7.15,7.15,0,0,0,10.11,0,2.06,2.06,0,0,1,2.91,2.91,11.26,11.26,0,0,1-19.23-7.8c0-.06,0-.11,0-.16s0-.11,0-.17a11.27,11.27,0,0,1,22.53.17Zm-4.42-2.06a7.27,7.27,0,0,0-1.79-3,7.15,7.15,0,0,0-11.9,3Z"/><path class="cls-1" d="M660.76,665.9H686a2.06,2.06,0,0,1,0,4.12H662.82v10.66h10.54a2.06,2.06,0,0,1,0,4.12H662.82v10.66H686a2.06,2.06,0,1,1,0,4.11H660.76a2.05,2.05,0,0,1-2.06-2.05V668A2.06,2.06,0,0,1,660.76,665.9Z"/><path class="cls-1" d="M729.38,687v10.56a2.06,2.06,0,0,1-4.12,0V687a5.8,5.8,0,0,0-11.59,0v10.56a2.06,2.06,0,1,1-4.12,0V687a5.8,5.8,0,0,0-11.6,0v10.56a2.06,2.06,0,0,1-4.12,0V679.13a2.06,2.06,0,0,1,4.11-.16,9.86,9.86,0,0,1,13.67,2,9.9,9.9,0,0,1,17.77,6Z"/><path class="cls-1" d="M757.74,688.34a11.26,11.26,0,0,1-18.41,8.7v11.64a2.06,2.06,0,0,1-4.12,0V688.35h0v-9.21a2.06,2.06,0,0,1,4.12,0v.5a11.26,11.26,0,0,1,18.41,8.71Zm-4.12,0a7.15,7.15,0,0,0-14.29,0v0a7.15,7.15,0,0,0,14.29,0Z"/><path class="cls-1" d="M767.65,673.21h0a2.06,2.06,0,1,1-2.06-2.06A2.06,2.06,0,0,1,767.65,673.21Zm0,5.92v18.41a2.06,2.06,0,0,1-4.12,0V679.13a2.06,2.06,0,0,1,4.12,0Z"/><path class="cls-1" d="M785.44,679.13a2.06,2.06,0,0,1-2.06,2.06,5.8,5.8,0,0,0-5.8,5.79v10.56a2.06,2.06,0,0,1-4.12,0V679.13a2.06,2.06,0,0,1,4.11-.16,9.83,9.83,0,0,1,5.81-1.9A2.06,2.06,0,0,1,785.44,679.13Z"/><path class="cls-1" d="M809.2,688.34a2.06,2.06,0,0,1-2.06,2.06h-16a7.07,7.07,0,0,0,1.79,3,7.15,7.15,0,0,0,10.11,0,2.06,2.06,0,0,1,2.91,2.91,11.26,11.26,0,0,1-19.23-7.8c0-.06,0-.11,0-.16s0-.11,0-.17a11.27,11.27,0,0,1,22.53.17Zm-4.42-2.06a7.27,7.27,0,0,0-1.79-3,7.15,7.15,0,0,0-11.9,3Z"/><path class="cls-1" d="M811.43,697.3a2.23,2.23,0,1,1,2.23,2.23A2.23,2.23,0,0,1,811.43,697.3Z"/></svg>