<?xml version="1.0" encoding="UTF-8" standalone="no"?>
<svg
   xmlns:dc="http://purl.org/dc/elements/1.1/"
   xmlns:cc="http://creativecommons.org/ns#"
   xmlns:rdf="http://www.w3.org/1999/02/22-rdf-syntax-ns#"
   xmlns:svg="http://www.w3.org/2000/svg"
   xmlns="http://www.w3.org/2000/svg"
   xmlns:sodipodi="http://sodipodi.sourceforge.net/DTD/sodipodi-0.dtd"
   xmlns:inkscape="http://www.inkscape.org/namespaces/inkscape"
   width="210mm"
   height="190mm"
   viewBox="0 0 210 190"
   version="1.1"
   id="svg8"
   inkscape:version="1.0.2 (e86c870879, 2021-01-15, custom)"
   sodipodi:docname="улыбка.svg">
  <defs
     id="defs2" />
  <sodipodi:namedview
     id="base"
     pagecolor="#ffffff"
     bordercolor="#666666"
     borderopacity="1.0"
     inkscape:pageopacity="0.0"
     inkscape:pageshadow="2"
     inkscape:zoom="0.87843794"
     inkscape:cx="310.00307"
     inkscape:cy="264.65337"
     inkscape:document-units="mm"
     inkscape:current-layer="layer1"
     inkscape:document-rotation="0"
     showgrid="false"
     inkscape:window-width="1609"
     inkscape:window-height="942"
     inkscape:window-x="191"
     inkscape:window-y="66"
     inkscape:window-maximized="0" />
  <metadata
     id="metadata5">
    <rdf:RDF>
      <cc:Work
         rdf:about="">
        <dc:format>image/svg+xml</dc:format>
        <dc:type
           rdf:resource="http://purl.org/dc/dcmitype/StillImage" />
        <dc:title></dc:title>
      </cc:Work>
    </rdf:RDF>
  </metadata>
  <g
     inkscape:label="Слой 1"
     inkscape:groupmode="layer"
     id="layer1">
    <path
       style="fill:#ffffff;stroke-width:0.999997"
       d="M 91.80618,181.61524 C 74.031153,179.39495 57.530886,171.14201 44.251644,157.82993 33.427651,146.97914 26.253914,134.27588 22.45541,119.23315 21.052853,113.67881 20.494539,108.48214 20.197036,100.58644 20.235516,92.348909 21.107358,86.170182 22.8541,79.654123 29.993543,53.022967 49.701253,31.601052 75.197813,22.757474 c 10.011513,-3.472512 22.268565,-4.369711 28.195607,-4.369711 6.01765,0.03018 12.12287,0.386792 19.01311,2.138741 l 8.19832,2.084582 4.43296,-2.331844 c 4.81091,-2.530698 9.12349,-2.985284 13.58062,-1.431487 2.24792,0.783599 2.68858,0.720092 3.39833,-0.489738 3.03709,-5.176867 7.70015,-8.4465204 13.32992,-9.3467834 9.93206,-1.588184 20.00373,8.5114174 18.35974,18.4106504 -0.29883,1.799302 -3.08873,8.901303 -6.19982,15.782254 l -5.65645,12.510836 3.62326,7.340063 c 3.30662,6.698597 3.81783,7.343629 5.84954,7.380617 5.03672,0.09169 9.7472,5.337641 9.7472,10.855253 0,3.510062 -2.1192,7.522991 -4.79947,9.08825 -2.23498,1.305222 -2.28206,1.456544 -1.79913,5.783882 0.67012,6.004931 -0.80531,18.609411 -3.10883,26.558391 -9.21823,31.81015 -36.30849,54.93687 -69.06549,58.96061 -7.46602,0.91707 -12.752141,0.89985 -20.49105,-0.0669 z m 28.93447,-7.62926 c 7.07316,-1.72697 18.60637,-6.84864 24.40322,-10.83697 1.9929,-1.37114 6.05952,-4.79107 9.03694,-7.59984 15.20389,-14.34255 22.83208,-30.90646 24.2587,-52.67533 0.41772,-6.374191 0.31575,-7.678251 -0.60033,-7.678251 -0.60693,0 -3.66227,1.22627 -6.78967,2.72503 -3.12735,1.49873 -5.77946,2.628511 -5.89357,2.510551 -0.11414,-0.11795 -2.49908,-4.864481 -5.29995,-10.547872 -3.84102,-7.794077 -5.09248,-11.135553 -5.09248,-13.59734 0,-6.512353 5.79711,-11.68986 12.18739,-10.884774 3.12274,0.393425 3.25823,0.331024 2.47182,-1.13845 -0.45762,-0.855064 -1.17008,-1.345762 -1.58318,-1.090417 -1.08002,0.667449 -33.26721,-14.051751 -35.73843,-16.343173 -1.13888,-1.05603 -2.58777,-2.709268 -3.21978,-3.673823 -1.62844,-2.48532 -2.62431,-8.598616 -1.91384,-11.748688 0.76179,-3.37768 0.36743,-3.6026 -10.12258,-5.773607 C 98.048819,21.743015 77.393013,25.815215 60.843741,36.673855 49.108079,44.374007 39.48641,55.534448 33.446158,68.453169 28.321328,79.41398 26.10328,94.229252 26.10328,100.75126 c 0,9.20292 1.477984,16.06889 5.168379,26.11612 9.290782,25.29475 32.816893,44.23248 60.534521,48.72836 6.275629,1.01793 21.68309,0.16088 28.93447,-1.60976 z M 91.033704,147.20499 c -11.789278,-2.76208 -19.975049,-6.66147 -27.936692,-15.51817 -4.322288,-4.8082 -6.427901,-8.28298 -9.38787,-13.4598 -3.52387,-7.13078 -4.743836,-11.62716 -2.752286,-13.08272 1.728415,-1.26324 3.118322,-0.16543 4.08798,1.63289 0.999341,1.85337 2.765069,5.57037 4.511139,8.35588 6.965145,11.11153 14.385909,20.87003 28.677226,25.79628 6.822678,2.35175 20.664749,2.51615 27.133709,0.32223 12.49964,-4.23918 22.39029,-12.71902 27.68032,-23.73194 1.71411,-3.56851 3.35581,-7.81153 3.64821,-9.42893 0.48232,-2.66775 2.79601,-5.50292 5.70569,-4.77264 3.14529,0.7894 2.18991,5.33267 1.53553,7.35961 -2.3148,7.17012 -7.01338,15.47758 -12.66629,21.0266 -11.04212,10.83919 -22.01058,15.76908 -37.10446,16.2921 -5.577291,0.19329 -10.090051,-0.0788 -13.132206,-0.79144 z M 68.487613,82.55049 c -1.917999,-4.373542 4.533181,-12.84682 13.276303,-12.84682 8.864427,0 17.214533,7.474393 13.213063,13.581454 -2.354829,3.593856 -8.191932,1.772321 -8.191932,-2.556429 0,-2.256571 -2.644359,-4.767201 -5.021131,-4.767201 -2.432008,0 -5.021132,2.527389 -5.021132,4.901418 0,4.190358 -5.958499,5.192691 -8.255171,1.687578 z m 41.913317,2.796447 c -2.26998,-1.408335 -1.69072,-4.720825 -0.0113,-8.014096 1.01014,-1.790923 1.83482,-2.763921 4.46977,-4.870538 2.65939,-2.126157 6.75151,-2.372395 8.23247,-2.372395 1.5166,0 5.7063,0.246715 8.23247,2.372395 3.60641,2.882158 5.2176,5.727156 5.671,8.403162 0.56987,3.363433 -1.63643,5.269408 -4.64504,5.269408 -2.46201,0 -4.62353,-2.371824 -4.62353,-5.073272 0,-2.148383 -2.32761,-4.196515 -4.76911,-4.196515 -2.32358,0 -4.50068,2.178027 -4.50068,4.502608 -0.26851,4.003294 -5.511,5.558235 -8.05605,3.979243 z m 73.13754,-0.784041 c 0.74352,-0.656686 1.35185,-2.068663 1.35185,-3.137739 0,-4.355405 -4.55026,-6.050996 -9.44529,-3.519666 -2.68254,1.387214 -2.67409,1.392688 -5.37317,-3.481358 -1.62559,-2.935491 -4.59312,-3.794123 -7.20294,-2.084102 -2.83824,1.859676 -2.46474,4.755134 1.69321,13.125472 l 3.61881,7.284918 7.00281,-3.496774 c 3.8516,-1.923252 7.61119,-4.034076 8.35472,-4.690751 z M 171.64766,41.386654 c 5.43939,-12.129909 6.38503,-14.831523 6.00691,-17.161548 -1.2491,-7.697402 -9.84732,-11.609745 -16.2685,-7.402431 -1.14865,0.752621 -3.14986,3.486208 -4.44707,6.074589 -1.29724,2.58836 -2.43779,4.79754 -2.53455,4.909247 -0.0966,0.111826 -2.1512,-0.670408 -4.56537,-1.738075 -2.41418,-1.067676 -5.54476,-1.941194 -6.95684,-1.941194 -5.65802,0 -11.20086,6.560928 -10.17274,12.041204 0.88722,4.72937 3.78029,6.867233 18.19159,13.442945 7.43512,3.392537 13.69225,6.169003 13.90468,6.169859 0.21254,8.26e-4 3.29128,-6.476676 6.84189,-14.394596 z"
       id="path847"
       sodipodi:nodetypes="cssccccccccccsccssssssscccscsssssssscsssscsccsccscssscsscssssccccsssccassccsssscassssscssscsccssssssc" />
  </g>
</svg>
