<?xml version="1.0" encoding="UTF-8" standalone="no"?>
<svg
   xmlns:dc="http://purl.org/dc/elements/1.1/"
   xmlns:cc="http://creativecommons.org/ns#"
   xmlns:rdf="http://www.w3.org/1999/02/22-rdf-syntax-ns#"
   xmlns:svg="http://www.w3.org/2000/svg"
   xmlns="http://www.w3.org/2000/svg"
   xmlns:sodipodi="http://sodipodi.sourceforge.net/DTD/sodipodi-0.dtd"
   xmlns:inkscape="http://www.inkscape.org/namespaces/inkscape"
   width="111mm"
   height="111mm"
   viewBox="0 0 111 111"
   version="1.1"
   id="svg8"
   inkscape:version="1.0.2 (e86c870879, 2021-01-15, custom)"
   sodipodi:docname="ушки.svg">
  <defs
     id="defs2" />
  <sodipodi:namedview
     id="base"
     pagecolor="#ffffff"
     bordercolor="#666666"
     borderopacity="1.0"
     inkscape:pageopacity="0.0"
     inkscape:pageshadow="2"
     inkscape:zoom="0.7"
     inkscape:cx="500.22244"
     inkscape:cy="260.7605"
     inkscape:document-units="mm"
     inkscape:current-layer="layer3"
     inkscape:document-rotation="0"
     showgrid="false"
     inkscape:window-width="1423"
     inkscape:window-height="914"
     inkscape:window-x="143"
     inkscape:window-y="86"
     inkscape:window-maximized="0"
     showguides="false"
     inkscape:lockguides="true" />
  <metadata
     id="metadata5">
    <rdf:RDF>
      <cc:Work
         rdf:about="">
        <dc:format>image/svg+xml</dc:format>
        <dc:type
           rdf:resource="http://purl.org/dc/dcmitype/StillImage" />
        <dc:title></dc:title>
      </cc:Work>
    </rdf:RDF>
  </metadata>
  <g
     inkscape:groupmode="layer"
     id="layer5"
     inkscape:label="Слой 4"
     style="display:inline">
    <path
       style="fill:#ffff00;stroke:none;stroke-width:0.264583"
       d="m 38.371607,108.72874 c -4.596234,-3.72098 -8.053747,-6.51552 -11.043366,-10.496632 -3.700944,-4.92835 -5.734526,-9.981111 -5.88566,-12.959046 -0.05292,-1.042776 0.190303,-1.56534 0.523465,-2.768178 0.199078,-0.718732 0.808328,-2.21691 0.849839,-1.783322 0.0062,0.0648 1.196203,2.133807 1.715857,3.549113 2.566626,6.990312 4.535235,11.218418 8.111805,15.987205 1.342815,1.79043 2.270238,2.92878 4.639088,5.47507 2.663595,2.86312 3.750292,1.77956 3.869895,3.95101 0.07098,1.28875 -2.277715,-0.54784 -2.780923,-0.95522 z"
       id="path994"
       sodipodi:nodetypes="ssssssssss" />
  </g>
  <g
     inkscape:groupmode="layer"
     id="layer3"
     inkscape:label="Слой 3">
    <path
       style="fill:#ffff00;stroke:none;stroke-width:0.264583"
       d="m 50.117998,108.20106 c -0.36363,-0.49195 -0.214178,-1.77583 -0.655686,-4.32945 -0.869236,-5.027516 -1.520685,-5.98154 -3.0824,-10.591933 -1.943849,-5.738501 -2.325259,-9.000456 -3.141277,-16.597095 -1.389194,-12.932589 -1.457589,-16.858569 -4.613888,-18.489313 -0.772385,-0.39906 -2.923386,-1.1674 -4.067892,-0.839747 -3.293516,0.942878 -6.358069,3.365672 -8.70882,8.02792 -1.599836,3.172961 -2.246238,5.145264 -3.551482,10.836322 -0.980998,4.277296 -1.207772,6.620516 -1.923625,7.794386 -0.744575,1.220969 -1.728333,1.627104 -3.805647,1.627104 -1.531891,0 -3.198824,-1.042608 -4.186468,-1.506262 C 9.2874421,82.680803 6.8867546,79.057569 4.3446927,73.917942 1.6285218,68.426287 2.4632894,66.364774 4.8086361,63.756846 6.1543732,62.260443 8.1263346,60.891122 14.12783,57.285633 c 4.455292,-2.676581 7.720844,-4.763185 9.977118,-6.37511 2.038991,-1.456699 4.365626,-2.639476 6.217664,-3.160839 1.818631,-0.511961 4.706952,-0.509604 6.361077,0.0051 2.583455,0.804018 4.241336,2.523109 6.734918,5.025812 4.275531,4.291165 4.961197,5.105805 4.640658,16.736755 -0.291947,10.59348 0.127316,13.543243 3.245851,22.836525 2.174347,6.479577 2.519157,8.054454 2.830003,12.925794 0.09024,1.41414 0.198613,2.97437 0.240838,3.46717 l 0.07677,0.89601 -0.857546,0.29529 c -0.645698,0.22235 -1.992705,0.27123 -2.16089,0.0437 z"
       id="path946"
       sodipodi:nodetypes="sssssssssssssssssssssscsss" />
  </g>
  <g
     inkscape:groupmode="layer"
     id="layer2"
     inkscape:label="Слой 2"
     style="display:inline">
    <path
       style="fill:#ffff00;stroke:none;stroke-width:0.264583"
       d="m 58.952474,110.07131 c -1.108382,-0.0416 -1.394031,-0.10047 -1.394031,-0.28724 0,-0.12923 0.496353,-2.36774 1.103007,-4.97446 2.498395,-10.735301 3.799514,-18.261733 4.79215,-27.720642 0.724548,-6.904259 1.338044,-10.766272 2.489751,-15.673242 3.053139,-13.008198 8.345967,-23.628241 16.698191,-33.504862 4.07903,-4.823511 12.800269,-12.581925 15.796425,-14.052497 1.16611,-0.572352 1.592213,-0.516737 2.323423,0.303263 1.43948,1.614267 4.04461,8.526662 5.12666,13.602966 1.68946,7.92585 2.15926,19.860981 1.13275,28.776531 -1.50086,13.03535 -6.03512,22.985041 -15.60516,34.242959 -2.543966,2.99265 -4.615083,5.189619 -9.640878,10.226714 -4.812068,4.82288 -4.931693,7.4104 -6.823568,8.38945 l -1.522419,0.78786 -6.541135,-0.0322 c -3.597622,-0.0177 -7.168447,-0.0557 -7.935166,-0.0846 z m 10.680501,-3.77144 C 70.918288,105.13333 73.93479,102.1636 78.377677,95.599388 85.190924,85.533048 93.245058,70.904129 94.893001,67.67297 98.815437,59.98215 100.31158,48.71692 99.082197,38.326286 98.120783,30.200392 98.22677,29.869831 93.923685,31.928677 87.779492,34.868418 84.595582,40.013615 80.056124,56.5082 75.28502,73.844492 73.0303,81.308836 66.938514,96.759598 c -3.189009,8.088372 -3.463894,8.113692 -2.609417,8.426522 0.345318,0.12643 2.936594,2.00119 3.624719,1.28939 1.004225,-1.03877 0.94639,0.48942 1.679159,-0.17564 z"
       id="path948"
       sodipodi:nodetypes="ssssssssssssscsssssssssssss" />
  </g>
  <g
     inkscape:label="Слой 1"
     inkscape:groupmode="layer"
     id="layer1">
    <path
       style="fill:#000000;stroke-width:1"
       d="m 39.044748,111.27272 h 8.052372 8.052372 v -5.52485 c 0,-5.19023 -0.158954,-6.017526 -2.624325,-13.658902 C 49.11428,81.516983 48.42645,76.223543 49.279757,67.112807 49.9878,59.55307 49.683434,57.953658 46.71604,53.640701 40.774619,45.005138 30.915229,43.293774 22.793595,49.488308 21.057424,50.812523 16.011463,53.647456 12.008297,56.449398 4.652279,61.598106 1.9716688,62.142217 1.4803483,66.615394 0.73157274,73.432536 10.520394,87.887543 17.648814,86.818572 c 1.654733,-0.24814 2.251164,-0.159059 2.251164,0.336233 0,3.302501 9.50498,16.166145 15.754202,21.321065 z m -2.943336,-4.94985 C 27.593727,99.063722 20.759558,88.098077 21.994389,83.6877 l 0.702556,-2.509287 1.415263,3.867278 c 3.093927,8.454312 6.802576,14.528167 12.560705,20.571329 4.725204,4.95912 4.597763,5.11651 -0.571501,0.70585 z m 12.723378,1.3986 0.01136,1.97292 h -2.676097 c -7.101239,0 -22.051174,-22.282584 -22.051174,-32.866844 0,-5.087363 4.605999,-14.390666 8.352067,-16.869696 5.476227,-3.623997 8.362588,1.181027 9.566773,15.926129 0.584994,7.163185 1.715732,12.855813 3.469726,17.468124 1.576474,4.145511 3.311559,11.638647 3.327319,14.369367 z m 4.905316,1.97292 h -1.308699 c -1.255363,0 -1.346015,-0.22904 -2.2244,-5.61994 C 49.69337,100.98348 48.582395,96.544416 47.728172,94.209849 45.495397,88.107741 44.664177,84.126836 43.820927,75.497108 42.319378,60.130441 39.764488,55.325407 34.011837,57.04894 29.050151,58.535495 24.422903,65.577291 22.511029,74.550995 20.456384,84.194809 19.995127,84.968867 16.305693,84.965159 12.586745,84.961335 8.4858201,80.999315 5.1161356,74.154512 1.2499532,66.301184 2.1227057,64.55527 13.213908,57.955199 c 4.111382,-2.446569 8.602116,-5.313506 9.97941,-6.370971 7.225835,-5.547873 13.75473,-5.299372 19.786123,0.753098 4.516211,4.531989 4.865388,5.810282 4.476035,16.386052 -0.409982,11.136089 0.06983,14.642946 3.26623,23.872376 1.935957,5.589955 2.427125,7.776576 2.688545,11.969046 z m 11.878253,1.57833 h 9.406645 l 2.036295,-2.48526 c 1.119961,-1.36688 4.769644,-5.21408 8.110403,-8.5493 10.52702,-10.50963 18.050288,-21.82689 21.168338,-31.843566 4.70431,-15.112533 3.46488,-38.357572 -2.78168,-52.168868 -2.46643,-5.453347 -4.297323,-5.584647 -10.201606,-0.7316 -18.036886,14.825501 -27.793625,32.618136 -30.306653,55.267973 -1.919099,17.296825 -2.832325,22.838119 -5.564841,33.766511 -0.70045,2.80137 -1.27641,6.20455 -1.27641,6.6585 0,0 1.215497,0.0856 9.409509,0.0856 z m 8.356282,-1.57833 h -7.829238 c -4.306081,0 -7.829238,-0.0973 -7.829238,-0.21641 0,-0.11902 0.584095,-2.68841 1.297992,-5.70974 2.142077,-9.065627 3.860827,-19.18032 4.49111,-26.42974 2.311426,-26.585712 11.731827,-45.27526 30.384023,-60.280179 5.029017,-4.04564 5.57122,-4.021932 7.54443,0.329891 3.9125,8.628847 5.45816,18.509255 5.07735,32.456316 -0.54437,19.937218 -6.80107,32.75029 -24.600785,50.379852 -3.067623,3.0383 -6.243079,6.41199 -7.056568,7.4971 z m -5.0066,-4.25765 c 0,0 -1.006073,-0.053 -2.102553,-0.49376 -1.50252,-0.60393 -1.498357,-0.65611 0.42282,-5.303881 4.06691,-9.838807 8.532335,-22.662964 10.981397,-31.537222 1.472835,-5.336876 3.396496,-12.294746 4.274793,-15.461931 2.878423,-10.379723 7.13357,-17.687855 11.694274,-20.084673 1.930252,-1.01442 2.310749,-0.69276 3.330663,2.815623 0.563786,1.939356 0.952164,14.117272 0.294617,18.649883 -0.657547,4.532612 -1.550365,7.953929 -2.956892,11.093157 -1.406527,3.139227 -10.87801,19.645018 -19.722766,31.356536 m -5.46026,10.564978 c 2.09348,-0.2718 21.277222,-30.789148 25.045463,-37.325575 4.08435,-7.084752 6.188503,-19.109245 5.21571,-29.805946 -0.8065,-8.868123 -2.177154,-10.946149 -6.074834,-9.209926 -6.502337,2.896471 -10.278539,10.065686 -15.146865,28.756685 -3.149349,12.091304 -6.935069,23.578967 -12.026934,36.495395 -3.048702,7.733627 -3.665844,9.754727 -3.089898,10.119597 v 1e-5 0 c 0,0.12538 4.718892,1.14613 6.077358,0.96976 z"
       id="path865"
       sodipodi:nodetypes="cccsssssssssscsscsssccssssssccsssssscssssssscscssssssssscssssssscsccsssssszzcssssscscss" />
  </g>
</svg>
