<?xml version="1.0" encoding="UTF-8" standalone="no"?>
<svg
   xmlns:osb="http://www.openswatchbook.org/uri/2009/osb"
   xmlns:dc="http://purl.org/dc/elements/1.1/"
   xmlns:cc="http://creativecommons.org/ns#"
   xmlns:rdf="http://www.w3.org/1999/02/22-rdf-syntax-ns#"
   xmlns:svg="http://www.w3.org/2000/svg"
   xmlns="http://www.w3.org/2000/svg"
   xmlns:xlink="http://www.w3.org/1999/xlink"
   xmlns:sodipodi="http://sodipodi.sourceforge.net/DTD/sodipodi-0.dtd"
   xmlns:inkscape="http://www.inkscape.org/namespaces/inkscape"
   width="256mm"
   height="222mm"
   viewBox="0 0 256 222"
   version="1.1"
   id="svg8"
   inkscape:version="1.0.2 (e86c870879, 2021-01-15, custom)"
   sodipodi:docname="фото галерея значок 4.svg">
  <defs
     id="defs2">
    <linearGradient
       id="linearGradient8936"
       osb:paint="solid">
      <stop
         style="stop-color:#000000;stop-opacity:1;"
         offset="0"
         id="stop8934" />
    </linearGradient>
    <marker
       inkscape:stockid="DistanceStart"
       orient="auto"
       refY="0.0"
       refX="0.0"
       id="DistanceStart"
       style="overflow:visible"
       inkscape:isstock="true">
      <g
         id="g2300"
         style="stroke:#008080;stroke-opacity:1;fill:#008080;fill-opacity:1">
        <path
           id="path2306"
           d="M 0,0 L 2,0"
           style="fill:#008080;stroke:#008080;stroke-width:1.15;stroke-linecap:square;stroke-opacity:1;fill-opacity:1" />
        <path
           id="path2302"
           d="M 0,0 L 13,4 L 9,0 13,-4 L 0,0 z "
           style="fill:#008080;fill-rule:evenodd;stroke:#008080;stroke-opacity:1;fill-opacity:1" />
        <path
           id="path2304"
           d="M 0,-4 L 0,40"
           style="fill:#008080;stroke:#008080;stroke-width:1;stroke-linecap:square;stroke-opacity:1;fill-opacity:1" />
      </g>
    </marker>
    <marker
       style="overflow:visible"
       id="EmptyDiamondLend"
       refX="0.0"
       refY="0.0"
       orient="auto"
       inkscape:stockid="EmptyDiamondLend"
       inkscape:isstock="true">
      <path
         transform="scale(0.8) translate(-7,0)"
         style="fill-rule:evenodd;fill:#ffffff;stroke:#008080;stroke-width:1pt;stroke-opacity:1"
         d="M 0,-7.0710768 L -7.0710894,0 L 0,7.0710589 L 7.0710462,0 L 0,-7.0710768 z "
         id="path1924" />
    </marker>
    <marker
       style="overflow:visible"
       id="DiamondLend"
       refX="0.0"
       refY="0.0"
       orient="auto"
       inkscape:stockid="DiamondLend"
       inkscape:isstock="true">
      <path
         transform="scale(0.8) translate(-7,0)"
         style="fill-rule:evenodd;stroke:#008080;stroke-width:1pt;stroke-opacity:1;fill:#008080;fill-opacity:1"
         d="M 0,-7.0710768 L -7.0710894,0 L 0,7.0710589 L 7.0710462,0 L 0,-7.0710768 z "
         id="path1897" />
    </marker>
    <marker
       style="overflow:visible"
       id="Arrow2Sstart"
       refX="0.0"
       refY="0.0"
       orient="auto"
       inkscape:stockid="Arrow2Sstart"
       inkscape:isstock="true">
      <path
         transform="scale(0.3) translate(-2.3,0)"
         d="M 8.7185878,4.0337352 L -2.2072895,0.016013256 L 8.7185884,-4.0017078 C 6.9730900,-1.6296469 6.9831476,1.6157441 8.7185878,4.0337352 z "
         style="fill-rule:evenodd;stroke-width:0.625;stroke-linejoin:round;stroke:#008080;stroke-opacity:1;fill:#008080;fill-opacity:1"
         id="path1830" />
    </marker>
    <marker
       style="overflow:visible"
       id="Arrow1Sstart"
       refX="0.0"
       refY="0.0"
       orient="auto"
       inkscape:stockid="Arrow1Sstart"
       inkscape:isstock="true">
      <path
         transform="scale(0.2) translate(6,0)"
         style="fill-rule:evenodd;stroke:#008080;stroke-width:1pt;stroke-opacity:1;fill:#008080;fill-opacity:1"
         d="M 0.0,0.0 L 5.0,-5.0 L -12.5,0.0 L 5.0,5.0 L 0.0,0.0 z "
         id="path1812" />
    </marker>
    <marker
       style="overflow:visible;"
       id="Arrow1Lend"
       refX="0.0"
       refY="0.0"
       orient="auto"
       inkscape:stockid="Arrow1Lend"
       inkscape:isstock="true">
      <path
         transform="scale(0.8) rotate(180) translate(12.5,0)"
         style="fill-rule:evenodd;stroke:#008080;stroke-width:1pt;stroke-opacity:1;fill:#008080;fill-opacity:1"
         d="M 0.0,0.0 L 5.0,-5.0 L -12.5,0.0 L 5.0,5.0 L 0.0,0.0 z "
         id="path1803" />
    </marker>
    <marker
       style="overflow:visible"
       id="marker2078"
       refX="0.0"
       refY="0.0"
       orient="auto"
       inkscape:stockid="Arrow1Lstart"
       inkscape:isstock="true">
      <path
         transform="scale(0.8) translate(12.5,0)"
         style="fill-rule:evenodd;stroke:#008080;stroke-width:1pt;stroke-opacity:1;fill:#008080;fill-opacity:1"
         d="M 0.0,0.0 L 5.0,-5.0 L -12.5,0.0 L 5.0,5.0 L 0.0,0.0 z "
         id="path2076" />
    </marker>
    <marker
       style="overflow:visible"
       id="Arrow1Lstart"
       refX="0.0"
       refY="0.0"
       orient="auto"
       inkscape:stockid="Arrow1Lstart"
       inkscape:isstock="true">
      <path
         transform="scale(0.8) translate(12.5,0)"
         style="fill-rule:evenodd;stroke:#008080;stroke-width:1pt;stroke-opacity:1;fill:#008080;fill-opacity:1"
         d="M 0.0,0.0 L 5.0,-5.0 L -12.5,0.0 L 5.0,5.0 L 0.0,0.0 z "
         id="path1800" />
    </marker>
    <color-profile
       name="sRGB-IEC61966-2.1"
       xlink:href="file:///C:/WINDOWS/system32/spool/drivers/color/sRGB%20Color%20Space%20Profile.icm"
       id="color-profile8172" />
    <filter
       inkscape:collect="always"
       style="color-interpolation-filters:sRGB"
       id="filter1170"
       x="-0.0053045438"
       width="1.0106091"
       y="-0.0048116138"
       height="1.0096232">
      <feGaussianBlur
         inkscape:collect="always"
         stdDeviation="0.45287071"
         id="feGaussianBlur1172" />
    </filter>
  </defs>
  <sodipodi:namedview
     id="base"
     pagecolor="#ffffff"
     bordercolor="#666666"
     borderopacity="1.0"
     inkscape:pageopacity="0.0"
     inkscape:pageshadow="2"
     inkscape:zoom="0.65428938"
     inkscape:cx="391.15911"
     inkscape:cy="254.74527"
     inkscape:document-units="mm"
     inkscape:current-layer="layer5"
     inkscape:document-rotation="0"
     showgrid="true"
     inkscape:window-width="1423"
     inkscape:window-height="914"
     inkscape:window-x="126"
     inkscape:window-y="166"
     inkscape:window-maximized="0"
     showguides="true"
     inkscape:snap-others="false"
     inkscape:snap-global="true"
     inkscape:snap-grids="true"
     inkscape:object-nodes="true"
     inkscape:snap-nodes="false">
    <inkscape:grid
       type="xygrid"
       id="grid899"
       dotted="true"
       originx="105"
       originy="148.5"
       enabled="false" />
    <sodipodi:guide
       position="0,297"
       orientation="0,793.70079"
       id="guide901" />
    <sodipodi:guide
       position="210,297"
       orientation="1122.5197,0"
       id="guide903" />
    <sodipodi:guide
       position="210,0"
       orientation="0,-793.70079"
       id="guide905" />
    <sodipodi:guide
       position="0,0"
       orientation="-1122.5197,0"
       id="guide907" />
    <sodipodi:guide
       position="0,297"
       orientation="0,793.70079"
       id="guide909" />
    <sodipodi:guide
       position="281.85477,162.15135"
       orientation="1122.5197,0"
       id="guide911" />
    <sodipodi:guide
       position="210,0"
       orientation="0,-793.70079"
       id="guide913" />
    <sodipodi:guide
       position="0,0"
       orientation="-1122.5197,0"
       id="guide915" />
  </sodipodi:namedview>
  <metadata
     id="metadata5">
    <rdf:RDF>
      <cc:Work
         rdf:about="">
        <dc:format>image/svg+xml</dc:format>
        <dc:type
           rdf:resource="http://purl.org/dc/dcmitype/StillImage" />
        <dc:title />
      </cc:Work>
    </rdf:RDF>
  </metadata>
  <g
     inkscape:groupmode="layer"
     id="layer5"
     inkscape:label="Слой 4"
     style="display:inline">
    <path
       style="display:inline;opacity:1;fill:#008080;stroke:none;stroke-width:4.99997;stroke-linecap:round;stroke-linejoin:bevel;stroke-miterlimit:4;stroke-dasharray:none;stroke-opacity:1"
       d="m 194.1169,185.99592 c -17.9349,-30.36341 -23.40948,-37.31892 -29.924,-40.79375 -3.34478,-1.7841 -6.67412,-2.96189 -11.33294,-2.56642 -5.6698,0.48128 -8.43,2.07235 -11.12108,3.33361 -1.37235,0.64319 -4.52134,2.51245 -5.15921,2.07564 -0.47604,-0.32599 -6.09754,-9.8256 -9.72939,-15.55044 -10.64272,-16.77602 -14.99691,-20.6515 -26.03297,-21.64126 -6.634115,-0.59498 -13.015441,4.90562 -17.530995,10.03348 -12.539359,14.23968 -17.709467,23.72605 -37.201493,57.6831 -6.855308,11.94263 -12.802887,22.23605 -13.218122,22.87319 -3.380447,5.18703 -5.416546,1.99575 -6.735621,3.89431 -1.684582,2.42463 -11.132837,-14.15021 -12.279196,-21.95209 -0.365666,-2.48865 0.218883,-28.62298 -0.01915,-67.86709 -0.40994,-67.585616 -1.793281,-67.107837 1.493917,-74.774166 3.184268,-7.426278 13.324555,-16.829324 20.943378,-19.066471 4.650659,-1.365594 157.886632,-1.03593 162.559082,0.331122 9.42929,2.758802 13.70741,8.639175 18.96021,13.424658 3.03082,2.76119 4.71775,22.778062 5.07173,80.331017 0.43519,70.75615 0.0121,71.31785 -3.12532,78.03199 -1.69312,3.62328 -12.84275,15.77761 -14.24785,11.80331 -0.10596,-0.29969 -1.14148,-2.28541 -1.14148,-2.28541 z"
       id="path1452"
       sodipodi:nodetypes="ssssssassssssssssssscs" />
  </g>
  <g
     inkscape:label="Слой 1"
     inkscape:groupmode="layer"
     id="layer1"
     style="display:inline;opacity:1;filter:url(#filter1170)">
    <path
       style="fill:#000000;stroke:none;stroke-width:0.999998;stroke-miterlimit:4;stroke-dasharray:none;stroke-opacity:1"
       d="m 153.82839,211.2765 c 0,-1.19733 -45.3373,-75.8465 -48.08117,-79.16706 -3.13833,-3.7979 -9.711889,-4.16391 -12.420919,-0.69158 -1.038632,1.3313 -11.185955,18.29231 -22.549584,37.69112 -11.363631,19.39882 -21.682308,36.98226 -22.930394,39.07428 l -2.269249,3.80369 h 54.125661 c 29.769115,0 54.125655,-0.31971 54.125655,-0.71045 z m 22.45312,-22.45748 c -17.01421,-28.17708 -27.997,-31.19394 -23.14594,-29.39216 25.42635,9.44384 7.72417,-5.87304 15.16018,23.66942 l 7.27194,28.89067 h 7.35167 7.35169 z M 49.038974,171.18372 c 34.050067,-58.1988 45.730032,-61.8251 53.296736,-61.37834 7.62828,0.45039 14.73256,5.57576 25.19942,22.7643 8.09299,13.29022 8.2092,13.98703 10.4826,12.77109 6.54402,-3.50011 12.38939,-5.50365 18.4369,-4.95336 9.41377,0.8566 14.30841,4.89017 35.20443,39.3747 l 19.00622,31.36585 2.33832,-3.18165 c 2.22122,-3.02229 -192.030498,-3.15275 -190.209591,-0.28842 1.688012,2.65529 2.30639,2.88504 3.620255,1.34513 0.871482,-1.02143 11.052603,-18.0401 22.62471,-37.8193 z"
       id="path847"
       sodipodi:nodetypes="ssssscssssscccssssssscssss" />
    <rect
       style="opacity:0.677181;fill:#ffff00;fill-opacity:0;fill-rule:evenodd;stroke-width:1.965;stroke-linecap:round;stroke-linejoin:round;stroke-dasharray:47.1601, 47.1601"
       id="rect919"
       width="59.134987"
       height="55.5625"
       x="69.559105"
       y="-16.189396" />
    <path
       style="fill:#000000;fill-opacity:1;stroke:#000000;stroke-width:1.265;stroke-miterlimit:4;stroke-dasharray:none;stroke-opacity:1"
       d="m 164.70243,190.87644 c -12.42092,-20.14249 -13.64763,-22.23487 -15.4193,-26.30029 -2.02815,-4.65397 -1.20625,-5.92465 3.83894,-5.9351 5.43041,-0.0113 6.26431,1.02353 24.7619,30.72712 6.57893,10.5645 12.08572,19.43564 12.2373,19.71366 0.2165,0.39707 -1.24348,0.50373 -6.80759,0.49731 l -7.0832,-0.008 z"
       id="path850" />
    <path
       style="fill:#000000;fill-opacity:1;stroke:#000000;stroke-width:2;stroke-miterlimit:4;stroke-dasharray:none;stroke-opacity:1"
       d="m 46.068976,209.31119 c 0.0752,-0.13901 1.507801,-2.52739 3.183566,-5.30753 1.675767,-2.78013 8.58039,-14.24438 15.343612,-25.47611 23.752496,-39.44594 28.630083,-47.3267 29.90791,-48.32247 2.927843,-2.28158 8.000676,-2.25674 10.858556,0.93742 0.84652,0.94612 4.16303,5.80859 13.11299,19.98812 15.5416,24.62276 33.97147,54.51039 35.24882,57.16286 l 0.30112,0.62528 -1.07823,0.12564 c -2.68796,0.31321 -28.4979,0.51519 -66.097375,0.51727 -32.682012,0.002 -40.890172,-0.0486 -40.780969,-0.25048 z"
       id="path860"
       sodipodi:nodetypes="ssssssscscs" />
    <path
       style="opacity:0.993174;mix-blend-mode:normal;fill:#000000;fill-opacity:1;stroke:none;stroke-width:1.99998;stroke-miterlimit:4;stroke-dasharray:none;stroke-opacity:1"
       d="m 157.02214,95.582657 c -9.45453,-1.81034 -16.8852,-8.118293 -20.00731,-16.984428 -4.2775,-12.147138 2.71796,-25.582452 15.49428,-29.757937 7.07977,-2.313774 16.21833,-0.549498 22.61901,4.366789 9.74673,7.486332 12.70288,19.149535 7.41408,29.251321 -2.14882,4.104354 -4.57012,6.672969 -9.15389,9.710923 -2.79054,1.84945 -3.95017,2.273283 -8.362,3.056199 -3.8809,0.688707 -5.82054,0.775228 -8.00417,0.357133 z"
       id="path862" />
  </g>
  <g
     inkscape:groupmode="layer"
     id="layer3"
     inkscape:label="Слой 3"
     style="display:inline" />
  <g
     inkscape:groupmode="layer"
     id="layer2"
     inkscape:label="Слой 2"
     style="display:inline;opacity:1">
    <rect
       style="display:inline;opacity:0.935154;fill:#0000ff;fill-opacity:0;fill-rule:evenodd;stroke:#000000;stroke-width:16;stroke-linecap:round;stroke-linejoin:round;stroke-opacity:1"
       id="rect853"
       width="218.39462"
       height="190.24626"
       x="10.064391"
       y="16.884766"
       ry="37.769482" />
  </g>
</svg>
