<?xml version="1.0" encoding="UTF-8" standalone="no"?>
<svg
   xmlns:dc="http://purl.org/dc/elements/1.1/"
   xmlns:cc="http://creativecommons.org/ns#"
   xmlns:rdf="http://www.w3.org/1999/02/22-rdf-syntax-ns#"
   xmlns:svg="http://www.w3.org/2000/svg"
   xmlns="http://www.w3.org/2000/svg"
   xmlns:sodipodi="http://sodipodi.sourceforge.net/DTD/sodipodi-0.dtd"
   xmlns:inkscape="http://www.inkscape.org/namespaces/inkscape"
   width="111mm"
   height="111mm"
   viewBox="0 0 111 111"
   version="1.1"
   id="svg8"
   inkscape:version="1.0.2 (e86c870879, 2021-01-15, custom)"
   sodipodi:docname="цветочекe.svg">
  <defs
     id="defs2">
    <inkscape:path-effect
       effect="powerstroke"
       id="path-effect4362"
       is_visible="true"
       lpeversion="1"
       offset_points="13,0.1322915"
       sort_points="true"
       interpolator_type="CentripetalCatmullRom"
       interpolator_beta="0.2"
       start_linecap_type="zerowidth"
       linejoin_type="round"
       miter_limit="4"
       scale_width="1"
       end_linecap_type="zerowidth" />
    <inkscape:path-effect
       effect="powerstroke"
       id="path-effect4360"
       is_visible="true"
       lpeversion="1"
       offset_points="36.5,0.13229166"
       sort_points="true"
       interpolator_type="CentripetalCatmullRom"
       interpolator_beta="0.2"
       start_linecap_type="zerowidth"
       linejoin_type="round"
       miter_limit="4"
       scale_width="1"
       end_linecap_type="zerowidth" />
    <inkscape:path-effect
       effect="fill_between_strokes"
       id="path-effect4358"
       is_visible="true"
       lpeversion="1"
       linkedpath=""
       secondpath=""
       reversesecond="false"
       join="true"
       close="true" />
    <inkscape:path-effect
       effect="copy_rotate"
       starting_point="0,0"
       origin="30.676657,57.457488"
       id="path-effect4354"
       is_visible="true"
       lpeversion="1"
       method="normal"
       num_copies="6"
       starting_angle="0"
       rotation_angle="60"
       gap="-0.01"
       copies_to_360="true"
       mirror_copies="false"
       split_items="false" />
  </defs>
  <sodipodi:namedview
     id="base"
     pagecolor="#ffffff"
     bordercolor="#666666"
     borderopacity="1.0"
     inkscape:pageopacity="0.0"
     inkscape:pageshadow="2"
     inkscape:zoom="0.87109422"
     inkscape:cx="101.34871"
     inkscape:cy="265.74791"
     inkscape:document-units="mm"
     inkscape:current-layer="layer2"
     inkscape:document-rotation="0"
     showgrid="false"
     inkscape:window-width="1265"
     inkscape:window-height="856"
     inkscape:window-x="550"
     inkscape:window-y="120"
     inkscape:window-maximized="0"
     showguides="true"
     inkscape:lockguides="true"
     inkscape:snap-midpoints="true"
     inkscape:snap-smooth-nodes="true"
     inkscape:snap-intersection-paths="true"
     inkscape:object-paths="true"
     inkscape:snap-object-midpoints="true"
     inkscape:snap-center="true" />
  <metadata
     id="metadata5">
    <rdf:RDF>
      <cc:Work
         rdf:about="">
        <dc:format>image/svg+xml</dc:format>
        <dc:type
           rdf:resource="http://purl.org/dc/dcmitype/StillImage" />
        <dc:title></dc:title>
      </cc:Work>
    </rdf:RDF>
  </metadata>
  <g
     inkscape:groupmode="layer"
     id="layer5"
     inkscape:label="Слой 4"
     style="display:inline" />
  <g
     inkscape:groupmode="layer"
     id="layer3"
     inkscape:label="Слой 3" />
  <g
     inkscape:groupmode="layer"
     id="layer2"
     inkscape:label="Слой 2"
     style="display:inline">
    <path
       style="fill:#a0a0a0;stroke:none;stroke-width:1"
       d=""
       id="path1616"
       transform="scale(0.26458333)" />
    <path
       style="fill:none;fill-rule:nonzero;stroke:none;stroke-width:0.264583"
       d="m 43.68826,103.38399 c -0.05321,-0.0373 -0.10615,-0.0862 -0.158034,-0.1491 -0.05014,-0.0608 -0.09918,-0.1346 -0.146304,-0.22323 -0.09006,-0.16937 -0.171832,-0.39053 -0.240794,-0.67338 -0.127315,-0.52218 -0.208626,-1.24488 -0.222805,-2.21743 -0.01297,-0.889596 0.03027,-1.985535 0.144715,-3.321364 0.106525,-1.243437 0.274774,-2.694943 0.516591,-4.378456 0.27451,-1.911123 0.463493,-3.320794 0.568928,-4.396481 0.04917,-0.5016 0.08044,-0.933531 0.09546,-1.327952 0.01448,-0.380353 0.01383,-0.723767 5.79e-4,-1.070929 -0.0034,-0.08855 -0.01063,-0.170294 -0.02247,-0.244225 -0.01171,-0.07311 -0.02822,-0.140606 -0.05105,-0.200471 -0.02259,-0.05924 -0.05259,-0.114211 -0.09307,-0.15978 -0.04097,-0.04612 -0.0918,-0.08149 -0.15247,-0.100903 -0.02965,-0.0095 -0.06022,-0.0147 -0.09126,-0.01609 -0.03083,-0.0014 -0.0618,9.91e-4 -0.09263,0.0064 -0.06088,0.01072 -0.122878,0.03364 -0.185476,0.06542 -0.06236,0.03166 -0.127859,0.07341 -0.196582,0.124359 -0.06837,0.05069 -0.141093,0.111346 -0.21839,0.18189 -0.152891,0.139535 -0.326185,0.320057 -0.52208,0.543563 -0.193558,0.220838 -0.410158,0.48476 -0.652225,0.794597 -0.475648,0.608813 -1.05015,1.395556 -1.74444,2.385602 -1.333853,1.902053 -2.339589,3.287347 -3.229598,4.411077 -0.861733,1.088027 -1.616101,1.93339 -2.518883,2.847886 -0.470295,0.476398 -0.868755,0.859388 -1.209872,1.154694 -0.337352,0.292046 -0.614846,0.495027 -0.84957,0.620229 -0.1158,0.06177 -0.219217,0.10353 -0.312697,0.128131 -0.09258,0.02437 -0.175057,0.03181 -0.250444,0.02547 -0.07471,-0.0063 -0.145539,-0.02636 -0.215292,-0.06052 -0.06984,-0.0342 -0.140055,-0.08331 -0.212259,-0.14865 -0.05207,-0.04712 -0.09916,-0.101204 -0.141443,-0.164431 -0.04214,-0.06302 -0.08005,-0.135917 -0.113348,-0.221288 -0.0664,-0.17021 -0.114089,-0.388876 -0.140908,-0.675563 -0.02658,-0.284154 -0.03233,-0.631158 -0.01731,-1.058905 0.0149,-0.424447 0.05013,-0.925885 0.104964,-1.521898 0.0539,-0.585897 0.09662,-1.129652 0.121665,-1.532489 0.0124,-0.199473 0.02052,-0.365157 0.02341,-0.48372 0.0014,-0.05876 0.0016,-0.107994 1.98e-4,-0.144765 -3.64e-4,-0.0094 -8.5e-4,-0.01834 -0.0015,-0.02678 -6.36e-4,-0.0083 -0.0015,-0.01692 -0.0027,-0.02531 -0.0011,-0.0078 -0.003,-0.01855 -0.0064,-0.03005 -0.0017,-0.0058 -0.0045,-0.01413 -0.0089,-0.02339 -0.0023,-0.0048 -0.0054,-0.01056 -0.0095,-0.01684 -0.0041,-0.0062 -0.0098,-0.01389 -0.01771,-0.02175 -0.0096,-0.0096 -0.01883,-0.01601 -0.02473,-0.01975 -0.0063,-0.004 -0.01206,-0.007 -0.0165,-0.0091 -0.0087,-0.0042 -0.01707,-0.0074 -0.02357,-0.0096 -0.01316,-0.0046 -0.02796,-0.0087 -0.04264,-0.0123 -0.02984,-0.0074 -0.06922,-0.01555 -0.115787,-0.02421 -0.0935,-0.01739 -0.223251,-0.03828 -0.379458,-0.0613 -0.311997,-0.04599 -0.733617,-0.101076 -1.190132,-0.154237 -0.02511,-0.0029 -1.560917,-0.18297 -1.586027,-0.185894 0.03142,0.0037 -1.521483,-0.180112 -1.490057,-0.176411 -0.649952,-0.07756 -1.205824,-0.175431 -1.68782,-0.302806 -0.483201,-0.127693 -0.890589,-0.284644 -1.242607,-0.479252 -0.352873,-0.195081 -0.651768,-0.428927 -0.915783,-0.711179 -0.265485,-0.283823 -0.497368,-0.618404 -0.713094,-1.014764 -0.261696,-0.480822 -0.449213,-0.970727 -0.563982,-1.481799 -0.115472,-0.514208 -0.157633,-1.051367 -0.12654,-1.623544 0.06292,-1.15778 0.425997,-2.459692 1.087936,-3.995073 0.518685,-1.203101 1.098547,-2.318807 1.776811,-3.394611 0.68478,-1.086139 1.469792,-2.131404 2.390944,-3.181054 1.872323,-2.133508 4.312127,-4.289545 7.578339,-6.803018 0.531516,-0.409019 1.091692,-0.848375 1.565825,-1.226079 0.242661,-0.193309 0.463033,-0.370665 0.648087,-0.521606 0.09374,-0.07646 0.17846,-0.146177 0.252621,-0.207916 0.0748,-0.06227 0.139049,-0.116587 0.19113,-0.161662 0.447499,-0.387308 1.020972,-0.697911 1.593045,-0.835148 0.126968,-0.03046 0.251629,-0.06665 0.368498,-0.10627 0.115353,-0.03911 0.223713,-0.08176 0.319056,-0.125689 0.09365,-0.04315 0.177623,-0.08883 0.243495,-0.135028 0.03271,-0.02294 0.06329,-0.04762 0.0889,-0.07396 0.01288,-0.01324 0.02532,-0.02773 0.03636,-0.04348 0.01096,-0.01563 0.02143,-0.03376 0.0293,-0.05427 0.01531,-0.0399 0.03486,-0.06908 0.05633,-0.09049 0.02125,-0.02119 0.04686,-0.03725 0.07783,-0.04811 0.03127,-0.01096 0.06952,-0.01711 0.115505,-0.01617 0.04589,9.42e-4 0.0984,0.0089 0.157053,0.02538 0.117137,0.03283 0.253136,0.09775 0.399757,0.196985 0.145247,0.09831 0.29835,0.228575 0.450352,0.389634 0.08329,0.08826 0.192808,0.209663 0.320103,0.35442 0.126558,0.14392 0.27003,0.310169 0.421479,0.488281 0.301268,0.354305 0.633503,0.754853 0.923139,1.115287 0.647968,0.806358 1.203159,1.426004 1.851917,2.030234 0.647055,0.602644 1.384959,1.187857 2.398068,1.928655 0.400822,0.293086 0.723975,0.546375 0.980665,0.773854 0.257229,0.227957 0.444595,0.427286 0.575778,0.611625 0.06547,0.092 0.116549,0.179722 0.155251,0.264812 0.03869,0.08506 0.06524,0.167985 0.08133,0.250566 0.03211,0.164751 0.02384,0.334516 -0.02024,0.525027 -0.0028,0.01205 -0.0071,0.02925 -0.01305,0.05183 -0.0059,0.02243 -0.01324,0.04944 -0.02193,0.08085 -0.01741,0.06291 -0.0401,0.142679 -0.06741,0.237163 -0.0548,0.189546 -0.127953,0.437294 -0.214051,0.725199 -0.17368,0.580771 -0.399143,1.321972 -0.633966,2.082166 -0.333324,1.079075 -0.58873,1.935774 -0.785687,2.715288 -0.198418,0.785299 -0.336793,1.489673 -0.433889,2.254028 -0.09777,0.769676 -0.153381,1.598335 -0.185722,2.620636 -0.03259,1.030074 -0.04166,2.263119 -0.04535,3.822088 -0.0057,2.423882 0.0029,3.837672 0.05534,4.932073 0.02668,0.557189 0.06466,1.030105 0.117288,1.500406 0.05325,0.475889 0.121683,0.950241 0.207766,1.498142 0.124168,0.790303 0.216185,1.44125 0.278156,1.990717 0.06298,0.558408 0.09451,1.008665 0.09701,1.386416 0.0025,0.384223 -0.025,0.691498 -0.07934,0.955698 -0.05524,0.26856 -0.138865,0.4956 -0.249024,0.71154 -0.04392,0.0861 -0.10598,0.18847 -0.182173,0.30209 -0.07686,0.11462 -0.166996,0.23905 -0.265443,0.36779 -0.200738,0.26249 -0.434379,0.54079 -0.661657,0.79273 -0.116012,0.1286 -0.230284,0.25025 -0.338314,0.36022 -0.109698,0.11166 -0.212418,0.21072 -0.304053,0.293 -0.04631,0.0416 -0.08949,0.0786 -0.129086,0.11069 -0.04,0.0324 -0.07572,0.0592 -0.10686,0.0805 -0.03179,0.0217 -0.05662,0.0359 -0.0748,0.0444 -0.009,0.004 -0.01486,0.006 -0.0179,0.007 -0.0027,7.8e-4 -0.0016,-1.5e-4 0.0056,-1.5e-4 0.0029,0 -0.0031,-1.3e-4 -0.01265,-0.002 -0.01011,-0.002 -0.02336,-0.006 -0.0397,-0.0117 -0.03376,-0.0117 -0.07515,-0.0293 -0.120976,-0.0516 -0.0988,-0.0481 -0.207365,-0.11269 -0.302125,-0.17906 z m -0.0759,0.24065 c 3e-6,0 7e-6,0 1.1e-5,0 l -0.0759,-0.0239 c 0.105227,0.0737 0.225739,0.14553 0.338067,0.20023 0.05198,0.0253 0.103631,0.0476 0.150582,0.0638 0.02283,0.008 0.04585,0.0147 0.06811,0.0197 0.02117,0.005 0.04557,0.009 0.07049,0.009 0.02457,0 0.04733,-0.004 0.06676,-0.01 0.01964,-0.006 0.03878,-0.0132 0.05695,-0.0216 0.03586,-0.0166 0.07373,-0.0394 0.11237,-0.0657 0.03872,-0.0264 0.08043,-0.0579 0.124438,-0.0935 0.04375,-0.0354 0.09038,-0.0755 0.139315,-0.11941 0.09673,-0.0869 0.203515,-0.18993 0.316025,-0.30445 0.110944,-0.11293 0.227791,-0.23735 0.346028,-0.36842 0.231378,-0.25648 0.4697,-0.54028 0.675373,-0.80923 0.100907,-0.13195 0.1944,-0.26092 0.27502,-0.38115 0.07944,-0.11847 0.147686,-0.23038 0.198109,-0.32921 0.120404,-0.23602 0.212238,-0.48551 0.272497,-0.77848 0.05897,-0.2867 0.0874,-0.613194 0.08476,-1.010751 -0.0026,-0.390386 -0.0351,-0.850654 -0.09868,-1.414316 -0.06258,-0.554873 -0.155247,-1.210039 -0.279696,-2.00213 -0.08581,-0.546179 -0.15357,-1.016191 -0.2062,-1.4865 -0.05196,-0.464342 -0.08952,-0.931648 -0.11595,-1.483637 -0.05218,-1.089747 -0.06077,-2.49412 -0.05504,-4.918791 0.0037,-1.55906 0.01277,-2.788583 0.04522,-3.81434 0.03219,-1.017494 0.08739,-1.83718 0.183746,-2.595669 0.09557,-0.752351 0.231764,-1.446144 0.427935,-2.222549 0.19513,-0.772287 0.448747,-1.623292 0.781965,-2.702021 0.235014,-0.760816 0.460713,-1.502786 0.634659,-2.084448 0.08621,-0.288294 0.159618,-0.536889 0.214733,-0.727519 0.02746,-0.09499 0.05045,-0.175812 0.06824,-0.240064 0.0089,-0.03208 0.01652,-0.06022 0.02279,-0.08404 0.0062,-0.02363 0.0113,-0.04375 0.01496,-0.05957 0.05045,-0.217989 0.06293,-0.426173 0.02217,-0.635301 -0.02027,-0.103986 -0.0534,-0.206631 -0.100185,-0.309487 -0.04667,-0.102617 -0.106699,-0.204941 -0.180524,-0.30868 -0.147059,-0.206647 -0.35034,-0.420922 -0.615866,-0.656233 -0.265446,-0.235239 -0.59598,-0.494007 -0.999973,-0.789412 -1.009426,-0.738105 -1.737656,-1.316106 -2.373913,-1.908693 -0.636725,-0.593023 -1.183246,-1.202483 -1.826002,-2.002354 -0.291361,-0.362581 -0.625172,-0.765022 -0.927817,-1.120948 -0.152179,-0.17897 -0.296629,-0.346358 -0.424357,-0.491608 -0.128176,-0.14576 -0.239993,-0.269775 -0.32637,-0.3613 -0.163663,-0.173414 -0.331336,-0.316733 -0.494471,-0.427147 -0.1637,-0.110797 -0.325511,-0.190277 -0.476655,-0.232638 -0.07619,-0.02135 -0.151055,-0.03366 -0.223023,-0.03514 -0.07231,-0.0015 -0.142731,0.008 -0.208488,0.03102 -0.06644,0.0233 -0.126472,0.05995 -0.177096,0.110431 -0.05071,0.05056 -0.08943,0.11243 -0.116531,0.183054 0.0015,-0.0039 0.0025,-0.0048 0.0011,-0.0028 -0.0014,0.0019 -0.0042,0.0056 -0.0094,0.01091 -0.01059,0.01089 -0.02721,0.02502 -0.05116,0.04181 -0.0483,0.03388 -0.116915,0.07201 -0.202283,0.111341 -0.08568,0.03947 -0.185287,0.0788 -0.293297,0.115421 -0.109253,0.03704 -0.226164,0.07099 -0.345269,0.09956 -0.617438,0.148121 -1.226472,0.478665 -1.704474,0.892374 -0.05036,0.04358 -0.113213,0.09673 -0.187262,0.158378 -0.07332,0.06104 -0.157343,0.130184 -0.250572,0.206227 -0.18407,0.150139 -0.40362,0.326838 -0.645711,0.519691 -0.472261,0.376214 -1.031979,0.81522 -1.562319,1.223335 -3.272212,2.51809 -5.725626,4.684279 -7.615852,6.838188 -0.929612,1.059291 -1.723127,2.115659 -2.415893,3.214465 -0.686189,1.088374 -1.272317,2.216365 -1.795963,3.430972 -0.668544,1.550701 -1.043915,2.88475 -1.109164,4.085459 -0.03231,0.594501 0.01137,1.156116 0.132578,1.695874 0.120486,0.536528 0.317104,1.049383 0.589743,1.55031 0.223869,0.411323 0.4682,0.765344 0.752262,1.069027 0.283127,0.302684 0.604081,0.553618 0.980998,0.761991 0.3751,0.207369 0.803717,0.371551 1.303018,0.5035 0.49761,0.131501 1.066401,0.231242 1.724064,0.309723 0.01982,0.0024 1.470643,0.174093 1.490461,0.176458 -0.03465,-0.0041 1.621021,0.190015 1.586374,0.185935 0.454582,0.05294 0.873472,0.107687 1.182156,0.153185 0.154924,0.02284 0.280968,0.04318 0.369658,0.05967 0.0447,0.0083 0.0781,0.01532 0.100287,0.02084 0.01071,0.0027 0.0183,0.005 0.01962,0.0055 6.61e-4,2.29e-4 -2.04e-4,9.6e-5 -0.0047,-0.0021 -0.002,-9.6e-4 -0.0056,-0.0028 -0.01019,-0.0057 -0.0041,-0.0026 -0.01199,-0.008 -0.02055,-0.01653 -0.0073,-0.0073 -0.0126,-0.01439 -0.0162,-0.01986 -0.0036,-0.0055 -0.0063,-0.01047 -0.0081,-0.01425 -0.0035,-0.0073 -0.0054,-0.01319 -0.0063,-0.01613 -0.002,-0.0069 -0.0019,-0.0081 -0.0018,-0.0074 1.37e-4,9.61e-4 4.45e-4,0.0035 7.91e-4,0.008 3.37e-4,0.0044 6.58e-4,0.01001 9.27e-4,0.01691 0.0011,0.02834 0.0011,0.07109 -3.21e-4,0.128034 -0.0028,0.113595 -0.01065,0.275483 -0.02297,0.473731 -0.02484,0.399534 -0.06733,0.940606 -0.121063,1.524668 -0.05508,0.598761 -0.09078,1.105593 -0.105914,1.536861 -0.01524,0.434139 -0.0097,0.793376 0.0183,1.092829 0.02822,0.301653 0.07959,0.54645 0.157848,0.747072 0.03951,0.101293 0.08598,0.191573 0.139907,0.272218 0.05426,0.08113 0.115555,0.151728 0.18384,0.213524 0.08643,0.07822 0.176747,0.142743 0.273422,0.19009 0.09765,0.04783 0.200297,0.07737 0.309483,0.08656 0.109545,0.0092 0.222459,-0.0023 0.339966,-0.03325 0.117853,-0.03102 0.240588,-0.08159 0.369879,-0.150553 0.26005,-0.13871 0.554758,-0.356303 0.898219,-0.653638 0.348722,-0.301889 0.752721,-0.690456 1.224989,-1.168851 0.909349,-0.921149 1.670146,-1.773733 2.538002,-2.869493 0.897492,-1.133178 1.904401,-2.520584 3.238818,-4.42344 0.693074,-0.988313 1.264648,-1.770914 1.73631,-2.374623 0.239969,-0.307153 0.453321,-0.567021 0.642703,-0.783095 0.192005,-0.219067 0.358245,-0.39182 0.501463,-0.522527 0.07226,-0.06595 0.137999,-0.120584 0.197609,-0.164778 0.06016,-0.0446 0.11291,-0.0777 0.158767,-0.100974 0.0464,-0.02356 0.08323,-0.03577 0.111616,-0.04077 0.01405,-0.0025 0.02554,-0.0031 0.03482,-0.0027 0.0092,4.15e-4 0.01656,0.0019 0.02252,0.0038 0.01097,0.0035 0.02254,0.01025 0.03531,0.02463 0.01368,0.0154 0.02907,0.04008 0.04366,0.07833 0.01465,0.03842 0.0273,0.08737 0.03701,0.148031 0.0098,0.06095 0.01625,0.131729 0.01933,0.212481 0.013,0.34044 0.01365,0.67713 -5.8e-4,1.050768 -0.01476,0.387827 -0.0456,0.814444 -0.09439,1.31221 -0.104629,1.067465 -0.293175,2.474829 -0.567503,4.384673 -0.242383,1.687454 -0.411275,3.144067 -0.518313,4.39349 -0.114965,1.341953 -0.158784,2.447059 -0.145652,3.347808 0.01433,0.98305 0.09651,1.72745 0.230307,2.27624 0.07257,0.29766 0.161067,0.5409 0.264234,0.73493 0.05419,0.1019 0.112773,0.1909 0.175769,0.26731 0.06531,0.0792 0.13548,0.14505 0.210392,0.19752 z"
       id="path1633"
       inkscape:path-effect="#path-effect4362"
       inkscape:original-d="m 43.612365,103.49235 c -1.044255,-0.73142 -1.100035,-4.557394 -0.161684,-11.090129 0.578755,-4.029248 0.715247,-5.421788 0.663717,-6.771506 -0.05192,-1.360203 -1.039602,-0.45881 -3.781636,3.451284 -2.723585,3.883788 -3.980092,5.47026 -5.762649,7.275947 -1.899443,1.92409 -2.599746,2.29763 -3.233047,1.7245 -0.482653,-0.43679 -0.570068,-1.37124 -0.351016,-3.752297 0.108252,-1.176658 0.169796,-2.166401 0.136768,-2.19943 -0.03303,-0.03303 -0.804586,-0.146752 -1.714573,-0.25272 -0.909985,-0.105963 -2.294391,-0.269025 -3.076455,-0.362348 -2.611663,-0.311657 -3.778416,-0.956679 -4.659825,-2.576119 -1.065604,-1.957863 -0.948899,-4.105496 0.392128,-7.216032 2.074846,-4.812652 5.168999,-8.338432 11.786905,-13.431157 1.046819,-0.805564 2.240109,-1.756165 2.651759,-2.112444 0.478243,-0.413917 1.073483,-0.725755 1.648759,-0.863761 0.495169,-0.118789 0.942003,-0.324646 0.992969,-0.457458 0.169996,-0.443001 0.846957,-0.253269 1.476543,0.41383 0.340151,0.360421 1.092385,1.245084 1.671633,1.965922 1.292777,1.608784 2.202803,2.456349 4.224948,3.934967 1.608903,1.176448 2.012951,1.74422 1.823582,2.562501 -0.05156,0.222804 -0.480367,1.656695 -0.952897,3.186422 -1.327812,4.298536 -1.429904,5.102209 -1.444758,11.37331 -0.01133,4.793888 0.03223,5.704004 0.378788,7.909774 0.493149,3.13879 0.500253,4.210974 0.03396,5.125024 -0.375315,0.73567 -1.904202,2.43045 -2.192553,2.43045 -0.0924,0 -0.340506,-0.12084 -0.551355,-0.26853 z" />
    <path
       style="fill:#a0a0a0;stroke:none;stroke-width:1"
       d=""
       id="path1635"
       transform="scale(0.26458333)" />
    <path
       style="fill:#a0a0a0;stroke:none;stroke-width:1"
       d=""
       id="path1641"
       transform="scale(0.26458333)" />
    <path
       style="fill:#0000ff;stroke:none;stroke-width:0.264583"
       d="m 44.578419,106.20573 c -0.36139,-0.25313 -0.816053,-1.0916 -1.010362,-1.86327 -0.506391,-2.01106 -0.435504,-7.520406 0.135495,-10.530466 0.719219,-3.7914 0.5442,-3.7657 -2.796043,0.41057 -4.063188,5.08014 -7.340703,7.702456 -8.62507,6.900806 -0.947266,-0.59122 -1.286137,-1.790646 -1.290816,-4.568826 l -0.0046,-2.74341 h -2.05589 c -3.005668,0 -4.748365,-0.5336 -6.074846,-1.86009 -1.39891,-1.39891 -1.902304,-3.00136 -1.902304,-6.05558 v -2.35611 l -2.900148,-0.14422 c -4.601456,-0.22883 -5.545962,-1.05411 -3.662034,-3.19979 0.769011,-0.87585 7.344857,-6.46806 11.578731,-9.846731 0.431107,-0.344028 0.697397,-0.712327 0.591756,-0.81844 -0.105642,-0.106117 -2.824268,0.163916 -6.041392,0.600074 -6.14267,0.832783 -10.487402,1.011304 -11.4945471,0.472292 -1.8927723,-1.012955 -1.2496141,-2.778926 1.7240551,-4.734002 2.269037,-1.491802 2.270843,-1.230683 -0.02599,-3.758038 -2.4672837,-2.714914 -3.1921676,-5.213727 -2.2007716,-7.586471 0.2334805,-0.558796 1.1505634,-1.888435 2.0379616,-2.954753 0.887397,-1.066316 1.61345,-2.030962 1.61345,-2.143659 0,-0.112695 -0.837868,-1.012127 -1.861929,-1.998734 -2.8002084,-2.697798 -2.8172263,-4.146503 -0.05974,-5.085342 1.525136,-0.519257 6.864139,-0.417638 10.435157,0.198618 1.574568,0.271724 2.92746,0.429438 3.006427,0.35047 0.273574,-0.273574 -0.285407,-0.826521 -3.152433,-3.118414 -4.739676,-3.788882 -7.28566,-6.83721 -7.053998,-8.445807 0.165122,-1.146556 1.369766,-1.51525 4.565248,-1.397253 l 2.900175,0.107092 0.0018,-2.365984 c 0.0042,-5.691602 2.077947,-7.832054 7.601407,-7.845918 l 2.743408,-0.0069 v -2.842406 c 0,-3.414118 0.267482,-4.055311 1.691712,-4.055311 2.412717,0 6.565371,4.047042 10.047018,9.791503 2.252942,3.717193 2.652293,3.73805 1.596613,0.08339 -1.854397,-6.419757 -1.749223,-12.922899 0.244643,-15.126562 1.178808,-1.302843 2.312357,-0.765072 4.116441,1.952897 0.631974,0.95211 1.274382,1.731111 1.427573,1.731111 0.15319,0 1.070558,-0.693085 2.038589,-1.540189 2.210415,-1.934286 3.690692,-2.648783 5.487679,-2.648783 1.822135,0 3.409298,0.777125 5.511938,2.69882 l 1.692053,1.546442 2.175721,-2.245883 c 2.459738,-2.539057 3.346933,-2.765154 4.541477,-1.157371 0.598331,0.805318 0.658031,1.303417 0.657626,5.486819 -2.59e-4,2.6489 -0.182731,5.505015 -0.430076,6.731533 -0.702314,3.482589 -0.558173,3.402035 4.013062,-2.242804 2.889983,-3.568733 5.224913,-5.446978 6.832371,-5.496042 1.676392,-0.05117 2.047534,0.797384 1.853905,4.238631 l -0.152268,2.706147 2.720639,0.137869 c 5.415963,0.274455 7.893917,2.968195 7.893917,8.58133 v 1.946676 l 2.61119,0.02166 c 4.03211,0.03346 5.36087,0.780921 4.46568,2.51204 -1.27569,2.466917 -6.347551,6.925066 -10.917643,9.596567 -2.554668,1.493362 -2.859415,2.248639 -0.627063,1.554094 3.945975,-1.227699 5.673539,-1.500468 9.641116,-1.52224 3.56336,-0.01956 4.26321,0.06412 5.5652,0.665447 1.27796,0.590218 1.48928,0.817287 1.48928,1.600263 0,1.059562 -0.80158,2.015021 -2.90343,3.460808 l -1.49253,1.026662 1.64929,1.873345 c 3.97318,4.512896 4.06389,6.996453 0.4118,11.274984 -0.78513,0.91981 -1.42752,1.75618 -1.42752,1.8586 0,0.102415 0.76837,0.945042 1.7075,1.8725 2.1579,2.131096 2.63467,3.169308 1.94134,4.227458 -0.35901,0.547916 -0.90644,0.826289 -1.92543,0.979095 -1.62582,0.243805 -11.160922,-0.01994 -12.46189,-0.344705 -1.412041,-0.352492 -1.023281,0.361766 1.074707,1.974535 5.573996,4.28485 8.585403,7.60395 8.357913,9.21191 -0.16912,1.19537 -1.86522,1.83873 -4.848999,1.8393 l -2.549248,5.5e-4 -0.128697,2.94259 c -0.111633,2.5524 -0.241363,3.11284 -0.978347,4.22649 -1.265047,1.91162 -2.922501,2.63872 -6.385899,2.80139 l -2.871924,0.13489 -0.106635,3.0886 c -0.161363,4.673866 -0.975634,5.084506 -4.480535,2.25956 -2.48872,-2.0059 -5.651493,-5.71844 -7.381628,-8.66472 -0.774927,-1.31979 -1.60129,-2.39949 -1.836358,-2.39949 -0.278306,0 -0.35388,0.19139 -0.216651,0.54868 1.459955,3.80101 2.301982,10.08916 1.776823,13.269096 -0.865327,5.23976 -2.729394,5.91739 -5.473982,1.9899 -0.652904,-0.9343 -1.368315,-1.69872 -1.589809,-1.69872 -0.22149,0 -1.232112,0.72578 -2.245825,1.61287 -2.183096,1.91038 -3.374894,2.46305 -5.311352,2.46305 -1.805562,0 -3.367989,-0.79948 -5.157763,-2.63916 -0.768786,-0.79022 -1.572226,-1.43676 -1.785417,-1.43676 -0.213194,0 -0.995079,0.71184 -1.737533,1.58186 -1.272805,1.49153 -2.955755,2.80759 -3.590263,2.80759 -0.156827,0 -0.580828,-0.2071 -0.942215,-0.46023 z"
       id="path4364" />
    <circle
       style="fill:#ffffff;stroke-width:0.8;stroke-linecap:round;stroke-linejoin:round;stroke-opacity:1;stroke:none;stroke-miterlimit:4;stroke-dasharray:none;stroke-dashoffset:2.86000026"
       id="path843"
       sodipodi:type="arc"
       sodipodi:cx="57.883327"
       sodipodi:cy="56.825512"
       sodipodi:rx="14.556584"
       sodipodi:ry="14.556584"
       sodipodi:start="0.36239668"
       sodipodi:end="0.29250021"
       sodipodi:arc-type="arc"
       d="M 71.494459,61.986058 A 14.556584,14.556584 0 0 1 52.9614,70.524737 14.556584,14.556584 0 0 1 44.100192,52.143705 14.556584,14.556584 0 0 1 62.323583,42.962674 14.556584,14.556584 0 0 1 71.821635,61.022861"
       sodipodi:open="true" />
    <circle
       style="display:inline;fill:#ff0000;stroke:none;stroke-width:0.799997;stroke-linecap:round;stroke-linejoin:round;stroke-miterlimit:4;stroke-dasharray:none;stroke-dashoffset:2.86;stroke-opacity:1"
       id="path843-3"
       sodipodi:type="arc"
       sodipodi:cx="57.883327"
       sodipodi:cy="56.825512"
       sodipodi:rx="11.423921"
       sodipodi:ry="11.423921"
       sodipodi:start="0.36239668"
       sodipodi:end="0.29250021"
       sodipodi:arc-type="arc"
       sodipodi:open="true"
       d="M 68.565263,60.875478 A 11.423921,11.423921 0 0 1 54.020628,67.576582 11.423921,11.423921 0 0 1 47.066405,53.151258 11.423921,11.423921 0 0 1 61.368014,45.946039 11.423921,11.423921 0 0 1 68.822028,60.119567" />
  </g>
  <g
     inkscape:label="Слой 1"
     inkscape:groupmode="layer"
     id="layer1" />
</svg>
