<?xml version="1.0" encoding="UTF-8" standalone="no"?>
<svg
   xmlns:dc="http://purl.org/dc/elements/1.1/"
   xmlns:cc="http://creativecommons.org/ns#"
   xmlns:rdf="http://www.w3.org/1999/02/22-rdf-syntax-ns#"
   xmlns:svg="http://www.w3.org/2000/svg"
   xmlns="http://www.w3.org/2000/svg"
   xmlns:sodipodi="http://sodipodi.sourceforge.net/DTD/sodipodi-0.dtd"
   xmlns:inkscape="http://www.inkscape.org/namespaces/inkscape"
   width="111mm"
   height="111mm"
   viewBox="0 0 111 111"
   version="1.1"
   id="svg8"
   inkscape:version="1.0.2 (e86c870879, 2021-01-15, custom)"
   sodipodi:docname="цветочек.svg">
  <defs
     id="defs2" />
  <sodipodi:namedview
     id="base"
     pagecolor="#ffffff"
     bordercolor="#666666"
     borderopacity="1.0"
     inkscape:pageopacity="0.0"
     inkscape:pageshadow="2"
     inkscape:zoom="0.7"
     inkscape:cx="149.08749"
     inkscape:cy="368.76178"
     inkscape:document-units="mm"
     inkscape:current-layer="layer2"
     inkscape:document-rotation="0"
     showgrid="false"
     inkscape:window-width="1423"
     inkscape:window-height="914"
     inkscape:window-x="154"
     inkscape:window-y="80"
     inkscape:window-maximized="0"
     showguides="true"
     inkscape:lockguides="true" />
  <metadata
     id="metadata5">
    <rdf:RDF>
      <cc:Work
         rdf:about="">
        <dc:format>image/svg+xml</dc:format>
        <dc:type
           rdf:resource="http://purl.org/dc/dcmitype/StillImage" />
        <dc:title />
      </cc:Work>
    </rdf:RDF>
  </metadata>
  <g
     inkscape:groupmode="layer"
     id="layer5"
     inkscape:label="Слой 4"
     style="display:inline" />
  <g
     inkscape:groupmode="layer"
     id="layer3"
     inkscape:label="Слой 3" />
  <g
     inkscape:groupmode="layer"
     id="layer2"
     inkscape:label="Слой 2"
     style="display:inline">
    <path
       id="path1600"
       style="fill:#ffffff;stroke-width:0.999996"
       d="M 7.841827,70.669675 C 5.816551,69.029707 7.250681,67.07671 9.944116,65.485659 L 11.530752,64.548413 9.896979,62.81944 C 6.044621,58.742609 5.987136,55.570443 9.693555,51.594245 l 1.427853,-1.531788 -2.066253,-1.948722 c -3.116824,-2.939546 -2.646884,-4.772813 1.42004,-5.539672 2.278121,-0.429563 8.76945,0.111872 11.589273,0.966644 0.62578,0.189686 -0.398221,-0.79637 -2.275556,-2.191246 C 11.035238,34.84537 9.67534,30.258283 16.643937,30.741091 l 2.861238,0.198241 -3.54e-4,-3.043558 c -5.14e-4,-4.425753 2.490759,-6.912004 6.925977,-6.912004 h 3.057881 l -0.01439,-3.271113 c 0.130605,-3.284524 0.376719,-3.428836 1.924141,-3.456066 2.339384,-0.223194 7.155175,4.473821 10.257199,10.004217 1.007304,1.795855 1.650154,2.753189 1.42856,2.127411 C 38.667643,13.9159 42.42071,2.5521339 47.788575,12.143978 c 0.54509,0.974023 0.739572,0.90278 2.591764,-0.949408 C 53.657788,7.9171147 57.538466,7.8558217 60.714,11.031353 l 1.825962,1.825965 1.993207,-2.194558 c 2.950687,-3.2487623 4.861697,-2.8311533 5.603319,1.22448 0.414494,2.266675 -0.12451,9.032054 -0.926783,11.632837 -0.197059,0.638807 0.78298,-0.374533 2.177857,-2.251867 6.455583,-8.68841 11.102431,-10.113733 10.608352,-3.253886 l -0.198246,2.752331 2.635115,-8.54e-4 c 4.590211,-0.0016 7.539255,2.95083 7.539255,7.547604 v 2.644306 c 0,0 2.185793,-0.106873 3.161703,-0.0093 2.33719,0.218106 3.66204,0.269198 4.07262,1.651379 0.44089,1.811447 -5.19977,7.433198 -10.730169,10.535222 -1.795854,1.007304 -2.753184,1.650155 -2.127407,1.428563 11.879776,-4.206723 22.922315,-1.262529 15.066785,4.017142 l -1.660659,1.116128 1.619789,1.714543 c 3.83741,4.061898 3.89109,7.239679 0.18945,11.210775 l -1.42785,1.531786 2.06626,1.948725 c 2.28629,2.156249 2.54319,3.247259 1.1037,4.686766 -1.01816,1.018151 -11.503913,0.984212 -14.113018,-0.04569 -0.625777,-0.247012 0.398221,0.700284 2.275554,2.105111 8.744114,6.543279 10.028294,10.712632 3.299555,10.712632 h -3.015103 v 2.901342 c 0,4.273334 -2.554181,6.769779 -6.926331,6.769779 h -3.057895 c 0,0 0.07972,1.628844 0.01442,3.271112 -0.06529,1.64227 -0.199167,3.592984 -1.74939,3.761884 -1.550222,0.1689 -7.329925,-4.779644 -10.431945,-10.310024 -1.007303,-1.795863 -1.650155,-2.753195 -1.428562,-2.127416 4.416544,12.47232 0.663478,23.83608 -4.704389,14.24425 -0.545194,-0.97422 -0.738719,-0.90365 -2.585123,0.94277 -3.281502,3.28149 -7.162367,3.34778 -10.333667,0.17647 l -1.832597,-1.8326 -1.99321,2.19455 c -2.011741,2.21499 -2.969982,2.58338 -4.385994,1.68623 l -1.2e-5,-3e-5 c -1.631262,-1.03351 -1.803192,-9.639904 -0.290537,-14.543549 0.197059,-0.638807 -0.782979,0.37454 -2.177859,2.251873 -6.487834,8.731856 -10.694553,10.029746 -10.694553,3.299592 V 93.232617 H 26.27427 c -4.273337,0 -6.769783,-2.554181 -6.769783,-6.92634 V 83.24839 c 0,0 -2.303621,0.09453 -3.271112,0.01442 -0.967493,-0.08012 -1.85152,-0.214818 -2.517013,-0.431203 C 13.050868,82.615203 11.426903,82.186616 12.581434,80.320586 13.735963,78.454558 24.9737,69.635475 24.9737,69.635475 24.056378,69.457781 9.867124,72.309693 7.841848,70.669726 Z m 19.122404,-1.305954 c -1.219807,1.117212 -2.743828,2.516565 -3.957797,3.601248 -1.213969,1.084684 -11.924743,9.469221 -7.023951,9.451091 3.460367,-0.01286 4.422496,-0.519634 5.462893,-2.87775 1.366725,-3.097754 6.081752,-8.095667 10.838449,-11.488727 2.20158,-1.570442 3.580019,-2.708374 3.063194,-2.528744 -4.868609,1.692186 -15.627688,1.826505 -20.197264,0.252162 -2.523526,-0.869426 -3.413729,-0.641927 -5.743072,1.467673 -4.420705,4.003678 14.703605,1.545342 16.9037,0.994013 m 20.208076,33.748393 c 0.96248,-1.46894 0.962302,-1.76898 -0.004,-6.903018 -1.175575,-6.245333 -0.557206,-14.25954 1.450453,-18.798182 1.547669,-3.49876 1.488016,-3.700566 -1.675059,-5.666843 -1.633384,-1.015365 -3.347174,-2.694724 -4.11959,-4.036832 -0.727458,-1.263986 -1.77319,-2.415975 -2.323847,-2.559971 -0.55066,-0.143993 -0.874316,-0.05654 -0.719236,0.194394 0.378431,0.612312 -1.362486,1.2459 -2.126295,0.773843 -0.332999,-0.205812 -0.446136,-0.116401 -0.251415,0.19865 0.194717,0.315061 -0.981726,1.42814 -2.614325,2.473512 -14.375022,9.204463 -18.56291,24.436129 -6.718615,24.436129 h 3.448375 l -0.356766,3.413334 c -0.652977,6.247354 3.92912,3.55921 9.84797,-5.777396 3.848211,-6.070306 4.560569,-5.843987 3.054181,0.97035 -2.42768,10.98192 -0.730777,17.14113 3.108265,11.28201 z m 13.811467,0.0869 c 2.05978,-2.230944 3.301576,-2.545344 3.803787,-0.96303 0.182911,0.5763 0.960653,1.63787 1.728324,2.35907 3.544878,3.33024 4.447478,-3.873554 1.775816,-14.173086 -0.405811,-1.564421 -0.543694,-2.724429 -0.306412,-2.577787 0.237285,0.146659 0.523954,-0.01039 0.637045,-0.350194 0.113073,-0.339265 1.408568,1.282134 2.878852,3.603126 2.852047,4.502212 7.977192,9.762557 9.121006,9.361577 0.457023,-0.16019 0.658173,-1.42871 0.592864,-3.73871 L 80.462368,92.0947 h 3.547971 c 4.824436,0 6.605291,-1.685478 6.605291,-6.251512 0,-7.017901 -6.501999,-14.284987 -19.618705,-21.927235 -0.905063,-0.527322 -0.940822,-0.903431 -0.348501,-3.665348 1.321599,-6.162381 -1.47604,-12.75986 -6.819246,-16.081382 -3.13697,-1.950045 -3.133851,-1.935797 -1.427275,-6.533208 2.150349,-5.792908 2.53266,-15.512189 0.819332,-20.82949 -2.156579,-6.69291 -8.253115,-9.0840683 -12.194772,-4.782979 -2.149056,2.34503 -3.392741,2.690998 -3.902296,1.085534 -0.182911,-0.576289 -0.960652,-1.637863 -1.728324,-2.359054 -3.54488,-3.3302413 -4.447478,3.873538 -1.775814,14.173065 0.405807,1.564435 0.54369,2.724437 0.306405,2.577787 -0.237284,-0.146661 -0.523951,0.01097 -0.637039,0.350204 -0.113096,0.33926 -1.408569,-1.282146 -2.878852,-3.603124 -2.839834,-4.482943 -7.96831,-9.755377 -9.121006,-9.377035 -0.838043,0.275063 -1.191102,2.797398 -0.733206,5.238192 0.262438,1.398927 0.863341,2.046935 2.74868,2.964152 3.821281,1.859056 8.024212,6.047748 12.057277,12.016434 4.370316,6.467799 4.499631,7.29896 1.430223,9.192566 -4.637307,2.860882 -7.334119,9.611871 -6.209192,15.543591 0.292701,1.543415 0.404113,3.013431 0.247582,3.266707 -0.156531,0.253273 -0.08013,0.546359 0.169839,0.651307 0.249943,0.104947 1.05732,1.17816 1.794172,2.384922 0.736849,1.206761 2.733763,3.085859 4.437583,4.175781 2.219323,1.419686 3.012874,2.249452 2.798188,2.925895 -0.16483,0.519323 -0.691246,2.008617 -1.169836,3.309553 -5.948385,16.169299 2.581347,35.156297 11.469097,25.529937 z M 97.442291,81.287509 c 0,-1.830015 -3.730223,-5.444874 -9.190737,-8.906513 -6.070306,-3.84821 -5.843988,-4.560568 0.970349,-3.054179 11.625257,2.5699 17.254257,0.762767 10.656778,-3.421237 l -2.51,-1.591804 2.10425,-1.896179 C 110.13993,52.805388 90.65629,44.124014 73.794438,50.975965 l -2.314501,0.940521 0.570165,2.491615 c 0.379511,1.658478 0.380756,3.416249 0.004,5.256809 l -0.566438,2.765186 4.294699,3.027883 c 5.743976,4.04966 11.886867,9.976296 13.980199,13.488027 1.821994,3.056551 2.232651,3.309137 5.546669,3.411652 1.77507,0.05489 2.13334,-0.124798 2.13334,-1.070149 z M 32.134251,64.745905 c 1.65807,-0.336089 4.049109,-1.021048 5.313425,-1.522137 l 2.298757,-0.91107 -0.554417,-2.706483 c -0.370096,-1.806697 -0.357559,-3.566754 0.03772,-5.294085 l 0.592127,-2.587598 -2.916614,-1.091248 c -12.670017,-4.740458 -28.20967,-1.186875 -28.20967,6.450941 0,6.413884 11.327402,10.116607 23.438677,7.66168 z m 10.00039,-16.73415 C 43.124802,46.607 44.95637,44.751 46.204785,43.887308 49.124811,41.867151 49.126448,41.879213 45.116752,35.884653 39.166853,26.989457 33.729293,22.742132 27.668437,22.255624 22.640125,21.852001 20.642246,23.740055 20.642246,28.89558 v 3.448375 L 17.228909,31.98719 c -6.24734,-0.652978 -3.559212,3.929119 5.777394,9.84797 6.070312,3.848211 5.843989,4.560569 -0.970344,3.054181 -11.344877,-2.507918 -17.369688,-0.671458 -10.904914,3.323993 1.78343,1.10222 2.012451,1.116438 4.416089,0.27418 3.999058,-1.401305 19.242493,-0.626876 22.511374,1.143672 2.21148,1.197825 2.043232,1.264668 4.076133,-1.619431 z m 35.68097,-2.191674 c 14.247328,-9.624323 17.62475,-25.216417 5.089993,-23.498339 l -2.559871,0.35087 0.377946,-3.688946 c 0.668507,-6.525058 -3.775708,-4.035585 -9.821831,5.501784 -3.848212,6.070313 -4.560568,5.843988 -3.054179,-0.970345 2.239496,-10.13064 1.200971,-15.9109913 -2.203795,-12.266176 -2.043313,2.187376 -2.061944,2.361192 -0.860594,8.028017 1.182993,5.580236 0.04694,17.86264 -1.988619,21.499998 -0.392882,0.702041 0.05222,1.256497 2.000834,2.492253 1.378368,0.874137 3.311281,2.731627 4.295369,4.127757 l 1.789243,2.538415 1.76108,-0.904757 c 0.968597,-0.497622 3.29709,-1.942357 5.174424,-3.210531 z M 67.209899,33.07251 c 0.713089,-1.01689 1.41609,-1.848891 1.56224,-1.848891 0.49168,0 -0.840512,2.077092 -1.854358,2.891234 -0.71263,0.572259 -0.627775,0.26947 0.292118,-1.042343 z m 2.356818,-2.875071 c 0,-0.584702 3.899143,-4.382329 4.16333,-4.054936 0.108999,0.135048 -0.783177,1.205559 -1.982589,2.378893 -1.199408,1.173334 -2.180741,1.927554 -2.180741,1.676043 z m 5.120003,-4.861712 c 0,-0.131459 0.67152,-0.679028 1.492264,-1.216803 0.820747,-0.537773 1.318493,-0.696593 1.106098,-0.352932 -0.40588,0.656724 -2.598362,1.981258 -2.598362,1.569735 z m 27.16446,21.646536 c 1.71095,-1.558374 1.61399,-2.579329 -0.28445,-2.995314 -0.86045,-0.188545 -1.920389,-0.455172 -2.355439,-0.592526 -0.90779,-0.286603 -11.032332,1.355661 -13.022557,2.112341 -0.861092,0.327387 -1.203954,0.305396 -0.9765,-0.06262 0.192783,-0.311944 -0.106757,-0.567172 -0.665657,-0.567172 -0.558907,0 0.639167,-0.959998 2.662374,-2.133332 4.242024,-2.46011 11.05256,-8.773727 10.68093,-9.901613 -0.34446,-1.04543 -5.271106,-1.342781 -6.089452,-0.367536 -0.34165,0.407141 -1.654112,2.323696 -2.916598,4.259013 -2.221564,3.405517 -6.365259,7.402716 -11.06822,10.676892 -1.251557,0.871327 -1.80218,1.424055 -1.223602,1.228283 4.653933,-1.574737 16.029975,-1.486256 20.388332,0.158572 1.45232,0.548106 2.84692,0.02844 4.870839,-1.814982 z"
       sodipodi:nodetypes="sscsscssscscsscccssssscsssssccscccssscsscssssscssczzssssscsssssscssczzzszszsscssccscsssssscscsssccscssscssscsssssssssssssssssssssssssssscssscsscsccsssccssssscsssssscscssssssssscsssssssscsssssssssssssssssssssssssssssss" />
    <path
       style="fill:#ffffff;stroke:none;stroke-width:0.264583"
       d="m 54.06919,104.36403 c -1.360641,-0.47756 -3.518659,-2.82691 -4.549774,-4.953164 -1.437949,-2.96518 -2.063785,-5.903463 -2.202406,-10.340286 -0.151188,-4.839046 0.265249,-7.619319 1.852918,-12.370685 0.739126,-2.211977 1.074924,-3.586398 0.974239,-3.987571 -0.09407,-0.374778 -0.747475,-1.028723 -1.684962,-1.686328 -2.835224,-1.988799 -4.307993,-3.380534 -5.818849,-5.498696 -1.479583,-2.074316 -1.506544,-2.141878 -1.720603,-4.312162 -0.36904,-3.741604 -0.251823,-6.476183 0.365809,-8.53391 1.059298,-3.529191 2.710032,-5.890991 5.674004,-8.118118 2.586895,-1.943794 2.699148,-2.376618 1.317811,-5.081145 -1.3082,-2.561335 -4.563804,-7.21197 -6.923344,-9.890014 -2.392041,-2.714932 -4.79488,-4.750224 -7.410682,-6.277108 -1.175943,-0.686419 -2.35169,-1.534141 -2.61277,-1.883831 -0.67861,-0.908923 -0.887028,-4.202629 -0.347434,-5.490607 0,0 0.20171,-0.645435 0.459319,-0.743356 0.25761,-0.09792 0.746994,0.223579 0.746994,0.223579 1.20977,0.362092 5.404485,4.895251 8.612998,9.608869 2.129945,3.129096 2.270859,3.263025 2.978955,2.831261 0.634566,-0.386929 0.635289,-0.378595 -0.488269,-5.652205 -0.99003,-4.646881 -1.182631,-9.344443 -0.449612,-10.96618 0.624007,-1.3805753 1.525918,-1.3004203 2.951618,0.262316 0.597941,0.655408 1.277135,1.547572 1.509326,1.982587 0.294578,0.551892 0.601658,0.790933 1.016069,0.790933 0.659939,0 2.133591,-1.000873 3.270411,-2.221194 3.244961,-3.4833103 8.474861,-1.908218 10.908378,3.285285 2.564161,5.472312 2.388724,15.607061 -0.402554,23.255353 -0.693826,1.90113 -0.902681,3.518269 -0.527143,4.081633 0.100147,0.150228 1.147647,0.956944 2.327792,1.7927 1.180146,0.835761 2.663419,2.106853 3.29616,2.824653 1.7318,1.964602 3.068123,4.846983 3.543768,7.643729 0.373383,2.195477 0.369579,2.510938 -0.06355,5.273136 -0.31333,1.998109 -0.382599,3.061793 -0.216531,3.325063 0.134303,0.212911 1.566294,1.209588 3.182207,2.214835 11.268589,7.010098 16.983652,13.881485 16.983652,20.419925 0,4.379113 -1.948134,5.921389 -7.479672,5.921389 h -2.681079 l -0.0037,3.283658 c -0.0021,1.806012 -0.105624,3.444592 -0.230079,3.641302 -0.737598,1.165814 -5.282664,-3.41546 -9.423051,-9.498086 -2.019506,-2.966854 -2.276373,-3.226874 -2.970171,-3.006678 -0.672376,0.21341 -0.656388,0.934215 0.09167,4.132851 1.316038,5.627273 1.617599,10.702047 0.742481,12.494757 -0.301447,0.61751 -0.671229,0.99966 -1.014625,1.04856 -0.678348,0.0966 -2.414036,-1.42637 -3.052954,-2.67875 -0.975345,-1.911844 -1.647678,-1.825544 -4.171487,0.53535 -1.667827,1.56017 -3.671383,2.68746 -4.750318,2.67272 -0.340756,-0.004 -1.065639,-0.16502 -1.610848,-0.35637 z"
       id="path1602"
       sodipodi:nodetypes="ssssssssssssssszssssssssssssssssssssccsssssssscss" />
    <path
       style="fill:#ffffff;stroke:none;stroke-width:0.264583"
       d="M 21.088618,65.166938 C 15.347148,64.504596 10.847324,62.279219 9.461679,59.416866 8.821621,58.094678 8.782946,56.074303 9.373811,54.82671 c 2.353728,-4.969797 12.588207,-7.483212 22.361363,-5.491573 2.242827,0.457062 7.31542,2.062434 7.738171,2.448973 0.09334,0.08535 0.0085,0.824303 -0.188356,1.642119 -0.460098,1.910619 -0.470366,4.998032 -0.02367,7.11905 l 0.351061,1.666939 -1.962829,0.756948 c -2.649991,1.021942 -6.477225,1.908042 -9.586187,2.219435 -2.901338,0.290602 -4.305718,0.286236 -6.974749,-0.02165 z"
       id="path1604" />
    <path
       style="fill:#ffffff;stroke:none;stroke-width:0.264583"
       d="m 69.940738,48.33911 c -1.385662,-2.042718 -2.775968,-3.478668 -4.863489,-5.023159 -1.090423,-0.806768 -2.065171,-1.610338 -2.166108,-1.785716 -0.100935,-0.175375 0.04315,-0.831274 0.320179,-1.457555 1.253269,-2.833225 2.066138,-8.685444 2.052144,-14.774391 -0.0085,-3.734764 -0.10908,-5.037746 -0.542064,-7.028289 -0.780625,-3.588696 -0.724639,-4.824976 0.27389,-6.047781 0.442987,-0.54248 1.174046,-1.242269 1.624578,-1.555088 l 0.819148,-0.568759 0.499584,0.499583 c 1.368867,1.368867 1.285349,5.005911 -0.30319,13.203215 -0.762289,3.933626 -0.821366,4.978211 -0.291379,5.152191 0.462981,0.151982 1.380085,-0.965677 3.949371,-4.813035 3.573654,-5.351336 6.074738,-8.066878 7.937939,-8.618588 0.413933,-0.122569 0.644745,-0.0068 0.966408,0.48393 0.366067,0.558689 0.400511,1.058039 0.257494,3.733259 l -0.165099,3.088301 1.057363,-0.18795 c 0.581551,-0.10337 2.061053,-0.187826 3.287781,-0.187677 1.840874,2.25e-4 2.414309,0.0982 3.283381,0.560994 3.676451,1.957756 3.296743,7.38297 -0.963119,13.761021 -1.796843,2.690309 -6.411798,7.019483 -10.016677,9.396399 -2.998214,1.976901 -5.53905,3.423329 -5.987583,3.408563 -0.106757,-0.0035 -0.570507,-0.561276 -1.030552,-1.239468 z M 67.793153,33.421145 c 0.860546,-1.005353 1.332055,-2.051008 1.051402,-2.331662 -0.175835,-0.175834 -2.403921,2.667974 -2.404122,3.068489 -2.74e-4,0.565272 0.446473,0.321924 1.35272,-0.736827 z m 4.235139,-5.013076 c 1.822861,-1.822861 2.169436,-2.366309 1.509067,-2.366309 -0.372884,0 -4.123202,3.626479 -4.123202,3.987052 0,0.631098 0.953391,0.04 2.614135,-1.620743 z m 4.287734,-3.606982 c 1.037461,-0.751533 1.309984,-1.237561 0.693921,-1.237561 -0.438086,0 -2.391501,1.418251 -2.391501,1.736317 0,0.448651 0.655635,0.256022 1.69758,-0.498756 z"
       id="path1606" />
    <path
       style="fill:#ffffff;stroke:none;stroke-width:0.264583"
       d="M 38.165675,49.584896 C 36.085817,48.65723 33.06657,48.163577 27.220744,47.795367 22.107907,47.473326 17.196078,47.743667 15.171657,48.458561 13.160384,49.168806 11.878866,48.82049 9.750704,46.985148 8.428542,45.84491 8.353503,45.07698 9.502879,44.449 c 0.670285,-0.366217 1.387575,-0.435957 4.274952,-0.41564 2.845421,0.02001 4.1605,0.164726 7.310787,0.804421 4.240476,0.861071 6.443404,1.007015 6.443404,0.426871 0,-0.460322 -1.548649,-1.708975 -4.336906,-3.496774 -5.791769,-3.713628 -9.678045,-7.49627 -9.140594,-8.89684 0.273226,-0.712019 1.658074,-0.92789 4.161656,-0.648726 1.296493,0.144571 2.417414,0.262852 2.490937,0.262852 0.07353,0 0.13368,-1.233104 0.13368,-2.740228 0,-3.456845 0.313798,-4.731011 1.461422,-5.934042 1.348699,-1.413816 3.596046,-1.830489 6.698956,-1.242037 5.447059,1.033017 10.317919,5.123847 15.938192,13.385833 2.312054,3.39879 3.161988,4.92495 3.161988,5.677726 0,0.290982 -0.482629,0.879268 -1.177158,1.434857 -1.758991,1.407109 -4.258441,3.965626 -5.580385,5.712269 -0.644757,0.851894 -1.256038,1.545537 -1.358408,1.541437 -0.102375,-0.004 -0.921245,-0.335343 -1.819727,-0.736083 z"
       id="path1608" />
    <path
       style="fill:#ffffff;stroke:none;stroke-width:0.264583"
       d="m 93.453017,82.067201 c -1.462505,-0.292434 -1.967348,-0.720355 -3.330825,-2.823262 -3.012235,-4.645816 -8.422346,-9.800298 -15.504059,-14.771472 -1.43101,-1.004532 -2.688084,-1.901694 -2.793499,-1.993699 -0.105414,-0.092 -0.02179,-0.974911 0.185866,-1.962012 0.47044,-2.236379 0.477478,-4.900503 0.01806,-6.842702 -0.193445,-0.817819 -0.271173,-1.569175 -0.172732,-1.669684 0.09845,-0.10051 1.345808,-0.622444 2.771929,-1.159856 6.12149,-2.30679 12.917066,-2.802939 18.756429,-1.36942 2.392215,0.58727 5.531445,2.111332 6.847424,3.324352 3.15656,2.909625 2.80915,5.948418 -1.107219,9.684889 l -1.98856,1.897217 1.81398,1.150169 c 2.176049,1.379752 2.700669,1.813021 3.296729,2.722744 0.44306,0.676186 0.44202,0.704761 -0.0433,1.190079 -1.36292,1.362919 -5.011699,1.281279 -13.14247,-0.294056 -4.299953,-0.833113 -4.9834,-0.880052 -5.184476,-0.35606 -0.214539,0.559072 0.181352,0.916707 3.4715,3.136076 6.391567,4.31142 9.259027,6.924261 9.920917,9.03995 0.36334,1.161386 -1.21856,1.616067 -3.815724,1.096747 z"
       id="path1610" />
    <path
       style="fill:#ffffff;stroke:none;stroke-width:0.264583"
       d="m 43.321558,103.66874 c -1.257759,-1.3898 -1.192239,-5.780564 0.191146,-12.810101 1.045725,-5.313726 0.87786,-6.564674 -0.658277,-4.905603 -0.34706,0.374827 -1.787055,2.410083 -3.199988,4.522769 -1.620522,2.423092 -3.304769,4.589009 -4.561951,5.866601 -2.524426,2.56542 -3.760546,2.95896 -4.361701,1.38858 -0.243563,-0.63624 -0.217036,-1.32997 0.175557,-4.591078 l 0.141714,-1.177159 h -2.365377 c -1.300957,0 -2.922822,-0.119557 -3.604142,-0.265671 -3.403202,-0.729858 -5.092306,-3.86421 -4.139492,-7.681372 0.522629,-2.093769 2.301253,-5.646185 3.850754,-7.691047 1.800347,-2.375904 5.442948,-5.744097 8.764568,-8.104306 1.59286,-1.131825 3.012267,-2.274908 3.154245,-2.540188 0.164122,-0.306668 0.518342,-0.482332 0.972615,-0.482332 0.964945,0 1.498488,-0.230036 1.498488,-0.646069 0,-0.576286 0.859959,-0.387018 1.528001,0.336291 0.346193,0.374834 0.968517,1.183357 1.382946,1.796722 1.075063,1.591124 2.397685,2.849648 4.474436,4.2576 2.548591,1.72784 2.576209,1.836632 1.324935,5.219269 -1.470743,3.975942 -1.77112,5.64553 -1.928772,10.720723 -0.10754,3.461996 -0.04757,5.043469 0.26784,7.062958 1.026891,6.574983 1.003401,6.235363 0.504009,7.287253 -0.552018,1.16273 -2.126191,2.87352 -2.644061,2.87352 -0.204431,0 -0.549806,-0.1968 -0.767493,-0.43736 z"
       id="path1612" />
    <path
       style="fill:#ffffff;stroke:none;stroke-width:0.264583"
       d="m 70.157625,48.420786 c -1.228955,-1.810971 -2.643387,-3.296753 -4.912589,-5.160417 -1.272646,-1.045204 -2.25779,-2.03474 -2.193222,-2.203003 0.715521,-1.86462 1.460192,-4.850524 1.807012,-7.245566 0.598062,-4.130095 0.620341,-12.835549 0.03985,-15.576474 -0.407562,-1.924431 -0.518111,-2.971253 -0.466099,-4.413699 0.02724,-0.755696 2.292703,-3.392736 2.914669,-3.392736 0.186684,0 0.56041,0.362441 0.830506,0.805427 0.793095,1.30077 0.67252,4.826368 -0.374451,10.948862 -0.976224,5.708779 -1.035834,6.535547 -0.486417,6.74638 0.574574,0.220485 1.091131,-0.368417 4.006182,-4.567242 3.309027,-4.766311 5.548717,-7.374689 7.044438,-8.204061 1.790185,-0.992652 1.950873,-0.720543 1.950873,3.303623 v 3.272362 l 3.421985,-0.01906 c 3.351545,-0.01866 3.443761,-0.0047 4.480269,0.678856 2.853658,1.881883 2.649022,6.561445 -0.522012,11.937215 -2.565822,4.349774 -9.750286,10.659681 -15.484148,13.599271 -1.124637,0.576569 -1.359082,0.518469 -2.056849,-0.50975 z M 68.039778,33.316908 c 0.792977,-1.038535 1.173709,-2.318685 0.689598,-2.318685 -0.312722,0 -2.289098,2.6585 -2.289098,3.079154 0,0.733673 0.720023,0.391339 1.5995,-0.760469 z m 4.162389,-5.003973 c 1.651362,-1.617323 2.026145,-2.271175 1.301818,-2.271175 -0.558664,0 -4.089828,3.458266 -4.089828,4.005395 0,0.409419 0.07481,0.434705 0.557601,0.188483 0.306683,-0.156409 1.310364,-1.021626 2.230409,-1.922703 z m 4.199673,-3.420086 c 0.986145,-0.683396 1.239927,-1.329323 0.522289,-1.329323 -0.580254,0 -2.305683,1.230682 -2.305683,1.644554 0,0.531028 0.754753,0.397617 1.783394,-0.315231 z"
       id="path1614" />
    <path
       style="fill:#a0a0a0;stroke:none;stroke-width:1"
       d=""
       id="path1616"
       transform="scale(0.26458333)" />
    <path
       style="fill:#ffffff;stroke:none;stroke-width:0.264583"
       d="m 95.612521,48.325877 c -3.890595,-1.037475 -12.245016,-1.221098 -16.657168,-0.366115 -0.954119,0.184888 -1.765499,0.307366 -1.80306,0.272175 -0.03756,-0.03519 1.021879,-0.877538 2.35432,-1.871886 3.703405,-2.763702 7.796903,-7.006374 10.191404,-10.5628 1.113662,-1.654074 2.202757,-3.15506 2.420207,-3.33552 0.560728,-0.465372 3.248467,-0.575883 4.429197,-0.182119 1.54906,0.516605 1.41951,0.95235 -1.02955,3.462666 -2.643317,2.709442 -5.115222,4.738068 -8.260441,6.779125 -2.704825,1.755267 -3.242909,2.267242 -2.630058,2.502415 0.21981,0.08435 0.399655,0.308708 0.399655,0.498583 0,0.414822 0.466682,0.439793 1.408848,0.07538 1.0176,-0.393594 6.204602,-1.38384 9.536616,-1.82063 2.82312,-0.370078 2.92674,-0.366334 4.829459,0.174624 1.65909,0.471692 1.95655,0.638418 2.027,1.13612 0.0985,0.696126 -1.79079,2.647068 -3.220439,3.325481 -1.087,0.515819 -1.79136,0.500396 -3.99599,-0.08749 z"
       id="path1618" />
    <path
       style="fill:#ffffff;stroke:none;stroke-width:0.264583"
       d="m 43.315711,103.66229 c -1.132206,-1.25108 -1.141462,-5.838644 -0.02335,-11.575628 0.345343,-1.771941 0.691144,-4.030233 0.768451,-5.018419 0.239963,-3.067394 -0.42775,-2.524979 -4.65237,3.779301 -2.496206,3.725013 -5.835902,7.401482 -6.985618,7.690052 -1.846258,0.46337 -2.171692,-0.72642 -1.51027,-5.521601 l 0.14528,-1.053246 h -2.370263 c -1.303643,0 -2.927706,-0.119557 -3.609026,-0.265671 -3.403201,-0.729858 -5.092305,-3.86421 -4.139493,-7.681372 0.522631,-2.093769 2.301254,-5.646185 3.850755,-7.691047 1.800347,-2.375904 5.442949,-5.744097 8.764568,-8.104306 1.592862,-1.131825 3.012268,-2.274908 3.154245,-2.540188 0.164122,-0.306668 0.518344,-0.482332 0.972616,-0.482332 0.964945,0 1.498487,-0.230036 1.498487,-0.646069 0,-0.576286 0.85996,-0.387018 1.528001,0.336291 0.346193,0.374834 0.970616,1.183357 1.387613,1.796722 1.001282,1.472797 2.793239,3.161324 4.718739,4.446384 2.276826,1.519529 2.312945,1.689197 1.07089,5.030485 -1.419739,3.819278 -1.769905,5.790607 -1.92633,10.844636 -0.103121,3.331842 -0.04024,4.939944 0.271324,6.939045 1.026994,6.589463 1.002543,6.235363 0.503158,7.287253 -0.552015,1.16273 -2.126192,2.87352 -2.644061,2.87352 -0.20443,0 -0.552435,-0.19973 -0.77334,-0.44381 z"
       id="path1620" />
    <path
       style="fill:#ffffff;stroke:none;stroke-width:0.264583"
       d="m 43.212711,103.18789 c -0.800474,-1.22168 -0.740545,-5.352844 0.156676,-10.800401 0.796223,-4.834311 0.947553,-6.975005 0.512113,-7.244125 -0.354921,-0.219346 -1.391672,0.953041 -3.227012,3.649202 -4.107246,6.033651 -7.328845,9.61359 -8.651304,9.61359 -1.111516,0 -1.345353,-0.66947 -1.169409,-3.34798 0.08168,-1.243715 0.212787,-2.428723 0.291309,-2.63335 0.11975,-0.312052 -0.388273,-0.413023 -3.150129,-0.626111 -3.692268,-0.284858 -4.930846,-0.725917 -5.970372,-2.126046 -1.765796,-2.37832 -1.549305,-5.209835 0.73823,-9.655383 2.086191,-4.054271 5.152767,-7.36658 10.613057,-11.463532 1.49933,-1.124973 2.940029,-2.286202 3.201555,-2.58051 0.261525,-0.294303 0.912327,-0.604953 1.446221,-0.690323 0.533893,-0.08538 1.028852,-0.306724 1.099909,-0.491891 0.07106,-0.185167 0.319436,-0.336667 0.551956,-0.336667 0.472656,0 1.16288,0.703442 2.698058,2.749725 1.083755,1.444563 2.556969,2.78257 4.586267,4.165349 1.844068,1.256562 1.897361,1.55404 0.83755,4.67505 -1.520797,4.478548 -1.684142,5.456308 -1.831244,10.961795 -0.117507,4.397801 -0.06507,5.537067 0.390176,8.479454 0.788177,5.094074 0.766367,5.274154 -0.886459,7.319284 -0.984712,1.21844 -1.618585,1.32692 -2.237148,0.38287 z"
       id="path1622" />
    <path
       style="fill:#ffffff;stroke:none;stroke-width:0.264583"
       d="m 43.361103,103.20152 c -0.638684,-0.7679 -0.572518,-5.862394 0.14044,-10.812986 0.71612,-4.972538 0.816577,-7.364838 0.30927,-7.364838 -0.493944,0 -1.388012,1.051571 -3.898057,4.584728 -2.713725,3.819865 -5.371516,7.043032 -6.546838,7.939482 -0.559265,0.42658 -1.084072,0.6191 -1.543868,0.56638 l -0.696589,-0.0799 -4.17e-4,-2.97157 -4.14e-4,-2.971577 -1.114779,-0.168953 C 29.396725,91.829346 27.931567,91.639785 26.753946,91.501033 25.576325,91.36227 24.2249,91.086648 23.750778,90.88855 c -1.895497,-0.791983 -3.096274,-3.526934 -2.637681,-6.007695 0.654369,-3.539808 3.314222,-7.987602 6.880979,-11.506336 2.885895,-2.847041 8.99635,-7.663943 10.113266,-7.972339 0.443659,-0.122502 0.873022,-0.330119 0.954144,-0.461374 0.333591,-0.539761 1.138407,-0.172493 2.026537,0.924771 1.860092,2.298113 3.450931,3.882861 5.278577,5.258354 1.331391,1.00201 1.879582,1.576285 1.93237,2.024313 0.04054,0.344003 -0.373043,2.032327 -0.919055,3.751828 -0.546011,1.719499 -1.108901,4.052651 -1.250856,5.184785 -0.379701,3.028187 -0.314605,10.816591 0.113623,13.595209 0.518238,3.36261 0.479294,4.898144 -0.15086,5.947754 -1.143205,1.90421 -2.0305,2.41555 -2.730718,1.57367 z"
       id="path1624" />
    <path
       style="fill:#ffffff;stroke:none;stroke-width:0.264583"
       d="m 15.429034,82.296113 c -0.469336,-0.114335 -0.707301,-0.432476 -0.626355,-0.837368 0.212933,-1.065102 2.408804,-3.427769 6.264335,-6.740175 2.107022,-1.81021 4.684622,-4.098076 5.745625,-5.099794 0.225585,-0.212978 0.222614,-0.235051 -0.115199,-0.855715 -0.229068,-0.420868 -0.405793,-0.614441 -0.520711,-0.570342 -0.295129,0.113261 -4.31499,0.663093 -6.534707,0.893827 -2.984031,0.310178 -8.750823,0.317314 -9.736232,0.01206 -1.4394,-0.44591 -1.429181,-0.943708 0.04554,-2.2187 1.838245,-1.589278 2.743879,-1.787762 4.995148,-1.09478 2.536245,0.780706 5.372822,1.108613 9.590051,1.108613 4.191853,0 8.267245,-0.457599 10.470533,-1.175667 0.348424,-0.113552 -0.202298,0.357204 -1.785863,1.526562 -3.31794,2.45007 -5.639505,4.462203 -7.820237,6.777892 -1.895829,2.013161 -3.081257,3.634373 -4.00995,5.484078 -0.700365,1.394928 -1.243704,2.020554 -2.059652,2.371567 -0.908325,0.390751 -3.065594,0.621804 -3.902336,0.417959 z"
       id="path1627" />
    <path
       style="fill:#ffffff;stroke:none;stroke-width:0.264583"
       d="m 70.612472,48.836159 c -0.172359,-0.187418 -0.637033,-0.777182 -1.032606,-1.310587 -0.928599,-1.252147 -2.31048,-2.645299 -4.412978,-4.448958 -1.923553,-1.650152 -2.113603,-1.87802 -1.940252,-2.326332 0.65113,-1.683881 1.473507,-5.21716 1.763938,-7.578588 0.529086,-4.301903 0.475072,-11.914472 -0.108883,-15.344576 -0.168217,-0.98811 -0.344399,-2.255447 -0.391512,-2.816305 -0.07962,-0.947917 -0.06213,-1.067833 0.248403,-1.702548 0.358494,-0.732728 2.027921,-2.604257 2.439581,-2.734915 0.565249,-0.179402 1.161878,0.83053 1.373131,2.324336 0.243828,1.72416 -0.04449,4.63903 -1.075884,10.876456 -0.728652,4.406649 -0.72162,5.205177 0.04585,5.205177 0.514348,0 1.102307,-0.693023 3.784566,-4.460816 2.824427,-3.967505 4.294727,-5.821245 5.62245,-7.088707 0.935165,-0.892728 2.2199,-1.709022 2.689757,-1.709022 0.458052,0 0.587039,0.790125 0.651186,3.988979 l 0.06136,3.059647 3.359687,0.03814 c 3.23209,0.0367 3.382031,0.04915 3.948262,0.328 1.8424,0.90732 2.759379,2.959389 2.452015,5.487288 -0.202481,1.66528 -0.668747,3.095306 -1.671719,5.12708 -1.061806,2.150974 -2.235525,3.786361 -4.184205,5.830013 -3.459962,3.628585 -8.231152,7.318258 -11.844848,9.159894 -1.035462,0.527701 -1.364214,0.54552 -1.777312,0.09633 z m -3.50082,-14.515414 c 0.755869,-0.460926 1.674861,-1.838964 1.850409,-2.774715 0.07022,-0.374288 0.04548,-0.473084 -0.135867,-0.542672 -0.273704,-0.105041 -0.934496,0.599481 -1.806526,1.926055 -0.556527,0.84661 -0.722118,1.339594 -0.518389,1.543321 0.121781,0.121782 0.188756,0.1051 0.610373,-0.151989 z m 2.868328,-4.01751 c 0.524522,-0.291388 2.534274,-2.129977 3.203566,-2.930729 0.736419,-0.881068 0.870354,-1.367066 0.376755,-1.367066 -0.454244,0 -1.618803,0.989633 -3.325932,2.826347 -0.643631,0.692492 -0.841821,0.991504 -0.841821,1.270098 0,0.395952 0.146647,0.446218 0.587432,0.20135 z m 6.22771,-5.219169 c 1.107674,-0.672221 1.539154,-1.55686 0.759354,-1.55686 -0.71042,0 -2.370207,1.169998 -2.370207,1.670777 0,0.560753 0.564988,0.520793 1.610853,-0.113915 z"
       id="path1629" />
    <path
       style="fill:#ffffff;stroke:none;stroke-width:0.264583"
       d="m 70.614598,48.836159 c -0.171189,-0.187418 -0.676869,-0.814719 -1.123731,-1.394008 -1.023573,-1.326893 -2.195692,-2.506255 -4.275755,-4.302157 -0.900487,-0.777472 -1.743784,-1.559824 -1.873985,-1.738566 -0.23546,-0.32323 -0.2348,-0.330702 0.122137,-1.386102 0.499656,-1.477428 1.044077,-3.752503 1.336214,-5.583897 0.708595,-4.442172 0.752284,-12.623705 0.08836,-16.547114 -0.172534,-1.019568 -0.351859,-2.312644 -0.398499,-2.873502 -0.07877,-0.947131 -0.06102,-1.068359 0.249259,-1.702548 0.358494,-0.732728 2.027922,-2.604257 2.43958,-2.734915 0.542763,-0.172264 1.140586,0.792521 1.359659,2.194263 0.262903,1.682189 -0.0253,4.754069 -0.997762,10.635682 -0.781127,4.724263 -0.792324,5.576024 -0.07331,5.576024 0.602199,0 1.025828,-0.502956 4.279074,-5.080377 2.372173,-3.337719 3.900076,-5.244972 5.182449,-6.469146 0.935164,-0.892728 2.2199,-1.709022 2.689756,-1.709022 0.458053,0 0.58704,0.790125 0.651186,3.988979 l 0.06136,3.059647 3.359681,0.03814 c 3.232099,0.0367 3.382032,0.04915 3.948263,0.328 0.801896,0.394905 1.594139,1.194888 1.988347,2.007788 0.973355,2.007114 0.599906,4.895994 -1.083122,8.378714 -0.854795,1.768851 -1.435847,2.692753 -2.598082,4.131086 -3.161325,3.912315 -9.186706,8.86064 -13.408696,11.01185 -1.1846,0.603587 -1.501625,0.631815 -1.922385,0.171173 z M 67.031947,34.372724 c 0.719728,-0.37219 1.757185,-1.888511 1.930052,-2.820932 0.07042,-0.379798 0.04591,-0.478701 -0.135805,-0.548434 -0.26908,-0.103256 -0.885881,0.554231 -1.794848,1.913248 -0.565247,0.845122 -0.736965,1.34923 -0.530067,1.556128 0.11172,0.11172 0.126659,0.108905 0.530668,-0.100012 z m 3.042117,-4.13649 c 0.562196,-0.346473 2.341364,-1.994296 3.103598,-2.874471 0.723663,-0.835637 0.883377,-1.356323 0.416035,-1.356323 -0.374068,0 -0.880815,0.386293 -2.265319,1.726852 -1.406882,1.36223 -1.93583,2.029692 -1.93583,2.442779 0,0.350481 0.18511,0.367092 0.681516,0.06116 z m 5.96833,-5.050001 c 0.725268,-0.413405 1.280502,-1.002582 1.280502,-1.358778 0,-0.445401 -0.538183,-0.393996 -1.432277,0.1368 -0.833142,0.494616 -1.293782,0.955435 -1.293782,1.294299 0,0.449184 0.581694,0.42008 1.445557,-0.07231 z"
       id="path1631" />
    <path
       style="fill:#ffffff;stroke:none;stroke-width:0.264583"
       d="m 43.612365,103.49235 c -1.044255,-0.73142 -1.100035,-4.557394 -0.161684,-11.090129 0.578755,-4.029248 0.715247,-5.421788 0.663717,-6.771506 -0.05192,-1.360203 -1.039602,-0.45881 -3.781636,3.451284 -2.723585,3.883788 -3.980092,5.47026 -5.762649,7.275947 -1.899443,1.92409 -2.599746,2.29763 -3.233047,1.7245 -0.482653,-0.43679 -0.570068,-1.37124 -0.351016,-3.752297 0.108252,-1.176658 0.169796,-2.166401 0.136768,-2.19943 -0.03303,-0.03303 -0.804586,-0.146752 -1.714573,-0.25272 -0.909985,-0.105963 -2.294391,-0.269025 -3.076455,-0.362348 -2.611663,-0.311657 -3.778416,-0.956679 -4.659825,-2.576119 -1.065604,-1.957863 -0.948899,-4.105496 0.392128,-7.216032 2.074846,-4.812652 5.168999,-8.338432 11.786905,-13.431157 1.046819,-0.805564 2.240109,-1.756165 2.651759,-2.112444 0.478243,-0.413917 1.073483,-0.725755 1.648759,-0.863761 0.495169,-0.118789 0.942003,-0.324646 0.992969,-0.457458 0.169996,-0.443001 0.846957,-0.253269 1.476543,0.41383 0.340151,0.360421 1.092385,1.245084 1.671633,1.965922 1.292777,1.608784 2.202803,2.456349 4.224948,3.934967 1.608903,1.176448 2.012951,1.74422 1.823582,2.562501 -0.05156,0.222804 -0.480367,1.656695 -0.952897,3.186422 -1.327812,4.298536 -1.429904,5.102209 -1.444758,11.37331 -0.01133,4.793888 0.03223,5.704004 0.378788,7.909774 0.493149,3.13879 0.500253,4.210974 0.03396,5.125024 -0.375315,0.73567 -1.904202,2.43045 -2.192553,2.43045 -0.0924,0 -0.340506,-0.12084 -0.551355,-0.26853 z"
       id="path1633" />
    <path
       style="fill:#a0a0a0;stroke:none;stroke-width:1"
       d=""
       id="path1635"
       transform="scale(0.26458333)" />
    <path
       style="fill:#ffffff;stroke:none;stroke-width:0.264583"
       d="m 15.215519,82.078061 c -1.031643,-0.600878 0.728114,-2.680386 6.85888,-8.105152 1.874179,-1.658354 3.754201,-3.325457 4.177831,-3.704671 0.808059,-0.723344 0.877349,-1.111963 0.329533,-1.848217 -0.213736,-0.287257 -0.397032,-0.27917 -3.371498,0.148724 -4.243099,0.610394 -12.224521,0.809253 -13.465069,0.335483 -0.515538,-0.196885 -0.776938,-0.40091 -0.776938,-0.606409 0,-0.427068 1.754478,-2.048856 2.662207,-2.460867 0.993322,-0.450865 1.434631,-0.431412 3.834135,0.169005 3.159087,0.790481 4.994088,0.937668 10.346592,0.829895 3.668209,-0.07387 5.172032,-0.174689 6.657824,-0.446394 1.055621,-0.193041 1.945617,-0.32468 1.977765,-0.292531 0.03214,0.03214 -1.028138,0.888008 -2.356183,1.901913 -5.297623,4.044485 -8.600652,7.524087 -10.670005,11.240389 -1.062419,1.907975 -1.66954,2.479216 -2.956837,2.782088 -1.197072,0.281646 -2.813619,0.309885 -3.248237,0.05674 z"
       id="path1637" />
    <path
       style="fill:#ffffff;stroke:none;stroke-width:0.264583"
       d="m 15.200957,81.975557 c -0.697936,-0.697934 1.320499,-2.941435 7.921934,-8.805266 1.874178,-1.664771 3.503392,-3.14968 3.620475,-3.299804 0.320132,-0.41047 0.266173,-1.141726 -0.109326,-1.481543 -0.31596,-0.28594 -0.489849,-0.282395 -3.339573,0.06809 -5.505874,0.677157 -13.160774,0.784048 -13.872091,0.193708 -0.447225,-0.371165 -0.337646,-0.624983 0.665721,-1.542004 1.732187,-1.583119 2.420147,-1.713355 5.374048,-1.017338 3.180715,0.749459 4.541562,0.848593 10.280218,0.748881 3.774548,-0.06559 5.76187,-0.173315 6.804974,-0.368897 0.810364,-0.151942 1.493651,-0.255994 1.518414,-0.231231 0.02476,0.02477 -1.1494,0.984326 -2.609256,2.132359 -2.968507,2.334437 -7.156066,6.399381 -8.372763,8.127599 -0.439818,0.624725 -1.207395,1.804278 -1.705725,2.621229 -1.18166,1.937183 -1.641728,2.400759 -2.69218,2.712709 -0.876232,0.260213 -3.269009,0.357381 -3.484874,0.141514 z"
       id="path1639" />
    <path
       style="fill:#a0a0a0;stroke:none;stroke-width:1"
       d=""
       id="path1641"
       transform="scale(0.26458333)" />
    <path
       style="fill:#ffffff;stroke:none;stroke-width:0.264583"
       d="M 94.034201,82.081582 C 92.492513,81.849904 91.7566,81.382523 90.820044,80.04026 88.637967,76.912933 87.316637,75.325256 84.815499,72.825333 81.816805,69.8281 79.195147,67.644906 74.848458,64.525245 c -1.585844,-1.138173 -2.91796,-2.096083 -2.960256,-2.128684 -0.04231,-0.0326 0.05678,-0.902781 0.220177,-1.933729 0.365859,-2.308403 0.377771,-4.811431 0.0315,-6.620979 -0.14415,-0.75332 -0.262105,-1.460103 -0.262123,-1.57063 -6.7e-5,-0.467606 4.618157,-2.102016 7.863657,-2.782983 5.181229,-1.087121 10.798356,-0.906301 14.940998,0.48096 4.91656,1.646425 7.876439,4.525002 7.543479,7.336276 -0.17122,1.445717 -1.05605,2.836043 -3.220029,5.059643 l -1.97484,2.029254 2.24225,1.493578 c 2.416039,1.609349 3.426079,2.676542 3.069669,3.243401 -0.59854,0.951977 -2.684419,1.352177 -5.632749,1.080705 -2.26183,-0.208259 -2.860176,-0.299099 -7.663093,-1.163391 -1.901399,-0.34216 -3.762536,-0.582316 -4.281337,-0.552449 -0.797642,0.04591 -0.925024,0.103943 -0.973257,0.443409 -0.07289,0.512925 0.419032,0.955453 3.113597,2.800972 3.512137,2.405474 6.634163,4.796081 7.97586,6.107303 1.22368,1.195879 2.32942,2.81233 2.33267,3.410072 0.004,0.703601 -1.45871,1.08234 -3.18043,0.823609 z"
       id="path1643" />
    <path
       style="fill:#ffffff;stroke:none;stroke-width:0.264583"
       d="m 70.916048,48.930847 c -0.09643,-0.07061 -0.741004,-0.80682 -1.432399,-1.636018 -1.084871,-1.301102 -2.85633,-3.036593 -5.55376,-5.440987 l -0.695779,-0.620195 0.213091,-0.759055 c 1.153331,-4.108321 1.52782,-6.104074 1.809154,-9.641486 0.2839,-3.569663 0.0996,-10.592817 -0.353881,-13.485382 -0.475345,-3.032043 -0.464621,-3.359335 0.140602,-4.290815 0.651747,-1.003086 2.091046,-2.474595 2.339441,-2.391797 0.429562,0.143187 0.856915,1.003658 1.045628,2.105361 0.252707,1.4753 0.01267,4.282631 -0.82623,9.66359 -0.842077,5.401249 -0.898499,6.053372 -0.553569,6.398297 0.653419,0.653421 1.187775,0.131468 4.294352,-4.1947 4.001801,-5.572848 5.951152,-7.754294 7.657789,-8.569559 0.917025,-0.438067 0.983452,-0.240981 1.163613,3.452401 l 0.160563,3.29159 3.334407,0.07306 c 3.790001,0.08304 4.217841,0.198895 5.268869,1.426786 1.678823,1.961327 1.451542,5.21685 -0.662093,9.483653 -1.087518,2.19537 -2.165426,3.657073 -4.414213,5.985907 -3.215391,3.329846 -8.533237,7.441407 -11.36228,8.784894 -1.109929,0.527093 -1.293231,0.569557 -1.573305,0.364455 z"
       id="path1645"
       sodipodi:nodetypes="ssscssssssssssscssssss" />
  </g>
  <g
     inkscape:label="Слой 1"
     inkscape:groupmode="layer"
     id="layer1" />
</svg>
