<?xml version="1.0" encoding="UTF-8" standalone="no"?>
<svg
   xmlns:dc="http://purl.org/dc/elements/1.1/"
   xmlns:cc="http://creativecommons.org/ns#"
   xmlns:rdf="http://www.w3.org/1999/02/22-rdf-syntax-ns#"
   xmlns:svg="http://www.w3.org/2000/svg"
   xmlns="http://www.w3.org/2000/svg"
   xmlns:sodipodi="http://sodipodi.sourceforge.net/DTD/sodipodi-0.dtd"
   xmlns:inkscape="http://www.inkscape.org/namespaces/inkscape"
   width="111mm"
   height="111mm"
   viewBox="0 0 111 111"
   version="1.1"
   id="svg8"
   inkscape:version="1.0.2 (e86c870879, 2021-01-15, custom)"
   sodipodi:docname="цветочек.svg">
  <defs
     id="defs2">
    <inkscape:path-effect
       effect="powerstroke"
       id="path-effect4362"
       is_visible="true"
       lpeversion="1"
       offset_points="13,0.1322915"
       sort_points="true"
       interpolator_type="CentripetalCatmullRom"
       interpolator_beta="0.2"
       start_linecap_type="zerowidth"
       linejoin_type="round"
       miter_limit="4"
       scale_width="1"
       end_linecap_type="zerowidth" />
    <inkscape:path-effect
       effect="powerstroke"
       id="path-effect4360"
       is_visible="true"
       lpeversion="1"
       offset_points="36.5,0.13229166"
       sort_points="true"
       interpolator_type="CentripetalCatmullRom"
       interpolator_beta="0.2"
       start_linecap_type="zerowidth"
       linejoin_type="round"
       miter_limit="4"
       scale_width="1"
       end_linecap_type="zerowidth" />
    <inkscape:path-effect
       effect="fill_between_strokes"
       id="path-effect4358"
       is_visible="true"
       lpeversion="1"
       linkedpath=""
       secondpath=""
       reversesecond="false"
       join="true"
       close="true" />
    <inkscape:path-effect
       effect="copy_rotate"
       starting_point="0,0"
       origin="30.676657,57.457488"
       id="path-effect4354"
       is_visible="true"
       lpeversion="1"
       method="normal"
       num_copies="6"
       starting_angle="0"
       rotation_angle="60"
       gap="-0.01"
       copies_to_360="true"
       mirror_copies="false"
       split_items="false" />
  </defs>
  <sodipodi:namedview
     id="base"
     pagecolor="#ffffff"
     bordercolor="#666666"
     borderopacity="1.0"
     inkscape:pageopacity="0.0"
     inkscape:pageshadow="2"
     inkscape:zoom="1.0360432"
     inkscape:cx="115.73563"
     inkscape:cy="180.78515"
     inkscape:document-units="mm"
     inkscape:current-layer="layer2"
     inkscape:document-rotation="0"
     showgrid="false"
     inkscape:window-width="1265"
     inkscape:window-height="856"
     inkscape:window-x="550"
     inkscape:window-y="120"
     inkscape:window-maximized="0"
     showguides="true"
     inkscape:lockguides="true"
     inkscape:snap-midpoints="true"
     inkscape:snap-smooth-nodes="true"
     inkscape:snap-intersection-paths="true"
     inkscape:object-paths="true"
     inkscape:snap-object-midpoints="true"
     inkscape:snap-center="true" />
  <metadata
     id="metadata5">
    <rdf:RDF>
      <cc:Work
         rdf:about="">
        <dc:format>image/svg+xml</dc:format>
        <dc:type
           rdf:resource="http://purl.org/dc/dcmitype/StillImage" />
        <dc:title />
      </cc:Work>
    </rdf:RDF>
  </metadata>
  <g
     inkscape:groupmode="layer"
     id="layer5"
     inkscape:label="Слой 4"
     style="display:inline" />
  <g
     inkscape:groupmode="layer"
     id="layer3"
     inkscape:label="Слой 3" />
  <g
     inkscape:groupmode="layer"
     id="layer2"
     inkscape:label="Слой 2"
     style="display:inline">
    <path
       id="path1600"
       style="fill:#800000;fill-rule:nonzero;stroke:none;stroke-width:0.264583"
       d="M 7.9250787,70.566863 C 7.6829075,70.370765 7.4916241,70.169902 7.3486058,69.965492 7.2093893,69.766515 7.1160801,69.564455 7.0655691,69.359851 7.0163016,69.16028 7.0072202,68.956173 7.0377109,68.747361 7.0675544,68.542981 7.1354884,68.333 7.2419925,68.118059 7.346253,67.907646 7.4870747,67.693313 7.6638687,67.476234 7.8370251,67.263621 8.0439054,67.049341 8.2829209,66.834699 8.7477092,66.417309 9.3304152,66.00183 10.0114,65.599562 c 0.49642,-0.293242 1.026073,-0.606114 1.586634,-0.937245 a 0.13229291,0.13229347 53.025395 0 0 0.02887,-0.204765 C 11.107503,63.907885 10.562331,63.330946 9.9931331,62.72858 9.044867,61.72506 8.3223775,60.770861 7.8359228,59.8433 7.3589408,58.933802 7.1090108,58.050453 7.0929956,57.166708 7.0772674,56.298801 7.2868767,55.423206 7.7385123,54.511035 8.1830667,53.613167 8.8615818,52.680792 9.7903245,51.684449 10.252005,51.189163 10.728282,50.678216 11.218177,50.152661 a 0.13229247,0.13229205 43.155999 0 0 -0.006,-0.186446 C 10.540701,49.332936 9.8515483,48.682983 9.1459221,48.017494 8.7603978,47.653897 8.4303311,47.307494 8.1561297,46.978499 7.8833568,46.651217 7.6667898,46.342265 7.5059483,46.051795 7.3459386,45.762828 7.2421525,45.494086 7.1921293,45.245279 c -0.04964,-0.246904 -0.046351,-0.474036 0.00729,-0.683288 0.053315,-0.207987 0.157648,-0.403323 0.3171464,-0.586287 0.1591444,-0.182558 0.3738945,-0.353511 0.648574,-0.511191 0.2732795,-0.156874 0.6040579,-0.299565 0.9946013,-0.427051 0.388487,-0.126815 0.8346822,-0.238121 1.3399685,-0.333398 0.276761,-0.05219 0.621092,-0.09031 1.019988,-0.114813 0.396582,-0.02436 0.84481,-0.03513 1.330364,-0.03328 0.964324,0.0037 2.072872,0.05714 3.205637,0.151625 1.121949,0.09358 2.266345,0.227324 3.30805,0.391732 0.517383,0.08166 1.009058,0.170825 1.459153,0.266231 0.448314,0.09503 0.854585,0.196082 1.203176,0.301749 0.04345,0.01317 0.08475,0.02283 0.122362,0.0269 0.01897,0.0021 0.03892,0.0029 0.05899,0.0014 0.01982,-0.0015 0.04275,-0.0054 0.06598,-0.01493 0.02387,-0.0098 0.04881,-0.02572 0.06913,-0.05064 0.02054,-0.02519 0.03159,-0.05368 0.03589,-0.08112 0.0041,-0.02635 0.0019,-0.05064 -0.0021,-0.07056 -0.004,-0.02006 -0.01053,-0.03885 -0.01773,-0.05575 -0.01421,-0.03333 -0.03466,-0.06731 -0.05794,-0.100745 -0.02364,-0.03394 -0.05247,-0.07051 -0.08564,-0.10931 -0.0661,-0.07731 -0.152855,-0.167408 -0.257897,-0.268558 -0.209009,-0.201265 -0.495953,-0.451571 -0.849044,-0.739544 -0.350651,-0.285982 -0.767933,-0.610239 -1.24027,-0.96119 -2.176648,-1.617277 -3.899361,-3.118929 -5.14656,-4.453502 -0.620116,-0.663559 -1.121235,-1.284295 -1.501535,-1.855683 -0.379306,-0.569897 -0.636197,-1.087382 -0.772308,-1.5465 -0.06779,-0.228654 -0.10525,-0.441607 -0.113474,-0.638498 -0.0082,-0.196392 0.01268,-0.376615 0.06145,-0.540919 0.04863,-0.163833 0.125479,-0.313595 0.231277,-0.449252 0.105747,-0.135592 0.241613,-0.258611 0.409761,-0.367571 0.336353,-0.217959 0.800436,-0.37865 1.402497,-0.468989 0.599442,-0.08995 1.329906,-0.109289 2.195877,-0.04929 0.942224,0.06528 1.896299,0.131385 2.861233,0.198241 a 0.13229677,0.13229204 1.9784423 0 0 0.141441,-0.131991 c -1.17e-4,-1.003801 -2.35e-4,-2.018649 -3.54e-4,-3.043557 -1.25e-4,-1.091653 0.153062,-2.062082 0.450676,-2.90294 0.296075,-0.836501 0.735283,-1.545437 1.31007,-2.119065 0.572176,-0.571018 1.281443,-1.010687 2.123563,-1.30759 0.838831,-0.295744 1.810388,-0.450102 2.909376,-0.450102 1.011097,0 2.030687,0 3.057881,0 a 0.1322917,0.13229165 89.873975 0 0 0.13229,-0.132874 c -0.0048,-1.082776 -0.0096,-2.17345 -0.01439,-3.271113 0.03248,-0.813556 0.07215,-1.433622 0.1369,-1.903174 0.03226,-0.23398 0.07045,-0.428256 0.116279,-0.589898 0.04576,-0.161421 0.09844,-0.287775 0.158595,-0.387569 0.05961,-0.09889 0.126956,-0.172396 0.203806,-0.228631 0.07704,-0.05637 0.167628,-0.0983 0.27719,-0.129306 0.11009,-0.03115 0.237911,-0.05088 0.388504,-0.06347 0.150396,-0.01258 0.319742,-0.01777 0.512905,-0.02116 a 0.13229134,0.13229203 41.771117 0 0 0.01024,-5.77e-4 c 0.268901,-0.02566 0.581131,0.0188 0.931603,0.133039 0.349597,0.113956 0.732584,0.295825 1.141361,0.540113 0.816216,0.487776 1.726074,1.218885 2.664711,2.134371 0.935717,0.912639 1.897413,2.005968 2.819305,3.217431 0.919619,1.20848 1.799072,2.533797 2.572273,3.912287 0.252016,0.449301 0.481702,0.847 0.681114,1.181115 0.198822,0.333125 0.368093,0.60396 0.499556,0.799734 0.06553,0.09759 0.122627,0.177967 0.169941,0.23861 0.02361,0.03027 0.04577,0.05688 0.06608,0.07878 0.0102,0.01099 0.02055,0.02147 0.03093,0.03097 0.01013,0.0093 0.02192,0.01909 0.035,0.02779 0.0067,0.0044 0.01457,0.0092 0.02357,0.01352 0.0089,0.0043 0.02036,0.0089 0.03401,0.01215 0.01366,0.0032 0.03157,0.0055 0.05206,0.0029 0.02126,-0.0026 0.04322,-0.01014 0.06326,-0.02388 0.01973,-0.01353 0.03347,-0.03023 0.04269,-0.04593 0.009,-0.01529 0.01389,-0.02997 0.01672,-0.04159 0.0054,-0.02226 0.0054,-0.04276 0.0046,-0.05688 -8.36e-4,-0.01521 -0.003,-0.03034 -0.0057,-0.04453 -0.0027,-0.01444 -0.0064,-0.02966 -0.01058,-0.04541 -0.0084,-0.03138 -0.02008,-0.0678 -0.03462,-0.108862 -1.099262,-3.104315 -1.691051,-6.141219 -1.875757,-8.801284 -0.09222,-1.328047 -0.08286,-2.560919 0.0151,-3.65988 0.09791,-1.098402 0.28415,-2.060745 0.544621,-2.849405 0.130104,-0.393932 0.278361,-0.743406 0.442656,-1.0443073 0.164291,-0.3008926 0.343837,-0.5517809 0.536063,-0.7498826 0.192011,-0.1978796 0.395769,-0.3421927 0.609113,-0.4321129 0.212707,-0.089652 0.437933,-0.1265433 0.675925,-0.1062188 0.238466,0.020365 0.493262,0.098517 0.763517,0.243502 0.270381,0.1450571 0.555145,0.3564424 0.852419,0.6415665 0.594759,0.5704521 1.233064,1.4297521 1.900582,2.6225411 0.06876,0.12286 0.133932,0.232797 0.198812,0.325868 0.06461,0.09268 0.132189,0.173456 0.207299,0.234934 0.03792,0.03104 0.07838,0.05768 0.121996,0.07847 0.04378,0.02087 0.08988,0.03543 0.138495,0.04289 0.04855,0.0074 0.09797,0.0076 0.148268,9.94e-4 0.0501,-0.0065 0.10063,-0.01968 0.151797,-0.03842 0.101539,-0.0372 0.20917,-0.09786 0.325801,-0.178976 0.116953,-0.08134 0.246583,-0.185826 0.392264,-0.313607 0.290817,-0.255085 0.652951,-0.609557 1.116008,-1.072614 0.809987,-0.809984 1.654934,-1.4190646 2.514168,-1.8288889 0.858135,-0.4092962 1.731069,-0.6201515 2.599416,-0.6338701 0.867533,-0.013702 1.733499,0.169303 2.578616,0.5514597 0.84473,0.3819817 1.669831,0.9635173 2.454385,1.7480703 0.607938,0.60794 1.216735,1.216738 1.825958,1.825961 a 0.1322969,0.13229166 43.623725 0 0 0.191477,-0.0046 c 0.664097,-0.731183 1.328656,-1.462875 1.993207,-2.194558 0.733079,-0.8071331 1.395407,-1.3794504 1.984922,-1.7243271 0.294325,-0.1721857 0.56805,-0.2862216 0.821317,-0.3453968 0.252777,-0.059061 0.484744,-0.063412 0.697648,-0.016887 0.212637,0.046467 0.411271,0.1447607 0.596389,0.2978047 0.185725,0.1535454 0.358896,0.3631383 0.517722,0.632407 0.158842,0.2692986 0.302248,0.5964509 0.429021,0.9828969 0.126748,0.386367 0.236373,0.830473 0.328233,1.332809 0.05047,0.276023 0.08696,0.623748 0.110152,1.02777 0.02317,0.403642 0.03295,0.861192 0.03057,1.355972 -0.0048,0.98995 -0.05818,2.126095 -0.149562,3.273109 -0.09143,1.147615 -0.220753,2.304737 -0.377043,3.336286 -0.07818,0.516014 -0.16303,1.000077 -0.253145,1.435531 -0.09019,0.435832 -0.18539,0.821629 -0.284026,1.141386 -0.01364,0.0442 -0.02366,0.08586 -0.02826,0.123664 -0.0023,0.01908 -0.0035,0.03892 -0.0025,0.05876 9.9e-4,0.01961 0.0042,0.04204 0.01239,0.06485 0.0083,0.02327 0.02291,0.04892 0.04551,0.06997 0.02358,0.02197 0.05143,0.03527 0.0796,0.04135 0.02702,0.0058 0.05217,0.0046 0.07279,0.0012 0.02072,-0.0034 0.04,-0.0095 0.05713,-0.01642 0.03379,-0.01356 0.06795,-0.03358 0.101149,-0.05624 0.03384,-0.0231 0.07023,-0.05139 0.108717,-0.08395 0.07694,-0.06509 0.166549,-0.150866 0.266903,-0.25463 0.201033,-0.207864 0.450763,-0.493731 0.736821,-0.844103 0.286602,-0.351038 0.610656,-0.768039 0.96017,-1.238441 1.611679,-2.169119 3.107198,-3.88028 4.434629,-5.120763 0.664244,-0.620736 1.285208,-1.122496 1.856494,-1.504636 0.572072,-0.382667 1.091255,-0.643313 1.551767,-0.784568 0.230098,-0.07058 0.444341,-0.11098 0.642395,-0.122396 0.197973,-0.01141 0.37948,0.0061 0.544782,0.05127 0.165133,0.04508 0.31573,0.118092 0.45188,0.219421 0.136334,0.101467 0.259822,0.232557 0.369109,0.395256 0.219292,0.326468 0.380647,0.779213 0.471169,1.367664 0.09048,0.588202 0.109258,1.305873 0.048,2.15641 -0.0663,0.920416 -0.132394,1.838086 -0.198249,2.752374 a 0.13229165,0.13229167 2.0506202 0 0 0.131993,0.141796 c 0.881881,-2.86e-4 1.760474,-5.71e-4 2.635115,-8.54e-4 1.134676,-3.96e-4 2.16328,0.181919 3.067698,0.523676 0.90631,0.342472 1.688779,0.845384 2.329603,1.48692 0.642466,0.643185 1.144164,1.427278 1.485621,2.3326 0.342425,0.907898 0.523995,1.938518 0.523998,3.072088 0,0.88653 0,1.768201 0,2.644334 a 0.13229172,0.13229166 88.600394 0 0 0.138753,0.132134 c -7.33e-4,3.6e-5 0.547043,-0.02668 1.211298,-0.04111 0.334103,-0.0073 0.697052,-0.01142 1.036785,-0.0077 0.170254,0.0018 0.334234,0.0056 0.485568,0.01199 0.151753,0.0064 0.289897,0.01522 0.40843,0.02707 0.588827,0.05495 1.104971,0.09861 1.561463,0.15532 0.457574,0.05685 0.84532,0.125742 1.170692,0.228371 0.162674,0.05131 0.308389,0.110646 0.438385,0.18027 0.130108,0.06968 0.244482,0.149677 0.344399,0.242325 0.100034,0.09276 0.186631,0.199168 0.260247,0.322438 0.07385,0.123661 0.135253,0.26533 0.183778,0.428683 0.02112,0.08747 0.02541,0.198655 0.0085,0.327983 -0.01688,0.129419 -0.05461,0.274427 -0.113491,0.434107 -0.118138,0.320377 -0.318192,0.691281 -0.591205,1.101001 -0.273212,0.410019 -0.617314,0.855687 -1.020471,1.324532 -0.403963,0.469783 -0.866502,0.96201 -1.37534,1.464201 -1.0214,1.008057 -2.227386,2.054358 -3.519879,3.040476 -1.298917,0.991018 -2.683021,1.919639 -4.056228,2.689877 -0.450865,0.252893 -0.848259,0.482453 -1.181116,0.681115 -0.334331,0.199542 -0.604681,0.368579 -0.799733,0.499557 -0.09777,0.06565 -0.178072,0.12271 -0.238609,0.169941 -0.0303,0.02364 -0.0569,0.04579 -0.07879,0.06609 -0.011,0.0102 -0.02148,0.02055 -0.03097,0.03093 -0.0093,0.01013 -0.01909,0.02192 -0.02779,0.035 -0.0044,0.0067 -0.0092,0.01457 -0.01352,0.02357 -0.0043,0.0089 -0.0089,0.02036 -0.01215,0.03401 -0.0032,0.01367 -0.0055,0.03157 -0.0029,0.05205 0.0026,0.02127 0.01014,0.04322 0.02388,0.06326 0.01353,0.01973 0.03023,0.03348 0.04593,0.04269 0.01529,0.009 0.02997,0.01389 0.04159,0.01672 0.02227,0.0054 0.04277,0.0054 0.05688,0.0046 0.01521,-8.38e-4 0.03035,-0.003 0.04453,-0.0057 0.01444,-0.0028 0.02967,-0.0064 0.04541,-0.01058 0.03141,-0.0084 0.06784,-0.02009 0.108866,-0.03462 2.967464,-1.050803 5.87464,-1.651123 8.438378,-1.882434 1.287759,-0.116187 2.489038,-0.139319 3.569308,-0.07989 1.083799,0.05963 2.04423,0.202258 2.84821,0.416617 0.40279,0.107395 0.76546,0.232563 1.08431,0.373846 0.31945,0.141543 0.5937,0.298723 0.82001,0.469488 0.22665,0.171018 0.40391,0.354671 0.5309,0.548733 0.12687,0.193879 0.20427,0.399133 0.23065,0.615459 0.0264,0.216822 0.002,0.449139 -0.0801,0.697239 -0.0825,0.248947 -0.2235,0.513946 -0.43022,0.793779 -0.20701,0.280237 -0.47887,0.573895 -0.8211,0.879536 -0.34269,0.306045 -0.75495,0.623235 -1.24149,0.950237 -0.27864,0.187273 -0.55544,0.373312 -0.83037,0.558093 -0.27494,0.184781 -0.551737,0.370819 -0.830333,0.558064 a 0.13229536,0.1322918 51.361248 0 0 -0.02237,0.200649 c 0.53337,0.564576 1.07349,1.136288 1.61979,1.71454 0.95136,1.007024 1.66721,1.957743 2.14797,2.877284 0.47779,0.913884 0.72296,1.796031 0.73779,2.67354 0.0147,0.872827 -0.19823,1.748407 -0.64704,2.654604 -0.44705,0.902661 -1.12781,1.8351 -2.04988,2.824294 -0.47153,0.505858 -0.94763,1.01661 -1.42785,1.531786 a 0.13229167,0.13229165 43.15596 0 0 0.006,0.186446 c 0.68319,0.644324 1.37214,1.294088 2.06626,1.948725 0.56803,0.535716 1.00731,1.002722 1.3246,1.423009 0.15804,0.209351 0.28498,0.406031 0.38234,0.592829 0.0971,0.18632 0.16447,0.362217 0.20408,0.530397 0.0395,0.167623 0.0516,0.328451 0.0379,0.485793 -0.0137,0.157111 -0.0535,0.312983 -0.11998,0.470741 -0.0665,0.157758 -0.15991,0.317891 -0.28139,0.483169 -0.12131,0.165063 -0.27002,0.334472 -0.44658,0.511042 -0.0221,0.02211 -0.0538,0.04651 -0.097,0.07237 -0.043,0.02572 -0.0955,0.0517 -0.15784,0.0776 -0.12482,0.05188 -0.2838,0.101307 -0.47455,0.147615 -0.38098,0.09249 -0.87769,0.169929 -1.45882,0.231629 -0.57959,0.06154 -1.240226,0.107123 -1.948688,0.136682 -0.707278,0.02951 -1.461513,0.04301 -2.229028,0.04053 -1.531785,-0.005 -3.115168,-0.07362 -4.478109,-0.205445 -0.680039,-0.06577 -1.303975,-0.147156 -1.838119,-0.243889 -0.266743,-0.04831 -0.510458,-0.100328 -0.727141,-0.155955 -0.216749,-0.05564 -0.405057,-0.114544 -0.5616,-0.176337 -0.0423,-0.0167 -0.08135,-0.02987 -0.116137,-0.03814 -0.01749,-0.0042 -0.03555,-0.0075 -0.05355,-0.0091 -0.01752,-0.0016 -0.03862,-0.002 -0.06088,0.002 -0.01141,0.002 -0.02418,0.0054 -0.03743,0.01091 -0.01335,0.0056 -0.02746,0.01354 -0.04088,0.02475 -0.01359,0.01134 -0.0254,0.02512 -0.03464,0.04107 -0.0092,0.01585 -0.01488,0.03215 -0.01801,0.04775 -0.0061,0.03025 -0.0025,0.05722 0.0022,0.0765 0.0048,0.01975 0.01214,0.03767 0.01959,0.05285 0.01477,0.03007 0.03554,0.06081 0.05854,0.09082 0.02353,0.0307 0.05218,0.06424 0.08511,0.100184 0.06579,0.07179 0.152198,0.156969 0.256808,0.253743 0.20901,0.193355 0.495806,0.437707 0.847666,0.721532 0.351257,0.283338 0.768445,0.606886 1.239342,0.959263 2.180085,1.631373 3.894582,3.114172 5.134047,4.419478 0.618613,0.651474 1.117567,1.257349 1.496667,1.814054 0.379021,0.556592 0.635998,1.060766 0.774225,1.509545 0.06896,0.22389 0.108014,0.432871 0.118393,0.62692 0.01036,0.193794 -0.0079,0.372666 -0.05345,0.537121 -0.04551,0.164195 -0.118773,0.315753 -0.220357,0.454881 -0.101651,0.139221 -0.232676,0.267361 -0.394907,0.383433 -0.325013,0.232541 -0.7738,0.415533 -1.354756,0.540002 -0.579827,0.124224 -1.285807,0.188994 -2.120997,0.188996 -1.001618,0 -2.0069,0 -3.015144,0 a 0.13229166,0.13229166 0 0 0 -0.132292,0.132292 c 0,0.964533 0,1.931882 0,2.901342 -2e-6,1.054605 -0.157531,1.996288 -0.459234,2.814817 -0.301282,0.817379 -0.746679,1.513154 -1.324552,2.077965 -0.577397,0.564342 -1.28947,1.000304 -2.127451,1.295375 -0.837625,0.294945 -1.801765,0.449328 -2.882774,0.44933 -1.018108,0 -2.037646,0 -3.057923,0 a 0.13229159,0.13229166 88.599 0 0 -0.132133,0.138759 c -4.8e-5,-9.79e-4 0.01983,0.404882 0.03156,1.01578 0.01174,0.610933 0.01532,1.425939 -0.0172,2.243609 -0.01631,0.410334 -0.03679,0.836157 -0.08219,1.247622 -0.04544,0.411774 -0.115412,0.804798 -0.229106,1.14967 -0.05676,0.172169 -0.12403,0.331141 -0.20381,0.473784 -0.07975,0.142587 -0.171671,0.268279 -0.27762,0.374558 -0.10579,0.106119 -0.226205,0.193544 -0.363946,0.259366 -0.137782,0.0659 -0.294859,0.11102 -0.474857,0.13063 -0.07826,0.009 -0.176522,0.001 -0.295693,-0.0249 -0.118691,-0.0262 -0.254156,-0.0706 -0.405277,-0.133463 -0.302512,-0.125813 -0.660185,-0.322356 -1.06026,-0.582989 -0.399675,-0.260373 -0.839263,-0.583127 -1.305332,-0.959778 -0.466127,-0.376698 -0.958117,-0.806796 -1.462488,-1.281516 -1.009269,-0.949934 -2.066862,-2.077354 -3.065058,-3.311288 -0.998889,-1.234791 -1.937159,-2.574831 -2.708127,-3.949338 -0.252376,-0.449946 -0.482007,-0.847516 -0.681109,-1.181111 -0.199117,-0.333622 -0.368295,-0.604262 -0.499561,-0.799744 -0.06558,-0.09766 -0.122659,-0.178006 -0.16994,-0.238608 -0.02362,-0.03028 -0.04578,-0.05689 -0.06609,-0.07879 -0.0102,-0.01099 -0.02055,-0.02147 -0.03093,-0.03097 -0.01013,-0.0093 -0.02192,-0.01909 -0.035,-0.02779 -0.0067,-0.0044 -0.01457,-0.0092 -0.02357,-0.01352 -0.0089,-0.0043 -0.02036,-0.0089 -0.03401,-0.01215 -0.01367,-0.0032 -0.03157,-0.0055 -0.05205,-0.0029 -0.02127,0.0026 -0.04322,0.01014 -0.06327,0.02388 -0.01973,0.01353 -0.03347,0.03023 -0.04269,0.04593 -0.009,0.01529 -0.01389,0.02997 -0.01672,0.04158 -0.0054,0.02227 -0.0054,0.04276 -0.0046,0.05688 8.37e-4,0.01521 0.003,0.03035 0.0057,0.04453 0.0028,0.01444 0.0064,0.02966 0.01058,0.04541 0.0084,0.03139 0.02008,0.06782 0.03461,0.10886 1.100751,3.108521 1.691358,6.14563 1.875757,8.801285 0.09228,1.32899 0.08279,2.561753 -0.0151,3.659881 -0.09798,1.09918 -0.284339,2.06131 -0.544611,2.84937 -0.130156,0.3941 -0.278432,0.74356 -0.442676,1.04436 -0.164348,0.30099 -0.343901,0.55184 -0.536053,0.74986 -0.192086,0.19796 -0.395857,0.34224 -0.609129,0.43212 -0.212777,0.0897 -0.437999,0.12653 -0.675894,0.10622 -0.238561,-0.0204 -0.493367,-0.0986 -0.763532,-0.2435 -0.270465,-0.1451 -0.55524,-0.35654 -0.852419,-0.64157 -0.595221,-0.57089 -1.233523,-1.43057 -1.900583,-2.62254 -0.06882,-0.12297 -0.133963,-0.23288 -0.198762,-0.32592 -0.06461,-0.0928 -0.132094,-0.17354 -0.207008,-0.23505 -0.03786,-0.0311 -0.07824,-0.0578 -0.121752,-0.0786 -0.0437,-0.0209 -0.08971,-0.0356 -0.138232,-0.0432 -0.04849,-0.008 -0.09785,-0.008 -0.148065,-0.001 -0.05005,0.006 -0.100502,0.0195 -0.151558,0.0381 -0.101427,0.037 -0.208837,0.0974 -0.325063,0.17818 -0.116717,0.0811 -0.246001,0.18524 -0.391128,0.31249 -0.29023,0.25448 -0.651701,0.60835 -1.112544,1.0692 -0.812088,0.81208 -1.658047,1.42178 -2.516557,1.8321 -0.859943,0.411 -1.733225,0.62239 -2.600316,0.6372 -0.868816,0.0148 -1.734457,-0.16762 -2.577779,-0.54809 -0.845459,-0.38144 -1.669591,-0.96241 -2.451906,-1.74472 -0.613824,-0.61383 -1.224848,-1.22485 -1.832617,-1.83262 a 0.13229166,0.13229166 43.623744 0 0 -0.191473,0.005 c -0.668199,0.73569 -1.33278,1.4674 -1.99321,2.19455 -0.501971,0.55268 -0.93429,0.9857 -1.322086,1.31176 -0.389268,0.3273 -0.729049,0.54284 -1.043846,0.66386 -0.157343,0.0605 -0.308351,0.0973 -0.456236,0.11272 -0.148054,0.0154 -0.294592,0.009 -0.442929,-0.0169 -0.148865,-0.0265 -0.300432,-0.0737 -0.458067,-0.14175 -0.158035,-0.0682 -0.321705,-0.15703 -0.494091,-0.26625 -0.085,-0.0539 -0.169999,-0.13552 -0.253586,-0.24729 -0.08357,-0.11174 -0.163805,-0.25101 -0.239889,-0.41671 -0.152588,-0.33233 -0.28467,-0.76256 -0.394331,-1.27104 -0.109756,-0.50892 -0.196299,-1.09261 -0.258997,-1.7291 -0.06282,-0.63779 -0.101615,-1.32762 -0.115991,-2.047256 -0.02886,-1.444613 0.04068,-3.006503 0.210733,-4.50971 0.170948,-1.511137 0.442937,-2.958735 0.817116,-4.171727 0.01364,-0.04421 0.02366,-0.08586 0.02825,-0.123643 0.0023,-0.01909 0.0035,-0.03893 0.0025,-0.05877 -9.9e-4,-0.01962 -0.0042,-0.04205 -0.01239,-0.06485 -0.0083,-0.02327 -0.02292,-0.04893 -0.04551,-0.06997 -0.02359,-0.02197 -0.05143,-0.03527 -0.0796,-0.04135 -0.02703,-0.0058 -0.05217,-0.0046 -0.07279,-0.0012 -0.02072,0.0034 -0.04001,0.0095 -0.05712,0.01642 -0.0338,0.01357 -0.06797,0.0336 -0.101147,0.05624 -0.03386,0.02311 -0.07025,0.05141 -0.108715,0.08395 -0.07702,0.06516 -0.166662,0.150984 -0.266906,0.254635 -0.201473,0.20832 -0.451385,0.494494 -0.736822,0.844105 -0.287271,0.351857 -0.611417,0.769062 -0.960179,1.238453 -1.623764,2.185389 -3.097462,3.894946 -4.393124,5.12884 -0.650601,0.619583 -1.255078,1.118058 -1.810117,1.496549 -0.557143,0.379923 -1.061302,0.636776 -1.509787,0.775146 -0.224426,0.0692 -0.433821,0.10848 -0.628199,0.11908 -0.194521,0.0106 -0.373969,-0.007 -0.538902,-0.0528 -0.165037,-0.0454 -0.317242,-0.11848 -0.456889,-0.21977 -0.14002,-0.10156 -0.268765,-0.232431 -0.385328,-0.39427 -0.234253,-0.325243 -0.418179,-0.774081 -0.543277,-1.353585 -0.125364,-0.580751 -0.190448,-1.287075 -0.19045,-2.120702 0,-1.018592 0,-2.024005 0,-3.015146 a 0.13229174,0.13229167 0 0 0 -0.132292,-0.132292 c -0.982067,0 -1.949574,0 -2.901334,0 -1.059738,0 -2.000323,-0.159015 -2.81484,-0.459242 -0.82136,-0.302749 -1.515941,-0.749544 -2.077945,-1.324545 -0.567214,-0.580335 -1.001786,-1.293676 -1.295376,-2.127454 -0.296504,-0.842053 -0.44933,-1.807296 -0.44933,-2.882807 0,-1.040507 0,-2.060321 0,-3.057887 a 0.13229169,0.13229166 88.825083 0 0 -0.137716,-0.13218 c 5.75e-4,-2.4e-5 -0.582939,0.02374 -1.269908,0.03717 -0.3505,0.0069 -0.727011,0.01107 -1.075599,0.0087 -0.17583,-0.0012 -0.343848,-0.0041 -0.497531,-0.0091 -0.154838,-0.0051 -0.294118,-0.01226 -0.411733,-0.022 -0.488416,-0.04045 -0.945864,-0.09409 -1.36096,-0.16316 -0.427847,-0.07119 -0.806296,-0.158039 -1.126063,-0.262011 -0.08663,-0.02817 -0.180434,-0.05712 -0.285418,-0.0929 -0.104333,-0.03556 -0.213904,-0.07598 -0.322859,-0.123702 -0.109904,-0.04814 -0.217649,-0.103039 -0.317454,-0.166704 -0.100691,-0.06423 -0.191875,-0.136475 -0.268687,-0.218318 -0.07731,-0.08238 -0.139797,-0.174175 -0.183206,-0.277396 -0.04372,-0.103962 -0.06911,-0.221901 -0.06924,-0.35717 -1.29e-4,-0.136963 0.02566,-0.293232 0.08629,-0.471698 0.06127,-0.180368 0.157709,-0.382194 0.297244,-0.607719 0.03305,-0.05342 0.07617,-0.114701 0.12935,-0.1836 0.05322,-0.06894 0.115809,-0.144609 0.187283,-0.226564 0.143561,-0.164611 0.32151,-0.352949 0.528586,-0.560996 0.417098,-0.419052 0.950337,-0.916006 1.553909,-1.456687 1.225071,-1.097421 2.745723,-2.380313 4.201665,-3.582047 3.023574,-2.495657 5.761085,-4.641096 5.760645,-4.640751 l -0.05651,-0.233948 c -0.02171,-0.0042 -0.04528,-0.0067 -0.06933,-0.0083 -0.02441,-0.0016 -0.05132,-0.0022 -0.08026,-0.0021 -0.05792,1.45e-4 -0.127141,0.0032 -0.206031,0.0087 -0.158593,0.01099 -0.361953,0.03209 -0.601779,0.06097 -0.483871,0.05827 -1.126892,0.149567 -1.865834,0.256999 -1.536433,0.223376 -3.421006,0.506196 -5.368654,0.747851 -0.986378,0.122384 -1.969953,0.23171 -2.908037,0.314875 -0.952917,0.08448 -1.852725,0.141411 -2.657576,0.158191 -0.818758,0.01707 -1.5322627,-0.0076 -2.1017081,-0.08497 -0.2881262,-0.03916 -0.5363407,-0.09142 -0.7412288,-0.157285 -0.1029636,-0.0331 -0.194018,-0.06932 -0.2731531,-0.108494 -0.079537,-0.03937 -0.1460227,-0.08122 -0.2001673,-0.125068 z m -0.2055789,0.153182 c 6.4e-6,1.6e-5 1.34e-5,3.3e-5 2.1e-5,5.1e-5 a 0.13229166,0.13229166 8.3093384 0 0 0.039076,0.05244 c 0.072154,0.05843 0.1558885,0.110329 0.249283,0.156561 0.093045,0.04606 0.1966315,0.08696 0.3095592,0.123262 0.2241238,0.07204 0.488509,0.127063 0.7865796,0.167573 0.5887245,0.08001 1.3175139,0.104533 2.1428539,0.08733 0.812672,-0.01694 1.71877,-0.07435 2.675426,-0.159167 0.942019,-0.08351 1.928801,-0.193214 2.91725,-0.315855 1.951148,-0.242089 3.839253,-0.525439 5.374143,-0.74859 0.739304,-0.107485 1.379259,-0.198323 1.859387,-0.256143 0.238216,-0.02869 0.436466,-0.04918 0.588448,-0.05971 0.07566,-0.0052 0.138525,-0.0079 0.188404,-0.008 0.02483,-6.2e-5 0.04565,5.12e-4 0.0627,0.0016 0.01734,0.0011 0.02893,0.0026 0.03591,0.004 l -0.05651,-0.233948 c -4.55e-4,3.57e-4 -2.73895,2.146541 -5.765726,4.64484 -1.456943,1.202561 -2.980758,2.488067 -4.209779,3.589026 -0.60536,0.542282 -1.142554,1.04279 -1.564895,1.467111 -0.209581,0.210562 -0.391843,0.403327 -0.540465,0.573743 -0.07406,0.08492 -0.140159,0.164738 -0.197325,0.238799 -0.05692,0.07374 -0.105706,0.142704 -0.144904,0.206058 -0.147728,0.238768 -0.253779,0.458735 -0.322766,0.661823 -0.06836,0.201255 -0.100507,0.386627 -0.100346,0.557054 1.6e-4,0.169351 0.03218,0.322171 0.08993,0.459484 0.05712,0.135829 0.138203,0.253635 0.234177,0.355897 0.09492,0.10114 0.204241,0.186909 0.319321,0.260317 0.11409,0.07278 0.234563,0.133863 0.353593,0.185996 0.118089,0.05172 0.235168,0.09481 0.343653,0.131782 0.107076,0.0365 0.207237,0.06751 0.288956,0.09408 0.335967,0.10924 0.728027,0.198775 1.164456,0.271392 0.423915,0.07054 0.888804,0.124957 1.382552,0.165845 0.123501,0.01023 0.267493,0.01762 0.42493,0.02276 0.156537,0.0051 0.326917,0.008 0.504356,0.0092 0.351729,0.0024 0.730735,-0.0019 1.082575,-0.0087 0.488829,-0.0096 0.924902,-0.0243 1.137877,-0.03209 0,0.953748 0,1.927685 0,2.920459 0,1.100205 0.156303,2.095848 0.464351,2.970683 0.305257,0.866913 0.759268,1.614262 1.355711,2.224503 0.591091,0.604761 1.319665,1.072358 2.175667,1.387876 0.848156,0.312626 1.820367,0.47557 2.906346,0.47557 0.908995,0 1.832354,0 2.769042,0 0,0.948282 0,1.90955 0,2.882817 2e-6,0.846266 0.06596,1.572293 0.196402,2.176541 0.129913,0.601807 0.324938,1.088262 0.587215,1.452414 0.131117,0.182049 0.279298,0.333859 0.444659,0.453809 0.16528,0.11988 0.346339,0.20691 0.542123,0.26072 0.195335,0.0537 0.40359,0.0738 0.623424,0.0618 0.21936,-0.012 0.450237,-0.0559 0.69181,-0.13044 0.481464,-0.14855 1.009726,-0.41993 1.580821,-0.809363 0.569861,-0.388597 1.185511,-0.896901 1.843515,-1.523534 1.31019,-1.247729 2.793837,-2.969927 4.423027,-5.16262 0.346858,-0.466826 0.668513,-0.880779 0.952791,-1.228971 0.282965,-0.346583 0.52772,-0.626555 0.722059,-0.827498 0.09687,-0.100161 0.179789,-0.179204 0.247602,-0.236575 0.03381,-0.0286 0.06278,-0.0509 0.08699,-0.06742 0.02481,-0.01694 0.04134,-0.02554 0.05054,-0.02923 0.0044,-0.0018 0.0046,-0.0014 0.0015,-8.85e-4 -0.003,4.98e-4 -0.01256,0.0017 -0.02598,-0.0012 -0.01457,-0.0031 -0.03084,-0.01057 -0.04491,-0.02368 -0.01356,-0.01263 -0.02021,-0.02596 -0.02323,-0.03439 -0.003,-0.0084 -0.0028,-0.01187 -0.0028,-0.01106 4e-5,8.11e-4 7.4e-5,0.0057 -8.76e-4,0.01352 -0.002,0.0166 -0.0074,0.04188 -0.01843,0.07757 -0.38043,1.233258 -0.655017,2.697971 -0.82719,4.219943 -0.171377,1.514943 -0.241451,3.088532 -0.212362,4.544736 0.0145,0.725616 0.05363,1.422406 0.117213,2.067936 0.06343,0.64392 0.151299,1.23791 0.263664,1.75893 0.111973,0.51919 0.249052,0.96964 0.412524,1.32568 0.08169,0.17792 0.170937,0.33438 0.268456,0.46478 0.09731,0.13011 0.204812,0.23688 0.323845,0.31229 0.181292,0.11489 0.357354,0.21085 0.5309,0.28572 0.173372,0.0748 0.34471,0.12872 0.516526,0.1593 0.171775,0.0306 0.343141,0.0376 0.516664,0.0196 0.17314,-0.018 0.34683,-0.0609 0.523794,-0.12891 0.352157,-0.13539 0.717392,-0.37049 1.119172,-0.70831 0.400762,-0.33696 0.842102,-0.77974 1.34768,-1.3364 0.629675,-0.69328 1.263125,-1.39071 1.899886,-2.0918 0.575392,0.5754 1.153675,1.15368 1.734448,1.73445 0.801603,0.80161 1.651579,1.40243 2.530185,1.79882 0.877031,0.39568 1.781242,0.58702 2.691126,0.57148 0.907933,-0.0155 1.818403,-0.23696 2.709892,-0.66303 0.889471,-0.42512 1.759416,-1.05361 2.589532,-1.88371 0.461436,-0.46145 0.817133,-0.80943 1.099903,-1.05737 0.14106,-0.12368 0.262127,-0.22083 0.367655,-0.29414 0.10584,-0.0735 0.192449,-0.12053 0.264758,-0.1469 0.03576,-0.013 0.06705,-0.0207 0.09466,-0.0242 0.02742,-0.004 0.05161,-0.003 0.07355,3.4e-4 0.02188,0.003 0.04316,0.01 0.06462,0.0203 0.02162,0.0104 0.04424,0.0249 0.06822,0.0445 0.0487,0.04 0.100198,0.0991 0.157785,0.18177 0.05732,0.0823 0.117464,0.18326 0.184998,0.30393 0.674451,1.20518 1.32765,2.08897 1.948325,2.68428 0.310436,0.29775 0.614365,0.52491 0.910485,0.68377 0.296236,0.15892 0.585712,0.25003 0.866101,0.27397 0.280856,0.024 0.54906,-0.0198 0.801165,-0.12602 0.251465,-0.10599 0.483895,-0.27284 0.696252,-0.49168 0.212149,-0.21864 0.405154,-0.49005 0.578392,-0.80732 0.173246,-0.31729 0.327504,-0.68188 0.46169,-1.08818 0.268153,-0.81193 0.457612,-1.79488 0.556914,-2.90886 0.09927,-1.113662 0.108635,-2.360512 0.01551,-3.701699 -0.186072,-2.679739 -0.781623,-5.74038 -1.890295,-8.871269 -0.01316,-0.03717 -0.02244,-0.0666 -0.02846,-0.08906 -0.003,-0.01117 -0.005,-0.01988 -0.0062,-0.02641 -0.0012,-0.0064 -0.0015,-0.01018 -0.0015,-0.0096 3.4e-5,6.23e-4 0.0011,0.0055 -0.0025,0.02025 -0.0017,0.007 -0.0051,0.01769 -0.01216,0.02974 -0.0073,0.01247 -0.01878,0.02664 -0.03586,0.03835 -0.01739,0.01192 -0.03631,0.01834 -0.05417,0.02053 -0.01708,0.0021 -0.0312,1.28e-4 -0.04072,-0.0021 -0.0095,-0.0022 -0.01648,-0.0052 -0.02047,-0.0071 -0.0041,-0.002 -0.0068,-0.0037 -0.0078,-0.0044 -0.0019,-0.0012 -0.001,-8.94e-4 0.0029,0.0027 0.0037,0.0034 0.0088,0.0084 0.01548,0.01563 0.01342,0.01447 0.03053,0.03478 0.05147,0.06161 0.04181,0.05358 0.09498,0.128175 0.158889,0.223355 0.127548,0.189943 0.294049,0.456137 0.492017,0.787834 0.197655,0.331171 0.426084,0.726638 0.677541,1.174946 0.779573,1.389847 1.726761,2.742204 2.733191,3.986318 1.005842,1.243386 2.071596,2.379562 3.089422,3.337551 0.508731,0.478822 1.005728,0.913354 1.4775,1.294614 0.471582,0.381106 0.918516,0.709437 1.327238,0.975703 0.408156,0.265898 0.780611,0.471482 1.103081,0.605592 0.161322,0.0671 0.312021,0.1171 0.449832,0.14753 0.137305,0.0303 0.265861,0.0421 0.381392,0.0295 0.207528,-0.0226 0.393747,-0.0753 0.560288,-0.15492 0.166544,-0.0796 0.311439,-0.1851 0.437241,-0.311299 0.125607,-0.125998 0.231526,-0.271942 0.32116,-0.432201 0.08958,-0.160172 0.163221,-0.335211 0.224172,-0.520098 0.121702,-0.369164 0.194333,-0.782278 0.240812,-1.203491 0.0465,-0.42145 0.06725,-0.855306 0.08358,-1.26613 0.03279,-0.824714 0.02915,-1.645322 0.01736,-2.259203 -0.0077,-0.401969 -0.01895,-0.715705 -0.0258,-0.884872 0.974154,0 1.947605,0 2.91972,0 1.105906,-3e-6 2.100414,-0.15791 2.970684,-0.464351 0.871313,-0.306807 1.617334,-0.762273 2.224498,-1.355708 0.607773,-0.594036 1.073905,-1.323861 1.387877,-2.175668 0.314157,-0.852316 0.475567,-1.825515 0.47557,-2.906317 0,-0.925171 0,-1.848392 0,-2.769077 0.963891,0 1.925045,0 2.882811,0 0.847757,-3e-6 1.573291,-0.06564 2.176436,-0.194861 0.603179,-0.12923 1.089454,-0.323207 1.453314,-0.583542 0.18247,-0.130553 0.334507,-0.278061 0.454637,-0.44259 0.120294,-0.164755 0.207581,-0.345206 0.26164,-0.540226 0.05404,-0.194964 0.07441,-0.402748 0.06268,-0.62193 -0.01172,-0.219111 -0.0555,-0.449633 -0.129737,-0.690671 -0.148407,-0.481831 -0.419927,-1.010122 -0.808374,-1.580557 -0.389178,-0.571504 -0.897915,-1.188515 -1.523514,-1.847346 -1.253165,-1.319733 -2.980174,-2.81242 -5.16738,-4.44912 -0.468832,-0.350832 -0.883433,-0.672398 -1.231757,-0.95337 -0.349435,-0.281868 -0.631192,-0.522098 -0.83411,-0.709817 -0.101742,-0.09412 -0.182394,-0.173874 -0.241416,-0.238278 -0.02953,-0.03222 -0.05276,-0.05964 -0.07016,-0.08235 -0.01796,-0.02344 -0.02717,-0.0386 -0.03107,-0.04653 -0.0019,-0.0038 -0.001,-0.0029 1.39e-4,0.0018 0.001,0.0043 0.0039,0.01823 1.4e-5,0.03755 -0.002,0.01013 -0.0059,0.02148 -0.01251,0.0329 -0.0067,0.01152 -0.01518,0.02139 -0.02472,0.02935 -0.0094,0.0078 -0.01868,0.01292 -0.02649,0.01618 -0.0077,0.0032 -0.01417,0.0048 -0.01853,0.0055 -0.009,0.0016 -0.01126,8.12e-4 -0.0094,9.81e-4 0.0022,2.03e-4 0.0075,9.21e-4 0.01637,0.003 0.01807,0.0043 0.04436,0.01269 0.08026,0.02686 0.169703,0.06699 0.369114,0.129041 0.592954,0.186506 0.224197,0.05756 0.474321,0.11087 0.745783,0.160031 0.543388,0.09841 1.174929,0.180655 1.859763,0.246891 1.372711,0.132767 2.964466,0.201695 4.502719,0.206676 0.771112,0.0025 1.52933,-0.01107 2.240953,-0.04076 0.712611,-0.02973 1.379068,-0.07566 1.965598,-0.13793 0.58679,-0.0623 1.09632,-0.141245 1.49328,-0.237614 0.19869,-0.04824 0.37189,-0.101477 0.51369,-0.160413 0.0711,-0.02954 0.13556,-0.06104 0.19208,-0.09483 0.0563,-0.03368 0.10679,-0.07085 0.14831,-0.112363 0.18361,-0.183611 0.34166,-0.363157 0.4727,-0.541446 0.13128,-0.178626 0.23599,-0.356727 0.31201,-0.537104 0.0763,-0.18093 0.12341,-0.363615 0.13974,-0.550456 0.0164,-0.187186 0.002,-0.376282 -0.0439,-0.569473 -0.0455,-0.193247 -0.12151,-0.389681 -0.22699,-0.592048 -0.10558,-0.202571 -0.24103,-0.411688 -0.40581,-0.629953 -0.33001,-0.43715 -0.78125,-0.915695 -1.35422,-1.456078 -0.66173,-0.624088 -1.31877,-1.243748 -1.97058,-1.858487 0.44983,-0.482572 0.896,-0.961227 1.33817,-1.435579 0.93341,-1.001357 1.63159,-1.954728 2.09344,-2.887277 0.46464,-0.938164 0.69005,-1.855312 0.67448,-2.776499 -0.0156,-0.925766 -0.27456,-1.848109 -0.76785,-2.791634 -0.4955,-0.947748 -1.22814,-1.918151 -2.1901,-2.936395 -0.50974,-0.53955 -1.01407,-1.073384 -1.512562,-1.601039 0.234872,-0.157858 0.468462,-0.31485 0.700712,-0.470945 0.27493,-0.184781 0.55173,-0.370819 0.83032,-0.558064 0.49465,-0.332451 0.91685,-0.65696 1.27019,-0.972519 0.35271,-0.314996 0.63769,-0.621869 0.85768,-0.919671 0.21961,-0.297294 0.37546,-0.586936 0.46855,-0.867734 0.0931,-0.280818 0.12327,-0.552549 0.0916,-0.812496 -0.0317,-0.259691 -0.12456,-0.503175 -0.27189,-0.728329 -0.14681,-0.224339 -0.34693,-0.429441 -0.59293,-0.615061 -0.24561,-0.185328 -0.53822,-0.352203 -0.87219,-0.500184 -0.33357,-0.147803 -0.7096,-0.277286 -1.12334,-0.387598 -0.82538,-0.220065 -1.804397,-0.364773 -2.901836,-0.425148 -1.09444,-0.06021 -2.308599,-0.03665 -3.607617,0.08056 -2.585858,0.233307 -5.51471,0.83839 -8.50292,1.896539 -0.03714,0.01315 -0.06658,0.02244 -0.08906,0.02846 -0.01117,0.003 -0.01988,0.005 -0.02641,0.0062 -0.0064,0.0012 -0.01018,0.0015 -0.0096,0.0015 6.24e-4,-3.4e-5 0.0055,-0.0011 0.02026,0.0025 0.007,0.0017 0.01768,0.0051 0.02974,0.01216 0.01247,0.0073 0.02664,0.01878 0.03835,0.03586 0.01192,0.01738 0.01834,0.0363 0.02053,0.05417 0.0021,0.01708 1.29e-4,0.0312 -0.0021,0.04073 -0.0022,0.0095 -0.0052,0.01647 -0.0071,0.02047 -0.002,0.0041 -0.0037,0.0068 -0.0044,0.0078 -0.0012,0.0019 -8.95e-4,0.001 0.0027,-0.0029 0.0034,-0.0037 0.0084,-0.0088 0.01563,-0.01548 0.01446,-0.01341 0.03476,-0.03052 0.06161,-0.05147 0.05352,-0.04176 0.128074,-0.09491 0.223356,-0.158891 0.18952,-0.127263 0.455428,-0.293625 0.787832,-0.492017 0.330429,-0.197212 0.72572,-0.425571 1.174952,-0.677547 1.385649,-0.777217 2.780105,-1.712968 4.087253,-2.710265 1.300787,-0.992446 2.515332,-2.046048 3.545274,-3.062536 0.513171,-0.506467 0.980754,-1.003967 1.390099,-1.480009 0.408308,-0.474836 0.759418,-0.929187 1.040038,-1.350324 0.279589,-0.419589 0.491445,-0.809532 0.619263,-1.156162 0.0639,-0.173282 0.107585,-0.337848 0.127615,-0.491447 0.02,-0.153395 0.01675,-0.298448 -0.01555,-0.431145 -0.05574,-0.188221 -0.125487,-0.350569 -0.211975,-0.495393 -0.08639,-0.144663 -0.188851,-0.270769 -0.307508,-0.380793 -0.118329,-0.10972 -0.251678,-0.202444 -0.399379,-0.28155 -0.147253,-0.07887 -0.308685,-0.144153 -0.483705,-0.199358 -0.348236,-0.109841 -0.754636,-0.181087 -1.217661,-0.238609 -0.461781,-0.05737 -0.984394,-0.101589 -1.568639,-0.15611 -0.124367,-0.01244 -0.267918,-0.02158 -0.422803,-0.02807 -0.154745,-0.0065 -0.321557,-0.01034 -0.493786,-0.0122 -0.343581,-0.0037 -0.709601,4.99e-4 -1.045394,0.0078 -0.46655,0.01014 -0.875287,0.02627 -1.07972,0.03509 0,-0.830563 0,-1.666064 0,-2.505899 -3e-6,-1.161794 -0.186151,-2.224592 -0.541013,-3.165465 -0.354057,-0.938729 -0.875703,-1.755191 -1.545981,-2.426219 -0.668605,-0.669349 -1.483428,-1.192305 -2.423287,-1.547454 -0.937426,-0.35423 -1.998259,-0.541163 -3.161312,-0.540758 -0.827614,2.69e-4 -1.658771,5.38e-4 -2.492903,8.08e-4 0.06247,-0.867346 0.125164,-1.737702 0.18803,-2.610489 0.06221,-0.863824 0.04396,-1.602338 -0.05039,-2.215689 -0.09419,-0.612268 -0.265138,-1.105901 -0.513043,-1.474966 -0.124189,-0.184885 -0.26786,-0.338727 -0.430776,-0.459977 -0.162999,-0.121312 -0.343619,-0.208762 -0.540174,-0.262415 -0.196268,-0.05357 -0.40678,-0.07302 -0.62968,-0.06017 -0.222682,0.01283 -0.458008,0.0579 -0.704734,0.133582 -0.492651,0.151114 -1.035429,0.425705 -1.621309,0.817608 -0.585972,0.391965 -1.218145,0.903358 -1.890038,1.531242 -1.342458,1.254526 -2.848442,2.978766 -4.466346,5.156264 -0.347576,0.467794 -0.66914,0.881545 -0.952754,1.228922 -0.283575,0.34733 -0.528151,0.627001 -0.722052,0.827492 -0.09698,0.100271 -0.179869,0.179271 -0.247608,0.236577 -0.03383,0.02862 -0.0628,0.05091 -0.08698,0.06742 -0.02482,0.01694 -0.04135,0.02554 -0.05055,0.02923 -0.0044,0.0018 -0.0046,0.0014 -0.0015,8.86e-4 0.003,-4.99e-4 0.01256,-0.0017 0.02598,0.0012 0.01458,0.0031 0.03084,0.01057 0.04491,0.02368 0.01356,0.01263 0.02021,0.02596 0.02323,0.03439 0.003,0.0084 0.0028,0.01187 0.0028,0.01106 -4e-5,-8.12e-4 -7.4e-5,-0.0057 8.76e-4,-0.01352 0.002,-0.01661 0.0074,-0.04189 0.01843,-0.07756 0.101902,-0.330343 0.199044,-0.724825 0.290298,-1.165779 0.09127,-0.441049 0.176922,-0.929895 0.255646,-1.449489 0.157368,-1.038669 0.287349,-2.20208 0.379197,-3.354934 0.09179,-1.15216 0.145596,-2.295021 0.150395,-3.29285 0.0024,-0.498751 -0.0074,-0.961967 -0.031,-1.372407 -0.02353,-0.409884 -0.06086,-0.769434 -0.114026,-1.060165 -0.09354,-0.511501 -0.20585,-0.967616 -0.337105,-1.367724 -0.131191,-0.399911 -0.2818,-0.7453923 -0.45253,-1.0348444 C 69.30628,9.171469 69.114371,8.9362402 68.899961,8.7589797 68.684995,8.5812586 68.448504,8.4627788 68.191471,8.4066099 c -0.256723,-0.056101 -0.528915,-0.048961 -0.814332,0.017726 -0.284889,0.066564 -0.583344,0.1925054 -0.894722,0.3746673 -0.62182,0.3637761 -1.304863,0.9575131 -2.047167,1.7748019 -0.633433,0.697421 -1.266863,1.39484 -1.899894,2.091819 C 61.958895,12.089161 61.382835,11.513101 60.807544,10.937809 60.003741,10.134006 59.15286,9.5326698 58.275086,9.1357458 57.39631,8.7383688 56.491822,8.5464666 55.583298,8.5608164 c -0.909278,0.014365 -1.819453,0.2352546 -2.70914,0.6595997 -0.890331,0.4246566 -1.759334,1.0525829 -2.587342,1.8805889 -0.463651,0.463649 -0.820032,0.812256 -1.103415,1.060819 -0.141621,0.12422 -0.263064,0.221717 -0.368876,0.295311 -0.10627,0.07391 -0.193187,0.121173 -0.265735,0.147749 -0.03592,0.01316 -0.06735,0.02088 -0.09508,0.02451 -0.02755,0.0036 -0.05184,0.0032 -0.07385,-1.65e-4 -0.02196,-0.0034 -0.04329,-0.01 -0.06476,-0.0202 -0.02165,-0.01032 -0.04429,-0.02476 -0.06827,-0.04439 -0.04875,-0.03991 -0.100272,-0.09893 -0.157829,-0.181491 -0.05736,-0.08228 -0.117514,-0.183228 -0.184974,-0.303771 C 47.229099,10.873359 46.575897,9.9899473 45.955695,9.3950919 45.645158,9.0972466 45.341242,8.8701428 45.045239,8.7113405 44.748873,8.5523471 44.459407,8.4612857 44.179126,8.4373497 c -0.280969,-0.023995 -0.549178,0.019808 -0.8012,0.1260305 -0.251547,0.1060219 -0.483962,0.272913 -0.696234,0.4916732 -0.212229,0.2187155 -0.405226,0.4901735 -0.578402,0.8073382 -0.1733,0.3173924 -0.327537,0.6819984 -0.46167,1.0881274 -0.268356,0.812536 -0.457693,1.795706 -0.556923,2.908889 -0.09935,1.114507 -0.108569,2.361467 -0.01551,3.701699 0.18638,2.684184 0.783124,5.744618 1.890296,8.871269 0.01317,0.03718 0.02244,0.06661 0.02846,0.08906 0.003,0.01118 0.005,0.01988 0.0062,0.02641 0.0012,0.0064 0.0015,0.01018 0.0015,0.0096 -3.5e-5,-6.24e-4 -0.0011,-0.0056 0.0025,-0.02026 0.0017,-0.007 0.0051,-0.01769 0.01216,-0.02974 0.0073,-0.01247 0.01878,-0.02664 0.03586,-0.03835 0.01739,-0.01192 0.03631,-0.01834 0.05417,-0.02053 0.01708,-0.0021 0.03121,-1.28e-4 0.04073,0.0021 0.0095,0.0022 0.01648,0.0052 0.02047,0.0071 0.0041,0.002 0.0068,0.0037 0.0078,0.0044 0.0019,0.0012 0.001,8.94e-4 -0.0029,-0.0027 -0.0037,-0.0034 -0.0088,-0.0084 -0.01548,-0.01563 -0.01342,-0.01447 -0.03054,-0.03478 -0.05147,-0.06161 -0.04184,-0.05363 -0.09502,-0.128245 -0.158889,-0.223355 -0.127744,-0.190236 -0.294338,-0.456623 -0.492015,-0.78783 -0.197964,-0.331687 -0.426448,-0.727283 -0.677546,-1.174949 -0.779538,-1.389788 -1.665831,-2.725358 -2.592466,-3.943058 -0.928873,-1.220638 -1.899089,-2.323927 -2.845141,-3.246646 -0.947947,-0.924566 -1.874181,-1.670363 -2.713723,-2.172079 -0.420687,-0.251405 -0.821872,-0.442896 -1.195072,-0.564545 -0.371246,-0.121011 -0.719341,-0.174396 -1.033547,-0.145365 -0.192038,0.0034 -0.367034,0.0087 -0.525261,0.02195 -0.159797,0.01336 -0.306012,0.03506 -0.438494,0.07255 -0.133337,0.03773 -0.254009,0.09179 -0.361397,0.170371 -0.107834,0.07891 -0.198223,0.179583 -0.274162,0.305563 -0.07559,0.125395 -0.136381,0.275042 -0.186547,0.451997 -0.05024,0.177228 -0.09052,0.384394 -0.123829,0.625905 -0.06665,0.483343 -0.106663,1.114518 -0.139274,1.934636 0.0045,1.058634 0.0091,2.104981 0.0137,3.144097 -0.982259,0 -1.957521,0 -2.925006,0 -1.123362,0 -2.125427,0.157745 -2.997352,0.465157 -0.87619,0.308915 -1.620129,0.768703 -2.222472,1.369827 -0.605117,0.603897 -1.064496,1.347574 -1.372599,2.218056 -0.309414,0.874196 -0.465973,1.875284 -0.465846,2.991245 1.14e-4,0.976702 2.26e-4,1.944243 3.38e-4,2.901793 -0.916747,-0.06352 -1.823627,-0.12635 -2.719786,-0.18844 -0.878927,-0.06089 -1.629609,-0.04201 -2.253426,0.05159 -0.625184,0.09381 -1.128971,0.263561 -1.507119,0.508602 -0.189994,0.123116 -0.348632,0.26549 -0.474513,0.426898 -0.126209,0.161829 -0.218288,0.341268 -0.276284,0.536666 -0.05804,0.195544 -0.08143,0.405274 -0.07216,0.627261 0.0093,0.222198 0.05129,0.456859 0.124157,0.70266 0.14593,0.49224 0.417089,1.033986 0.805703,1.617868 0.390298,0.58641 0.901213,1.218532 1.5285,1.889764 1.261364,1.34973 2.997233,2.861863 5.182072,4.485226 0.46972,0.349007 0.883793,0.670805 1.230844,0.953851 0.350045,0.285489 0.630935,0.530761 0.832739,0.725088 0.10159,0.09783 0.181781,0.181442 0.240324,0.249913 0.02933,0.03431 0.05237,0.06381 0.06964,0.0886 0.0177,0.02541 0.02723,0.04288 0.03167,0.05329 0.002,0.0046 0.0022,0.0066 0.0017,0.0041 -3.83e-4,-0.0019 -0.0019,-0.01017 7.9e-5,-0.02251 0.0021,-0.01342 0.008,-0.02991 0.02046,-0.04516 0.01222,-0.01498 0.02606,-0.02308 0.03583,-0.02707 0.0095,-0.0039 0.0143,-0.004 0.01451,-0.004 2.1e-4,-1.6e-5 -0.0038,1.65e-4 -0.01094,-6.01e-4 -0.01527,-0.0017 -0.03934,-0.0065 -0.07404,-0.01705 -0.357809,-0.108462 -0.771753,-0.211289 -1.22506,-0.307377 -0.455454,-0.09654 -0.951761,-0.186518 -1.472768,-0.268747 -1.048924,-0.165547 -2.199804,-0.300009 -3.327327,-0.394054 -1.138271,-0.09494 -2.253951,-0.148833 -3.226621,-0.15254 -0.4898,-0.0019 -0.943951,0.009 -1.347579,0.03378 -0.405189,0.02489 -0.76137,0.06394 -1.052807,0.118898 -0.5139441,0.09691 -0.9715216,0.210807 -1.3730472,0.341878 -0.4033894,0.131679 -0.7516347,0.281154 -1.0442077,0.449103 -0.2940485,0.168798 -0.5336675,0.357294 -0.7163033,0.566799 -0.1840491,0.211127 -0.309502,0.442829 -0.3740026,0.69445 -0.064798,0.25278 -0.06679,0.520587 -0.010384,0.801138 0.056593,0.281485 0.1719504,0.575897 0.3417449,0.882535 0.1707721,0.308403 0.3976947,0.631129 0.6783904,0.967917 0.2823613,0.338785 0.6200441,0.692889 1.0115156,1.062094 0.6721525,0.63392 1.3293574,1.253742 1.9705724,1.858484 -0.458385,0.491751 -0.904714,0.970568 -1.3381744,1.435581 -0.9401675,1.008599 -1.6360652,1.961906 -2.0953846,2.889595 -0.4676319,0.944479 -0.6895473,1.86174 -0.6729453,2.777866 0.016896,0.932346 0.28081,1.855897 0.7731521,2.794684 0.5012494,0.955771 1.2405515,1.929588 2.1992172,2.944114 0.527766,0.558518 1.034876,1.095178 1.51994,1.608506 -0.507933,0.300042 -0.989837,0.584709 -1.4439331,0.85295 -0.6920016,0.408775 -1.2898093,0.834243 -1.7706867,1.266081 -0.247495,0.222257 -0.4642407,0.446383 -0.6474301,0.671315 -0.1869853,0.229592 -0.3393187,0.460399 -0.4537979,0.691435 -0.1170405,0.236205 -0.1945927,0.47282 -0.2290132,0.708545 -0.035264,0.241502 -0.024964,0.480172 0.032792,0.714127 0.059142,0.239567 0.1672849,0.471183 0.3231167,0.693908 0.1597387,0.228308 0.3691957,0.446755 0.6267624,0.65532 z"
       sodipodi:nodetypes="sscsscssscscsscccssssscsssssccscccssscsscssssscssczzssssscsssssscssczzzszszsscssccscsssssscscsssccscssscssscsssssssssssssssssssssssssssscssscsscsccsssccssssscsssssscscssssssssscsssssssscsssssssssssssssssssssssssssssss"
       inkscape:path-effect="#path-effect4358;#path-effect4360"
       inkscape:original-d="M 7.841827,70.669675 C 5.816551,69.029707 7.250681,67.07671 9.944116,65.485659 L 11.530752,64.548413 9.896979,62.81944 C 6.044621,58.742609 5.987136,55.570443 9.693555,51.594245 l 1.427853,-1.531788 -2.066253,-1.948722 c -3.116824,-2.939546 -2.646884,-4.772813 1.42004,-5.539672 2.278121,-0.429563 8.76945,0.111872 11.589273,0.966644 0.62578,0.189686 -0.398221,-0.79637 -2.275556,-2.191246 C 11.035238,34.84537 9.67534,30.258283 16.643937,30.741091 l 2.861238,0.198241 -3.54e-4,-3.043558 c -5.14e-4,-4.425753 2.490759,-6.912004 6.925977,-6.912004 h 3.057881 l -0.01439,-3.271113 c 0.130605,-3.284524 0.376719,-3.428836 1.924141,-3.456066 2.339384,-0.223194 7.155175,4.473821 10.257199,10.004217 1.007304,1.795855 1.650154,2.753189 1.42856,2.127411 C 38.667643,13.9159 42.42071,2.5521339 47.788575,12.143978 c 0.54509,0.974023 0.739572,0.90278 2.591764,-0.949408 C 53.657788,7.9171147 57.538466,7.8558217 60.714,11.031353 l 1.825962,1.825965 1.993207,-2.194558 c 2.950687,-3.2487623 4.861697,-2.8311533 5.603319,1.22448 0.414494,2.266675 -0.12451,9.032054 -0.926783,11.632837 -0.197059,0.638807 0.78298,-0.374533 2.177857,-2.251867 6.455583,-8.68841 11.102431,-10.113733 10.608352,-3.253886 l -0.198246,2.752331 2.635115,-8.54e-4 c 4.590211,-0.0016 7.539255,2.95083 7.539255,7.547604 v 2.644306 c 0,0 2.185793,-0.106873 3.161703,-0.0093 2.33719,0.218106 3.66204,0.269198 4.07262,1.651379 0.44089,1.811447 -5.19977,7.433198 -10.730169,10.535222 -1.795854,1.007304 -2.753184,1.650155 -2.127407,1.428563 11.879776,-4.206723 22.922315,-1.262529 15.066785,4.017142 l -1.660659,1.116128 1.619789,1.714543 c 3.83741,4.061898 3.89109,7.239679 0.18945,11.210775 l -1.42785,1.531786 2.06626,1.948725 c 2.28629,2.156249 2.54319,3.247259 1.1037,4.686766 -1.01816,1.018151 -11.503913,0.984212 -14.113018,-0.04569 -0.625777,-0.247012 0.398221,0.700284 2.275554,2.105111 8.744114,6.543279 10.028294,10.712632 3.299555,10.712632 h -3.015103 v 2.901342 c 0,4.273334 -2.554181,6.769779 -6.926331,6.769779 h -3.057895 c 0,0 0.07972,1.628844 0.01442,3.271112 -0.06529,1.64227 -0.199167,3.592984 -1.74939,3.761884 -1.550222,0.1689 -7.329925,-4.779644 -10.431945,-10.310024 -1.007303,-1.795863 -1.650155,-2.753195 -1.428562,-2.127416 4.416544,12.47232 0.663478,23.83608 -4.704389,14.24425 -0.545194,-0.97422 -0.738719,-0.90365 -2.585123,0.94277 -3.281502,3.28149 -7.162367,3.34778 -10.333667,0.17647 l -1.832597,-1.8326 -1.99321,2.19455 c -2.011741,2.21499 -2.969982,2.58338 -4.385994,1.68623 l -1.2e-5,-3e-5 c -1.631262,-1.03351 -1.803192,-9.639904 -0.290537,-14.543549 0.197059,-0.638807 -0.782979,0.37454 -2.177859,2.251873 -6.487834,8.731856 -10.694553,10.029746 -10.694553,3.299592 V 93.232617 H 26.27427 c -4.273337,0 -6.769783,-2.554181 -6.769783,-6.92634 V 83.24839 c 0,0 -2.303621,0.09453 -3.271112,0.01442 -0.967493,-0.08012 -1.85152,-0.214818 -2.517013,-0.431203 C 13.050868,82.615203 11.426903,82.186616 12.581434,80.320586 13.735963,78.454558 24.9737,69.635475 24.9737,69.635475 24.056378,69.457781 9.867124,72.309693 7.841848,70.669726 Z m 19.122404,-1.305954 c -1.219807,1.117212 -2.743828,2.516565 -3.957797,3.601248 -1.213969,1.084684 -11.924743,9.469221 -7.023951,9.451091 3.460367,-0.01286 4.422496,-0.519634 5.462893,-2.87775 1.366725,-3.097754 6.081752,-8.095667 10.838449,-11.488727 2.20158,-1.570442 3.580019,-2.708374 3.063194,-2.528744 -4.868609,1.692186 -15.627688,1.826505 -20.197264,0.252162 -2.523526,-0.869426 -3.413729,-0.641927 -5.743072,1.467673 -4.420705,4.003678 14.703605,1.545342 16.9037,0.994013 m 20.208076,33.748393 c 0.96248,-1.46894 0.962302,-1.76898 -0.004,-6.903018 -1.175575,-6.245333 -0.557206,-14.25954 1.450453,-18.798182 1.547669,-3.49876 1.488016,-3.700566 -1.675059,-5.666843 -1.633384,-1.015365 -3.347174,-2.694724 -4.11959,-4.036832 -0.727458,-1.263986 -1.77319,-2.415975 -2.323847,-2.559971 -0.55066,-0.143993 -0.874316,-0.05654 -0.719236,0.194394 0.378431,0.612312 -1.362486,1.2459 -2.126295,0.773843 -0.332999,-0.205812 -0.446136,-0.116401 -0.251415,0.19865 0.194717,0.315061 -0.981726,1.42814 -2.614325,2.473512 -14.375022,9.204463 -18.56291,24.436129 -6.718615,24.436129 h 3.448375 l -0.356766,3.413334 c -0.652977,6.247354 3.92912,3.55921 9.84797,-5.777396 3.848211,-6.070306 4.560569,-5.843987 3.054181,0.97035 -2.42768,10.98192 -0.730777,17.14113 3.108265,11.28201 z m 13.811467,0.0869 c 2.05978,-2.230944 3.301576,-2.545344 3.803787,-0.96303 0.182911,0.5763 0.960653,1.63787 1.728324,2.35907 3.544878,3.33024 4.447478,-3.873554 1.775816,-14.173086 -0.405811,-1.564421 -0.543694,-2.724429 -0.306412,-2.577787 0.237285,0.146659 0.523954,-0.01039 0.637045,-0.350194 0.113073,-0.339265 1.408568,1.282134 2.878852,3.603126 2.852047,4.502212 7.977192,9.762557 9.121006,9.361577 0.457023,-0.16019 0.658173,-1.42871 0.592864,-3.73871 L 80.462368,92.0947 h 3.547971 c 4.824436,0 6.605291,-1.685478 6.605291,-6.251512 0,-7.017901 -6.501999,-14.284987 -19.618705,-21.927235 -0.905063,-0.527322 -0.940822,-0.903431 -0.348501,-3.665348 1.321599,-6.162381 -1.47604,-12.75986 -6.819246,-16.081382 -3.13697,-1.950045 -3.133851,-1.935797 -1.427275,-6.533208 2.150349,-5.792908 2.53266,-15.512189 0.819332,-20.82949 -2.156579,-6.69291 -8.253115,-9.0840683 -12.194772,-4.782979 -2.149056,2.34503 -3.392741,2.690998 -3.902296,1.085534 -0.182911,-0.576289 -0.960652,-1.637863 -1.728324,-2.359054 -3.54488,-3.3302413 -4.447478,3.873538 -1.775814,14.173065 0.405807,1.564435 0.54369,2.724437 0.306405,2.577787 -0.237284,-0.146661 -0.523951,0.01097 -0.637039,0.350204 -0.113096,0.33926 -1.408569,-1.282146 -2.878852,-3.603124 -2.839834,-4.482943 -7.96831,-9.755377 -9.121006,-9.377035 -0.838043,0.275063 -1.191102,2.797398 -0.733206,5.238192 0.262438,1.398927 0.863341,2.046935 2.74868,2.964152 3.821281,1.859056 8.024212,6.047748 12.057277,12.016434 4.370316,6.467799 4.499631,7.29896 1.430223,9.192566 -4.637307,2.860882 -7.334119,9.611871 -6.209192,15.543591 0.292701,1.543415 0.404113,3.013431 0.247582,3.266707 -0.156531,0.253273 -0.08013,0.546359 0.169839,0.651307 0.249943,0.104947 1.05732,1.17816 1.794172,2.384922 0.736849,1.206761 2.733763,3.085859 4.437583,4.175781 2.219323,1.419686 3.012874,2.249452 2.798188,2.925895 -0.16483,0.519323 -0.691246,2.008617 -1.169836,3.309553 -5.948385,16.169299 2.581347,35.156297 11.469097,25.529937 z M 97.442291,81.287509 c 0,-1.830015 -3.730223,-5.444874 -9.190737,-8.906513 -6.070306,-3.84821 -5.843988,-4.560568 0.970349,-3.054179 11.625257,2.5699 17.254257,0.762767 10.656778,-3.421237 l -2.51,-1.591804 2.10425,-1.896179 C 110.13993,52.805388 90.65629,44.124014 73.794438,50.975965 l -2.314501,0.940521 0.570165,2.491615 c 0.379511,1.658478 0.380756,3.416249 0.004,5.256809 l -0.566438,2.765186 4.294699,3.027883 c 5.743976,4.04966 11.886867,9.976296 13.980199,13.488027 1.821994,3.056551 2.232651,3.309137 5.546669,3.411652 1.77507,0.05489 2.13334,-0.124798 2.13334,-1.070149 z M 32.134251,64.745905 c 1.65807,-0.336089 4.049109,-1.021048 5.313425,-1.522137 l 2.298757,-0.91107 -0.554417,-2.706483 c -0.370096,-1.806697 -0.357559,-3.566754 0.03772,-5.294085 l 0.592127,-2.587598 -2.916614,-1.091248 c -12.670017,-4.740458 -28.20967,-1.186875 -28.20967,6.450941 0,6.413884 11.327402,10.116607 23.438677,7.66168 z m 10.00039,-16.73415 C 43.124802,46.607 44.95637,44.751 46.204785,43.887308 49.124811,41.867151 49.126448,41.879213 45.116752,35.884653 39.166853,26.989457 33.729293,22.742132 27.668437,22.255624 22.640125,21.852001 20.642246,23.740055 20.642246,28.89558 v 3.448375 L 17.228909,31.98719 c -6.24734,-0.652978 -3.559212,3.929119 5.777394,9.84797 6.070312,3.848211 5.843989,4.560569 -0.970344,3.054181 -11.344877,-2.507918 -17.369688,-0.671458 -10.904914,3.323993 1.78343,1.10222 2.012451,1.116438 4.416089,0.27418 3.999058,-1.401305 19.242493,-0.626876 22.511374,1.143672 2.21148,1.197825 2.043232,1.264668 4.076133,-1.619431 z m 35.68097,-2.191674 c 14.247328,-9.624323 17.62475,-25.216417 5.089993,-23.498339 l -2.559871,0.35087 0.377946,-3.688946 c 0.668507,-6.525058 -3.775708,-4.035585 -9.821831,5.501784 -3.848212,6.070313 -4.560568,5.843988 -3.054179,-0.970345 2.239496,-10.13064 1.200971,-15.9109913 -2.203795,-12.266176 -2.043313,2.187376 -2.061944,2.361192 -0.860594,8.028017 1.182993,5.580236 0.04694,17.86264 -1.988619,21.499998 -0.392882,0.702041 0.05222,1.256497 2.000834,2.492253 1.378368,0.874137 3.311281,2.731627 4.295369,4.127757 l 1.789243,2.538415 1.76108,-0.904757 c 0.968597,-0.497622 3.29709,-1.942357 5.174424,-3.210531 z M 67.209899,33.07251 c 0.713089,-1.01689 1.41609,-1.848891 1.56224,-1.848891 0.49168,0 -0.840512,2.077092 -1.854358,2.891234 -0.71263,0.572259 -0.627775,0.26947 0.292118,-1.042343 z m 2.356818,-2.875071 c 0,-0.584702 3.899143,-4.382329 4.16333,-4.054936 0.108999,0.135048 -0.783177,1.205559 -1.982589,2.378893 -1.199408,1.173334 -2.180741,1.927554 -2.180741,1.676043 z m 5.120003,-4.861712 c 0,-0.131459 0.67152,-0.679028 1.492264,-1.216803 0.820747,-0.537773 1.318493,-0.696593 1.106098,-0.352932 -0.40588,0.656724 -2.598362,1.981258 -2.598362,1.569735 z m 27.16446,21.646536 c 1.71095,-1.558374 1.61399,-2.579329 -0.28445,-2.995314 -0.86045,-0.188545 -1.920389,-0.455172 -2.355439,-0.592526 -0.90779,-0.286603 -11.032332,1.355661 -13.022557,2.112341 -0.861092,0.327387 -1.203954,0.305396 -0.9765,-0.06262 0.192783,-0.311944 -0.106757,-0.567172 -0.665657,-0.567172 -0.558907,0 0.639167,-0.959998 2.662374,-2.133332 4.242024,-2.46011 11.05256,-8.773727 10.68093,-9.901613 -0.34446,-1.04543 -5.271106,-1.342781 -6.089452,-0.367536 -0.34165,0.407141 -1.654112,2.323696 -2.916598,4.259013 -2.221564,3.405517 -6.365259,7.402716 -11.06822,10.676892 -1.251557,0.871327 -1.80218,1.424055 -1.223602,1.228283 4.653933,-1.574737 16.029975,-1.486256 20.388332,0.158572 1.45232,0.548106 2.84692,0.02844 4.870839,-1.814982 z" />
    <path
       style="fill:#a0a0a0;stroke:none;stroke-width:1"
       d=""
       id="path1616"
       transform="scale(0.26458333)" />
    <path
       style="fill:none;fill-rule:nonzero;stroke:none;stroke-width:0.264583"
       d="m 43.68826,103.38399 c -0.05321,-0.0373 -0.10615,-0.0862 -0.158034,-0.1491 -0.05014,-0.0608 -0.09918,-0.1346 -0.146304,-0.22323 -0.09006,-0.16937 -0.171832,-0.39053 -0.240794,-0.67338 -0.127315,-0.52218 -0.208626,-1.24488 -0.222805,-2.21743 -0.01297,-0.889596 0.03027,-1.985535 0.144715,-3.321364 0.106525,-1.243437 0.274774,-2.694943 0.516591,-4.378456 0.27451,-1.911123 0.463493,-3.320794 0.568928,-4.396481 0.04917,-0.5016 0.08044,-0.933531 0.09546,-1.327952 0.01448,-0.380353 0.01383,-0.723767 5.79e-4,-1.070929 -0.0034,-0.08855 -0.01063,-0.170294 -0.02247,-0.244225 -0.01171,-0.07311 -0.02822,-0.140606 -0.05105,-0.200471 -0.02259,-0.05924 -0.05259,-0.114211 -0.09307,-0.15978 -0.04097,-0.04612 -0.0918,-0.08149 -0.15247,-0.100903 -0.02965,-0.0095 -0.06022,-0.0147 -0.09126,-0.01609 -0.03083,-0.0014 -0.0618,9.91e-4 -0.09263,0.0064 -0.06088,0.01072 -0.122878,0.03364 -0.185476,0.06542 -0.06236,0.03166 -0.127859,0.07341 -0.196582,0.124359 -0.06837,0.05069 -0.141093,0.111346 -0.21839,0.18189 -0.152891,0.139535 -0.326185,0.320057 -0.52208,0.543563 -0.193558,0.220838 -0.410158,0.48476 -0.652225,0.794597 -0.475648,0.608813 -1.05015,1.395556 -1.74444,2.385602 -1.333853,1.902053 -2.339589,3.287347 -3.229598,4.411077 -0.861733,1.088027 -1.616101,1.93339 -2.518883,2.847886 -0.470295,0.476398 -0.868755,0.859388 -1.209872,1.154694 -0.337352,0.292046 -0.614846,0.495027 -0.84957,0.620229 -0.1158,0.06177 -0.219217,0.10353 -0.312697,0.128131 -0.09258,0.02437 -0.175057,0.03181 -0.250444,0.02547 -0.07471,-0.0063 -0.145539,-0.02636 -0.215292,-0.06052 -0.06984,-0.0342 -0.140055,-0.08331 -0.212259,-0.14865 -0.05207,-0.04712 -0.09916,-0.101204 -0.141443,-0.164431 -0.04214,-0.06302 -0.08005,-0.135917 -0.113348,-0.221288 -0.0664,-0.17021 -0.114089,-0.388876 -0.140908,-0.675563 -0.02658,-0.284154 -0.03233,-0.631158 -0.01731,-1.058905 0.0149,-0.424447 0.05013,-0.925885 0.104964,-1.521898 0.0539,-0.585897 0.09662,-1.129652 0.121665,-1.532489 0.0124,-0.199473 0.02052,-0.365157 0.02341,-0.48372 0.0014,-0.05876 0.0016,-0.107994 1.98e-4,-0.144765 -3.64e-4,-0.0094 -8.5e-4,-0.01834 -0.0015,-0.02678 -6.36e-4,-0.0083 -0.0015,-0.01692 -0.0027,-0.02531 -0.0011,-0.0078 -0.003,-0.01855 -0.0064,-0.03005 -0.0017,-0.0058 -0.0045,-0.01413 -0.0089,-0.02339 -0.0023,-0.0048 -0.0054,-0.01056 -0.0095,-0.01684 -0.0041,-0.0062 -0.0098,-0.01389 -0.01771,-0.02175 -0.0096,-0.0096 -0.01883,-0.01601 -0.02473,-0.01975 -0.0063,-0.004 -0.01206,-0.007 -0.0165,-0.0091 -0.0087,-0.0042 -0.01707,-0.0074 -0.02357,-0.0096 -0.01316,-0.0046 -0.02796,-0.0087 -0.04264,-0.0123 -0.02984,-0.0074 -0.06922,-0.01555 -0.115787,-0.02421 -0.0935,-0.01739 -0.223251,-0.03828 -0.379458,-0.0613 -0.311997,-0.04599 -0.733617,-0.101076 -1.190132,-0.154237 -0.02511,-0.0029 -1.560917,-0.18297 -1.586027,-0.185894 0.03142,0.0037 -1.521483,-0.180112 -1.490057,-0.176411 -0.649952,-0.07756 -1.205824,-0.175431 -1.68782,-0.302806 -0.483201,-0.127693 -0.890589,-0.284644 -1.242607,-0.479252 -0.352873,-0.195081 -0.651768,-0.428927 -0.915783,-0.711179 -0.265485,-0.283823 -0.497368,-0.618404 -0.713094,-1.014764 -0.261696,-0.480822 -0.449213,-0.970727 -0.563982,-1.481799 -0.115472,-0.514208 -0.157633,-1.051367 -0.12654,-1.623544 0.06292,-1.15778 0.425997,-2.459692 1.087936,-3.995073 0.518685,-1.203101 1.098547,-2.318807 1.776811,-3.394611 0.68478,-1.086139 1.469792,-2.131404 2.390944,-3.181054 1.872323,-2.133508 4.312127,-4.289545 7.578339,-6.803018 0.531516,-0.409019 1.091692,-0.848375 1.565825,-1.226079 0.242661,-0.193309 0.463033,-0.370665 0.648087,-0.521606 0.09374,-0.07646 0.17846,-0.146177 0.252621,-0.207916 0.0748,-0.06227 0.139049,-0.116587 0.19113,-0.161662 0.447499,-0.387308 1.020972,-0.697911 1.593045,-0.835148 0.126968,-0.03046 0.251629,-0.06665 0.368498,-0.10627 0.115353,-0.03911 0.223713,-0.08176 0.319056,-0.125689 0.09365,-0.04315 0.177623,-0.08883 0.243495,-0.135028 0.03271,-0.02294 0.06329,-0.04762 0.0889,-0.07396 0.01288,-0.01324 0.02532,-0.02773 0.03636,-0.04348 0.01096,-0.01563 0.02143,-0.03376 0.0293,-0.05427 0.01531,-0.0399 0.03486,-0.06908 0.05633,-0.09049 0.02125,-0.02119 0.04686,-0.03725 0.07783,-0.04811 0.03127,-0.01096 0.06952,-0.01711 0.115505,-0.01617 0.04589,9.42e-4 0.0984,0.0089 0.157053,0.02538 0.117137,0.03283 0.253136,0.09775 0.399757,0.196985 0.145247,0.09831 0.29835,0.228575 0.450352,0.389634 0.08329,0.08826 0.192808,0.209663 0.320103,0.35442 0.126558,0.14392 0.27003,0.310169 0.421479,0.488281 0.301268,0.354305 0.633503,0.754853 0.923139,1.115287 0.647968,0.806358 1.203159,1.426004 1.851917,2.030234 0.647055,0.602644 1.384959,1.187857 2.398068,1.928655 0.400822,0.293086 0.723975,0.546375 0.980665,0.773854 0.257229,0.227957 0.444595,0.427286 0.575778,0.611625 0.06547,0.092 0.116549,0.179722 0.155251,0.264812 0.03869,0.08506 0.06524,0.167985 0.08133,0.250566 0.03211,0.164751 0.02384,0.334516 -0.02024,0.525027 -0.0028,0.01205 -0.0071,0.02925 -0.01305,0.05183 -0.0059,0.02243 -0.01324,0.04944 -0.02193,0.08085 -0.01741,0.06291 -0.0401,0.142679 -0.06741,0.237163 -0.0548,0.189546 -0.127953,0.437294 -0.214051,0.725199 -0.17368,0.580771 -0.399143,1.321972 -0.633966,2.082166 -0.333324,1.079075 -0.58873,1.935774 -0.785687,2.715288 -0.198418,0.785299 -0.336793,1.489673 -0.433889,2.254028 -0.09777,0.769676 -0.153381,1.598335 -0.185722,2.620636 -0.03259,1.030074 -0.04166,2.263119 -0.04535,3.822088 -0.0057,2.423882 0.0029,3.837672 0.05534,4.932073 0.02668,0.557189 0.06466,1.030105 0.117288,1.500406 0.05325,0.475889 0.121683,0.950241 0.207766,1.498142 0.124168,0.790303 0.216185,1.44125 0.278156,1.990717 0.06298,0.558408 0.09451,1.008665 0.09701,1.386416 0.0025,0.384223 -0.025,0.691498 -0.07934,0.955698 -0.05524,0.26856 -0.138865,0.4956 -0.249024,0.71154 -0.04392,0.0861 -0.10598,0.18847 -0.182173,0.30209 -0.07686,0.11462 -0.166996,0.23905 -0.265443,0.36779 -0.200738,0.26249 -0.434379,0.54079 -0.661657,0.79273 -0.116012,0.1286 -0.230284,0.25025 -0.338314,0.36022 -0.109698,0.11166 -0.212418,0.21072 -0.304053,0.293 -0.04631,0.0416 -0.08949,0.0786 -0.129086,0.11069 -0.04,0.0324 -0.07572,0.0592 -0.10686,0.0805 -0.03179,0.0217 -0.05662,0.0359 -0.0748,0.0444 -0.009,0.004 -0.01486,0.006 -0.0179,0.007 -0.0027,7.8e-4 -0.0016,-1.5e-4 0.0056,-1.5e-4 0.0029,0 -0.0031,-1.3e-4 -0.01265,-0.002 -0.01011,-0.002 -0.02336,-0.006 -0.0397,-0.0117 -0.03376,-0.0117 -0.07515,-0.0293 -0.120976,-0.0516 -0.0988,-0.0481 -0.207365,-0.11269 -0.302125,-0.17906 z m -0.0759,0.24065 c 3e-6,0 7e-6,0 1.1e-5,0 l -0.0759,-0.0239 c 0.105227,0.0737 0.225739,0.14553 0.338067,0.20023 0.05198,0.0253 0.103631,0.0476 0.150582,0.0638 0.02283,0.008 0.04585,0.0147 0.06811,0.0197 0.02117,0.005 0.04557,0.009 0.07049,0.009 0.02457,0 0.04733,-0.004 0.06676,-0.01 0.01964,-0.006 0.03878,-0.0132 0.05695,-0.0216 0.03586,-0.0166 0.07373,-0.0394 0.11237,-0.0657 0.03872,-0.0264 0.08043,-0.0579 0.124438,-0.0935 0.04375,-0.0354 0.09038,-0.0755 0.139315,-0.11941 0.09673,-0.0869 0.203515,-0.18993 0.316025,-0.30445 0.110944,-0.11293 0.227791,-0.23735 0.346028,-0.36842 0.231378,-0.25648 0.4697,-0.54028 0.675373,-0.80923 0.100907,-0.13195 0.1944,-0.26092 0.27502,-0.38115 0.07944,-0.11847 0.147686,-0.23038 0.198109,-0.32921 0.120404,-0.23602 0.212238,-0.48551 0.272497,-0.77848 0.05897,-0.2867 0.0874,-0.613194 0.08476,-1.010751 -0.0026,-0.390386 -0.0351,-0.850654 -0.09868,-1.414316 -0.06258,-0.554873 -0.155247,-1.210039 -0.279696,-2.00213 -0.08581,-0.546179 -0.15357,-1.016191 -0.2062,-1.4865 -0.05196,-0.464342 -0.08952,-0.931648 -0.11595,-1.483637 -0.05218,-1.089747 -0.06077,-2.49412 -0.05504,-4.918791 0.0037,-1.55906 0.01277,-2.788583 0.04522,-3.81434 0.03219,-1.017494 0.08739,-1.83718 0.183746,-2.595669 0.09557,-0.752351 0.231764,-1.446144 0.427935,-2.222549 0.19513,-0.772287 0.448747,-1.623292 0.781965,-2.702021 0.235014,-0.760816 0.460713,-1.502786 0.634659,-2.084448 0.08621,-0.288294 0.159618,-0.536889 0.214733,-0.727519 0.02746,-0.09499 0.05045,-0.175812 0.06824,-0.240064 0.0089,-0.03208 0.01652,-0.06022 0.02279,-0.08404 0.0062,-0.02363 0.0113,-0.04375 0.01496,-0.05957 0.05045,-0.217989 0.06293,-0.426173 0.02217,-0.635301 -0.02027,-0.103986 -0.0534,-0.206631 -0.100185,-0.309487 -0.04667,-0.102617 -0.106699,-0.204941 -0.180524,-0.30868 -0.147059,-0.206647 -0.35034,-0.420922 -0.615866,-0.656233 -0.265446,-0.235239 -0.59598,-0.494007 -0.999973,-0.789412 -1.009426,-0.738105 -1.737656,-1.316106 -2.373913,-1.908693 -0.636725,-0.593023 -1.183246,-1.202483 -1.826002,-2.002354 -0.291361,-0.362581 -0.625172,-0.765022 -0.927817,-1.120948 -0.152179,-0.17897 -0.296629,-0.346358 -0.424357,-0.491608 -0.128176,-0.14576 -0.239993,-0.269775 -0.32637,-0.3613 -0.163663,-0.173414 -0.331336,-0.316733 -0.494471,-0.427147 -0.1637,-0.110797 -0.325511,-0.190277 -0.476655,-0.232638 -0.07619,-0.02135 -0.151055,-0.03366 -0.223023,-0.03514 -0.07231,-0.0015 -0.142731,0.008 -0.208488,0.03102 -0.06644,0.0233 -0.126472,0.05995 -0.177096,0.110431 -0.05071,0.05056 -0.08943,0.11243 -0.116531,0.183054 0.0015,-0.0039 0.0025,-0.0048 0.0011,-0.0028 -0.0014,0.0019 -0.0042,0.0056 -0.0094,0.01091 -0.01059,0.01089 -0.02721,0.02502 -0.05116,0.04181 -0.0483,0.03388 -0.116915,0.07201 -0.202283,0.111341 -0.08568,0.03947 -0.185287,0.0788 -0.293297,0.115421 -0.109253,0.03704 -0.226164,0.07099 -0.345269,0.09956 -0.617438,0.148121 -1.226472,0.478665 -1.704474,0.892374 -0.05036,0.04358 -0.113213,0.09673 -0.187262,0.158378 -0.07332,0.06104 -0.157343,0.130184 -0.250572,0.206227 -0.18407,0.150139 -0.40362,0.326838 -0.645711,0.519691 -0.472261,0.376214 -1.031979,0.81522 -1.562319,1.223335 -3.272212,2.51809 -5.725626,4.684279 -7.615852,6.838188 -0.929612,1.059291 -1.723127,2.115659 -2.415893,3.214465 -0.686189,1.088374 -1.272317,2.216365 -1.795963,3.430972 -0.668544,1.550701 -1.043915,2.88475 -1.109164,4.085459 -0.03231,0.594501 0.01137,1.156116 0.132578,1.695874 0.120486,0.536528 0.317104,1.049383 0.589743,1.55031 0.223869,0.411323 0.4682,0.765344 0.752262,1.069027 0.283127,0.302684 0.604081,0.553618 0.980998,0.761991 0.3751,0.207369 0.803717,0.371551 1.303018,0.5035 0.49761,0.131501 1.066401,0.231242 1.724064,0.309723 0.01982,0.0024 1.470643,0.174093 1.490461,0.176458 -0.03465,-0.0041 1.621021,0.190015 1.586374,0.185935 0.454582,0.05294 0.873472,0.107687 1.182156,0.153185 0.154924,0.02284 0.280968,0.04318 0.369658,0.05967 0.0447,0.0083 0.0781,0.01532 0.100287,0.02084 0.01071,0.0027 0.0183,0.005 0.01962,0.0055 6.61e-4,2.29e-4 -2.04e-4,9.6e-5 -0.0047,-0.0021 -0.002,-9.6e-4 -0.0056,-0.0028 -0.01019,-0.0057 -0.0041,-0.0026 -0.01199,-0.008 -0.02055,-0.01653 -0.0073,-0.0073 -0.0126,-0.01439 -0.0162,-0.01986 -0.0036,-0.0055 -0.0063,-0.01047 -0.0081,-0.01425 -0.0035,-0.0073 -0.0054,-0.01319 -0.0063,-0.01613 -0.002,-0.0069 -0.0019,-0.0081 -0.0018,-0.0074 1.37e-4,9.61e-4 4.45e-4,0.0035 7.91e-4,0.008 3.37e-4,0.0044 6.58e-4,0.01001 9.27e-4,0.01691 0.0011,0.02834 0.0011,0.07109 -3.21e-4,0.128034 -0.0028,0.113595 -0.01065,0.275483 -0.02297,0.473731 -0.02484,0.399534 -0.06733,0.940606 -0.121063,1.524668 -0.05508,0.598761 -0.09078,1.105593 -0.105914,1.536861 -0.01524,0.434139 -0.0097,0.793376 0.0183,1.092829 0.02822,0.301653 0.07959,0.54645 0.157848,0.747072 0.03951,0.101293 0.08598,0.191573 0.139907,0.272218 0.05426,0.08113 0.115555,0.151728 0.18384,0.213524 0.08643,0.07822 0.176747,0.142743 0.273422,0.19009 0.09765,0.04783 0.200297,0.07737 0.309483,0.08656 0.109545,0.0092 0.222459,-0.0023 0.339966,-0.03325 0.117853,-0.03102 0.240588,-0.08159 0.369879,-0.150553 0.26005,-0.13871 0.554758,-0.356303 0.898219,-0.653638 0.348722,-0.301889 0.752721,-0.690456 1.224989,-1.168851 0.909349,-0.921149 1.670146,-1.773733 2.538002,-2.869493 0.897492,-1.133178 1.904401,-2.520584 3.238818,-4.42344 0.693074,-0.988313 1.264648,-1.770914 1.73631,-2.374623 0.239969,-0.307153 0.453321,-0.567021 0.642703,-0.783095 0.192005,-0.219067 0.358245,-0.39182 0.501463,-0.522527 0.07226,-0.06595 0.137999,-0.120584 0.197609,-0.164778 0.06016,-0.0446 0.11291,-0.0777 0.158767,-0.100974 0.0464,-0.02356 0.08323,-0.03577 0.111616,-0.04077 0.01405,-0.0025 0.02554,-0.0031 0.03482,-0.0027 0.0092,4.15e-4 0.01656,0.0019 0.02252,0.0038 0.01097,0.0035 0.02254,0.01025 0.03531,0.02463 0.01368,0.0154 0.02907,0.04008 0.04366,0.07833 0.01465,0.03842 0.0273,0.08737 0.03701,0.148031 0.0098,0.06095 0.01625,0.131729 0.01933,0.212481 0.013,0.34044 0.01365,0.67713 -5.8e-4,1.050768 -0.01476,0.387827 -0.0456,0.814444 -0.09439,1.31221 -0.104629,1.067465 -0.293175,2.474829 -0.567503,4.384673 -0.242383,1.687454 -0.411275,3.144067 -0.518313,4.39349 -0.114965,1.341953 -0.158784,2.447059 -0.145652,3.347808 0.01433,0.98305 0.09651,1.72745 0.230307,2.27624 0.07257,0.29766 0.161067,0.5409 0.264234,0.73493 0.05419,0.1019 0.112773,0.1909 0.175769,0.26731 0.06531,0.0792 0.13548,0.14505 0.210392,0.19752 z"
       id="path1633"
       inkscape:path-effect="#path-effect4362"
       inkscape:original-d="m 43.612365,103.49235 c -1.044255,-0.73142 -1.100035,-4.557394 -0.161684,-11.090129 0.578755,-4.029248 0.715247,-5.421788 0.663717,-6.771506 -0.05192,-1.360203 -1.039602,-0.45881 -3.781636,3.451284 -2.723585,3.883788 -3.980092,5.47026 -5.762649,7.275947 -1.899443,1.92409 -2.599746,2.29763 -3.233047,1.7245 -0.482653,-0.43679 -0.570068,-1.37124 -0.351016,-3.752297 0.108252,-1.176658 0.169796,-2.166401 0.136768,-2.19943 -0.03303,-0.03303 -0.804586,-0.146752 -1.714573,-0.25272 -0.909985,-0.105963 -2.294391,-0.269025 -3.076455,-0.362348 -2.611663,-0.311657 -3.778416,-0.956679 -4.659825,-2.576119 -1.065604,-1.957863 -0.948899,-4.105496 0.392128,-7.216032 2.074846,-4.812652 5.168999,-8.338432 11.786905,-13.431157 1.046819,-0.805564 2.240109,-1.756165 2.651759,-2.112444 0.478243,-0.413917 1.073483,-0.725755 1.648759,-0.863761 0.495169,-0.118789 0.942003,-0.324646 0.992969,-0.457458 0.169996,-0.443001 0.846957,-0.253269 1.476543,0.41383 0.340151,0.360421 1.092385,1.245084 1.671633,1.965922 1.292777,1.608784 2.202803,2.456349 4.224948,3.934967 1.608903,1.176448 2.012951,1.74422 1.823582,2.562501 -0.05156,0.222804 -0.480367,1.656695 -0.952897,3.186422 -1.327812,4.298536 -1.429904,5.102209 -1.444758,11.37331 -0.01133,4.793888 0.03223,5.704004 0.378788,7.909774 0.493149,3.13879 0.500253,4.210974 0.03396,5.125024 -0.375315,0.73567 -1.904202,2.43045 -2.192553,2.43045 -0.0924,0 -0.340506,-0.12084 -0.551355,-0.26853 z" />
    <path
       style="fill:#a0a0a0;stroke:none;stroke-width:1"
       d=""
       id="path1635"
       transform="scale(0.26458333)" />
    <path
       style="fill:#a0a0a0;stroke:none;stroke-width:1"
       d=""
       id="path1641"
       transform="scale(0.26458333)" />
    <path
       style="fill:#0000ff;stroke:none;stroke-width:1"
       d="m 161.31598,396.8014 c -1.32287,-0.92657 -2.98717,-3.9958 -3.69844,-6.82051 -1.85365,-7.36151 -1.59417,-27.52855 0.49598,-38.54691 2.63271,-13.87848 1.99205,-13.78441 -10.23495,1.50287 -14.87335,18.59595 -26.87073,28.19493 -31.57217,25.26054 -3.46748,-2.16421 -4.70792,-6.55473 -4.72505,-16.72429 l -0.0169,-10.04229 h -7.52561 c -11.002281,0 -17.381446,-1.95326 -22.237044,-6.80886 -5.120729,-5.12073 -6.963411,-10.98652 -6.963411,-22.16655 v -8.62455 l -10.616128,-0.52793 c -16.843684,-0.83762 -20.301061,-3.85859 -13.404921,-11.71286 2.814975,-3.20607 26.885935,-23.6764 42.384082,-36.04408 1.578073,-1.25932 2.552832,-2.60748 2.166131,-2.99591 -0.386702,-0.38844 -10.338266,0.60002 -22.114589,2.19658 -22.485315,3.04841 -38.389258,3.70189 -42.075924,1.72883 -6.928347,-3.70793 -4.574059,-10.17229 6.311091,-17.32887 8.305836,-5.46076 8.312446,-4.50493 -0.09513,-13.75634 -9.031523,-9.93798 -11.684969,-19.08491 -8.055952,-27.77037 0.854658,-2.04548 4.21165,-6.91264 7.459982,-10.81591 3.248327,-3.90326 5.906054,-7.43436 5.906054,-7.84689 0,-0.41252 -3.067026,-3.7049 -6.815614,-7.31639 -10.250196,-9.87532 -10.31249,-15.17832 -0.218668,-18.61495 5.582777,-1.90075 25.126262,-1.52877 38.198019,0.72704 5.763723,0.99465 10.716,1.57196 11.00506,1.2829 1.00142,-1.00142 -1.044735,-3.02549 -11.539522,-11.41499 -17.349638,-13.86925 -26.669241,-25.02769 -25.821238,-30.91598 0.604428,-4.19698 5.01404,-5.54659 16.711141,-5.11466 l 10.616128,0.39201 0.0064,-8.66071 c 0.01537,-20.834177 7.606355,-28.669329 27.825043,-28.720077 l 10.04228,-0.0252 V 70.171432 c 0,-12.49742 0.97912,-14.844514 6.19253,-14.844514 8.83178,0 24.03262,14.814246 36.77723,35.841913 8.24692,13.606829 9.70875,13.683179 5.84442,0.305246 -6.78804,-23.499596 -6.40305,-47.304422 0.89552,-55.370958 4.31504,-4.769074 8.46441,-2.800556 15.06828,7.148599 2.31335,3.485214 4.66489,6.336753 5.22565,6.336753 0.56075,0 3.91879,-2.537046 7.46228,-5.637879 8.09125,-7.080477 13.50982,-9.695902 20.08771,-9.695902 6.66995,0 12.47978,2.844677 20.17652,9.879065 l 6.19378,5.660771 7.96425,-8.221081 c 9.0039,-9.294253 12.25149,-10.121883 16.62413,-4.236573 2.1902,2.947878 2.40873,4.771173 2.40725,20.084566 -9.5e-4,9.696333 -0.66889,20.151173 -1.5743,24.640855 -2.57083,12.748061 -2.0432,12.453192 14.68986,-8.209811 10.57882,-13.063388 19.12586,-19.938725 25.00998,-20.118325 6.13645,-0.187302 7.49502,2.918833 6.78624,15.51556 l -0.55738,9.905883 9.95893,0.504671 c 19.8252,1.004646 28.89578,10.865114 28.89578,31.412059 v 7.12583 l 9.55829,0.0793 c 14.7596,0.12248 19.62358,2.85857 16.34671,9.19535 -4.6697,9.03018 -23.23532,25.34929 -39.9642,35.12835 -9.35139,5.46647 -10.46692,8.23117 -2.29537,5.68878 14.44429,-4.49401 20.76806,-5.49248 35.29145,-5.57218 13.04373,-0.0716 15.60551,0.23472 20.37149,2.43588 4.67798,2.1605 5.45152,2.99169 5.45152,5.85778 0,3.87854 -2.93418,7.37601 -10.62804,12.66833 l -5.46345,3.75811 6.0373,6.8574 c 14.54385,16.51951 14.8759,25.6106 1.50737,41.27221 -2.874,3.36698 -5.22545,6.42852 -5.22545,6.80343 0,0.3749 2.81264,3.45934 6.2503,6.85431 7.89902,7.8009 9.64426,11.60129 7.10631,15.47466 -1.31413,2.00565 -3.31802,3.02464 -7.04805,3.58399 -5.95134,0.89245 -40.85472,-0.073 -45.61693,-1.2618 -5.16879,-1.2903 -3.74573,1.32425 3.93398,7.22781 20.40369,15.68474 31.42699,27.83436 30.59426,33.72031 -0.61905,4.37567 -6.82765,6.73068 -17.74984,6.73277 l -9.33155,0.002 -0.4711,10.7714 c -0.40863,9.34308 -0.88351,11.39458 -3.58125,15.47113 -4.63072,6.99749 -10.69785,9.65904 -23.37566,10.25451 l -10.51271,0.49377 -0.39034,11.30584 c -0.59067,17.10877 -3.57132,18.61194 -16.40105,8.27118 -9.10999,-7.34263 -20.68736,-20.93243 -27.02054,-31.71734 -2.83663,-4.83108 -5.86154,-8.78336 -6.72201,-8.78336 -1.01874,0 -1.29538,0.70061 -0.79305,2.00846 5.34418,13.91365 8.42643,36.93149 6.50408,48.5717 -3.16754,19.18023 -9.99098,21.66069 -20.03758,7.28408 -2.38996,-3.42002 -5.00873,-6.21821 -5.81951,-6.21821 -0.81077,0 -4.51016,2.65676 -8.22087,5.90393 -7.99125,6.99296 -12.35384,9.01604 -19.44227,9.01604 -6.60928,0 -12.32856,-2.92648 -18.88005,-9.66066 -2.81415,-2.89262 -5.75515,-5.25931 -6.53554,-5.25931 -0.7804,0 -3.6425,2.6057 -6.36026,5.79045 -4.65912,5.45973 -10.81958,10.2772 -13.1422,10.2772 -0.57407,0 -2.12613,-0.7581 -3.44899,-1.68468 z"
       id="path4364"
       transform="scale(0.26458333)" />
    <circle
       style="fill:#ffffff;stroke-width:0.8;stroke-linecap:round;stroke-linejoin:round;stroke-opacity:1;stroke:none;stroke-miterlimit:4;stroke-dasharray:none;stroke-dashoffset:2.86000026"
       id="path843"
       sodipodi:type="arc"
       sodipodi:cx="57.883327"
       sodipodi:cy="56.825512"
       sodipodi:rx="14.556584"
       sodipodi:ry="14.556584"
       sodipodi:start="0.36239668"
       sodipodi:end="0.29250021"
       sodipodi:arc-type="arc"
       d="M 71.494459,61.986058 A 14.556584,14.556584 0 0 1 52.9614,70.524737 14.556584,14.556584 0 0 1 44.100192,52.143705 14.556584,14.556584 0 0 1 62.323583,42.962674 14.556584,14.556584 0 0 1 71.821635,61.022861"
       sodipodi:open="true" />
    <circle
       style="display:inline;fill:#ff0000;stroke:none;stroke-width:0.799997;stroke-linecap:round;stroke-linejoin:round;stroke-miterlimit:4;stroke-dasharray:none;stroke-dashoffset:2.86;stroke-opacity:1"
       id="path843-3"
       sodipodi:type="arc"
       sodipodi:cx="57.883327"
       sodipodi:cy="56.825512"
       sodipodi:rx="10.725904"
       sodipodi:ry="10.725904"
       sodipodi:start="0.36239668"
       sodipodi:end="0.29250021"
       sodipodi:arc-type="arc"
       sodipodi:open="true"
       d="M 67.912583,60.62802 A 10.725904,10.725904 0 0 1 54.256644,66.919678 10.725904,10.725904 0 0 1 47.727332,53.37576 10.725904,10.725904 0 0 1 61.155095,46.610789 10.725904,10.725904 0 0 1 68.153659,59.918296" />
  </g>
  <g
     inkscape:label="Слой 1"
     inkscape:groupmode="layer"
     id="layer1" />
</svg>
