<?xml version="1.0" encoding="UTF-8" standalone="no"?>
<svg
   xmlns:dc="http://purl.org/dc/elements/1.1/"
   xmlns:cc="http://creativecommons.org/ns#"
   xmlns:rdf="http://www.w3.org/1999/02/22-rdf-syntax-ns#"
   xmlns:svg="http://www.w3.org/2000/svg"
   xmlns="http://www.w3.org/2000/svg"
   xmlns:sodipodi="http://sodipodi.sourceforge.net/DTD/sodipodi-0.dtd"
   xmlns:inkscape="http://www.inkscape.org/namespaces/inkscape"
   width="111mm"
   height="111mm"
   viewBox="0 0 111 111"
   version="1.1"
   id="svg8"
   inkscape:version="1.0.2 (e86c870879, 2021-01-15, custom)"
   sodipodi:docname="цветочек.svg">
  <defs
     id="defs2" />
  <sodipodi:namedview
     id="base"
     pagecolor="#ffffff"
     bordercolor="#666666"
     borderopacity="1.0"
     inkscape:pageopacity="0.0"
     inkscape:pageshadow="2"
     inkscape:zoom="0.7"
     inkscape:cx="149.08749"
     inkscape:cy="368.76178"
     inkscape:document-units="mm"
     inkscape:current-layer="layer2"
     inkscape:document-rotation="0"
     showgrid="false"
     inkscape:window-width="1423"
     inkscape:window-height="914"
     inkscape:window-x="154"
     inkscape:window-y="80"
     inkscape:window-maximized="0"
     showguides="true"
     inkscape:lockguides="true" />
  <metadata
     id="metadata5">
    <rdf:RDF>
      <cc:Work
         rdf:about="">
        <dc:format>image/svg+xml</dc:format>
        <dc:type
           rdf:resource="http://purl.org/dc/dcmitype/StillImage" />
        <dc:title />
      </cc:Work>
    </rdf:RDF>
  </metadata>
  <g
     inkscape:groupmode="layer"
     id="layer5"
     inkscape:label="Слой 4"
     style="display:inline" />
  <g
     inkscape:groupmode="layer"
     id="layer3"
     inkscape:label="Слой 3" />
  <g
     inkscape:groupmode="layer"
     id="layer2"
     inkscape:label="Слой 2"
     style="display:inline">
    <path
       id="path1600"
       style="fill:#000000;stroke-width:0.999996"
       d="m 13.752482,66.279848 c -1.734506,-1.404518 -0.506275,-3.077122 1.800463,-4.439746 l 1.358841,-0.802685 -1.399211,-1.480744 c -3.299273,-3.491519 -3.348506,-6.208256 -0.174218,-9.61359 l 1.222856,-1.311868 -1.769601,-1.668944 c -2.66934,-2.517514 -2.26687,-4.087578 1.216164,-4.744339 1.95105,-0.36789 7.510417,0.09581 9.925398,0.827863 0.535936,0.162452 -0.341049,-0.682035 -1.948854,-1.876649 -7.496906,-5.570296 -8.661563,-9.498813 -2.69345,-9.085322 l 2.450449,0.16978 -3.03e-4,-2.606593 c -4.4e-4,-3.790347 2.13316,-5.919646 5.931612,-5.919646 h 2.61886 l -0.01233,-2.801478 c 0.111854,-2.812964 0.322633,-2.936557 1.647891,-2.959877 2.003518,-0.191151 6.127904,3.831513 8.78457,8.567908 0.862684,1.538023 1.41324,2.357912 1.223461,1.821977 -3.782458,-10.681663 -0.56822,-20.4139293 4.028979,-12.19919 0.466831,0.834182 0.633391,0.773168 2.219663,-0.813101 2.806905,-2.80691 6.130433,-2.859402 8.850054,-0.139784 l 1.563808,1.563811 1.707041,-1.879485 c 2.527056,-2.782336 4.163702,-2.424683 4.798849,1.048681 0.354985,1.941247 -0.106634,7.735319 -0.793724,9.962707 -0.168767,0.547093 0.670567,-0.320762 1.865181,-1.928566 5.528753,-7.441012 9.508451,-8.661701 9.085307,-2.786725 l -0.169784,2.357178 2.256791,-7.31e-4 c 3.931193,-0.0013 6.456842,2.527179 6.456842,6.463992 v 2.264662 c 0,0 1.871979,-0.09153 2.707779,-0.008 2.001633,0.186792 3.136284,0.230549 3.487912,1.41429 0.377594,1.551376 -4.45324,6.366011 -9.189638,9.022676 -1.538022,0.862685 -2.357908,1.413242 -1.821974,1.223463 10.1742,-3.602761 19.631354,-1.081267 12.903645,3.4404 l -1.422238,0.955885 1.387228,1.468386 c 3.286475,3.478729 3.332453,6.200275 0.16226,9.60124 l -1.222853,1.311867 1.769598,1.668945 c 1.958053,1.846676 2.178075,2.781049 0.945252,4.013886 -0.871986,0.871975 -9.8523,0.842908 -12.086815,-0.03913 -0.535934,-0.211548 0.341048,0.599745 1.948852,1.80288 7.488722,5.603858 8.58853,9.174616 2.825843,9.174616 h -2.58223 v 2.484795 c 0,3.659809 -2.187476,5.797839 -5.931915,5.797839 h -2.618872 c 0,0 0.06828,1.394991 0.01235,2.801477 -0.05592,1.406487 -0.170573,3.077137 -1.49823,3.221785 -1.327656,0.144649 -6.277565,-4.093424 -8.934227,-8.829806 -0.862684,-1.53803 -1.413241,-2.357917 -1.223463,-1.821982 3.782459,10.681659 0.568223,20.413924 -4.028978,12.199194 -0.46692,-0.834347 -0.632661,-0.773909 -2.213976,0.807414 -2.810376,2.810369 -6.134063,2.86714 -8.850059,0.151142 l -1.56949,-1.569492 -1.707044,1.879474 c -1.722915,1.896975 -2.543581,2.212484 -3.756295,1.444134 l -1.1e-5,-2.4e-5 c -1.397061,-0.885131 -1.544307,-8.2559 -0.248824,-12.455524 0.168767,-0.547093 -0.670567,0.320767 -1.865183,1.928571 -5.556374,7.478218 -9.159133,8.589769 -9.159133,2.82587 v -2.58223 H 29.53857 c -3.659812,0 -5.797843,-2.187476 -5.797843,-5.931923 v -2.618865 c 0,0 -1.972889,0.08096 -2.801477,0.01235 -0.82859,-0.06862 -1.585697,-0.183977 -2.155645,-0.369296 -0.569949,-0.185319 -1.96076,-0.552374 -0.971986,-2.150497 0.988773,-1.598122 10.613104,-9.151046 10.613104,-9.151046 -0.785622,-0.152182 -12.93772,2.29028 -14.672226,0.885764 z M 30.129476,65.16139 c -1.044679,0.956813 -2.349896,2.15526 -3.389575,3.084215 -1.039679,0.928955 -10.212703,8.109721 -6.01552,8.094195 2.963561,-0.01101 3.787557,-0.445031 4.678584,-2.464591 1.170504,-2.653008 5.208592,-6.933369 9.282368,-9.839286 1.885499,-1.344974 3.066035,-2.319532 2.623411,-2.165691 -4.169621,1.449237 -13.384015,1.564273 -17.297536,0.215959 -2.161222,-0.744603 -2.923618,-0.549766 -4.918537,1.256958 -3.786023,3.428868 12.592604,1.323477 14.47683,0.851302 m 17.306796,28.903121 c 0.824295,-1.258046 0.824144,-1.51501 -0.0035,-5.911946 -1.006798,-5.348688 -0.477208,-12.212292 1.24221,-16.09932 1.32547,-2.996442 1.274381,-3.169275 -1.434569,-4.853252 -1.39888,-0.869589 -2.86662,-2.307842 -3.52814,-3.457263 -0.623016,-1.082515 -1.518612,-2.069112 -1.990212,-2.192435 -0.471601,-0.12332 -0.748789,-0.04843 -0.615974,0.166485 0.324099,0.524402 -1.166874,1.067026 -1.821023,0.662742 -0.285189,-0.176263 -0.382083,-0.09969 -0.215319,0.17013 0.166761,0.269827 -0.840779,1.223101 -2.238985,2.118389 -12.311195,7.882975 -15.897827,20.927825 -5.754021,20.927825 h 2.95329 l -0.305545,2.923278 c -0.559228,5.350416 3.365016,3.048218 8.434094,-4.947931 3.295722,-5.19879 3.905806,-5.004963 2.615691,0.831037 -2.079137,9.405233 -0.625859,14.680172 2.662011,9.662245 z m 11.828549,0.07444 c 1.764057,-1.910643 2.827568,-2.179905 3.257676,-0.824765 0.15665,0.493553 0.822732,1.402718 1.480188,2.020369 3.035939,2.852118 3.808952,-3.317415 1.520862,-12.138241 -0.347549,-1.339817 -0.465636,-2.333281 -0.26242,-2.207693 0.203217,0.125603 0.448729,-0.0089 0.545583,-0.299917 0.09684,-0.290556 1.20634,1.098058 2.465535,3.085824 2.442577,3.855828 6.831903,8.360938 7.811499,8.017538 0.391409,-0.137197 0.563679,-1.223598 0.507747,-3.20195 l -0.08465,-2.994287 h 3.038587 c 4.13179,0 5.656967,-1.443493 5.656967,-5.353979 0,-6.010339 -5.568504,-12.234087 -16.80204,-18.779135 -0.775123,-0.451614 -0.805748,-0.773725 -0.298467,-3.139113 1.131857,-5.277645 -1.264125,-10.927922 -5.840205,-13.772572 -2.686594,-1.670076 -2.683923,-1.657874 -1.22236,-5.595233 1.841623,-4.961218 2.169045,-13.285099 0.7017,-17.838992 C 59.33409,14.417859 54.112836,12.37 50.737084,16.05358 c -1.840516,2.008354 -2.905644,2.304651 -3.342042,0.929684 -0.15665,-0.493551 -0.822731,-1.402714 -1.480188,-2.020364 -3.035941,-2.852117 -3.808952,3.317413 -1.52086,12.138233 0.347545,1.339829 0.465632,2.333289 0.262415,2.207693 -0.203218,-0.125604 -0.448728,0.0094 -0.545579,0.299925 -0.09686,0.290552 -1.206341,-1.098067 -2.465535,-3.085822 -2.432118,-3.839325 -6.824296,-8.354794 -7.811499,-8.03077 -0.717726,0.235572 -1.020096,2.395774 -0.62794,4.486142 0.22476,1.198083 0.739391,1.753056 2.354051,2.538588 3.272659,1.592151 6.872173,5.179471 10.326209,10.291231 3.742869,5.539214 3.853618,6.251045 1.224886,7.872785 -3.971528,2.450144 -6.281157,8.231892 -5.317736,13.311993 0.250678,1.321826 0.346094,2.580791 0.212036,2.797704 -0.134057,0.216911 -0.06862,0.467919 0.145455,0.557799 0.214059,0.08988 0.905521,1.009011 1.536582,2.042518 0.63106,1.033506 2.341276,2.642821 3.800478,3.576263 1.900695,1.215861 2.580315,1.926497 2.396451,2.505823 -0.141165,0.444763 -0.592003,1.720239 -1.001882,2.834399 C 43.788012,85.15528 51.093128,101.4163 58.70486,93.17201 Z M 90.488973,75.373275 c 0,-1.567279 -3.194671,-4.663151 -7.871217,-7.627802 -5.19879,-3.295721 -5.004964,-3.905806 0.831036,-2.61569 9.956214,2.200939 14.77706,0.653257 9.126785,-2.930048 L 90.42593,60.836467 92.228075,59.212523 C 101.36361,50.980342 84.677244,43.545356 70.236254,49.41357 l -1.982208,0.805491 0.488306,2.133892 c 0.325025,1.42037 0.326091,2.925777 0.0035,4.502087 l -0.485114,2.368187 3.678108,2.593169 c 4.919311,3.468249 10.180265,8.543996 11.973057,11.551546 1.560409,2.617721 1.912108,2.834043 4.750328,2.92184 1.520228,0.04701 1.82705,-0.106881 1.82705,-0.916507 z M 34.557234,61.206555 c 1.42002,-0.287837 3.467777,-0.874456 4.550575,-1.303603 l 1.968724,-0.780268 -0.47482,-2.317912 c -0.316961,-1.547309 -0.306224,-3.054674 0.0323,-4.534011 l 0.507115,-2.216096 -2.497875,-0.934577 c -10.850976,-4.059869 -24.159595,-1.016475 -24.159595,5.524777 0,5.49304 9.701123,8.664162 20.073578,6.56169 z m 8.56463,-14.331623 c 0.848004,-1.203073 2.416613,-2.792607 3.485793,-3.532298 2.500796,-1.730123 2.502198,-1.719792 -0.931824,-6.853711 -5.09567,-7.61811 -9.752558,-11.255644 -14.943255,-11.672304 -4.306395,-0.345675 -6.017438,1.271311 -6.017438,5.686655 v 2.95329 L 21.791858,33.15102 c -5.350408,-0.559229 -3.048215,3.365015 4.947931,8.434094 5.198795,3.295721 5.004965,3.905806 -0.831032,2.615691 -9.716088,-2.147855 -14.875915,-0.575057 -9.339291,2.846766 1.527382,0.943974 1.723522,0.956151 3.782069,0.234816 3.424912,-1.200119 16.479842,-0.536875 19.279408,0.979475 1.893978,1.025852 1.749885,1.083099 3.490921,-1.38693 z M 73.680105,44.997918 C 85.881939,36.755362 88.77446,23.401831 78.039326,24.873244 l -2.192349,0.300495 0.323684,-3.159322 c 0.572529,-5.588253 -3.233629,-3.456195 -8.411707,4.711891 -3.295723,5.198796 -3.905806,5.004964 -2.615689,-0.831033 1.91797,-8.67618 1.028547,-13.626644 -1.887396,-10.505116 -1.749954,1.873333 -1.76591,2.022194 -0.737038,6.875431 1.01315,4.77908 0.0402,15.298095 -1.703113,18.413236 -0.336475,0.601249 0.04473,1.076101 1.713574,2.134439 1.180475,0.748637 2.835879,2.339447 3.678681,3.535134 l 1.532361,2.173974 1.508241,-0.774861 C 70.07811,47.321334 72.0723,46.08402 73.680105,44.997918 Z M 64.597059,34.08052 c 0.61071,-0.870895 1.212782,-1.583445 1.337949,-1.583445 0.421089,0 -0.719839,1.778884 -1.588127,2.476139 -0.610318,0.490099 -0.537646,0.230782 0.250178,-0.892694 z m 2.018449,-2.462295 c 0,-0.500757 3.339341,-3.753157 3.565599,-3.472768 0.09335,0.115659 -0.670736,1.032476 -1.697948,2.037354 -1.027208,1.004879 -1.867651,1.650815 -1.867651,1.435414 z M 71.00043,27.45451 c 0,-0.112585 0.57511,-0.58154 1.278019,-1.042106 0.702913,-0.460565 1.129197,-0.596583 0.947296,-0.302261 -0.347608,0.562437 -2.225315,1.696807 -2.225315,1.344367 z m 23.264445,18.538735 c 1.46531,-1.334638 1.382271,-2.209014 -0.243604,-2.565275 -0.736911,-0.161476 -1.644683,-0.389824 -2.017265,-0.507457 -0.777464,-0.245456 -9.448423,1.161028 -11.15291,1.809071 -0.737465,0.280384 -1.031102,0.261551 -0.836303,-0.05363 0.165104,-0.267158 -0.09143,-0.485743 -0.570089,-0.485743 -0.478664,0 0.547402,-0.822171 2.280136,-1.827049 3.632995,-2.106911 9.465734,-7.51408 9.147461,-8.480035 -0.295007,-0.895337 -4.514327,-1.149998 -5.215183,-0.314769 -0.292599,0.348688 -1.416631,1.990082 -2.497861,3.647545 -1.902613,2.916586 -5.451397,6.339906 -9.479152,9.144007 -1.07187,0.74623 -1.54344,1.219603 -1.047929,1.051938 3.985767,-1.348652 13.728546,-1.272874 17.461172,0.135806 1.243815,0.469414 2.438183,0.02436 4.171527,-1.554404 z"
       sodipodi:nodetypes="sscsscssscscsscccssssscsssssccscccssscsscssssscssczzssssscsssssscssczzzszszsscssccscsssssscscsssccscssscssscsssssssssssssssssssssssssssscssscsscsccsssccssssscsssssscscssssssssscsssssssscsssssssssssssssssssssssssssssss" />
    <path
       style="fill:#ffffff;stroke:none;stroke-width:0.264582"
       d="m 53.342966,95.136684 c -1.165293,-0.408993 -3.013483,-2.421046 -3.896561,-4.24203 -1.231502,-2.539468 -1.767487,-5.0559 -1.886206,-8.855726 -0.129482,-4.144302 0.227167,-6.525411 1.586894,-10.594622 0.63301,-1.894402 0.920597,-3.071497 0.834367,-3.415074 -0.08056,-0.320971 -0.640159,-0.881028 -1.443051,-1.444221 -2.42817,-1.703266 -3.689493,-2.895189 -4.983435,-4.709246 -1.267159,-1.776506 -1.290249,-1.834368 -1.473576,-3.693064 -0.316056,-3.20442 -0.215668,-5.546395 0.31329,-7.308693 0.907214,-3.022504 2.320952,-5.045219 4.859385,-6.952597 2.215494,-1.664723 2.311631,-2.035406 1.128613,-4.351643 -1.120382,-2.193604 -3.908577,-6.176545 -5.929357,-8.470101 -2.048615,-2.325149 -4.106478,-4.068234 -6.346728,-5.375902 -1.007112,-0.587869 -2.014057,-1.313884 -2.237654,-1.613369 -0.581181,-0.778428 -0.759677,-3.599256 -0.297553,-4.702318 0,0 0.172751,-0.55277 0.393375,-0.636632 0.220624,-0.08386 0.639748,0.19148 0.639748,0.19148 1.036083,0.310106 4.628561,4.192437 7.376427,8.22932 1.824148,2.67985 1.944831,2.794551 2.551265,2.424775 0.543461,-0.331377 0.54408,-0.324239 -0.418168,-4.840716 -0.847891,-3.979726 -1.01284,-8.002857 -0.385061,-9.391761 0.534418,-1.182365 1.306841,-1.113718 2.527853,0.224655 0.512095,0.561311 1.093777,1.325387 1.292632,1.697946 0.252285,0.472657 0.515278,0.677379 0.870191,0.677379 0.565192,0 1.827271,-0.857177 2.800877,-1.902297 2.779081,-2.98321 7.258122,-1.634254 9.342259,2.813616 2.196023,4.68665 2.045774,13.36635 -0.34476,19.916573 -0.594213,1.628185 -0.773082,3.013151 -0.451461,3.495633 0.08577,0.128659 0.982879,0.819555 1.993591,1.535321 1.010711,0.71577 2.281031,1.804371 2.822929,2.419116 1.483165,1.682543 2.627631,4.1511 3.034987,6.546316 0.319777,1.880272 0.316519,2.150442 -0.05443,4.51607 -0.268345,1.71124 -0.327669,2.622211 -0.185443,2.847683 0.11502,0.182343 1.34142,1.035927 2.725336,1.89685 9.650754,6.003656 14.545303,11.888516 14.545303,17.488229 0,3.750403 -1.66844,5.071254 -6.405813,5.071254 h -2.296156 l -0.0032,2.812221 c -0.0018,1.546719 -0.09046,2.950054 -0.197046,3.118515 -0.631702,0.998437 -4.524231,-2.925093 -8.070181,-8.134438 -1.729565,-2.540901 -1.949553,-2.763591 -2.543742,-2.575008 -0.575843,0.182771 -0.562151,0.800089 0.07851,3.539496 1.127094,4.819367 1.38536,9.165548 0.635883,10.700878 -0.258168,0.528855 -0.57486,0.85614 -0.868955,0.898015 -0.580957,0.08271 -2.067452,-1.221578 -2.61464,-2.29416 -0.835315,-1.63735 -1.41112,-1.56345 -3.572585,0.458495 -1.428377,1.336174 -3.144281,2.301612 -4.068313,2.288997 -0.291834,-0.004 -0.912646,-0.141331 -1.379579,-0.305215 z"
       id="path1602"
       sodipodi:nodetypes="ssssssssssssssszssssssssssssssssssssccsssssssscss" />
    <path
       style="fill:#a0a0a0;stroke:none;stroke-width:0.264582"
       d="m 25.097427,61.56714 c -4.917166,-0.56725 -8.770949,-2.473128 -9.957655,-4.924532 -0.548165,-1.132361 -0.581287,-2.86267 -0.07525,-3.931146 2.015802,-4.256281 10.780914,-6.408844 19.150935,-4.703145 1.920823,0.391441 6.265142,1.766329 6.627199,2.097372 0.07994,0.0731 0.0073,0.705958 -0.161315,1.40636 -0.394041,1.636311 -0.402834,4.280463 -0.02027,6.096966 l 0.300659,1.427615 -1.681025,0.648273 c -2.269531,0.875222 -5.547287,1.634104 -8.209895,1.90079 -2.484792,0.24888 -3.687544,0.245141 -5.973382,-0.01854 z"
       id="path1604" />
    <path
       style="fill:#00ffff;stroke:none;stroke-width:0.264582"
       d="m 66.93583,47.155289 c -1.186722,-1.749444 -2.377421,-2.979234 -4.165235,-4.301982 -0.933871,-0.69094 -1.768675,-1.379141 -1.85512,-1.52934 -0.08644,-0.150196 0.03695,-0.711928 0.274211,-1.248293 1.073337,-2.426458 1.769502,-7.438472 1.757517,-12.653227 -0.0073,-3.198563 -0.09342,-4.314475 -0.46424,-6.019235 -0.66855,-3.073465 -0.620602,-4.132252 0.234568,-5.179499 0.379387,-0.464596 1.005488,-1.063916 1.391337,-1.331823 l 0.701542,-0.487103 0.427859,0.427858 c 1.172338,1.172338 1.100811,4.287211 -0.259661,11.307625 -0.652847,3.368874 -0.703442,4.263488 -0.249546,4.412489 0.396511,0.130162 1.181946,-0.827034 3.382359,-4.122026 3.060583,-4.583043 5.202586,-6.908713 6.798286,-7.381214 0.354504,-0.104972 0.552179,-0.0059 0.827661,0.414452 0.31351,0.478478 0.343009,0.906136 0.220525,3.197274 l -0.141396,2.644912 0.905557,-0.160966 c 0.498058,-0.08853 1.765147,-0.160859 2.815754,-0.160732 1.576579,1.93e-4 2.067685,0.0841 2.811984,0.480452 3.148622,1.676681 2.823428,6.322995 -0.824844,11.785346 -1.538869,2.304061 -5.491254,6.011693 -8.578578,8.047355 -2.56776,1.693076 -4.743807,2.93184 -5.127944,2.919194 -0.09143,-0.003 -0.4886,-0.480693 -0.882596,-1.061517 z M 65.096575,34.379102 c 0.736997,-0.861015 1.140812,-1.756544 0.900452,-1.996905 -0.150591,-0.150589 -2.058789,2.284932 -2.058961,2.627945 -2.35e-4,0.484116 0.382372,0.275706 1.158509,-0.63104 z m 3.627099,-4.293347 c 1.561152,-1.561152 1.857969,-2.026578 1.292409,-2.026578 -0.319349,0 -3.531232,3.105825 -3.531232,3.414631 0,0.54049 0.816512,0.03425 2.238823,-1.388053 z m 3.672142,-3.089126 c 0.888513,-0.643636 1.12191,-1.059885 0.594295,-1.059885 -0.37519,0 -2.048153,1.214633 -2.048153,1.487034 0,0.384238 0.561506,0.219265 1.453858,-0.427149 z"
       id="path1606" />
    <path
       style="fill:#0000ff;stroke:none;stroke-width:0.264582"
       d="m 39.722725,48.222217 c -1.781253,-0.79448 -4.367025,-1.21726 -9.373564,-1.532606 -4.378785,-0.275805 -8.585421,-0.04427 -10.319195,0.56798 -1.722514,0.608274 -2.820044,0.309966 -4.642665,-1.261875 -1.132339,-0.976534 -1.196604,-1.634212 -0.212245,-2.172032 0.574052,-0.313639 1.18836,-0.373367 3.661196,-0.355967 2.436903,0.01714 3.563176,0.141076 6.261175,0.688931 3.631669,0.737446 5.518322,0.862437 5.518322,0.365584 0,-0.394233 -1.326309,-1.463616 -3.714255,-2.994741 -4.960243,-3.180461 -8.288565,-6.420027 -7.828276,-7.619517 0.233999,-0.609795 1.420024,-0.794673 3.564166,-0.555588 1.110355,0.123814 2.070345,0.225114 2.133312,0.225114 0.06297,0 0.114488,-1.056067 0.114488,-2.346813 0,-2.960544 0.268746,-4.051778 1.251605,-5.082089 1.155065,-1.210834 3.07976,-1.567685 5.737184,-1.063717 4.665023,0.884706 8.836572,4.388214 13.649941,11.464024 1.980111,2.910824 2.70802,4.217873 2.70802,4.862573 0,0.249205 -0.413338,0.753031 -1.008154,1.228854 -1.506451,1.205089 -3.647054,3.39628 -4.779207,4.892156 -0.552188,0.729587 -1.075708,1.323644 -1.163381,1.320133 -0.08768,-0.0035 -0.788981,-0.287198 -1.558467,-0.630404 z"
       id="path1608" />
    <path
       style="fill:#ff5555;stroke:none;stroke-width:0.264582"
       d="M 87.072443,76.041027 C 85.81991,75.790577 85.387548,75.424093 84.219826,73.623101 81.640059,69.644286 77.006679,65.229836 70.94169,60.972374 c -1.225559,-0.860311 -2.302154,-1.628667 -2.392435,-1.707463 -0.09028,-0.07879 -0.01866,-0.834942 0.159181,-1.680324 0.402899,-1.915302 0.408926,-4.196937 0.01547,-5.860293 -0.165671,-0.700405 -0.23224,-1.343889 -0.147932,-1.429968 0.08431,-0.08608 1.15259,-0.533079 2.373962,-0.993335 5.242625,-1.975603 11.062558,-2.40052 16.063562,-1.172811 2.048766,0.502955 4.737286,1.808207 5.864327,2.847073 2.703376,2.491889 2.405843,5.094402 -0.948245,8.294426 l -1.703062,1.624833 1.553543,0.985039 c 1.863627,1.18166 2.312928,1.552725 2.823419,2.331839 0.379447,0.579106 0.37856,0.603578 -0.03706,1.019219 -1.167238,1.167244 -4.292166,1.097325 -11.255596,-0.251839 -3.682608,-0.713502 -4.267933,-0.753702 -4.44014,-0.30494 -0.183737,0.478806 0.155315,0.785095 2.973096,2.685828 5.473928,3.692429 7.929707,5.930143 8.496566,7.742082 0.311178,0.994645 -1.043607,1.384048 -3.267898,0.939287 z"
       id="path1610" />
    <path
       style="fill:#ffffff;stroke:none;stroke-width:0.264582"
       d="m 44.138375,94.541223 c -1.077182,-1.190267 -1.021069,-4.950648 0.163704,-10.970948 0.89559,-4.550833 0.751825,-5.622182 -0.563768,-4.201304 -0.297233,0.321013 -1.530487,2.064066 -2.740565,3.873433 -1.387863,2.075208 -2.830302,3.930164 -3.90699,5.024335 -2.161993,2.197097 -3.220643,2.53413 -3.73549,1.189221 -0.208595,-0.544899 -0.185876,-1.13903 0.150353,-3.931939 l 0.121368,-1.008154 h -2.02578 c -1.114178,0 -2.503191,-0.102392 -3.086694,-0.227529 -2.914603,-0.625071 -4.361202,-3.309424 -3.545184,-6.578554 0.447596,-1.793166 1.970862,-4.83556 3.2979,-6.586841 1.541871,-2.034794 4.661502,-4.919414 7.506236,-6.940768 1.364173,-0.969328 2.579795,-1.948299 2.701389,-2.175492 0.140559,-0.26264 0.443924,-0.413083 0.832977,-0.413083 0.826407,0 1.283349,-0.19701 1.283349,-0.553313 0,-0.493548 0.736495,-0.331454 1.308625,0.288009 0.29649,0.321019 0.829467,1.013462 1.184396,1.538766 0.920716,1.362686 2.053449,2.440523 3.83204,3.646335 2.182689,1.479774 2.206342,1.572946 1.134714,4.469937 -1.259588,3.405114 -1.51684,4.834999 -1.651858,9.181545 -0.0921,2.964956 -0.04074,4.319376 0.229387,6.048927 0.879459,5.63101 0.859341,5.340145 0.431647,6.241011 -0.472764,0.9958 -1.820933,2.460967 -2.264451,2.460967 -0.175081,0 -0.470871,-0.168548 -0.657305,-0.374561 z"
       id="path1612" />
    <path
       style="fill:#a0a0a0;stroke:none;stroke-width:0.264582"
       d="m 67.121579,47.225239 c -1.052514,-1.550969 -2.263875,-2.823437 -4.207287,-4.419534 -1.089932,-0.895144 -1.933638,-1.742612 -1.87834,-1.886717 0.612793,-1.596916 1.250551,-4.154133 1.547578,-6.205318 0.512199,-3.537136 0.531279,-10.992744 0.03413,-13.340154 -0.349048,-1.64814 -0.443726,-2.544669 -0.399181,-3.780022 0.02333,-0.647201 1.963539,-2.90564 2.496209,-2.90564 0.159882,0 0.479952,0.310405 0.71127,0.689791 0.67923,1.114018 0.575966,4.133445 -0.320691,9.376931 -0.836067,4.889167 -0.887119,5.597236 -0.416582,5.777799 0.492082,0.18883 0.934477,-0.315523 3.431013,-3.911521 2.833949,-4.08201 4.752086,-6.315903 6.033066,-7.026201 1.533167,-0.850137 1.670785,-0.617095 1.670785,2.82932 v 2.802548 l 2.930689,-0.01632 c 2.870363,-0.01598 2.949339,-0.004 3.837036,0.581391 2.443957,1.611701 2.268701,5.619416 -0.447067,10.223385 -2.197446,3.725276 -8.350434,9.129267 -13.261083,11.64682 -0.963173,0.49379 -1.163959,0.444031 -1.761547,-0.436566 z M 65.307792,34.28983 c 0.679129,-0.889432 1.005199,-1.985791 0.590592,-1.985791 -0.267824,0 -1.960451,2.276819 -1.960451,2.63708 0,0.628339 0.616649,0.335154 1.369859,-0.651289 z m 3.564794,-4.285551 c 1.414275,-1.385123 1.73525,-1.945102 1.114915,-1.945102 -0.478456,0 -3.50265,2.961762 -3.50265,3.43034 0,0.350638 0.06407,0.372294 0.477546,0.161422 0.262652,-0.133953 1.122235,-0.874951 1.910189,-1.64666 z m 3.596724,-2.929063 c 0.844564,-0.58528 1.06191,-1.138472 0.447304,-1.138472 -0.496947,0 -1.974656,1.053993 -1.974656,1.408446 0,0.454788 0.646393,0.340531 1.527352,-0.269974 z"
       id="path1614" />
    <path
       style="fill:#a0a0a0;stroke:none;stroke-width:1"
       d=""
       id="path1616"
       transform="scale(0.26458333)" />
    <path
       style="fill:#0000ff;stroke:none;stroke-width:0.264582"
       d="m 88.921904,47.143957 c -3.332018,-0.888525 -10.486992,-1.045786 -14.26569,-0.313553 -0.817136,0.158344 -1.512026,0.263238 -1.544194,0.233099 -0.03217,-0.03014 0.875167,-0.751549 2.016309,-1.603139 3.171706,-2.366916 6.677499,-6.000466 8.728221,-9.046295 0.953773,-1.416597 1.886506,-2.702086 2.072737,-2.856638 0.480224,-0.398558 2.782082,-0.493203 3.793292,-0.155972 1.326664,0.442436 1.215711,0.815621 -0.881734,2.96553 -2.263815,2.320447 -4.380827,4.057822 -7.074486,5.805843 -2.316492,1.503263 -2.777323,1.941733 -2.252459,2.143143 0.188251,0.07224 0.342276,0.264387 0.342276,0.427001 0,0.355266 0.39968,0.376652 1.206579,0.06456 0.871503,-0.337085 5.313805,-1.185162 8.167436,-1.559241 2.417808,-0.316946 2.506549,-0.313739 4.136099,0.149553 1.420891,0.403971 1.675646,0.54676 1.735981,0.973007 0.08438,0.596183 -1.533682,2.267028 -2.75808,2.848041 -0.930943,0.441762 -1.534173,0.428554 -3.422287,-0.07493 z"
       id="path1618" />
    <path
       style="fill:#a0a0a0;stroke:none;stroke-width:0.264582"
       d="m 44.133368,94.535695 c -0.969655,-1.071465 -0.977582,-5.000378 -0.02,-9.913705 0.295762,-1.517543 0.591916,-3.451611 0.658124,-4.297923 0.205512,-2.627007 -0.366338,-2.162467 -3.984428,3.236705 -2.137824,3.190212 -4.998039,6.338851 -5.98269,6.585987 -1.58119,0.396853 -1.859902,-0.622125 -1.29344,-4.728861 l 0.124422,-0.902031 h -2.029963 c -1.116479,0 -2.507374,-0.102392 -3.090877,-0.227529 -2.914603,-0.625071 -4.361201,-3.309424 -3.545185,-6.578554 0.447597,-1.793166 1.970863,-4.83556 3.297901,-6.586841 1.541871,-2.034794 4.661503,-4.919414 7.506236,-6.940768 1.364174,-0.969328 2.579796,-1.948299 2.701389,-2.175492 0.140559,-0.26264 0.443925,-0.413083 0.832977,-0.413083 0.826407,0 1.283349,-0.19701 1.283349,-0.553313 0,-0.493548 0.736495,-0.331454 1.308625,0.288009 0.29649,0.321019 0.831265,1.013462 1.188393,1.538766 0.857528,1.261347 2.392212,2.707452 4.041268,3.808015 1.949942,1.301371 1.980874,1.446679 0.917142,4.308257 -1.215906,3.270943 -1.5158,4.959248 -1.649766,9.287668 -0.08832,2.853488 -0.03446,4.230714 0.23237,5.942804 0.879548,5.643411 0.858608,5.340153 0.430919,6.241011 -0.472762,0.9958 -1.820934,2.460967 -2.264452,2.460967 -0.17508,0 -0.473122,-0.171043 -0.662311,-0.380089 z"
       id="path1620" />
    <path
       style="fill:#ffffff;stroke:none;stroke-width:0.264582"
       d="m 44.045156,94.12941 c -0.68555,-1.046283 -0.634225,-4.584329 0.134182,-9.249783 0.681909,-4.140247 0.811512,-5.973601 0.438589,-6.204084 -0.303965,-0.187854 -1.19187,0.816213 -2.763709,3.125285 -3.517568,5.167398 -6.27664,8.233362 -7.409234,8.233362 -0.951935,0 -1.1522,-0.573352 -1.001516,-2.867308 0.06996,-1.065154 0.182237,-2.08003 0.249486,-2.255278 0.102557,-0.267251 -0.332529,-0.353726 -2.697864,-0.53622 -3.162168,-0.243961 -4.222923,-0.621697 -5.113204,-1.820809 -1.51228,-2.036864 -1.32687,-4.461858 0.632242,-8.269156 1.786676,-3.472198 4.412983,-6.308958 9.089337,-9.817709 1.284071,-0.96346 2.517928,-1.957971 2.741907,-2.210025 0.223978,-0.252051 0.781343,-0.5181 1.238586,-0.591214 0.457242,-0.07312 0.881139,-0.262687 0.941995,-0.42127 0.06086,-0.158582 0.273574,-0.288331 0.472711,-0.288331 0.404797,0 0.995925,0.602449 2.310697,2.354945 0.92816,1.237168 2.189864,2.383076 3.927815,3.567329 1.579315,1.076157 1.624957,1.330926 0.717303,4.003852 -1.302456,3.835561 -1.44235,4.672944 -1.568332,9.388006 -0.100636,3.766407 -0.05573,4.742108 0.334158,7.262055 0.675018,4.362718 0.65634,4.516941 -0.759189,6.268451 -0.843337,1.043504 -1.386204,1.136409 -1.91596,0.327902 z"
       id="path1622" />
    <path
       style="fill:#ffffff;stroke:none;stroke-width:0.264582"
       d="m 44.172243,94.141075 c -0.546988,-0.65765 -0.490321,-5.020722 0.120277,-9.260553 0.613306,-4.258629 0.699341,-6.307466 0.264868,-6.307466 -0.423028,0 -1.188735,0.900597 -3.338412,3.926497 -2.324114,3.271446 -4.600325,6.031863 -5.606906,6.799611 -0.478971,0.365335 -0.928431,0.530217 -1.322214,0.485063 l -0.59658,-0.06842 -3.57e-4,-2.544942 -3.55e-4,-2.544947 -0.954729,-0.144696 c -0.525099,-0.07959 -1.779904,-0.241942 -2.788453,-0.360774 -1.00855,-0.118841 -2.165951,-0.354891 -2.572002,-0.524548 -1.623361,-0.678278 -2.651742,-3.020571 -2.258989,-5.145169 0.560421,-3.031596 2.838398,-6.840819 5.893074,-9.854367 2.471567,-2.43829 7.704741,-6.563628 8.661302,-6.827747 0.379962,-0.104915 0.747682,-0.282724 0.817157,-0.395134 0.285697,-0.462268 0.974965,-0.147729 1.735586,0.792001 1.593038,1.968172 2.95548,3.325397 4.52073,4.50341 1.140242,0.858151 1.609729,1.349978 1.654939,1.733681 0.03472,0.294615 -0.319486,1.740545 -0.787107,3.213177 -0.467619,1.47263 -0.949695,3.470811 -1.07127,4.440404 -0.325186,2.593429 -0.269437,9.263649 0.09731,11.643343 0.443835,2.879836 0.410482,4.194906 -0.1292,5.093832 -0.979075,1.630817 -1.738981,2.068738 -2.338668,1.347728 z"
       id="path1624" />
    <path
       style="fill:#ffff00;stroke:none;stroke-width:0.264582"
       d="m 20.250391,76.237073 c -0.401953,-0.09792 -0.605754,-0.370384 -0.536429,-0.717147 0.182362,-0.912185 2.062971,-2.935642 5.364962,-5.772485 1.804516,-1.550318 4.01205,-3.509714 4.920724,-4.367614 0.193198,-0.182402 0.190653,-0.201306 -0.09866,-0.732861 -0.19618,-0.360443 -0.347533,-0.526225 -0.445953,-0.488457 -0.252757,0.097 -3.695484,0.567892 -5.596516,0.765499 -2.555613,0.265646 -7.494465,0.271758 -8.338398,0.01033 -1.232744,-0.381891 -1.223993,-0.808219 0.039,-1.90016 1.574328,-1.361105 2.34994,-1.531093 4.277993,-0.937603 2.172116,0.66862 4.601444,0.94945 8.213204,0.94945 3.590027,0 7.080314,-0.391902 8.967275,-1.006876 0.2984,-0.09725 -0.173254,0.305919 -1.529466,1.307392 -2.841582,2.098313 -4.829839,3.821563 -6.697483,5.804788 -1.623644,1.724131 -2.63888,3.112585 -3.43424,4.696727 -0.599813,1.194658 -1.065145,1.730462 -1.763947,2.03108 -0.777916,0.334651 -2.625466,0.532532 -3.342076,0.357953 z"
       id="path1627" />
    <path
       style="fill:#a0a0a0;stroke:none;stroke-width:0.264582"
       d="m 67.511124,47.580977 c -0.147614,-0.160511 -0.545574,-0.665602 -0.884355,-1.122426 -0.79528,-1.072376 -1.978763,-2.265512 -3.779405,-3.810219 -1.647388,-1.41324 -1.810153,-1.608392 -1.661689,-1.99234 0.557646,-1.442126 1.261955,-4.468131 1.510688,-6.490528 0.453125,-3.684277 0.406866,-10.203907 -0.09325,-13.141549 -0.144067,-0.846247 -0.294954,-1.931632 -0.335303,-2.411968 -0.06819,-0.811824 -0.05321,-0.914523 0.21274,-1.458112 0.307025,-0.62753 1.736772,-2.230363 2.089329,-2.342262 0.484096,-0.153645 0.995067,0.711291 1.17599,1.99063 0.208822,1.476622 -0.03811,3.973003 -0.921418,9.314919 -0.62404,3.773985 -0.618017,4.457868 0.03927,4.457868 0.440502,0 0.944048,-0.593525 3.241214,-3.820375 2.418923,-3.397889 3.678132,-4.985486 4.815233,-6.070978 0.800903,-0.764559 1.901188,-1.463658 2.303587,-1.463658 0.39229,0 0.502758,0.676687 0.557695,3.41628 l 0.05255,2.620372 2.877336,0.03267 c 2.768057,0.03143 2.896472,0.04209 3.381408,0.280909 1.577886,0.777056 2.363214,2.534508 2.099979,4.699476 -0.173411,1.426195 -0.572735,2.650912 -1.43171,4.390984 -0.909363,1.842157 -1.91457,3.242751 -3.583478,4.992995 -2.963213,3.107628 -7.049402,6.267573 -10.144278,7.844805 -0.886801,0.451939 -1.168353,0.4672 -1.522143,0.0825 z M 64.512917,35.149546 c 0.647349,-0.394751 1.434401,-1.574943 1.584745,-2.376348 0.06014,-0.320551 0.03895,-0.405163 -0.11636,-0.464761 -0.234409,-0.08996 -0.80033,0.513414 -1.547163,1.649531 -0.476625,0.725062 -0.618442,1.147268 -0.443963,1.321746 0.104297,0.104298 0.161656,0.09001 0.522741,-0.130168 z m 2.456522,-3.440715 c 0.449215,-0.249553 2.170427,-1.824175 2.743628,-2.509963 0.630692,-0.754573 0.745398,-1.170796 0.322664,-1.170796 -0.389027,0 -1.38639,0.847551 -2.848426,2.420568 -0.551225,0.59307 -0.72096,0.849153 -0.72096,1.087749 0,0.339105 0.125592,0.382155 0.503094,0.172442 z m 5.333595,-4.469851 c 0.948645,-0.57571 1.318177,-1.333341 0.650333,-1.333341 -0.608424,0 -2.029915,1.002021 -2.029915,1.430903 0,0.480245 0.483872,0.446023 1.379582,-0.09756 z"
       id="path1629" />
    <path
       style="fill:#ffffff;stroke:none;stroke-width:0.264582"
       d="m 67.512945,47.580977 c -0.146612,-0.160511 -0.579692,-0.69775 -0.962397,-1.19387 -0.876618,-1.13639 -1.880456,-2.146431 -3.661884,-3.684495 -0.771204,-0.66585 -1.493428,-1.33588 -1.604936,-1.488959 -0.201655,-0.276824 -0.20109,-0.283224 0.104602,-1.187099 0.42792,-1.265313 0.894178,-3.213755 1.144373,-4.782215 0.606862,-3.804408 0.644278,-10.811316 0.07567,-14.171439 -0.147762,-0.873189 -0.301342,-1.980617 -0.341286,-2.460953 -0.06746,-0.81115 -0.05226,-0.914974 0.213473,-1.458112 0.307025,-0.62753 1.736773,-2.230363 2.089329,-2.342262 0.464838,-0.147532 0.976832,0.678738 1.164452,1.879232 0.225158,1.440676 -0.02167,4.071526 -0.854513,9.108713 -0.66898,4.045999 -0.678569,4.775472 -0.06278,4.775472 0.515741,0 0.878549,-0.430746 3.664726,-4.350985 2.031599,-2.858522 3.340141,-4.49195 4.438403,-5.540368 0.800902,-0.764559 1.901187,-1.463658 2.303586,-1.463658 0.392291,0 0.502759,0.676687 0.557695,3.41628 l 0.05255,2.620372 2.877331,0.03267 c 2.768065,0.03143 2.896472,0.04209 3.381408,0.280909 0.686768,0.338209 1.365269,1.023337 1.70288,1.719529 0.83361,1.718952 0.513777,4.193074 -0.927617,7.175779 -0.732073,1.514897 -1.229703,2.306154 -2.225075,3.537984 -2.707453,3.350624 -7.867767,7.588516 -11.483605,9.430875 -1.014527,0.51693 -1.286036,0.541106 -1.646387,0.146598 z M 64.444656,35.194062 c 0.616396,-0.318754 1.504905,-1.617376 1.652953,-2.41593 0.06031,-0.32527 0.03932,-0.409973 -0.116307,-0.469695 -0.230448,-0.08843 -0.758695,0.47466 -1.537161,1.638563 -0.484095,0.723787 -0.631159,1.15552 -0.453965,1.332714 0.09568,0.09568 0.108475,0.09327 0.45448,-0.08565 z m 2.605359,-3.542612 c 0.481481,-0.29673 2.005213,-1.707974 2.658013,-2.461782 0.619767,-0.715665 0.75655,-1.161596 0.356305,-1.161596 -0.320363,0 -0.754356,0.330833 -1.940086,1.478928 -1.204896,1.166653 -1.657902,1.738288 -1.657902,2.092068 0,0.300162 0.158533,0.314388 0.58367,0.05238 z m 5.111454,-4.324971 c 0.621141,-0.354052 1.09666,-0.858641 1.09666,-1.163698 0,-0.381454 -0.460915,-0.337429 -1.226644,0.11716 -0.713528,0.423604 -1.108033,0.818263 -1.108033,1.108476 0,0.384694 0.49818,0.359769 1.238017,-0.06193 z"
       id="path1631" />
    <path
       style="fill:#00ffff;stroke:none;stroke-width:0.264582"
       d="m 44.387432,94.390163 c -0.894331,-0.626413 -0.942103,-3.903096 -0.138472,-9.497919 0.495664,-3.450768 0.612559,-4.64338 0.568427,-5.799318 -0.04447,-1.164919 -0.890346,-0.392939 -3.238705,2.955781 -2.332559,3.326192 -3.408669,4.684893 -4.935303,6.231339 -1.62674,1.647848 -2.2265,1.967759 -2.768877,1.476914 -0.413359,-0.374085 -0.488224,-1.174372 -0.300621,-3.213581 0.09271,-1.007725 0.145418,-1.85537 0.117132,-1.883658 -0.02829,-0.02829 -0.689071,-0.125683 -1.468411,-0.216436 -0.779338,-0.09075 -1.964984,-0.230401 -2.634768,-0.310326 -2.236705,-0.266912 -3.235947,-0.819328 -3.990812,-2.206264 -0.912614,-1.676773 -0.812665,-3.516069 0.33583,-6.180025 1.77696,-4.121697 4.426885,-7.14128 10.094655,-11.50284 0.896527,-0.689909 1.918496,-1.504032 2.271045,-1.80916 0.409581,-0.354491 0.919363,-0.621558 1.412046,-0.739751 0.424078,-0.101734 0.80676,-0.278036 0.850408,-0.39178 0.14559,-0.379399 0.725359,-0.216907 1.264556,0.354416 0.291315,0.308675 0.935551,1.066327 1.431636,1.683674 1.107172,1.37781 1.886546,2.10369 3.61837,3.370022 1.377912,1.007546 1.723951,1.493802 1.56177,2.194602 -0.04416,0.190816 -0.4114,1.418843 -0.816089,2.728947 -1.137178,3.681393 -1.224612,4.369683 -1.237334,9.740439 -0.0097,4.105628 0.0276,4.885078 0.324405,6.774163 0.422348,2.688152 0.428432,3.606409 0.02908,4.389215 -0.321431,0.630054 -1.630814,2.081516 -1.877767,2.081516 -0.07913,0 -0.291619,-0.103486 -0.472197,-0.22997 z"
       id="path1633" />
    <path
       style="fill:#a0a0a0;stroke:none;stroke-width:1"
       d=""
       id="path1635"
       transform="scale(0.26458333)" />
    <path
       style="fill:#ffffff;stroke:none;stroke-width:0.264582"
       d="m 20.06753,76.050327 c -0.883529,-0.51461 0.623579,-2.295562 5.874149,-6.941493 1.605102,-1.420263 3.215209,-2.848019 3.578018,-3.172789 0.692045,-0.619493 0.751388,-0.952319 0.282222,-1.582868 -0.18305,-0.246015 -0.34003,-0.23909 -2.887451,0.127371 -3.633916,0.52276 -10.469443,0.693069 -11.531885,0.287318 -0.441522,-0.168618 -0.665392,-0.343351 -0.665392,-0.519346 0,-0.365754 1.502587,-1.754701 2.279993,-2.10756 0.85071,-0.386134 1.22866,-0.369474 3.283667,0.144741 2.705535,0.676992 4.277085,0.803046 8.861128,0.710746 3.141563,-0.06326 4.429482,-0.149608 5.701958,-0.382305 0.904065,-0.165325 1.666284,-0.278065 1.693817,-0.250532 0.02753,0.02753 -0.880528,0.760517 -2.017906,1.628855 -4.537041,3.463817 -7.365853,6.443851 -9.138108,9.626602 -0.909887,1.634047 -1.429844,2.123274 -2.532323,2.382663 -1.025208,0.24121 -2.409667,0.265395 -2.781887,0.0486 z"
       id="path1637" />
    <path
       style="fill:#ffffff;stroke:none;stroke-width:0.264582"
       d="m 20.055059,75.96254 c -0.597733,-0.597731 1.130915,-2.519133 6.784579,-7.541091 1.605102,-1.425759 3.000409,-2.69748 3.100682,-2.82605 0.274171,-0.351539 0.227959,-0.977808 -0.09363,-1.268838 -0.270597,-0.244887 -0.419521,-0.241851 -2.860109,0.05831 -4.715394,0.579937 -11.271277,0.671482 -11.88047,0.165897 -0.383017,-0.317877 -0.28917,-0.535254 0.570144,-1.320618 1.483495,-1.35583 2.072685,-1.467368 4.602493,-0.871279 2.724059,0.641859 3.889529,0.72676 8.804284,0.641365 3.232635,-0.05617 4.934636,-0.148433 5.827981,-0.315935 0.69402,-0.130127 1.279207,-0.219241 1.300415,-0.198033 0.02121,0.02121 -0.98438,0.843006 -2.234644,1.826215 -2.542317,1.999282 -6.128667,5.48062 -7.170682,6.960717 -0.376674,0.535033 -1.034049,1.545237 -1.460834,2.244898 -1.012009,1.659061 -1.406025,2.056082 -2.305663,2.323245 -0.750431,0.222854 -2.799676,0.306071 -2.984549,0.121197 z"
       id="path1639" />
    <path
       style="fill:#a0a0a0;stroke:none;stroke-width:1"
       d=""
       id="path1641"
       transform="scale(0.26458333)" />
    <path
       style="fill:#d35f5f;stroke:none;stroke-width:0.264582"
       d="m 87.570189,76.053342 c -1.32035,-0.198415 -1.950608,-0.598694 -2.752702,-1.748248 -1.868795,-2.678336 -3.000421,-4.038069 -5.14247,-6.179077 -2.56817,-2.56692 -4.813437,-4.436672 -8.536069,-7.108442 -1.358165,-0.974765 -2.499028,-1.795147 -2.535252,-1.823068 -0.03623,-0.02792 0.04863,-0.773168 0.188567,-1.656103 0.313332,-1.976985 0.323534,-4.120652 0.02698,-5.670402 -0.123455,-0.645166 -0.224475,-1.250476 -0.22449,-1.345135 -5.8e-5,-0.400471 3.955126,-1.800228 6.734668,-2.383429 4.437359,-0.931042 9.248033,-0.776183 12.795916,0.411909 4.210683,1.410047 6.745611,3.875345 6.460457,6.283004 -0.146639,1.238155 -0.904428,2.428871 -2.757726,4.333228 l -1.691316,1.737914 1.920327,1.279144 c 2.069177,1.378294 2.934196,2.29227 2.62896,2.777745 -0.51261,0.815301 -2.29902,1.158044 -4.824056,0.925548 -1.937094,-0.178359 -2.449536,-0.256158 -6.562896,-0.996363 -1.628415,-0.293036 -3.222348,-0.498713 -3.666664,-0.473134 -0.683125,0.03932 -0.792218,0.08902 -0.833527,0.379749 -0.06242,0.439285 0.358872,0.818278 2.666577,2.398835 3.007898,2.06012 5.681694,4.107506 6.830766,5.230476 1.047996,1.024186 1.994978,2.408562 1.997761,2.920487 0.0033,0.602584 -1.249281,0.926948 -2.723813,0.705362 z"
       id="path1643" />
    <path
       style="fill:#ffff00;stroke:none;stroke-width:0.264582"
       d="M 67.771115,47.66207 C 67.688535,47.6016 67.136497,46.971086 66.544366,46.260936 65.61525,45.146634 64.09812,43.660308 61.787961,41.601113 l -0.595885,-0.531153 0.182497,-0.650077 c 0.987747,-3.518488 1.308471,-5.22771 1.549413,-8.257254 0.24314,-3.057166 0.0853,-9.072003 -0.303074,-11.549281 -0.4071,-2.596732 -0.397915,-2.877035 0.120416,-3.674781 0.558175,-0.859073 1.790833,-2.119317 2.003566,-2.048407 0.367889,0.12263 0.733887,0.859563 0.895507,1.803094 0.216426,1.263491 0.01085,3.667773 -0.707608,8.276185 -0.72118,4.62579 -0.769501,5.184287 -0.474093,5.479692 0.559608,0.559609 1.017246,0.112592 3.67781,-3.592466 3.427262,-4.772752 5.096743,-6.641008 6.558358,-7.339225 0.785368,-0.375173 0.842258,-0.206383 0.996553,2.956739 l 0.137511,2.819015 2.855685,0.06257 c 3.245869,0.07112 3.612284,0.17034 4.512415,1.221942 1.437794,1.679739 1.243144,4.467865 -0.567036,8.122081 -0.931382,1.88018 -1.854535,3.132026 -3.780463,5.126508 -2.753756,2.85178 -7.308117,6.373042 -9.730993,7.523644 -0.950576,0.451419 -1.107562,0.487786 -1.347425,0.312131 z"
       id="path1645"
       sodipodi:nodetypes="ssscssssssssssscssssss" />
  </g>
  <g
     inkscape:label="Слой 1"
     inkscape:groupmode="layer"
     id="layer1" />
</svg>
