<?xml version="1.0" encoding="UTF-8" standalone="no"?>
<svg
   xmlns:dc="http://purl.org/dc/elements/1.1/"
   xmlns:cc="http://creativecommons.org/ns#"
   xmlns:rdf="http://www.w3.org/1999/02/22-rdf-syntax-ns#"
   xmlns:svg="http://www.w3.org/2000/svg"
   xmlns="http://www.w3.org/2000/svg"
   xmlns:sodipodi="http://sodipodi.sourceforge.net/DTD/sodipodi-0.dtd"
   xmlns:inkscape="http://www.inkscape.org/namespaces/inkscape"
   width="111mm"
   height="111mm"
   viewBox="0 0 111 111"
   version="1.1"
   id="svg8"
   inkscape:version="1.0.2 (e86c870879, 2021-01-15, custom)"
   sodipodi:docname="цветочек.svg">
  <defs
     id="defs2" />
  <sodipodi:namedview
     id="base"
     pagecolor="#ffffff"
     bordercolor="#666666"
     borderopacity="1.0"
     inkscape:pageopacity="0.0"
     inkscape:pageshadow="2"
     inkscape:zoom="1.4"
     inkscape:cx="209.89365"
     inkscape:cy="264.36216"
     inkscape:document-units="mm"
     inkscape:current-layer="layer2"
     inkscape:document-rotation="0"
     showgrid="false"
     inkscape:window-width="1423"
     inkscape:window-height="914"
     inkscape:window-x="154"
     inkscape:window-y="80"
     inkscape:window-maximized="0"
     showguides="true"
     inkscape:lockguides="true" />
  <metadata
     id="metadata5">
    <rdf:RDF>
      <cc:Work
         rdf:about="">
        <dc:format>image/svg+xml</dc:format>
        <dc:type
           rdf:resource="http://purl.org/dc/dcmitype/StillImage" />
        <dc:title></dc:title>
      </cc:Work>
    </rdf:RDF>
  </metadata>
  <g
     inkscape:groupmode="layer"
     id="layer5"
     inkscape:label="Слой 4"
     style="display:inline" />
  <g
     inkscape:groupmode="layer"
     id="layer3"
     inkscape:label="Слой 3" />
  <g
     inkscape:groupmode="layer"
     id="layer2"
     inkscape:label="Слой 2"
     style="display:inline">
    <path
       id="path1600"
       style="fill:#000000;stroke-width:1"
       d="M 3.761827,72.333747 C 1.571519,70.560144 3.12251,68.448005 6.035423,66.727305 L 7.751346,65.713687 5.984445,63.843827 C 1.818174,59.434791 1.756003,56.004138 5.764445,51.703935 L 7.308648,50.047329 5.074024,47.939812 C 1.703223,44.760735 2.211456,42.778083 6.609776,41.948735 9.073532,41.484169 16.093814,42.069719 19.143414,42.994148 19.820185,43.19929 18.712742,42.132885 16.682431,40.624344 7.215456,33.590261 5.744745,28.629391 13.281185,29.151542 l 3.094388,0.214395 -3.82e-4,-3.291565 c -5.56e-4,-4.786391 2.693721,-7.475236 7.490347,-7.475236 h 3.307056 l -0.01557,-3.537663 c 0.141248,-3.552167 0.407417,-3.708239 2.080932,-3.737687 2.530011,-0.241382 7.738221,4.838375 11.093017,10.819421 1.089384,1.942191 1.784618,2.977535 1.544968,2.300764 -4.77643,-13.488637 -0.71754,-25.7783914 5.08773,-15.4049464 0.589508,1.0533924 0.799837,0.9763444 2.802957,-1.026771 3.544515,-3.544522 7.741414,-3.610809 11.175709,-0.176517 l 1.974753,1.974756 2.155624,-2.373384 c 3.191127,-3.513491 5.257858,-3.061852 6.059912,1.324257 0.44827,2.4513764 -0.134655,9.7680404 -1.002302,12.5807514 -0.213117,0.69086 0.846781,-0.405053 2.355321,-2.435364 6.981623,-9.3963934 12.007124,-10.9378594 11.472784,-3.519032 l -0.2144,2.976607 2.84984,-9.23e-4 c 4.96425,-0.0016 8.1536,3.191283 8.1536,8.162628 v 2.85978 c 0,0 2.363905,-0.115581 3.41934,-0.01007 2.527631,0.235878 3.960451,0.291133 4.404481,1.785943 0.47682,1.959053 -5.623481,8.0389 -11.604531,11.393695 -1.94219,1.089385 -2.97753,1.784619 -2.30076,1.544969 12.847821,-4.54951 24.790171,-1.365406 16.294521,4.344484 l -1.79598,1.207076 1.75177,1.854256 c 4.15011,4.392884 4.20817,7.82961 0.2049,12.124296 l -1.5442,1.656605 2.23462,2.107517 c 2.4726,2.331954 2.75044,3.511866 1.19365,5.068673 -1.10113,1.101116 -12.441331,1.064411 -15.263041,-0.04941 -0.67677,-0.26714 0.43067,0.757348 2.46098,2.276649 9.456641,7.076464 10.845461,11.585562 3.56843,11.585562 h -3.2608 v 3.13776 c 0,4.62155 -2.76231,7.32142 -7.49073,7.32142 h -3.30707 c 0,0 0.08622,1.761573 0.0156,3.537662 -0.07062,1.77609 -0.215397,3.88576 -1.891941,4.06842 -1.676543,0.18266 -7.927211,-5.169112 -11.282003,-11.150142 -1.089384,-1.9422 -1.784618,-2.97754 -1.54497,-2.30077 4.776431,13.488632 0.717543,25.778392 -5.08773,15.404952 -0.589619,-1.0536 -0.798914,-0.97728 -2.795775,1.01959 -3.548899,3.54889 -7.745998,3.62058 -11.175716,0.19086 l -1.981928,-1.98193 -2.155628,2.37337 c -2.17567,2.39547 -3.211994,2.79389 -4.743391,1.82363 l -1.3e-5,-3e-5 c -1.764188,-1.11773 -1.950127,-10.425422 -0.314212,-15.728642 0.213117,-0.69086 -0.846781,0.40506 -2.355323,2.43537 -7.016508,9.443342 -11.566016,10.846992 -11.566016,3.56843 v -3.2608 h -3.137752 c -4.621553,0 -7.321425,-2.76231 -7.321425,-7.49074 v -3.307061 c 0,0 -2.491333,0.102236 -3.537662,0.01559 C 11.790835,85.866347 10.834772,85.720679 10.11505,85.486661 9.395327,85.252643 7.639033,84.789131 8.887641,82.771047 10.136249,80.752963 22.289703,71.215248 22.289703,71.215248 21.297632,71.023076 5.952153,74.107379 3.761845,72.333777 Z m 20.680611,-1.412371 c -1.319204,1.208248 -2.967412,2.721629 -4.280302,3.894699 -1.31289,1.173069 -12.896441,10.240829 -7.596305,10.221222 3.742339,-0.0139 4.782868,-0.561977 5.908043,-3.112246 1.478094,-3.350177 6.577329,-8.755351 11.72163,-12.424897 2.380978,-1.698412 3.871741,-2.929069 3.312802,-2.734801 -5.265332,1.830074 -16.901125,1.97534 -21.843058,0.272709 -2.729157,-0.940273 -3.691899,-0.694236 -6.211052,1.587267 -4.78093097,4.329921 15.901743,1.671266 18.281115,1.075012 m 21.854752,36.498409 c 1.040906,-1.58864 1.040716,-1.91313 -0.0044,-7.465512 -1.271369,-6.75424 -0.602611,-15.421492 1.568643,-20.329971 1.673783,-3.78386 1.609269,-4.002111 -1.811551,-6.12861 -1.766484,-1.098104 -3.619923,-2.914308 -4.45528,-4.365778 -0.786735,-1.366983 -1.91768,-2.612843 -2.513208,-2.768573 -0.595531,-0.155727 -0.94556,-0.06115 -0.777843,0.210234 0.409267,0.662207 -1.47351,1.347424 -2.299559,0.836901 -0.360132,-0.222582 -0.482489,-0.125891 -0.271902,0.214838 0.210583,0.340733 -1.061723,1.544512 -2.827355,2.675068 C 16.651223,79.031845 12.12208,95.504678 24.93152,95.504678 h 3.729368 l -0.385837,3.69147 c -0.706185,6.756422 4.24929,3.849242 10.650442,-6.24817 4.161787,-6.564951 4.932191,-6.320189 3.303054,1.04942 -2.625502,11.876782 -0.790325,18.537892 3.361546,12.201332 z m 14.936907,0.094 c 2.227624,-2.41273 3.570608,-2.75275 4.113742,-1.0415 0.197816,0.62325 1.038934,1.77133 1.869159,2.55129 3.833736,3.60161 4.809885,-4.18918 1.920521,-15.327982 -0.43888,-1.6919 -0.587998,-2.94643 -0.33138,-2.78784 0.256619,0.15861 0.566647,-0.0113 0.688953,-0.37873 0.122289,-0.36691 1.523348,1.38661 3.113439,3.89673 3.084448,4.86908 8.627221,10.558062 9.86424,10.124422 0.494265,-0.17325 0.711805,-1.54514 0.641175,-4.043372 l -0.10689,-3.78114 h 3.83708 c 5.21756,0 7.14353,-1.82282 7.14353,-6.76092 0,-7.589763 -7.03182,-15.449015 -21.217354,-23.713999 C 71.084366,64.45942 71.045694,64.052663 71.68628,61.065689 73.115571,54.401161 70.089963,47.266079 64.311361,43.673899 60.918772,41.564953 60.922144,41.580362 62.767783,36.608327 65.093356,30.343378 65.50682,19.832111 63.653879,14.081526 61.321569,6.8432366 54.728251,4.2572326 50.465404,8.9087996 48.141229,11.444918 46.796202,11.819077 46.245126,10.08279 46.04731,9.4595426 45.206194,8.3114646 44.375967,7.5315066 40.542229,3.9298976 39.566082,11.720683 42.455449,22.859477 c 0.438874,1.691915 0.587993,2.946441 0.331374,2.787841 -0.256621,-0.158611 -0.566647,0.01191 -0.688949,0.37874 -0.122317,0.366905 -1.523349,-1.386622 -3.113439,-3.896728 -3.071241,-4.848239 -8.617614,-10.550303 -9.864239,-10.141131 -0.906333,0.297477 -1.288161,3.025346 -0.792953,5.66503 0.283824,1.512921 0.933691,2.213732 2.972659,3.20569 4.132663,2.010543 8.678073,6.540555 13.039775,12.995605 4.726437,6.994834 4.866289,7.893723 1.546768,9.94163 -5.015184,3.094004 -7.931748,10.395105 -6.715155,16.810178 0.316553,1.669181 0.437042,3.258982 0.267756,3.532896 -0.169285,0.273913 -0.08665,0.590882 0.183678,0.704381 0.270311,0.113497 1.143478,1.274163 1.940372,2.579259 0.796893,1.305096 2.956527,3.337313 4.799185,4.51605 2.400168,1.53537 3.258381,2.43275 3.026201,3.164313 -0.178262,0.56164 -0.747573,2.172292 -1.265162,3.579235 -6.433096,17.486882 2.791691,38.021054 12.403668,27.610284 z m 40.1365,-22.475965 c 0,-1.979135 -4.034181,-5.888554 -9.939651,-9.63227 -6.56495,-4.161785 -6.32019,-4.93219 1.04942,-3.303052 12.572551,2.779311 18.660241,0.824923 11.525161,-3.700019 l -2.71454,-1.721513 2.27572,-2.050692 C 114.39579,53.01377 93.324509,43.624985 75.088652,51.035275 l -2.503101,1.017161 0.616625,2.694646 c 0.410436,1.79362 0.411782,3.694625 0.0044,5.685165 l -0.612594,2.990509 4.644657,3.274613 c 6.21203,4.379651 12.85548,10.789225 15.11939,14.587113 1.97046,3.305617 2.41458,3.578785 5.99864,3.689654 1.919721,0.05936 2.307171,-0.134968 2.307171,-1.157351 z M 30.033742,65.927272 c 1.793179,-0.363476 4.379055,-1.104249 5.746395,-1.646169 l 2.486074,-0.985311 -0.599595,-2.927023 c -0.400254,-1.953918 -0.386695,-3.857395 0.04079,-5.725478 L 38.347781,51.844839 35.193503,50.66467 C 21.49106,45.537931 4.685144,49.381081 4.685144,57.641272 c 0,6.936526 12.250426,10.940969 25.348601,8.286 z M 40.849023,47.829522 C 41.91987,46.3103 43.900684,44.303061 45.250828,43.368991 48.408794,41.184219 48.410565,41.197265 44.074135,34.714232 37.639403,25.094201 31.758758,20.50078 25.204026,19.974628 19.765978,19.538115 17.6053,21.58002 17.6053,27.155648 v 3.729368 L 13.913825,30.49918 c -6.756412,-0.706185 -3.849238,4.249289 6.24817,10.650442 6.564957,4.161786 6.320191,4.932191 -1.049415,3.303054 C 6.843256,41.740399 0.32750703,43.726503 7.31907,48.047528 c 1.928754,1.192035 2.176437,1.207412 4.775937,0.296522 4.324926,-1.515492 20.810487,-0.677958 24.345736,1.236865 2.391686,1.29543 2.209727,1.367721 4.40828,-1.751393 z m 38.58847,-2.370264 C 94.845779,35.050687 98.498409,18.188056 84.942249,20.046134 l -2.768464,0.37946 0.408744,-3.989543 c 0.72298,-7.0567574 -4.083377,-4.364429 -10.622173,5.950103 -4.161787,6.564958 -4.932191,6.32019 -3.303051,-1.049415 2.421983,-10.956145 1.298833,-17.2075134 -2.383374,-13.2656964 -2.209815,2.3656154 -2.229964,2.5535954 -0.930721,8.6821864 1.279391,6.034947 0.05076,19.318195 -2.150664,23.251947 -0.424895,0.759248 0.05649,1.358883 2.163874,2.695336 1.490686,0.945367 3.581104,2.954217 4.645381,4.464112 l 1.935042,2.745261 1.904583,-0.978482 c 1.047524,-0.538171 3.565756,-2.100632 5.596067,-3.472145 z M 67.967564,31.672938 c 0.771195,-1.099752 1.531483,-1.999549 1.689541,-1.999549 0.531745,0 -0.909001,2.246347 -2.005462,3.126829 -0.7707,0.618889 -0.67893,0.291428 0.315921,-1.12728 z m 2.548867,-3.109348 c 0,-0.632348 4.216867,-4.739428 4.502582,-4.385357 0.117878,0.146053 -0.846995,1.303795 -2.144142,2.572739 -1.297142,1.268946 -2.35844,2.084624 -2.35844,1.812618 z m 5.537211,-5.257874 c 0,-0.14217 0.72624,-0.73436 1.613862,-1.315955 0.887627,-0.581595 1.425932,-0.753356 1.19623,-0.381691 -0.438954,0.710237 -2.810092,2.142702 -2.810092,1.697646 z m 29.377978,23.410425 c 1.85037,-1.685359 1.74551,-2.789508 -0.30762,-3.239389 -0.93056,-0.203909 -2.07688,-0.492264 -2.54737,-0.640808 -0.98177,-0.309958 -11.931321,1.466127 -14.083721,2.284466 -0.93126,0.354064 -1.30206,0.330283 -1.05607,-0.06773 0.20849,-0.337362 -0.11546,-0.613388 -0.7199,-0.613388 -0.60445,0 0.69125,-1.038225 2.87932,-2.307169 4.58769,-2.660575 11.953181,-9.488663 11.551271,-10.708456 -0.37253,-1.130617 -5.700621,-1.4522 -6.585651,-0.397485 -0.36949,0.440318 -1.7889,2.513044 -3.15426,4.606063 -2.40259,3.683019 -6.88394,8.005934 -11.970126,11.546909 -1.353541,0.942328 -1.949032,1.540096 -1.323308,1.328371 5.033164,-1.703057 17.336194,-1.607366 22.049695,0.171494 1.57067,0.592768 3.0789,0.03076 5.26774,-1.962878 z"
       sodipodi:nodetypes="sscsscssscscsscccssssscsssssccscccssscsscssssscssczzssssscsssssscssczzzszszsscssccscsssssscscsssccscssscssscsssssssssssssssssssssssssssscssscsscsccsssccssssscsssssscscssssssssscsssssssscsssssssssssssssssssssssssssssss" />
    <path
       style="fill:#ffffff;stroke:none;stroke-width:0.264582"
       d="m 53.756071,108.77371 c -1.471514,-0.51647 -3.805379,-3.05726 -4.920516,-5.35677 -1.555121,-3.2068 -2.231955,-6.384512 -2.381872,-11.182872 -0.163508,-5.233361 0.286863,-8.240188 2.003905,-13.378724 0.799355,-2.392221 1.162516,-3.878638 1.053626,-4.312502 -0.101726,-0.405317 -0.808383,-1.112548 -1.822262,-1.82374 -3.066255,-2.150858 -4.659034,-3.655999 -6.293004,-5.946762 -1.600149,-2.243344 -1.629306,-2.316411 -1.860809,-4.663544 -0.399111,-4.046491 -0.272342,-7.003901 0.395618,-9.229303 1.145616,-3.816771 2.930862,-6.371024 6.136355,-8.779631 2.797691,-2.102186 2.919092,-2.570279 1.425195,-5.495187 -1.414801,-2.770049 -4.93569,-7.799645 -7.487499,-10.695912 -2.586959,-2.936161 -5.185597,-5.137302 -8.014549,-6.788605 -1.271766,-0.742351 -2.54332,-1.659152 -2.825675,-2.037337 -0.733906,-0.982987 -0.959308,-4.545084 -0.375745,-5.938014 0,0 0.218147,-0.698029 0.496748,-0.803929 0.2786,-0.105901 0.807863,0.241798 0.807863,0.241798 1.30835,0.391597 5.844875,5.294144 9.314837,10.391857 2.303506,3.384073 2.455903,3.528916 3.221698,3.061968 0.686274,-0.418457 0.687056,-0.409444 -0.528056,-6.11278 C 41.031226,14.898185 40.822931,9.8178386 41.61568,8.0639516 c 0.674855,-1.493072 1.650258,-1.406386 3.192133,0.283691 0.646666,0.708815 1.381205,1.6736784 1.632316,2.1441394 0.318581,0.596864 0.650685,0.855383 1.098864,0.855383 0.713715,0 2.307449,-1.082429 3.536903,-2.4021904 3.50938,-3.767151 9.165443,-2.06371 11.797259,3.5529904 2.773104,5.918229 2.583371,16.878818 -0.435357,25.150338 -0.750363,2.056046 -0.976236,3.80496 -0.570098,4.41423 0.108306,0.162469 1.241164,1.034922 2.517475,1.93878 1.27631,0.903863 2.880451,2.278531 3.564751,3.054822 1.872917,2.124689 3.318131,5.241944 3.832534,8.266586 0.403809,2.374378 0.399696,2.715544 -0.06874,5.702822 -0.338862,2.160928 -0.413775,3.311287 -0.234174,3.59601 0.145245,0.23026 1.693924,1.308152 3.441512,2.395313 12.186821,7.581322 18.367581,15.012632 18.367581,22.083862 0,4.73595 -2.10688,6.4039 -8.08916,6.4039 h -2.89955 l -0.0041,3.55123 c -0.0023,1.953172 -0.114234,3.725282 -0.248827,3.938012 -0.797704,1.26081 -5.713128,-3.693762 -10.190899,-10.272042 -2.184068,-3.20861 -2.461865,-3.48982 -3.212198,-3.25168 -0.727165,0.2308 -0.709875,1.01034 0.09914,4.46962 1.423277,6.085822 1.749411,11.574112 0.802984,13.512902 -0.326011,0.66783 -0.725925,1.08112 -1.097303,1.134 -0.733624,0.10445 -2.610747,-1.54259 -3.301727,-2.89703 -1.054823,-2.06762 -1.78194,-1.9743 -4.511404,0.57898 -1.803733,1.6873 -3.970549,2.90644 -5.137403,2.89051 -0.368523,-0.005 -1.152475,-0.17847 -1.742111,-0.38542 z"
       id="path1602"
       sodipodi:nodetypes="ssssssssssssssszssssssssssssssssssssccsssssssscss" />
    <path
       style="fill:#a0a0a0;stroke:none;stroke-width:0.264582"
       d="M 18.088045,66.382613 C 11.878725,65.666299 7.012228,63.259586 5.513675,60.163991 4.82146,58.734063 4.779634,56.549056 5.418645,55.199801 c 2.545523,-5.374765 13.613969,-8.092988 24.183501,-5.939058 2.425586,0.494306 7.911524,2.230492 8.368724,2.648529 0.100945,0.09231 0.0092,0.891472 -0.203706,1.775929 -0.497589,2.066308 -0.508692,5.405302 -0.0256,7.699154 l 0.379667,1.802769 -2.122772,0.81863 c -2.865929,1.105216 -7.005028,2.063521 -10.367328,2.400288 -3.137756,0.314281 -4.656572,0.30956 -7.543093,-0.02341 z"
       id="path1604" />
    <path
       style="fill:#00ffff;stroke:none;stroke-width:0.264582"
       d="m 70.920928,48.183553 c -1.498574,-2.209171 -3.00217,-3.762131 -5.259794,-5.432476 -1.179277,-0.872509 -2.233455,-1.741558 -2.342616,-1.931227 -0.109156,-0.189665 0.04666,-0.899011 0.346269,-1.576325 1.355393,-3.064093 2.234499,-9.393186 2.219365,-15.978298 -0.0092,-4.039095 -0.117963,-5.448251 -0.586235,-7.600996 -0.844235,-3.881123 -0.783686,-5.218143 0.296209,-6.5405894 0.479084,-0.586685 1.269714,-1.343497 1.756958,-1.681805 l 0.885897,-0.615107 0.540294,0.540293 c 1.48041,1.48041 1.390086,5.4138224 -0.327897,14.2790914 -0.824405,4.254162 -0.888295,5.383866 -0.315122,5.572022 0.500708,0.164367 1.492543,-1.044365 4.27119,-5.205229 3.864856,-5.787396 6.569745,-8.724215 8.58477,-9.320882 0.447662,-0.132557 0.697283,-0.0075 1.045157,0.523363 0.395896,0.604215 0.433146,1.144255 0.278476,4.037468 l -0.178553,3.339954 1.143523,-0.203266 c 0.62894,-0.111794 2.229,-0.20313 3.55569,-0.20297 1.99088,2.44e-4 2.61104,0.106207 3.55093,0.606708 3.97603,2.117286 3.56538,7.984579 -1.0416,14.882351 -1.94326,2.909532 -6.93427,7.591472 -10.832895,10.162074 -3.242527,2.13799 -5.990405,3.702282 -6.475487,3.686312 -0.115453,-0.0038 -0.616997,-0.607011 -1.114529,-1.340466 z m -2.322583,-16.13357 c 0.930669,-1.087277 1.4406,-2.218136 1.137077,-2.521661 -0.190164,-0.190161 -2.599806,2.885377 -2.600023,3.318528 -2.97e-4,0.611335 0.482853,0.348157 1.462946,-0.796867 z m 4.580244,-5.421572 c 1.971399,-1.971398 2.346215,-2.559131 1.632035,-2.559131 -0.403269,0 -4.459185,3.921987 -4.459185,4.311943 0,0.682522 1.031079,0.04325 2.82715,-1.752812 z m 4.637124,-3.9009 c 1.122,-0.812774 1.416731,-1.338406 0.750467,-1.338406 -0.473784,0 -2.586376,1.53382 -2.586376,1.877803 0,0.48521 0.709061,0.276885 1.835909,-0.539397 z"
       id="path1606" />
    <path
       style="fill:#0000ff;stroke:none;stroke-width:0.264582"
       d="M 36.556644,49.530852 C 34.307305,48.527596 31.042033,47.993715 24.719853,47.595501 19.190392,47.247219 13.878317,47.539601 11.688935,48.312738 9.513772,49.080857 8.127828,48.704158 5.82625,46.719262 4.396351,45.48611 4.315197,44.655604 5.558231,43.976454 c 0.724904,-0.396059 1.500642,-0.471483 4.623301,-0.44951 3.077282,0.02165 4.499522,0.178149 7.906513,0.869972 4.586016,0.931235 6.968452,1.089071 6.968452,0.461653 0,-0.497831 -1.674843,-1.848231 -4.690304,-3.781712 -6.263717,-4.016237 -10.46667,-8.10711 -9.885424,-9.621807 0.29549,-0.77004 1.793184,-1.003501 4.500773,-0.701588 1.402139,0.15635 2.614399,0.28427 2.693913,0.28427 0.07952,0 0.144573,-1.333584 0.144573,-2.963518 0,-3.738529 0.339368,-5.116522 1.580507,-6.417583 1.458599,-1.529023 3.889074,-1.979648 7.244827,-1.343246 5.890918,1.117193 11.158685,5.541369 17.236933,14.476591 2.500453,3.675743 3.419645,5.326264 3.419645,6.140381 0,0.314693 -0.521957,0.950916 -1.273081,1.551778 -1.902323,1.521768 -4.605443,4.28877 -6.035108,6.177739 -0.697295,0.92131 -1.358388,1.671477 -1.4691,1.667043 -0.110717,-0.0044 -0.996312,-0.362669 -1.968007,-0.796065 z"
       id="path1608" />
    <path
       style="fill:#ff5555;stroke:none;stroke-width:0.264582"
       d="m 96.349129,84.660012 c -1.58168,-0.316265 -2.12766,-0.779055 -3.60224,-3.05332 -3.25769,-5.024385 -9.10865,-10.598884 -16.767423,-15.97514 -1.547617,-1.086387 -2.907125,-2.056656 -3.02113,-2.156158 -0.114007,-0.0995 -0.02357,-1.054351 0.201011,-2.121887 0.508775,-2.418613 0.516385,-5.299826 0.01954,-7.400286 -0.209206,-0.884461 -0.293268,-1.697043 -0.186806,-1.805742 0.106462,-0.108702 1.455473,-0.673164 2.997803,-1.254367 6.620305,-2.494761 13.969625,-3.03134 20.284815,-1.481008 2.58715,0.635124 5.982171,2.283376 7.405381,3.595239 3.41378,3.146719 3.03806,6.433132 -1.19743,10.474072 l -2.1506,2.051814 1.96179,1.243892 c 2.35336,1.492181 2.92073,1.960757 3.56537,2.94461 0.47916,0.731286 0.47804,0.762189 -0.0468,1.287053 -1.47397,1.473978 -5.42008,1.385685 -14.213391,-0.318018 -4.65034,-0.900999 -5.38948,-0.951763 -5.60694,-0.385073 -0.23202,0.604629 0.19613,0.991406 3.75438,3.391622 6.91239,4.662741 10.01351,7.488492 10.729331,9.77658 0.39295,1.256022 -1.317851,1.747754 -4.126651,1.186117 z"
       id="path1610" />
    <path
       style="fill:#ffffff;stroke:none;stroke-width:0.264582"
       d="m 42.132658,108.02177 c -1.360249,-1.50305 -1.289391,-6.2516 0.206722,-13.853942 1.130937,-5.74672 0.949393,-7.099603 -0.711917,-5.30534 -0.375341,0.40537 -1.932675,2.60647 -3.460743,4.89131 -1.752571,2.62054 -3.574061,4.96295 -4.933686,6.344652 -2.730131,2.77446 -4.066977,3.20006 -4.717118,1.50173 -0.263411,-0.68809 -0.234721,-1.43835 0.189863,-4.965192 l 0.153262,-1.27308 h -2.558123 c -1.406967,0 -3.160991,-0.1293 -3.89783,-0.28732 -3.680515,-0.78933 -5.507258,-4.17909 -4.476803,-8.307296 0.565217,-2.264382 2.488774,-6.10627 4.164537,-8.31776 1.94705,-2.569506 5.886472,-6.212159 9.478758,-8.764693 1.722656,-1.224053 3.257725,-2.460282 3.411272,-2.747178 0.177495,-0.331658 0.56058,-0.521635 1.05187,-0.521635 1.043574,0 1.620593,-0.248781 1.620593,-0.698715 0,-0.623244 0.930035,-0.418555 1.652511,0.363694 0.374403,0.405377 1.047438,1.279784 1.495637,1.943129 1.162666,1.720779 2.593063,3.081855 4.83904,4.604535 2.756266,1.868636 2.786134,1.986292 1.432899,5.644567 -1.590588,4.299925 -1.915442,6.105561 -2.08594,11.594312 -0.116304,3.7441 -0.05145,5.45444 0.289666,7.63849 1.110567,7.110752 1.085163,6.743452 0.545077,7.881052 -0.596998,1.25748 -2.299446,3.10767 -2.859513,3.10767 -0.22109,0 -0.594608,-0.21284 -0.830034,-0.47299 z"
       id="path1612" />
    <path
       style="fill:#a0a0a0;stroke:none;stroke-width:0.264582"
       d="m 71.155489,48.271884 c -1.329098,-1.958539 -2.858786,-3.565392 -5.312896,-5.580918 -1.376349,-1.130374 -2.441768,-2.200544 -2.371939,-2.382517 0.773825,-2.016561 1.579176,-5.245775 1.954258,-7.835979 0.646796,-4.46664 0.67089,-13.881466 0.0431,-16.845738 -0.440773,-2.081246 -0.560331,-3.213368 -0.50408,-4.773353 0.02946,-0.817275 2.479527,-3.6691964 3.152174,-3.6691964 0.201896,0 0.606076,0.391975 0.898181,0.871057 0.857721,1.406765 0.72732,5.2196494 -0.404964,11.8410414 -1.055773,6.173965 -1.12024,7.068103 -0.526054,7.296115 0.621394,0.238451 1.180043,-0.398437 4.33263,-4.939408 3.578667,-5.154698 6.00086,-7.975623 7.618462,-8.872577 1.936059,-1.073539 2.109841,-0.779257 2.109841,3.572821 v 3.539014 l 3.700827,-0.02061 c 3.62465,-0.02018 3.72438,-0.0051 4.84535,0.734172 3.08619,2.035231 2.86488,7.096111 -0.56455,12.909931 -2.7749,4.704221 -10.544797,11.528296 -16.745889,14.707422 -1.216279,0.623551 -1.469829,0.560716 -2.224453,-0.551288 z M 68.865067,31.937251 c 0.857593,-1.12316 1.269349,-2.507625 0.745791,-2.507625 -0.338205,0 -2.475628,2.875131 -2.475628,3.330063 0,0.793457 0.778695,0.423228 1.729837,-0.822438 z m 4.501566,-5.411726 c 1.785925,-1.749112 2.191247,-2.456245 1.407897,-2.456245 -0.604186,0 -4.423091,3.740067 -4.423091,4.33178 0,0.44278 0.08091,0.470127 0.603038,0.203841 0.331672,-0.169154 1.41714,-1.104874 2.412156,-2.079376 z M 77.90852,22.82675 c 1.066502,-0.739083 1.340963,-1.437645 0.564849,-1.437645 -0.627537,0 -2.493565,1.330966 -2.493565,1.778563 0,0.5743 0.816255,0.430018 1.928716,-0.340918 z"
       id="path1614" />
    <path
       style="fill:#a0a0a0;stroke:none;stroke-width:1"
       d=""
       id="path1616"
       transform="scale(0.26458333)" />
    <path
       style="fill:#0000ff;stroke:none;stroke-width:0.264582"
       d="m 98.684599,48.169242 c -4.20762,-1.122015 -13.24281,-1.320602 -18.01449,-0.395949 -1.031867,0.199954 -1.909363,0.332412 -1.949985,0.294353 -0.04063,-0.03806 1.105148,-0.949044 2.546164,-2.024418 4.005181,-2.988905 8.432241,-7.577295 11.021861,-11.423521 1.20441,-1.788856 2.38225,-3.412152 2.61742,-3.607318 0.60642,-0.503292 3.51317,-0.622808 4.79011,-0.196958 1.675291,0.558701 1.535181,1.029953 -1.11344,3.744824 -2.85871,2.930225 -5.53204,5.124155 -8.93355,7.331528 -2.92523,1.898298 -3.50716,2.45199 -2.84437,2.706328 0.23772,0.09122 0.43222,0.333864 0.43222,0.53921 0,0.448625 0.50471,0.47563 1.52365,0.08152 1.10052,-0.425665 6.71019,-1.496604 10.31371,-1.968985 3.053171,-0.400234 3.165231,-0.396185 5.223001,0.188853 1.79428,0.510129 2.11598,0.69044 2.19217,1.228699 0.10656,0.75285 -1.93671,2.862767 -3.48286,3.596461 -1.17558,0.557851 -1.93733,0.541172 -4.321611,-0.09462 z"
       id="path1618" />
    <path
       style="fill:#a0a0a0;stroke:none;stroke-width:0.264582"
       d="m 42.126335,108.01479 c -1.224465,-1.35303 -1.234476,-6.3144 -0.02526,-12.518872 0.373484,-1.91633 0.747462,-4.35864 0.831069,-5.42735 0.259517,-3.317344 -0.462606,-2.73073 -5.031473,4.08726 -2.699611,4.02855 -6.311446,8.004602 -7.554848,8.316682 -1.996702,0.50114 -2.348655,-0.78561 -1.633336,-5.971532 l 0.157118,-1.13907 H 26.3062 c -1.409873,0 -3.166273,-0.1293 -3.903112,-0.28732 -3.680515,-0.78933 -5.507256,-4.17909 -4.476804,-8.307296 0.565218,-2.264382 2.488775,-6.10627 4.164538,-8.31776 1.94705,-2.569506 5.886473,-6.212159 9.478758,-8.764693 1.722657,-1.224053 3.257726,-2.460282 3.411272,-2.747178 0.177495,-0.331658 0.560581,-0.521635 1.05187,-0.521635 1.043574,0 1.620593,-0.248781 1.620593,-0.698715 0,-0.623244 0.930035,-0.418555 1.652511,0.363694 0.374403,0.405377 1.049709,1.279784 1.500684,1.943129 1.082874,1.592809 3.020849,3.418928 5.10325,4.808702 2.462357,1.643351 2.501417,1.826844 1.158153,5.4404 -1.535427,4.130496 -1.914129,6.262461 -2.083299,11.728322 -0.111524,3.60334 -0.04352,5.34248 0.293433,7.50448 1.11068,7.126412 1.084237,6.743462 0.544158,7.881052 -0.596996,1.25748 -2.299447,3.10767 -2.859514,3.10767 -0.221089,0 -0.597451,-0.21599 -0.836356,-0.47997 z"
       id="path1620" />
    <path
       style="fill:#ffffff;stroke:none;stroke-width:0.264582"
       d="m 42.014942,107.50174 c -0.865702,-1.32123 -0.80089,-5.78902 0.169443,-11.680482 0.861104,-5.22824 1.024765,-7.54337 0.553843,-7.83442 -0.383842,-0.23722 -1.505074,1.0307 -3.489968,3.94656 -4.44193,6.52531 -7.926043,10.396962 -9.356266,10.396962 -1.202088,0 -1.454979,-0.72402 -1.264698,-3.620792 0.08835,-1.34506 0.230126,-2.62663 0.315047,-2.84793 0.129507,-0.33748 -0.419913,-0.44668 -3.406821,-0.67713 -3.993136,-0.30807 -5.332641,-0.78507 -6.456874,-2.29929 -1.909684,-2.57212 -1.675551,-5.634364 0.798386,-10.442161 2.256186,-4.384637 5.572645,-7.966854 11.477872,-12.397649 1.621505,-1.216643 3.179601,-2.472496 3.462438,-2.790785 0.282836,-0.318287 0.986667,-0.654249 1.564067,-0.746576 0.577398,-0.09234 1.112689,-0.331717 1.189536,-0.531974 0.07685,-0.200254 0.345465,-0.3641 0.596932,-0.3641 0.511172,0 1.257639,0.760764 2.917913,2.973789 1.172066,1.562276 2.765326,3.009311 4.959983,4.504767 1.994335,1.358954 2.05197,1.680672 0.905799,5.056002 -1.644721,4.843486 -1.821377,5.900921 -1.980465,11.855027 -0.127082,4.75616 -0.07038,5.98826 0.42197,9.17041 0.852402,5.509172 0.828815,5.703922 -0.958693,7.915702 -1.064952,1.31772 -1.750476,1.43504 -2.419444,0.41407 z"
       id="path1622" />
    <path
       style="fill:#ffffff;stroke:none;stroke-width:0.264582"
       d="m 42.175425,107.51647 c -0.690727,-0.83047 -0.619169,-6.34009 0.151884,-11.694082 0.774474,-5.37773 0.883117,-7.96497 0.334471,-7.96497 -0.534192,0 -1.501115,1.13726 -4.215694,4.95832 -2.934855,4.13113 -5.809219,7.616942 -7.080313,8.586442 -0.604837,0.46134 -1.172408,0.66955 -1.669672,0.61253 l -0.753351,-0.0864 -4.51e-4,-3.213712 -4.49e-4,-3.21372 -1.205616,-0.18272 c -0.663087,-0.10051 -2.247635,-0.30552 -3.521216,-0.45558 -1.273581,-0.15007 -2.735128,-0.44815 -3.247883,-0.66239 -2.049956,-0.85652 -3.348579,-3.81433 -2.852617,-6.49724 0.707692,-3.828252 3.584285,-8.638479 7.441683,-12.443941 3.121056,-3.079034 9.729426,-8.288446 10.937356,-8.621972 0.479811,-0.132485 0.944162,-0.357019 1.031893,-0.498969 0.360774,-0.583745 1.231171,-0.18655 2.191671,1.000127 2.011664,2.485377 3.732135,4.199259 5.708708,5.686836 1.439879,1.083659 2.032741,1.704731 2.089831,2.189265 0.04384,0.372035 -0.403442,2.197933 -0.993947,4.057549 -0.590502,1.859615 -1.199259,4.382887 -1.352782,5.607273 -0.410641,3.274942 -0.340241,11.697992 0.122885,14.703032 0.560468,3.636612 0.51835,5.297262 -0.163152,6.432412 -1.23636,2.05937 -2.195958,2.61237 -2.953233,1.70189 z"
       id="path1624" />
    <path
       style="fill:#ffff00;stroke:none;stroke-width:0.264582"
       d="m 11.967284,84.907575 c -0.507579,-0.12365 -0.764936,-0.467714 -0.677394,-0.905601 0.230284,-1.151894 2.605087,-3.707084 6.77479,-7.289404 2.278715,-1.957718 5.066354,-4.432012 6.213814,-5.515355 0.243967,-0.230335 0.240753,-0.254207 -0.124586,-0.925446 -0.247732,-0.455162 -0.438859,-0.664508 -0.563142,-0.616816 -0.319177,0.122487 -4.6666,0.717125 -7.067193,0.96666 -3.227188,0.335454 -9.463893,0.343172 -10.529598,0.01305 -1.55669,-0.482246 -1.54564,-1.020606 0.04925,-2.399492 1.988037,-1.718783 2.967467,-1.933441 5.402182,-1.183991 2.742914,0.844323 5.810632,1.198951 10.371506,1.198951 4.53343,0 8.94091,-0.494888 11.323735,-1.271467 0.376815,-0.122813 -0.218783,0.386309 -1.931386,1.650954 -3.588306,2.649717 -6.099046,4.82581 -8.457477,7.330196 -2.050313,2.177205 -3.332337,3.930523 -4.336705,5.930953 -0.757434,1.508596 -1.345048,2.185201 -2.227485,2.564816 -0.98234,0.422592 -3.315397,0.672474 -4.220321,0.452018 z"
       id="path1627" />
    <path
       style="fill:#a0a0a0;stroke:none;stroke-width:0.264582"
       d="m 71.6474,48.721104 c -0.186404,-0.20269 -0.688942,-0.840511 -1.11675,-1.417381 -1.004266,-1.35418 -2.49875,-2.860854 -4.772573,-4.811486 -2.080296,-1.784617 -2.285833,-2.031052 -2.098355,-2.515895 0.704187,-1.821094 1.593577,-5.642286 1.907673,-8.196138 0.5722,-4.652448 0.513784,-12.885335 -0.11775,-16.594943 -0.181925,-1.068627 -0.372463,-2.439235 -0.423415,-3.045795 -0.08611,-1.025159 -0.06719,-1.154845 0.268645,-1.841281 0.387706,-0.7924354 2.193169,-2.8164674 2.638372,-2.9577714 0.611309,-0.194021 1.256555,0.898207 1.485022,2.513736 0.263697,1.8646544 -0.04813,5.0170454 -1.163552,11.7627344 -0.788028,4.765729 -0.780422,5.629326 0.04959,5.629326 0.55626,0 1.192129,-0.749495 4.092955,-4.824311 3.054578,-4.290801 4.644688,-6.295593 6.080601,-7.666336 1.011368,-0.965473 2.400791,-1.848284 2.908934,-1.848284 0.495378,0 0.634875,0.854509 0.704248,4.314025 l 0.06636,3.308965 3.633454,0.04125 c 3.49546,0.03969 3.65762,0.05315 4.26999,0.354728 1.99253,0.981254 2.98423,3.200536 2.65182,5.934425 -0.21898,1.800976 -0.72324,3.34753 -1.80794,5.544866 -1.14833,2.326246 -2.41769,4.094895 -4.52516,6.305076 -3.7419,3.924264 -8.901875,7.914593 -12.810036,9.906297 -1.119839,0.570702 -1.475378,0.589973 -1.922139,0.104179 z M 67.861311,33.022887 c 0.817463,-0.498485 1.81134,-1.988813 2.001192,-3.000815 0.07594,-0.404786 0.04918,-0.511633 -0.146938,-0.586893 -0.296008,-0.113595 -1.010644,0.648331 -1.953733,2.083002 -0.601875,0.915597 -0.780959,1.448752 -0.56063,1.669081 0.131705,0.131705 0.204137,0.113666 0.660109,-0.164375 z m 3.102058,-4.344881 c 0.567262,-0.315131 2.740781,-2.303539 3.464611,-3.169542 0.796427,-0.952863 0.941277,-1.478463 0.407454,-1.478463 -0.491256,0 -1.750711,1.070275 -3.596947,3.056656 -0.696078,0.748919 -0.910417,1.072297 -0.910417,1.373592 0,0.428217 0.158595,0.482579 0.635299,0.217757 z m 6.73518,-5.644458 c 1.197934,-0.726997 1.664574,-1.683722 0.821231,-1.683722 -0.768309,0 -2.563345,1.265336 -2.563345,1.806922 0,0.606446 0.611026,0.563231 1.742114,-0.123196 z"
       id="path1629" />
    <path
       style="fill:#ffffff;stroke:none;stroke-width:0.264582"
       d="m 71.6497,48.721104 c -0.185139,-0.20269 -0.732026,-0.881107 -1.2153,-1.5076 -1.106979,-1.435015 -2.374611,-2.710479 -4.62417,-4.652722 -0.973865,-0.840825 -1.885878,-1.686929 -2.026688,-1.880235 -0.254647,-0.349569 -0.253933,-0.357651 0.132089,-1.49905 0.540371,-1.597818 1.129154,-4.05828 1.445097,-6.038906 0.766336,-4.804147 0.813584,-13.652362 0.09556,-17.895473 -0.186592,-1.102649 -0.38053,-2.501092 -0.430971,-3.107652 -0.08519,-1.024308 -0.06599,-1.155415 0.269571,-1.841281 0.387706,-0.7924354 2.193169,-2.8164674 2.638372,-2.9577714 0.58699,-0.186302 1.233528,0.857099 1.470452,2.373064 0.284326,1.8192634 -0.02736,5.1414594 -1.079066,11.5023404 -0.844778,5.109225 -0.856886,6.030392 -0.07928,6.030392 0.651269,0 1.109418,-0.54394 4.627758,-5.494357 2.565472,-3.609696 4.217878,-5.672364 5.604746,-6.99629 1.011367,-0.965473 2.40079,-1.848284 2.908933,-1.848284 0.495379,0 0.634876,0.854509 0.704248,4.314025 l 0.06636,3.308965 3.633448,0.04125 c 3.49547,0.03969 3.65762,0.05315 4.26999,0.354728 0.86724,0.427085 1.72404,1.292254 2.15037,2.171394 1.05267,2.170665 0.64879,5.294948 -1.17138,9.061462 -0.92445,1.912988 -1.55285,2.912175 -2.80979,4.46771 -3.41893,4.231116 -9.935294,9.58266 -14.501317,11.909163 -1.281129,0.65277 -1.623986,0.683299 -2.079032,0.185121 z M 67.775112,33.079102 c 0.778375,-0.402518 1.900371,-2.042398 2.087323,-3.050799 0.07616,-0.410746 0.04966,-0.517707 -0.14687,-0.593124 -0.291006,-0.111667 -0.958068,0.599394 -1.941103,2.069152 -0.611308,0.913987 -0.797018,1.459173 -0.57326,1.682931 0.120828,0.120828 0.136981,0.117779 0.57391,-0.108164 z m 3.290007,-4.473556 c 0.608007,-0.374706 2.532152,-2.156803 3.356498,-3.1087 0.782632,-0.90373 0.955359,-1.466845 0.449936,-1.466845 -0.404549,0 -0.952589,0.417771 -2.449911,1.867567 -1.521524,1.473232 -2.093572,2.195084 -2.093572,2.641831 0,0.37904 0.200193,0.397005 0.737049,0.06614 z m 6.454665,-5.461506 c 0.784366,-0.447091 1.384845,-1.084278 1.384845,-1.469499 0,-0.481694 -0.582037,-0.4261 -1.548987,0.147948 -0.901033,0.53492 -1.399207,1.033289 -1.399207,1.399766 0,0.485785 0.629094,0.454311 1.563349,-0.07821 z"
       id="path1631" />
    <path
       style="fill:#00ffff;stroke:none;stroke-width:1"
       d="m 160.43022,407.55029 c -4.2684,-2.9897 -4.4964,-18.62842 -0.66089,-45.33099 2.36567,-16.46958 2.92358,-22.16159 2.71295,-27.67857 -0.21226,-5.55984 -4.24938,-1.87539 -15.45746,14.10714 -11.13267,15.87501 -16.26865,22.35972 -23.55486,29.74049 -7.76399,7.86473 -10.62648,9.39158 -13.2151,7.04891 -1.97285,-1.78541 -2.33016,-5.60496 -1.43478,-15.33755 0.44248,-4.8096 0.69404,-8.85518 0.55904,-8.99019 -0.13501,-0.13501 -3.28875,-0.59985 -7.00833,-1.03299 -3.719567,-0.43314 -9.378332,-1.09964 -12.57503,-1.4811 -10.675185,-1.2739 -15.444298,-3.91043 -19.047061,-10.5299 -4.355662,-8.00278 -3.878631,-16.78124 1.602823,-29.49558 8.480948,-19.67174 21.12832,-34.08339 48.179048,-54.89993 4.27888,-3.29275 9.15646,-7.17834 10.83908,-8.63463 1.95482,-1.69189 4.38787,-2.96653 6.73931,-3.53063 2.02401,-0.48555 3.85045,-1.32699 4.05877,-1.86986 0.69486,-1.81077 3.46194,-1.03524 6.03538,1.69153 1.39037,1.47322 4.46513,5.08929 6.83281,8.03572 5.28423,6.57591 9.00397,10.04034 17.2695,16.0842 6.5764,4.80874 8.22795,7.12951 7.4539,10.47424 -0.21075,0.91071 -1.9635,6.77175 -3.89497,13.02452 -5.42744,17.57029 -5.84474,20.85531 -5.90546,46.48847 -0.0464,19.59505 0.13173,23.31515 1.5483,32.33124 2.01575,12.82982 2.04479,17.21241 0.13877,20.94853 -1.5341,3.00708 -7.78343,9.93451 -8.96207,9.93451 -0.37766,0 -1.39182,-0.49391 -2.25367,-1.09758 z"
       id="path1633"
       transform="scale(0.26458333)" />
    <path
       style="fill:#a0a0a0;stroke:none;stroke-width:1"
       d=""
       id="path1635"
       transform="scale(0.26458333)" />
    <path
       style="fill:#ffffff;stroke:none;stroke-width:1"
       d="m 44.357937,320.01923 c -4.216846,-2.45609 2.976172,-10.95609 28.035715,-33.12986 7.660714,-6.77853 15.345321,-13.59282 17.076907,-15.14286 3.302943,-2.95667 3.586171,-4.54516 1.346971,-7.5546 -0.87365,-1.17416 -1.622871,-1.14111 -13.781021,0.60791 -17.343695,2.49499 -49.967805,3.30783 -55.038551,1.37129 -2.107266,-0.80477 -3.175735,-1.63872 -3.175735,-2.4787 0,-1.74564 7.171439,-8.37471 10.881783,-10.05881 4.060211,-1.84291 5.864062,-1.7634 15.672049,0.69081 12.912785,3.2311 20.413367,3.83272 42.29176,3.3922 14.993825,-0.3019 21.140715,-0.71404 27.213895,-1.82464 4.31486,-0.78905 7.95272,-1.32713 8.08413,-1.19572 0.1314,0.1314 -4.20252,3.62974 -9.63092,7.77408 -21.654061,16.53186 -35.155213,30.75475 -43.613705,45.94516 -4.342646,7.79886 -6.824258,10.13381 -12.086088,11.3718 -4.893042,1.15123 -11.50069,1.26666 -13.27719,0.23194 z"
       id="path1637"
       transform="scale(0.26458333)" />
    <path
       style="fill:#ffffff;stroke:none;stroke-width:1"
       d="m 44.298414,319.60025 c -2.852817,-2.85281 5.397551,-12.02314 32.380952,-35.99158 7.660714,-6.80476 14.320136,-12.87434 14.798714,-13.48797 1.308543,-1.6778 1.087986,-4.66681 -0.446857,-6.05582 -1.291485,-1.16878 -2.002258,-1.15429 -13.650523,0.2783 -22.505295,2.76788 -53.794742,3.2048 -56.702257,0.79178 -1.828036,-1.51714 -1.380129,-2.55462 2.721146,-6.30295 7.080319,-6.47101 9.892362,-7.00335 21.966446,-4.15838 13.001195,3.06342 18.563665,3.46863 42.020454,3.06106 15.428491,-0.26808 23.551681,-0.70843 27.815371,-1.50787 3.31237,-0.62106 6.10531,-1.04638 6.20653,-0.94516 0.10123,0.10123 -4.69818,4.02344 -10.66535,8.71603 -12.133788,9.54203 -29.250463,26.15751 -34.22372,33.22161 -1.79776,2.55357 -4.935234,7.375 -6.972162,10.71429 -4.830046,7.91825 -6.710577,9.81312 -11.004302,11.08822 -3.581604,1.06362 -13.362095,1.46079 -14.244442,0.57844 z"
       id="path1639"
       transform="scale(0.26458333)" />
    <path
       style="fill:#a0a0a0;stroke:none;stroke-width:1"
       d=""
       id="path1641"
       transform="scale(0.26458333)" />
    <path
       style="fill:#d35f5f;stroke:none;stroke-width:1"
       d="m 366.52979,320.03362 c -6.30167,-0.94698 -9.30972,-2.8574 -13.1379,-8.34391 -8.91925,-12.78297 -14.32019,-19.27261 -24.54361,-29.49106 -12.25718,-12.25121 -22.97323,-21.17503 -40.74034,-33.92666 -6.48215,-4.65229 -11.92718,-8.56775 -12.10007,-8.70101 -0.17289,-0.13326 0.2321,-3.69012 0.89998,-7.90413 1.49545,-9.43561 1.54414,-19.66675 0.12878,-27.06329 -0.58922,-3.0792 -1.07136,-5.96818 -1.07143,-6.41996 -2.8e-4,-1.91134 18.87674,-8.592 32.14274,-11.37546 21.17831,-4.44361 44.13835,-3.70451 61.07143,1.96593 20.09645,6.72977 32.19497,18.49597 30.83401,29.98707 -0.69987,5.90938 -4.31659,11.59234 -13.16188,20.68132 l -8.07219,8.29459 9.1652,6.10501 c 9.87562,6.57822 14.00412,10.94038 12.54731,13.25742 -2.44655,3.89121 -10.9726,5.52703 -23.02391,4.41739 -9.24522,-0.85126 -11.69097,-1.22257 -31.32292,-4.75537 -7.77198,-1.39858 -15.37939,-2.38022 -17.49999,-2.25814 -3.26037,0.18768 -3.78104,0.42489 -3.9782,1.81244 -0.29792,2.09659 1.7128,3.90542 12.72685,11.44899 14.35588,9.83239 27.11718,19.60401 32.60139,24.96364 5.0018,4.88816 9.52149,11.49541 9.53477,13.93869 0.0156,2.87597 -5.96248,4.42407 -13.00002,3.3665 z"
       id="path1643"
       transform="scale(0.26458333)" />
    <path
       style="fill:#ffff00;stroke:none;stroke-width:1"
       d="m 272.03419,184.52979 c -0.39414,-0.28862 -3.02886,-3.29788 -5.85494,-6.68723 -4.43442,-5.31826 -11.67527,-12.41209 -22.70103,-22.24007 l -2.844,-2.53505 0.87101,-3.10264 c 4.71425,-16.79279 6.24498,-24.95044 7.39493,-39.40963 1.16044,-14.591022 0.40711,-43.298209 -1.44649,-55.121583 -1.94298,-12.393497 -1.89914,-13.731304 0.57471,-17.538728 2.66402,-4.100124 8.54716,-10.114928 9.56248,-9.77649 1.75583,0.585278 3.50264,4.102459 4.27401,8.605677 1.03294,6.030296 0.0518,17.505282 -3.37722,39.499979 -3.442,22.077642 -3.67262,24.743195 -2.26272,26.153085 2.67086,2.67086 4.85504,0.53737 17.55319,-17.145864 16.35739,-22.779049 24.32537,-31.695728 31.30126,-35.028129 3.74835,-1.790601 4.01987,-0.985009 4.75628,14.111711 l 0.6563,13.454395 13.62941,0.298621 c 15.49165,0.339421 17.24045,0.812989 21.53653,5.832 6.8622,8.016937 5.93319,21.323906 -2.70631,38.764486 -4.44523,8.97359 -8.85119,14.94831 -18.04312,24.46743 -13.14293,13.61077 -34.87966,30.4168 -46.44339,35.90831 -4.53684,2.1545 -5.28609,2.32807 -6.43089,1.48972 z m -13.642,-60.91374 c 2.53962,-2.22981 6.14432,-8.55446 6.14432,-10.78056 0,-1.60788 -1.12392,-2.28624 -2.50624,-1.51265 -1.53216,0.85743 -6.77856,7.93206 -7.97149,10.74933 -1.78517,4.21592 0.40245,4.99532 4.33341,1.54388 z m 15.31233,-19.28097 c 5.91508,-5.119843 10.83199,-10.828241 10.83199,-12.575638 0,-2.16482 -3.62849,-0.904995 -7.67101,2.663404 -7.99325,7.055774 -12.29986,12.538564 -11.22052,14.284974 0.84255,1.36327 2.42371,0.5054 8.05954,-4.37274 z m 20.81424,-17.465258 c 3.59317,-2.496685 4.74171,-4.518398 3.3548,-5.905305 -0.95554,-0.955537 -1.41951,-0.906438 -4.2129,0.445822 -6.50361,3.148341 -9.39407,8.755803 -3.95233,7.667454 1.26098,-0.252195 3.42567,-1.245782 4.81043,-2.207971 z"
       id="path1645"
       transform="scale(0.26458333)" />
  </g>
  <g
     inkscape:label="Слой 1"
     inkscape:groupmode="layer"
     id="layer1" />
</svg>
