<?xml version="1.0" encoding="UTF-8" standalone="no"?>
<svg
   xmlns:dc="http://purl.org/dc/elements/1.1/"
   xmlns:cc="http://creativecommons.org/ns#"
   xmlns:rdf="http://www.w3.org/1999/02/22-rdf-syntax-ns#"
   xmlns:svg="http://www.w3.org/2000/svg"
   xmlns="http://www.w3.org/2000/svg"
   xmlns:sodipodi="http://sodipodi.sourceforge.net/DTD/sodipodi-0.dtd"
   xmlns:inkscape="http://www.inkscape.org/namespaces/inkscape"
   width="210mm"
   height="99mm"
   viewBox="0 0 210 99"
   version="1.1"
   id="svg8"
   inkscape:version="1.0.2 (e86c870879, 2021-01-15, custom)"
   sodipodi:docname="шапка обрамление  для сайта.svg">
  <defs
     id="defs2" />
  <sodipodi:namedview
     id="base"
     pagecolor="#ffffff"
     bordercolor="#666666"
     borderopacity="1.0"
     inkscape:pageopacity="0.0"
     inkscape:pageshadow="2"
     inkscape:zoom="1.4018421"
     inkscape:cx="404.09482"
     inkscape:cy="88.615745"
     inkscape:document-units="mm"
     inkscape:current-layer="layer1"
     inkscape:document-rotation="0"
     showgrid="false"
     inkscape:window-width="1670"
     inkscape:window-height="915"
     inkscape:window-x="101"
     inkscape:window-y="96"
     inkscape:window-maximized="0" />
  <metadata
     id="metadata5">
    <rdf:RDF>
      <cc:Work
         rdf:about="">
        <dc:format>image/svg+xml</dc:format>
        <dc:type
           rdf:resource="http://purl.org/dc/dcmitype/StillImage" />
        <dc:title></dc:title>
      </cc:Work>
    </rdf:RDF>
  </metadata>
  <g
     inkscape:label="Слой 1"
     inkscape:groupmode="layer"
     id="layer1">
    <path
       style="fill:#000000;stroke-width:0.999996"
       d="m 205.06686,86.253472 c 0,0 -0.37873,-50.18181 -0.37873,-57.056207 0,-6.874397 -7.07832,-12.717632 -14.1857,-14.185709 -1.65631,-0.342116 -9.87321,-0.378727 -85.01443,-0.378727 -75.14122,0 -83.358118,0.0366 -85.014433,0.378727 -7.10738,1.468077 -14.1857026,6.928286 -14.1857026,14.185709 0,4.425917 0.053788,58.736507 0.053788,58.736507 z M 8.3185212,86.815262 c 0.00396,-2.887879 -0.00493,-11.577133 -0.00493,-20.800172 0,-24.470856 -0.6705384,-27.443928 4.7769538,-33.197969 2.42811,-2.564748 5.302396,-3.805456 8.776382,-4.369109 2.138808,-0.347016 165.103533,-0.347016 167.242343,0 5.90933,0.958792 11.01147,5.169701 12.83124,10.58993 0.94013,2.800171 0.85436,4.422912 0.98317,25.860672 l 0.12182,20.275128 z M 21.866829,17.026243 H 189.10917 c 5.38028,0.943699 6.16287,7.424694 1.39315,9.406461 H 20.473459 c -4.213959,-1.201132 -4.570354,-7.871681 1.39337,-9.406461 z"
       id="path76"
       sodipodi:nodetypes="czsssscccssssssccccccc" />
  </g>
</svg>
